<?xml version="1.0" encoding="UTF-8" standalone="no"?>
<!-- Created with Inkscape (http://www.inkscape.org/) -->

<svg
   xmlns:dc="http://purl.org/dc/elements/1.1/"
   xmlns:cc="http://creativecommons.org/ns#"
   xmlns:rdf="http://www.w3.org/1999/02/22-rdf-syntax-ns#"
   xmlns:svg="http://www.w3.org/2000/svg"
   xmlns="http://www.w3.org/2000/svg"
   xmlns:xlink="http://www.w3.org/1999/xlink"
   xmlns:sodipodi="http://sodipodi.sourceforge.net/DTD/sodipodi-0.dtd"
   xmlns:inkscape="http://www.inkscape.org/namespaces/inkscape"
   width="1351.74"
   height="1351.7388"
   id="svg2"
   version="1.1"
   inkscape:version="0.48.3.1 r9886"
   sodipodi:docname="j.svg">
  <defs
     id="defs4">
    <linearGradient
       id="linearGradient3265-7"
       inkscape:collect="always">
      <stop
         id="stop3267-6"
         offset="0"
         style="stop-color:#a0692f;stop-opacity:1;" />
      <stop
         id="stop3269-0"
         offset="1"
         style="stop-color:#a0692f;stop-opacity:0;" />
    </linearGradient>
    <linearGradient
       inkscape:collect="always"
       xlink:href="#linearGradient3265-7"
       id="linearGradient4849"
       gradientUnits="userSpaceOnUse"
       gradientTransform="matrix(1.9601035,0,0,1.9601035,-1268.7026,1291.2843)"
       x1="1128.5424"
       y1="-358.21252"
       x2="1128.5"
       y2="-350.88782" />
    <linearGradient
       inkscape:collect="always"
       xlink:href="#linearGradient3265-7"
       id="linearGradient4855"
       gradientUnits="userSpaceOnUse"
       gradientTransform="matrix(-1.9601035,0,0,1.9601035,3084.4205,1291.2843)"
       x1="1128.5424"
       y1="-358.21252"
       x2="1128.5"
       y2="-350.88782" />
    <linearGradient
       id="linearGradient3265-7-8"
       inkscape:collect="always">
      <stop
         id="stop3267-6-3"
         offset="0"
         style="stop-color:#a0692f;stop-opacity:1;" />
      <stop
         id="stop3269-0-6"
         offset="1"
         style="stop-color:#a0692f;stop-opacity:0;" />
    </linearGradient>
    <linearGradient
       y2="-435.80673"
       x2="919.21014"
       y1="-434.2847"
       x1="987.61987"
       gradientTransform="matrix(0.64156397,0,0,0.64156397,-240.46334,1048.4872)"
       gradientUnits="userSpaceOnUse"
       id="linearGradient3738"
       xlink:href="#linearGradient4094-1"
       inkscape:collect="always" />
    <linearGradient
       id="linearGradient4094-1">
      <stop
         id="stop4096-9"
         offset="0"
         style="stop-color:#52676c;stop-opacity:1;" />
      <stop
         id="stop4098-2"
         offset="1"
         style="stop-color:#52676c;stop-opacity:0;" />
    </linearGradient>
    <linearGradient
       id="linearGradient3310"
       inkscape:collect="always">
      <stop
         id="stop3312"
         offset="0"
         style="stop-color:#0b2228;stop-opacity:1;" />
      <stop
         id="stop3314"
         offset="1"
         style="stop-color:#0b2228;stop-opacity:0;" />
    </linearGradient>
    <linearGradient
       id="linearGradient4122-9"
       inkscape:collect="always">
      <stop
         id="stop4124-7"
         offset="0"
         style="stop-color:#1c2224;stop-opacity:1;" />
      <stop
         id="stop4126-6"
         offset="1"
         style="stop-color:#1c2224;stop-opacity:0" />
    </linearGradient>
    <linearGradient
       inkscape:collect="always"
       xlink:href="#linearGradient3310"
       id="linearGradient6795"
       gradientUnits="userSpaceOnUse"
       x1="1748.3407"
       y1="-227.81718"
       x2="1759.3722"
       y2="-149.25218" />
    <linearGradient
       inkscape:collect="always"
       xlink:href="#linearGradient4122-9"
       id="linearGradient6814"
       gradientUnits="userSpaceOnUse"
       gradientTransform="matrix(0.76362355,0,0,0.76362355,-529.2141,788.2198)"
       x1="1627.4237"
       y1="-275.98389"
       x2="1568.8258"
       y2="-208.25383" />
    <linearGradient
       inkscape:collect="always"
       id="linearGradient4871">
      <stop
         style="stop-color:#241c1f;stop-opacity:0.37777778"
         offset="0"
         id="stop4873" />
      <stop
         style="stop-color:#241c1f;stop-opacity:0;"
         offset="1"
         id="stop4875" />
    </linearGradient>
    <radialGradient
       inkscape:collect="always"
       xlink:href="#linearGradient4871"
       id="radialGradient4631"
       gradientUnits="userSpaceOnUse"
       gradientTransform="matrix(1.6682146,1.6471163,-0.88417937,0.89550496,-1046.6412,-1706.4218)"
       cx="1014.4006"
       cy="-408.6366"
       fx="1014.4006"
       fy="-408.6366"
       r="120.84957" />
    <linearGradient
       y2="-341.95212"
       x2="1033.103"
       y1="-312.79977"
       x1="1033.9359"
       gradientUnits="userSpaceOnUse"
       id="linearGradient4392"
       xlink:href="#linearGradient3219"
       inkscape:collect="always" />
    <linearGradient
       y2="-341.95212"
       x2="1033.103"
       y1="-312.79977"
       x1="1033.9359"
       gradientUnits="userSpaceOnUse"
       id="linearGradient4390"
       xlink:href="#linearGradient3209"
       inkscape:collect="always" />
    <linearGradient
       inkscape:collect="always"
       id="linearGradient3219">
      <stop
         style="stop-color:#3e4837;stop-opacity:1"
         offset="0"
         id="stop3221" />
      <stop
         style="stop-color:#e5ffd5;stop-opacity:0;"
         offset="1"
         id="stop3223" />
    </linearGradient>
    <linearGradient
       id="linearGradient3209"
       inkscape:collect="always">
      <stop
         id="stop3211"
         offset="0"
         style="stop-color:#3e4837;stop-opacity:1" />
      <stop
         id="stop3213"
         offset="1"
         style="stop-color:#e5ffd5;stop-opacity:0;" />
    </linearGradient>
    <linearGradient
       y2="-299.90375"
       x2="1731.0365"
       y1="-347.02103"
       x1="1621.358"
       gradientTransform="matrix(1.3519879,0,0,1.3519879,-2458.2999,1401.0995)"
       gradientUnits="userSpaceOnUse"
       id="linearGradient4525"
       xlink:href="#linearGradient4136"
       inkscape:collect="always" />
    <linearGradient
       id="linearGradient4136"
       inkscape:collect="always">
      <stop
         id="stop4138"
         offset="0"
         style="stop-color:#000000;stop-opacity:1" />
      <stop
         id="stop4140"
         offset="1"
         style="stop-color:#2b1100;stop-opacity:0;" />
    </linearGradient>
    <linearGradient
       id="linearGradient3449"
       inkscape:collect="always">
      <stop
         id="stop3451"
         offset="0"
         style="stop-color:#000000;stop-opacity:1;" />
      <stop
         id="stop3453"
         offset="1"
         style="stop-color:#000000;stop-opacity:0;" />
    </linearGradient>
    <linearGradient
       id="linearGradient4233"
       inkscape:collect="always">
      <stop
         id="stop4235"
         offset="0"
         style="stop-color:#000000;stop-opacity:1;" />
      <stop
         id="stop4237"
         offset="1"
         style="stop-color:#000000;stop-opacity:0;" />
    </linearGradient>
    <linearGradient
       id="linearGradient4283"
       inkscape:collect="always">
      <stop
         id="stop4285"
         offset="0"
         style="stop-color:#2b1100;stop-opacity:1;" />
      <stop
         id="stop4287"
         offset="1"
         style="stop-color:#2b1100;stop-opacity:0;" />
    </linearGradient>
    <linearGradient
       inkscape:collect="always"
       xlink:href="#linearGradient4283"
       id="linearGradient6031"
       gradientUnits="userSpaceOnUse"
       gradientTransform="translate(-2538.9898,1459.867)"
       x1="503.56857"
       y1="-348.85837"
       x2="512.40308"
       y2="-335.29108" />
    <linearGradient
       inkscape:collect="always"
       xlink:href="#linearGradient3449"
       id="linearGradient6033"
       gradientUnits="userSpaceOnUse"
       gradientTransform="translate(-2538.9898,1459.867)"
       x1="535.43597"
       y1="-304.05469"
       x2="522.1842"
       y2="-302.79257" />
    <linearGradient
       inkscape:collect="always"
       xlink:href="#linearGradient4233"
       id="linearGradient6035"
       gradientUnits="userSpaceOnUse"
       gradientTransform="translate(-2538.9898,1459.867)"
       x1="492.84091"
       y1="-285.43903"
       x2="581.34399"
       y2="-291.27615" />
    <linearGradient
       id="linearGradient4817"
       inkscape:collect="always">
      <stop
         id="stop4819"
         offset="0"
         style="stop-color:#917c6f;stop-opacity:1;" />
      <stop
         id="stop4821"
         offset="1"
         style="stop-color:#2b1100;stop-opacity:1" />
    </linearGradient>
    <linearGradient
       inkscape:collect="always"
       id="linearGradient5172">
      <stop
         style="stop-color:#502d16;stop-opacity:1;"
         offset="0"
         id="stop5174" />
      <stop
         style="stop-color:#917c6f;stop-opacity:1"
         offset="1"
         id="stop5176" />
    </linearGradient>
    <linearGradient
       id="linearGradient5181">
      <stop
         id="stop5183"
         offset="0"
         style="stop-color:#907b6e;stop-opacity:1" />
      <stop
         style="stop-color:#7a6356;stop-opacity:1;"
         offset="0.75249761"
         id="stop5191" />
      <stop
         style="stop-color:#644c3e;stop-opacity:1;"
         offset="0.812451"
         id="stop5189" />
      <stop
         id="stop5185"
         offset="1"
         style="stop-color:#381e0e;stop-opacity:1" />
    </linearGradient>
    <linearGradient
       inkscape:collect="always"
       id="linearGradient5193">
      <stop
         style="stop-color:#826c5f;stop-opacity:1"
         offset="0"
         id="stop5195" />
      <stop
         style="stop-color:#502d16;stop-opacity:1"
         offset="1"
         id="stop5197" />
    </linearGradient>
    <linearGradient
       inkscape:collect="always"
       xlink:href="#linearGradient4817"
       id="linearGradient5870"
       gradientUnits="userSpaceOnUse"
       gradientTransform="matrix(0.89679722,0,0,0.89679722,-2045.7805,1424)"
       x1="660.06604"
       y1="-501.25412"
       x2="616.52441"
       y2="-327.7186" />
    <linearGradient
       inkscape:collect="always"
       xlink:href="#linearGradient5181"
       id="linearGradient5872"
       gradientUnits="userSpaceOnUse"
       gradientTransform="translate(-1159.9752,1449.158)"
       x1="-276.65112"
       y1="-462.97198"
       x2="-282.89807"
       y2="-279.57907" />
    <linearGradient
       inkscape:collect="always"
       xlink:href="#linearGradient5172"
       id="linearGradient5874"
       gradientUnits="userSpaceOnUse"
       gradientTransform="matrix(0.89679722,0,0,0.89679722,-2045.7805,1424)"
       x1="533.96741"
       y1="-432.47049"
       x2="555.86011"
       y2="-240.41187" />
    <linearGradient
       inkscape:collect="always"
       xlink:href="#linearGradient4817"
       id="linearGradient5876"
       gradientUnits="userSpaceOnUse"
       gradientTransform="matrix(0.82173933,0,0,0.82173933,-2014.5348,1366.3891)"
       x1="626.62103"
       y1="-258.30438"
       x2="602.01056"
       y2="-402.81216" />
    <linearGradient
       inkscape:collect="always"
       xlink:href="#linearGradient5193"
       id="linearGradient5878"
       gradientUnits="userSpaceOnUse"
       gradientTransform="matrix(0.89679722,0,0,0.89679722,-2020.1702,1428.0016)"
       x1="564.45752"
       y1="-396.48645"
       x2="567.13477"
       y2="-318.39944" />
    <linearGradient
       id="linearGradient3338"
       inkscape:collect="always">
      <stop
         id="stop3340"
         offset="0"
         style="stop-color:#beb7c8;stop-opacity:1;" />
      <stop
         id="stop3342"
         offset="1"
         style="stop-color:#5d536c;stop-opacity:1" />
    </linearGradient>
    <linearGradient
       inkscape:collect="always"
       id="linearGradient3360">
      <stop
         style="stop-color:#474052;stop-opacity:1"
         offset="0"
         id="stop3362" />
      <stop
         style="stop-color:#5d536c;stop-opacity:1"
         offset="1"
         id="stop3364" />
    </linearGradient>
    <linearGradient
       inkscape:collect="always"
       id="linearGradient3380">
      <stop
         style="stop-color:#857c92;stop-opacity:1"
         offset="0"
         id="stop3382" />
      <stop
         style="stop-color:#5d536c;stop-opacity:1"
         offset="1"
         id="stop3384" />
    </linearGradient>
    <linearGradient
       id="linearGradient3394"
       inkscape:collect="always">
      <stop
         id="stop3396"
         offset="0"
         style="stop-color:#675d76;stop-opacity:1" />
      <stop
         id="stop3398"
         offset="1"
         style="stop-color:#5d536c;stop-opacity:1" />
    </linearGradient>
    <linearGradient
       inkscape:collect="always"
       xlink:href="#linearGradient3394"
       id="linearGradient5534"
       gradientUnits="userSpaceOnUse"
       gradientTransform="translate(-1035.7984,1460.497)"
       x1="548.9787"
       y1="-310.0397"
       x2="511.74536"
       y2="-309.25769" />
    <linearGradient
       inkscape:collect="always"
       xlink:href="#linearGradient3380"
       id="linearGradient5539"
       gradientUnits="userSpaceOnUse"
       gradientTransform="translate(-1104.5149,1460.497)"
       x1="549.00745"
       y1="-310.31183"
       x2="511.80453"
       y2="-309.47519" />
    <radialGradient
       inkscape:collect="always"
       xlink:href="#linearGradient3338"
       id="radialGradient5551"
       gradientUnits="userSpaceOnUse"
       gradientTransform="matrix(0.51554821,-0.84568081,1.1288979,0.68820444,-643.46887,1694.073)"
       cx="423.07739"
       cy="-187.4471"
       fx="423.07739"
       fy="-187.4471"
       r="166.84651" />
    <linearGradient
       inkscape:collect="always"
       xlink:href="#linearGradient3360"
       id="linearGradient5555"
       gradientUnits="userSpaceOnUse"
       gradientTransform="translate(-1124.2237,1458.7504)"
       x1="452.13895"
       y1="-403.7587"
       x2="425.63535"
       y2="-424.26743" />
    <linearGradient
       inkscape:collect="always"
       xlink:href="#linearGradient3360"
       id="linearGradient5558"
       gradientUnits="userSpaceOnUse"
       gradientTransform="translate(-1124.2237,1458.7504)"
       x1="452.13895"
       y1="-403.7587"
       x2="425.63535"
       y2="-424.26743" />
    <linearGradient
       id="linearGradient4274">
      <stop
         id="stop4276"
         offset="0"
         style="stop-color:#241c1c;stop-opacity:1" />
      <stop
         style="stop-color:#483737;stop-opacity:1;"
         offset="0.15879123"
         id="stop4286" />
      <stop
         style="stop-color:#544141;stop-opacity:1"
         offset="0.50204235"
         id="stop4282" />
      <stop
         id="stop4284"
         offset="0.75"
         style="stop-color:#483737;stop-opacity:1;" />
      <stop
         id="stop4278"
         offset="1"
         style="stop-color:#241c1c;stop-opacity:1" />
    </linearGradient>
    <linearGradient
       id="linearGradient4300"
       inkscape:collect="always">
      <stop
         id="stop4302"
         offset="0"
         style="stop-color:#513f3f;stop-opacity:1" />
      <stop
         id="stop4304"
         offset="1"
         style="stop-color:#916f6f;stop-opacity:1" />
    </linearGradient>
    <linearGradient
       id="linearGradient4338"
       inkscape:collect="always">
      <stop
         id="stop4340"
         offset="0"
         style="stop-color:#5a4545;stop-opacity:1" />
      <stop
         id="stop4342"
         offset="1"
         style="stop-color:#6c5353;stop-opacity:1" />
    </linearGradient>
    <linearGradient
       inkscape:collect="always"
       xlink:href="#linearGradient4338"
       id="linearGradient5824"
       gradientUnits="userSpaceOnUse"
       gradientTransform="matrix(1.1870923,0,0,1.1870923,557.10763,972.51967)"
       x1="506.36237"
       y1="-254.24303"
       x2="505.8338"
       y2="-219.35794" />
    <linearGradient
       inkscape:collect="always"
       xlink:href="#linearGradient4300"
       id="linearGradient5826"
       gradientUnits="userSpaceOnUse"
       gradientTransform="matrix(0.83444929,0,0,0.83444929,695.02334,866.91126)"
       x1="521.0072"
       y1="-422.45435"
       x2="521.0072"
       y2="-338.73444" />
    <linearGradient
       inkscape:collect="always"
       xlink:href="#linearGradient4274"
       id="linearGradient5828"
       gradientUnits="userSpaceOnUse"
       gradientTransform="matrix(0.83444929,0,0,0.83444929,741.18088,866.91126)"
       x1="536.79242"
       y1="-366.81332"
       x2="556.42566"
       y2="-324.86945" />
    <linearGradient
       y2="-301.63974"
       x2="535.34979"
       y1="-301.92004"
       x1="538.38654"
       gradientTransform="translate(-25.414983,34.384977)"
       gradientUnits="userSpaceOnUse"
       id="linearGradient5544"
       xlink:href="#linearGradient3146"
       inkscape:collect="always" />
    <linearGradient
       id="linearGradient3146"
       inkscape:collect="always">
      <stop
         id="stop3148"
         offset="0"
         style="stop-color:#1c1c24;stop-opacity:1;" />
      <stop
         id="stop3150"
         offset="1"
         style="stop-color:#1c1c24;stop-opacity:0;" />
    </linearGradient>
    <linearGradient
       y2="-254.24301"
       x2="132.40479"
       y1="-254.24301"
       x1="159.62572"
       gradientTransform="translate(-47.042016,6.3427437)"
       gradientUnits="userSpaceOnUse"
       id="linearGradient4078"
       xlink:href="#linearGradient3139"
       inkscape:collect="always" />
    <linearGradient
       y2="-408.62561"
       x2="159.96489"
       y1="-417.59561"
       x1="192.85487"
       gradientTransform="translate(-63.427437,6.3427437)"
       gradientUnits="userSpaceOnUse"
       id="linearGradient4076"
       xlink:href="#linearGradient3117"
       inkscape:collect="always" />
    <linearGradient
       y2="-408.62561"
       x2="159.96489"
       y1="-417.59561"
       x1="192.85487"
       gradientTransform="matrix(1.6191115,1.2420631,-1.2420631,1.6191115,-653.89128,220.57021)"
       gradientUnits="userSpaceOnUse"
       id="linearGradient4074"
       xlink:href="#linearGradient3117"
       inkscape:collect="always" />
    <linearGradient
       id="linearGradient3117"
       inkscape:collect="always">
      <stop
         id="stop3119"
         offset="0"
         style="stop-color:#aa4400;stop-opacity:1;" />
      <stop
         id="stop3121"
         offset="1"
         style="stop-color:#783000;stop-opacity:1" />
    </linearGradient>
    <linearGradient
       id="linearGradient3139"
       inkscape:collect="always">
      <stop
         id="stop3141"
         offset="0"
         style="stop-color:#2b1100;stop-opacity:1;" />
      <stop
         id="stop3143"
         offset="1"
         style="stop-color:#2b1100;stop-opacity:0;" />
    </linearGradient>
    <linearGradient
       id="linearGradient3911"
       inkscape:collect="always">
      <stop
         id="stop3913"
         offset="0"
         style="stop-color:#241c1c;stop-opacity:1" />
      <stop
         id="stop3915"
         offset="1"
         style="stop-color:#784421;stop-opacity:0;" />
    </linearGradient>
    <linearGradient
       id="linearGradient3971"
       inkscape:collect="always">
      <stop
         id="stop3973"
         offset="0"
         style="stop-color:#917c6f;stop-opacity:1;" />
      <stop
         id="stop3975"
         offset="1"
         style="stop-color:#28170b;stop-opacity:1" />
    </linearGradient>
    <linearGradient
       inkscape:collect="always"
       xlink:href="#linearGradient3911"
       id="linearGradient3762"
       gradientUnits="userSpaceOnUse"
       gradientTransform="translate(0,-16.661873)"
       x1="519.29504"
       y1="-260.8017"
       x2="508.18713"
       y2="-300.37363" />
    <linearGradient
       inkscape:collect="always"
       xlink:href="#linearGradient3971"
       id="linearGradient3786"
       gradientUnits="userSpaceOnUse"
       gradientTransform="matrix(0.9140942,0,0,0.9140942,290.747,786.33643)"
       x1="441.53964"
       y1="-273.2981"
       x2="511.65836"
       y2="-286.14163" />
    <linearGradient
       id="linearGradient3578"
       inkscape:collect="always">
      <stop
         id="stop3580"
         offset="0"
         style="stop-color:#1f1c24;stop-opacity:1;" />
      <stop
         id="stop3582"
         offset="1"
         style="stop-color:#1f1c24;stop-opacity:0;" />
    </linearGradient>
    <linearGradient
       id="linearGradient3604"
       inkscape:collect="always">
      <stop
         id="stop3606"
         offset="0"
         style="stop-color:#211e26;stop-opacity:1;" />
      <stop
         id="stop3608"
         offset="1"
         style="stop-color:#211e26;stop-opacity:0;" />
    </linearGradient>
    <linearGradient
       inkscape:collect="always"
       xlink:href="#linearGradient3578"
       id="linearGradient3958"
       gradientUnits="userSpaceOnUse"
       gradientTransform="matrix(1.1100531,0,0,1.1100531,2863.0486,903.46763)"
       x1="-1887.6512"
       y1="-315.29987"
       x2="-1887.4778"
       y2="-254.37988" />
    <linearGradient
       inkscape:collect="always"
       xlink:href="#linearGradient3604"
       id="linearGradient3967"
       gradientUnits="userSpaceOnUse"
       gradientTransform="matrix(1.1100531,0,0,1.1100531,2931.5428,903.46763)"
       x1="-1801.6218"
       y1="-327.32669"
       x2="-1798.4309"
       y2="-249.51823" />
    <linearGradient
       inkscape:collect="always"
       xlink:href="#linearGradient3265-7-8"
       id="linearGradient6694"
       gradientUnits="userSpaceOnUse"
       gradientTransform="matrix(-1.9601035,0,0,1.9601035,3084.4205,1291.2843)"
       x1="1128.5424"
       y1="-358.21252"
       x2="1128.5"
       y2="-350.88782" />
    <linearGradient
       inkscape:collect="always"
       xlink:href="#linearGradient3265-7-8"
       id="linearGradient6696"
       gradientUnits="userSpaceOnUse"
       gradientTransform="matrix(1.9601035,0,0,1.9601035,-1268.7026,1291.2843)"
       x1="1128.5424"
       y1="-358.21252"
       x2="1128.5"
       y2="-350.88782" />
    <linearGradient
       inkscape:collect="always"
       xlink:href="#linearGradient3265-7-8"
       id="linearGradient9421"
       gradientUnits="userSpaceOnUse"
       gradientTransform="matrix(-1.9601035,0,0,1.9601035,3084.4205,1291.2843)"
       x1="1128.5424"
       y1="-358.21252"
       x2="1128.5"
       y2="-350.88782" />
    <linearGradient
       inkscape:collect="always"
       xlink:href="#linearGradient3265-7-8"
       id="linearGradient9423"
       gradientUnits="userSpaceOnUse"
       gradientTransform="matrix(1.9601035,0,0,1.9601035,-1268.7026,1291.2843)"
       x1="1128.5424"
       y1="-358.21252"
       x2="1128.5"
       y2="-350.88782" />
    <linearGradient
       inkscape:collect="always"
       xlink:href="#linearGradient4094-1"
       id="linearGradient9425"
       gradientUnits="userSpaceOnUse"
       gradientTransform="matrix(0.64156397,0,0,0.64156397,-240.46334,1048.4872)"
       x1="987.61987"
       y1="-434.2847"
       x2="919.21014"
       y2="-435.80673" />
    <linearGradient
       inkscape:collect="always"
       xlink:href="#linearGradient4122-9"
       id="linearGradient9427"
       gradientUnits="userSpaceOnUse"
       gradientTransform="matrix(0.76362355,0,0,0.76362355,-529.2141,788.2198)"
       x1="1627.4237"
       y1="-275.98389"
       x2="1568.8258"
       y2="-208.25383" />
    <linearGradient
       inkscape:collect="always"
       xlink:href="#linearGradient3310"
       id="linearGradient9429"
       gradientUnits="userSpaceOnUse"
       x1="1748.3407"
       y1="-227.81718"
       x2="1759.3722"
       y2="-149.25218" />
    <radialGradient
       inkscape:collect="always"
       xlink:href="#linearGradient4871"
       id="radialGradient9431"
       gradientUnits="userSpaceOnUse"
       gradientTransform="matrix(1.6682146,1.6471163,-0.88417937,0.89550496,-1046.6412,-1706.4218)"
       cx="1014.4006"
       cy="-408.6366"
       fx="1014.4006"
       fy="-408.6366"
       r="120.84957" />
    <linearGradient
       inkscape:collect="always"
       xlink:href="#linearGradient3209"
       id="linearGradient9433"
       gradientUnits="userSpaceOnUse"
       x1="1033.9359"
       y1="-312.79977"
       x2="1033.103"
       y2="-341.95212" />
    <linearGradient
       inkscape:collect="always"
       xlink:href="#linearGradient3219"
       id="linearGradient9435"
       gradientUnits="userSpaceOnUse"
       x1="1033.9359"
       y1="-312.79977"
       x2="1033.103"
       y2="-341.95212" />
    <linearGradient
       inkscape:collect="always"
       xlink:href="#linearGradient4136"
       id="linearGradient9437"
       gradientUnits="userSpaceOnUse"
       gradientTransform="matrix(1.3519879,0,0,1.3519879,-2458.2999,1401.0995)"
       x1="1621.358"
       y1="-347.02103"
       x2="1731.0365"
       y2="-299.90375" />
    <linearGradient
       inkscape:collect="always"
       xlink:href="#linearGradient4283"
       id="linearGradient9439"
       gradientUnits="userSpaceOnUse"
       gradientTransform="translate(-2538.9898,1459.867)"
       x1="503.56857"
       y1="-348.85837"
       x2="512.40308"
       y2="-335.29108" />
    <linearGradient
       inkscape:collect="always"
       xlink:href="#linearGradient3449"
       id="linearGradient9441"
       gradientUnits="userSpaceOnUse"
       gradientTransform="translate(-2538.9898,1459.867)"
       x1="535.43597"
       y1="-304.05469"
       x2="522.1842"
       y2="-302.79257" />
    <linearGradient
       inkscape:collect="always"
       xlink:href="#linearGradient4233"
       id="linearGradient9443"
       gradientUnits="userSpaceOnUse"
       gradientTransform="translate(-2538.9898,1459.867)"
       x1="492.84091"
       y1="-285.43903"
       x2="581.34399"
       y2="-291.27615" />
    <linearGradient
       inkscape:collect="always"
       xlink:href="#linearGradient4817"
       id="linearGradient9445"
       gradientUnits="userSpaceOnUse"
       gradientTransform="matrix(0.89679722,0,0,0.89679722,-2045.7805,1424)"
       x1="660.06604"
       y1="-501.25412"
       x2="616.52441"
       y2="-327.7186" />
    <linearGradient
       inkscape:collect="always"
       xlink:href="#linearGradient5181"
       id="linearGradient9447"
       gradientUnits="userSpaceOnUse"
       gradientTransform="translate(-1159.9752,1449.158)"
       x1="-276.65112"
       y1="-462.97198"
       x2="-282.89807"
       y2="-279.57907" />
    <linearGradient
       inkscape:collect="always"
       xlink:href="#linearGradient5172"
       id="linearGradient9449"
       gradientUnits="userSpaceOnUse"
       gradientTransform="matrix(0.89679722,0,0,0.89679722,-2045.7805,1424)"
       x1="533.96741"
       y1="-432.47049"
       x2="555.86011"
       y2="-240.41187" />
    <linearGradient
       inkscape:collect="always"
       xlink:href="#linearGradient4817"
       id="linearGradient9451"
       gradientUnits="userSpaceOnUse"
       gradientTransform="matrix(0.82173933,0,0,0.82173933,-2014.5348,1366.3891)"
       x1="626.62103"
       y1="-258.30438"
       x2="602.01056"
       y2="-402.81216" />
    <linearGradient
       inkscape:collect="always"
       xlink:href="#linearGradient5193"
       id="linearGradient9453"
       gradientUnits="userSpaceOnUse"
       gradientTransform="matrix(0.89679722,0,0,0.89679722,-2020.1702,1428.0016)"
       x1="564.45752"
       y1="-396.48645"
       x2="567.13477"
       y2="-318.39944" />
    <linearGradient
       inkscape:collect="always"
       xlink:href="#linearGradient3360"
       id="linearGradient9455"
       gradientUnits="userSpaceOnUse"
       gradientTransform="translate(-1124.2237,1458.7504)"
       x1="452.13895"
       y1="-403.7587"
       x2="425.63535"
       y2="-424.26743" />
    <linearGradient
       inkscape:collect="always"
       xlink:href="#linearGradient3360"
       id="linearGradient9457"
       gradientUnits="userSpaceOnUse"
       gradientTransform="translate(-1124.2237,1458.7504)"
       x1="452.13895"
       y1="-403.7587"
       x2="425.63535"
       y2="-424.26743" />
    <radialGradient
       inkscape:collect="always"
       xlink:href="#linearGradient3338"
       id="radialGradient9459"
       gradientUnits="userSpaceOnUse"
       gradientTransform="matrix(0.51554821,-0.84568081,1.1288979,0.68820444,-643.46887,1694.073)"
       cx="423.07739"
       cy="-187.4471"
       fx="423.07739"
       fy="-187.4471"
       r="166.84651" />
    <linearGradient
       inkscape:collect="always"
       xlink:href="#linearGradient3380"
       id="linearGradient9461"
       gradientUnits="userSpaceOnUse"
       gradientTransform="translate(-1104.5149,1460.497)"
       x1="549.00745"
       y1="-310.31183"
       x2="511.80453"
       y2="-309.47519" />
    <linearGradient
       inkscape:collect="always"
       xlink:href="#linearGradient3394"
       id="linearGradient9463"
       gradientUnits="userSpaceOnUse"
       gradientTransform="translate(-1035.7984,1460.497)"
       x1="548.9787"
       y1="-310.0397"
       x2="511.74536"
       y2="-309.25769" />
    <linearGradient
       inkscape:collect="always"
       xlink:href="#linearGradient4338"
       id="linearGradient9465"
       gradientUnits="userSpaceOnUse"
       gradientTransform="matrix(1.1870923,0,0,1.1870923,557.10763,972.51967)"
       x1="506.36237"
       y1="-254.24303"
       x2="505.8338"
       y2="-219.35794" />
    <linearGradient
       inkscape:collect="always"
       xlink:href="#linearGradient4300"
       id="linearGradient9467"
       gradientUnits="userSpaceOnUse"
       gradientTransform="matrix(0.83444929,0,0,0.83444929,695.02334,866.91126)"
       x1="521.0072"
       y1="-422.45435"
       x2="521.0072"
       y2="-338.73444" />
    <linearGradient
       inkscape:collect="always"
       xlink:href="#linearGradient4274"
       id="linearGradient9469"
       gradientUnits="userSpaceOnUse"
       gradientTransform="matrix(0.83444929,0,0,0.83444929,741.18088,866.91126)"
       x1="536.79242"
       y1="-366.81332"
       x2="556.42566"
       y2="-324.86945" />
    <linearGradient
       inkscape:collect="always"
       xlink:href="#linearGradient3146"
       id="linearGradient9471"
       gradientUnits="userSpaceOnUse"
       gradientTransform="translate(-25.414983,34.384977)"
       x1="538.38654"
       y1="-301.92004"
       x2="535.34979"
       y2="-301.63974" />
    <linearGradient
       inkscape:collect="always"
       xlink:href="#linearGradient3117"
       id="linearGradient9473"
       gradientUnits="userSpaceOnUse"
       gradientTransform="matrix(1.6191115,1.2420631,-1.2420631,1.6191115,-653.89128,220.57021)"
       x1="192.85487"
       y1="-417.59561"
       x2="159.96489"
       y2="-408.62561" />
    <linearGradient
       inkscape:collect="always"
       xlink:href="#linearGradient3117"
       id="linearGradient9475"
       gradientUnits="userSpaceOnUse"
       gradientTransform="translate(-63.427437,6.3427437)"
       x1="192.85487"
       y1="-417.59561"
       x2="159.96489"
       y2="-408.62561" />
    <linearGradient
       inkscape:collect="always"
       xlink:href="#linearGradient3139"
       id="linearGradient9477"
       gradientUnits="userSpaceOnUse"
       gradientTransform="translate(-47.042016,6.3427437)"
       x1="159.62572"
       y1="-254.24301"
       x2="132.40479"
       y2="-254.24301" />
    <linearGradient
       inkscape:collect="always"
       xlink:href="#linearGradient3971"
       id="linearGradient9479"
       gradientUnits="userSpaceOnUse"
       gradientTransform="matrix(0.9140942,0,0,0.9140942,290.747,786.33643)"
       x1="441.53964"
       y1="-273.2981"
       x2="511.65836"
       y2="-286.14163" />
    <linearGradient
       inkscape:collect="always"
       xlink:href="#linearGradient3911"
       id="linearGradient9481"
       gradientUnits="userSpaceOnUse"
       gradientTransform="translate(0,-16.661873)"
       x1="519.29504"
       y1="-260.8017"
       x2="508.18713"
       y2="-300.37363" />
    <linearGradient
       inkscape:collect="always"
       xlink:href="#linearGradient3604"
       id="linearGradient9483"
       gradientUnits="userSpaceOnUse"
       gradientTransform="matrix(1.1100531,0,0,1.1100531,2931.5428,903.46763)"
       x1="-1801.6218"
       y1="-327.32669"
       x2="-1798.4309"
       y2="-249.51823" />
    <linearGradient
       inkscape:collect="always"
       xlink:href="#linearGradient3578"
       id="linearGradient9485"
       gradientUnits="userSpaceOnUse"
       gradientTransform="matrix(1.1100531,0,0,1.1100531,2863.0486,903.46763)"
       x1="-1887.6512"
       y1="-315.29987"
       x2="-1887.4778"
       y2="-254.37988" />
    <linearGradient
       inkscape:collect="always"
       xlink:href="#linearGradient4136"
       id="linearGradient10541"
       gradientUnits="userSpaceOnUse"
       gradientTransform="matrix(1.3519879,0,0,1.3519879,-2458.2999,1401.0995)"
       x1="1621.358"
       y1="-347.02103"
       x2="1731.0365"
       y2="-299.90375" />
  </defs>
  <sodipodi:namedview
     id="base"
     pagecolor="#ffffff"
     bordercolor="#666666"
     borderopacity="1.0"
     inkscape:pageopacity="0.0"
     inkscape:pageshadow="2"
     inkscape:zoom="0.12072453"
     inkscape:cx="3729.9103"
     inkscape:cy="769.62171"
     inkscape:document-units="px"
     inkscape:current-layer="layer1"
     showgrid="false"
     fit-margin-top="0"
     fit-margin-left="0"
     fit-margin-right="0"
     fit-margin-bottom="0"
     inkscape:window-width="1920"
     inkscape:window-height="1017"
     inkscape:window-x="0"
     inkscape:window-y="28"
     inkscape:window-maximized="1"
     showguides="true"
     inkscape:guide-bbox="true"
     inkscape:snap-grids="false"
     inkscape:snap-to-guides="false">
    <sodipodi:guide
       orientation="0,1"
       position="371.87981,1115.6394"
       id="guide6622" />
    <sodipodi:guide
       orientation="0,1"
       position="73.848474,189.89608"
       id="guide6624" />
    <sodipodi:guide
       orientation="1,0"
       position="363.96748,1521.806"
       id="guide6626" />
    <sodipodi:guide
       orientation="1,0"
       position="862.44468,1442.6827"
       id="guide6628" />
  </sodipodi:namedview>
  <metadata
     id="metadata7">
    <rdf:RDF>
      <cc:Work
         rdf:about="">
        <dc:format>image/svg+xml</dc:format>
        <dc:type
           rdf:resource="http://purl.org/dc/dcmitype/StillImage" />
        <dc:title></dc:title>
      </cc:Work>
    </rdf:RDF>
  </metadata>
  <g
     inkscape:label="Capa 1"
     inkscape:groupmode="layer"
     id="layer1"
     transform="translate(15278.44,186.36436)">
    <rect
       style="opacity:0.8;fill:#000000;fill-opacity:1;stroke:none"
       id="rect6564"
       width="23217.738"
       height="1351.7388"
       x="-15278.44"
       y="-186.36436" />
    <g
       id="g7167">
      <g
         transform="translate(-7944.2754,19.477141)"
         id="g8086">
        <g
           style="font-size:204.73330688px;font-style:normal;font-variant:normal;font-weight:normal;font-stretch:normal;line-height:125%;letter-spacing:0px;word-spacing:0px;fill:#ffffff;fill-opacity:1;stroke:none;font-family:Short Stack;-inkscape-font-specification:Short Stack"
           id="text3044-10">
          <path
             inkscape:connector-curvature="0"
             d="m -6783.1674,544.31138 c 0,-1.0663 0.2333,-2.23259 0.6998,-3.49886 0.4665,-1.33288 1.1329,-2.53249 1.9993,-3.59883 0.9331,-1.13294 2.0327,-2.06597 3.299,-2.79908 1.3328,-0.73307 2.8657,-1.09962 4.5985,-1.09965 1.1996,3e-5 2.2325,0.29993 3.099,0.89971 0.933,0.53319 1.7993,1.23296 2.5991,2.09932 0.7997,0.79976 1.5661,1.66614 2.2993,2.59915 0.7997,0.8664 1.5994,1.5995 2.3992,2.19928 0.4665,0.33325 1.0996,0.63315 1.8994,0.89971 0.7997,0.19995 1.5994,0.36657 2.3992,0.49984 0.8663,0.1333 1.6994,0.23327 2.4992,0.2999 0.7997,2e-5 1.4328,2e-5 1.8993,0 3.9987,2e-5 7.9974,-0.73308 11.9961,-2.19928 3.9987,-1.53282 7.5975,-3.56549 10.7965,-6.09802 3.2656,-2.53248 5.898,-5.49818 7.8974,-8.8971 1.9993,-3.39885 2.999,-6.96436 2.9991,-10.69651 -1e-4,-1.33286 0.1332,-5.6981 0.3998,-13.09574 0.3332,-7.46417 0.4998,-18.02738 0.4999,-31.68967 -1e-4,-5.73138 -0.2667,-11.39619 -0.7998,-16.99447 -0.4665,-5.66471 -0.6998,-11.42949 -0.6997,-17.29436 -10e-5,-1.79929 0.1665,-3.59871 0.4998,-5.39825 0.3332,-1.86592 0.8996,-3.49872 1.6994,-4.8984 0.8664,-1.46605 1.9993,-2.63234 3.3989,-3.49886 1.3995,-0.93289 3.1989,-1.39941 5.3983,-1.39954 1.5994,1.3e-4 2.899,0.46665 3.8987,1.39954 1.0662,0.86652 1.8993,1.93284 2.4992,3.19896 0.5997,1.26638 0.9996,2.56596 1.1996,3.89873 0.2665,1.33302 0.3998,2.43267 0.3999,3.29892 -1e-4,2.99915 0.066,6.39804 0.1999,10.19668 0.1332,3.79888 0.2665,7.86421 0.3999,12.19603 0.1332,4.33202 0.2665,8.86387 0.3999,13.59557 0.1331,4.66523 0.1998,9.39702 0.1999,14.19538 -10e-5,2.59922 -0.067,5.49827 -0.1999,8.69716 -0.067,3.13238 -0.2001,6.36466 -0.3999,9.69684 -0.2,3.26566 -0.4333,6.49794 -0.6998,9.69684 -0.2667,3.19901 -0.5999,6.13138 -0.9997,8.79714 -0.3333,2.66583 -0.6998,4.96508 -1.0996,6.89775 -0.4,1.93274 -0.7998,3.26563 -1.1996,3.9987 -6.3314,10.59656 -13.8622,18.26073 -22.5927,22.99251 -8.7305,4.73179 -18.5273,7.09769 -29.3904,7.09769 -2.066,0 -4.5985,-0.23326 -7.5975,-0.69977 -2.9991,-0.46652 -5.8981,-1.29958 -8.6972,-2.49919 -2.7991,-1.19961 -5.1983,-2.83241 -7.1976,-4.8984 -1.9327,-2.13264 -2.8991,-4.83175 -2.8991,-8.09737"
             id="path6850" />
          <path
             inkscape:connector-curvature="0"
             d="m -6658.1932,451.14374 c -1.1621,1e-4 -2.5179,-0.49794 -4.0674,-1.49414 -1.5495,-0.99599 -3.0436,-2.13043 -4.4824,-3.40332 -1.3835,-1.32801 -2.5733,-2.62847 -3.5693,-3.90137 -0.9408,-1.32801 -1.4112,-2.29643 -1.4112,-2.90527 0,-1.10665 0.1937,-2.18576 0.5811,-3.23731 0.4427,-1.10665 1.0791,-2.07507 1.9092,-2.90527 0.83,-0.82995 1.8261,-1.49402 2.9882,-1.99219 1.2175,-0.49792 2.6286,-0.74694 4.2334,-0.74707 0.9961,1.3e-4 2.1582,0.52584 3.4864,1.57715 1.3834,0.99622 2.6839,2.21366 3.9013,3.65234 1.2174,1.38359 2.2412,2.82239 3.0713,4.31641 0.8854,1.49426 1.3281,2.73937 1.3281,3.73535 0,1.43892 -0.1937,2.62869 -0.581,3.56934 -0.3874,0.94086 -0.9408,1.68793 -1.6602,2.24121 -0.6641,0.55349 -1.4941,0.94086 -2.4902,1.16211 -0.9408,0.22146 -2.0199,0.33213 -3.2373,0.33203 m -9.6289,116.875 c 0.055,-0.9961 0.166,-2.54558 0.332,-4.64844 0.2214,-2.10287 0.4427,-4.67611 0.6641,-7.71973 0.2213,-3.04361 0.415,-6.52994 0.581,-10.45898 0.166,-3.92902 0.249,-8.19008 0.2491,-12.7832 -1e-4,-6.03187 -0.1107,-11.39971 -0.3321,-16.10352 -0.166,-4.75907 -0.249,-8.82645 -0.249,-12.20215 0,-2.15814 0,-4.12266 0,-5.89355 0.055,-1.77077 0.083,-3.4586 0.083,-5.06348 0,-1.60475 0,-3.1819 0,-4.73144 0.055,-1.54941 0.083,-3.20957 0.083,-4.98047 0,-1.54941 0.1107,-3.20956 0.3321,-4.98047 0.2213,-1.77075 0.6087,-3.40324 1.1621,-4.89746 0.6087,-1.49406 1.4387,-2.73917 2.4902,-3.73535 1.1067,-0.99601 2.5455,-1.49406 4.3164,-1.49415 1.4388,9e-5 2.6562,0.24912 3.6523,0.74708 0.9961,0.49813 1.7985,1.16219 2.4073,1.99218 0.664,0.77483 1.1344,1.66024 1.4111,2.65625 0.332,0.99618 0.5257,1.99227 0.5811,2.98828 0.055,0.83016 0.055,2.24129 0,4.2334 -0.055,1.93693 -0.1384,4.23347 -0.2491,6.88965 -0.1107,2.60098 -0.249,5.39557 -0.415,8.38379 -0.1107,2.98834 -0.2214,5.89361 -0.332,8.71582 -0.1107,2.76698 -0.1938,5.34022 -0.2491,7.71973 -0.055,2.32426 -0.055,4.15043 0,5.47851 0,5.31254 0.1107,10.6527 0.3321,16.02051 0.2213,5.36786 0.332,10.65268 0.332,15.85449 0,5.20183 -0.2214,10.18229 -0.6641,14.94141 -0.4427,4.7591 -1.2728,9.15851 -2.4902,13.19824 -1.2175,4.09503 -2.933,7.80271 -5.1465,11.12305 -2.2135,3.32028 -5.0635,6.14254 -8.5498,8.46679 -3.4863,2.37952 -7.7474,4.20569 -12.7832,5.47852 -4.9805,1.27274 -10.874,1.90913 -17.6806,1.90918 -1.1068,-5e-5 -2.4903,-0.0554 -4.1504,-0.16602 -1.7155,-0.0554 -3.3757,-0.33207 -4.9805,-0.83007 -1.6048,-0.4981 -3.0159,-1.3005 -4.2334,-2.40723 -1.2174,-1.10681 -1.9092,-2.65629 -2.0752,-4.64844 -0.166,-1.66019 0.1384,-2.93298 0.9131,-3.81836 0.7194,-0.88545 1.6878,-1.54951 2.9053,-1.99218 1.2174,-0.38741 2.5732,-0.60876 4.0673,-0.66407 1.4942,-3e-5 2.933,0.0553 4.3164,0.16602 2.933,-3e-5 5.8106,-0.083 8.6329,-0.24903 2.8222,-0.1107 5.5338,-0.49807 8.1347,-1.1621 2.6009,-0.60876 5.0635,-1.57718 7.3877,-2.90528 2.3796,-1.27281 4.5654,-3.07131 6.5576,-5.39551 0.4427,-0.49806 0.8024,-1.30047 1.0791,-2.40722 0.3321,-1.05145 0.6087,-2.24123 0.8301,-3.56934 0.2214,-1.2728 0.3874,-2.57325 0.4981,-3.90137 0.1106,-1.27279 0.1936,-2.32422 0.249,-3.15429"
             style="font-size:170px"
             id="path6852" />
        </g>
        <g
           style="font-size:120.21715546px;font-style:normal;font-weight:normal;line-height:125%;letter-spacing:0px;word-spacing:0px;fill:#ffffff;fill-opacity:1;stroke:none;font-family:Sans"
           id="text3048-74">
          <path
             inkscape:connector-curvature="0"
             d="m -6914.9472,670.70452 c 0,-0.62613 0.137,-1.31096 0.4109,-2.0545 0.274,-0.78265 0.6653,-1.48705 1.174,-2.11319 0.5479,-0.66525 1.1936,-1.21311 1.9371,-1.64359 0.7827,-0.43045 1.6827,-0.64569 2.7002,-0.6457 0.7044,1e-5 1.311,0.17611 1.8197,0.5283 0.5479,0.31308 1.0566,0.72398 1.5262,1.23269 0.4696,0.46961 0.9196,0.97834 1.3501,1.5262 0.4696,0.50874 0.9392,0.9392 1.4088,1.29139 0.2739,0.19568 0.6457,0.37178 1.1153,0.5283 0.4696,0.11741 0.9392,0.21524 1.4088,0.2935 0.5087,0.0783 0.9978,0.13697 1.4675,0.1761 0.4695,10e-6 0.8413,10e-6 1.1153,0 2.3479,10e-6 4.6959,-0.43046 7.0439,-1.2914 2.348,-0.90005 4.4612,-2.09361 6.3396,-3.58068 1.9175,-1.48705 3.4633,-3.22847 4.6373,-5.22428 1.174,-1.99578 1.7609,-4.0894 1.761,-6.28088 -1e-4,-0.78264 0.078,-3.34586 0.2348,-7.68967 0.1956,-4.38288 0.2934,-10.58549 0.2935,-18.60783 -1e-4,-3.3654 -0.1566,-6.69172 -0.4696,-9.97897 -0.274,-3.32625 -0.4109,-6.71127 -0.4109,-10.15506 0,-1.05652 0.098,-2.11312 0.2935,-3.16979 0.1956,-1.09565 0.5282,-2.05441 0.9979,-2.87629 0.5087,-0.86085 1.1739,-1.54568 1.9958,-2.05449 0.8217,-0.54778 1.8783,-0.82171 3.1698,-0.8218 0.9391,9e-5 1.7022,0.27402 2.2893,0.8218 0.626,0.50881 1.1152,1.13494 1.4675,1.87839 0.3521,0.74361 0.5869,1.50671 0.7044,2.2893 0.1564,0.78273 0.2347,1.42843 0.2348,1.93709 -1e-4,1.76106 0.039,3.75685 0.1174,5.98738 0.078,2.23065 0.1564,4.61778 0.2348,7.16137 0.078,2.54372 0.1564,5.20477 0.2348,7.98317 0.078,2.73937 0.1173,5.51783 0.1173,8.33537 0,1.52624 -0.039,3.22853 -0.1173,5.10688 -0.039,1.8393 -0.1175,3.73726 -0.2348,5.69388 -0.1175,1.91756 -0.2545,3.81552 -0.4109,5.69388 -0.1566,1.87842 -0.3523,3.60028 -0.587,5.16558 -0.1958,1.56535 -0.411,2.91544 -0.6457,4.05028 -0.2349,1.13488 -0.4697,1.91755 -0.7044,2.348 -3.7177,6.22218 -8.1398,10.7225 -13.2662,13.50095 -5.1265,2.77845 -10.879,4.16768 -17.2577,4.16768 -1.2132,0 -2.7002,-0.13697 -4.4612,-0.4109 -1.761,-0.27393 -3.4633,-0.7631 -5.1069,-1.46749 -1.6436,-0.7044 -3.0524,-1.66316 -4.2264,-2.87629 -1.1348,-1.25226 -1.7023,-2.83715 -1.7023,-4.75468"
             style="font-variant:normal;font-stretch:normal;font-family:Short Stack;-inkscape-font-specification:Short Stack"
             id="path6837" />
          <path
             inkscape:connector-curvature="0"
             d="m -6850.3774,653.91638 c 0,-3.05236 0.4304,-6.22215 1.2914,-9.50937 0.9,-3.32628 2.1719,-6.4178 3.8155,-9.27456 1.5653,-2.85668 3.4828,-5.5373 5.7526,-8.04187 2.3088,-2.50447 4.872,-4.67636 7.6896,-6.51568 2.8176,-1.87833 5.8504,-3.34582 9.0985,-4.40248 3.2871,-1.09567 6.7113,-1.64353 10.2725,-1.6436 2.7001,7e-5 5.3024,0.37183 7.807,1.1153 2.5045,0.70446 4.8525,1.68279 7.044,2.93499 2.1914,1.25232 4.1872,2.73938 5.9874,4.46118 1.8392,1.72192 3.4045,3.58074 4.696,5.57648 1.2913,1.95671 2.2892,4.0112 2.9936,6.16348 0.7044,2.15237 1.0566,4.30469 1.0566,6.45697 0,1.91757 -0.1174,3.61986 -0.3522,5.10689 -0.1957,1.44795 -0.4501,2.89588 -0.7631,4.34378 -0.2348,1.48709 -0.4696,3.03285 -0.7044,4.63728 -0.2348,1.56535 -0.3522,3.40461 -0.3521,5.51778 -1e-4,1.83928 0.1368,3.36547 0.4108,4.57859 0.2739,1.174 0.6652,2.13277 1.174,2.87628 0.5087,0.74355 1.1153,1.27184 1.8197,1.5849 0.7435,0.27394 1.5653,0.41091 2.4654,0.4109 0.2347,10e-6 0.5282,-0.0587 0.8805,-0.1761 0.3521,-0.15653 0.6848,-0.31306 0.9979,-0.4696 0.313,-0.19566 0.5869,-0.37176 0.8218,-0.5283 0.2347,-0.19565 0.3913,-0.35219 0.4696,-0.4696 0.4304,-0.43045 0.8413,-0.80222 1.2327,-1.11529 0.4304,-0.35219 0.9978,-0.52829 1.7023,-0.5283 1.4087,10e-6 2.4653,0.33264 3.1698,0.9979 0.7434,0.66527 1.1152,1.761 1.1153,3.28718 -1e-4,0.93921 -0.2936,1.91754 -0.8805,2.93499 -0.548,1.01747 -1.3306,1.95666 -2.348,2.81759 -1.0175,0.8218 -2.2307,1.50663 -3.6394,2.05449 -1.4089,0.54787 -2.9742,0.8218 -4.696,0.8218 -3.4438,0 -6.3983,-0.95876 -8.8636,-2.87629 -2.4264,-1.95665 -4.1678,-4.61771 -5.2243,-7.98317 -1.448,1.5262 -3.0329,2.9937 -4.7547,4.40249 -1.7219,1.36966 -3.6199,2.58279 -5.6939,3.63938 -2.0741,1.01747 -4.3829,1.8197 -6.9266,2.40669 -2.5045,0.62613 -5.283,0.9392 -8.3353,0.9392 -2.3089,0 -4.6765,-0.31307 -7.1027,-0.9392 -2.3871,-0.62613 -4.7156,-1.50662 -6.9853,-2.64149 -2.2306,-1.13486 -4.3242,-2.50452 -6.2808,-4.10898 -1.9567,-1.64359 -3.6786,-3.44371 -5.1656,-5.40038 -1.448,-1.95665 -2.6024,-4.06984 -3.4633,-6.33958 -0.8218,-2.2697 -1.2327,-4.63726 -1.2327,-7.10267 m 10.9769,-0.1174 c -1e-4,2.42628 0.6456,4.65687 1.937,6.69177 1.3306,2.03495 3.0328,3.77637 5.1069,5.22428 2.0741,1.44794 4.3829,2.58281 6.9266,3.40459 2.5828,0.78267 5.1068,1.17401 7.5723,1.174 3.2871,10e-6 6.3004,-0.62612 9.0397,-1.8784 2.7784,-1.25225 5.146,-2.87627 7.1027,-4.87208 1.9957,-1.99577 3.5415,-4.22636 4.6373,-6.69177 1.0957,-2.5045 1.6435,-4.96989 1.6436,-7.39618 -1e-4,-1.36963 0.2934,-2.56319 0.8805,-3.58068 0.6261,-1.05656 1.213,-2.05446 1.761,-2.99369 0.1564,-0.19563 0.2347,-0.48913 0.2348,-0.8805 0.039,-0.43043 0.039,-0.86089 0,-1.29139 -1e-4,-0.46956 -0.02,-0.90003 -0.059,-1.2914 -0.039,-0.39129 -0.059,-0.66522 -0.059,-0.8218 -1e-4,-0.86088 -0.2936,-1.80008 -0.8805,-2.81759 -0.5871,-1.01741 -1.3893,-2.03488 -2.4067,-3.05238 -0.9784,-1.01742 -2.1133,-1.99575 -3.4046,-2.93499 -1.2523,-0.97828 -2.5437,-1.83921 -3.8742,-2.58279 -1.3306,-0.74348 -2.6611,-1.33048 -3.9916,-1.761 -1.3305,-0.46954 -2.5241,-0.70434 -3.5807,-0.70439 -2.9741,5e-5 -5.7526,0.41095 -8.3353,1.23269 -2.5437,0.82185 -4.8721,1.93714 -6.9853,3.34589 -2.1132,1.40884 -4.0112,3.072 -5.6939,4.98948 -1.6436,1.87844 -3.0328,3.89379 -4.1677,6.04608 -1.0957,2.15236 -1.9371,4.38295 -2.5241,6.69177 -0.587,2.30889 -0.8805,4.55905 -0.8804,6.75048"
             style="font-variant:normal;font-stretch:normal;font-family:Short Stack;-inkscape-font-specification:Short Stack"
             id="path6839" />
          <path
             inkscape:connector-curvature="0"
             d="m -6757.4557,672.34811 c -0.078,-1.36965 -0.1369,-3.42414 -0.1761,-6.16348 -0.039,-2.77844 -0.059,-5.92866 -0.059,-9.45066 0,-3.5611 0.02,-7.35701 0.059,-11.38776 0.039,-4.06981 0.059,-8.08096 0.059,-12.03346 0,-3.9524 0,-7.68961 0,-11.21165 0,-3.56106 -0.02,-6.61345 -0.059,-9.15717 l -0.1761,-9.68546 c 0,-0.35213 0,-0.82173 0,-1.4088 0.039,-0.62605 0.059,-1.25218 0.059,-1.87839 0,-0.62605 0,-1.19348 0,-1.7023 0.039,-0.50865 0.059,-0.84128 0.059,-0.99789 0,-1.60438 0.3718,-2.85664 1.1153,-3.75679 0.7827,-0.89998 2.2502,-1.35001 4.4025,-1.35009 0.5087,8e-5 1.0762,0.0979 1.7023,0.2935 0.6261,0.15661 1.2131,0.39141 1.761,0.70439 0.5479,0.31315 0.9979,0.70448 1.3501,1.174 0.3913,0.43055 0.587,0.91971 0.587,1.46749 l 0.1174,5.57648 c 0.039,1.95674 0.039,3.81556 0,5.57648 -0.039,1.72193 -0.098,3.44379 -0.1761,5.16558 -0.039,1.68279 -0.098,3.40465 -0.1761,5.16558 -0.039,1.72192 -0.059,3.54161 -0.059,5.45908 2.348,-1.99573 5.0873,-3.61976 8.218,-4.87208 3.1306,-1.29133 6.7113,-1.93703 10.742,-1.93709 10.0181,6e-5 17.6099,2.52415 22.7756,7.57227 5.2046,5.04823 7.807,12.87486 7.807,23.47991 0,4.14815 -0.6066,7.84623 -1.8197,11.09426 -1.174,3.20894 -2.7589,6.02653 -4.7546,8.45277 -1.9568,2.42627 -4.2069,4.50033 -6.7505,6.22218 -2.5437,1.68273 -5.1852,3.05239 -7.9245,4.10898 -2.7002,1.01747 -5.4004,1.761 -8.1006,2.23059 -2.6611,0.4696 -5.1069,0.7044 -7.3374,0.7044 -2.035,0 -4.1091,-0.19566 -6.2222,-0.587 -2.1132,-0.39133 -4.109,-0.91963 -5.9874,-1.58489 -0.5087,0.7044 -1.2131,1.27183 -2.1132,1.70229 -0.8609,0.43047 -1.8784,0.6457 -3.0524,0.6457 -1.0566,0 -1.9371,-0.2348 -2.6415,-0.7044 -0.7044,-0.43046 -1.2914,-0.99789 -1.761,-1.70229 -0.4696,-0.74353 -0.8218,-1.56532 -1.0566,-2.46539 -0.2348,-0.90006 -0.3717,-1.81969 -0.4109,-2.75889 m 11.8574,-4.05029 c 0.587,0.31308 1.3305,0.56745 2.2306,0.7631 0.9,0.19568 1.8588,0.35221 2.8763,0.4696 1.0174,0.11741 2.0544,0.19568 3.1111,0.2348 1.0957,0.0391 2.1131,0.0391 3.0524,0 2.0349,-0.0783 4.148,-0.37176 6.3395,-0.8805 2.1915,-0.50872 4.2851,-1.23268 6.2809,-2.17189 2.0349,-0.93918 3.9133,-2.09361 5.6352,-3.46329 1.7218,-1.40877 3.1306,-3.0328 4.2264,-4.87208 0.7435,-1.09571 1.3109,-2.3284 1.7023,-3.69809 0.4304,-1.36963 0.7434,-2.79799 0.9392,-4.28508 0.1956,-1.48703 0.313,-2.97409 0.3522,-4.46118 0.039,-1.52616 0.059,-2.97409 0.059,-4.34379 -0.1175,-2.85668 -0.8806,-5.26337 -2.2893,-7.22007 -1.3697,-1.95661 -3.0916,-3.54151 -5.1656,-4.75468 -2.035,-1.21308 -4.2851,-2.07401 -6.7505,-2.58279 -2.4263,-0.54781 -4.7351,-0.82175 -6.9266,-0.8218 -1.4088,5e-5 -2.935,0.19572 -4.5785,0.587 -1.6045,0.39138 -3.1699,0.93925 -4.696,1.64359 -1.5262,0.66532 -2.935,1.46755 -4.2264,2.40669 -1.2523,0.93925 -2.2306,1.95671 -2.935,3.05239 -0.1565,0.0783 -0.2739,0.70444 -0.3522,1.87839 -0.039,1.17404 -0.059,2.64154 -0.059,4.40249 0,1.7219 0,3.61985 0,5.69388 0.039,2.07409 0.078,4.08944 0.1174,6.04608 0.039,1.95668 0.059,3.71767 0.059,5.28298 0.039,1.56534 0.059,2.68064 0.059,3.34588 0,1.21315 0.059,2.54368 0.1761,3.99159 0.1565,1.40881 0.4109,2.66107 0.7631,3.75678"
             style="font-variant:normal;font-stretch:normal;font-family:Short Stack;-inkscape-font-specification:Short Stack"
             id="path6841" />
          <path
             inkscape:connector-curvature="0"
             d="m -6681.7916,653.91638 c 0,-3.05236 0.4304,-6.22215 1.2914,-9.50937 0.9,-3.32628 2.1719,-6.4178 3.8155,-9.27456 1.5653,-2.85668 3.4828,-5.5373 5.7525,-8.04187 2.3089,-2.50447 4.8721,-4.67636 7.6897,-6.51568 2.8176,-1.87833 5.8504,-3.34582 9.0985,-4.40248 3.2871,-1.09567 6.7113,-1.64353 10.2724,-1.6436 2.7002,7e-5 5.3025,0.37183 7.8071,1.1153 2.5045,0.70446 4.8525,1.68279 7.044,2.93499 2.1914,1.25232 4.1872,2.73938 5.9874,4.46118 1.8392,1.72192 3.4045,3.58074 4.6959,5.57648 1.2914,1.95671 2.2893,4.0112 2.9937,6.16348 0.7044,2.15237 1.0566,4.30469 1.0566,6.45697 0,1.91757 -0.1174,3.61986 -0.3522,5.10689 -0.1957,1.44795 -0.4501,2.89588 -0.7631,4.34378 -0.2348,1.48709 -0.4696,3.03285 -0.7044,4.63728 -0.2348,1.56535 -0.3522,3.40461 -0.3522,5.51778 0,1.83928 0.1369,3.36547 0.4109,4.57859 0.2739,1.174 0.6652,2.13277 1.174,2.87628 0.5087,0.74355 1.1152,1.27184 1.8197,1.5849 0.7435,0.27394 1.5653,0.41091 2.4654,0.4109 0.2347,10e-6 0.5282,-0.0587 0.8805,-0.1761 0.3521,-0.15653 0.6848,-0.31306 0.9979,-0.4696 0.313,-0.19566 0.5869,-0.37176 0.8218,-0.5283 0.2347,-0.19565 0.3913,-0.35219 0.4696,-0.4696 0.4304,-0.43045 0.8413,-0.80222 1.2327,-1.11529 0.4304,-0.35219 0.9978,-0.52829 1.7023,-0.5283 1.4087,10e-6 2.4653,0.33264 3.1698,0.9979 0.7434,0.66527 1.1152,1.761 1.1153,3.28718 -10e-5,0.93921 -0.2936,1.91754 -0.8805,2.93499 -0.548,1.01747 -1.3306,1.95666 -2.348,2.81759 -1.0176,0.8218 -2.2307,1.50663 -3.6394,2.05449 -1.4089,0.54787 -2.9742,0.8218 -4.696,0.8218 -3.4438,0 -6.3983,-0.95876 -8.8636,-2.87629 -2.4264,-1.95665 -4.1678,-4.61771 -5.2243,-7.98317 -1.448,1.5262 -3.0329,2.9937 -4.7547,4.40249 -1.7219,1.36966 -3.6199,2.58279 -5.6939,3.63938 -2.0741,1.01747 -4.383,1.8197 -6.9266,2.40669 -2.5045,0.62613 -5.283,0.9392 -8.3353,0.9392 -2.3089,0 -4.6765,-0.31307 -7.1027,-0.9392 -2.3872,-0.62613 -4.7156,-1.50662 -6.9853,-2.64149 -2.2306,-1.13486 -4.3242,-2.50452 -6.2809,-4.10898 -1.9566,-1.64359 -3.6785,-3.44371 -5.1655,-5.40038 -1.448,-1.95665 -2.6024,-4.06984 -3.4633,-6.33958 -0.8218,-2.2697 -1.2327,-4.63726 -1.2327,-7.10267 m 10.9768,-0.1174 c 0,2.42628 0.6457,4.65687 1.9371,6.69177 1.3305,2.03495 3.0328,3.77637 5.1069,5.22428 2.074,1.44794 4.3829,2.58281 6.9266,3.40459 2.5827,0.78267 5.1068,1.17401 7.5723,1.174 3.2871,10e-6 6.3004,-0.62612 9.0397,-1.8784 2.7784,-1.25225 5.146,-2.87627 7.1027,-4.87208 1.9957,-1.99577 3.5415,-4.22636 4.6373,-6.69177 1.0956,-2.5045 1.6435,-4.96989 1.6436,-7.39618 -10e-5,-1.36963 0.2934,-2.56319 0.8805,-3.58068 0.626,-1.05656 1.213,-2.05446 1.761,-2.99369 0.1564,-0.19563 0.2347,-0.48913 0.2348,-0.8805 0.039,-0.43043 0.039,-0.86089 0,-1.29139 -10e-5,-0.46956 -0.02,-0.90003 -0.059,-1.2914 -0.039,-0.39129 -0.059,-0.66522 -0.059,-0.8218 -1e-4,-0.86088 -0.2936,-1.80008 -0.8805,-2.81759 -0.5871,-1.01741 -1.3893,-2.03488 -2.4067,-3.05238 -0.9784,-1.01742 -2.1133,-1.99575 -3.4046,-2.93499 -1.2523,-0.97828 -2.5437,-1.83921 -3.8742,-2.58279 -1.3306,-0.74348 -2.6611,-1.33048 -3.9916,-1.761 -1.3306,-0.46954 -2.5241,-0.70434 -3.5807,-0.70439 -2.9741,5e-5 -5.7526,0.41095 -8.3353,1.23269 -2.5437,0.82185 -4.8722,1.93714 -6.9853,3.34589 -2.1132,1.40884 -4.0112,3.072 -5.6939,4.98948 -1.6436,1.87844 -3.0328,3.89379 -4.1677,6.04608 -1.0957,2.15236 -1.9371,4.38295 -2.5241,6.69177 -0.587,2.30889 -0.8805,4.55905 -0.8805,6.75048"
             style="font-variant:normal;font-stretch:normal;font-family:Short Stack;-inkscape-font-specification:Short Stack"
             id="path6843" />
          <path
             inkscape:connector-curvature="0"
             d="m -6587.3437,668.53262 c -0.1957,-0.90005 -0.2935,-1.87838 -0.2935,-2.93499 0,-1.05658 0,-2.09361 0,-3.11108 0,-2.62191 -0.059,-5.2047 -0.1761,-7.74838 -0.1174,-2.58276 -0.2543,-5.14598 -0.4109,-7.68967 -0.1174,-2.54362 -0.2348,-5.10684 -0.3522,-7.68967 -0.078,-2.58275 -0.078,-5.20467 0,-7.86577 l 0.4696,-30.64129 c 0,-2.58271 0.3914,-4.67633 1.174,-6.28087 0.7827,-1.60438 2.1915,-2.40661 4.2264,-2.40669 0.7435,8e-5 1.4088,0.15662 1.9958,0.46959 0.6261,0.31316 1.1544,0.72405 1.5849,1.2327 0.4304,0.46968 0.7631,0.99798 0.9979,1.58489 0.2348,0.58708 0.3522,1.15452 0.3522,1.7023 l 0,43.08564 c 0,4.26555 0.078,8.55063 0.2348,12.85525 0.1956,4.26554 0.6848,8.58975 1.4675,12.97265 0.1174,0.70441 0.2935,1.29141 0.5283,1.761 0.2739,0.43047 0.5674,0.78267 0.8805,1.05659 0.3522,0.23481 0.7239,0.39134 1.1153,0.4696 0.3913,0.0783 0.763,0.11741 1.1153,0.1174 0.5869,10e-6 1.0761,-0.11739 1.4675,-0.3522 0.3913,-0.27392 0.6848,-0.52829 0.8805,-0.7631 0.2347,-0.27392 0.4695,-0.52828 0.7044,-0.76309 0.2739,-0.27392 0.5674,-0.50872 0.8805,-0.7044 0.313,-0.23479 0.6848,-0.41089 1.1153,-0.5283 0.4695,-0.11739 1.0174,-0.17608 1.6435,-0.1761 0.7044,2e-5 1.311,0.15655 1.8197,0.4696 0.5087,0.27395 0.9392,0.64571 1.2914,1.1153 0.3522,0.46961 0.6066,0.9979 0.7631,1.58489 0.1957,0.58701 0.2935,1.174 0.2935,1.76099 0,1.21314 -0.3718,2.32843 -1.1153,3.34589 -0.7044,0.97834 -1.6045,1.8197 -2.7002,2.52409 -1.0957,0.7044 -2.2893,1.25227 -3.5806,1.6436 -1.2915,0.39133 -2.5046,0.58699 -3.6394,0.58699 -4.0699,0.0783 -7.3571,-0.78266 -9.8616,-2.58279 -2.4654,-1.83925 -4.0894,-4.53944 -4.8721,-8.10057"
             style="font-variant:normal;font-stretch:normal;font-family:Short Stack;-inkscape-font-specification:Short Stack"
             id="path6845" />
          <path
             inkscape:connector-curvature="0"
             d="m -6540.2665,604.72596 c -1.0566,7e-5 -1.8588,-0.0782 -2.4066,-0.2348 -0.5479,-0.19559 -0.9588,-0.48909 -1.2327,-0.8805 -0.274,-0.39125 -0.4305,-0.88042 -0.4696,-1.46749 -0.039,-0.62605 -0.059,-1.36958 -0.059,-2.23059 -1e-4,-0.89999 0.3326,-1.78048 0.9979,-2.64149 0.6652,-0.86085 1.4283,-1.68265 2.2892,-2.46539 0.9001,-0.78258 1.761,-1.52611 2.5828,-2.2306 0.8218,-0.70431 1.3892,-1.36957 1.7023,-1.99579 0.2739,-0.39124 0.7044,-0.97824 1.2914,-1.76099 0.6261,-0.78257 1.3305,-1.66307 2.1132,-2.64149 0.7827,-0.97824 1.6045,-1.97613 2.4654,-2.99369 0.9,-1.0565 1.7805,-2.01526 2.6415,-2.87629 0.8609,-0.86083 1.6631,-1.56523 2.4067,-2.11319 0.7435,-0.54777 1.3501,-0.8217 1.8197,-0.8218 0.7435,10e-5 1.4674,0.0392 2.1719,0.1174 0.7043,0.0784 1.3305,0.33273 1.8784,0.7631 0.5869,0.43056 1.037,1.11539 1.3501,2.05449 0.3521,0.93929 0.5282,2.28939 0.5283,4.05029 -1e-4,0.43055 -0.411,1.23278 -1.2327,2.40669 -0.7827,1.13495 -1.8198,2.46548 -3.1111,3.99158 -1.2523,1.48715 -2.7002,3.05248 -4.3438,4.69598 -1.6045,1.64368 -3.2285,3.15031 -4.8721,4.51989 -1.6045,1.36974 -3.1698,2.5046 -4.696,3.40458 -1.4871,0.90014 -2.7589,1.35017 -3.8155,1.3501 m -4.9894,70.20494 c 0,-0.15653 -0.039,-0.56743 -0.1174,-1.2327 -0.078,-0.70439 -0.1566,-1.44792 -0.2348,-2.23059 -0.1174,-0.66525 -0.2348,-1.38922 -0.3522,-2.17189 -0.078,-0.82179 -0.1174,-1.42835 -0.1174,-1.81969 l 0,-21.01452 c 0,-4.38288 0.1761,-8.90276 0.5283,-13.55965 0.3522,-4.6568 1.0174,-9.09842 1.9958,-13.32486 l 0,0.3522 c 0.039,-0.35214 0.1956,-0.82173 0.4696,-1.40879 0.2739,-0.62607 0.6456,-1.23264 1.1153,-1.81969 0.5087,-0.62607 1.0957,-1.15437 1.7609,-1.5849 0.6653,-0.46953 1.4284,-0.70433 2.2893,-0.7044 1.6827,7e-5 2.8567,0.54793 3.522,1.6436 0.7044,1.09579 1.0566,2.42632 1.0566,3.99158 0,2.11325 -0.1174,4.34384 -0.3522,6.69178 -0.2348,2.30891 -0.4696,4.69603 -0.7044,7.16137 -0.2348,2.6611 -0.45,5.28302 -0.6457,7.86577 -0.1565,2.58283 -0.2348,4.89168 -0.2348,6.92658 0,1.48709 0.098,3.24808 0.2935,5.28298 0.1957,1.99581 0.4696,4.109 0.8218,6.33957 0.3131,2.42628 0.6261,4.8721 0.9392,7.33748 0.3131,2.4654 0.4696,4.75469 0.4696,6.86787 0,1.95666 -0.4892,3.44372 -1.4675,4.46119 -0.9392,1.05659 -2.0154,1.58489 -3.2285,1.58489 -2.3871,0 -4.2851,-0.48917 -5.6938,-1.4675 -1.4089,-0.97832 -2.1132,-2.36755 -2.1132,-4.16768"
             style="font-variant:normal;font-stretch:normal;font-family:Short Stack;-inkscape-font-specification:Short Stack"
             id="path6847" />
        </g>
        <g
           transform="matrix(0.66759922,0,0,0.66759922,-7233.5558,443.73409)"
           id="layer1-3-97"
           inkscape:label="Capa 1">
          <text
             sodipodi:linespacing="125%"
             id="text3197-7"
             y="535.85278"
             x="3592.4868"
             style="font-size:430.46691895px;font-style:normal;font-variant:normal;font-weight:bold;font-stretch:normal;text-align:start;line-height:125%;letter-spacing:0px;word-spacing:0px;writing-mode:lr-tb;text-anchor:start;fill:#ffffff;fill-opacity:1;stroke:none;font-family:Rudiment;-inkscape-font-specification:Rudiment Bold"
             xml:space="preserve"
             inkscape:export-filename="/home/david/work/pipo/textures/abeja.png"
             inkscape:export-xdpi="90"
             inkscape:export-ydpi="90"><tspan
               style="font-style:normal;font-weight:500;fill:#ffffff;-inkscape-font-specification:Rudiment Medium"
               y="535.85278"
               x="3592.4868"
               id="tspan3199-98"
               sodipodi:role="line" /></text>
          <text
             sodipodi:linespacing="125%"
             id="text3197-5-2"
             y="626.41736"
             x="1691.156"
             style="font-size:430.46691895px;font-style:normal;font-variant:normal;font-weight:bold;font-stretch:normal;text-align:start;line-height:125%;letter-spacing:0px;word-spacing:0px;writing-mode:lr-tb;text-anchor:start;fill:#ffffff;fill-opacity:1;stroke:none;font-family:Rudiment;-inkscape-font-specification:Rudiment Bold"
             xml:space="preserve"
             inkscape:export-filename="/home/david/work/pipo/textures/abeja.png"
             inkscape:export-xdpi="90"
             inkscape:export-ydpi="90"><tspan
               style="font-style:normal;font-weight:500;fill:#ffffff;-inkscape-font-specification:Rudiment Medium"
               y="626.41736"
               x="1691.156"
               id="tspan3199-9-6"
               sodipodi:role="line" /></text>
          <g
             transform="translate(1010.1525,-375.77675)"
             id="g4717">
            <path
               style="fill:none;stroke:#000000;stroke-width:9.59911346;stroke-miterlimit:4;stroke-dasharray:none"
               d="m -270.14958,802.4224 3.7179,11.11164 -23.87111,-8.49217 10.73131,15.16761 -25.05393,-11.49189 9.04134,16.1816 -24.96939,-9.21042 9.97087,13.18187 -18.46312,-4.6897 10.52018,18.88559 0.76044,-0.0423 c -0.20082,0.14003 -0.39031,0.28085 -0.59136,0.4225 0,0 -37.31229,-0.34661 -37.60225,9.88641 -0.6676,23.5564 35.06718,-9.04141 35.06718,-9.04141 17.3885,32.60556 -18.82764,57.01126 -40.93993,75.33107 l 0.0426,0.33799 c -9.2453,4.93537 -16.54508,12.01633 -20.19537,21.29382 -13.79607,35.06496 14.71955,78.91159 41.86946,89.06219 22.38195,14.7359 56.96733,22.0768 87.71034,11.0694 1.14179,0.3247 2.2736,0.6704 3.42211,0.9718 l 0,24.209 0.21114,0 c 2.2e-4,0 0,0.084 0,0.084 l 17.06882,0 c 0,0 -0.0348,-0.3869 -0.0426,-0.507 l 0,-20.2376 c 4.51703,0.692 9.02441,1.2192 13.51991,1.4788 l 0,14.8296 c -0.30073,2.4241 -0.29579,4.4362 -0.29579,4.4362 l 17.11109,0 c 0,0 2.3e-4,-0.081 0,-0.084 l 0.46466,0 0,-19.4348 c 5.91255,-0.5163 11.70636,-1.4906 17.28029,-3.042 l 0,20.4488 c -0.0774,1.2365 -0.0852,2.1125 -0.0852,2.1125 l 17.11098,0 c 0,0 3.4e-4,-0.081 0,-0.085 l 0.21136,0 0,-29.5325 c 1.35191,-0.7588 2.70685,-1.5579 4.01369,-2.4082 1.92892,-1.255 3.84202,-2.4883 5.74593,-3.7603 l 0,31.7718 c -0.23972,2.2239 -0.2534,4.0137 -0.2534,4.0137 l 17.06882,0 c 0,0 1.2e-4,-0.081 0,-0.084 l 0.46477,0 0,-48.3336 c 21.62622,-17.7211 36.93218,-40.65106 31.22236,-82.17552 l 8.87258,20.19531 2.28133,13.09739 0.42261,-9.46391 7.01341,11.70314 -4.8164,-12.71714 8.44998,5.11221 -9.29508,-8.91467 -15.50567,-33.16595 c -0.19342,-0.84776 -0.38235,-1.67336 -0.59135,-2.53497 -8.3466,-34.37391 -27.83311,-54.63273 -49.8123,-66.45867 0.50782,-10.05182 -34.43355,-13.94237 -34.43355,-13.94237 -0.30902,-0.14491 -0.62029,-0.27861 -0.92953,-0.4225 l 1.18305,-0.0423 -74.82396,-36.08117 z m 77.65459,38.78514 c 0,0 0.18602,0.14636 0.21136,0.169 -0.0706,-0.0163 -0.14117,-0.026 -0.21136,-0.0423 -0.0112,-0.0418 0.0112,-0.0849 0,-0.12675 z"
               id="path4164"
               inkscape:connector-curvature="0" />
            <path
               style="fill:#2b1100;stroke:none"
               d="m -114.36294,914.15914 19.143744,40.91508 9.290185,8.91496 -8.445598,-5.11436 4.785902,12.71556 -7.01479,-11.70678 -0.398836,9.45458 -2.275531,-13.09095 -16.961906,-38.70978 z"
               id="path4103"
               inkscape:connector-curvature="0"
               sodipodi:nodetypes="cccccccccc" />
            <path
               inkscape:connector-curvature="0"
               style="fill:#502d16;fill-opacity:1;stroke:none"
               d="m -230.98433,837.1093 c -14.04635,-0.0185 -23.44848,1.52098 -23.44848,1.52098 l -57.20612,188.51782 c 0,0 27.06923,2.4642 39.50346,7.4782 7.43661,2.9987 15.22366,5.6511 23.1528,7.7317 l 0,24.209 17.23784,0 0,-20.6601 c 4.51699,0.692 9.02439,1.2192 13.51988,1.4788 l 0,19.1813 17.28003,0 0,-19.4348 c 5.91251,-0.5163 11.70632,-1.4906 17.28016,-3.042 l 0,22.4768 17.23785,0 0,-29.5325 c 1.35185,-0.7588 2.70668,-1.5579 4.01364,-2.4082 1.92902,-1.255 3.84208,-2.4882 5.74595,-3.7602 l 0,35.7009 17.28017,0 0,-48.3336 c 24.3639,-19.96436 40.759592,-46.53688 28.05375,-98.86409 -17.47877,-71.98374 -83.75471,-82.21263 -119.65093,-82.26001 z"
               id="path4105" />
            <path
               inkscape:connector-curvature="0"
               id="path4134"
               d="m -230.98433,837.1093 c -14.04635,-0.0185 -23.44848,1.52098 -23.44848,1.52098 l -57.20612,188.51782 c 0,0 27.06923,2.4642 39.50346,7.4782 7.43661,2.9987 15.22366,5.6511 23.1528,7.7317 l 0,24.209 17.23784,0 0,-20.6601 c 4.51699,0.692 9.02439,1.2192 13.51988,1.4788 l 0,19.1813 17.28003,0 0,-19.4348 c 5.91251,-0.5163 11.70632,-1.4906 17.28016,-3.042 l 0,22.4768 17.23785,0 0,-29.5325 c 1.35185,-0.7588 2.70668,-1.5579 4.01364,-2.4082 1.92902,-1.255 3.84208,-2.4882 5.74595,-3.7602 l 0,35.7009 17.28017,0 0,-48.3336 c 24.3639,-19.96436 40.759592,-46.53688 28.05375,-98.86409 -17.47877,-71.98374 -83.75471,-82.21263 -119.65093,-82.26001 z"
               style="fill:url(#linearGradient10541);fill-opacity:1;stroke:none" />
            <path
               style="fill:#572e12;fill-opacity:1;stroke:none"
               d="m -320.88855,844.30475 c 17.38845,32.60557 -18.82319,56.97842 -40.93549,75.29823 l 19.18254,108.99842 c 53.5375,38.1984 187.24478,33.0095 150.14853,-187.38038 0,0 26.31239,23.76765 30.92781,13.5083 5.12592,-11.39397 -34.01142,-15.75103 -34.01142,-15.75103 -37.7306,-17.69032 -76.70057,-27.96982 -122.78903,4.48543 0,0 -37.30162,-0.37148 -37.59162,9.86154 -0.66761,23.5564 35.06868,-9.02051 35.06868,-9.02051 z"
               id="path3315-4"
               inkscape:connector-curvature="0"
               sodipodi:nodetypes="ccccaccsc" />
            <g
               transform="matrix(0.37460581,0,0,0.37460581,-637.42718,1023.9678)"
               id="g3149">
              <path
                 inkscape:export-ydpi="90"
                 inkscape:export-xdpi="90"
                 inkscape:export-filename="/home/david/work/pipo/textures/abeja.png"
                 transform="matrix(0.52570076,0,0,0.52570076,1210.0487,-894.80758)"
                 d="m -448.50774,962.45862 c 0,34.0314 -27.5879,61.61928 -61.6193,61.61928 -34.03141,0 -61.61931,-27.58788 -61.61931,-61.61928 0,-34.0314 27.5879,-61.61931 61.61931,-61.61931 34.0314,0 61.6193,27.58791 61.6193,61.61931 z"
                 sodipodi:ry="61.619305"
                 sodipodi:rx="61.619305"
                 sodipodi:cy="962.45862"
                 sodipodi:cx="-510.12704"
                 id="path3151"
                 style="fill:#ffffff;fill-opacity:1;stroke:none"
                 sodipodi:type="arc" />
              <path
                 inkscape:export-ydpi="90"
                 inkscape:export-xdpi="90"
                 inkscape:export-filename="/home/david/work/pipo/textures/abeja.png"
                 transform="matrix(0.5334795,0,0,0.5334795,1194.5258,-906.53194)"
                 d="m -270.72089,972.56012 c 0,35.14718 -28.49243,63.63958 -63.63961,63.63958 -35.14719,0 -63.63961,-28.4924 -63.63961,-63.63958 0,-35.14719 28.49242,-63.63961 63.63961,-63.63961 35.14718,0 63.63961,28.49242 63.63961,63.63961 z"
                 sodipodi:ry="63.63961"
                 sodipodi:rx="63.63961"
                 sodipodi:cy="972.56012"
                 sodipodi:cx="-334.3605"
                 id="path3153"
                 style="fill:#ffffff;fill-opacity:1;stroke:none"
                 sodipodi:type="arc" />
              <path
                 inkscape:export-ydpi="90"
                 inkscape:export-xdpi="90"
                 inkscape:export-filename="/home/david/work/pipo/textures/abeja.png"
                 transform="matrix(0.31612792,0,0,0.31612792,1114.8567,-689.85072)"
                 sodipodi:type="arc"
                 style="fill:#000000;fill-opacity:1;stroke:none"
                 id="path3155"
                 sodipodi:cx="-510.12704"
                 sodipodi:cy="962.45862"
                 sodipodi:rx="61.619305"
                 sodipodi:ry="61.619305"
                 d="m -448.50774,962.45862 c 0,34.0314 -27.5879,61.61928 -61.6193,61.61928 -34.03141,0 -61.61931,-27.58788 -61.61931,-61.61928 0,-34.0314 27.5879,-61.61931 61.61931,-61.61931 34.0314,0 61.6193,27.58791 61.6193,61.61931 z" />
              <path
                 inkscape:export-ydpi="90"
                 inkscape:export-xdpi="90"
                 inkscape:export-filename="/home/david/work/pipo/textures/abeja.png"
                 sodipodi:type="arc"
                 style="fill:#000000;fill-opacity:1;stroke:none"
                 id="path3157"
                 sodipodi:cx="-334.3605"
                 sodipodi:cy="972.56012"
                 sodipodi:rx="63.63961"
                 sodipodi:ry="63.63961"
                 d="m -270.72089,972.56012 c 0,35.14718 -28.49243,63.63958 -63.63961,63.63958 -35.14719,0 -63.63961,-28.4924 -63.63961,-63.63958 0,-35.14719 28.49242,-63.63961 63.63961,-63.63961 35.14718,0 63.63961,28.49242 63.63961,63.63961 z"
                 transform="matrix(0.31612792,0,0,0.31612792,1108.9618,-692.81246)" />
            </g>
            <path
               style="fill:#ffccaa;stroke:none"
               d="m -329.23843,1032.5175 c -29.49781,-0.2414 -68.41613,-51.42426 -52.74713,-91.24905 15.66886,-39.82481 98.94023,-39.62959 112.00084,0.46033 13.06061,40.08995 -29.60759,91.03132 -59.25371,90.78872 z"
               id="path3313"
               inkscape:connector-curvature="0"
               sodipodi:nodetypes="szzs" />
            <path
               style="fill:#ffffff;stroke:none"
               d="m -243.06381,1001.66 c -16.07973,-9.01707 -30.372,-22.05588 -38.06021,-49.95407 -3.48867,20.60277 -1.47664,35.64016 19.55096,59.20027 7.38672,-1.1349 12.82144,-5.3931 18.50925,-9.2462 z"
               id="path3321-8"
               inkscape:connector-curvature="0"
               sodipodi:nodetypes="cccc" />
            <path
               style="fill:none;stroke:#000000;stroke-width:3.98430848;stroke-linecap:butt;stroke-linejoin:miter;stroke-miterlimit:4;stroke-opacity:1;stroke-dasharray:none"
               d="m -291.43198,1013.5538 c 58.53485,5.853 83.02976,-42.75809 88.80721,-121.31698"
               id="path3323"
               inkscape:connector-curvature="0"
               sodipodi:nodetypes="cc" />
            <path
               style="fill:#28170b;stroke:none"
               d="m -195.31321,838.50167 -74.82321,-36.09779 3.71594,11.14785 -23.88827,-8.4936 10.7191,15.15913 -25.02543,-11.51311 9.01884,16.19416 -24.97095,-9.22319 9.98957,13.18571 -18.48316,-4.6921 10.54699,18.89624 z"
               id="path3329-7"
               inkscape:connector-curvature="0"
               sodipodi:nodetypes="cccccccccccc" />
            <path
               style="fill:#28170b;fill-opacity:1;stroke:none"
               d="m -350.18059,946.06205 c -2.49536,0 -4.52064,2.02527 -4.52064,4.52071 l 0,41.65813 c 0,2.49545 2.02528,4.52071 4.52064,4.52071 2.4955,0 4.52078,-2.02526 4.52078,-4.52071 l 0,-41.65813 c 0,-2.49544 -2.02528,-4.52071 -4.52078,-4.52071 z m 39.03865,0 c -2.49536,0 -4.52064,2.02527 -4.52064,4.52071 l 0,41.65813 c 0,2.49545 2.02528,4.52071 4.52064,4.52071 2.4955,0 4.52078,-2.02526 4.52078,-4.52071 l 0,-41.65813 c 0,-2.49544 -2.02528,-4.52071 -4.52078,-4.52071 z"
               id="rect3331"
               inkscape:connector-curvature="0" />
            <path
               inkscape:connector-curvature="0"
               style="fill:#6c5140;fill-opacity:1;stroke:none"
               d="m -240.57493,1052.8359 c -1.80017,-0.01 -3.55992,0.4406 -4.85877,1.4365 -3.38119,2.592 -3.33779,12.3791 -3.33779,12.3791 l 17.06884,0 c 0,0 -0.43452,-9.8261 -3.92914,-12.3791 -1.32171,-0.9656 -3.1431,-1.4289 -4.94314,-1.4365 z m 30.29291,0 c -1.80004,-0.01 -3.6021,0.4406 -4.90096,1.4365 -3.38118,2.592 -3.33778,12.3791 -3.33778,12.3791 l 17.11116,0 c 0,0 -0.47684,-9.8261 -3.97146,-12.3791 -1.32171,-0.9656 -3.10092,-1.4289 -4.90096,-1.4365 z m 34.77151,0 c -1.80017,-0.01 -3.6021,0.4406 -4.90096,1.4365 -3.38132,2.592 -3.33779,12.3791 -3.33779,12.3791 l 17.11103,0 c 0,0 -0.47671,-9.8261 -3.97133,-12.3791 -1.3217,-0.9656 -3.10092,-1.4289 -4.90095,-1.4365 z m 26.78612,0 c -1.80003,-0.01 -3.60196,0.4406 -4.90095,1.4365 -3.38119,2.592 -3.29534,12.3791 -3.29534,12.3791 l 17.06885,0 c 0,0 -0.43467,-9.8261 -3.92928,-12.3791 -1.32171,-0.9656 -3.14311,-1.4289 -4.94328,-1.4365 z"
               id="path4113" />
          </g>
        </g>
        <g
           transform="matrix(0.71304923,0,0,0.71304923,-6964.0497,42.804778)"
           id="layer1-2-8"
           inkscape:label="Capa 1"
           style="fill:#ffffff">
          <path
             inkscape:connector-curvature="0"
             id="path3083"
             d="m 290.64874,42.213659 c -15.9323,-0.066 -31.2742,14.3427 -30.0626,36.9374 2.4395,45.478801 -4.7388,91.892501 -4.5,139.187601 0.084,16.6087 -3.8711,35.8673 -5.4062,55.0312 -1.5351,19.1638 -0.5786,38.8725 11.25,55.3125 11.1036,15.4324 33.3649,22.939 52.875,28.125 0.8417,0.2237 1.6681,0.4442 2.5,0.6563 l 0,26.5 a 7.125,7.125 0 0 0 14.25,0 l 0,-23.2813 c 11.5867,2.3332 19.9375,3.3438 19.9375,3.3437 a 7.1263828,7.1263828 0 1 0 1.6563,-14.1562 c 0,0 -16.2983,-1.9243 -34.6876,-6.8125 -18.3894,-4.8881 -38.4321,-13.6025 -44.9687,-22.6875 -8.8694,-12.3271 -10.0586,-27.9787 -8.625,-45.875 1.4336,-17.8964 5.5636,-37.3884 5.4687,-56.2188 -0.231,-45.7726 7.0145,-92.4183 4.4688,-139.875001 -0.8879,-16.5572 7.7384,-21.9709 15.7812,-21.9374 8.0429,0.033 16.7853,5.5118 15.9376,22.875 -1.8336,37.557801 -0.0313,111.250001 -0.0313,111.250001 a 7.1270721,7.1270721 0 0 0 0.2813,1.8437 c -0.2006,11.0587 0.2325,22.3214 2.625,32.4687 1.9796,8.3969 7.7071,15.1027 14.5624,19.8438 6.8554,4.741 15.0346,7.667 23.3438,7.2188 8.0037,-0.4316 15.299,-4.1759 21.1562,-9.375 0.9431,-0.8372 1.8181,-1.7401 2.6876,-2.6563 0.3448,4.7805 2.6191,9.0727 5.25,12.6875 3.4324,4.7159 7.8632,8.7677 12.2812,12.2812 2.2314,1.7746 4.4862,3.3882 6.5938,4.8438 -6.5458,4.7725 -10.7647,10.7628 -12.9063,17.0625 -3.2674,9.6115 -2.6745,19.2239 -2.9375,27.5937 a 7.1202884,7.1202884 0 1 0 14.2188,0.4688 c 0.2851,-9.0744 0.1388,-17.3504 2.2187,-23.4688 1.9331,-5.6864 5.3104,-10.0726 14.5,-13.75 l 72.7187,-2.7187 0.0313,0 a 7.1202884,7.1202884 0 0 0 -0.4687,-14.2187 l -0.0626,0 -0.3124,0 -71.2188,2.2187 c -2.5102,-1.4449 -7.5914,-4.4885 -13.5,-9.1875 -3.8169,-3.0355 -7.4499,-6.4687 -9.6562,-9.5 -2.2063,-3.0314 -2.6507,-5.1964 -2.4688,-6.1562 0.6295,-3.3216 2.3225,-6.2913 4.9375,-8.9376 4.4767,-3.5884 9.2149,-6.3909 14.125,-8.4687 7.3244,-2.7573 15.9418,-4.3205 23.875,-4.9063 2.0934,-0.032 4.1789,0.036 6.25,0.1876 a 7.1202884,7.1202884 0 0 0 3,-0.4376 c 19.8024,1.842 38.1453,6.6714 56.625,12 0.4058,0.1739 0.8181,0.3535 1.2187,0.5313 8.914,3.9548 16.4607,8.8583 21.4688,14.3125 5.0081,5.4541 7.5555,11.1212 7.4062,18.0938 -0.6649,31.0525 -13.0863,46.5166 -28.4062,55.5312 -15.3199,9.0145 -34.2851,10.8052 -46.1562,10.4375 a 7.1202884,7.1202884 0 0 0 -7.3438,7.2187 l 0.9062,51.3126 a 7.1202884,7.1202884 0 1 0 14.2188,-0.25 l -0.75,-44.1876 c 13.2685,-0.3778 30.5003,-2.9273 46.3438,-12.25 18.9146,-11.1296 34.6883,-32.5078 35.4374,-67.5 0.2331,-10.8893 -4.2625,-20.5236 -11.1562,-28.0312 -5.3414,-5.8172 -12.0949,-10.5382 -19.5625,-14.4688 0.4027,-4.7329 1.0425,-12.8895 1.5,-22.625 0.6986,-14.8665 1.0439,-32.3244 -1.0313,-44.6874 -1.6666,-9.9267 -8.4848,-17.3099 -16.25,-21.9688 -7.7653,-4.659 -16.7194,-6.9885 -25.0624,-6.9062 -11.8254,0.1164 -22.4902,6.2361 -30.125,14.7187 -1.5301,-7.5636 -6.9611,-13.4176 -13.2813,-16.4063 -5.2917,-2.5023 -11.2315,-3.5414 -17.25,-3.4687 -2.0062,0.024 -4.0255,0.1776 -6.0313,0.4375 -8.023,1.0395 -15.9416,3.875 -22.25,9.0312 -3.2239,2.6351 -6.0025,6.0372 -7.875,9.9688 -2.6963,-2.4631 -5.8602,-4.3787 -9.125,-5.8125 -4.9169,-2.1592 -10.2216,-3.3446 -15.4374,-3.375 -1.7387,-0.01 -3.4838,0.1204 -5.1876,0.375 -7.2083,1.0775 -14.4182,4.3621 -20.4687,9.2187 -0.1073,-20.1265 0.0142,-41.678801 0.75,-56.750001 1.1323,-23.1903 -14.1613,-37.7462 -30.0937,-37.8124 z m -65.125,1.8124 -4.2188,0.125 -3.4375,2.5 -0.4687,0.7188 -5.5,9.6875 -0.0313,0.094 -5.25,9.5938 -0.0625,0.094 -5,9.5 -0.0625,0.094 -4.75,9.3437 -0.0625,0.125 -4.5,9.2188 -0.0625,0.125 -1.4063,3.0312 -0.5937,4.187601 1.9375,3.7812 3.7188,2.0312 4.1874,-0.4374 3.2188,-2.75 0.4062,-0.7813 1.375,-2.9375 0.0626,-0.094 4.4062,-9.031201 0.0312,-0.062 0.0313,-0.062 4.6563,-9.1562 0.0624,-0.094 4.875,-9.2812 0.0626,-0.094 5.1562,-9.4062 0.0312,-0.094 5.4688,-9.5938 0.875,-4.1562 -1.5938,-3.9062 -3.5624,-2.3126 z m -38.875,76.250001 -4.1876,0.6876 -3.0624,2.9062 -0.375,0.7812 -2.7813,6.7813 -0.0313,0.125 -3.375,8.6875 -0.0312,0.125 -3.125,8.5625 -0.0625,0.125 -2.9063,8.4687 -0.0624,0.125 -2.6876,8.3438 -0.0312,0.125 -2.5,8.25 -0.0312,0.125 -1.3126,4.6875 0.125,4.2187 2.5,3.4376 4,1.375 4.0626,-1.125 2.7187,-3.25 0.2813,-0.8126 1.2812,-4.5312 0.0312,-0.125 2.4063,-7.9688 0.0625,-0.1562 2.6562,-8.2188 2.8126,-8.1874 0.0624,-0.125 3.0313,-8.3438 0.0625,-0.125 3.25,-8.4375 0.0625,-0.125 2.7187,-6.6563 0.3438,-4.2187 -2.0938,-3.6875 -3.8124,-1.8438 z m 219.8437,10.9063 c 4.2554,-0.015 8.2295,0.7688 11.0313,2.0937 3.7357,1.7665 5.2989,3.5549 5.5624,7.2188 l 1.9688,27.2188 c -0.1218,6.3504 0.5552,12.7842 1.3438,18.7812 l 1.0937,15.0312 c -0.5928,0.041 -1.183,0.1056 -1.7813,0.1563 -7.5245,0.3614 -15.1602,1.778 -22.5937,4.4375 -1.4324,0.4642 -2.8526,0.929 -4.25,1.4688 -4.6644,1.8016 -9.2198,4.1414 -13.25,7.0312 l -3.6875,-66.4688 c -0.2566,-4.6189 1.5112,-7.7394 5.1562,-10.7187 3.6449,-2.9792 9.3081,-5.2191 15.0938,-5.9687 1.4464,-0.1875 2.894,-0.2762 4.3125,-0.2813 z m 60.6875,5.125 c 5.3886,-0.053 12.3059,1.7336 17.5938,4.9063 5.2878,3.1726 8.7266,7.3324 9.5312,12.125 1.6398,9.7687 1.5243,27.1729 0.8438,41.6562 -0.4392,9.3477 -0.7882,12.8539 -1.1563,17.0938 -16.5801,-6.2071 -34.9112,-9.4913 -50.4375,-10.5 -0.8774,-3.8004 -2.0136,-9.1211 -2.9688,-16.2813 l -0.9687,-13.4375 c -0.0792,-7.361 0.6436,-14.0402 2.3437,-17.4688 4.5442,-9.1632 16.219,-18.005 25.2188,-18.0937 z m -121.6875,5.1875 c 3.1187,0.056 6.756,0.7689 9.8437,2.125 4.1169,1.808 6.9613,4.5264 7.875,6.9688 7.0849,18.9381 7.4688,48.7642 3.2813,69.4687 -0.7723,3.818 -3.5783,8.4217 -7.4687,11.875 -3.8905,3.4534 -8.6903,5.6087 -12.4688,5.8125 -4.1607,0.2244 -9.8548,-1.5278 -14.4688,-4.7188 -4.614,-3.1909 -7.9578,-7.6485 -8.8437,-11.4062 -3.9544,-16.7724 -0.9343,-42.1881 -1.1563,-62.7812 -10e-5,-0.01 10e-5,-0.022 0,-0.031 -0.0189,-3.0435 2.1351,-6.9726 6.25,-10.4375 4.1278,-3.4759 9.9249,-6.0722 14.25,-6.7188 0.8848,-0.1322 1.8667,-0.1747 2.9063,-0.1562 z m -185.625,60.1875 -3.9687,1.4687 -2.4376,3.4688 -0.1874,0.8125 -1.375,7.1875 -0.0313,0.1562 -1.2813,7.5938 -0.0312,0.1562 -1.0625,7.4688 -0.0313,0.1562 -0.9062,7.3438 0,0.1875 -0.7188,7.2187 -0.0312,0.1876 -0.5,7.125 -0.0312,0.1874 -0.3438,7.0313 0,0.1563 -0.125,5.5312 1.1562,4.0938 3.25,2.6874 4.2188,0.3438 3.6875,-2.0938 1.8437,-3.8124 0.0626,-0.875 0.125,-5.3438 0,-0.1562 0.3437,-6.6876 0,-0.1874 0.5313,-6.9688 0.6562,-6.9062 0.0312,-0.1563 0.8438,-7.0313 0.0312,-0.1562 1.0313,-7.1562 0.0313,-0.1563 1.2187,-7.25 0.0313,-0.1563 1.3437,-7.0312 -0.4687,-4.2188 -2.7813,-3.1874 -4.125,-1.0313 z m -3.0937,85.1875 -4.25,0.1875 -3.375,2.5313 -1.3438,4.0312 0.0625,0.875 0.5937,5.9375 0.0313,0.1875 0.8437,6.2812 0,0.1876 1,6.1562 0.0313,0.1875 1.125,6.0625 0.0313,0.1875 1.2812,5.9687 0.0312,0.1876 1.4376,5.8437 0.0624,0.2187 1.5626,5.7188 0.0624,0.1875 1.6876,5.6563 0.0624,0.1874 1.8438,5.5313 0.0625,0.1875 0.8437,2.2812 2.5626,3.375 4.0312,1.3126 4.0625,-1.2188 2.6563,-3.2812 0.3124,-4.2188 -0.25,-0.8438 -0.7812,-2.0937 -0.0625,-0.1875 -1.7187,-5.1562 -0.0626,-0.1876 -1.625,-5.4687 -0.0312,0 -1.4375,-5.3437 -0.0625,-0.1876 -1.3125,-5.5 -1.25,-5.75 -0.0313,-0.1874 -1.0624,-5.6876 -0.0313,-0.1562 0,-0.031 -0.9375,-5.7813 -0.0312,-0.125 0,-0.094 -0.75,-5.875 -0.0313,-0.1876 -0.5937,-5.7812 -1.6876,-3.875 -3.5624,-2.25 z m 20.9687,81.3125 -3.8437,1.75 -2.1876,3.625 0.2813,4.25 0.3437,0.7813 1.4376,2.6874 0.0937,0.1876 2.7187,4.8124 0.0938,0.1563 2.8438,4.7187 0.0937,0.1563 2.9375,4.5937 0.0938,0.1563 3.0624,4.5 0.0938,0.1563 3.1562,4.4062 0.0938,0.125 3.25,4.3125 0.125,0.125 3.3438,4.2187 0.0937,0.125 3.4375,4.0938 0.125,0.125 3.5312,4 0.125,0.125 3.5,3.8125 3.6876,2.0937 4.2187,-0.375 3.2813,-2.6874 1.1562,-4.0626 -1.3438,-4 -0.5624,-0.6874 -3.4063,-3.6563 -0.125,-0.125 -3.2813,-3.7187 -0.125,-0.125 -3.1874,-3.8126 -0.0938,-0.125 -0.0312,-0.031 -3.0938,-3.9062 -0.125,-0.1563 -3.0312,-4 -0.0313,-0.031 -0.0625,-0.094 -2.9375,-4.0937 -0.0937,-0.1563 -2.8438,-4.1875 -0.0938,-0.1562 -2.75,-4.2813 -0.0937,-0.1563 -2.625,-4.375 -0.0937,-0.1874 -2.5313,-4.4688 -0.0937,-0.1562 -1.3438,-2.5626 -3,-2.9687 -4.1875,-0.75 z m 369.5937,50.125 -40.3437,18.8437 -40.375,18.8126 11.25,12.125 -1.6563,1.0937 -0.2187,0.125 -2.6563,1.6563 -0.1874,0.125 -2.7813,1.5624 -0.1875,0.094 -0.0312,0.031 -2.9376,2.9688 -0.7812,4.1562 1.75,3.875 3.625,2.1876 4.25,-0.25 0.7812,-0.375 0.1563,-0.094 0.2187,-0.094 3.1876,-1.8124 0.2187,-0.125 3.0625,-1.9063 0.2188,-0.125 2.9687,-2 0.2187,-0.1563 0.5313,-0.375 11.9687,12.9063 23.875,-36.625 23.875,-36.625 z m -314.0624,15.1875 -4.125,0.9688 -2.8438,3.125 -0.5938,4.1874 1.9376,3.7813 0.625,0.5937 2.5312,2.0313 0.125,0.094 4.125,3.1876 0.125,0.094 4.2188,3.0937 0.125,0.094 4.2812,2.9688 0.125,0.094 4.3125,2.9063 0.125,0.062 4.375,2.8126 0.125,0.062 4.4375,2.6876 0.125,0.094 4.5,2.5937 0.125,0.063 4.5,2.5 0.125,0.062 4.5625,2.4063 0.1563,0.062 4.5937,2.3125 0.125,0.062 1.6563,0.7812 4.2187,0.625 3.7813,-1.9062 2.0312,-3.7188 -0.4062,-4.1874 -2.75,-3.25 -0.75,-0.4063 -1.5313,-0.7187 -0.125,-0.063 -4.3437,-2.1874 -0.1563,-0.063 -4.2813,-2.2812 -0.125,-0.062 -4.4062,-2.4375 -4.2188,-2.4375 -0.125,-0.062 -4.1874,-2.5312 -0.125,-0.094 -4.125,-2.625 -0.125,-0.094 -4.0626,-2.7187 -0.125,-0.094 -4,-2.7813 -0.125,-0.094 -3.9687,-2.9063 -0.0625,-0.031 -0.0625,-0.062 -3.875,-3 -0.125,-0.094 -2.4063,-1.9375 -3.9374,-1.5625 z m 72.0624,41.375 -3.5937,2.25 -1.6875,3.875 0.8438,4.1562 3.0312,2.9688 0.7812,0.3125 0.3126,0.125 0.125,0.031 4.7812,1.625 0.125,0.062 4.8125,1.5313 0.125,0.031 4.8125,1.4374 0.125,0.031 4.8125,1.3437 0.125,0.063 4.8437,1.25 0.125,0.031 4.8126,1.1562 0.125,0 4.8437,1.0626 0.125,0.031 4.8125,0.9688 0.1562,0.031 4.8126,0.875 0.125,0.031 4.8124,0.7813 0.125,0.031 4.7813,0.6874 0.125,0 2.0937,0.25 4.1563,-0.75 3,-2.9687 0.7813,-4.1563 -1.7188,-3.875 -3.625,-2.2187 -0.8438,-0.1563 -1.9374,-0.2187 -0.125,-0.031 -4.5313,-0.6562 -0.125,-0.031 -4.5625,-0.7188 -0.125,-0.031 -4.5625,-0.8126 -0.125,-0.031 -4.5625,-0.9062 0,-0.031 -4.7188,-1.0313 -0.125,-0.031 -4.5624,-1.0938 -0.0626,-0.031 -0.0624,0 -4.7188,-1.2188 -4.6875,-1.3124 0,0.031 -4.5625,-1.375 -0.125,-0.031 -4.5312,-1.4688 -0.125,-0.031 -4.5313,-1.5313 0,-0.031 -0.1563,-0.031 -0.1562,-0.062 -4.2188,-0.1875 z m 140.6876,7.8125 -0.8438,0.1875 -2.25,0.625 0,0.031 -3.5938,0.9063 -0.1874,0.062 -3.6876,0.875 0,-0.031 -3.9374,0.8437 -0.0626,0 -0.0937,0.031 -3.8437,0.6874 -0.1563,0.031 -3.9063,0.625 -0.1562,0.031 -4,0.5312 -0.1562,0.031 -4.1876,0.4688 -4.0937,0.375 -4.2813,0.3125 -0.1562,0 -4.2188,0.2187 -0.125,0 -4.25,0.1563 0,-0.031 -4.4374,0.063 -0.0938,0 -0.0625,0 -2.3125,-0.031 -4.0625,1.2187 -2.6563,3.3126 -0.2812,4.2187 2.1562,3.6563 3.8438,1.7812 0.8438,0.062 2.4687,0.031 0.1563,0 4.5624,-0.063 0.1563,0 4.5313,-0.125 0.1562,-0.031 4.5,-0.2188 0.125,0 4.4688,-0.3124 0.125,-0.031 4.4062,-0.4063 0.1562,0 4.3438,-0.5 0.1562,-0.031 4.2813,-0.5625 0.1563,-0.031 4.25,-0.6874 0.1562,-0.031 4.1562,-0.75 0.1876,-0.031 4.0937,-0.875 0.1563,-0.031 4.0312,-0.9375 0.1875,-0.031 3.9687,-1.0312 0.1563,-0.062 2.25,-0.625 3.5625,-2.3437 1.5625,-3.9376 -0.9063,-4.125 -3.125,-2.875 -4.1874,-0.5937 z"
             style="font-size:medium;font-style:normal;font-variant:normal;font-weight:normal;font-stretch:normal;text-indent:0;text-align:start;text-decoration:none;line-height:normal;letter-spacing:normal;word-spacing:normal;text-transform:none;direction:ltr;block-progression:tb;writing-mode:lr-tb;text-anchor:start;baseline-shift:baseline;color:#000000;fill:#ffffff;fill-opacity:1;stroke:none;stroke-width:14.23915291;marker:none;visibility:visible;display:inline;overflow:visible;enable-background:accumulate;font-family:Sans;-inkscape-font-specification:Sans" />
        </g>
      </g>
      <rect
         y="16.503397"
         x="-15171.796"
         height="1027.4425"
         width="1023.3555"
         id="rect5661"
         style="fill:none;stroke:none" />
    </g>
  </g>
</svg>
