<?xml version="1.0" encoding="UTF-8" standalone="no"?>
<!-- Created with Inkscape (http://www.inkscape.org/) -->

<svg
   xmlns:dc="http://purl.org/dc/elements/1.1/"
   xmlns:cc="http://creativecommons.org/ns#"
   xmlns:rdf="http://www.w3.org/1999/02/22-rdf-syntax-ns#"
   xmlns:svg="http://www.w3.org/2000/svg"
   xmlns="http://www.w3.org/2000/svg"
   xmlns:xlink="http://www.w3.org/1999/xlink"
   xmlns:sodipodi="http://sodipodi.sourceforge.net/DTD/sodipodi-0.dtd"
   xmlns:inkscape="http://www.inkscape.org/namespaces/inkscape"
   width="1351.74"
   height="1351.7388"
   id="svg2"
   version="1.1"
   inkscape:version="0.48.3.1 r9886"
   sodipodi:docname="r.svg">
  <defs
     id="defs4">
    <linearGradient
       id="linearGradient3265-7"
       inkscape:collect="always">
      <stop
         id="stop3267-6"
         offset="0"
         style="stop-color:#a0692f;stop-opacity:1;" />
      <stop
         id="stop3269-0"
         offset="1"
         style="stop-color:#a0692f;stop-opacity:0;" />
    </linearGradient>
    <linearGradient
       inkscape:collect="always"
       xlink:href="#linearGradient3265-7"
       id="linearGradient4849"
       gradientUnits="userSpaceOnUse"
       gradientTransform="matrix(1.9601035,0,0,1.9601035,-1268.7026,1291.2843)"
       x1="1128.5424"
       y1="-358.21252"
       x2="1128.5"
       y2="-350.88782" />
    <linearGradient
       inkscape:collect="always"
       xlink:href="#linearGradient3265-7"
       id="linearGradient4855"
       gradientUnits="userSpaceOnUse"
       gradientTransform="matrix(-1.9601035,0,0,1.9601035,3084.4205,1291.2843)"
       x1="1128.5424"
       y1="-358.21252"
       x2="1128.5"
       y2="-350.88782" />
    <linearGradient
       id="linearGradient3265-7-8"
       inkscape:collect="always">
      <stop
         id="stop3267-6-3"
         offset="0"
         style="stop-color:#a0692f;stop-opacity:1;" />
      <stop
         id="stop3269-0-6"
         offset="1"
         style="stop-color:#a0692f;stop-opacity:0;" />
    </linearGradient>
    <linearGradient
       y2="-435.80673"
       x2="919.21014"
       y1="-434.2847"
       x1="987.61987"
       gradientTransform="matrix(0.64156397,0,0,0.64156397,-240.46334,1048.4872)"
       gradientUnits="userSpaceOnUse"
       id="linearGradient3738"
       xlink:href="#linearGradient4094-1"
       inkscape:collect="always" />
    <linearGradient
       id="linearGradient4094-1">
      <stop
         id="stop4096-9"
         offset="0"
         style="stop-color:#52676c;stop-opacity:1;" />
      <stop
         id="stop4098-2"
         offset="1"
         style="stop-color:#52676c;stop-opacity:0;" />
    </linearGradient>
    <linearGradient
       id="linearGradient3310"
       inkscape:collect="always">
      <stop
         id="stop3312"
         offset="0"
         style="stop-color:#0b2228;stop-opacity:1;" />
      <stop
         id="stop3314"
         offset="1"
         style="stop-color:#0b2228;stop-opacity:0;" />
    </linearGradient>
    <linearGradient
       id="linearGradient4122-9"
       inkscape:collect="always">
      <stop
         id="stop4124-7"
         offset="0"
         style="stop-color:#1c2224;stop-opacity:1;" />
      <stop
         id="stop4126-6"
         offset="1"
         style="stop-color:#1c2224;stop-opacity:0" />
    </linearGradient>
    <linearGradient
       inkscape:collect="always"
       xlink:href="#linearGradient3310"
       id="linearGradient6795"
       gradientUnits="userSpaceOnUse"
       x1="1748.3407"
       y1="-227.81718"
       x2="1759.3722"
       y2="-149.25218" />
    <linearGradient
       inkscape:collect="always"
       xlink:href="#linearGradient4122-9"
       id="linearGradient6814"
       gradientUnits="userSpaceOnUse"
       gradientTransform="matrix(0.76362355,0,0,0.76362355,-529.2141,788.2198)"
       x1="1627.4237"
       y1="-275.98389"
       x2="1568.8258"
       y2="-208.25383" />
    <linearGradient
       inkscape:collect="always"
       id="linearGradient4871">
      <stop
         style="stop-color:#241c1f;stop-opacity:0.37777778"
         offset="0"
         id="stop4873" />
      <stop
         style="stop-color:#241c1f;stop-opacity:0;"
         offset="1"
         id="stop4875" />
    </linearGradient>
    <radialGradient
       inkscape:collect="always"
       xlink:href="#linearGradient4871"
       id="radialGradient4631"
       gradientUnits="userSpaceOnUse"
       gradientTransform="matrix(1.6682146,1.6471163,-0.88417937,0.89550496,-1046.6412,-1706.4218)"
       cx="1014.4006"
       cy="-408.6366"
       fx="1014.4006"
       fy="-408.6366"
       r="120.84957" />
    <linearGradient
       y2="-341.95212"
       x2="1033.103"
       y1="-312.79977"
       x1="1033.9359"
       gradientUnits="userSpaceOnUse"
       id="linearGradient4392"
       xlink:href="#linearGradient3219"
       inkscape:collect="always" />
    <linearGradient
       y2="-341.95212"
       x2="1033.103"
       y1="-312.79977"
       x1="1033.9359"
       gradientUnits="userSpaceOnUse"
       id="linearGradient4390"
       xlink:href="#linearGradient3209"
       inkscape:collect="always" />
    <linearGradient
       inkscape:collect="always"
       id="linearGradient3219">
      <stop
         style="stop-color:#3e4837;stop-opacity:1"
         offset="0"
         id="stop3221" />
      <stop
         style="stop-color:#e5ffd5;stop-opacity:0;"
         offset="1"
         id="stop3223" />
    </linearGradient>
    <linearGradient
       id="linearGradient3209"
       inkscape:collect="always">
      <stop
         id="stop3211"
         offset="0"
         style="stop-color:#3e4837;stop-opacity:1" />
      <stop
         id="stop3213"
         offset="1"
         style="stop-color:#e5ffd5;stop-opacity:0;" />
    </linearGradient>
    <linearGradient
       y2="-299.90375"
       x2="1731.0365"
       y1="-347.02103"
       x1="1621.358"
       gradientTransform="matrix(1.3519879,0,0,1.3519879,-2458.2999,1401.0995)"
       gradientUnits="userSpaceOnUse"
       id="linearGradient4525"
       xlink:href="#linearGradient4136"
       inkscape:collect="always" />
    <linearGradient
       id="linearGradient4136"
       inkscape:collect="always">
      <stop
         id="stop4138"
         offset="0"
         style="stop-color:#000000;stop-opacity:1" />
      <stop
         id="stop4140"
         offset="1"
         style="stop-color:#2b1100;stop-opacity:0;" />
    </linearGradient>
    <linearGradient
       id="linearGradient3449"
       inkscape:collect="always">
      <stop
         id="stop3451"
         offset="0"
         style="stop-color:#000000;stop-opacity:1;" />
      <stop
         id="stop3453"
         offset="1"
         style="stop-color:#000000;stop-opacity:0;" />
    </linearGradient>
    <linearGradient
       id="linearGradient4233"
       inkscape:collect="always">
      <stop
         id="stop4235"
         offset="0"
         style="stop-color:#000000;stop-opacity:1;" />
      <stop
         id="stop4237"
         offset="1"
         style="stop-color:#000000;stop-opacity:0;" />
    </linearGradient>
    <linearGradient
       id="linearGradient4283"
       inkscape:collect="always">
      <stop
         id="stop4285"
         offset="0"
         style="stop-color:#2b1100;stop-opacity:1;" />
      <stop
         id="stop4287"
         offset="1"
         style="stop-color:#2b1100;stop-opacity:0;" />
    </linearGradient>
    <linearGradient
       inkscape:collect="always"
       xlink:href="#linearGradient4283"
       id="linearGradient6031"
       gradientUnits="userSpaceOnUse"
       gradientTransform="translate(-2538.9898,1459.867)"
       x1="503.56857"
       y1="-348.85837"
       x2="512.40308"
       y2="-335.29108" />
    <linearGradient
       inkscape:collect="always"
       xlink:href="#linearGradient3449"
       id="linearGradient6033"
       gradientUnits="userSpaceOnUse"
       gradientTransform="translate(-2538.9898,1459.867)"
       x1="535.43597"
       y1="-304.05469"
       x2="522.1842"
       y2="-302.79257" />
    <linearGradient
       inkscape:collect="always"
       xlink:href="#linearGradient4233"
       id="linearGradient6035"
       gradientUnits="userSpaceOnUse"
       gradientTransform="translate(-2538.9898,1459.867)"
       x1="492.84091"
       y1="-285.43903"
       x2="581.34399"
       y2="-291.27615" />
    <linearGradient
       id="linearGradient4817"
       inkscape:collect="always">
      <stop
         id="stop4819"
         offset="0"
         style="stop-color:#917c6f;stop-opacity:1;" />
      <stop
         id="stop4821"
         offset="1"
         style="stop-color:#2b1100;stop-opacity:1" />
    </linearGradient>
    <linearGradient
       inkscape:collect="always"
       id="linearGradient5172">
      <stop
         style="stop-color:#502d16;stop-opacity:1;"
         offset="0"
         id="stop5174" />
      <stop
         style="stop-color:#917c6f;stop-opacity:1"
         offset="1"
         id="stop5176" />
    </linearGradient>
    <linearGradient
       id="linearGradient5181">
      <stop
         id="stop5183"
         offset="0"
         style="stop-color:#907b6e;stop-opacity:1" />
      <stop
         style="stop-color:#7a6356;stop-opacity:1;"
         offset="0.75249761"
         id="stop5191" />
      <stop
         style="stop-color:#644c3e;stop-opacity:1;"
         offset="0.812451"
         id="stop5189" />
      <stop
         id="stop5185"
         offset="1"
         style="stop-color:#381e0e;stop-opacity:1" />
    </linearGradient>
    <linearGradient
       inkscape:collect="always"
       id="linearGradient5193">
      <stop
         style="stop-color:#826c5f;stop-opacity:1"
         offset="0"
         id="stop5195" />
      <stop
         style="stop-color:#502d16;stop-opacity:1"
         offset="1"
         id="stop5197" />
    </linearGradient>
    <linearGradient
       inkscape:collect="always"
       xlink:href="#linearGradient4817"
       id="linearGradient5870"
       gradientUnits="userSpaceOnUse"
       gradientTransform="matrix(0.89679722,0,0,0.89679722,-2045.7805,1424)"
       x1="660.06604"
       y1="-501.25412"
       x2="616.52441"
       y2="-327.7186" />
    <linearGradient
       inkscape:collect="always"
       xlink:href="#linearGradient5181"
       id="linearGradient5872"
       gradientUnits="userSpaceOnUse"
       gradientTransform="translate(-1159.9752,1449.158)"
       x1="-276.65112"
       y1="-462.97198"
       x2="-282.89807"
       y2="-279.57907" />
    <linearGradient
       inkscape:collect="always"
       xlink:href="#linearGradient5172"
       id="linearGradient5874"
       gradientUnits="userSpaceOnUse"
       gradientTransform="matrix(0.89679722,0,0,0.89679722,-2045.7805,1424)"
       x1="533.96741"
       y1="-432.47049"
       x2="555.86011"
       y2="-240.41187" />
    <linearGradient
       inkscape:collect="always"
       xlink:href="#linearGradient4817"
       id="linearGradient5876"
       gradientUnits="userSpaceOnUse"
       gradientTransform="matrix(0.82173933,0,0,0.82173933,-2014.5348,1366.3891)"
       x1="626.62103"
       y1="-258.30438"
       x2="602.01056"
       y2="-402.81216" />
    <linearGradient
       inkscape:collect="always"
       xlink:href="#linearGradient5193"
       id="linearGradient5878"
       gradientUnits="userSpaceOnUse"
       gradientTransform="matrix(0.89679722,0,0,0.89679722,-2020.1702,1428.0016)"
       x1="564.45752"
       y1="-396.48645"
       x2="567.13477"
       y2="-318.39944" />
    <linearGradient
       id="linearGradient3338"
       inkscape:collect="always">
      <stop
         id="stop3340"
         offset="0"
         style="stop-color:#beb7c8;stop-opacity:1;" />
      <stop
         id="stop3342"
         offset="1"
         style="stop-color:#5d536c;stop-opacity:1" />
    </linearGradient>
    <linearGradient
       inkscape:collect="always"
       id="linearGradient3360">
      <stop
         style="stop-color:#474052;stop-opacity:1"
         offset="0"
         id="stop3362" />
      <stop
         style="stop-color:#5d536c;stop-opacity:1"
         offset="1"
         id="stop3364" />
    </linearGradient>
    <linearGradient
       inkscape:collect="always"
       id="linearGradient3380">
      <stop
         style="stop-color:#857c92;stop-opacity:1"
         offset="0"
         id="stop3382" />
      <stop
         style="stop-color:#5d536c;stop-opacity:1"
         offset="1"
         id="stop3384" />
    </linearGradient>
    <linearGradient
       id="linearGradient3394"
       inkscape:collect="always">
      <stop
         id="stop3396"
         offset="0"
         style="stop-color:#675d76;stop-opacity:1" />
      <stop
         id="stop3398"
         offset="1"
         style="stop-color:#5d536c;stop-opacity:1" />
    </linearGradient>
    <linearGradient
       inkscape:collect="always"
       xlink:href="#linearGradient3394"
       id="linearGradient5534"
       gradientUnits="userSpaceOnUse"
       gradientTransform="translate(-1035.7984,1460.497)"
       x1="548.9787"
       y1="-310.0397"
       x2="511.74536"
       y2="-309.25769" />
    <linearGradient
       inkscape:collect="always"
       xlink:href="#linearGradient3380"
       id="linearGradient5539"
       gradientUnits="userSpaceOnUse"
       gradientTransform="translate(-1104.5149,1460.497)"
       x1="549.00745"
       y1="-310.31183"
       x2="511.80453"
       y2="-309.47519" />
    <radialGradient
       inkscape:collect="always"
       xlink:href="#linearGradient3338"
       id="radialGradient5551"
       gradientUnits="userSpaceOnUse"
       gradientTransform="matrix(0.51554821,-0.84568081,1.1288979,0.68820444,-643.46887,1694.073)"
       cx="423.07739"
       cy="-187.4471"
       fx="423.07739"
       fy="-187.4471"
       r="166.84651" />
    <linearGradient
       inkscape:collect="always"
       xlink:href="#linearGradient3360"
       id="linearGradient5555"
       gradientUnits="userSpaceOnUse"
       gradientTransform="translate(-1124.2237,1458.7504)"
       x1="452.13895"
       y1="-403.7587"
       x2="425.63535"
       y2="-424.26743" />
    <linearGradient
       inkscape:collect="always"
       xlink:href="#linearGradient3360"
       id="linearGradient5558"
       gradientUnits="userSpaceOnUse"
       gradientTransform="translate(-1124.2237,1458.7504)"
       x1="452.13895"
       y1="-403.7587"
       x2="425.63535"
       y2="-424.26743" />
    <linearGradient
       id="linearGradient4274">
      <stop
         id="stop4276"
         offset="0"
         style="stop-color:#241c1c;stop-opacity:1" />
      <stop
         style="stop-color:#483737;stop-opacity:1;"
         offset="0.15879123"
         id="stop4286" />
      <stop
         style="stop-color:#544141;stop-opacity:1"
         offset="0.50204235"
         id="stop4282" />
      <stop
         id="stop4284"
         offset="0.75"
         style="stop-color:#483737;stop-opacity:1;" />
      <stop
         id="stop4278"
         offset="1"
         style="stop-color:#241c1c;stop-opacity:1" />
    </linearGradient>
    <linearGradient
       id="linearGradient4300"
       inkscape:collect="always">
      <stop
         id="stop4302"
         offset="0"
         style="stop-color:#513f3f;stop-opacity:1" />
      <stop
         id="stop4304"
         offset="1"
         style="stop-color:#916f6f;stop-opacity:1" />
    </linearGradient>
    <linearGradient
       id="linearGradient4338"
       inkscape:collect="always">
      <stop
         id="stop4340"
         offset="0"
         style="stop-color:#5a4545;stop-opacity:1" />
      <stop
         id="stop4342"
         offset="1"
         style="stop-color:#6c5353;stop-opacity:1" />
    </linearGradient>
    <linearGradient
       inkscape:collect="always"
       xlink:href="#linearGradient4338"
       id="linearGradient5824"
       gradientUnits="userSpaceOnUse"
       gradientTransform="matrix(1.1870923,0,0,1.1870923,557.10763,972.51967)"
       x1="506.36237"
       y1="-254.24303"
       x2="505.8338"
       y2="-219.35794" />
    <linearGradient
       inkscape:collect="always"
       xlink:href="#linearGradient4300"
       id="linearGradient5826"
       gradientUnits="userSpaceOnUse"
       gradientTransform="matrix(0.83444929,0,0,0.83444929,695.02334,866.91126)"
       x1="521.0072"
       y1="-422.45435"
       x2="521.0072"
       y2="-338.73444" />
    <linearGradient
       inkscape:collect="always"
       xlink:href="#linearGradient4274"
       id="linearGradient5828"
       gradientUnits="userSpaceOnUse"
       gradientTransform="matrix(0.83444929,0,0,0.83444929,741.18088,866.91126)"
       x1="536.79242"
       y1="-366.81332"
       x2="556.42566"
       y2="-324.86945" />
    <linearGradient
       y2="-301.63974"
       x2="535.34979"
       y1="-301.92004"
       x1="538.38654"
       gradientTransform="translate(-25.414983,34.384977)"
       gradientUnits="userSpaceOnUse"
       id="linearGradient5544"
       xlink:href="#linearGradient3146"
       inkscape:collect="always" />
    <filter
       height="1.0499389"
       y="-0.024969444"
       width="1.3299154"
       x="-0.16495769"
       id="filter3938"
       inkscape:collect="always"
       color-interpolation-filters="sRGB">
      <feGaussianBlur
         id="feGaussianBlur3940"
         stdDeviation="0.60368467"
         inkscape:collect="always" />
    </filter>
    <linearGradient
       id="linearGradient3146"
       inkscape:collect="always">
      <stop
         id="stop3148"
         offset="0"
         style="stop-color:#1c1c24;stop-opacity:1;" />
      <stop
         id="stop3150"
         offset="1"
         style="stop-color:#1c1c24;stop-opacity:0;" />
    </linearGradient>
    <linearGradient
       y2="-254.24301"
       x2="132.40479"
       y1="-254.24301"
       x1="159.62572"
       gradientTransform="translate(-47.042016,6.3427437)"
       gradientUnits="userSpaceOnUse"
       id="linearGradient4078"
       xlink:href="#linearGradient3139"
       inkscape:collect="always" />
    <linearGradient
       y2="-408.62561"
       x2="159.96489"
       y1="-417.59561"
       x1="192.85487"
       gradientTransform="translate(-63.427437,6.3427437)"
       gradientUnits="userSpaceOnUse"
       id="linearGradient4076"
       xlink:href="#linearGradient3117"
       inkscape:collect="always" />
    <linearGradient
       y2="-408.62561"
       x2="159.96489"
       y1="-417.59561"
       x1="192.85487"
       gradientTransform="matrix(1.6191115,1.2420631,-1.2420631,1.6191115,-653.89128,220.57021)"
       gradientUnits="userSpaceOnUse"
       id="linearGradient4074"
       xlink:href="#linearGradient3117"
       inkscape:collect="always" />
    <filter
       height="1.1221315"
       y="-0.061065737"
       width="1.2091677"
       x="-0.10458386"
       id="filter3915"
       inkscape:collect="always"
       color-interpolation-filters="sRGB">
      <feGaussianBlur
         id="feGaussianBlur3917"
         stdDeviation="2.0038655"
         inkscape:collect="always" />
    </filter>
    <linearGradient
       id="linearGradient3117"
       inkscape:collect="always">
      <stop
         id="stop3119"
         offset="0"
         style="stop-color:#aa4400;stop-opacity:1;" />
      <stop
         id="stop3121"
         offset="1"
         style="stop-color:#783000;stop-opacity:1" />
    </linearGradient>
    <linearGradient
       id="linearGradient3139"
       inkscape:collect="always">
      <stop
         id="stop3141"
         offset="0"
         style="stop-color:#2b1100;stop-opacity:1;" />
      <stop
         id="stop3143"
         offset="1"
         style="stop-color:#2b1100;stop-opacity:0;" />
    </linearGradient>
    <filter
       height="1.4686061"
       y="-0.23430306"
       width="1.4207194"
       x="-0.21035969"
       id="filter3967"
       inkscape:collect="always"
       color-interpolation-filters="sRGB">
      <feGaussianBlur
         id="feGaussianBlur3969"
         stdDeviation="5.8948044"
         inkscape:collect="always" />
    </filter>
    <linearGradient
       id="linearGradient3911"
       inkscape:collect="always">
      <stop
         id="stop3913"
         offset="0"
         style="stop-color:#241c1c;stop-opacity:1" />
      <stop
         id="stop3915"
         offset="1"
         style="stop-color:#784421;stop-opacity:0;" />
    </linearGradient>
    <linearGradient
       id="linearGradient3971"
       inkscape:collect="always">
      <stop
         id="stop3973"
         offset="0"
         style="stop-color:#917c6f;stop-opacity:1;" />
      <stop
         id="stop3975"
         offset="1"
         style="stop-color:#28170b;stop-opacity:1" />
    </linearGradient>
    <linearGradient
       inkscape:collect="always"
       xlink:href="#linearGradient3911"
       id="linearGradient3762"
       gradientUnits="userSpaceOnUse"
       gradientTransform="translate(0,-16.661873)"
       x1="519.29504"
       y1="-260.8017"
       x2="508.18713"
       y2="-300.37363" />
    <linearGradient
       inkscape:collect="always"
       xlink:href="#linearGradient3971"
       id="linearGradient3786"
       gradientUnits="userSpaceOnUse"
       gradientTransform="matrix(0.9140942,0,0,0.9140942,290.747,786.33643)"
       x1="441.53964"
       y1="-273.2981"
       x2="511.65836"
       y2="-286.14163" />
    <linearGradient
       id="linearGradient3578"
       inkscape:collect="always">
      <stop
         id="stop3580"
         offset="0"
         style="stop-color:#1f1c24;stop-opacity:1;" />
      <stop
         id="stop3582"
         offset="1"
         style="stop-color:#1f1c24;stop-opacity:0;" />
    </linearGradient>
    <linearGradient
       id="linearGradient3604"
       inkscape:collect="always">
      <stop
         id="stop3606"
         offset="0"
         style="stop-color:#211e26;stop-opacity:1;" />
      <stop
         id="stop3608"
         offset="1"
         style="stop-color:#211e26;stop-opacity:0;" />
    </linearGradient>
    <linearGradient
       inkscape:collect="always"
       xlink:href="#linearGradient3578"
       id="linearGradient3958"
       gradientUnits="userSpaceOnUse"
       gradientTransform="matrix(1.1100531,0,0,1.1100531,2863.0486,903.46763)"
       x1="-1887.6512"
       y1="-315.29987"
       x2="-1887.4778"
       y2="-254.37988" />
    <linearGradient
       inkscape:collect="always"
       xlink:href="#linearGradient3604"
       id="linearGradient3967"
       gradientUnits="userSpaceOnUse"
       gradientTransform="matrix(1.1100531,0,0,1.1100531,2931.5428,903.46763)"
       x1="-1801.6218"
       y1="-327.32669"
       x2="-1798.4309"
       y2="-249.51823" />
    <linearGradient
       inkscape:collect="always"
       xlink:href="#linearGradient3265-7-8"
       id="linearGradient6694"
       gradientUnits="userSpaceOnUse"
       gradientTransform="matrix(-1.9601035,0,0,1.9601035,3084.4205,1291.2843)"
       x1="1128.5424"
       y1="-358.21252"
       x2="1128.5"
       y2="-350.88782" />
    <linearGradient
       inkscape:collect="always"
       xlink:href="#linearGradient3265-7-8"
       id="linearGradient6696"
       gradientUnits="userSpaceOnUse"
       gradientTransform="matrix(1.9601035,0,0,1.9601035,-1268.7026,1291.2843)"
       x1="1128.5424"
       y1="-358.21252"
       x2="1128.5"
       y2="-350.88782" />
    <linearGradient
       inkscape:collect="always"
       xlink:href="#linearGradient3265-7-8"
       id="linearGradient9421"
       gradientUnits="userSpaceOnUse"
       gradientTransform="matrix(-1.9601035,0,0,1.9601035,3084.4205,1291.2843)"
       x1="1128.5424"
       y1="-358.21252"
       x2="1128.5"
       y2="-350.88782" />
    <linearGradient
       inkscape:collect="always"
       xlink:href="#linearGradient3265-7-8"
       id="linearGradient9423"
       gradientUnits="userSpaceOnUse"
       gradientTransform="matrix(1.9601035,0,0,1.9601035,-1268.7026,1291.2843)"
       x1="1128.5424"
       y1="-358.21252"
       x2="1128.5"
       y2="-350.88782" />
    <linearGradient
       inkscape:collect="always"
       xlink:href="#linearGradient4094-1"
       id="linearGradient9425"
       gradientUnits="userSpaceOnUse"
       gradientTransform="matrix(0.64156397,0,0,0.64156397,-240.46334,1048.4872)"
       x1="987.61987"
       y1="-434.2847"
       x2="919.21014"
       y2="-435.80673" />
    <linearGradient
       inkscape:collect="always"
       xlink:href="#linearGradient4122-9"
       id="linearGradient9427"
       gradientUnits="userSpaceOnUse"
       gradientTransform="matrix(0.76362355,0,0,0.76362355,-529.2141,788.2198)"
       x1="1627.4237"
       y1="-275.98389"
       x2="1568.8258"
       y2="-208.25383" />
    <linearGradient
       inkscape:collect="always"
       xlink:href="#linearGradient3310"
       id="linearGradient9429"
       gradientUnits="userSpaceOnUse"
       x1="1748.3407"
       y1="-227.81718"
       x2="1759.3722"
       y2="-149.25218" />
    <radialGradient
       inkscape:collect="always"
       xlink:href="#linearGradient4871"
       id="radialGradient9431"
       gradientUnits="userSpaceOnUse"
       gradientTransform="matrix(1.6682146,1.6471163,-0.88417937,0.89550496,-1046.6412,-1706.4218)"
       cx="1014.4006"
       cy="-408.6366"
       fx="1014.4006"
       fy="-408.6366"
       r="120.84957" />
    <linearGradient
       inkscape:collect="always"
       xlink:href="#linearGradient3209"
       id="linearGradient9433"
       gradientUnits="userSpaceOnUse"
       x1="1033.9359"
       y1="-312.79977"
       x2="1033.103"
       y2="-341.95212" />
    <linearGradient
       inkscape:collect="always"
       xlink:href="#linearGradient3219"
       id="linearGradient9435"
       gradientUnits="userSpaceOnUse"
       x1="1033.9359"
       y1="-312.79977"
       x2="1033.103"
       y2="-341.95212" />
    <linearGradient
       inkscape:collect="always"
       xlink:href="#linearGradient4136"
       id="linearGradient9437"
       gradientUnits="userSpaceOnUse"
       gradientTransform="matrix(1.3519879,0,0,1.3519879,-2458.2999,1401.0995)"
       x1="1621.358"
       y1="-347.02103"
       x2="1731.0365"
       y2="-299.90375" />
    <linearGradient
       inkscape:collect="always"
       xlink:href="#linearGradient4283"
       id="linearGradient9439"
       gradientUnits="userSpaceOnUse"
       gradientTransform="translate(-2538.9898,1459.867)"
       x1="503.56857"
       y1="-348.85837"
       x2="512.40308"
       y2="-335.29108" />
    <linearGradient
       inkscape:collect="always"
       xlink:href="#linearGradient3449"
       id="linearGradient9441"
       gradientUnits="userSpaceOnUse"
       gradientTransform="translate(-2538.9898,1459.867)"
       x1="535.43597"
       y1="-304.05469"
       x2="522.1842"
       y2="-302.79257" />
    <linearGradient
       inkscape:collect="always"
       xlink:href="#linearGradient4233"
       id="linearGradient9443"
       gradientUnits="userSpaceOnUse"
       gradientTransform="translate(-2538.9898,1459.867)"
       x1="492.84091"
       y1="-285.43903"
       x2="581.34399"
       y2="-291.27615" />
    <linearGradient
       inkscape:collect="always"
       xlink:href="#linearGradient4817"
       id="linearGradient9445"
       gradientUnits="userSpaceOnUse"
       gradientTransform="matrix(0.89679722,0,0,0.89679722,-2045.7805,1424)"
       x1="660.06604"
       y1="-501.25412"
       x2="616.52441"
       y2="-327.7186" />
    <linearGradient
       inkscape:collect="always"
       xlink:href="#linearGradient5181"
       id="linearGradient9447"
       gradientUnits="userSpaceOnUse"
       gradientTransform="translate(-1159.9752,1449.158)"
       x1="-276.65112"
       y1="-462.97198"
       x2="-282.89807"
       y2="-279.57907" />
    <linearGradient
       inkscape:collect="always"
       xlink:href="#linearGradient5172"
       id="linearGradient9449"
       gradientUnits="userSpaceOnUse"
       gradientTransform="matrix(0.89679722,0,0,0.89679722,-2045.7805,1424)"
       x1="533.96741"
       y1="-432.47049"
       x2="555.86011"
       y2="-240.41187" />
    <linearGradient
       inkscape:collect="always"
       xlink:href="#linearGradient4817"
       id="linearGradient9451"
       gradientUnits="userSpaceOnUse"
       gradientTransform="matrix(0.82173933,0,0,0.82173933,-2014.5348,1366.3891)"
       x1="626.62103"
       y1="-258.30438"
       x2="602.01056"
       y2="-402.81216" />
    <linearGradient
       inkscape:collect="always"
       xlink:href="#linearGradient5193"
       id="linearGradient9453"
       gradientUnits="userSpaceOnUse"
       gradientTransform="matrix(0.89679722,0,0,0.89679722,-2020.1702,1428.0016)"
       x1="564.45752"
       y1="-396.48645"
       x2="567.13477"
       y2="-318.39944" />
    <linearGradient
       inkscape:collect="always"
       xlink:href="#linearGradient3360"
       id="linearGradient9455"
       gradientUnits="userSpaceOnUse"
       gradientTransform="translate(-1124.2237,1458.7504)"
       x1="452.13895"
       y1="-403.7587"
       x2="425.63535"
       y2="-424.26743" />
    <linearGradient
       inkscape:collect="always"
       xlink:href="#linearGradient3360"
       id="linearGradient9457"
       gradientUnits="userSpaceOnUse"
       gradientTransform="translate(-1124.2237,1458.7504)"
       x1="452.13895"
       y1="-403.7587"
       x2="425.63535"
       y2="-424.26743" />
    <radialGradient
       inkscape:collect="always"
       xlink:href="#linearGradient3338"
       id="radialGradient9459"
       gradientUnits="userSpaceOnUse"
       gradientTransform="matrix(0.51554821,-0.84568081,1.1288979,0.68820444,-643.46887,1694.073)"
       cx="423.07739"
       cy="-187.4471"
       fx="423.07739"
       fy="-187.4471"
       r="166.84651" />
    <linearGradient
       inkscape:collect="always"
       xlink:href="#linearGradient3380"
       id="linearGradient9461"
       gradientUnits="userSpaceOnUse"
       gradientTransform="translate(-1104.5149,1460.497)"
       x1="549.00745"
       y1="-310.31183"
       x2="511.80453"
       y2="-309.47519" />
    <linearGradient
       inkscape:collect="always"
       xlink:href="#linearGradient3394"
       id="linearGradient9463"
       gradientUnits="userSpaceOnUse"
       gradientTransform="translate(-1035.7984,1460.497)"
       x1="548.9787"
       y1="-310.0397"
       x2="511.74536"
       y2="-309.25769" />
    <linearGradient
       inkscape:collect="always"
       xlink:href="#linearGradient4338"
       id="linearGradient9465"
       gradientUnits="userSpaceOnUse"
       gradientTransform="matrix(1.1870923,0,0,1.1870923,557.10763,972.51967)"
       x1="506.36237"
       y1="-254.24303"
       x2="505.8338"
       y2="-219.35794" />
    <linearGradient
       inkscape:collect="always"
       xlink:href="#linearGradient4300"
       id="linearGradient9467"
       gradientUnits="userSpaceOnUse"
       gradientTransform="matrix(0.83444929,0,0,0.83444929,695.02334,866.91126)"
       x1="521.0072"
       y1="-422.45435"
       x2="521.0072"
       y2="-338.73444" />
    <linearGradient
       inkscape:collect="always"
       xlink:href="#linearGradient4274"
       id="linearGradient9469"
       gradientUnits="userSpaceOnUse"
       gradientTransform="matrix(0.83444929,0,0,0.83444929,741.18088,866.91126)"
       x1="536.79242"
       y1="-366.81332"
       x2="556.42566"
       y2="-324.86945" />
    <linearGradient
       inkscape:collect="always"
       xlink:href="#linearGradient3146"
       id="linearGradient9471"
       gradientUnits="userSpaceOnUse"
       gradientTransform="translate(-25.414983,34.384977)"
       x1="538.38654"
       y1="-301.92004"
       x2="535.34979"
       y2="-301.63974" />
    <linearGradient
       inkscape:collect="always"
       xlink:href="#linearGradient3117"
       id="linearGradient9473"
       gradientUnits="userSpaceOnUse"
       gradientTransform="matrix(1.6191115,1.2420631,-1.2420631,1.6191115,-653.89128,220.57021)"
       x1="192.85487"
       y1="-417.59561"
       x2="159.96489"
       y2="-408.62561" />
    <linearGradient
       inkscape:collect="always"
       xlink:href="#linearGradient3117"
       id="linearGradient9475"
       gradientUnits="userSpaceOnUse"
       gradientTransform="translate(-63.427437,6.3427437)"
       x1="192.85487"
       y1="-417.59561"
       x2="159.96489"
       y2="-408.62561" />
    <linearGradient
       inkscape:collect="always"
       xlink:href="#linearGradient3139"
       id="linearGradient9477"
       gradientUnits="userSpaceOnUse"
       gradientTransform="translate(-47.042016,6.3427437)"
       x1="159.62572"
       y1="-254.24301"
       x2="132.40479"
       y2="-254.24301" />
    <linearGradient
       inkscape:collect="always"
       xlink:href="#linearGradient3971"
       id="linearGradient9479"
       gradientUnits="userSpaceOnUse"
       gradientTransform="matrix(0.9140942,0,0,0.9140942,290.747,786.33643)"
       x1="441.53964"
       y1="-273.2981"
       x2="511.65836"
       y2="-286.14163" />
    <linearGradient
       inkscape:collect="always"
       xlink:href="#linearGradient3911"
       id="linearGradient9481"
       gradientUnits="userSpaceOnUse"
       gradientTransform="translate(0,-16.661873)"
       x1="519.29504"
       y1="-260.8017"
       x2="508.18713"
       y2="-300.37363" />
    <linearGradient
       inkscape:collect="always"
       xlink:href="#linearGradient3604"
       id="linearGradient9483"
       gradientUnits="userSpaceOnUse"
       gradientTransform="matrix(1.1100531,0,0,1.1100531,2931.5428,903.46763)"
       x1="-1801.6218"
       y1="-327.32669"
       x2="-1798.4309"
       y2="-249.51823" />
    <linearGradient
       inkscape:collect="always"
       xlink:href="#linearGradient3578"
       id="linearGradient9485"
       gradientUnits="userSpaceOnUse"
       gradientTransform="matrix(1.1100531,0,0,1.1100531,2863.0486,903.46763)"
       x1="-1887.6512"
       y1="-315.29987"
       x2="-1887.4778"
       y2="-254.37988" />
    <linearGradient
       inkscape:collect="always"
       xlink:href="#linearGradient3604"
       id="linearGradient10598"
       gradientUnits="userSpaceOnUse"
       gradientTransform="matrix(1.1100531,0,0,1.1100531,2931.5428,903.46763)"
       x1="-1801.6218"
       y1="-327.32669"
       x2="-1798.4309"
       y2="-249.51823" />
    <linearGradient
       inkscape:collect="always"
       xlink:href="#linearGradient3578"
       id="linearGradient10600"
       gradientUnits="userSpaceOnUse"
       gradientTransform="matrix(1.1100531,0,0,1.1100531,2863.0486,903.46763)"
       x1="-1887.6512"
       y1="-315.29987"
       x2="-1887.4778"
       y2="-254.37988" />
    <linearGradient
       inkscape:collect="always"
       xlink:href="#linearGradient3971"
       id="linearGradient10602"
       gradientUnits="userSpaceOnUse"
       gradientTransform="matrix(0.9140942,0,0,0.9140942,290.747,786.33643)"
       x1="441.53964"
       y1="-273.2981"
       x2="511.65836"
       y2="-286.14163" />
    <linearGradient
       inkscape:collect="always"
       xlink:href="#linearGradient3911"
       id="linearGradient10604"
       gradientUnits="userSpaceOnUse"
       gradientTransform="translate(0,-16.661873)"
       x1="519.29504"
       y1="-260.8017"
       x2="508.18713"
       y2="-300.37363" />
    <linearGradient
       inkscape:collect="always"
       xlink:href="#linearGradient3117"
       id="linearGradient10606"
       gradientUnits="userSpaceOnUse"
       gradientTransform="matrix(1.6191115,1.2420631,-1.2420631,1.6191115,-653.89128,220.57021)"
       x1="192.85487"
       y1="-417.59561"
       x2="159.96489"
       y2="-408.62561" />
    <linearGradient
       inkscape:collect="always"
       xlink:href="#linearGradient3117"
       id="linearGradient10608"
       gradientUnits="userSpaceOnUse"
       gradientTransform="translate(-63.427437,6.3427437)"
       x1="192.85487"
       y1="-417.59561"
       x2="159.96489"
       y2="-408.62561" />
    <linearGradient
       inkscape:collect="always"
       xlink:href="#linearGradient3139"
       id="linearGradient10610"
       gradientUnits="userSpaceOnUse"
       gradientTransform="translate(-47.042016,6.3427437)"
       x1="159.62572"
       y1="-254.24301"
       x2="132.40479"
       y2="-254.24301" />
    <linearGradient
       inkscape:collect="always"
       xlink:href="#linearGradient3146"
       id="linearGradient10612"
       gradientUnits="userSpaceOnUse"
       gradientTransform="translate(-25.414983,34.384977)"
       x1="538.38654"
       y1="-301.92004"
       x2="535.34979"
       y2="-301.63974" />
  </defs>
  <sodipodi:namedview
     id="base"
     pagecolor="#ffffff"
     bordercolor="#666666"
     borderopacity="1.0"
     inkscape:pageopacity="0.0"
     inkscape:pageshadow="2"
     inkscape:zoom="0.15874582"
     inkscape:cx="2492.2985"
     inkscape:cy="780.9971"
     inkscape:document-units="px"
     inkscape:current-layer="layer1"
     showgrid="false"
     fit-margin-top="0"
     fit-margin-left="0"
     fit-margin-right="0"
     fit-margin-bottom="0"
     inkscape:window-width="1920"
     inkscape:window-height="1017"
     inkscape:window-x="0"
     inkscape:window-y="28"
     inkscape:window-maximized="1"
     showguides="true"
     inkscape:guide-bbox="true"
     inkscape:snap-grids="false"
     inkscape:snap-to-guides="false">
    <sodipodi:guide
       orientation="0,1"
       position="371.87981,1115.6394"
       id="guide6622" />
    <sodipodi:guide
       orientation="0,1"
       position="73.848474,189.89608"
       id="guide6624" />
    <sodipodi:guide
       orientation="1,0"
       position="363.96748,1521.806"
       id="guide6626" />
    <sodipodi:guide
       orientation="1,0"
       position="862.44468,1442.6827"
       id="guide6628" />
  </sodipodi:namedview>
  <metadata
     id="metadata7">
    <rdf:RDF>
      <cc:Work
         rdf:about="">
        <dc:format>image/svg+xml</dc:format>
        <dc:type
           rdf:resource="http://purl.org/dc/dcmitype/StillImage" />
        <dc:title></dc:title>
      </cc:Work>
    </rdf:RDF>
  </metadata>
  <g
     inkscape:label="Capa 1"
     inkscape:groupmode="layer"
     id="layer1"
     transform="translate(15278.44,186.36436)">
    <rect
       style="opacity:0.8;fill:#000000;fill-opacity:1;stroke:none"
       id="rect6564"
       width="23217.738"
       height="1351.7388"
       x="-15278.44"
       y="-186.36436" />
    <g
       id="g7715">
      <g
         transform="translate(-12046.465,16.547035)"
         id="g7925">
        <g
           style="font-size:204.73330688px;font-style:normal;font-variant:normal;font-weight:normal;font-stretch:normal;line-height:125%;letter-spacing:0px;word-spacing:0px;fill:#ffffff;fill-opacity:1;stroke:none;font-family:Short Stack;-inkscape-font-specification:Short Stack"
           id="text3044-8">
          <path
             inkscape:connector-curvature="0"
             d="m -2728.3861,536.51392 c -10e-5,-1.06629 0.3665,-2.49916 1.0996,-4.2986 0.7331,-1.86603 1.6661,-3.53215 2.7991,-4.99837 1.1329,-1.46616 2.3659,-2.43251 3.6988,-2.89905 1.3995,-0.46648 2.7324,0.13332 3.9987,1.79941 2.1992,3.99873 4.1986,7.13104 5.998,9.39694 1.8661,2.26595 3.7988,3.96539 5.7981,5.09834 1.9993,1.06633 4.1986,1.73278 6.5979,1.99935 2.4658,0.26659 5.3982,0.39988 8.7971,0.39987 4.132,10e-6 8.3639,-0.69976 12.6959,-2.09932 4.3318,-1.39953 8.2639,-3.16561 11.7962,-5.29827 3.5987,-2.13262 6.5311,-4.46519 8.7971,-6.99772 2.2658,-2.53248 3.3988,-4.89837 3.3989,-7.09769 -1e-4,-1.59944 -0.6999,-3.19892 -2.0993,-4.79844 -1.3997,-1.59944 -3.3324,-3.13227 -5.7981,-4.5985 -2.3994,-1.46614 -5.2318,-2.83236 -8.4973,-4.09867 -3.2657,-1.2662 -6.7312,-2.33252 -10.3966,-3.19895 -4.1987,-0.59975 -8.4973,-1.2662 -12.8958,-1.99935 -4.3986,-0.79969 -8.6972,-1.73271 -12.8958,-2.79909 -4.1987,-1.13291 -8.1307,-2.53245 -11.7962,-4.19863 -3.6655,-1.66606 -6.8977,-3.69873 -9.6968,-6.09802 -2.7991,-2.39914 -4.9984,-5.23155 -6.5978,-8.49723 -1.5995,-3.33217 -2.3993,-7.26421 -2.3993,-11.79616 0,-5.19821 0.7998,-10.02996 2.3993,-14.49527 1.5994,-4.46511 3.7654,-8.53045 6.4978,-12.19603 2.7991,-3.66535 6.0647,-6.89763 9.7968,-9.69684 3.7321,-2.86561 7.7308,-5.26482 11.9961,-7.19766 4.3319,-1.93257 8.7971,-3.39875 13.3957,-4.39856 4.6651,-0.99954 9.2969,-1.49938 13.8955,-1.49952 4.7983,1.4e-4 9.1302,0.66659 12.9957,1.99935 3.932,1.33304 7.2642,3.13245 9.9968,5.39824 2.7323,2.26606 4.8316,4.86521 6.2979,7.79746 1.5327,2.86586 2.2992,5.86488 2.2993,8.99707 -10e-5,1.66624 -0.034,3.56562 -0.1,5.69815 -0.067,2.13274 -0.3667,4.16541 -0.8997,6.09801 -0.5333,1.86616 -1.3663,3.46564 -2.4992,4.79844 -1.1331,1.33299 -2.7992,1.99944 -4.9984,1.99935 -1.333,9e-5 -2.366,-0.26649 -3.099,-0.79974 -0.7331,-0.53307 -1.2663,-1.19952 -1.5994,-1.99935 -0.3334,-0.79964 -0.5333,-1.66603 -0.5998,-2.59916 -0.067,-0.93292 -0.1001,-1.79931 -0.1,-2.59915 -10e-5,-3.53207 -0.4666,-6.43113 -1.3996,-8.69717 -0.9331,-2.26581 -2.2993,-4.0319 -4.0986,-5.29827 -1.7329,-1.33278 -3.8988,-2.23249 -6.4979,-2.69912 -2.5326,-0.53304 -5.4316,-0.79962 -8.6972,-0.79974 -2.266,1.2e-4 -4.7318,0.39999 -7.3976,1.19961 -2.6658,0.79986 -5.3649,1.8995 -8.0973,3.29892 -2.7325,1.39966 -5.3983,3.06579 -7.9974,4.99838 -2.5326,1.86616 -4.7985,3.96548 -6.7978,6.29794 -1.9994,2.26604 -3.5989,4.69857 -4.7984,7.29763 -1.1997,2.5326 -1.7995,5.13175 -1.7995,7.79746 0,3.1324 1.0663,5.76487 3.199,7.89742 2.1992,2.06608 5.0317,3.79885 8.4972,5.19831 3.5322,1.39962 7.4975,2.56591 11.8962,3.49886 4.4651,0.9331 8.997,1.79949 13.5955,2.59915 3.7321,0.66652 7.4642,1.43294 11.1964,2.29926 3.7987,0.86645 7.3975,1.89944 10.7965,3.09899 3.3988,1.19967 6.5644,2.63254 9.4969,4.2986 2.9322,1.66618 5.4648,3.66553 7.5975,5.99804 2.1992,2.26598 3.8986,4.89846 5.0983,7.89743 1.2662,2.99907 1.8993,6.43128 1.8994,10.29665 -10e-5,4.73182 -1.0664,8.96377 -3.1989,12.69586 -2.0661,3.73214 -4.7986,7.03106 -8.1974,9.89678 -3.399,2.86574 -7.231,5.3316 -11.4962,7.39759 -4.1987,2.06599 -8.4307,3.76544 -12.6959,5.09834 -4.2653,1.26625 -8.364,2.19928 -12.296,2.79908 -3.8655,0.59981 -7.1311,0.89971 -9.7968,0.89971 -2.066,0 -4.3986,-0.1 -6.9977,-0.2999 -2.5992,-0.19994 -5.2317,-0.59981 -7.8974,-1.19961 -2.6659,-0.53316 -5.265,-1.3329 -7.7975,-2.39922 -2.5325,-1.06632 -4.7985,-2.46586 -6.7978,-4.19863 -1.9994,-1.73276 -3.5988,-3.8654 -4.7984,-6.39792 -1.1997,-2.53249 -1.7995,-5.53151 -1.7994,-8.99707"
             id="path6926" />
          <path
             inkscape:connector-curvature="0"
             d="m -2596.729,542.61194 c -1e-4,-0.86637 0.3665,-2.03266 1.0996,-3.49886 0.7331,-1.53282 1.6328,-2.89904 2.6991,-4.09867 1.133,-1.19958 2.3659,-1.966 3.6988,-2.29925 1.3329,-0.39984 2.5991,0.0667 3.7988,1.39954 2.1992,2.46589 4.1653,4.39859 5.8981,5.79812 1.7993,1.39956 3.6654,2.43255 5.5981,3.09899 1.9993,0.66646 4.1653,1.06633 6.4979,1.19961 2.3992,0.1333 5.2649,0.19994 8.5972,0.19993 3.9987,10e-6 8.064,-0.43318 12.1961,-1.29958 4.1985,-0.93301 8.0306,-1.99933 11.4962,-3.19895 3.4655,-1.26624 6.2979,-2.56581 8.4972,-3.89873 2.1992,-1.33288 3.2989,-2.3992 3.299,-3.19896 -1e-4,-1.06629 -0.6999,-2.16594 -2.0993,-3.29893 -1.333,-1.13293 -3.1658,-2.19925 -5.4983,-3.19896 -2.3326,-0.99964 -5.0651,-1.93267 -8.1973,-2.79908 -3.1324,-0.933 -6.4646,-1.69941 -9.9967,-2.29925 -4.1321,-0.53313 -8.364,-1.13293 -12.6959,-1.79942 -4.2653,-0.66641 -8.4306,-1.53279 -12.4959,-2.59915 -4.0654,-1.06628 -7.8975,-2.33253 -11.4963,-3.79876 -3.5988,-1.53279 -6.7645,-3.43217 -9.4969,-5.69815 -2.7325,-2.26587 -4.8984,-4.96499 -6.4979,-8.09736 -1.5328,-3.13225 -2.2992,-6.79772 -2.2992,-10.99642 0,-4.53178 0.7664,-8.73041 2.2992,-12.5959 1.5995,-3.86532 3.7321,-7.3975 6.3979,-10.59654 2.7325,-3.19886 5.8981,-6.03127 9.497,-8.49724 3.6654,-2.46575 7.5974,-4.53175 11.7961,-6.19798 4.1986,-1.66601 8.5638,-2.93226 13.0957,-3.79876 4.5318,-0.86627 9.0304,-1.29946 13.4957,-1.29958 4.665,1.2e-4 8.897,0.59992 12.6958,1.79942 3.8653,1.13307 7.1309,2.66591 9.7968,4.5985 2.6657,1.86616 4.7317,4.03212 6.198,6.49788 1.4661,2.46596 2.1992,5.03179 2.1993,7.6975 -1e-4,1.66621 -0.033,3.56559 -0.1,5.69814 -0.067,2.13272 -0.3666,4.16539 -0.8997,6.09801 -0.4666,1.86614 -1.2663,3.46562 -2.3992,4.79844 -1.1331,1.26633 -2.7659,1.89946 -4.8984,1.89938 -1.333,8e-5 -2.366,-0.2665 -3.099,-0.79974 -0.6665,-0.59973 -1.1664,-1.2995 -1.4995,-2.09931 -0.3333,-0.79967 -0.5333,-1.66605 -0.5998,-2.59916 -0.067,-0.99959 -0.1001,-1.8993 -0.1,-2.69912 -10e-5,-2.59907 -0.4666,-4.69838 -1.3995,-6.29795 -0.8665,-1.59939 -2.1661,-2.86564 -3.8988,-3.79876 -1.7328,-0.93293 -3.8654,-1.56606 -6.3979,-1.89938 -2.4659,-0.33313 -5.2983,-0.49974 -8.4972,-0.49984 -2.1994,1e-4 -4.5986,0.3 -7.1977,0.89971 -2.5992,0.5999 -5.2316,1.43296 -7.8974,2.49919 -2.5992,0.99976 -5.165,2.23269 -7.6975,3.69879 -2.4659,1.46628 -4.6652,3.09908 -6.5978,4.8984 -1.8661,1.73285 -3.399,3.56559 -4.5985,5.49821 -1.133,1.93278 -1.6995,3.93213 -1.6995,5.99805 0,2.59922 1.033,4.76518 3.099,6.49788 2.066,1.66619 4.7984,3.06573 8.1973,4.19864 3.3989,1.13302 7.231,2.09937 11.4963,2.89905 4.3319,0.73315 8.7304,1.43292 13.1957,2.09932 5.5315,0.86644 10.963,1.96608 16.2947,3.29892 5.3981,1.26631 10.2299,2.99907 14.4953,5.19831 4.2651,2.19933 7.6973,5.03174 10.2966,8.49723 2.5991,3.39893 3.8986,7.63088 3.8987,12.69587 -1e-4,3.59885 -1.0331,6.83112 -3.0989,9.69684 -2.0662,2.7991 -4.7653,5.29828 -8.0974,7.49755 -3.2657,2.13265 -6.9645,3.96538 -11.0964,5.49821 -4.1321,1.53284 -8.2974,2.76577 -12.4959,3.6988 -4.1321,0.99967 -8.0975,1.73276 -11.8961,2.19928 -3.7989,0.46651 -6.9978,0.69977 -9.5969,0.69977 -1.9994,0 -4.2654,-0.1 -6.7978,-0.2999 -2.5326,-0.13329 -5.1317,-0.43319 -7.7975,-0.89971 -2.5992,-0.46651 -5.1317,-1.13296 -7.5975,-1.99934 -2.4659,-0.86639 -4.6985,-1.99935 -6.6978,-3.3989 -1.9327,-1.46618 -3.4989,-3.19895 -4.6985,-5.1983 -1.133,-2.06599 -1.6995,-4.53185 -1.6994,-7.39759"
             id="path6928" />
        </g>
        <g
           style="font-size:120.21715546px;font-style:normal;font-weight:normal;line-height:125%;letter-spacing:0px;word-spacing:0px;fill:#ffffff;fill-opacity:1;stroke:none;font-family:Sans"
           id="text3048-56">
          <path
             inkscape:connector-curvature="0"
             d="m -2772.8973,666.12593 c 0,-0.62611 0.2152,-1.46748 0.6457,-2.52409 0.4304,-1.09571 0.9783,-2.07404 1.6436,-2.93499 0.6652,-0.86091 1.3892,-1.42834 2.1718,-1.70229 0.8218,-0.27391 1.6045,0.0783 2.348,1.0566 1.2914,2.348 2.4654,4.18726 3.522,5.51777 1.0957,1.33055 2.2306,2.32844 3.4046,2.99369 1.174,0.62614 2.4654,1.01748 3.8742,1.174 1.4479,0.15654 3.1698,0.23481 5.1656,0.2348 2.4262,10e-6 4.9112,-0.41089 7.4549,-1.2327 2.5436,-0.82178 4.8524,-1.85881 6.9265,-3.11109 2.1132,-1.25224 3.835,-2.6219 5.1656,-4.10898 1.3305,-1.48704 1.9957,-2.87627 1.9958,-4.16768 -10e-5,-0.93918 -0.411,-1.87837 -1.2327,-2.81759 -0.8218,-0.93918 -1.9567,-1.83924 -3.4046,-2.70019 -1.4088,-0.86091 -3.072,-1.66314 -4.9895,-2.4067 -1.9175,-0.7435 -3.9525,-1.36963 -6.1047,-1.87839 -2.4655,-0.35217 -4.9896,-0.7435 -7.5723,-1.17399 -2.5828,-0.46957 -5.1069,-1.01743 -7.5723,-1.6436 -2.4654,-0.66523 -4.7743,-1.48702 -6.9266,-2.46539 -2.1523,-0.97829 -4.0503,-2.17185 -5.6938,-3.58069 -1.6436,-1.40875 -2.935,-3.07191 -3.8742,-4.98948 -0.9392,-1.95661 -1.4088,-4.26547 -1.4088,-6.92657 0,-3.05234 0.4696,-5.88949 1.4088,-8.51147 0.9392,-2.62186 2.211,-5.00898 3.8155,-7.16137 1.6435,-2.15226 3.5611,-4.05022 5.7525,-5.69388 2.1915,-1.68265 4.5395,-3.09145 7.044,-4.22639 2.5436,-1.13478 5.1656,-1.99571 7.8658,-2.58279 2.7393,-0.58691 5.459,-0.88041 8.1593,-0.88049 2.8175,8e-5 5.3612,0.39141 7.6309,1.17399 2.3088,0.78274 4.2655,1.83934 5.87,3.16979 1.6044,1.3306 2.8371,2.8568 3.6981,4.57858 0.9,1.6828 1.35,3.44379 1.3501,5.28298 -1e-4,0.9784 -0.02,2.09369 -0.059,3.34589 -0.039,1.25233 -0.2153,2.44589 -0.5283,3.58069 -0.3131,1.09579 -0.8023,2.03498 -1.4675,2.81759 -0.6653,0.78272 -1.6437,1.17405 -2.935,1.17399 -0.7827,6e-5 -1.3893,-0.15647 -1.8197,-0.4696 -0.4305,-0.313 -0.7436,-0.70434 -0.9392,-1.17399 -0.1957,-0.46954 -0.3131,-0.97827 -0.3522,-1.5262 -0.039,-0.5478 -0.059,-1.05653 -0.059,-1.52619 0,-2.074 -0.274,-3.77629 -0.8218,-5.10688 -0.5479,-1.33046 -1.3501,-2.36749 -2.4067,-3.11109 -1.0175,-0.78259 -2.2893,-1.31089 -3.8155,-1.58489 -1.4871,-0.313 -3.1894,-0.46953 -5.1068,-0.4696 -1.3306,7e-5 -2.7785,0.23487 -4.3438,0.7044 -1.5654,0.46966 -3.1503,1.11536 -4.7547,1.93709 -1.6045,0.82186 -3.1698,1.80019 -4.696,2.93499 -1.4871,1.09579 -2.8176,2.32849 -3.9916,3.69808 -1.174,1.33059 -2.1132,2.75895 -2.8176,4.28509 -0.7044,1.48712 -1.0566,3.01331 -1.0566,4.57858 0,1.83931 0.6262,3.38507 1.8784,4.63728 1.2914,1.21318 2.9546,2.23064 4.9895,3.05239 2.074,0.82184 4.4025,1.50667 6.9853,2.0545 2.6219,0.5479 5.2829,1.05663 7.9832,1.52619 2.1914,0.39137 4.3828,0.8414 6.5743,1.35009 2.2306,0.50878 4.3438,1.11534 6.3396,1.8197 1.9957,0.70443 3.8546,1.5458 5.5765,2.52409 1.7218,0.97836 3.2089,2.15236 4.4612,3.52199 1.2913,1.33055 2.2892,2.87631 2.9937,4.63728 0.7434,1.76102 1.1152,3.77637 1.1153,6.04608 -10e-5,2.77847 -0.6262,5.26343 -1.8784,7.45487 -1.2132,2.19147 -2.8177,4.12856 -4.8134,5.81128 -1.9959,1.68273 -4.246,3.13066 -6.7505,4.34378 -2.4654,1.21313 -4.9504,2.21103 -7.4549,2.99369 -2.5045,0.74353 -4.9112,1.29139 -7.22,1.64359 -2.2698,0.3522 -4.1873,0.5283 -5.7526,0.5283 -1.2132,0 -2.5828,-0.0587 -4.109,-0.1761 -1.5262,-0.1174 -3.072,-0.3522 -4.6373,-0.7044 -1.5653,-0.31306 -3.0915,-0.78266 -4.5786,-1.40879 -1.487,-0.62613 -2.8176,-1.44793 -3.9916,-2.46539 -1.174,-1.01746 -2.1132,-2.26972 -2.8175,-3.75679 -0.7045,-1.48705 -1.0566,-3.24804 -1.0566,-5.28298"
             style="font-variant:normal;font-stretch:normal;font-family:Short Stack;-inkscape-font-specification:Short Stack"
             id="path6917" />
          <path
             inkscape:connector-curvature="0"
             d="m -2702.4576,653.91638 c 0,-3.05236 0.4305,-6.22215 1.2914,-9.50937 0.9,-3.32628 2.1719,-6.4178 3.8155,-9.27456 1.5653,-2.85668 3.4828,-5.5373 5.7526,-8.04187 2.3088,-2.50447 4.872,-4.67636 7.6896,-6.51568 2.8176,-1.87833 5.8504,-3.34582 9.0985,-4.40248 3.2871,-1.09567 6.7113,-1.64353 10.2725,-1.6436 2.7001,7e-5 5.3025,0.37183 7.807,1.1153 2.5045,0.70446 4.8525,1.68279 7.044,2.93499 2.1914,1.25232 4.1872,2.73938 5.9874,4.46118 1.8392,1.72192 3.4045,3.58074 4.696,5.57648 1.2913,1.95671 2.2892,4.0112 2.9937,6.16348 0.7043,2.15237 1.0565,4.30469 1.0566,6.45697 -1e-4,1.91757 -0.1175,3.61986 -0.3522,5.10689 -0.1958,1.44795 -0.4502,2.89588 -0.7631,4.34378 -0.2349,1.48709 -0.4697,3.03285 -0.7044,4.63728 -0.2349,1.56535 -0.3523,3.40461 -0.3522,5.51778 -1e-4,1.83928 0.1369,3.36547 0.4109,4.57859 0.2738,1.174 0.6651,2.13277 1.174,2.87628 0.5086,0.74355 1.1152,1.27184 1.8196,1.5849 0.7435,0.27394 1.5653,0.41091 2.4654,0.4109 0.2348,10e-6 0.5283,-0.0587 0.8805,-0.1761 0.3522,-0.15653 0.6848,-0.31306 0.9979,-0.4696 0.313,-0.19566 0.5869,-0.37176 0.8218,-0.5283 0.2347,-0.19565 0.3913,-0.35219 0.4696,-0.4696 0.4304,-0.43045 0.8413,-0.80222 1.2327,-1.11529 0.4304,-0.35219 0.9978,-0.52829 1.7023,-0.5283 1.4087,10e-6 2.4653,0.33264 3.1698,0.9979 0.7434,0.66527 1.1152,1.761 1.1153,3.28718 -10e-5,0.93921 -0.2936,1.91754 -0.8805,2.93499 -0.548,1.01747 -1.3306,1.95666 -2.348,2.81759 -1.0175,0.8218 -2.2307,1.50663 -3.6394,2.05449 -1.4089,0.54787 -2.9742,0.8218 -4.696,0.8218 -3.4438,0 -6.3983,-0.95876 -8.8636,-2.87629 -2.4264,-1.95665 -4.1678,-4.61771 -5.2243,-7.98317 -1.448,1.5262 -3.0329,2.9937 -4.7547,4.40249 -1.7219,1.36966 -3.6199,2.58279 -5.6939,3.63938 -2.0741,1.01747 -4.3829,1.8197 -6.9265,2.40669 -2.5046,0.62613 -5.2831,0.9392 -8.3354,0.9392 -2.3089,0 -4.6765,-0.31307 -7.1027,-0.9392 -2.3871,-0.62613 -4.7156,-1.50662 -6.9853,-2.64149 -2.2306,-1.13486 -4.3242,-2.50452 -6.2808,-4.10898 -1.9567,-1.64359 -3.6786,-3.44371 -5.1656,-5.40038 -1.448,-1.95665 -2.6024,-4.06984 -3.4633,-6.33958 -0.8218,-2.2697 -1.2327,-4.63726 -1.2327,-7.10267 m 10.9769,-0.1174 c -10e-5,2.42628 0.6456,4.65687 1.9371,6.69177 1.3305,2.03495 3.0328,3.77637 5.1068,5.22428 2.0741,1.44794 4.3829,2.58281 6.9266,3.40459 2.5828,0.78267 5.1069,1.17401 7.5723,1.174 3.2871,10e-6 6.3004,-0.62612 9.0397,-1.8784 2.7785,-1.25225 5.146,-2.87627 7.1027,-4.87208 1.9958,-1.99577 3.5415,-4.22636 4.6373,-6.69177 1.0957,-2.5045 1.6435,-4.96989 1.6436,-7.39618 -1e-4,-1.36963 0.2934,-2.56319 0.8805,-3.58068 0.6261,-1.05656 1.2131,-2.05446 1.761,-2.99369 0.1565,-0.19563 0.2347,-0.48913 0.2348,-0.8805 0.039,-0.43043 0.039,-0.86089 0,-1.29139 -10e-5,-0.46956 -0.02,-0.90003 -0.059,-1.2914 -0.039,-0.39129 -0.059,-0.66522 -0.059,-0.8218 -1e-4,-0.86088 -0.2936,-1.80008 -0.8805,-2.81759 -0.5871,-1.01741 -1.3893,-2.03488 -2.4067,-3.05238 -0.9784,-1.01742 -2.1133,-1.99575 -3.4046,-2.93499 -1.2523,-0.97828 -2.5437,-1.83921 -3.8742,-2.58279 -1.3306,-0.74348 -2.6611,-1.33048 -3.9916,-1.761 -1.3305,-0.46954 -2.5241,-0.70434 -3.5806,-0.70439 -2.9742,5e-5 -5.7527,0.41095 -8.3354,1.23269 -2.5437,0.82185 -4.8721,1.93714 -6.9853,3.34589 -2.1132,1.40884 -4.0112,3.072 -5.6939,4.98948 -1.6436,1.87844 -3.0328,3.89379 -4.1677,6.04608 -1.0957,2.15236 -1.9371,4.38295 -2.524,6.69177 -0.5871,2.30889 -0.8806,4.55905 -0.8805,6.75048"
             style="font-variant:normal;font-stretch:normal;font-family:Short Stack;-inkscape-font-specification:Short Stack"
             id="path6919" />
          <path
             inkscape:connector-curvature="0"
             d="m -2609.0663,627.91237 c 1.174,-2.3088 2.7589,-4.24589 4.7547,-5.81127 1.9958,-1.56527 4.1677,-2.81753 6.5157,-3.75679 2.348,-0.97827 4.7351,-1.6631 7.1614,-2.05449 2.4653,-0.43041 4.7155,-0.64564 6.7505,-0.6457 6.1438,6e-5 11.5833,0.72403 16.3185,2.17189 4.7742,1.40886 8.7658,3.36551 11.9747,5.86998 3.248,2.46544 5.7134,5.38086 7.3962,8.74627 1.6827,3.32636 2.524,6.88748 2.5241,10.68336 -10e-5,5.79174 -0.8414,10.95732 -2.5241,15.49674 -1.6828,4.50033 -4.109,8.31582 -7.2788,11.44646 -3.1698,3.09153 -7.0244,5.45908 -11.5638,7.10267 -4.5395,1.60446 -9.6464,2.40669 -15.3207,2.40669 -3.4828,0 -6.457,-0.19566 -8.9223,-0.58699 -2.4263,-0.3522 -4.7352,-0.91963 -6.9266,-1.7023 l 0,4.57858 c -0.039,1.83926 0.039,3.71765 0.2348,5.63518 0.2348,1.91752 0.4696,3.81548 0.7044,5.69388 0.2739,1.91751 0.5283,3.7959 0.7631,5.63518 0.2348,1.87837 0.3522,3.65893 0.3522,5.34168 0,0.78264 -0.1957,1.46747 -0.587,2.05449 -0.3914,0.58697 -0.9001,1.07614 -1.5262,1.4675 -0.587,0.3913 -1.2523,0.6848 -1.9958,0.8805 -0.7435,0.19563 -1.4675,0.29346 -2.1719,0.29349 -0.9001,-3e-5 -1.7414,-0.11742 -2.5241,-0.35219 -0.7435,-0.23483 -1.4088,-0.62616 -1.9958,-1.174 -0.587,-0.54789 -1.0566,-1.29142 -1.4088,-2.23059 -0.313,-0.93922 -0.4696,-2.09365 -0.4696,-3.46329 0,-0.86095 0,-1.89798 0,-3.11109 0,-1.21314 -0.02,-2.48497 -0.059,-3.81548 0,-1.29141 -0.02,-2.58281 -0.059,-3.87419 0,-1.2914 0,-2.42627 0,-3.40459 l -0.1174,-14.32274 0,-45.19884 m 10.8595,39.21146 c -0.078,0.62614 0.313,1.11531 1.174,1.46749 0.9,0.35221 1.9371,0.62614 3.1111,0.8218 1.2131,0.15654 2.4262,0.25438 3.6394,0.2935 1.2131,0.0391 2.1327,0.0587 2.7589,0.0587 4.1089,10e-6 8.0222,-0.43046 11.7399,-1.2914 3.7176,-0.90005 6.9852,-2.30884 9.8029,-4.22638 2.8175,-1.95664 5.0481,-4.5003 6.6918,-7.63097 1.6826,-3.13063 2.524,-6.96568 2.5241,-11.50516 -1e-4,-3.20888 -0.6262,-6.02647 -1.8784,-8.45277 -1.2524,-2.46534 -3.0525,-4.51983 -5.4004,-6.16348 -2.3089,-1.64354 -5.1461,-2.87623 -8.5115,-3.69808 -3.3264,-0.82175 -7.0831,-1.23264 -11.2703,-1.2327 -1.1741,6e-5 -2.5829,0.17616 -4.2264,0.5283 -1.6045,0.31312 -3.1698,0.80228 -4.696,1.4675 -1.5262,0.66531 -2.8568,1.48711 -3.9916,2.46539 -1.1349,0.97837 -1.8197,2.11324 -2.0545,3.40458 l -0.1174,16.55334 c 0,0.39136 0,0.93923 0,1.6436 0.039,0.70442 0.078,1.50665 0.1174,2.40669 0.039,0.86095 0.078,1.78058 0.1174,2.75889 0.039,0.97835 0.078,1.95668 0.1174,2.93499 0.1174,2.26974 0.2348,4.73513 0.3522,7.39617"
             style="font-variant:normal;font-stretch:normal;font-family:Short Stack;-inkscape-font-specification:Short Stack"
             id="path6921" />
          <path
             inkscape:connector-curvature="0"
             d="m -2529.1758,647.6942 c 0,-6.06561 0.9783,-11.21162 2.935,-15.43804 1.9566,-4.22634 4.5198,-7.65049 7.6896,-10.27246 3.2089,-2.661 6.8287,-4.57853 10.8595,-5.75258 4.0698,-1.21307 8.2179,-1.81963 12.4443,-1.8197 4.8916,7e-5 9.2746,0.8023 13.1488,2.4067 3.9132,1.60452 7.22,3.91337 9.9203,6.92657 2.7001,3.01331 4.7741,6.67226 6.2221,10.97686 1.4479,4.26556 2.1718,9.05937 2.1719,14.38145 -1e-4,3.09154 -0.411,6.00696 -1.2327,8.74626 -0.8218,2.73934 -1.9567,5.283 -3.4046,7.63098 -1.448,2.30886 -3.1894,4.38292 -5.2242,6.22217 -1.9959,1.83927 -4.1874,3.42416 -6.5744,4.75468 -2.3872,1.2914 -4.9113,2.26973 -7.5723,2.93499 -2.6611,0.7044 -5.3613,1.0566 -8.1006,1.0566 -2.9741,0 -5.87,-0.4696 -8.6875,-1.4088 -2.7785,-0.90006 -5.4004,-2.15232 -7.8658,-3.75678 -2.4654,-1.60446 -4.7351,-3.46328 -6.8092,-5.57648 -2.0349,-2.15231 -3.7959,-4.4416 -5.283,-6.86788 -1.4479,-2.42623 -2.5828,-4.93076 -3.4045,-7.51357 -0.8218,-2.58276 -1.2327,-5.12642 -1.2327,-7.63097 m 10.155,-1.46749 c 0,2.89588 0.6261,5.8113 1.8784,8.74626 1.2523,2.89588 2.8958,5.5178 4.9308,7.86577 2.074,2.34801 4.422,4.26553 7.044,5.75258 2.661,1.44794 5.3612,2.1719 8.1005,2.1719 2.9741,0 5.8504,-0.50873 8.6289,-1.5262 2.8175,-1.01745 5.2829,-2.50451 7.3962,-4.46118 2.1523,-1.95665 3.8741,-4.34377 5.1656,-7.16138 1.2913,-2.81756 1.937,-6.02648 1.9371,-9.62676 -1e-4,-3.52195 -0.4893,-6.73087 -1.4675,-9.62676 -0.9393,-2.93495 -2.2503,-5.45904 -3.9329,-7.57228 -1.6828,-2.11314 -3.6982,-3.73716 -6.0461,-4.87208 -2.348,-1.17394 -4.8917,-1.76094 -7.631,-1.76099 -3.0524,5e-5 -6.1244,0.48922 -9.2158,1.46749 -3.0916,0.93925 -5.8896,2.34804 -8.3941,4.22639 -2.4654,1.8393 -4.4808,4.12859 -6.0461,6.86787 -1.5653,2.73936 -2.348,5.90915 -2.348,9.50937"
             style="font-variant:normal;font-stretch:normal;font-family:Short Stack;-inkscape-font-specification:Short Stack"
             id="path6923" />
        </g>
        <g
           transform="matrix(0.86879508,0,0,0.86879508,-2922.1045,-5.2837014)"
           id="layer1-5-3"
           inkscape:label="Capa 1"
           style="fill:#ffffff">
          <path
             inkscape:connector-curvature="0"
             id="path3295-5"
             d="m 332.03501,98.212311 c -15.9323,-0.066 -31.2742,14.342799 -30.0626,36.937599 2.4395,45.4787 -4.7388,91.8923 -4.5,139.1874 0.0818,16.1578 -3.6941,34.7927 -5.3124,53.4376 l -1.4063,-3.5626 -0.125,-0.2187 -1.75,-3.9687 -0.125,-0.2188 -1.9063,-3.9062 -0.0937,-0.2188 -2.0625,-3.875 -0.125,-0.1875 -2.1875,-3.8125 -0.125,-0.1875 -2.3125,-3.7187 -0.125,-0.1876 -2.4062,-3.625 -0.125,-0.1874 -2.5313,-3.5626 -0.1563,-0.1874 -2.25,-2.9376 -3.4687,-2.4374 -4.2187,-0.063 -3.5313,2.375 -1.5313,3.9376 0.9688,4.125 0.4688,0.7187 2.125,2.75 0.125,0.1875 2.2812,3.1875 0.125,0.1875 2.1562,3.25 0.125,0.1875 2.1876,3.5313 0.0312,0 1.9375,3.375 0.0937,0.1874 1.8438,3.4376 0.0938,0.2187 1.7187,3.4687 0.0937,0.2188 1.5626,3.5 0.0312,0.094 0.0625,0.125 1.4063,3.5 0.0624,0.1874 0.0313,0.063 1.2813,3.5 0.0624,0.1562 0.0313,0.125 1.1563,3.7812 0.9374,3.4688 0.8438,3.7188 0.0312,0.1874 0.0313,0.125 0.2187,1.2188 1.9063,3.75 3.75,2 2.875,-0.3125 c 1.3343,10.3786 4.5656,20.4077 11.0625,29.4375 11.1036,15.4323 33.3649,22.9389 52.875,28.125 0.8417,0.2237 1.6681,0.4443 2.5,0.6562 l 0,26.4688 a 7.1202884,7.1202884 0 1 0 14.2188,0 l 0,-23.25 c 11.6025,2.3284 19.9687,3.3125 19.9687,3.3125 a 7.1202884,7.1202884 0 1 0 1.6563,-14.125 c 0,0 -16.2983,-1.9244 -34.6876,-6.8125 -18.3894,-4.8882 -38.4321,-13.6024 -44.9687,-22.6875 -8.8694,-12.3271 -10.0899,-27.9786 -8.6563,-45.875 1.4336,-17.8963 5.5638,-37.3885 5.4688,-56.2187 -0.2312,-45.7727 7.0457,-92.4184 4.5,-139.875 -0.8879,-16.5572 7.7384,-21.971 15.7812,-21.9376 8.0429,0.033 16.754,5.5118 15.9063,22.875 -1.8338,37.558 0,111.2501 0,111.25 a 7.1202884,7.1202884 0 0 0 0.2813,2.2188 c -0.192,10.9381 0.2284,22.0611 2.5937,32.0938 1.9797,8.3967 7.7383,15.0715 14.5937,19.8124 6.8554,4.741 15.0345,7.6984 23.3438,7.25 8.0037,-0.4315 15.299,-4.1759 21.1562,-9.375 0.9431,-0.8371 1.8181,-1.74 2.6876,-2.6562 0.3362,4.7804 2.5878,9.0728 5.2187,12.6875 3.4324,4.716 7.8945,8.7365 12.3125,12.25 2.2313,1.7746 4.4549,3.4196 6.5625,4.875 -6.543,4.772 -10.734,10.7643 -12.875,17.0625 -3.2674,9.6114 -2.7056,19.2239 -2.9687,27.5938 a 7.1283572,7.1283572 0 0 0 14.25,0.4374 c 0.2851,-9.0743 0.1075,-17.3502 2.1874,-23.4687 1.9385,-5.7021 5.345,-10.0665 14.5938,-13.75 l 72.625,-2.6875 0.0625,0 a 7.1202884,7.1202884 0 0 0 -0.5,-14.2188 l -0.0313,0 -0.1562,0 -71.375,2.2188 c -2.5102,-1.445 -7.6226,-4.4885 -13.5312,-9.1875 -3.8169,-3.0354 -7.4187,-6.4999 -9.625,-9.5313 -2.2063,-3.0313 -2.6508,-5.1649 -2.4688,-6.125 0.6394,-3.3739 2.3841,-6.3854 5.0625,-9.0624 4.4636,-3.5523 9.2009,-6.3171 14.0937,-8.375 7.2994,-2.7297 15.8826,-4.2925 23.7813,-4.875 2.0942,-0.032 4.1789,0.036 6.25,0.1874 a 7.1202884,7.1202884 0 0 0 3,-0.4374 c 19.7905,1.8442 38.1237,6.6742 56.5937,12 0.4058,0.1738 0.8181,0.3534 1.2188,0.5312 8.9139,3.9547 16.4919,8.8584 21.5,14.3125 5.0081,5.4542 7.5554,11.1213 7.4062,18.0937 -0.6648,31.0526 -13.1174,46.5168 -28.4374,55.5313 -15.3199,9.0146 -34.2539,10.8051 -46.125,10.4375 a 7.1202884,7.1202884 0 0 0 -7.3438,7.2188 l 0.875,51.3124 a 7.1260964,7.1260964 0 1 0 14.25,-0.25 l -0.7812,-44.1874 c 13.2685,-0.3779 30.5315,-2.9275 46.375,-12.25 18.9146,-11.1297 34.6882,-32.5078 35.4374,-67.5 0.2331,-10.8893 -4.2625,-20.5237 -11.1562,-28.0313 -5.3414,-5.817 -12.0949,-10.5382 -19.5625,-14.4687 0.4028,-4.733 1.0426,-12.8896 1.5,-22.625 0.6985,-14.8666 1.0439,-32.3245 -1.0313,-44.6876 -1.6666,-9.9266 -8.4848,-17.3097 -16.25,-21.9687 -7.7651,-4.6589 -16.7194,-7.0198 -25.0624,-6.9375 -11.8437,0.1165 -22.519,6.2691 -30.1563,14.7812 -1.5216,-7.578 -6.9528,-13.4449 -13.2813,-16.4374 -5.2917,-2.5024 -11.2002,-3.5416 -17.2187,-3.4688 -2.0062,0.024 -4.0255,0.1463 -6.0313,0.4062 -8.023,1.0396 -15.9728,3.9064 -22.2812,9.0626 -3.2239,2.635 -6.0105,6.0371 -7.875,9.9687 -2.6964,-2.4631 -5.8603,-4.3788 -9.125,-5.8125 -4.9168,-2.1593 -10.1904,-3.3446 -15.4062,-3.375 -1.7387,-0.01 -3.4838,0.1203 -5.1876,0.375 -7.2219,1.0794 -14.4425,4.3783 -20.5,9.25 -0.1079,-20.138 0.0134,-41.6944 0.75,-56.7812 1.1321,-23.1904 -14.1301,-37.746399 -30.0624,-37.812599 z m -75.9688,6.937599 -3.125,0.031 -0.125,0 -3.0625,0.062 -0.125,0 -3.0313,0.125 -0.125,0 -3,0.1875 -0.125,0 -2.9687,0.25 -0.125,0 -2.9375,0.2812 -0.125,0 -2.875,0.3438 -0.1562,0.031 -2.8438,0.375 -0.125,0 -2.8125,0.4376 -0.125,0.031 -2.7813,0.4688 -0.125,0.031 -2.7187,0.5312 -0.1563,0.031 -2.6874,0.5625 -0.125,0.031 -2.6563,0.625 -0.125,0.031 -2.625,0.6563 -0.125,0.031 -2.5625,0.6875 -0.1562,0.062 -2.5313,0.75 -0.125,0.031 -2.5,0.7813 -0.125,0.031 -2.4687,0.8437 -0.125,0.062 -2.4063,0.8438 -0.1563,0.062 -2.375,0.9063 -0.125,0.062 -0.75,0.2812 -3.2812,2.7188 -1.1562,4.0625 1.3437,4 3.4063,2.5313 4.2187,0.1874 0.8125,-0.2812 0.625,-0.25 0.125,-0.062 2.125,-0.8125 0.125,-0.062 2.1562,-0.75 0.125,-0.062 2.1876,-0.7188 0.1562,-0.062 2.2188,-0.7188 0,0.031 2.4062,-0.7187 0.125,-0.031 2.3125,-0.6562 0.125,-0.031 2.3437,-0.5938 0.1563,-0.031 2.375,-0.5313 0.125,-0.031 2.4375,-0.5312 0.125,-0.031 2.4688,-0.4688 0.125,-0.031 2.5,-0.4063 0.125,-0.031 2.6874,-0.4062 0,-0.031 2.5938,-0.3126 0.125,-0.031 2.625,-0.3125 0.125,0 2.6562,-0.2813 0,0.031 2.8438,-0.25 0,0.031 2.8438,-0.1876 0.1562,0 2.7812,-0.125 0.125,0 2.8126,-0.062 0.125,0 2.9687,0 4.0625,-1.2813 2.5938,-3.3437 0.2187,-4.25 -2.2187,-3.5938 -3.8438,-1.7188 -0.875,-0.062 z m -80,23.6874 -4.125,0.9063 -0.7188,0.4687 -3.2812,2.4376 -0.25,0.1874 -3.4688,2.8126 -0.2187,0.1874 -3.3125,2.9063 -0.2188,0.1875 -3.125,3 -0.2187,0.2188 -2.9687,3.0937 -0.1876,0.2187 -2.7812,3.1563 -0.2188,0.2187 -2.5937,3.2188 -0.1875,0.25 -2.4375,3.2812 -0.1875,0.25 -2.25,3.3438 -0.1875,0.2812 -2.0937,3.375 -0.1563,0.2813 -1.9063,3.4375 -0.125,0.2812 -1.7187,3.4688 -0.1563,0.3125 -1.5312,3.4687 -0.125,0.3126 -1.1875,3.0624 -0.2813,4.25 2.1563,3.625 3.8437,1.75 4.1876,-0.7187 3,-2.9687 0.375,-0.7813 1.0624,-2.7813 0.125,-0.2812 1.2813,-2.9062 1.5625,-3.1876 0.1562,-0.2812 1.5938,-2.875 0.1562,-0.2812 1.75,-2.8438 2.0938,-3.0938 2.25,-3.0624 0.0312,-0.063 0.1563,-0.1874 2.2187,-2.75 0.125,-0.1563 0.0626,-0.062 2.4062,-2.7188 0.1875,-0.2187 2.5625,-2.625 0.0938,-0.094 0.125,-0.125 2.6874,-2.5938 0.2188,-0.1875 2.875,-2.5313 0.0625,-0.062 0.1563,-0.125 3,-2.4376 0.2187,-0.1562 0.0313,-0.031 3.0312,-2.25 2.5,-3.4376 0.125,-4.2187 -2.3125,-3.5625 -3.9375,-1.5938 z m 271.7812,58.3438 c 4.2555,-0.015 8.2608,0.7688 11.0626,2.0938 3.7357,1.7664 5.2989,3.5549 5.5624,7.2187 l 1.9376,27.0625 c -0.1446,6.4449 0.5735,12.9811 1.375,19.0625 l 1.0624,14.875 c -0.8801,0.061 -1.7647,0.1351 -2.6562,0.2187 -7.1073,0.4221 -14.3247,1.8102 -21.3438,4.2813 -1.5495,0.4959 -3.0837,1.0105 -4.5937,1.5937 -4.6644,1.8017 -9.2198,4.1415 -13.25,7.0313 l -3.6875,-66.4687 c -0.2566,-4.619 1.5113,-7.7396 5.1562,-10.7188 3.6449,-2.9793 9.2769,-5.2191 15.0626,-5.9688 1.4465,-0.1874 2.894,-0.2762 4.3124,-0.2812 z m 60.6876,5.125 c 5.3886,-0.053 12.3059,1.7336 17.5937,4.9062 5.2878,3.1727 8.7267,7.3012 9.5313,12.0938 1.6397,9.7687 1.5242,27.2043 0.8437,41.6875 -0.4396,9.3552 -0.8181,12.8354 -1.1875,17.0937 -16.5597,-6.1947 -34.8682,-9.517 -50.375,-10.5312 -0.8765,-3.8006 -2.0159,-9.1383 -2.9688,-16.2812 -0.01,-0.072 -0.0217,-0.1466 -0.0312,-0.2188 l -0.9375,-13.2188 c -0.0792,-7.3518 0.6436,-14.009 2.3437,-17.4374 4.5442,-9.1633 16.1878,-18.0052 25.1876,-18.0938 z m -121.6876,5.1562 c 3.1275,0.056 6.7873,0.7691 9.875,2.125 4.1169,1.808 6.9613,4.5578 7.875,7 7.0851,18.9381 7.4688,48.7642 3.2813,69.4688 -0.7723,3.8179 -3.6095,8.4216 -7.5,11.875 -3.8905,3.4533 -8.6902,5.6088 -12.4687,5.8125 -4.1607,0.2245 -9.8549,-1.5279 -14.4688,-4.7187 -4.6139,-3.191 -7.9265,-7.6485 -8.8125,-11.4063 -3.9563,-16.7804 -0.9309,-42.2141 -1.1563,-62.8125 -0.0329,-3.0476 2.1223,-6.9616 6.25,-10.4375 4.1278,-3.4758 9.8936,-6.1034 14.2188,-6.75 0.8847,-0.1322 1.8638,-0.1748 2.9062,-0.1563 z m -252.4374,3.6876 -3.5313,2.3437 -1.5625,3.9063 -0.0312,0.875 0.0312,0.5624 0.0312,0.4063 0.3438,3.375 0.0312,0.3125 0.2188,1.6875 0.0625,0.1875 0.2813,1.6562 0.0312,0.2188 0.3438,1.6562 0.0312,0.2188 0.4062,1.625 0.0626,0.2188 0.4374,1.5937 0.0313,0.2187 0.5,1.625 0.0625,0.1876 0.5312,1.5937 0.0938,0.2187 0.5625,1.5626 0.0937,0.2187 0.625,1.5313 0.0938,0.2187 0.6875,1.5313 0.0937,0.1874 0.75,1.5313 0.0938,0.1875 0.7812,1.5 0.125,0.1875 0.8438,1.4687 0.125,0.1876 0.875,1.4374 0.125,0.2188 0.9375,1.4062 0.125,0.1876 1,1.375 0.125,0.1874 1.0313,1.375 0.1562,0.1876 1.0938,1.3437 0.1562,0.1563 1.125,1.3124 0.1562,0.1876 1.1876,1.25 0.1874,0.1874 1.2188,1.25 0.1875,0.1563 1.2813,1.2187 0.1874,0.1563 1.3438,1.1875 0.1562,0.1562 1.4063,1.125 0.1875,0.1563 1.4375,1.125 0.1875,0.125 1.5,1.0937 0.1875,0.125 1.5625,1.0313 0.1875,0.125 1.5937,1.0313 0.1876,0.094 1.6562,1 0.1875,0.094 1.7187,0.9376 0.1876,0.094 0.625,0.3437 4.1874,0.7188 3.8438,-1.7812 2.1562,-3.6563 -0.3124,-4.2187 -2.6563,-3.3126 -0.7187,-0.4374 -0.6563,-0.3438 -1.3437,-0.7188 -0.1876,-0.094 -1.2812,-0.7813 -0.1875,-0.094 -1.2187,-0.7813 -0.125,-0.094 -0.0626,-0.031 -1.1874,-0.8124 -0.1876,-0.125 -1.125,-0.8126 -0.1874,-0.125 -1.0938,-0.8437 -0.1875,-0.1563 -1.0313,-0.8437 -0.0312,-0.031 -0.1562,-0.125 -1,-0.875 -0.1563,-0.1562 -0.9687,-0.9062 -0.1563,-0.1563 -0.9375,-0.9063 -0.1562,-0.1874 -0.875,-0.9376 -0.1563,-0.1562 -0.8125,-0.9688 -0.1562,-0.1562 -0.7813,-0.9688 -0.1563,-0.1874 -0.75,-1 -0.1562,-0.1876 -0.6875,-1 -0.8125,-1.2187 -0.125,-0.1875 -0.6562,-1.0312 -0.125,-0.2188 -0.5938,-1.0625 -0.6875,-1.25 -0.0937,-0.2187 -0.5313,-1.0938 -0.0937,-0.2188 -0.5,-1.0937 -0.0313,-0.094 -0.0625,-0.125 -0.4688,-1.125 -0.0624,-0.1876 -0.4376,-1.1562 -0.0624,-0.2188 -0.4063,-1.1562 -0.0625,-0.2188 -0.375,-1.1562 -0.0312,-0.125 -0.0313,-0.094 -0.3125,-1.1874 -0.0625,-0.2188 -0.2813,-1.2188 -0.0312,-0.2187 -0.25,-1.2187 -0.2812,-1.4376 -0.0313,-0.1562 0,-0.062 -0.1563,-1.1563 -0.0312,-0.3124 -0.2812,-2.6563 0,-0.2187 -0.0313,-0.1876 0,-0.1562 -1.4063,-4 -3.4374,-2.4688 -4.25,-0.062 z m 60.0624,53.1874 -4.1874,0.7188 -3,2.9688 -0.8126,4.1562 1.7188,3.875 3.5938,2.2188 0.8437,0.1562 1.8125,0.25 0.1562,0.031 2.5313,0.25 0.1563,0.031 2.5937,0.2187 0.125,0 2.6563,0.1563 0.125,0.031 2.6874,0.094 0.1563,0 2.75,0.062 0.125,0 2.7187,0 0.0938,0 1.0938,0.031 1.2187,0.063 0.3125,0.031 0.9375,0.094 0.125,0 0.1563,0.031 1,0.125 0.25,0.031 1.0312,0.1876 0.25,0.062 1.0625,0.2188 0.1875,0.062 0.0625,0 1.0625,0.2813 0.25,0.062 1.0938,0.3438 0.25,0.062 1.125,0.375 0.2187,0.062 1.1563,0.4375 0.2187,0.094 1.1875,0.4688 0.1875,0.062 1.125,0.5 0.0625,0.031 0.2188,0.094 2.5937,1.25 0.0937,0.062 0.2188,0.094 2.5625,1.4062 0.2187,0.1562 0.0938,0.031 2.5938,1.5937 0.25,0.1563 0.0312,0.031 2.625,1.7812 2.9062,2.125 0.2188,0.1875 0.75,0.5937 3.9375,1.5626 4.125,-0.9688 2.8437,-3.1562 0.5626,-4.1876 -1.9063,-3.7812 -0.6563,-0.5625 -0.9374,-0.7813 -0.25,-0.1562 -3.125,-2.3125 -0.25,-0.1875 -3.1563,-2.125 -0.25,-0.1875 -3.1875,-1.9375 -0.2812,-0.1875 -3.1876,-1.7187 -0.3124,-0.1876 -3.1876,-1.5312 -0.2812,-0.125 -1.5938,-0.6875 -0.1874,-0.094 -1.5938,-0.625 -0.1875,-0.063 -1.5937,-0.5937 -0.1876,-0.062 -1.5937,-0.5312 -0.2187,-0.063 -1.5626,-0.4687 -0.25,-0.062 -1.5624,-0.4062 -0.25,-0.063 -1.5626,-0.3437 -0.25,-0.031 -1.5624,-0.2812 -0.25,-0.062 -1.5313,-0.2187 -0.3125,-0.031 -1.5,-0.1563 -0.3125,0 -1.5313,-0.094 -0.2812,-0.031 -1.5312,0 -0.0626,0 -2.6562,0 -0.1562,0 -2.4376,-0.062 -0.1562,0 -2.5312,-0.125 0,0.031 -2.5,-0.1875 0,0.031 -2.25,-0.2188 -0.1563,0 -2.2187,-0.25 -1.8126,-0.2188 z m 95.9376,115.375 -4.0626,1.2188 -2.6562,3.3125 -0.25,0.8125 -0.375,1.4375 -0.0312,0.125 -0.0313,0.094 -0.4063,1.375 -0.0937,0.25 -0.4375,1.3438 -0.0938,0.2188 -0.5,1.3124 -0.0937,0.25 -0.6563,1.5313 -0.5937,1.2813 -0.0937,0.1562 -0.0313,0.094 -0.625,1.25 -0.125,0.2187 -0.7187,1.25 -0.125,0.2187 -0.75,1.2188 -0.1563,0.2188 -0.8125,1.1874 -0.1562,0.25 -1.0313,1.375 -0.9063,1.1563 -0.1874,0.2187 -0.9688,1.1563 -0.1875,0.1875 -1.0313,1.125 -0.1874,0.2188 -1.125,1.0937 -0.1876,0.1875 -1.1874,1.0938 -0.1876,0.1874 -1.2812,1.0626 -0.0625,0.062 -0.125,0.094 -1.3437,1.0625 -0.1876,0.1563 -1.625,1.1874 0,0.031 -1.5,1.0313 0,-0.031 -1.7812,1.1563 -0.2188,0.125 -1.6562,0.9687 -0.1875,0.125 -1.7813,0.9375 -2.0312,1.0625 -0.2188,0.094 -1.9374,0.9063 -0.1876,0.094 -2.0624,0.875 -0.1876,0.063 -1,0.4062 -3.2812,2.6562 -1.2188,4.0626 1.3126,4 3.375,2.5937 4.2187,0.1875 0.8437,-0.2812 1.1876,-0.4688 0.1874,-0.062 2.4376,-1.0625 0.1874,-0.062 2.3438,-1.0937 0.1875,-0.094 2.25,-1.1562 0.2187,-0.094 2.1563,-1.1875 0.2187,-0.125 2.0626,-1.2187 0.2187,-0.125 1.9687,-1.25 0.2188,-0.1563 1.9062,-1.2813 0.2188,-0.1562 1.8125,-1.3438 0.1875,-0.1562 1.75,-1.375 0.2188,-0.1875 1.6562,-1.4063 0.1875,-0.1874 1.5625,-1.4376 0.2188,-0.1874 1.5,-1.5 0.1874,-0.1876 1.4063,-1.5312 0.1875,-0.2188 1.3438,-1.5624 0.1562,-0.2188 1.2812,-1.5625 0.1563,-0.25 1.1875,-1.5937 0.1562,-0.25 1.125,-1.6563 0.1563,-0.2187 1.0313,-1.6876 0.125,-0.2187 0.9687,-1.7187 0.1563,-0.25 0.875,-1.7188 0.125,-0.25 0.8124,-1.75 0.125,-0.25 0.75,-1.7812 0.0938,-0.25 0.6875,-1.8126 0.0937,-0.25 0.625,-1.8124 0.0626,-0.25 0.5624,-1.8438 0.0626,-0.25 0.4374,-1.6875 -0.2187,-4.2187 -2.5625,-3.375 -4.0312,-1.3126 z m -90.6876,29.3438 -42.7812,9.0312 -42.7812,9 41.8437,15.2188 41.875,15.2188 0.5625,-14.875 3.4688,-0.094 0.125,0 4.0312,-0.1562 0.125,0 3.9062,-0.2188 0.125,0 3.7813,-0.2812 0.1563,0 3.6874,-0.3438 0.125,-0.031 3.5938,-0.4063 0.1562,0 3.5,-0.4687 0.125,0 0.8126,-0.125 3.8124,-1.875 2.0626,-3.6876 -0.375,-4.2187 -2.7188,-3.25 -4.0938,-1.125 -0.8437,0.062 -0.6563,0.094 -0.1562,0.031 -3.3438,0.4375 0,0.031 -3.3124,0.3437 -3.5626,0.3437 -0.125,0 -3.5624,0.2813 0,-0.031 -3.7813,0.2188 -0.125,0 -3.75,0.1562 -0.125,0 -2.5313,0.031 0.75,-19.3125 z"
             style="font-size:medium;font-style:normal;font-variant:normal;font-weight:normal;font-stretch:normal;text-indent:0;text-align:start;text-decoration:none;line-height:normal;letter-spacing:normal;word-spacing:normal;text-transform:none;direction:ltr;block-progression:tb;writing-mode:lr-tb;text-anchor:start;baseline-shift:baseline;color:#000000;fill:#ffffff;fill-opacity:1;stroke:none;stroke-width:14.23915291;marker:none;visibility:visible;display:inline;overflow:visible;enable-background:accumulate;font-family:Sans;-inkscape-font-specification:Sans" />
        </g>
        <g
           transform="matrix(0.85764571,0,0,0.85764571,-2982.1293,126.72422)"
           id="layer1-4-7"
           inkscape:label="Capa 1">
          <path
             sodipodi:nodetypes="cccccc"
             inkscape:connector-curvature="0"
             id="path3044"
             d="m 314.46494,754.93712 -54.56751,65.71254 67.24765,84.80758 256.09543,-0.54045 C 569.13961,831.59869 550.1877,759.76288 437.24978,716.64499 z"
             style="fill:#008000;stroke:#000000;stroke-width:0.5197317px;stroke-linecap:butt;stroke-linejoin:miter;stroke-opacity:1" />
          <path
             sodipodi:nodetypes="cc"
             inkscape:connector-curvature="0"
             d="m 259.89314,819.3125 c 89.12016,-22.09085 229.61289,-18.75749 258.0096,35.11609"
             style="fill:none;stroke:#000000;stroke-width:3.97584343;stroke-linecap:butt;stroke-linejoin:miter;stroke-miterlimit:4;stroke-opacity:1;stroke-dasharray:none"
             id="path3986" />
          <path
             sodipodi:nodetypes="cccscc"
             inkscape:connector-curvature="0"
             d="m 339.12707,867.91672 6.60766,37.36565 21.95385,0.37121 c 0,0 -2.54046,-17.61693 7.58946,-24.78727 39.35129,-27.85436 154.06648,3.02972 154.06648,3.02972 l -9.4593,-22.0873"
             style="fill:none;stroke:#000000;stroke-width:3.97584343;stroke-linecap:butt;stroke-linejoin:miter;stroke-miterlimit:4;stroke-opacity:1;stroke-dasharray:none"
             id="path3988" />
          <path
             inkscape:connector-curvature="0"
             d="m 326.52691,895.74217 4.20008,10.50015"
             style="fill:none;stroke:#000000;stroke-width:3.97584343;stroke-linecap:butt;stroke-linejoin:miter;stroke-miterlimit:4;stroke-opacity:1;stroke-dasharray:none"
             id="path3990" />
          <path
             inkscape:connector-curvature="0"
             d="m 334.40202,895.21717 3.67503,10.50016"
             style="fill:none;stroke:#000000;stroke-width:3.97584343;stroke-linecap:butt;stroke-linejoin:miter;stroke-miterlimit:4;stroke-opacity:1;stroke-dasharray:none"
             id="path3992" />
          <path
             inkscape:connector-curvature="0"
             d="m 354.35232,896.26716 -2.10004,9.97516"
             style="fill:none;stroke:#000000;stroke-width:3.97584343;stroke-linecap:butt;stroke-linejoin:miter;stroke-miterlimit:4;stroke-opacity:1;stroke-dasharray:none"
             id="path3994" />
          <path
             inkscape:connector-curvature="0"
             d="m 362.22734,898.3672 -2.62491,7.87512"
             style="fill:none;stroke:#000000;stroke-width:3.97584343;stroke-linecap:butt;stroke-linejoin:miter;stroke-miterlimit:4;stroke-opacity:1;stroke-dasharray:none"
             id="path3996" />
          <path
             inkscape:connector-curvature="0"
             d="m 376.92763,897.84222 -0.52487,8.4001"
             style="fill:none;stroke:#000000;stroke-width:3.97584343;stroke-linecap:butt;stroke-linejoin:miter;stroke-miterlimit:4;stroke-opacity:1;stroke-dasharray:none"
             id="path3998" />
          <path
             inkscape:connector-curvature="0"
             d="m 384.80283,898.3672 0,8.92518"
             style="fill:none;stroke:#000000;stroke-width:3.97584343;stroke-linecap:butt;stroke-linejoin:miter;stroke-miterlimit:4;stroke-opacity:1;stroke-dasharray:none"
             id="path4000" />
          <path
             inkscape:connector-curvature="0"
             id="path3838"
             d="m 437.25161,716.64599 -28.14672,8.7705 c -5.73412,-4.77565 -13.10105,-7.64977 -21.14662,-7.64977 -15.19251,0 -27.98766,10.24316 -31.86607,24.19998 l -15.00728,4.67762 c -1.57991,-16.21129 -15.25617,-28.8776 -31.88221,-28.8776 -17.68728,0 -32.02851,14.34122 -32.02851,32.02845 0,12.55701 7.23067,23.41764 17.75213,28.66645 l -35.03319,42.19568 67.2565,84.79749 256.0978,-0.53599 C 569.14654,831.60069 550.18953,759.76387 437.25161,716.64599 z"
             style="fill:none;stroke:#000000;stroke-width:8.4063797;stroke-linecap:butt;stroke-linejoin:miter;stroke-miterlimit:4;stroke-opacity:1;stroke-dasharray:none" />
          <path
             transform="matrix(0.48358357,0,0,0.48358357,555.89063,284.3607)"
             d="m -448.50774,962.45862 c 0,34.0314 -27.5879,61.61928 -61.6193,61.61928 -34.03141,0 -61.61931,-27.58788 -61.61931,-61.61928 0,-34.0314 27.5879,-61.61931 61.61931,-61.61931 34.0314,0 61.6193,27.58791 61.6193,61.61931 z"
             sodipodi:ry="61.619305"
             sodipodi:rx="61.619305"
             sodipodi:cy="962.45862"
             sodipodi:cx="-510.12704"
             id="path3048"
             style="fill:#ffff00;fill-opacity:1;stroke:none"
             sodipodi:type="arc" />
          <path
             transform="matrix(0.47889772,0,0,0.47889772,548.07727,285.08308)"
             d="m -270.72089,972.56012 c 0,35.14718 -28.49243,63.63958 -63.63961,63.63958 -35.14719,0 -63.63961,-28.4924 -63.63961,-63.63958 0,-35.14719 28.49242,-63.63961 63.63961,-63.63961 35.14718,0 63.63961,28.49242 63.63961,63.63961 z"
             sodipodi:ry="63.63961"
             sodipodi:rx="63.63961"
             sodipodi:cy="972.56012"
             sodipodi:cx="-334.3605"
             id="path3050"
             style="fill:#ffff00;fill-opacity:1;stroke:none"
             sodipodi:type="arc" />
          <path
             transform="matrix(0.2883183,0,0,0.2883183,466.96665,475.26106)"
             sodipodi:type="arc"
             style="fill:#000000;fill-opacity:1;stroke:none"
             id="path3820"
             sodipodi:cx="-510.12704"
             sodipodi:cy="962.45862"
             sodipodi:rx="61.619305"
             sodipodi:ry="61.619305"
             d="m -448.50774,962.45862 c 0,34.0314 -27.5879,61.61928 -61.6193,61.61928 -34.03141,0 -61.61931,-27.58788 -61.61931,-61.61928 0,-34.0314 27.5879,-61.61931 61.61931,-61.61931 34.0314,0 61.6193,27.58791 61.6193,61.61931 z" />
          <path
             sodipodi:type="arc"
             style="fill:#000000;fill-opacity:1;stroke:none"
             id="path3822"
             sodipodi:cx="-334.3605"
             sodipodi:cy="972.56012"
             sodipodi:rx="63.63961"
             sodipodi:ry="63.63961"
             d="m -270.72089,972.56012 c 0,35.14718 -28.49243,63.63958 -63.63961,63.63958 -35.14719,0 -63.63961,-28.4924 -63.63961,-63.63958 0,-35.14719 28.49242,-63.63961 63.63961,-63.63961 35.14718,0 63.63961,28.49242 63.63961,63.63961 z"
             transform="matrix(0.2883183,0,0,0.2883183,472.59881,472.55986)" />
          <path
             transform="matrix(0.35792844,0,0,0.2655151,497.44681,476.8203)"
             d="m -102.02541,979.63123 c 0,25.66307 -23.96981,46.46697 -53.53808,46.46697 -29.56827,0 -53.53809,-20.8039 -53.53809,-46.46697 0,-25.66303 23.96982,-46.46702 53.53809,-46.46702 29.56827,0 53.53808,20.80399 53.53808,46.46702 z"
             sodipodi:ry="46.467018"
             sodipodi:rx="53.538086"
             sodipodi:cy="979.63123"
             sodipodi:cx="-155.56349"
             id="path3845"
             style="fill:#808000;stroke:none"
             sodipodi:type="arc" />
          <path
             sodipodi:type="arc"
             style="fill:#808000;stroke:none"
             id="path3847"
             sodipodi:cx="-155.56349"
             sodipodi:cy="979.63123"
             sodipodi:rx="53.538086"
             sodipodi:ry="46.467018"
             d="m -102.02541,979.63123 c 0,25.66307 -23.96981,46.46697 -53.53808,46.46697 -29.56827,0 -53.53809,-20.8039 -53.53809,-46.46697 0,-25.66303 23.96982,-46.46702 53.53809,-46.46702 29.56827,0 53.53808,20.80399 53.53808,46.46702 z"
             transform="matrix(0.17515648,0,0,0.12993293,499.46458,621.71602)" />
          <path
             transform="matrix(0.12612519,0,0,0.09356099,452.9865,665.74719)"
             d="m -102.02541,979.63123 c 0,25.66307 -23.96981,46.46697 -53.53808,46.46697 -29.56827,0 -53.53809,-20.8039 -53.53809,-46.46697 0,-25.66303 23.96982,-46.46702 53.53809,-46.46702 29.56827,0 53.53808,20.80399 53.53808,46.46702 z"
             sodipodi:ry="46.467018"
             sodipodi:rx="53.538086"
             sodipodi:cy="979.63123"
             sodipodi:cx="-155.56349"
             id="path3849"
             style="fill:#808000;stroke:none"
             sodipodi:type="arc" />
        </g>
      </g>
      <rect
         y="16.503397"
         x="-15171.796"
         height="1027.4425"
         width="1023.3555"
         id="rect5661"
         style="fill:none;stroke:none" />
    </g>
  </g>
</svg>
