<?xml version="1.0" encoding="UTF-8" standalone="no"?>
<!-- Created with Inkscape (http://www.inkscape.org/) -->

<svg
   xmlns:dc="http://purl.org/dc/elements/1.1/"
   xmlns:cc="http://creativecommons.org/ns#"
   xmlns:rdf="http://www.w3.org/1999/02/22-rdf-syntax-ns#"
   xmlns:svg="http://www.w3.org/2000/svg"
   xmlns="http://www.w3.org/2000/svg"
   xmlns:xlink="http://www.w3.org/1999/xlink"
   xmlns:sodipodi="http://sodipodi.sourceforge.net/DTD/sodipodi-0.dtd"
   xmlns:inkscape="http://www.inkscape.org/namespaces/inkscape"
   width="1351.74"
   height="1351.7388"
   id="svg2"
   version="1.1"
   inkscape:version="0.48.3.1 r9886"
   sodipodi:docname="b.svg">
  <defs
     id="defs4">
    <linearGradient
       id="linearGradient3265-7"
       inkscape:collect="always">
      <stop
         id="stop3267-6"
         offset="0"
         style="stop-color:#a0692f;stop-opacity:1;" />
      <stop
         id="stop3269-0"
         offset="1"
         style="stop-color:#a0692f;stop-opacity:0;" />
    </linearGradient>
    <linearGradient
       inkscape:collect="always"
       xlink:href="#linearGradient3265-7"
       id="linearGradient4849"
       gradientUnits="userSpaceOnUse"
       gradientTransform="matrix(1.9601035,0,0,1.9601035,-1268.7026,1291.2843)"
       x1="1128.5424"
       y1="-358.21252"
       x2="1128.5"
       y2="-350.88782" />
    <linearGradient
       inkscape:collect="always"
       xlink:href="#linearGradient3265-7"
       id="linearGradient4855"
       gradientUnits="userSpaceOnUse"
       gradientTransform="matrix(-1.9601035,0,0,1.9601035,3084.4205,1291.2843)"
       x1="1128.5424"
       y1="-358.21252"
       x2="1128.5"
       y2="-350.88782" />
    <linearGradient
       id="linearGradient3265-7-8"
       inkscape:collect="always">
      <stop
         id="stop3267-6-3"
         offset="0"
         style="stop-color:#a0692f;stop-opacity:1;" />
      <stop
         id="stop3269-0-6"
         offset="1"
         style="stop-color:#a0692f;stop-opacity:0;" />
    </linearGradient>
    <linearGradient
       y2="-435.80673"
       x2="919.21014"
       y1="-434.2847"
       x1="987.61987"
       gradientTransform="matrix(0.64156397,0,0,0.64156397,-240.46334,1048.4872)"
       gradientUnits="userSpaceOnUse"
       id="linearGradient3738"
       xlink:href="#linearGradient4094-1"
       inkscape:collect="always" />
    <linearGradient
       id="linearGradient4094-1">
      <stop
         id="stop4096-9"
         offset="0"
         style="stop-color:#52676c;stop-opacity:1;" />
      <stop
         id="stop4098-2"
         offset="1"
         style="stop-color:#52676c;stop-opacity:0;" />
    </linearGradient>
    <linearGradient
       id="linearGradient3310"
       inkscape:collect="always">
      <stop
         id="stop3312"
         offset="0"
         style="stop-color:#0b2228;stop-opacity:1;" />
      <stop
         id="stop3314"
         offset="1"
         style="stop-color:#0b2228;stop-opacity:0;" />
    </linearGradient>
    <linearGradient
       id="linearGradient4122-9"
       inkscape:collect="always">
      <stop
         id="stop4124-7"
         offset="0"
         style="stop-color:#1c2224;stop-opacity:1;" />
      <stop
         id="stop4126-6"
         offset="1"
         style="stop-color:#1c2224;stop-opacity:0" />
    </linearGradient>
    <linearGradient
       inkscape:collect="always"
       xlink:href="#linearGradient3310"
       id="linearGradient6795"
       gradientUnits="userSpaceOnUse"
       x1="1748.3407"
       y1="-227.81718"
       x2="1759.3722"
       y2="-149.25218" />
    <linearGradient
       inkscape:collect="always"
       xlink:href="#linearGradient4122-9"
       id="linearGradient6814"
       gradientUnits="userSpaceOnUse"
       gradientTransform="matrix(0.76362355,0,0,0.76362355,-529.2141,788.2198)"
       x1="1627.4237"
       y1="-275.98389"
       x2="1568.8258"
       y2="-208.25383" />
    <linearGradient
       inkscape:collect="always"
       id="linearGradient4871">
      <stop
         style="stop-color:#241c1f;stop-opacity:0.37777778"
         offset="0"
         id="stop4873" />
      <stop
         style="stop-color:#241c1f;stop-opacity:0;"
         offset="1"
         id="stop4875" />
    </linearGradient>
    <radialGradient
       inkscape:collect="always"
       xlink:href="#linearGradient4871"
       id="radialGradient4631"
       gradientUnits="userSpaceOnUse"
       gradientTransform="matrix(1.6682146,1.6471163,-0.88417937,0.89550496,-1046.6412,-1706.4218)"
       cx="1014.4006"
       cy="-408.6366"
       fx="1014.4006"
       fy="-408.6366"
       r="120.84957" />
    <linearGradient
       y2="-341.95212"
       x2="1033.103"
       y1="-312.79977"
       x1="1033.9359"
       gradientUnits="userSpaceOnUse"
       id="linearGradient4392"
       xlink:href="#linearGradient3219"
       inkscape:collect="always" />
    <linearGradient
       y2="-341.95212"
       x2="1033.103"
       y1="-312.79977"
       x1="1033.9359"
       gradientUnits="userSpaceOnUse"
       id="linearGradient4390"
       xlink:href="#linearGradient3209"
       inkscape:collect="always" />
    <linearGradient
       inkscape:collect="always"
       id="linearGradient3219">
      <stop
         style="stop-color:#3e4837;stop-opacity:1"
         offset="0"
         id="stop3221" />
      <stop
         style="stop-color:#e5ffd5;stop-opacity:0;"
         offset="1"
         id="stop3223" />
    </linearGradient>
    <linearGradient
       id="linearGradient3209"
       inkscape:collect="always">
      <stop
         id="stop3211"
         offset="0"
         style="stop-color:#3e4837;stop-opacity:1" />
      <stop
         id="stop3213"
         offset="1"
         style="stop-color:#e5ffd5;stop-opacity:0;" />
    </linearGradient>
    <linearGradient
       y2="-299.90375"
       x2="1731.0365"
       y1="-347.02103"
       x1="1621.358"
       gradientTransform="matrix(1.3519879,0,0,1.3519879,-2458.2999,1401.0995)"
       gradientUnits="userSpaceOnUse"
       id="linearGradient4525"
       xlink:href="#linearGradient4136"
       inkscape:collect="always" />
    <linearGradient
       id="linearGradient4136"
       inkscape:collect="always">
      <stop
         id="stop4138"
         offset="0"
         style="stop-color:#000000;stop-opacity:1" />
      <stop
         id="stop4140"
         offset="1"
         style="stop-color:#2b1100;stop-opacity:0;" />
    </linearGradient>
    <linearGradient
       id="linearGradient3449"
       inkscape:collect="always">
      <stop
         id="stop3451"
         offset="0"
         style="stop-color:#000000;stop-opacity:1;" />
      <stop
         id="stop3453"
         offset="1"
         style="stop-color:#000000;stop-opacity:0;" />
    </linearGradient>
    <linearGradient
       id="linearGradient4233"
       inkscape:collect="always">
      <stop
         id="stop4235"
         offset="0"
         style="stop-color:#000000;stop-opacity:1;" />
      <stop
         id="stop4237"
         offset="1"
         style="stop-color:#000000;stop-opacity:0;" />
    </linearGradient>
    <linearGradient
       id="linearGradient4283"
       inkscape:collect="always">
      <stop
         id="stop4285"
         offset="0"
         style="stop-color:#2b1100;stop-opacity:1;" />
      <stop
         id="stop4287"
         offset="1"
         style="stop-color:#2b1100;stop-opacity:0;" />
    </linearGradient>
    <linearGradient
       inkscape:collect="always"
       xlink:href="#linearGradient4283"
       id="linearGradient6031"
       gradientUnits="userSpaceOnUse"
       gradientTransform="translate(-2538.9898,1459.867)"
       x1="503.56857"
       y1="-348.85837"
       x2="512.40308"
       y2="-335.29108" />
    <linearGradient
       inkscape:collect="always"
       xlink:href="#linearGradient3449"
       id="linearGradient6033"
       gradientUnits="userSpaceOnUse"
       gradientTransform="translate(-2538.9898,1459.867)"
       x1="535.43597"
       y1="-304.05469"
       x2="522.1842"
       y2="-302.79257" />
    <linearGradient
       inkscape:collect="always"
       xlink:href="#linearGradient4233"
       id="linearGradient6035"
       gradientUnits="userSpaceOnUse"
       gradientTransform="translate(-2538.9898,1459.867)"
       x1="492.84091"
       y1="-285.43903"
       x2="581.34399"
       y2="-291.27615" />
    <linearGradient
       id="linearGradient4817"
       inkscape:collect="always">
      <stop
         id="stop4819"
         offset="0"
         style="stop-color:#917c6f;stop-opacity:1;" />
      <stop
         id="stop4821"
         offset="1"
         style="stop-color:#2b1100;stop-opacity:1" />
    </linearGradient>
    <linearGradient
       inkscape:collect="always"
       id="linearGradient5172">
      <stop
         style="stop-color:#502d16;stop-opacity:1;"
         offset="0"
         id="stop5174" />
      <stop
         style="stop-color:#917c6f;stop-opacity:1"
         offset="1"
         id="stop5176" />
    </linearGradient>
    <linearGradient
       id="linearGradient5181">
      <stop
         id="stop5183"
         offset="0"
         style="stop-color:#907b6e;stop-opacity:1" />
      <stop
         style="stop-color:#7a6356;stop-opacity:1;"
         offset="0.75249761"
         id="stop5191" />
      <stop
         style="stop-color:#644c3e;stop-opacity:1;"
         offset="0.812451"
         id="stop5189" />
      <stop
         id="stop5185"
         offset="1"
         style="stop-color:#381e0e;stop-opacity:1" />
    </linearGradient>
    <linearGradient
       inkscape:collect="always"
       id="linearGradient5193">
      <stop
         style="stop-color:#826c5f;stop-opacity:1"
         offset="0"
         id="stop5195" />
      <stop
         style="stop-color:#502d16;stop-opacity:1"
         offset="1"
         id="stop5197" />
    </linearGradient>
    <linearGradient
       inkscape:collect="always"
       xlink:href="#linearGradient4817"
       id="linearGradient5870"
       gradientUnits="userSpaceOnUse"
       gradientTransform="matrix(0.89679722,0,0,0.89679722,-2045.7805,1424)"
       x1="660.06604"
       y1="-501.25412"
       x2="616.52441"
       y2="-327.7186" />
    <linearGradient
       inkscape:collect="always"
       xlink:href="#linearGradient5181"
       id="linearGradient5872"
       gradientUnits="userSpaceOnUse"
       gradientTransform="translate(-1159.9752,1449.158)"
       x1="-276.65112"
       y1="-462.97198"
       x2="-282.89807"
       y2="-279.57907" />
    <linearGradient
       inkscape:collect="always"
       xlink:href="#linearGradient5172"
       id="linearGradient5874"
       gradientUnits="userSpaceOnUse"
       gradientTransform="matrix(0.89679722,0,0,0.89679722,-2045.7805,1424)"
       x1="533.96741"
       y1="-432.47049"
       x2="555.86011"
       y2="-240.41187" />
    <linearGradient
       inkscape:collect="always"
       xlink:href="#linearGradient4817"
       id="linearGradient5876"
       gradientUnits="userSpaceOnUse"
       gradientTransform="matrix(0.82173933,0,0,0.82173933,-2014.5348,1366.3891)"
       x1="626.62103"
       y1="-258.30438"
       x2="602.01056"
       y2="-402.81216" />
    <linearGradient
       inkscape:collect="always"
       xlink:href="#linearGradient5193"
       id="linearGradient5878"
       gradientUnits="userSpaceOnUse"
       gradientTransform="matrix(0.89679722,0,0,0.89679722,-2020.1702,1428.0016)"
       x1="564.45752"
       y1="-396.48645"
       x2="567.13477"
       y2="-318.39944" />
    <linearGradient
       id="linearGradient3338"
       inkscape:collect="always">
      <stop
         id="stop3340"
         offset="0"
         style="stop-color:#beb7c8;stop-opacity:1;" />
      <stop
         id="stop3342"
         offset="1"
         style="stop-color:#5d536c;stop-opacity:1" />
    </linearGradient>
    <linearGradient
       inkscape:collect="always"
       id="linearGradient3360">
      <stop
         style="stop-color:#474052;stop-opacity:1"
         offset="0"
         id="stop3362" />
      <stop
         style="stop-color:#5d536c;stop-opacity:1"
         offset="1"
         id="stop3364" />
    </linearGradient>
    <linearGradient
       inkscape:collect="always"
       id="linearGradient3380">
      <stop
         style="stop-color:#857c92;stop-opacity:1"
         offset="0"
         id="stop3382" />
      <stop
         style="stop-color:#5d536c;stop-opacity:1"
         offset="1"
         id="stop3384" />
    </linearGradient>
    <linearGradient
       id="linearGradient3394"
       inkscape:collect="always">
      <stop
         id="stop3396"
         offset="0"
         style="stop-color:#675d76;stop-opacity:1" />
      <stop
         id="stop3398"
         offset="1"
         style="stop-color:#5d536c;stop-opacity:1" />
    </linearGradient>
    <linearGradient
       inkscape:collect="always"
       xlink:href="#linearGradient3394"
       id="linearGradient5534"
       gradientUnits="userSpaceOnUse"
       gradientTransform="translate(-1035.7984,1460.497)"
       x1="548.9787"
       y1="-310.0397"
       x2="511.74536"
       y2="-309.25769" />
    <linearGradient
       inkscape:collect="always"
       xlink:href="#linearGradient3380"
       id="linearGradient5539"
       gradientUnits="userSpaceOnUse"
       gradientTransform="translate(-1104.5149,1460.497)"
       x1="549.00745"
       y1="-310.31183"
       x2="511.80453"
       y2="-309.47519" />
    <radialGradient
       inkscape:collect="always"
       xlink:href="#linearGradient3338"
       id="radialGradient5551"
       gradientUnits="userSpaceOnUse"
       gradientTransform="matrix(0.51554821,-0.84568081,1.1288979,0.68820444,-643.46887,1694.073)"
       cx="423.07739"
       cy="-187.4471"
       fx="423.07739"
       fy="-187.4471"
       r="166.84651" />
    <linearGradient
       inkscape:collect="always"
       xlink:href="#linearGradient3360"
       id="linearGradient5555"
       gradientUnits="userSpaceOnUse"
       gradientTransform="translate(-1124.2237,1458.7504)"
       x1="452.13895"
       y1="-403.7587"
       x2="425.63535"
       y2="-424.26743" />
    <linearGradient
       inkscape:collect="always"
       xlink:href="#linearGradient3360"
       id="linearGradient5558"
       gradientUnits="userSpaceOnUse"
       gradientTransform="translate(-1124.2237,1458.7504)"
       x1="452.13895"
       y1="-403.7587"
       x2="425.63535"
       y2="-424.26743" />
    <linearGradient
       id="linearGradient4274">
      <stop
         id="stop4276"
         offset="0"
         style="stop-color:#241c1c;stop-opacity:1" />
      <stop
         style="stop-color:#483737;stop-opacity:1;"
         offset="0.15879123"
         id="stop4286" />
      <stop
         style="stop-color:#544141;stop-opacity:1"
         offset="0.50204235"
         id="stop4282" />
      <stop
         id="stop4284"
         offset="0.75"
         style="stop-color:#483737;stop-opacity:1;" />
      <stop
         id="stop4278"
         offset="1"
         style="stop-color:#241c1c;stop-opacity:1" />
    </linearGradient>
    <linearGradient
       id="linearGradient4300"
       inkscape:collect="always">
      <stop
         id="stop4302"
         offset="0"
         style="stop-color:#513f3f;stop-opacity:1" />
      <stop
         id="stop4304"
         offset="1"
         style="stop-color:#916f6f;stop-opacity:1" />
    </linearGradient>
    <linearGradient
       id="linearGradient4338"
       inkscape:collect="always">
      <stop
         id="stop4340"
         offset="0"
         style="stop-color:#5a4545;stop-opacity:1" />
      <stop
         id="stop4342"
         offset="1"
         style="stop-color:#6c5353;stop-opacity:1" />
    </linearGradient>
    <linearGradient
       inkscape:collect="always"
       xlink:href="#linearGradient4338"
       id="linearGradient5824"
       gradientUnits="userSpaceOnUse"
       gradientTransform="matrix(1.1870923,0,0,1.1870923,557.10763,972.51967)"
       x1="506.36237"
       y1="-254.24303"
       x2="505.8338"
       y2="-219.35794" />
    <linearGradient
       inkscape:collect="always"
       xlink:href="#linearGradient4300"
       id="linearGradient5826"
       gradientUnits="userSpaceOnUse"
       gradientTransform="matrix(0.83444929,0,0,0.83444929,695.02334,866.91126)"
       x1="521.0072"
       y1="-422.45435"
       x2="521.0072"
       y2="-338.73444" />
    <linearGradient
       inkscape:collect="always"
       xlink:href="#linearGradient4274"
       id="linearGradient5828"
       gradientUnits="userSpaceOnUse"
       gradientTransform="matrix(0.83444929,0,0,0.83444929,741.18088,866.91126)"
       x1="536.79242"
       y1="-366.81332"
       x2="556.42566"
       y2="-324.86945" />
    <linearGradient
       y2="-301.63974"
       x2="535.34979"
       y1="-301.92004"
       x1="538.38654"
       gradientTransform="translate(-25.414983,34.384977)"
       gradientUnits="userSpaceOnUse"
       id="linearGradient5544"
       xlink:href="#linearGradient3146"
       inkscape:collect="always" />
    <linearGradient
       id="linearGradient3146"
       inkscape:collect="always">
      <stop
         id="stop3148"
         offset="0"
         style="stop-color:#1c1c24;stop-opacity:1;" />
      <stop
         id="stop3150"
         offset="1"
         style="stop-color:#1c1c24;stop-opacity:0;" />
    </linearGradient>
    <linearGradient
       y2="-254.24301"
       x2="132.40479"
       y1="-254.24301"
       x1="159.62572"
       gradientTransform="translate(-47.042016,6.3427437)"
       gradientUnits="userSpaceOnUse"
       id="linearGradient4078"
       xlink:href="#linearGradient3139"
       inkscape:collect="always" />
    <linearGradient
       y2="-408.62561"
       x2="159.96489"
       y1="-417.59561"
       x1="192.85487"
       gradientTransform="translate(-63.427437,6.3427437)"
       gradientUnits="userSpaceOnUse"
       id="linearGradient4076"
       xlink:href="#linearGradient3117"
       inkscape:collect="always" />
    <linearGradient
       y2="-408.62561"
       x2="159.96489"
       y1="-417.59561"
       x1="192.85487"
       gradientTransform="matrix(1.6191115,1.2420631,-1.2420631,1.6191115,-653.89128,220.57021)"
       gradientUnits="userSpaceOnUse"
       id="linearGradient4074"
       xlink:href="#linearGradient3117"
       inkscape:collect="always" />
    <linearGradient
       id="linearGradient3117"
       inkscape:collect="always">
      <stop
         id="stop3119"
         offset="0"
         style="stop-color:#aa4400;stop-opacity:1;" />
      <stop
         id="stop3121"
         offset="1"
         style="stop-color:#783000;stop-opacity:1" />
    </linearGradient>
    <linearGradient
       id="linearGradient3139"
       inkscape:collect="always">
      <stop
         id="stop3141"
         offset="0"
         style="stop-color:#2b1100;stop-opacity:1;" />
      <stop
         id="stop3143"
         offset="1"
         style="stop-color:#2b1100;stop-opacity:0;" />
    </linearGradient>
    <linearGradient
       id="linearGradient3911"
       inkscape:collect="always">
      <stop
         id="stop3913"
         offset="0"
         style="stop-color:#241c1c;stop-opacity:1" />
      <stop
         id="stop3915"
         offset="1"
         style="stop-color:#784421;stop-opacity:0;" />
    </linearGradient>
    <linearGradient
       id="linearGradient3971"
       inkscape:collect="always">
      <stop
         id="stop3973"
         offset="0"
         style="stop-color:#917c6f;stop-opacity:1;" />
      <stop
         id="stop3975"
         offset="1"
         style="stop-color:#28170b;stop-opacity:1" />
    </linearGradient>
    <linearGradient
       inkscape:collect="always"
       xlink:href="#linearGradient3911"
       id="linearGradient3762"
       gradientUnits="userSpaceOnUse"
       gradientTransform="translate(0,-16.661873)"
       x1="519.29504"
       y1="-260.8017"
       x2="508.18713"
       y2="-300.37363" />
    <linearGradient
       inkscape:collect="always"
       xlink:href="#linearGradient3971"
       id="linearGradient3786"
       gradientUnits="userSpaceOnUse"
       gradientTransform="matrix(0.9140942,0,0,0.9140942,290.747,786.33643)"
       x1="441.53964"
       y1="-273.2981"
       x2="511.65836"
       y2="-286.14163" />
    <linearGradient
       id="linearGradient3578"
       inkscape:collect="always">
      <stop
         id="stop3580"
         offset="0"
         style="stop-color:#1f1c24;stop-opacity:1;" />
      <stop
         id="stop3582"
         offset="1"
         style="stop-color:#1f1c24;stop-opacity:0;" />
    </linearGradient>
    <linearGradient
       id="linearGradient3604"
       inkscape:collect="always">
      <stop
         id="stop3606"
         offset="0"
         style="stop-color:#211e26;stop-opacity:1;" />
      <stop
         id="stop3608"
         offset="1"
         style="stop-color:#211e26;stop-opacity:0;" />
    </linearGradient>
    <linearGradient
       inkscape:collect="always"
       xlink:href="#linearGradient3578"
       id="linearGradient3958"
       gradientUnits="userSpaceOnUse"
       gradientTransform="matrix(1.1100531,0,0,1.1100531,2863.0486,903.46763)"
       x1="-1887.6512"
       y1="-315.29987"
       x2="-1887.4778"
       y2="-254.37988" />
    <linearGradient
       inkscape:collect="always"
       xlink:href="#linearGradient3604"
       id="linearGradient3967"
       gradientUnits="userSpaceOnUse"
       gradientTransform="matrix(1.1100531,0,0,1.1100531,2931.5428,903.46763)"
       x1="-1801.6218"
       y1="-327.32669"
       x2="-1798.4309"
       y2="-249.51823" />
    <linearGradient
       inkscape:collect="always"
       xlink:href="#linearGradient3265-7-8"
       id="linearGradient6694"
       gradientUnits="userSpaceOnUse"
       gradientTransform="matrix(-1.9601035,0,0,1.9601035,3084.4205,1291.2843)"
       x1="1128.5424"
       y1="-358.21252"
       x2="1128.5"
       y2="-350.88782" />
    <linearGradient
       inkscape:collect="always"
       xlink:href="#linearGradient3265-7-8"
       id="linearGradient6696"
       gradientUnits="userSpaceOnUse"
       gradientTransform="matrix(1.9601035,0,0,1.9601035,-1268.7026,1291.2843)"
       x1="1128.5424"
       y1="-358.21252"
       x2="1128.5"
       y2="-350.88782" />
    <linearGradient
       inkscape:collect="always"
       xlink:href="#linearGradient3265-7-8"
       id="linearGradient9421"
       gradientUnits="userSpaceOnUse"
       gradientTransform="matrix(-1.9601035,0,0,1.9601035,3084.4205,1291.2843)"
       x1="1128.5424"
       y1="-358.21252"
       x2="1128.5"
       y2="-350.88782" />
    <linearGradient
       inkscape:collect="always"
       xlink:href="#linearGradient3265-7-8"
       id="linearGradient9423"
       gradientUnits="userSpaceOnUse"
       gradientTransform="matrix(1.9601035,0,0,1.9601035,-1268.7026,1291.2843)"
       x1="1128.5424"
       y1="-358.21252"
       x2="1128.5"
       y2="-350.88782" />
    <linearGradient
       inkscape:collect="always"
       xlink:href="#linearGradient4094-1"
       id="linearGradient9425"
       gradientUnits="userSpaceOnUse"
       gradientTransform="matrix(0.64156397,0,0,0.64156397,-240.46334,1048.4872)"
       x1="987.61987"
       y1="-434.2847"
       x2="919.21014"
       y2="-435.80673" />
    <linearGradient
       inkscape:collect="always"
       xlink:href="#linearGradient4122-9"
       id="linearGradient9427"
       gradientUnits="userSpaceOnUse"
       gradientTransform="matrix(0.76362355,0,0,0.76362355,-529.2141,788.2198)"
       x1="1627.4237"
       y1="-275.98389"
       x2="1568.8258"
       y2="-208.25383" />
    <linearGradient
       inkscape:collect="always"
       xlink:href="#linearGradient3310"
       id="linearGradient9429"
       gradientUnits="userSpaceOnUse"
       x1="1748.3407"
       y1="-227.81718"
       x2="1759.3722"
       y2="-149.25218" />
    <radialGradient
       inkscape:collect="always"
       xlink:href="#linearGradient4871"
       id="radialGradient9431"
       gradientUnits="userSpaceOnUse"
       gradientTransform="matrix(1.6682146,1.6471163,-0.88417937,0.89550496,-1046.6412,-1706.4218)"
       cx="1014.4006"
       cy="-408.6366"
       fx="1014.4006"
       fy="-408.6366"
       r="120.84957" />
    <linearGradient
       inkscape:collect="always"
       xlink:href="#linearGradient3209"
       id="linearGradient9433"
       gradientUnits="userSpaceOnUse"
       x1="1033.9359"
       y1="-312.79977"
       x2="1033.103"
       y2="-341.95212" />
    <linearGradient
       inkscape:collect="always"
       xlink:href="#linearGradient3219"
       id="linearGradient9435"
       gradientUnits="userSpaceOnUse"
       x1="1033.9359"
       y1="-312.79977"
       x2="1033.103"
       y2="-341.95212" />
    <linearGradient
       inkscape:collect="always"
       xlink:href="#linearGradient4136"
       id="linearGradient9437"
       gradientUnits="userSpaceOnUse"
       gradientTransform="matrix(1.3519879,0,0,1.3519879,-2458.2999,1401.0995)"
       x1="1621.358"
       y1="-347.02103"
       x2="1731.0365"
       y2="-299.90375" />
    <linearGradient
       inkscape:collect="always"
       xlink:href="#linearGradient4283"
       id="linearGradient9439"
       gradientUnits="userSpaceOnUse"
       gradientTransform="translate(-2538.9898,1459.867)"
       x1="503.56857"
       y1="-348.85837"
       x2="512.40308"
       y2="-335.29108" />
    <linearGradient
       inkscape:collect="always"
       xlink:href="#linearGradient3449"
       id="linearGradient9441"
       gradientUnits="userSpaceOnUse"
       gradientTransform="translate(-2538.9898,1459.867)"
       x1="535.43597"
       y1="-304.05469"
       x2="522.1842"
       y2="-302.79257" />
    <linearGradient
       inkscape:collect="always"
       xlink:href="#linearGradient4233"
       id="linearGradient9443"
       gradientUnits="userSpaceOnUse"
       gradientTransform="translate(-2538.9898,1459.867)"
       x1="492.84091"
       y1="-285.43903"
       x2="581.34399"
       y2="-291.27615" />
    <linearGradient
       inkscape:collect="always"
       xlink:href="#linearGradient4817"
       id="linearGradient9445"
       gradientUnits="userSpaceOnUse"
       gradientTransform="matrix(0.89679722,0,0,0.89679722,-2045.7805,1424)"
       x1="660.06604"
       y1="-501.25412"
       x2="616.52441"
       y2="-327.7186" />
    <linearGradient
       inkscape:collect="always"
       xlink:href="#linearGradient5181"
       id="linearGradient9447"
       gradientUnits="userSpaceOnUse"
       gradientTransform="translate(-1159.9752,1449.158)"
       x1="-276.65112"
       y1="-462.97198"
       x2="-282.89807"
       y2="-279.57907" />
    <linearGradient
       inkscape:collect="always"
       xlink:href="#linearGradient5172"
       id="linearGradient9449"
       gradientUnits="userSpaceOnUse"
       gradientTransform="matrix(0.89679722,0,0,0.89679722,-2045.7805,1424)"
       x1="533.96741"
       y1="-432.47049"
       x2="555.86011"
       y2="-240.41187" />
    <linearGradient
       inkscape:collect="always"
       xlink:href="#linearGradient4817"
       id="linearGradient9451"
       gradientUnits="userSpaceOnUse"
       gradientTransform="matrix(0.82173933,0,0,0.82173933,-2014.5348,1366.3891)"
       x1="626.62103"
       y1="-258.30438"
       x2="602.01056"
       y2="-402.81216" />
    <linearGradient
       inkscape:collect="always"
       xlink:href="#linearGradient5193"
       id="linearGradient9453"
       gradientUnits="userSpaceOnUse"
       gradientTransform="matrix(0.89679722,0,0,0.89679722,-2020.1702,1428.0016)"
       x1="564.45752"
       y1="-396.48645"
       x2="567.13477"
       y2="-318.39944" />
    <linearGradient
       inkscape:collect="always"
       xlink:href="#linearGradient3360"
       id="linearGradient9455"
       gradientUnits="userSpaceOnUse"
       gradientTransform="translate(-1124.2237,1458.7504)"
       x1="452.13895"
       y1="-403.7587"
       x2="425.63535"
       y2="-424.26743" />
    <linearGradient
       inkscape:collect="always"
       xlink:href="#linearGradient3360"
       id="linearGradient9457"
       gradientUnits="userSpaceOnUse"
       gradientTransform="translate(-1124.2237,1458.7504)"
       x1="452.13895"
       y1="-403.7587"
       x2="425.63535"
       y2="-424.26743" />
    <radialGradient
       inkscape:collect="always"
       xlink:href="#linearGradient3338"
       id="radialGradient9459"
       gradientUnits="userSpaceOnUse"
       gradientTransform="matrix(0.51554821,-0.84568081,1.1288979,0.68820444,-643.46887,1694.073)"
       cx="423.07739"
       cy="-187.4471"
       fx="423.07739"
       fy="-187.4471"
       r="166.84651" />
    <linearGradient
       inkscape:collect="always"
       xlink:href="#linearGradient3380"
       id="linearGradient9461"
       gradientUnits="userSpaceOnUse"
       gradientTransform="translate(-1104.5149,1460.497)"
       x1="549.00745"
       y1="-310.31183"
       x2="511.80453"
       y2="-309.47519" />
    <linearGradient
       inkscape:collect="always"
       xlink:href="#linearGradient3394"
       id="linearGradient9463"
       gradientUnits="userSpaceOnUse"
       gradientTransform="translate(-1035.7984,1460.497)"
       x1="548.9787"
       y1="-310.0397"
       x2="511.74536"
       y2="-309.25769" />
    <linearGradient
       inkscape:collect="always"
       xlink:href="#linearGradient4338"
       id="linearGradient9465"
       gradientUnits="userSpaceOnUse"
       gradientTransform="matrix(1.1870923,0,0,1.1870923,557.10763,972.51967)"
       x1="506.36237"
       y1="-254.24303"
       x2="505.8338"
       y2="-219.35794" />
    <linearGradient
       inkscape:collect="always"
       xlink:href="#linearGradient4300"
       id="linearGradient9467"
       gradientUnits="userSpaceOnUse"
       gradientTransform="matrix(0.83444929,0,0,0.83444929,695.02334,866.91126)"
       x1="521.0072"
       y1="-422.45435"
       x2="521.0072"
       y2="-338.73444" />
    <linearGradient
       inkscape:collect="always"
       xlink:href="#linearGradient4274"
       id="linearGradient9469"
       gradientUnits="userSpaceOnUse"
       gradientTransform="matrix(0.83444929,0,0,0.83444929,741.18088,866.91126)"
       x1="536.79242"
       y1="-366.81332"
       x2="556.42566"
       y2="-324.86945" />
    <linearGradient
       inkscape:collect="always"
       xlink:href="#linearGradient3146"
       id="linearGradient9471"
       gradientUnits="userSpaceOnUse"
       gradientTransform="translate(-25.414983,34.384977)"
       x1="538.38654"
       y1="-301.92004"
       x2="535.34979"
       y2="-301.63974" />
    <linearGradient
       inkscape:collect="always"
       xlink:href="#linearGradient3117"
       id="linearGradient9473"
       gradientUnits="userSpaceOnUse"
       gradientTransform="matrix(1.6191115,1.2420631,-1.2420631,1.6191115,-653.89128,220.57021)"
       x1="192.85487"
       y1="-417.59561"
       x2="159.96489"
       y2="-408.62561" />
    <linearGradient
       inkscape:collect="always"
       xlink:href="#linearGradient3117"
       id="linearGradient9475"
       gradientUnits="userSpaceOnUse"
       gradientTransform="translate(-63.427437,6.3427437)"
       x1="192.85487"
       y1="-417.59561"
       x2="159.96489"
       y2="-408.62561" />
    <linearGradient
       inkscape:collect="always"
       xlink:href="#linearGradient3139"
       id="linearGradient9477"
       gradientUnits="userSpaceOnUse"
       gradientTransform="translate(-47.042016,6.3427437)"
       x1="159.62572"
       y1="-254.24301"
       x2="132.40479"
       y2="-254.24301" />
    <linearGradient
       inkscape:collect="always"
       xlink:href="#linearGradient3971"
       id="linearGradient9479"
       gradientUnits="userSpaceOnUse"
       gradientTransform="matrix(0.9140942,0,0,0.9140942,290.747,786.33643)"
       x1="441.53964"
       y1="-273.2981"
       x2="511.65836"
       y2="-286.14163" />
    <linearGradient
       inkscape:collect="always"
       xlink:href="#linearGradient3911"
       id="linearGradient9481"
       gradientUnits="userSpaceOnUse"
       gradientTransform="translate(0,-16.661873)"
       x1="519.29504"
       y1="-260.8017"
       x2="508.18713"
       y2="-300.37363" />
    <linearGradient
       inkscape:collect="always"
       xlink:href="#linearGradient3604"
       id="linearGradient9483"
       gradientUnits="userSpaceOnUse"
       gradientTransform="matrix(1.1100531,0,0,1.1100531,2931.5428,903.46763)"
       x1="-1801.6218"
       y1="-327.32669"
       x2="-1798.4309"
       y2="-249.51823" />
    <linearGradient
       inkscape:collect="always"
       xlink:href="#linearGradient3578"
       id="linearGradient9485"
       gradientUnits="userSpaceOnUse"
       gradientTransform="matrix(1.1100531,0,0,1.1100531,2863.0486,903.46763)"
       x1="-1887.6512"
       y1="-315.29987"
       x2="-1887.4778"
       y2="-254.37988" />
    <linearGradient
       inkscape:collect="always"
       xlink:href="#linearGradient4283"
       id="linearGradient10519"
       gradientUnits="userSpaceOnUse"
       gradientTransform="translate(-2538.9898,1459.867)"
       x1="503.56857"
       y1="-348.85837"
       x2="512.40308"
       y2="-335.29108" />
    <linearGradient
       inkscape:collect="always"
       xlink:href="#linearGradient3449"
       id="linearGradient10521"
       gradientUnits="userSpaceOnUse"
       gradientTransform="translate(-2538.9898,1459.867)"
       x1="535.43597"
       y1="-304.05469"
       x2="522.1842"
       y2="-302.79257" />
    <linearGradient
       inkscape:collect="always"
       xlink:href="#linearGradient4233"
       id="linearGradient10523"
       gradientUnits="userSpaceOnUse"
       gradientTransform="translate(-2538.9898,1459.867)"
       x1="492.84091"
       y1="-285.43903"
       x2="581.34399"
       y2="-291.27615" />
    <linearGradient
       inkscape:collect="always"
       xlink:href="#linearGradient3265-7-8"
       id="linearGradient10525"
       gradientUnits="userSpaceOnUse"
       gradientTransform="matrix(-1.9601035,0,0,1.9601035,3084.4205,1291.2843)"
       x1="1128.5424"
       y1="-358.21252"
       x2="1128.5"
       y2="-350.88782" />
    <linearGradient
       inkscape:collect="always"
       xlink:href="#linearGradient3265-7-8"
       id="linearGradient10527"
       gradientUnits="userSpaceOnUse"
       gradientTransform="matrix(1.9601035,0,0,1.9601035,-1268.7026,1291.2843)"
       x1="1128.5424"
       y1="-358.21252"
       x2="1128.5"
       y2="-350.88782" />
    <linearGradient
       inkscape:collect="always"
       xlink:href="#linearGradient4094-1"
       id="linearGradient10529"
       gradientUnits="userSpaceOnUse"
       gradientTransform="matrix(0.64156397,0,0,0.64156397,-240.46334,1048.4872)"
       x1="987.61987"
       y1="-434.2847"
       x2="919.21014"
       y2="-435.80673" />
    <linearGradient
       inkscape:collect="always"
       xlink:href="#linearGradient4122-9"
       id="linearGradient10531"
       gradientUnits="userSpaceOnUse"
       gradientTransform="matrix(0.76362355,0,0,0.76362355,-529.2141,788.2198)"
       x1="1627.4237"
       y1="-275.98389"
       x2="1568.8258"
       y2="-208.25383" />
    <linearGradient
       inkscape:collect="always"
       xlink:href="#linearGradient3310"
       id="linearGradient10533"
       gradientUnits="userSpaceOnUse"
       x1="1748.3407"
       y1="-227.81718"
       x2="1759.3722"
       y2="-149.25218" />
    <radialGradient
       inkscape:collect="always"
       xlink:href="#linearGradient4871"
       id="radialGradient10535"
       gradientUnits="userSpaceOnUse"
       gradientTransform="matrix(1.6682146,1.6471163,-0.88417937,0.89550496,-1046.6412,-1706.4218)"
       cx="1014.4006"
       cy="-408.6366"
       fx="1014.4006"
       fy="-408.6366"
       r="120.84957" />
    <linearGradient
       inkscape:collect="always"
       xlink:href="#linearGradient3209"
       id="linearGradient10537"
       gradientUnits="userSpaceOnUse"
       x1="1033.9359"
       y1="-312.79977"
       x2="1033.103"
       y2="-341.95212" />
    <linearGradient
       inkscape:collect="always"
       xlink:href="#linearGradient3219"
       id="linearGradient10539"
       gradientUnits="userSpaceOnUse"
       x1="1033.9359"
       y1="-312.79977"
       x2="1033.103"
       y2="-341.95212" />
    <linearGradient
       inkscape:collect="always"
       xlink:href="#linearGradient4136"
       id="linearGradient10541"
       gradientUnits="userSpaceOnUse"
       gradientTransform="matrix(1.3519879,0,0,1.3519879,-2458.2999,1401.0995)"
       x1="1621.358"
       y1="-347.02103"
       x2="1731.0365"
       y2="-299.90375" />
    <linearGradient
       inkscape:collect="always"
       xlink:href="#linearGradient4817"
       id="linearGradient10572"
       gradientUnits="userSpaceOnUse"
       gradientTransform="matrix(0.89679722,0,0,0.89679722,-2045.7805,1424)"
       x1="660.06604"
       y1="-501.25412"
       x2="616.52441"
       y2="-327.7186" />
    <linearGradient
       inkscape:collect="always"
       xlink:href="#linearGradient5181"
       id="linearGradient10574"
       gradientUnits="userSpaceOnUse"
       gradientTransform="translate(-1159.9752,1449.158)"
       x1="-276.65112"
       y1="-462.97198"
       x2="-282.89807"
       y2="-279.57907" />
    <linearGradient
       inkscape:collect="always"
       xlink:href="#linearGradient5172"
       id="linearGradient10576"
       gradientUnits="userSpaceOnUse"
       gradientTransform="matrix(0.89679722,0,0,0.89679722,-2045.7805,1424)"
       x1="533.96741"
       y1="-432.47049"
       x2="555.86011"
       y2="-240.41187" />
    <linearGradient
       inkscape:collect="always"
       xlink:href="#linearGradient4817"
       id="linearGradient10578"
       gradientUnits="userSpaceOnUse"
       gradientTransform="matrix(0.82173933,0,0,0.82173933,-2014.5348,1366.3891)"
       x1="626.62103"
       y1="-258.30438"
       x2="602.01056"
       y2="-402.81216" />
    <linearGradient
       inkscape:collect="always"
       xlink:href="#linearGradient5193"
       id="linearGradient10580"
       gradientUnits="userSpaceOnUse"
       gradientTransform="matrix(0.89679722,0,0,0.89679722,-2020.1702,1428.0016)"
       x1="564.45752"
       y1="-396.48645"
       x2="567.13477"
       y2="-318.39944" />
    <linearGradient
       inkscape:collect="always"
       xlink:href="#linearGradient3360"
       id="linearGradient10582"
       gradientUnits="userSpaceOnUse"
       gradientTransform="translate(-1124.2237,1458.7504)"
       x1="452.13895"
       y1="-403.7587"
       x2="425.63535"
       y2="-424.26743" />
    <linearGradient
       inkscape:collect="always"
       xlink:href="#linearGradient3360"
       id="linearGradient10584"
       gradientUnits="userSpaceOnUse"
       gradientTransform="translate(-1124.2237,1458.7504)"
       x1="452.13895"
       y1="-403.7587"
       x2="425.63535"
       y2="-424.26743" />
    <radialGradient
       inkscape:collect="always"
       xlink:href="#linearGradient3338"
       id="radialGradient10586"
       gradientUnits="userSpaceOnUse"
       gradientTransform="matrix(0.51554821,-0.84568081,1.1288979,0.68820444,-643.46887,1694.073)"
       cx="423.07739"
       cy="-187.4471"
       fx="423.07739"
       fy="-187.4471"
       r="166.84651" />
    <linearGradient
       inkscape:collect="always"
       xlink:href="#linearGradient3380"
       id="linearGradient10588"
       gradientUnits="userSpaceOnUse"
       gradientTransform="translate(-1104.5149,1460.497)"
       x1="549.00745"
       y1="-310.31183"
       x2="511.80453"
       y2="-309.47519" />
    <linearGradient
       inkscape:collect="always"
       xlink:href="#linearGradient3394"
       id="linearGradient10590"
       gradientUnits="userSpaceOnUse"
       gradientTransform="translate(-1035.7984,1460.497)"
       x1="548.9787"
       y1="-310.0397"
       x2="511.74536"
       y2="-309.25769" />
    <linearGradient
       inkscape:collect="always"
       xlink:href="#linearGradient4338"
       id="linearGradient10592"
       gradientUnits="userSpaceOnUse"
       gradientTransform="matrix(1.1870923,0,0,1.1870923,557.10763,972.51967)"
       x1="506.36237"
       y1="-254.24303"
       x2="505.8338"
       y2="-219.35794" />
    <linearGradient
       inkscape:collect="always"
       xlink:href="#linearGradient4300"
       id="linearGradient10594"
       gradientUnits="userSpaceOnUse"
       gradientTransform="matrix(0.83444929,0,0,0.83444929,695.02334,866.91126)"
       x1="521.0072"
       y1="-422.45435"
       x2="521.0072"
       y2="-338.73444" />
    <linearGradient
       inkscape:collect="always"
       xlink:href="#linearGradient4274"
       id="linearGradient10596"
       gradientUnits="userSpaceOnUse"
       gradientTransform="matrix(0.83444929,0,0,0.83444929,741.18088,866.91126)"
       x1="536.79242"
       y1="-366.81332"
       x2="556.42566"
       y2="-324.86945" />
    <linearGradient
       inkscape:collect="always"
       xlink:href="#linearGradient3604"
       id="linearGradient10598"
       gradientUnits="userSpaceOnUse"
       gradientTransform="matrix(1.1100531,0,0,1.1100531,2931.5428,903.46763)"
       x1="-1801.6218"
       y1="-327.32669"
       x2="-1798.4309"
       y2="-249.51823" />
    <linearGradient
       inkscape:collect="always"
       xlink:href="#linearGradient3578"
       id="linearGradient10600"
       gradientUnits="userSpaceOnUse"
       gradientTransform="matrix(1.1100531,0,0,1.1100531,2863.0486,903.46763)"
       x1="-1887.6512"
       y1="-315.29987"
       x2="-1887.4778"
       y2="-254.37988" />
    <linearGradient
       inkscape:collect="always"
       xlink:href="#linearGradient3971"
       id="linearGradient10602"
       gradientUnits="userSpaceOnUse"
       gradientTransform="matrix(0.9140942,0,0,0.9140942,290.747,786.33643)"
       x1="441.53964"
       y1="-273.2981"
       x2="511.65836"
       y2="-286.14163" />
    <linearGradient
       inkscape:collect="always"
       xlink:href="#linearGradient3911"
       id="linearGradient10604"
       gradientUnits="userSpaceOnUse"
       gradientTransform="translate(0,-16.661873)"
       x1="519.29504"
       y1="-260.8017"
       x2="508.18713"
       y2="-300.37363" />
    <linearGradient
       inkscape:collect="always"
       xlink:href="#linearGradient3117"
       id="linearGradient10606"
       gradientUnits="userSpaceOnUse"
       gradientTransform="matrix(1.6191115,1.2420631,-1.2420631,1.6191115,-653.89128,220.57021)"
       x1="192.85487"
       y1="-417.59561"
       x2="159.96489"
       y2="-408.62561" />
    <linearGradient
       inkscape:collect="always"
       xlink:href="#linearGradient3117"
       id="linearGradient10608"
       gradientUnits="userSpaceOnUse"
       gradientTransform="translate(-63.427437,6.3427437)"
       x1="192.85487"
       y1="-417.59561"
       x2="159.96489"
       y2="-408.62561" />
    <linearGradient
       inkscape:collect="always"
       xlink:href="#linearGradient3139"
       id="linearGradient10610"
       gradientUnits="userSpaceOnUse"
       gradientTransform="translate(-47.042016,6.3427437)"
       x1="159.62572"
       y1="-254.24301"
       x2="132.40479"
       y2="-254.24301" />
    <linearGradient
       inkscape:collect="always"
       xlink:href="#linearGradient3146"
       id="linearGradient10612"
       gradientUnits="userSpaceOnUse"
       gradientTransform="translate(-25.414983,34.384977)"
       x1="538.38654"
       y1="-301.92004"
       x2="535.34979"
       y2="-301.63974" />
  </defs>
  <sodipodi:namedview
     id="base"
     pagecolor="#ffffff"
     bordercolor="#666666"
     borderopacity="1.0"
     inkscape:pageopacity="0.0"
     inkscape:pageshadow="2"
     inkscape:zoom="0.2681029"
     inkscape:cx="1324.1403"
     inkscape:cy="549.18942"
     inkscape:document-units="px"
     inkscape:current-layer="layer1"
     showgrid="false"
     fit-margin-top="0"
     fit-margin-left="0"
     fit-margin-right="0"
     fit-margin-bottom="0"
     inkscape:window-width="1920"
     inkscape:window-height="1017"
     inkscape:window-x="0"
     inkscape:window-y="28"
     inkscape:window-maximized="1"
     showguides="true"
     inkscape:guide-bbox="true"
     inkscape:snap-grids="false"
     inkscape:snap-to-guides="false">
    <sodipodi:guide
       orientation="0,1"
       position="371.87981,1115.6394"
       id="guide6622" />
    <sodipodi:guide
       orientation="0,1"
       position="73.848474,189.89608"
       id="guide6624" />
    <sodipodi:guide
       orientation="1,0"
       position="363.96748,1521.806"
       id="guide6626" />
    <sodipodi:guide
       orientation="1,0"
       position="862.44468,1442.6827"
       id="guide6628" />
  </sodipodi:namedview>
  <metadata
     id="metadata7">
    <rdf:RDF>
      <cc:Work
         rdf:about="">
        <dc:format>image/svg+xml</dc:format>
        <dc:type
           rdf:resource="http://purl.org/dc/dcmitype/StillImage" />
        <dc:title />
      </cc:Work>
    </rdf:RDF>
  </metadata>
  <g
     inkscape:label="Capa 1"
     inkscape:groupmode="layer"
     id="layer1"
     transform="translate(15278.44,186.36436)">
    <rect
       style="opacity:0.8;fill:#000000;fill-opacity:1;stroke:none"
       id="rect6564"
       width="23217.738"
       height="1351.7388"
       x="-15278.44"
       y="-186.36436" />
    <g
       id="g6630"
       inkscape:export-filename="/home/usuario/Documentos/nitri0s-prometeo-abc/prometeo/textures/b.png"
       inkscape:export-xdpi="90"
       inkscape:export-ydpi="90">
      <g
         transform="translate(-17165.504,29.118503)"
         id="g7727">
        <g
           style="font-size:204.73330688px;font-style:normal;font-variant:normal;font-weight:normal;font-stretch:normal;line-height:125%;letter-spacing:0px;word-spacing:0px;fill:#ffffff;fill-opacity:1;stroke:none;font-family:Short Stack;-inkscape-font-specification:Short Stack"
           id="text3044-6">
          <path
             inkscape:connector-curvature="0"
             d="m 2380.3175,549.50969 c 0,-1.53282 0.1332,-2.89904 0.3998,-4.09867 0.2666,-1.26624 0.4665,-2.56581 0.5999,-3.89873 -10e-5,-0.53314 -0.1667,-1.39952 -0.4999,-2.59915 -0.3332,-1.26623 -0.4665,-2.63245 -0.3999,-4.09866 l 0.7998,-32.68935 0,-18.99382 c 0,-3.13223 0,-6.4978 0,-10.09671 0,-3.66538 0,-7.46414 0,-11.39629 0.067,-3.93195 0.1333,-7.96396 0.1999,-12.09606 0.067,-4.19851 0.1666,-8.39714 0.2999,-12.59589 0.067,-1.39942 0.3999,-2.76564 0.9997,-4.09867 0.5998,-1.33277 1.2995,-2.53238 2.0993,-3.59882 0.8664,-1.13284 1.8327,-2.06587 2.8991,-2.79909 1.0663,-0.79961 2.1659,-1.36609 3.2989,-1.69945 6.931,-1.73263 13.9287,-3.06553 20.9932,-3.9987 7.0643,-0.99953 13.7954,-1.49937 20.1934,-1.49951 2.8656,1.4e-4 5.9979,0.46665 9.3969,1.39955 3.3988,0.86652 6.5645,2.16609 9.4969,3.89873 2.9323,1.7329 5.3648,3.89886 7.2976,6.49788 1.9993,2.53263 2.999,5.43168 2.9991,8.69717 -10e-5,2.33269 -0.4,4.49864 -1.1996,6.49788 -0.7999,1.99946 -1.8329,3.86551 -3.099,5.59818 -1.1997,1.66622 -2.566,3.19906 -4.0987,4.5985 -1.4663,1.333 -2.8991,2.53261 -4.2986,3.59883 5.6647,1.33299 10.8297,3.26569 15.495,5.79811 4.7316,2.53259 8.7637,5.69823 12.096,9.4969 3.3988,3.7322 5.9979,8.09744 7.7975,13.09574 1.8659,4.99843 2.7989,10.62993 2.7991,16.89449 -2e-4,9.13041 -1.5663,16.72792 -4.6985,22.79258 -3.0658,6.06471 -7.1978,11.02976 -12.396,14.89515 -5.1984,3.79877 -11.1964,6.69782 -17.9941,8.69716 -6.7979,1.93271 -13.9289,3.33225 -21.393,4.19864 -2.7992,0.33322 -5.1984,0.63312 -7.1977,0.8997 -1.9994,0.19994 -3.7988,0.39987 -5.3982,0.59981 -1.5329,0.13329 -2.9658,0.23325 -4.2986,0.2999 -1.2663,0.0666 -2.5992,0.1 -3.9987,0.1 -0.7332,0 -1.5329,-0.0667 -2.3992,-0.19994 -0.8665,-0.13329 -1.6995,-0.19993 -2.4992,-0.19993 -0.7998,0 -1.4663,0.13329 -1.9994,0.39987 -0.4665,0.26658 -0.9664,0.53316 -1.4995,0.79974 -0.4666,0.33322 -1.0997,0.5998 -1.8994,0.79974 -0.7331,0.26657 -1.7994,0.39986 -3.1989,0.39987 -1.3996,-10e-6 -2.9991,-0.23326 -4.7985,-0.69978 -1.7994,-0.39987 -3.5322,-0.99967 -5.1983,-1.79941 -1.5995,-0.86638 -2.9657,-1.9327 -4.0986,-3.19896 -1.0664,-1.33289 -1.5995,-2.86572 -1.5995,-4.5985 m 18.0941,-86.37186 c 1.9993,-0.46642 3.8987,-1.19952 5.6981,-2.19929 1.7994,-1.06622 3.7654,-1.89928 5.8981,-2.49918 0.7997,-0.13319 1.7994,-0.26648 2.999,-0.39987 1.2662,-0.19984 2.5991,-0.36645 3.9987,-0.49984 1.4662,-0.19983 2.9323,-0.36645 4.3986,-0.49984 1.5328,-0.19983 2.999,-0.36644 4.3986,-0.49984 1.1995,-0.73299 2.7657,-1.4994 4.6984,-2.29925 1.9993,-0.86628 3.932,-1.83263 5.7981,-2.89905 1.866,-1.06621 3.4655,-2.29914 4.7985,-3.6988 1.3328,-1.39943 1.9992,-3.03223 1.9993,-4.8984 -1e-4,-1.7993 -1.6329,-3.33213 -4.8984,-4.5985 -3.199,-1.26614 -7.6309,-1.89926 -13.2956,-1.89938 -0.9331,1.2e-4 -2.2327,0.0668 -3.8988,0.19993 -1.5995,0.0668 -3.3656,0.2667 -5.2983,0.59981 -1.9327,0.2667 -3.8987,0.63324 -5.898,1.09964 -1.9994,0.39999 -3.7988,0.96647 -5.3983,1.69944 -1.5995,0.66657 -2.9324,1.46631 -3.9987,2.39922 -1.0663,0.8665 -1.5995,1.8995 -1.5994,3.09899 l -0.3999,17.79421 m 1.7994,74.47573 c 0,0.0667 0.5664,0.16664 1.6994,0.29991 1.1996,0.0667 2.5658,0.16663 4.0987,0.2999 1.5328,0.0667 3.0323,0.13331 4.4985,0.19993 1.5328,0.0667 2.6325,0.1 3.299,0.1 4.1985,2e-5 8.4638,-0.16659 12.7958,-0.49984 4.3985,-0.3332 8.6304,-0.96633 12.6959,-1.89938 4.1319,-0.933 7.9973,-2.19926 11.5962,-3.79876 3.5987,-1.6661 6.731,-3.76541 9.3969,-6.29795 2.6657,-2.59912 4.765,-5.73143 6.298,-9.39694 1.5993,-3.73207 2.3991,-8.09731 2.3992,-13.09573 -1e-4,-4.86502 -1.1997,-9.16362 -3.5988,-12.8958 -2.3327,-3.79869 -5.3651,-6.99765 -9.0971,-9.59687 -3.7322,-2.59908 -7.8975,-4.5651 -12.4959,-5.89808 -4.5319,-1.33282 -9.0305,-1.99927 -13.4956,-1.99935 -2.4659,8e-5 -4.7319,0.4666 -6.7978,1.39954 -1.9994,0.86647 -3.8988,1.83282 -5.6981,2.89906 -1.7995,0.99975 -3.5656,1.9661 -5.2983,2.89905 -1.6662,0.86647 -3.3656,1.29966 -5.0983,1.29958 -0.8665,8e-5 -1.7995,-0.0666 -2.7991,-0.19993 -0.9331,-0.19986 -1.6995,-0.29983 -2.2993,-0.29991 -0.4665,8e-5 -0.9997,0.20002 -1.5995,0.59981 -0.5998,0.39994 -1.1663,0.9331 -1.6994,1.59948 -10e-5,1.5329 -0.067,3.19903 -0.1999,4.99837 -0.067,1.73284 -0.1001,3.36564 -0.1,4.8984 -10e-5,6.06475 0.2665,12.19608 0.7997,18.39401 0.5998,6.13138 0.8997,12.32935 0.8997,18.59394 0,1.19964 -0.033,2.43257 -0.1,3.6988 -10e-5,1.19963 -0.033,2.43256 -0.1,3.69879"
             id="path7022" />
          <path
             inkscape:connector-curvature="0"
             d="m 2516.4731,547.11047 c -0.1333,-2.33256 -0.2333,-5.83142 -0.2999,-10.49658 -0.067,-4.73177 -0.1,-10.09668 -0.1,-16.09476 -10e-5,-6.06464 0.033,-12.5292 0.1,-19.39368 0.067,-6.93101 0.1,-13.76211 0.1,-20.49332 0,-6.73106 0,-13.09565 0,-19.09378 0,-6.06459 -0.033,-11.26289 -0.1,-15.59492 l -0.2999,-16.49463 c 0,-0.59968 0,-1.39941 0,-2.39922 0.067,-1.06619 0.1,-2.1325 0.1,-3.19896 0,-1.06618 0,-2.03253 0,-2.89905 0.067,-0.86625 0.1,-1.43273 0.1,-1.69945 -1e-4,-2.7323 0.6331,-4.86494 1.8993,-6.39791 1.3329,-1.53269 3.8321,-2.29911 7.4976,-2.29926 0.8663,1.5e-4 1.8327,0.16676 2.899,0.49984 1.0663,0.26673 2.066,0.6666 2.9991,1.19961 0.933,0.53331 1.6994,1.19976 2.2992,1.99935 0.6664,0.73324 0.9997,1.5663 0.9997,2.49919 l 0.1999,9.4969 c 0.067,3.33238 0.067,6.49801 0,9.49691 -0.067,2.9325 -0.1666,5.86487 -0.2999,8.79713 -0.067,2.86585 -0.1666,5.79822 -0.2999,8.79714 -0.067,2.93248 -0.1,6.03146 -0.1,9.29697 3.9986,-3.3988 8.6638,-6.16456 13.9954,-8.2973 5.3315,-2.19918 11.4295,-3.29882 18.294,-3.29892 17.0611,1e-4 29.9902,4.2987 38.7874,12.8958 8.8637,8.59728 13.2956,21.92626 13.2957,39.98697 -1e-4,7.06441 -1.0331,13.36235 -3.099,18.89384 -1.9995,5.46492 -4.6986,10.26335 -8.0974,14.39531 -3.3323,4.13201 -7.1644,7.66419 -11.4962,10.59655 -4.332,2.86574 -8.8306,5.19831 -13.4956,6.99772 -4.5986,1.73277 -9.1971,2.99903 -13.7955,3.79877 -4.532,0.79973 -8.6973,1.1996 -12.496,1.19961 -3.4656,-10e-6 -6.9977,-0.33323 -10.5965,-0.99968 -3.5989,-0.66645 -6.9978,-1.56615 -10.1967,-2.69912 -0.8664,1.19961 -2.066,2.16596 -3.5988,2.89906 -1.4662,0.73309 -3.199,1.09964 -5.1983,1.09964 -1.7995,0 -3.299,-0.39987 -4.4986,-1.19961 -1.1996,-0.7331 -2.1993,-1.69945 -2.999,-2.89906 -0.7998,-1.26625 -1.3996,-2.66579 -1.7994,-4.19863 -0.3999,-1.53283 -0.6332,-3.09898 -0.6998,-4.69847 m 20.1934,-6.89775 c 0.9997,0.53318 2.2659,0.96637 3.7988,1.29957 1.5328,0.33325 3.1656,0.59983 4.8984,0.79974 1.7327,0.19995 3.4988,0.33324 5.2983,0.39987 1.866,0.0667 3.5988,0.0667 5.1983,0 3.4655,-0.13327 7.0643,-0.63311 10.7965,-1.49951 3.732,-0.86636 7.2975,-2.09929 10.6965,-3.69879 3.4654,-1.59946 6.6644,-3.56548 9.5969,-5.89808 2.9323,-2.39919 5.3315,-5.16495 7.1976,-8.2973 1.2662,-1.86602 2.2325,-3.96533 2.8991,-6.29795 0.733,-2.33253 1.2661,-4.76507 1.5995,-7.29762 0.3331,-2.53246 0.533,-5.06496 0.5998,-7.59752 0.066,-2.5991 0.1,-5.06496 0.1,-7.39759 -0.2,-4.86502 -1.4996,-8.96368 -3.8987,-12.296 -2.3327,-3.33217 -5.265,-6.03129 -8.7971,-8.09736 -3.4657,-2.06591 -7.2977,-3.5321 -11.4963,-4.39857 -4.1321,-0.93294 -8.0641,-1.39945 -11.7962,-1.39954 -2.3992,9e-5 -4.9984,0.33331 -7.7974,0.99967 -2.7325,0.66654 -5.3983,1.59957 -7.9974,2.79909 -2.5992,1.13305 -4.9984,2.49927 -7.1977,4.09866 -2.1326,1.59956 -3.7988,3.33233 -4.9983,5.19831 -0.2666,0.13337 -0.4666,1.19969 -0.5998,3.19896 -0.067,1.99942 -0.1,4.4986 -0.1,7.49756 0,2.93244 0,6.16471 0,9.69684 0.067,3.53223 0.1332,6.96445 0.1999,10.29664 0.067,3.33229 0.1,6.33131 0.1,8.99707 0.067,2.66584 0.1,4.56521 0.1,5.69815 -1e-4,2.06602 0.1,4.33195 0.2999,6.79778 0.2665,2.39924 0.6997,4.53188 1.2995,6.39792"
             id="path7024" />
        </g>
        <g
           style="font-size:120.21715546px;font-style:normal;font-weight:normal;line-height:125%;letter-spacing:0px;word-spacing:0px;fill:#ffffff;fill-opacity:1;stroke:none;font-family:Sans"
           id="text3048-8">
          <path
             inkscape:connector-curvature="0"
             d="m 2347.6018,673.7569 c 0,-0.90005 0.078,-1.70228 0.2348,-2.40669 0.1565,-0.74352 0.2739,-1.50662 0.3522,-2.28929 0,-0.31305 -0.098,-0.82178 -0.2935,-1.52619 -0.1957,-0.74352 -0.2739,-1.54575 -0.2348,-2.40669 l 0.4696,-19.19483 0,-11.15296 c 0,-1.83922 0,-3.81544 0,-5.92868 0,-2.15227 0,-4.38286 0,-6.69177 0.039,-2.3088 0.078,-4.67636 0.1174,-7.10268 0.039,-2.46532 0.098,-4.93071 0.1761,-7.39617 0.039,-0.82173 0.2348,-1.62396 0.587,-2.40669 0.3522,-0.78259 0.7631,-1.48699 1.2327,-2.11319 0.5087,-0.66519 1.0761,-1.21306 1.7023,-1.6436 0.6261,-0.46952 1.2718,-0.80215 1.9371,-0.99789 4.0698,-1.01739 8.1788,-1.80005 12.3269,-2.348 4.1481,-0.58691 8.1006,-0.88041 11.8574,-0.88049 1.6827,8e-5 3.5219,0.27401 5.5178,0.82179 1.9957,0.50882 3.8545,1.27191 5.5765,2.2893 1.7218,1.01754 3.1501,2.28936 4.285,3.81548 1.174,1.48714 1.761,3.18943 1.761,5.10688 0,1.36973 -0.2348,2.64156 -0.7044,3.81549 -0.4696,1.17406 -1.0762,2.26979 -1.8197,3.28719 -0.7044,0.97839 -1.5066,1.87845 -2.4067,2.70019 -0.8609,0.78272 -1.7023,1.48712 -2.524,2.11319 3.3262,0.78272 6.359,1.91758 9.0984,3.40459 2.7784,1.48711 5.146,3.34593 7.1027,5.57648 1.9957,2.1915 3.5219,4.75472 4.5786,7.68967 1.0956,2.93502 1.6435,6.24178 1.6436,9.92026 -1e-4,5.36127 -0.9197,9.82245 -2.7589,13.38355 -1.8002,3.56114 -4.2265,6.47655 -7.2788,8.74627 -3.0524,2.2306 -6.5744,3.93289 -10.566,5.10688 -3.9916,1.13486 -8.1788,1.95666 -12.5617,2.46539 -1.6436,0.19567 -3.0524,0.37177 -4.2264,0.5283 -1.174,0.1174 -2.2306,0.2348 -3.1698,0.3522 -0.9001,0.0783 -1.7414,0.13696 -2.5241,0.1761 -0.7435,0.0391 -1.5262,0.0587 -2.348,0.0587 -0.4305,0 -0.9,-0.0391 -1.4088,-0.1174 -0.5087,-0.0783 -0.9979,-0.1174 -1.4674,-0.1174 -0.4697,0 -0.861,0.0783 -1.174,0.2348 -0.274,0.15653 -0.5675,0.31306 -0.8805,0.46959 -0.274,0.19567 -0.6458,0.3522 -1.1153,0.4696 -0.4305,0.15653 -1.0567,0.2348 -1.8784,0.2348 -0.8218,0 -1.761,-0.13696 -2.8176,-0.4109 -1.0566,-0.2348 -2.0741,-0.58699 -3.0524,-1.05659 -0.9392,-0.50873 -1.7414,-1.13486 -2.4067,-1.8784 -0.6261,-0.78266 -0.9392,-1.68272 -0.9392,-2.70019 m 10.6247,-50.71661 c 1.1739,-0.27387 2.2892,-0.70434 3.3459,-1.29139 1.0565,-0.62608 2.211,-1.11524 3.4632,-1.4675 0.4696,-0.0782 1.0566,-0.15647 1.761,-0.2348 0.7435,-0.11734 1.5262,-0.21517 2.348,-0.2935 0.8609,-0.11734 1.7219,-0.21517 2.5828,-0.29349 0.9,-0.11734 1.761,-0.21518 2.5828,-0.2935 0.7044,-0.43041 1.624,-0.88044 2.7589,-1.3501 1.1739,-0.50867 2.3088,-1.0761 3.4046,-1.70229 1.0957,-0.62607 2.0349,-1.35003 2.8176,-2.17189 0.7826,-0.82174 1.1739,-1.7805 1.174,-2.87629 -10e-5,-1.05653 -0.9588,-1.95659 -2.8763,-2.70019 -1.8785,-0.74346 -4.4808,-1.11523 -7.8071,-1.1153 -0.5479,7e-5 -1.311,0.0392 -2.2893,0.1174 -0.9392,0.0392 -1.9762,0.1566 -3.1111,0.3522 -1.1349,0.1566 -2.2893,0.37183 -3.4633,0.6457 -1.174,0.23487 -2.2306,0.5675 -3.1697,0.99789 -0.9393,0.3914 -1.7219,0.861 -2.348,1.4088 -0.6262,0.5088 -0.9393,1.11536 -0.9392,1.81969 l -0.2348,10.44856 m 1.0566,43.73134 c -1e-4,0.0392 0.3326,0.0978 0.9979,0.1761 0.7043,0.0391 1.5066,0.0978 2.4066,0.1761 0.9001,0.0391 1.7806,0.0783 2.6415,0.1174 0.9001,0.0391 1.5458,0.0587 1.9371,0.0587 2.4654,10e-6 4.9699,-0.0978 7.5136,-0.2935 2.5828,-0.19565 5.0677,-0.56742 7.4549,-1.1153 2.4262,-0.54785 4.6959,-1.29138 6.8092,-2.23059 2.1131,-0.97831 3.9523,-2.21101 5.5177,-3.69808 1.5653,-1.52618 2.798,-3.36544 3.6981,-5.51778 0.9392,-2.19144 1.4087,-4.75466 1.4088,-7.68968 -1e-4,-2.85668 -0.7044,-5.38077 -2.1132,-7.57227 -1.3697,-2.23055 -3.1503,-4.10894 -5.3417,-5.63518 -2.1915,-1.52614 -4.6373,-2.68057 -7.3374,-3.46328 -2.6611,-0.78262 -5.3026,-1.17395 -7.9245,-1.174 -1.448,5e-5 -2.7785,0.27398 -3.9916,0.8218 -1.174,0.50878 -2.2893,1.07621 -3.3459,1.70229 -1.0566,0.58705 -2.0936,1.15448 -3.1111,1.70229 -0.9783,0.50878 -1.9762,0.76315 -2.9937,0.7631 -0.5087,5e-5 -1.0566,-0.0391 -1.6435,-0.1174 -0.5479,-0.11735 -0.998,-0.17605 -1.3501,-0.1761 -0.274,5e-5 -0.5871,0.11745 -0.9392,0.3522 -0.3523,0.23485 -0.6849,0.54791 -0.9979,0.9392 -1e-4,0.9001 -0.039,1.87843 -0.1174,2.93499 -0.039,1.0175 -0.059,1.97626 -0.059,2.87629 -1e-4,3.56115 0.1565,7.1614 0.4696,10.80076 0.3521,3.60027 0.5282,7.23966 0.5283,10.91816 -1e-4,0.70441 -0.02,1.42837 -0.059,2.17189 -10e-5,0.70441 -0.02,1.42837 -0.059,2.17189"
             style="font-variant:normal;font-stretch:normal;font-family:Short Stack;-inkscape-font-specification:Short Stack"
             id="path7013" />
          <path
             inkscape:connector-curvature="0"
             d="m 2449.3872,604.72596 c -1.0566,7e-5 -1.8588,-0.0782 -2.4067,-0.2348 -0.5479,-0.19559 -0.9588,-0.48909 -1.2327,-0.8805 -0.2739,-0.39125 -0.4305,-0.88042 -0.4696,-1.46749 -0.039,-0.62605 -0.059,-1.36958 -0.059,-2.23059 0,-0.89999 0.3326,-1.78048 0.9979,-2.64149 0.6653,-0.86085 1.4284,-1.68265 2.2893,-2.46539 0.9001,-0.78258 1.761,-1.52611 2.5828,-2.2306 0.8218,-0.70431 1.3892,-1.36957 1.7023,-1.99579 0.2739,-0.39124 0.7044,-0.97824 1.2914,-1.76099 0.6261,-0.78257 1.3305,-1.66307 2.1132,-2.64149 0.7826,-0.97824 1.6044,-1.97613 2.4654,-2.99369 0.9,-1.0565 1.7805,-2.01526 2.6415,-2.87629 0.8609,-0.86083 1.6631,-1.56523 2.4067,-2.11319 0.7435,-0.54777 1.35,-0.8217 1.8197,-0.8218 0.7434,10e-5 1.4674,0.0392 2.1719,0.1174 0.7043,0.0784 1.3304,0.33273 1.8784,0.7631 0.5869,0.43056 1.0369,1.11539 1.35,2.05449 0.3522,0.93929 0.5283,2.28939 0.5283,4.05029 0,0.43055 -0.4109,1.23278 -1.2326,2.40669 -0.7828,1.13495 -1.8198,2.46548 -3.1111,3.99158 -1.2523,1.48715 -2.7003,3.05248 -4.3438,4.69598 -1.6045,1.64368 -3.2286,3.15031 -4.8721,4.51989 -1.6045,1.36974 -3.1698,2.5046 -4.696,3.40458 -1.4871,0.90014 -2.7589,1.35017 -3.8155,1.3501 m -23.8908,40.32675 c 0,-1.21309 0.039,-2.58275 0.1174,-4.10898 0.078,-1.52616 0.1957,-3.11105 0.3522,-4.75469 0.1565,-1.64355 0.3326,-3.30671 0.5283,-4.98948 0.2348,-1.72181 0.4892,-3.3654 0.7631,-4.93078 0.2739,-1.60441 0.5674,-3.0719 0.8805,-4.40248 0.3522,-1.36961 0.7044,-2.5436 1.0566,-3.52199 0.4305,-1.05654 1.1153,-1.91746 2.0545,-2.58279 0.9392,-0.70433 2.1914,-1.05653 3.7568,-1.0566 1.4088,7e-5 2.5241,0.5088 3.3459,1.5262 0.8609,1.01752 1.2913,2.23065 1.2914,3.63938 -1e-4,0.23486 -0.1957,0.97839 -0.587,2.2306 -0.3523,1.21318 -0.7632,2.85677 -1.2327,4.93078 -0.4305,2.03497 -0.8414,4.46123 -1.2327,7.27877 -0.3522,2.7785 -0.5283,5.83088 -0.5283,9.15717 0,1.29143 0.059,2.87632 0.1761,4.75468 0.1565,1.87842 0.4304,3.85464 0.8218,5.92868 0.3913,2.03495 0.9391,4.08944 1.6436,6.16347 0.7043,2.03495 1.6435,3.8742 2.8176,5.51778 1.2131,1.64361 2.6806,2.97414 4.4024,3.99159 1.7219,1.01747 3.7764,1.5262 6.1635,1.52619 2.0349,1e-5 3.9133,-0.31305 5.6352,-0.93919 1.7218,-0.62613 3.2871,-1.42835 4.696,-2.40669 1.4479,-1.01746 2.7393,-2.15232 3.8742,-3.40459 1.1739,-1.25225 2.2109,-2.50451 3.1111,-3.75679 0.9391,-1.25224 1.7413,-2.42623 2.4066,-3.52198 0.7044,-1.09571 1.311,-2.01534 1.8197,-2.75889 0.2348,-2.2697 0.4109,-4.26549 0.5283,-5.98738 0.1174,-1.76096 0.1956,-3.36542 0.2348,-4.81338 0.078,-1.4479 0.1174,-2.79799 0.1174,-4.05029 0.039,-1.29135 0.059,-2.60231 0.059,-3.93289 0,-1.36961 -0.02,-2.81754 -0.059,-4.34378 0,-1.56528 0,-3.34584 0,-5.34168 l 0,-6.98527 c 0,-0.82174 0.1761,-1.50657 0.5283,-2.0545 0.3913,-0.5478 0.8609,-0.99783 1.4088,-1.35009 0.5478,-0.35214 1.1544,-0.58693 1.8197,-0.7044 0.6652,-0.15647 1.2718,-0.23473 1.8197,-0.2348 0.4695,7e-5 0.9783,0.0783 1.5262,0.2348 0.5478,0.1566 1.0565,0.3914 1.5262,0.7044 0.4695,0.31313 0.8609,0.74359 1.174,1.29139 0.313,0.5088 0.4695,1.11536 0.4696,1.8197 l -0.1174,55.70609 c -1e-4,1.9958 -0.3914,3.34589 -1.174,4.05029 -0.7827,0.66526 -1.9763,0.99789 -3.5807,0.99789 -1.448,0 -2.5828,-0.1174 -3.4046,-0.3522 -0.7827,-0.19566 -1.3697,-0.58699 -1.761,-1.17399 -0.3522,-0.587 -0.5675,-1.38923 -0.6457,-2.40669 -0.078,-1.01746 -0.1174,-2.32842 -0.1174,-3.93289 l 0,-3.99158 c -1.0175,1.83927 -2.1719,3.60026 -3.4632,5.28298 -1.2524,1.6436 -2.7199,3.09152 -4.4025,4.34378 -1.6828,1.25226 -3.6199,2.25016 -5.8113,2.99369 -2.1915,0.74353 -4.696,1.11529 -7.5136,1.1153 -4.0699,-1e-5 -7.5723,-0.62614 -10.5072,-1.8784 -2.8959,-1.21313 -5.3613,-2.81758 -7.3962,-4.81338 -1.9958,-2.03492 -3.6199,-4.34377 -4.8721,-6.92657 -1.2131,-2.58278 -2.1719,-5.22427 -2.8763,-7.92447 -0.6653,-2.70017 -1.1153,-5.34166 -1.3501,-7.92448 -0.1957,-2.58276 -0.2935,-4.89161 -0.2935,-6.92657"
             style="font-variant:normal;font-stretch:normal;font-family:Short Stack;-inkscape-font-specification:Short Stack"
             id="path7015" />
          <path
             inkscape:connector-curvature="0"
             d="m 2505.739,599.61908 c 0,-0.62605 0.1565,-1.35002 0.4696,-2.17189 0.3131,-0.86085 0.7435,-1.66308 1.2914,-2.40669 0.587,-0.74345 1.2718,-1.36958 2.0545,-1.8784 0.7827,-0.50864 1.6436,-0.76301 2.5828,-0.76309 1.3305,8e-5 2.4458,0.45011 3.3459,1.35009 0.9392,0.90015 1.4088,1.93718 1.4088,3.11109 0,1.52627 -0.039,3.16987 -0.1174,4.93078 -0.039,1.76107 -0.098,3.60033 -0.1761,5.51778 -0.039,1.87846 -0.098,3.79599 -0.1761,5.75258 -0.039,1.95672 -0.059,3.87425 -0.059,5.75258 l 0,4.40248 c 2.5045,-2.58273 5.4003,-4.53939 8.6876,-5.86998 3.3262,-1.3696 6.8482,-2.05443 10.5659,-2.05449 1.5262,6e-5 3.0915,0.0979 4.696,0.2935 1.6044,0.1566 3.2089,0.41096 4.8134,0.7631 1.6044,0.35226 3.1501,0.80229 4.6373,1.35009 1.5261,0.50879 2.9545,1.13492 4.285,1.87839 3.5611,2.03499 6.3787,4.10904 8.4528,6.22218 2.074,2.07411 3.6393,4.28513 4.696,6.63308 1.0565,2.3089 1.7218,4.79385 1.9958,7.45487 0.2738,2.66109 0.3912,5.59608 0.3522,8.80497 l -0.1174,21.83632 c -10e-5,0.8218 -0.039,1.83926 -0.1174,3.05239 -0.039,1.17399 -0.2545,2.32842 -0.6457,3.46328 -0.3914,1.13487 -0.998,2.09363 -1.8197,2.87629 -0.8219,0.8218 -1.9959,1.23269 -3.522,1.2327 -0.9393,-1e-5 -1.8002,-0.1761 -2.5828,-0.5283 -0.7827,-0.3522 -1.4675,-0.84137 -2.0545,-1.4675 -0.5479,-0.58699 -0.9784,-1.27182 -1.2914,-2.05449 -0.274,-0.82179 -0.4109,-1.70229 -0.4109,-2.64149 0,-2.11318 0.078,-4.18724 0.2348,-6.22218 0.1956,-2.07404 0.3913,-4.12853 0.587,-6.16347 0.1956,-2.03491 0.3717,-4.06983 0.5283,-6.10478 0.1956,-2.07403 0.2935,-4.14809 0.2935,-6.22218 0,-1.48703 -0.059,-3.11105 -0.1761,-4.87208 -0.1174,-1.76096 -0.4305,-3.52195 -0.9392,-5.28298 -0.4696,-1.80008 -1.1936,-3.52194 -2.1719,-5.16558 -0.9783,-1.68268 -2.3284,-3.16974 -4.0502,-4.46118 -1.6828,-1.29135 -3.8156,-2.30881 -6.3983,-3.05239 -2.5437,-0.78261 -5.6352,-1.17394 -9.2746,-1.174 -2.5045,6e-5 -4.9308,0.45009 -7.2788,1.3501 -2.3088,0.86098 -4.3633,1.95671 -6.1634,3.28718 -1.7611,1.33058 -3.1699,2.77851 -4.2264,4.34379 -1.0566,1.56537 -1.5849,3.05243 -1.5849,4.46118 l 0,24.71261 c 0,1.21314 0.078,2.60237 0.2348,4.16769 0.1956,1.5262 0.2935,2.95456 0.2935,4.28508 0,0.78267 -0.039,1.5849 -0.1174,2.40669 -0.039,0.78267 -0.2153,1.50663 -0.5283,2.17189 -0.274,0.62614 -0.7436,1.15443 -1.4088,1.5849 -0.6262,0.43046 -1.5262,0.64569 -2.7002,0.64569 -0.5087,0 -1.1349,-0.0587 -1.8784,-0.17609 -0.7435,-0.0783 -1.4675,-0.31307 -2.1719,-0.7044 -0.6653,-0.43047 -1.2523,-1.0566 -1.761,-1.8784 -0.4696,-0.86092 -0.7044,-2.03492 -0.7044,-3.52198 l 0.1174,-73.25733"
             style="font-variant:normal;font-stretch:normal;font-family:Short Stack;-inkscape-font-specification:Short Stack"
             id="path7017" />
          <path
             inkscape:connector-curvature="0"
             d="m 2585.8642,647.6942 c 0,-6.06561 0.9784,-11.21162 2.935,-15.43804 1.9567,-4.22634 4.5199,-7.65049 7.6897,-10.27246 3.2089,-2.661 6.8287,-4.57853 10.8595,-5.75258 4.0698,-1.21307 8.2179,-1.81963 12.4443,-1.8197 4.8916,7e-5 9.2745,0.8023 13.1488,2.4067 3.9132,1.60452 7.22,3.91337 9.9202,6.92657 2.7001,3.01331 4.7742,6.67226 6.2222,10.97686 1.4479,4.26556 2.1718,9.05937 2.1719,14.38145 -10e-5,3.09154 -0.411,6.00696 -1.2327,8.74626 -0.8219,2.73934 -1.9567,5.283 -3.4046,7.63098 -1.448,2.30886 -3.1894,4.38292 -5.2243,6.22217 -1.9958,1.83927 -4.1873,3.42416 -6.5744,4.75468 -2.3871,1.2914 -4.9112,2.26973 -7.5722,2.93499 -2.6611,0.7044 -5.3613,1.0566 -8.1006,1.0566 -2.9742,0 -5.87,-0.4696 -8.6876,-1.4088 -2.7784,-0.90006 -5.4004,-2.15232 -7.8657,-3.75678 -2.4654,-1.60446 -4.7352,-3.46328 -6.8092,-5.57648 -2.0349,-2.15231 -3.7959,-4.4416 -5.283,-6.86788 -1.4479,-2.42623 -2.5828,-4.93076 -3.4046,-7.51357 -0.8218,-2.58276 -1.2327,-5.12642 -1.2327,-7.63097 m 10.1551,-1.46749 c 0,2.89588 0.6261,5.8113 1.8784,8.74626 1.2522,2.89588 2.8958,5.5178 4.9308,7.86577 2.074,2.34801 4.422,4.26553 7.0439,5.75258 2.6611,1.44794 5.3613,2.1719 8.1006,2.1719 2.9741,0 5.8504,-0.50873 8.6289,-1.5262 2.8175,-1.01745 5.2829,-2.50451 7.3962,-4.46118 2.1522,-1.95665 3.8741,-4.34377 5.1655,-7.16138 1.2914,-2.81756 1.9371,-6.02648 1.9371,-9.62676 0,-3.52195 -0.4892,-6.73087 -1.4675,-9.62676 -0.9392,-2.93495 -2.2502,-5.45904 -3.9329,-7.57228 -1.6827,-2.11314 -3.6981,-3.73716 -6.046,-4.87208 -2.3481,-1.17394 -4.8917,-1.76094 -7.631,-1.76099 -3.0524,5e-5 -6.1244,0.48922 -9.2159,1.46749 -3.0915,0.93925 -5.8895,2.34804 -8.394,4.22639 -2.4655,1.8393 -4.4808,4.12859 -6.0461,6.86787 -1.5654,2.73936 -2.348,5.90915 -2.348,9.50937"
             style="font-variant:normal;font-stretch:normal;font-family:Short Stack;-inkscape-font-specification:Short Stack"
             id="path7019" />
        </g>
        <g
           transform="matrix(0.77940689,0,0,0.77940689,2228.9195,8.6584625)"
           id="layer1-0"
           inkscape:label="Capa 1"
           style="fill:#ffffff">
          <path
             inkscape:connector-curvature="0"
             id="path3864"
             d="m 360.61489,47.7529 c -0.461,0.002 -0.9152,0.01 -1.375,0.0312 -11.2537,0.52709 -22.9183,7.23706 -28.5312,18.78125 -2.4737,-0.88944 -5.3071,-1.64285 -8.4063,-1.8125 -4.2512,-0.23272 -9.4623,1.23294 -13.2187,5 -3.7565,3.76706 -6.0563,9.08052 -7.5313,16.21875 -0.8147,3.94261 -1.8973,10.77188 -3.125,19.25 -9.2392,0.86303 -25.3046,4.92711 -36.0625,22 -7.9866,12.67485 -12.6303,30.72529 -16.5,48.875 -3.8697,18.14971 -6.7261,36.42418 -9.5938,47.90625 -3.3337,13.34748 -8.0142,46.22493 -10.7187,81 -2.7045,34.77507 -3.8617,69.96634 2.5937,89.78125 9.7765,30.00868 29.6755,47.35645 36.4688,52.65625 l 0,43.46875 a 7.1202884,7.1202884 0 1 0 14.2188,0 l 0,-46.96875 a 7.1202884,7.1202884 0 0 0 -3.0938,-5.875 c 0,0 -23.8594,-16.40033 -34.0625,-47.71875 -4.5376,-13.92832 -4.5637,-50.08134 -1.9063,-84.25 2.6573,-34.16866 7.6059,-67.81881 10.3126,-78.65625 3.1727,-12.70284 5.959,-30.74109 9.7187,-48.375 3.7597,-17.63391 8.7103,-34.86335 14.625,-44.25 6.9693,-11.06026 15.8681,-14.46855 22.0313,-15.4375 -2.8184,20.81259 -6.1522,47.54321 -9.3438,73.71875 -5.5351,45.39609 -10.4061,87.625 -10.4062,87.625 a 7.1202884,7.1202884 0 1 0 14.125,1.625 c 0,0 4.8778,-42.19001 10.4062,-87.53125 3.461,-28.38533 7.2585,-58.29867 10.1875,-79.5 a 7.1202884,7.1202884 0 0 0 0.5937,-4.3125 c 1.4614,-10.38235 2.7039,-18.45429 3.4688,-22.15625 1.1404,-5.51895 2.7766,-8.11781 3.6875,-9.03125 0.9109,-0.91344 1.0836,-0.91444 2.375,-0.84375 1.3345,0.073 3.3202,0.89253 5.6875,1.9375 -1.2927,18.58962 -1.3279,66.31439 -1.1562,111.28125 0.1792,46.95817 0.6873,90.0625 0.6874,90.0625 a 7.1254283,7.1254283 0 0 0 3.9688,6.3125 c -0.0727,0.003 -0.1461,-0.003 -0.2188,0 -16.9571,0.66533 -32.5172,4.57147 -47.1874,9.71875 a 7.1202884,7.1202884 0 1 0 4.6874,13.4375 c 27.7769,-9.74606 55.8238,-14.53093 92.75,-0.0625 a 7.1292145,7.1292145 0 1 0 5.1876,-13.28125 c -17.5291,-6.86825 -33.6867,-9.71842 -48.75,-9.90625 a 7.1254283,7.1254283 0 0 0 3.8124,-6.375 c 0,0 -0.5397,-43.08187 -0.7187,-89.96875 -0.1676,-43.90934 0.0519,-91.80977 1.0937,-109.21875 a 7.1203555,7.1203555 0 0 0 1.6876,-9.40625 c 3.0861,-7.52997 10.1972,-11.19017 16.8124,-11.5 4.1234,-0.19313 7.6665,1.02126 9.9376,3.21875 2.271,2.19749 3.916,5.52103 3.2812,11.96875 a 7.1285113,7.1285113 0 0 0 1.0312,4.4375 c -0.5247,2.10732 -0.8828,4.30449 -1.0312,6.59375 -0.9263,14.29341 -1.7061,62.80629 -2.2812,108.46875 -0.5752,45.66246 -0.9063,87.96875 -0.9063,87.96875 a 7.1202884,7.1202884 0 1 0 14.2187,0.125 c 0,0 0.3629,-42.28031 0.9376,-87.90625 0.5747,-45.62594 1.4007,-95.12693 2.2187,-107.75 0.6715,-10.35779 8.0572,-16.32864 13.1563,-16.8125 2.5495,-0.24193 4.4508,0.30241 6.5,2.78125 2.0491,2.47884 4.1179,7.52951 4.1874,16.1875 0.3028,37.4573 3.9394,119.03308 4.3126,127.34375 -1.9742,2.23043 -3.7395,4.7086 -5.3126,7.375 -5.9953,10.16252 -9.7569,23.3405 -11.625,38.15625 -1.9274,15.28567 -0.1271,30.11086 0.4376,43.96875 0.5104,12.52294 -0.1325,24.03518 -4.2813,34.8125 -27.4195,3.33397 -45.3684,18.07726 -55.7813,32.25 -11.014,14.99077 -14.4687,29.6875 -14.4687,29.6875 a 7.1202884,7.1202884 0 1 0 13.8437,3.28125 c 0,0 2.8372,-11.93242 12.0938,-24.53125 9.2566,-12.59883 24.2311,-25.32671 50,-27.09375 a 7.1202884,7.1202884 0 0 0 5.9688,-4.09375 c 6.994,-14.93247 7.4385,-30.31079 6.8437,-44.90625 -0.5948,-14.59546 -2.1679,-28.61384 -0.5313,-41.59375 1.6958,-13.44982 5.2221,-25.01231 9.75,-32.6875 1.5392,-2.60897 3.0883,-4.72021 4.6876,-6.375 0.0153,-0.0159 0.0471,-0.0154 0.0624,-0.0312 a 7.1325515,7.1325515 0 0 0 1.0313,-1 c 2.7773,-2.49876 5.6698,-3.69659 8.75,-3.8125 6.2046,-0.23341 9.65,1.8107 12.8125,5.78125 3.1625,3.97055 5.4768,10.28216 6.5312,17.34375 0.8482,5.67819 -1.1408,12.63637 -4.1562,21.15625 -3.0154,8.51988 -6.8825,18.41662 -7.6562,29.96875 -1.5238,22.75218 7.5119,41.6732 7.9374,62.15625 0.4534,21.69257 -1.9203,44.21825 -15.9374,59.8125 -5.7227,6.36656 -22.9433,13.93554 -38.2813,18.5625 -15.338,4.627 -28.7813,7.125 -28.7813,7.125 a 7.1202884,7.1202884 0 0 0 -5.8124,7.125 l 0.625,36.78115 a 7.1202884,7.1202884 0 1 0 14.2187,-0.25 l -0.5313,-30.90615 c 5.3383,-1.117 13.4594,-2.9259 24.375,-6.2188 16.1939,-4.8851 34.5219,-11.27358 44.7813,-22.68745 17.9472,-19.96661 20.0404,-46.75615 19.5625,-69.625 -0.5001,-24.07837 -9.1491,-42.81627 -7.9375,-60.90625 0.594,-8.86867 3.7749,-17.42824 6.875,-26.1875 3.1001,-8.75926 6.3209,-17.90221 4.8125,-28 -1.3013,-8.7144 -4.058,-17.2926 -9.5,-24.125 -5.442,-6.8324 -14.1573,-11.51291 -24.4688,-11.125 -2.475,0.0931 -4.8433,0.5416 -7.0937,1.28125 -1.0647,-24.53963 -3.6565,-87.03062 -3.9063,-117.9375 -0.0869,-10.85236 -2.6238,-19.26414 -7.4687,-25.125 -4.8449,-5.86086 -12.1029,-8.54294 -18.8125,-7.90625 -4.9673,0.47137 -9.6763,2.45045 -13.6875,5.59375 -1.3266,-3.39322 -3.2431,-6.3535 -5.6875,-8.71875 -5.2239,-5.05481 -12.2107,-7.27562 -19.125,-7.25 z"
             style="font-size:medium;font-style:normal;font-variant:normal;font-weight:normal;font-stretch:normal;text-indent:0;text-align:start;text-decoration:none;line-height:normal;letter-spacing:normal;word-spacing:normal;text-transform:none;direction:ltr;block-progression:tb;writing-mode:lr-tb;text-anchor:start;baseline-shift:baseline;color:#000000;fill:#ffffff;fill-opacity:1;stroke:none;stroke-width:14.23915291;marker:none;visibility:visible;display:inline;overflow:visible;enable-background:accumulate;font-family:Sans;-inkscape-font-specification:Sans" />
        </g>
        <g
           transform="matrix(0.81991999,0,0,0.81991999,2162.0557,179.57434)"
           id="layer1-3"
           inkscape:label="Capa 1">
          <g
             id="g4843">
            <path
               sodipodi:nodetypes="zzcccsz"
               inkscape:connector-curvature="0"
               id="path3250"
               d="m 357.7321,771.1983 c -15.7803,-2.01495 -48.0384,16.55823 -55.582,37.80863 -7.5436,21.25041 21.4507,73.21896 21.4507,73.21896 4.1852,10.28833 20.1018,9.81854 15.6316,-5.81594 10.2302,11.82162 22.8711,0.69029 18.9142,-8.41085 4.4362,8.75938 17.7278,3.81808 17.1802,-10.15201 -1.1544,-29.44978 -1.8145,-84.63384 -17.5947,-86.64879 z"
               style="fill:#a0892c;stroke:none" />
            <path
               sodipodi:nodetypes="czccczc"
               inkscape:connector-curvature="0"
               id="path3252"
               d="m 358.9773,782.05898 c -14.9544,2.11176 -41.2793,20.60487 -48.464,30.65225 -7.1847,10.04738 6.6494,47.12261 13.4778,60.65125 2.9482,4.89472 16.2968,-0.43761 13.6932,-7.50407 2.468,7.25086 19.9744,0.45282 17.5855,-7.86367 2.0923,7.72314 16.2793,3.2343 16.4296,-11.89889 0.1503,-15.13318 1.0816,-64.64109 -12.7221,-64.03687 z"
               style="fill:#d3bc5f;stroke:none" />
            <path
               style="fill:#786721;stroke:none"
               d="m 297.9449,670.06655 c 5.2579,80.38413 -18.621,202.61744 112.6567,202.32219 l 149.4426,-2.29912 -42.5338,-211.51865 -10.3459,26.43984 c -66.13,-7.42918 -108.6096,-5.78653 -189.6771,8.04691 z"
               id="path3238"
               inkscape:connector-curvature="0"
               sodipodi:nodetypes="ccccccc" />
            <path
               inkscape:export-ydpi="90"
               inkscape:export-xdpi="90"
               inkscape:export-filename="/home/david/work/pipo/textures/abeja.png"
               transform="matrix(0.6376356,0,0,0.6376356,690.8364,115.25884)"
               d="m -448.50774,962.45862 c 0,34.0314 -27.5879,61.61928 -61.6193,61.61928 -34.03141,0 -61.61931,-27.58788 -61.61931,-61.61928 0,-34.0314 27.5879,-61.61931 61.61931,-61.61931 34.0314,0 61.6193,27.58791 61.6193,61.61931 z"
               sodipodi:ry="61.619305"
               sodipodi:rx="61.619305"
               sodipodi:cy="962.45862"
               sodipodi:cx="-510.12704"
               id="path3246"
               style="fill:#d3bc5f;fill-opacity:1;stroke:none"
               sodipodi:type="arc" />
            <path
               sodipodi:type="arc"
               style="fill:#ffffff;fill-opacity:1;stroke:none"
               id="path3169"
               sodipodi:cx="-510.12704"
               sodipodi:cy="962.45862"
               sodipodi:rx="61.619305"
               sodipodi:ry="61.619305"
               d="m -448.50774,962.45862 c 0,34.0314 -27.5879,61.61928 -61.6193,61.61928 -34.03141,0 -61.61931,-27.58788 -61.61931,-61.61928 0,-34.0314 27.5879,-61.61931 61.61931,-61.61931 34.0314,0 61.6193,27.58791 61.6193,61.61931 z"
               transform="matrix(0.52570076,0,0,0.52570076,637.1841,227.01496)"
               inkscape:export-filename="/home/david/work/pipo/textures/abeja.png"
               inkscape:export-xdpi="90"
               inkscape:export-ydpi="90" />
            <path
               sodipodi:type="arc"
               style="fill:#d3bc5f;fill-opacity:1;stroke:none"
               id="path3248"
               sodipodi:cx="-510.12704"
               sodipodi:cy="962.45862"
               sodipodi:rx="61.619305"
               sodipodi:ry="61.619305"
               d="m -448.50774,962.45862 c 0,34.0314 -27.5879,61.61928 -61.6193,61.61928 -34.03141,0 -61.61931,-27.58788 -61.61931,-61.61928 0,-34.0314 27.5879,-61.61931 61.61931,-61.61931 34.0314,0 61.6193,27.58791 61.6193,61.61931 z"
               transform="matrix(0.6376356,0,0,0.6376356,770.1559,117.55794)"
               inkscape:export-filename="/home/david/work/pipo/textures/abeja.png"
               inkscape:export-xdpi="90"
               inkscape:export-ydpi="90" />
            <path
               sodipodi:type="arc"
               style="fill:#ffffff;fill-opacity:1;stroke:none"
               id="path3171"
               sodipodi:cx="-334.3605"
               sodipodi:cy="972.56012"
               sodipodi:rx="63.63961"
               sodipodi:ry="63.63961"
               d="m -270.72089,972.56012 c 0,35.14718 -28.49243,63.63958 -63.63961,63.63958 -35.14719,0 -63.63961,-28.4924 -63.63961,-63.63958 0,-35.14719 28.49242,-63.63961 63.63961,-63.63961 35.14718,0 63.63961,28.49242 63.63961,63.63961 z"
               transform="matrix(0.5334795,0,0,0.5334795,621.6612,215.2906)"
               inkscape:export-filename="/home/david/work/pipo/textures/abeja.png"
               inkscape:export-xdpi="90"
               inkscape:export-ydpi="90" />
            <path
               d="m -448.50774,962.45862 c 0,34.0314 -27.5879,61.61928 -61.6193,61.61928 -34.03141,0 -61.61931,-27.58788 -61.61931,-61.61928 0,-34.0314 27.5879,-61.61931 61.61931,-61.61931 34.0314,0 61.6193,27.58791 61.6193,61.61931 z"
               sodipodi:ry="61.619305"
               sodipodi:rx="61.619305"
               sodipodi:cy="962.45862"
               sodipodi:cx="-510.12704"
               id="path3173"
               style="fill:#000000;fill-opacity:1;stroke:none"
               sodipodi:type="arc"
               transform="matrix(0.31612792,0,0,0.31612792,541.9921,431.97181)"
               inkscape:export-filename="/home/david/work/pipo/textures/abeja.png"
               inkscape:export-xdpi="90"
               inkscape:export-ydpi="90" />
            <path
               transform="matrix(0.31612792,0,0,0.31612792,536.0972,429.01008)"
               d="m -270.72089,972.56012 c 0,35.14718 -28.49243,63.63958 -63.63961,63.63958 -35.14719,0 -63.63961,-28.4924 -63.63961,-63.63958 0,-35.14719 28.49242,-63.63961 63.63961,-63.63961 35.14718,0 63.63961,28.49242 63.63961,63.63961 z"
               sodipodi:ry="63.63961"
               sodipodi:rx="63.63961"
               sodipodi:cy="972.56012"
               sodipodi:cx="-334.3605"
               id="path3175"
               style="fill:#000000;fill-opacity:1;stroke:none"
               sodipodi:type="arc"
               inkscape:export-filename="/home/david/work/pipo/textures/abeja.png"
               inkscape:export-xdpi="90"
               inkscape:export-ydpi="90" />
            <path
               style="fill:#ffcc00;stroke:none"
               d="m 394.5078,753.40951 c -5.2853,10.96495 8.9303,42.46098 10.346,40.8093 0,0 15.3021,-32.49636 10.346,-41.95886 -4.9561,-9.4625 -15.4067,-9.81539 -20.692,1.14956 z"
               id="path3240"
               inkscape:connector-curvature="0"
               sodipodi:nodetypes="zczz" />
            <path
               style="fill:#a0892c;stroke:none"
               d="m 524.2736,769.08073 c -15.8914,-0.73434 -46.5448,20.38254 -52.3481,42.17261 -5.8033,21.79006 27.292,71.24812 27.292,71.24812 5.0021,9.91686 20.8289,8.16358 15.111,-7.05896 11.1513,10.95709 22.8522,-1.15845 18.1735,-9.91043 5.1288,8.37264 17.9782,2.37436 16.3045,-11.50591 -3.5283,-29.26044 -8.6415,-84.21107 -24.5329,-84.94543 z"
               id="path3242"
               inkscape:connector-curvature="0"
               sodipodi:nodetypes="zzcccsz" />
            <path
               style="fill:#d3bc5f;stroke:none"
               d="m 526.3915,779.80545 c -14.735,3.31219 -39.4809,23.87027 -45.831,34.4649 -6.3501,10.59464 10.4321,46.43194 18.3304,59.36513 3.3338,4.64072 16.2083,-1.75189 13.0427,-8.58508 3.0454,7.02793 19.9458,-1.16129 16.8932,-9.25776 2.709,7.529 16.4873,1.90944 15.4153,-13.18648 -1.0719,-15.09593 -4.1407,-64.51741 -17.8506,-62.80071 z"
               id="path3244"
               inkscape:connector-curvature="0"
               sodipodi:nodetypes="czccczc" />
            <path
               style="fill:#ffcc00;fill-opacity:1;stroke:none"
               d="m 453.7225,853.99598 c -3.302,0 -6.2329,1.63144 -8,4.125 -1.7893,-2.16998 -4.4862,-3.5625 -7.5312,-3.5625 -5.4133,0 -9.7812,4.36798 -9.7812,9.78125 l 0,19.53125 c 0,5.41327 4.3679,9.78125 9.7812,9.78125 3.3041,0 6.202,-1.62882 7.9688,-4.125 1.7893,2.16997 4.5175,3.5625 7.5624,3.5625 3.0044,0 5.6792,-1.34859 7.4688,-3.46875 1.7896,2.11207 4.471,3.46875 7.4688,3.46875 5.4132,0 9.75,-4.36798 9.75,-9.78125 l 0,-19.53125 c 0,-5.41327 -4.3368,-9.78125 -9.75,-9.78125 -2.999,0 -5.6792,1.35528 -7.4688,3.46875 -1.7896,-2.12123 -4.4635,-3.46875 -7.4688,-3.46875 z"
               id="rect3264"
               inkscape:connector-curvature="0" />
            <path
               id="path3271"
               d="m 387.0482,853.42119 c -3.302,0 -6.2329,1.63144 -8,4.125 -1.7893,-2.16997 -4.4862,-3.5625 -7.5312,-3.5625 -5.4133,0 -9.7812,4.36798 -9.7812,9.78125 l 0,19.53125 c 0,5.41328 4.3679,9.78125 9.7812,9.78125 3.3041,0 6.202,-1.62881 7.9688,-4.125 1.7893,2.16998 4.5175,3.5625 7.5624,3.5625 3.0044,0 5.6792,-1.34858 7.4688,-3.46875 1.7896,2.11208 4.471,3.46875 7.4688,3.46875 5.4132,0 9.75,-4.36797 9.75,-9.78125 l 0,-19.53125 c 0,-5.41327 -4.3368,-9.78125 -9.75,-9.78125 -2.999,0 -5.6792,1.35528 -7.4688,3.46875 -1.7896,-2.12122 -4.4635,-3.46875 -7.4688,-3.46875 z"
               style="fill:#ffcc00;fill-opacity:1;stroke:none"
               inkscape:connector-curvature="0" />
            <path
               inkscape:connector-curvature="0"
               style="fill:none;stroke:#000000;stroke-width:8.80000019;stroke-miterlimit:4;stroke-dasharray:none"
               d="m 517.5016,658.56516 -10.3437,26.4375 c -66.13,-7.42918 -108.5888,-5.77094 -189.6563,8.0625 l -19.5625,-23 c 2.6027,39.79034 -1.9268,89.82601 8.75,130.1875 -1.9214,2.83038 -3.4713,5.76424 -4.5313,8.75 -7.5436,21.25041 21.4375,73.21875 21.4375,73.21875 4.1852,10.28833 20.0952,9.82199 15.625,-5.8125 10.2302,11.82163 22.8945,0.69489 18.9376,-8.40625 0.8904,1.75825 2.1419,2.93301 3.5624,3.625 l 0,11.65625 c 0,5.41327 4.368,9.78125 9.7813,9.78125 3.3041,0 6.2019,-1.62881 7.9687,-4.125 1.7893,2.16998 4.5176,3.5625 7.5626,3.5625 3.0044,0 5.6791,-1.34858 7.4687,-3.46875 1.7896,2.11207 4.4709,3.46875 7.4687,3.46875 5.4132,0 9.75,-4.36798 9.75,-9.78125 l 0,-10.375 16.6876,-0.25 0,11.78125 c 0,5.41327 4.3679,9.78125 9.7812,9.78125 3.3041,0 6.2019,-1.62881 7.9688,-4.125 1.7892,2.16998 4.5175,3.5625 7.5624,3.5625 3.0045,0 5.6792,-1.34858 7.4688,-3.46875 1.7896,2.11207 4.4709,3.46875 7.4688,3.46875 5.4131,0 9.75,-4.36798 9.75,-9.78125 l 0,-11.96875 13.75,-0.21875 c 4.0337,6.85887 7.0624,11.375 7.0624,11.375 5.0021,9.91687 20.8117,8.16004 15.0938,-7.0625 9.112,8.9533 18.6092,2.49676 19.2188,-4.9375 l 26.5,-0.40625 -42.5313,-211.53125 z"
               id="path3275" />
          </g>
        </g>
      </g>
      <rect
         y="16.503397"
         x="-15171.796"
         height="1027.4425"
         width="1023.3555"
         id="rect5661"
         style="fill:none;stroke:none" />
    </g>
  </g>
</svg>
