<?xml version="1.0" encoding="UTF-8" standalone="no"?>
<!-- Created with Inkscape (http://www.inkscape.org/) -->

<svg
   xmlns:dc="http://purl.org/dc/elements/1.1/"
   xmlns:cc="http://creativecommons.org/ns#"
   xmlns:rdf="http://www.w3.org/1999/02/22-rdf-syntax-ns#"
   xmlns:svg="http://www.w3.org/2000/svg"
   xmlns="http://www.w3.org/2000/svg"
   xmlns:xlink="http://www.w3.org/1999/xlink"
   xmlns:sodipodi="http://sodipodi.sourceforge.net/DTD/sodipodi-0.dtd"
   xmlns:inkscape="http://www.inkscape.org/namespaces/inkscape"
   width="1351.74"
   height="1351.7388"
   id="svg2"
   version="1.1"
   inkscape:version="0.48.3.1 r9886"
   sodipodi:docname="c.svg">
  <defs
     id="defs4">
    <linearGradient
       id="linearGradient3265-7"
       inkscape:collect="always">
      <stop
         id="stop3267-6"
         offset="0"
         style="stop-color:#a0692f;stop-opacity:1;" />
      <stop
         id="stop3269-0"
         offset="1"
         style="stop-color:#a0692f;stop-opacity:0;" />
    </linearGradient>
    <linearGradient
       inkscape:collect="always"
       xlink:href="#linearGradient3265-7"
       id="linearGradient4849"
       gradientUnits="userSpaceOnUse"
       gradientTransform="matrix(1.9601035,0,0,1.9601035,-1268.7026,1291.2843)"
       x1="1128.5424"
       y1="-358.21252"
       x2="1128.5"
       y2="-350.88782" />
    <linearGradient
       inkscape:collect="always"
       xlink:href="#linearGradient3265-7"
       id="linearGradient4855"
       gradientUnits="userSpaceOnUse"
       gradientTransform="matrix(-1.9601035,0,0,1.9601035,3084.4205,1291.2843)"
       x1="1128.5424"
       y1="-358.21252"
       x2="1128.5"
       y2="-350.88782" />
    <linearGradient
       id="linearGradient3265-7-8"
       inkscape:collect="always">
      <stop
         id="stop3267-6-3"
         offset="0"
         style="stop-color:#a0692f;stop-opacity:1;" />
      <stop
         id="stop3269-0-6"
         offset="1"
         style="stop-color:#a0692f;stop-opacity:0;" />
    </linearGradient>
    <linearGradient
       y2="-435.80673"
       x2="919.21014"
       y1="-434.2847"
       x1="987.61987"
       gradientTransform="matrix(0.64156397,0,0,0.64156397,-240.46334,1048.4872)"
       gradientUnits="userSpaceOnUse"
       id="linearGradient3738"
       xlink:href="#linearGradient4094-1"
       inkscape:collect="always" />
    <linearGradient
       id="linearGradient4094-1">
      <stop
         id="stop4096-9"
         offset="0"
         style="stop-color:#52676c;stop-opacity:1;" />
      <stop
         id="stop4098-2"
         offset="1"
         style="stop-color:#52676c;stop-opacity:0;" />
    </linearGradient>
    <linearGradient
       id="linearGradient3310"
       inkscape:collect="always">
      <stop
         id="stop3312"
         offset="0"
         style="stop-color:#0b2228;stop-opacity:1;" />
      <stop
         id="stop3314"
         offset="1"
         style="stop-color:#0b2228;stop-opacity:0;" />
    </linearGradient>
    <linearGradient
       id="linearGradient4122-9"
       inkscape:collect="always">
      <stop
         id="stop4124-7"
         offset="0"
         style="stop-color:#1c2224;stop-opacity:1;" />
      <stop
         id="stop4126-6"
         offset="1"
         style="stop-color:#1c2224;stop-opacity:0" />
    </linearGradient>
    <linearGradient
       inkscape:collect="always"
       xlink:href="#linearGradient3310"
       id="linearGradient6795"
       gradientUnits="userSpaceOnUse"
       x1="1748.3407"
       y1="-227.81718"
       x2="1759.3722"
       y2="-149.25218" />
    <linearGradient
       inkscape:collect="always"
       xlink:href="#linearGradient4122-9"
       id="linearGradient6814"
       gradientUnits="userSpaceOnUse"
       gradientTransform="matrix(0.76362355,0,0,0.76362355,-529.2141,788.2198)"
       x1="1627.4237"
       y1="-275.98389"
       x2="1568.8258"
       y2="-208.25383" />
    <linearGradient
       inkscape:collect="always"
       id="linearGradient4871">
      <stop
         style="stop-color:#241c1f;stop-opacity:0.37777778"
         offset="0"
         id="stop4873" />
      <stop
         style="stop-color:#241c1f;stop-opacity:0;"
         offset="1"
         id="stop4875" />
    </linearGradient>
    <radialGradient
       inkscape:collect="always"
       xlink:href="#linearGradient4871"
       id="radialGradient4631"
       gradientUnits="userSpaceOnUse"
       gradientTransform="matrix(1.6682146,1.6471163,-0.88417937,0.89550496,-1046.6412,-1706.4218)"
       cx="1014.4006"
       cy="-408.6366"
       fx="1014.4006"
       fy="-408.6366"
       r="120.84957" />
    <linearGradient
       y2="-341.95212"
       x2="1033.103"
       y1="-312.79977"
       x1="1033.9359"
       gradientUnits="userSpaceOnUse"
       id="linearGradient4392"
       xlink:href="#linearGradient3219"
       inkscape:collect="always" />
    <linearGradient
       y2="-341.95212"
       x2="1033.103"
       y1="-312.79977"
       x1="1033.9359"
       gradientUnits="userSpaceOnUse"
       id="linearGradient4390"
       xlink:href="#linearGradient3209"
       inkscape:collect="always" />
    <linearGradient
       inkscape:collect="always"
       id="linearGradient3219">
      <stop
         style="stop-color:#3e4837;stop-opacity:1"
         offset="0"
         id="stop3221" />
      <stop
         style="stop-color:#e5ffd5;stop-opacity:0;"
         offset="1"
         id="stop3223" />
    </linearGradient>
    <linearGradient
       id="linearGradient3209"
       inkscape:collect="always">
      <stop
         id="stop3211"
         offset="0"
         style="stop-color:#3e4837;stop-opacity:1" />
      <stop
         id="stop3213"
         offset="1"
         style="stop-color:#e5ffd5;stop-opacity:0;" />
    </linearGradient>
    <linearGradient
       y2="-299.90375"
       x2="1731.0365"
       y1="-347.02103"
       x1="1621.358"
       gradientTransform="matrix(1.3519879,0,0,1.3519879,-2458.2999,1401.0995)"
       gradientUnits="userSpaceOnUse"
       id="linearGradient4525"
       xlink:href="#linearGradient4136"
       inkscape:collect="always" />
    <linearGradient
       id="linearGradient4136"
       inkscape:collect="always">
      <stop
         id="stop4138"
         offset="0"
         style="stop-color:#000000;stop-opacity:1" />
      <stop
         id="stop4140"
         offset="1"
         style="stop-color:#2b1100;stop-opacity:0;" />
    </linearGradient>
    <linearGradient
       id="linearGradient3449"
       inkscape:collect="always">
      <stop
         id="stop3451"
         offset="0"
         style="stop-color:#000000;stop-opacity:1;" />
      <stop
         id="stop3453"
         offset="1"
         style="stop-color:#000000;stop-opacity:0;" />
    </linearGradient>
    <linearGradient
       id="linearGradient4233"
       inkscape:collect="always">
      <stop
         id="stop4235"
         offset="0"
         style="stop-color:#000000;stop-opacity:1;" />
      <stop
         id="stop4237"
         offset="1"
         style="stop-color:#000000;stop-opacity:0;" />
    </linearGradient>
    <linearGradient
       id="linearGradient4283"
       inkscape:collect="always">
      <stop
         id="stop4285"
         offset="0"
         style="stop-color:#2b1100;stop-opacity:1;" />
      <stop
         id="stop4287"
         offset="1"
         style="stop-color:#2b1100;stop-opacity:0;" />
    </linearGradient>
    <linearGradient
       inkscape:collect="always"
       xlink:href="#linearGradient4283"
       id="linearGradient6031"
       gradientUnits="userSpaceOnUse"
       gradientTransform="translate(-2538.9898,1459.867)"
       x1="503.56857"
       y1="-348.85837"
       x2="512.40308"
       y2="-335.29108" />
    <linearGradient
       inkscape:collect="always"
       xlink:href="#linearGradient3449"
       id="linearGradient6033"
       gradientUnits="userSpaceOnUse"
       gradientTransform="translate(-2538.9898,1459.867)"
       x1="535.43597"
       y1="-304.05469"
       x2="522.1842"
       y2="-302.79257" />
    <linearGradient
       inkscape:collect="always"
       xlink:href="#linearGradient4233"
       id="linearGradient6035"
       gradientUnits="userSpaceOnUse"
       gradientTransform="translate(-2538.9898,1459.867)"
       x1="492.84091"
       y1="-285.43903"
       x2="581.34399"
       y2="-291.27615" />
    <linearGradient
       id="linearGradient4817"
       inkscape:collect="always">
      <stop
         id="stop4819"
         offset="0"
         style="stop-color:#917c6f;stop-opacity:1;" />
      <stop
         id="stop4821"
         offset="1"
         style="stop-color:#2b1100;stop-opacity:1" />
    </linearGradient>
    <linearGradient
       inkscape:collect="always"
       id="linearGradient5172">
      <stop
         style="stop-color:#502d16;stop-opacity:1;"
         offset="0"
         id="stop5174" />
      <stop
         style="stop-color:#917c6f;stop-opacity:1"
         offset="1"
         id="stop5176" />
    </linearGradient>
    <linearGradient
       id="linearGradient5181">
      <stop
         id="stop5183"
         offset="0"
         style="stop-color:#907b6e;stop-opacity:1" />
      <stop
         style="stop-color:#7a6356;stop-opacity:1;"
         offset="0.75249761"
         id="stop5191" />
      <stop
         style="stop-color:#644c3e;stop-opacity:1;"
         offset="0.812451"
         id="stop5189" />
      <stop
         id="stop5185"
         offset="1"
         style="stop-color:#381e0e;stop-opacity:1" />
    </linearGradient>
    <linearGradient
       inkscape:collect="always"
       id="linearGradient5193">
      <stop
         style="stop-color:#826c5f;stop-opacity:1"
         offset="0"
         id="stop5195" />
      <stop
         style="stop-color:#502d16;stop-opacity:1"
         offset="1"
         id="stop5197" />
    </linearGradient>
    <linearGradient
       inkscape:collect="always"
       xlink:href="#linearGradient4817"
       id="linearGradient5870"
       gradientUnits="userSpaceOnUse"
       gradientTransform="matrix(0.89679722,0,0,0.89679722,-2045.7805,1424)"
       x1="660.06604"
       y1="-501.25412"
       x2="616.52441"
       y2="-327.7186" />
    <linearGradient
       inkscape:collect="always"
       xlink:href="#linearGradient5181"
       id="linearGradient5872"
       gradientUnits="userSpaceOnUse"
       gradientTransform="translate(-1159.9752,1449.158)"
       x1="-276.65112"
       y1="-462.97198"
       x2="-282.89807"
       y2="-279.57907" />
    <linearGradient
       inkscape:collect="always"
       xlink:href="#linearGradient5172"
       id="linearGradient5874"
       gradientUnits="userSpaceOnUse"
       gradientTransform="matrix(0.89679722,0,0,0.89679722,-2045.7805,1424)"
       x1="533.96741"
       y1="-432.47049"
       x2="555.86011"
       y2="-240.41187" />
    <linearGradient
       inkscape:collect="always"
       xlink:href="#linearGradient4817"
       id="linearGradient5876"
       gradientUnits="userSpaceOnUse"
       gradientTransform="matrix(0.82173933,0,0,0.82173933,-2014.5348,1366.3891)"
       x1="626.62103"
       y1="-258.30438"
       x2="602.01056"
       y2="-402.81216" />
    <linearGradient
       inkscape:collect="always"
       xlink:href="#linearGradient5193"
       id="linearGradient5878"
       gradientUnits="userSpaceOnUse"
       gradientTransform="matrix(0.89679722,0,0,0.89679722,-2020.1702,1428.0016)"
       x1="564.45752"
       y1="-396.48645"
       x2="567.13477"
       y2="-318.39944" />
    <linearGradient
       id="linearGradient3338"
       inkscape:collect="always">
      <stop
         id="stop3340"
         offset="0"
         style="stop-color:#beb7c8;stop-opacity:1;" />
      <stop
         id="stop3342"
         offset="1"
         style="stop-color:#5d536c;stop-opacity:1" />
    </linearGradient>
    <linearGradient
       inkscape:collect="always"
       id="linearGradient3360">
      <stop
         style="stop-color:#474052;stop-opacity:1"
         offset="0"
         id="stop3362" />
      <stop
         style="stop-color:#5d536c;stop-opacity:1"
         offset="1"
         id="stop3364" />
    </linearGradient>
    <linearGradient
       inkscape:collect="always"
       id="linearGradient3380">
      <stop
         style="stop-color:#857c92;stop-opacity:1"
         offset="0"
         id="stop3382" />
      <stop
         style="stop-color:#5d536c;stop-opacity:1"
         offset="1"
         id="stop3384" />
    </linearGradient>
    <linearGradient
       id="linearGradient3394"
       inkscape:collect="always">
      <stop
         id="stop3396"
         offset="0"
         style="stop-color:#675d76;stop-opacity:1" />
      <stop
         id="stop3398"
         offset="1"
         style="stop-color:#5d536c;stop-opacity:1" />
    </linearGradient>
    <linearGradient
       inkscape:collect="always"
       xlink:href="#linearGradient3394"
       id="linearGradient5534"
       gradientUnits="userSpaceOnUse"
       gradientTransform="translate(-1035.7984,1460.497)"
       x1="548.9787"
       y1="-310.0397"
       x2="511.74536"
       y2="-309.25769" />
    <linearGradient
       inkscape:collect="always"
       xlink:href="#linearGradient3380"
       id="linearGradient5539"
       gradientUnits="userSpaceOnUse"
       gradientTransform="translate(-1104.5149,1460.497)"
       x1="549.00745"
       y1="-310.31183"
       x2="511.80453"
       y2="-309.47519" />
    <radialGradient
       inkscape:collect="always"
       xlink:href="#linearGradient3338"
       id="radialGradient5551"
       gradientUnits="userSpaceOnUse"
       gradientTransform="matrix(0.51554821,-0.84568081,1.1288979,0.68820444,-643.46887,1694.073)"
       cx="423.07739"
       cy="-187.4471"
       fx="423.07739"
       fy="-187.4471"
       r="166.84651" />
    <linearGradient
       inkscape:collect="always"
       xlink:href="#linearGradient3360"
       id="linearGradient5555"
       gradientUnits="userSpaceOnUse"
       gradientTransform="translate(-1124.2237,1458.7504)"
       x1="452.13895"
       y1="-403.7587"
       x2="425.63535"
       y2="-424.26743" />
    <linearGradient
       inkscape:collect="always"
       xlink:href="#linearGradient3360"
       id="linearGradient5558"
       gradientUnits="userSpaceOnUse"
       gradientTransform="translate(-1124.2237,1458.7504)"
       x1="452.13895"
       y1="-403.7587"
       x2="425.63535"
       y2="-424.26743" />
    <linearGradient
       id="linearGradient4274">
      <stop
         id="stop4276"
         offset="0"
         style="stop-color:#241c1c;stop-opacity:1" />
      <stop
         style="stop-color:#483737;stop-opacity:1;"
         offset="0.15879123"
         id="stop4286" />
      <stop
         style="stop-color:#544141;stop-opacity:1"
         offset="0.50204235"
         id="stop4282" />
      <stop
         id="stop4284"
         offset="0.75"
         style="stop-color:#483737;stop-opacity:1;" />
      <stop
         id="stop4278"
         offset="1"
         style="stop-color:#241c1c;stop-opacity:1" />
    </linearGradient>
    <linearGradient
       id="linearGradient4300"
       inkscape:collect="always">
      <stop
         id="stop4302"
         offset="0"
         style="stop-color:#513f3f;stop-opacity:1" />
      <stop
         id="stop4304"
         offset="1"
         style="stop-color:#916f6f;stop-opacity:1" />
    </linearGradient>
    <linearGradient
       id="linearGradient4338"
       inkscape:collect="always">
      <stop
         id="stop4340"
         offset="0"
         style="stop-color:#5a4545;stop-opacity:1" />
      <stop
         id="stop4342"
         offset="1"
         style="stop-color:#6c5353;stop-opacity:1" />
    </linearGradient>
    <linearGradient
       inkscape:collect="always"
       xlink:href="#linearGradient4338"
       id="linearGradient5824"
       gradientUnits="userSpaceOnUse"
       gradientTransform="matrix(1.1870923,0,0,1.1870923,557.10763,972.51967)"
       x1="506.36237"
       y1="-254.24303"
       x2="505.8338"
       y2="-219.35794" />
    <linearGradient
       inkscape:collect="always"
       xlink:href="#linearGradient4300"
       id="linearGradient5826"
       gradientUnits="userSpaceOnUse"
       gradientTransform="matrix(0.83444929,0,0,0.83444929,695.02334,866.91126)"
       x1="521.0072"
       y1="-422.45435"
       x2="521.0072"
       y2="-338.73444" />
    <linearGradient
       inkscape:collect="always"
       xlink:href="#linearGradient4274"
       id="linearGradient5828"
       gradientUnits="userSpaceOnUse"
       gradientTransform="matrix(0.83444929,0,0,0.83444929,741.18088,866.91126)"
       x1="536.79242"
       y1="-366.81332"
       x2="556.42566"
       y2="-324.86945" />
    <linearGradient
       y2="-301.63974"
       x2="535.34979"
       y1="-301.92004"
       x1="538.38654"
       gradientTransform="translate(-25.414983,34.384977)"
       gradientUnits="userSpaceOnUse"
       id="linearGradient5544"
       xlink:href="#linearGradient3146"
       inkscape:collect="always" />
    <linearGradient
       id="linearGradient3146"
       inkscape:collect="always">
      <stop
         id="stop3148"
         offset="0"
         style="stop-color:#1c1c24;stop-opacity:1;" />
      <stop
         id="stop3150"
         offset="1"
         style="stop-color:#1c1c24;stop-opacity:0;" />
    </linearGradient>
    <linearGradient
       y2="-254.24301"
       x2="132.40479"
       y1="-254.24301"
       x1="159.62572"
       gradientTransform="translate(-47.042016,6.3427437)"
       gradientUnits="userSpaceOnUse"
       id="linearGradient4078"
       xlink:href="#linearGradient3139"
       inkscape:collect="always" />
    <linearGradient
       y2="-408.62561"
       x2="159.96489"
       y1="-417.59561"
       x1="192.85487"
       gradientTransform="translate(-63.427437,6.3427437)"
       gradientUnits="userSpaceOnUse"
       id="linearGradient4076"
       xlink:href="#linearGradient3117"
       inkscape:collect="always" />
    <linearGradient
       y2="-408.62561"
       x2="159.96489"
       y1="-417.59561"
       x1="192.85487"
       gradientTransform="matrix(1.6191115,1.2420631,-1.2420631,1.6191115,-653.89128,220.57021)"
       gradientUnits="userSpaceOnUse"
       id="linearGradient4074"
       xlink:href="#linearGradient3117"
       inkscape:collect="always" />
    <linearGradient
       id="linearGradient3117"
       inkscape:collect="always">
      <stop
         id="stop3119"
         offset="0"
         style="stop-color:#aa4400;stop-opacity:1;" />
      <stop
         id="stop3121"
         offset="1"
         style="stop-color:#783000;stop-opacity:1" />
    </linearGradient>
    <linearGradient
       id="linearGradient3139"
       inkscape:collect="always">
      <stop
         id="stop3141"
         offset="0"
         style="stop-color:#2b1100;stop-opacity:1;" />
      <stop
         id="stop3143"
         offset="1"
         style="stop-color:#2b1100;stop-opacity:0;" />
    </linearGradient>
    <linearGradient
       id="linearGradient3911"
       inkscape:collect="always">
      <stop
         id="stop3913"
         offset="0"
         style="stop-color:#241c1c;stop-opacity:1" />
      <stop
         id="stop3915"
         offset="1"
         style="stop-color:#784421;stop-opacity:0;" />
    </linearGradient>
    <linearGradient
       id="linearGradient3971"
       inkscape:collect="always">
      <stop
         id="stop3973"
         offset="0"
         style="stop-color:#917c6f;stop-opacity:1;" />
      <stop
         id="stop3975"
         offset="1"
         style="stop-color:#28170b;stop-opacity:1" />
    </linearGradient>
    <linearGradient
       inkscape:collect="always"
       xlink:href="#linearGradient3911"
       id="linearGradient3762"
       gradientUnits="userSpaceOnUse"
       gradientTransform="translate(0,-16.661873)"
       x1="519.29504"
       y1="-260.8017"
       x2="508.18713"
       y2="-300.37363" />
    <linearGradient
       inkscape:collect="always"
       xlink:href="#linearGradient3971"
       id="linearGradient3786"
       gradientUnits="userSpaceOnUse"
       gradientTransform="matrix(0.9140942,0,0,0.9140942,290.747,786.33643)"
       x1="441.53964"
       y1="-273.2981"
       x2="511.65836"
       y2="-286.14163" />
    <linearGradient
       id="linearGradient3578"
       inkscape:collect="always">
      <stop
         id="stop3580"
         offset="0"
         style="stop-color:#1f1c24;stop-opacity:1;" />
      <stop
         id="stop3582"
         offset="1"
         style="stop-color:#1f1c24;stop-opacity:0;" />
    </linearGradient>
    <linearGradient
       id="linearGradient3604"
       inkscape:collect="always">
      <stop
         id="stop3606"
         offset="0"
         style="stop-color:#211e26;stop-opacity:1;" />
      <stop
         id="stop3608"
         offset="1"
         style="stop-color:#211e26;stop-opacity:0;" />
    </linearGradient>
    <linearGradient
       inkscape:collect="always"
       xlink:href="#linearGradient3578"
       id="linearGradient3958"
       gradientUnits="userSpaceOnUse"
       gradientTransform="matrix(1.1100531,0,0,1.1100531,2863.0486,903.46763)"
       x1="-1887.6512"
       y1="-315.29987"
       x2="-1887.4778"
       y2="-254.37988" />
    <linearGradient
       inkscape:collect="always"
       xlink:href="#linearGradient3604"
       id="linearGradient3967"
       gradientUnits="userSpaceOnUse"
       gradientTransform="matrix(1.1100531,0,0,1.1100531,2931.5428,903.46763)"
       x1="-1801.6218"
       y1="-327.32669"
       x2="-1798.4309"
       y2="-249.51823" />
    <linearGradient
       inkscape:collect="always"
       xlink:href="#linearGradient3265-7-8"
       id="linearGradient6694"
       gradientUnits="userSpaceOnUse"
       gradientTransform="matrix(-1.9601035,0,0,1.9601035,3084.4205,1291.2843)"
       x1="1128.5424"
       y1="-358.21252"
       x2="1128.5"
       y2="-350.88782" />
    <linearGradient
       inkscape:collect="always"
       xlink:href="#linearGradient3265-7-8"
       id="linearGradient6696"
       gradientUnits="userSpaceOnUse"
       gradientTransform="matrix(1.9601035,0,0,1.9601035,-1268.7026,1291.2843)"
       x1="1128.5424"
       y1="-358.21252"
       x2="1128.5"
       y2="-350.88782" />
    <linearGradient
       inkscape:collect="always"
       xlink:href="#linearGradient3265-7-8"
       id="linearGradient9421"
       gradientUnits="userSpaceOnUse"
       gradientTransform="matrix(-1.9601035,0,0,1.9601035,3084.4205,1291.2843)"
       x1="1128.5424"
       y1="-358.21252"
       x2="1128.5"
       y2="-350.88782" />
    <linearGradient
       inkscape:collect="always"
       xlink:href="#linearGradient3265-7-8"
       id="linearGradient9423"
       gradientUnits="userSpaceOnUse"
       gradientTransform="matrix(1.9601035,0,0,1.9601035,-1268.7026,1291.2843)"
       x1="1128.5424"
       y1="-358.21252"
       x2="1128.5"
       y2="-350.88782" />
    <linearGradient
       inkscape:collect="always"
       xlink:href="#linearGradient4094-1"
       id="linearGradient9425"
       gradientUnits="userSpaceOnUse"
       gradientTransform="matrix(0.64156397,0,0,0.64156397,-240.46334,1048.4872)"
       x1="987.61987"
       y1="-434.2847"
       x2="919.21014"
       y2="-435.80673" />
    <linearGradient
       inkscape:collect="always"
       xlink:href="#linearGradient4122-9"
       id="linearGradient9427"
       gradientUnits="userSpaceOnUse"
       gradientTransform="matrix(0.76362355,0,0,0.76362355,-529.2141,788.2198)"
       x1="1627.4237"
       y1="-275.98389"
       x2="1568.8258"
       y2="-208.25383" />
    <linearGradient
       inkscape:collect="always"
       xlink:href="#linearGradient3310"
       id="linearGradient9429"
       gradientUnits="userSpaceOnUse"
       x1="1748.3407"
       y1="-227.81718"
       x2="1759.3722"
       y2="-149.25218" />
    <radialGradient
       inkscape:collect="always"
       xlink:href="#linearGradient4871"
       id="radialGradient9431"
       gradientUnits="userSpaceOnUse"
       gradientTransform="matrix(1.6682146,1.6471163,-0.88417937,0.89550496,-1046.6412,-1706.4218)"
       cx="1014.4006"
       cy="-408.6366"
       fx="1014.4006"
       fy="-408.6366"
       r="120.84957" />
    <linearGradient
       inkscape:collect="always"
       xlink:href="#linearGradient3209"
       id="linearGradient9433"
       gradientUnits="userSpaceOnUse"
       x1="1033.9359"
       y1="-312.79977"
       x2="1033.103"
       y2="-341.95212" />
    <linearGradient
       inkscape:collect="always"
       xlink:href="#linearGradient3219"
       id="linearGradient9435"
       gradientUnits="userSpaceOnUse"
       x1="1033.9359"
       y1="-312.79977"
       x2="1033.103"
       y2="-341.95212" />
    <linearGradient
       inkscape:collect="always"
       xlink:href="#linearGradient4136"
       id="linearGradient9437"
       gradientUnits="userSpaceOnUse"
       gradientTransform="matrix(1.3519879,0,0,1.3519879,-2458.2999,1401.0995)"
       x1="1621.358"
       y1="-347.02103"
       x2="1731.0365"
       y2="-299.90375" />
    <linearGradient
       inkscape:collect="always"
       xlink:href="#linearGradient4283"
       id="linearGradient9439"
       gradientUnits="userSpaceOnUse"
       gradientTransform="translate(-2538.9898,1459.867)"
       x1="503.56857"
       y1="-348.85837"
       x2="512.40308"
       y2="-335.29108" />
    <linearGradient
       inkscape:collect="always"
       xlink:href="#linearGradient3449"
       id="linearGradient9441"
       gradientUnits="userSpaceOnUse"
       gradientTransform="translate(-2538.9898,1459.867)"
       x1="535.43597"
       y1="-304.05469"
       x2="522.1842"
       y2="-302.79257" />
    <linearGradient
       inkscape:collect="always"
       xlink:href="#linearGradient4233"
       id="linearGradient9443"
       gradientUnits="userSpaceOnUse"
       gradientTransform="translate(-2538.9898,1459.867)"
       x1="492.84091"
       y1="-285.43903"
       x2="581.34399"
       y2="-291.27615" />
    <linearGradient
       inkscape:collect="always"
       xlink:href="#linearGradient4817"
       id="linearGradient9445"
       gradientUnits="userSpaceOnUse"
       gradientTransform="matrix(0.89679722,0,0,0.89679722,-2045.7805,1424)"
       x1="660.06604"
       y1="-501.25412"
       x2="616.52441"
       y2="-327.7186" />
    <linearGradient
       inkscape:collect="always"
       xlink:href="#linearGradient5181"
       id="linearGradient9447"
       gradientUnits="userSpaceOnUse"
       gradientTransform="translate(-1159.9752,1449.158)"
       x1="-276.65112"
       y1="-462.97198"
       x2="-282.89807"
       y2="-279.57907" />
    <linearGradient
       inkscape:collect="always"
       xlink:href="#linearGradient5172"
       id="linearGradient9449"
       gradientUnits="userSpaceOnUse"
       gradientTransform="matrix(0.89679722,0,0,0.89679722,-2045.7805,1424)"
       x1="533.96741"
       y1="-432.47049"
       x2="555.86011"
       y2="-240.41187" />
    <linearGradient
       inkscape:collect="always"
       xlink:href="#linearGradient4817"
       id="linearGradient9451"
       gradientUnits="userSpaceOnUse"
       gradientTransform="matrix(0.82173933,0,0,0.82173933,-2014.5348,1366.3891)"
       x1="626.62103"
       y1="-258.30438"
       x2="602.01056"
       y2="-402.81216" />
    <linearGradient
       inkscape:collect="always"
       xlink:href="#linearGradient5193"
       id="linearGradient9453"
       gradientUnits="userSpaceOnUse"
       gradientTransform="matrix(0.89679722,0,0,0.89679722,-2020.1702,1428.0016)"
       x1="564.45752"
       y1="-396.48645"
       x2="567.13477"
       y2="-318.39944" />
    <linearGradient
       inkscape:collect="always"
       xlink:href="#linearGradient3360"
       id="linearGradient9455"
       gradientUnits="userSpaceOnUse"
       gradientTransform="translate(-1124.2237,1458.7504)"
       x1="452.13895"
       y1="-403.7587"
       x2="425.63535"
       y2="-424.26743" />
    <linearGradient
       inkscape:collect="always"
       xlink:href="#linearGradient3360"
       id="linearGradient9457"
       gradientUnits="userSpaceOnUse"
       gradientTransform="translate(-1124.2237,1458.7504)"
       x1="452.13895"
       y1="-403.7587"
       x2="425.63535"
       y2="-424.26743" />
    <radialGradient
       inkscape:collect="always"
       xlink:href="#linearGradient3338"
       id="radialGradient9459"
       gradientUnits="userSpaceOnUse"
       gradientTransform="matrix(0.51554821,-0.84568081,1.1288979,0.68820444,-643.46887,1694.073)"
       cx="423.07739"
       cy="-187.4471"
       fx="423.07739"
       fy="-187.4471"
       r="166.84651" />
    <linearGradient
       inkscape:collect="always"
       xlink:href="#linearGradient3380"
       id="linearGradient9461"
       gradientUnits="userSpaceOnUse"
       gradientTransform="translate(-1104.5149,1460.497)"
       x1="549.00745"
       y1="-310.31183"
       x2="511.80453"
       y2="-309.47519" />
    <linearGradient
       inkscape:collect="always"
       xlink:href="#linearGradient3394"
       id="linearGradient9463"
       gradientUnits="userSpaceOnUse"
       gradientTransform="translate(-1035.7984,1460.497)"
       x1="548.9787"
       y1="-310.0397"
       x2="511.74536"
       y2="-309.25769" />
    <linearGradient
       inkscape:collect="always"
       xlink:href="#linearGradient4338"
       id="linearGradient9465"
       gradientUnits="userSpaceOnUse"
       gradientTransform="matrix(1.1870923,0,0,1.1870923,557.10763,972.51967)"
       x1="506.36237"
       y1="-254.24303"
       x2="505.8338"
       y2="-219.35794" />
    <linearGradient
       inkscape:collect="always"
       xlink:href="#linearGradient4300"
       id="linearGradient9467"
       gradientUnits="userSpaceOnUse"
       gradientTransform="matrix(0.83444929,0,0,0.83444929,695.02334,866.91126)"
       x1="521.0072"
       y1="-422.45435"
       x2="521.0072"
       y2="-338.73444" />
    <linearGradient
       inkscape:collect="always"
       xlink:href="#linearGradient4274"
       id="linearGradient9469"
       gradientUnits="userSpaceOnUse"
       gradientTransform="matrix(0.83444929,0,0,0.83444929,741.18088,866.91126)"
       x1="536.79242"
       y1="-366.81332"
       x2="556.42566"
       y2="-324.86945" />
    <linearGradient
       inkscape:collect="always"
       xlink:href="#linearGradient3146"
       id="linearGradient9471"
       gradientUnits="userSpaceOnUse"
       gradientTransform="translate(-25.414983,34.384977)"
       x1="538.38654"
       y1="-301.92004"
       x2="535.34979"
       y2="-301.63974" />
    <linearGradient
       inkscape:collect="always"
       xlink:href="#linearGradient3117"
       id="linearGradient9473"
       gradientUnits="userSpaceOnUse"
       gradientTransform="matrix(1.6191115,1.2420631,-1.2420631,1.6191115,-653.89128,220.57021)"
       x1="192.85487"
       y1="-417.59561"
       x2="159.96489"
       y2="-408.62561" />
    <linearGradient
       inkscape:collect="always"
       xlink:href="#linearGradient3117"
       id="linearGradient9475"
       gradientUnits="userSpaceOnUse"
       gradientTransform="translate(-63.427437,6.3427437)"
       x1="192.85487"
       y1="-417.59561"
       x2="159.96489"
       y2="-408.62561" />
    <linearGradient
       inkscape:collect="always"
       xlink:href="#linearGradient3139"
       id="linearGradient9477"
       gradientUnits="userSpaceOnUse"
       gradientTransform="translate(-47.042016,6.3427437)"
       x1="159.62572"
       y1="-254.24301"
       x2="132.40479"
       y2="-254.24301" />
    <linearGradient
       inkscape:collect="always"
       xlink:href="#linearGradient3971"
       id="linearGradient9479"
       gradientUnits="userSpaceOnUse"
       gradientTransform="matrix(0.9140942,0,0,0.9140942,290.747,786.33643)"
       x1="441.53964"
       y1="-273.2981"
       x2="511.65836"
       y2="-286.14163" />
    <linearGradient
       inkscape:collect="always"
       xlink:href="#linearGradient3911"
       id="linearGradient9481"
       gradientUnits="userSpaceOnUse"
       gradientTransform="translate(0,-16.661873)"
       x1="519.29504"
       y1="-260.8017"
       x2="508.18713"
       y2="-300.37363" />
    <linearGradient
       inkscape:collect="always"
       xlink:href="#linearGradient3604"
       id="linearGradient9483"
       gradientUnits="userSpaceOnUse"
       gradientTransform="matrix(1.1100531,0,0,1.1100531,2931.5428,903.46763)"
       x1="-1801.6218"
       y1="-327.32669"
       x2="-1798.4309"
       y2="-249.51823" />
    <linearGradient
       inkscape:collect="always"
       xlink:href="#linearGradient3578"
       id="linearGradient9485"
       gradientUnits="userSpaceOnUse"
       gradientTransform="matrix(1.1100531,0,0,1.1100531,2863.0486,903.46763)"
       x1="-1887.6512"
       y1="-315.29987"
       x2="-1887.4778"
       y2="-254.37988" />
    <linearGradient
       inkscape:collect="always"
       xlink:href="#linearGradient4283"
       id="linearGradient10519"
       gradientUnits="userSpaceOnUse"
       gradientTransform="translate(-2538.9898,1459.867)"
       x1="503.56857"
       y1="-348.85837"
       x2="512.40308"
       y2="-335.29108" />
    <linearGradient
       inkscape:collect="always"
       xlink:href="#linearGradient3449"
       id="linearGradient10521"
       gradientUnits="userSpaceOnUse"
       gradientTransform="translate(-2538.9898,1459.867)"
       x1="535.43597"
       y1="-304.05469"
       x2="522.1842"
       y2="-302.79257" />
    <linearGradient
       inkscape:collect="always"
       xlink:href="#linearGradient4233"
       id="linearGradient10523"
       gradientUnits="userSpaceOnUse"
       gradientTransform="translate(-2538.9898,1459.867)"
       x1="492.84091"
       y1="-285.43903"
       x2="581.34399"
       y2="-291.27615" />
    <linearGradient
       inkscape:collect="always"
       xlink:href="#linearGradient3265-7-8"
       id="linearGradient10525"
       gradientUnits="userSpaceOnUse"
       gradientTransform="matrix(-1.9601035,0,0,1.9601035,3084.4205,1291.2843)"
       x1="1128.5424"
       y1="-358.21252"
       x2="1128.5"
       y2="-350.88782" />
    <linearGradient
       inkscape:collect="always"
       xlink:href="#linearGradient3265-7-8"
       id="linearGradient10527"
       gradientUnits="userSpaceOnUse"
       gradientTransform="matrix(1.9601035,0,0,1.9601035,-1268.7026,1291.2843)"
       x1="1128.5424"
       y1="-358.21252"
       x2="1128.5"
       y2="-350.88782" />
    <linearGradient
       inkscape:collect="always"
       xlink:href="#linearGradient4094-1"
       id="linearGradient10529"
       gradientUnits="userSpaceOnUse"
       gradientTransform="matrix(0.64156397,0,0,0.64156397,-240.46334,1048.4872)"
       x1="987.61987"
       y1="-434.2847"
       x2="919.21014"
       y2="-435.80673" />
    <linearGradient
       inkscape:collect="always"
       xlink:href="#linearGradient4122-9"
       id="linearGradient10531"
       gradientUnits="userSpaceOnUse"
       gradientTransform="matrix(0.76362355,0,0,0.76362355,-529.2141,788.2198)"
       x1="1627.4237"
       y1="-275.98389"
       x2="1568.8258"
       y2="-208.25383" />
    <linearGradient
       inkscape:collect="always"
       xlink:href="#linearGradient3310"
       id="linearGradient10533"
       gradientUnits="userSpaceOnUse"
       x1="1748.3407"
       y1="-227.81718"
       x2="1759.3722"
       y2="-149.25218" />
    <radialGradient
       inkscape:collect="always"
       xlink:href="#linearGradient4871"
       id="radialGradient10535"
       gradientUnits="userSpaceOnUse"
       gradientTransform="matrix(1.6682146,1.6471163,-0.88417937,0.89550496,-1046.6412,-1706.4218)"
       cx="1014.4006"
       cy="-408.6366"
       fx="1014.4006"
       fy="-408.6366"
       r="120.84957" />
    <linearGradient
       inkscape:collect="always"
       xlink:href="#linearGradient3209"
       id="linearGradient10537"
       gradientUnits="userSpaceOnUse"
       x1="1033.9359"
       y1="-312.79977"
       x2="1033.103"
       y2="-341.95212" />
    <linearGradient
       inkscape:collect="always"
       xlink:href="#linearGradient3219"
       id="linearGradient10539"
       gradientUnits="userSpaceOnUse"
       x1="1033.9359"
       y1="-312.79977"
       x2="1033.103"
       y2="-341.95212" />
    <linearGradient
       inkscape:collect="always"
       xlink:href="#linearGradient4136"
       id="linearGradient10541"
       gradientUnits="userSpaceOnUse"
       gradientTransform="matrix(1.3519879,0,0,1.3519879,-2458.2999,1401.0995)"
       x1="1621.358"
       y1="-347.02103"
       x2="1731.0365"
       y2="-299.90375" />
    <linearGradient
       inkscape:collect="always"
       xlink:href="#linearGradient4817"
       id="linearGradient10572"
       gradientUnits="userSpaceOnUse"
       gradientTransform="matrix(0.89679722,0,0,0.89679722,-2045.7805,1424)"
       x1="660.06604"
       y1="-501.25412"
       x2="616.52441"
       y2="-327.7186" />
    <linearGradient
       inkscape:collect="always"
       xlink:href="#linearGradient5181"
       id="linearGradient10574"
       gradientUnits="userSpaceOnUse"
       gradientTransform="translate(-1159.9752,1449.158)"
       x1="-276.65112"
       y1="-462.97198"
       x2="-282.89807"
       y2="-279.57907" />
    <linearGradient
       inkscape:collect="always"
       xlink:href="#linearGradient5172"
       id="linearGradient10576"
       gradientUnits="userSpaceOnUse"
       gradientTransform="matrix(0.89679722,0,0,0.89679722,-2045.7805,1424)"
       x1="533.96741"
       y1="-432.47049"
       x2="555.86011"
       y2="-240.41187" />
    <linearGradient
       inkscape:collect="always"
       xlink:href="#linearGradient4817"
       id="linearGradient10578"
       gradientUnits="userSpaceOnUse"
       gradientTransform="matrix(0.82173933,0,0,0.82173933,-2014.5348,1366.3891)"
       x1="626.62103"
       y1="-258.30438"
       x2="602.01056"
       y2="-402.81216" />
    <linearGradient
       inkscape:collect="always"
       xlink:href="#linearGradient5193"
       id="linearGradient10580"
       gradientUnits="userSpaceOnUse"
       gradientTransform="matrix(0.89679722,0,0,0.89679722,-2020.1702,1428.0016)"
       x1="564.45752"
       y1="-396.48645"
       x2="567.13477"
       y2="-318.39944" />
    <linearGradient
       inkscape:collect="always"
       xlink:href="#linearGradient3360"
       id="linearGradient10582"
       gradientUnits="userSpaceOnUse"
       gradientTransform="translate(-1124.2237,1458.7504)"
       x1="452.13895"
       y1="-403.7587"
       x2="425.63535"
       y2="-424.26743" />
    <linearGradient
       inkscape:collect="always"
       xlink:href="#linearGradient3360"
       id="linearGradient10584"
       gradientUnits="userSpaceOnUse"
       gradientTransform="translate(-1124.2237,1458.7504)"
       x1="452.13895"
       y1="-403.7587"
       x2="425.63535"
       y2="-424.26743" />
    <radialGradient
       inkscape:collect="always"
       xlink:href="#linearGradient3338"
       id="radialGradient10586"
       gradientUnits="userSpaceOnUse"
       gradientTransform="matrix(0.51554821,-0.84568081,1.1288979,0.68820444,-643.46887,1694.073)"
       cx="423.07739"
       cy="-187.4471"
       fx="423.07739"
       fy="-187.4471"
       r="166.84651" />
    <linearGradient
       inkscape:collect="always"
       xlink:href="#linearGradient3380"
       id="linearGradient10588"
       gradientUnits="userSpaceOnUse"
       gradientTransform="translate(-1104.5149,1460.497)"
       x1="549.00745"
       y1="-310.31183"
       x2="511.80453"
       y2="-309.47519" />
    <linearGradient
       inkscape:collect="always"
       xlink:href="#linearGradient3394"
       id="linearGradient10590"
       gradientUnits="userSpaceOnUse"
       gradientTransform="translate(-1035.7984,1460.497)"
       x1="548.9787"
       y1="-310.0397"
       x2="511.74536"
       y2="-309.25769" />
    <linearGradient
       inkscape:collect="always"
       xlink:href="#linearGradient4338"
       id="linearGradient10592"
       gradientUnits="userSpaceOnUse"
       gradientTransform="matrix(1.1870923,0,0,1.1870923,557.10763,972.51967)"
       x1="506.36237"
       y1="-254.24303"
       x2="505.8338"
       y2="-219.35794" />
    <linearGradient
       inkscape:collect="always"
       xlink:href="#linearGradient4300"
       id="linearGradient10594"
       gradientUnits="userSpaceOnUse"
       gradientTransform="matrix(0.83444929,0,0,0.83444929,695.02334,866.91126)"
       x1="521.0072"
       y1="-422.45435"
       x2="521.0072"
       y2="-338.73444" />
    <linearGradient
       inkscape:collect="always"
       xlink:href="#linearGradient4274"
       id="linearGradient10596"
       gradientUnits="userSpaceOnUse"
       gradientTransform="matrix(0.83444929,0,0,0.83444929,741.18088,866.91126)"
       x1="536.79242"
       y1="-366.81332"
       x2="556.42566"
       y2="-324.86945" />
    <linearGradient
       inkscape:collect="always"
       xlink:href="#linearGradient3604"
       id="linearGradient10598"
       gradientUnits="userSpaceOnUse"
       gradientTransform="matrix(1.1100531,0,0,1.1100531,2931.5428,903.46763)"
       x1="-1801.6218"
       y1="-327.32669"
       x2="-1798.4309"
       y2="-249.51823" />
    <linearGradient
       inkscape:collect="always"
       xlink:href="#linearGradient3578"
       id="linearGradient10600"
       gradientUnits="userSpaceOnUse"
       gradientTransform="matrix(1.1100531,0,0,1.1100531,2863.0486,903.46763)"
       x1="-1887.6512"
       y1="-315.29987"
       x2="-1887.4778"
       y2="-254.37988" />
    <linearGradient
       inkscape:collect="always"
       xlink:href="#linearGradient3971"
       id="linearGradient10602"
       gradientUnits="userSpaceOnUse"
       gradientTransform="matrix(0.9140942,0,0,0.9140942,290.747,786.33643)"
       x1="441.53964"
       y1="-273.2981"
       x2="511.65836"
       y2="-286.14163" />
    <linearGradient
       inkscape:collect="always"
       xlink:href="#linearGradient3911"
       id="linearGradient10604"
       gradientUnits="userSpaceOnUse"
       gradientTransform="translate(0,-16.661873)"
       x1="519.29504"
       y1="-260.8017"
       x2="508.18713"
       y2="-300.37363" />
    <linearGradient
       inkscape:collect="always"
       xlink:href="#linearGradient3117"
       id="linearGradient10606"
       gradientUnits="userSpaceOnUse"
       gradientTransform="matrix(1.6191115,1.2420631,-1.2420631,1.6191115,-653.89128,220.57021)"
       x1="192.85487"
       y1="-417.59561"
       x2="159.96489"
       y2="-408.62561" />
    <linearGradient
       inkscape:collect="always"
       xlink:href="#linearGradient3117"
       id="linearGradient10608"
       gradientUnits="userSpaceOnUse"
       gradientTransform="translate(-63.427437,6.3427437)"
       x1="192.85487"
       y1="-417.59561"
       x2="159.96489"
       y2="-408.62561" />
    <linearGradient
       inkscape:collect="always"
       xlink:href="#linearGradient3139"
       id="linearGradient10610"
       gradientUnits="userSpaceOnUse"
       gradientTransform="translate(-47.042016,6.3427437)"
       x1="159.62572"
       y1="-254.24301"
       x2="132.40479"
       y2="-254.24301" />
    <linearGradient
       inkscape:collect="always"
       xlink:href="#linearGradient3146"
       id="linearGradient10612"
       gradientUnits="userSpaceOnUse"
       gradientTransform="translate(-25.414983,34.384977)"
       x1="538.38654"
       y1="-301.92004"
       x2="535.34979"
       y2="-301.63974" />
  </defs>
  <sodipodi:namedview
     id="base"
     pagecolor="#ffffff"
     bordercolor="#666666"
     borderopacity="1.0"
     inkscape:pageopacity="0.0"
     inkscape:pageshadow="2"
     inkscape:zoom="0.2681029"
     inkscape:cx="974.41333"
     inkscape:cy="560.178"
     inkscape:document-units="px"
     inkscape:current-layer="layer1"
     showgrid="false"
     fit-margin-top="0"
     fit-margin-left="0"
     fit-margin-right="0"
     fit-margin-bottom="0"
     inkscape:window-width="1920"
     inkscape:window-height="1017"
     inkscape:window-x="0"
     inkscape:window-y="28"
     inkscape:window-maximized="1"
     showguides="true"
     inkscape:guide-bbox="true"
     inkscape:snap-grids="false"
     inkscape:snap-to-guides="false">
    <sodipodi:guide
       orientation="0,1"
       position="371.87981,1115.6394"
       id="guide6622" />
    <sodipodi:guide
       orientation="0,1"
       position="73.848474,189.89608"
       id="guide6624" />
    <sodipodi:guide
       orientation="1,0"
       position="363.96748,1521.806"
       id="guide6626" />
    <sodipodi:guide
       orientation="1,0"
       position="862.44468,1442.6827"
       id="guide6628" />
  </sodipodi:namedview>
  <metadata
     id="metadata7">
    <rdf:RDF>
      <cc:Work
         rdf:about="">
        <dc:format>image/svg+xml</dc:format>
        <dc:type
           rdf:resource="http://purl.org/dc/dcmitype/StillImage" />
        <dc:title />
      </cc:Work>
    </rdf:RDF>
  </metadata>
  <g
     inkscape:label="Capa 1"
     inkscape:groupmode="layer"
     id="layer1"
     transform="translate(15278.44,186.36436)">
    <rect
       style="opacity:0.8;fill:#000000;fill-opacity:1;stroke:none"
       id="rect6564"
       width="23217.738"
       height="1351.7388"
       x="-15278.44"
       y="-186.36436" />
    <g
       id="g6680">
      <g
         transform="translate(-8976.3652,15.337126)"
         id="g8044">
        <g
           style="font-size:204.73330688px;font-style:normal;font-variant:normal;font-weight:normal;font-stretch:normal;line-height:125%;letter-spacing:0px;word-spacing:0px;fill:#ffffff;fill-opacity:1;stroke:none;font-family:Short Stack;-inkscape-font-specification:Short Stack"
           id="text3044-5">
          <path
             inkscape:connector-curvature="0"
             d="m -5816.5809,505.12415 c 0,-3.66542 0.2665,-7.53082 0.7997,-11.59622 0.5332,-4.13192 1.2663,-8.26391 2.1993,-12.39597 0.933,-4.19855 1.966,-8.33053 3.099,-12.39596 1.1996,-4.06525 2.4658,-7.89733 3.7987,-11.49625 1.5995,-4.26517 3.8654,-8.66374 6.7978,-13.1957 2.999,-4.53174 6.5978,-8.6304 10.7965,-12.296 4.2652,-3.73199 9.097,-6.79765 14.4953,-9.197 5.4648,-2.39908 11.4629,-3.59869 17.9941,-3.59883 5.7314,1.4e-4 11.3962,0.8332 16.9945,2.49919 5.6647,1.66625 10.7297,4.13212 15.195,7.39759 4.5318,3.26572 8.1973,7.29774 10.9965,12.09606 2.7989,4.7319 4.1985,10.2301 4.1986,16.49462 -1e-4,1.13307 -0.1334,2.46596 -0.3999,3.9987 -0.2667,1.46628 -0.7332,2.89915 -1.3995,4.2986 -0.5999,1.33299 -1.4663,2.46595 -2.5992,3.39889 -1.133,0.93312 -2.5992,1.39963 -4.3985,1.39955 -2.0661,8e-5 -3.6656,-0.5664 -4.7985,-1.69945 -1.0664,-1.19952 -1.8661,-2.66571 -2.3992,-4.39857 -0.4666,-1.73267 -0.7665,-3.63205 -0.8997,-5.69814 -0.067,-2.13254 -0.1001,-4.13189 -0.1,-5.99805 -1e-4,-2.26582 -0.9664,-4.39845 -2.899,-6.39791 -1.9328,-2.06588 -4.3654,-3.8653 -7.2976,-5.39824 -2.9325,-1.53272 -6.1315,-2.73233 -9.5969,-3.59883 -3.4656,-0.93291 -6.6979,-1.39942 -9.6969,-1.39955 -5.5982,1.3e-4 -10.5632,1.2997 -14.8951,3.89873 -4.332,2.59927 -8.0974,5.99816 -11.2963,10.19668 -3.199,4.19874 -5.8981,8.8972 -8.0974,14.09541 -2.1327,5.1984 -3.8654,10.3967 -5.1983,15.59492 -1.3329,5.13173 -2.2993,10.03013 -2.8991,14.69521 -0.5331,4.66521 -0.7997,8.49729 -0.7997,11.49626 0,5.93145 1.2662,11.22971 3.7988,15.89482 2.5324,4.66518 5.8647,8.63055 9.9967,11.89612 4.132,3.19898 8.7971,5.66484 13.9955,7.39759 5.1982,1.66614 10.4965,2.49921 15.8948,2.49919 2.6657,2e-5 5.798,-0.1 9.3969,-0.2999 3.5988,-0.19992 7.2642,-0.53315 10.9964,-0.99968 3.7321,-0.53314 7.3642,-1.23291 10.8965,-2.09931 3.5987,-0.86637 6.6644,-1.93269 9.197,-3.19896 1.0662,-0.53314 1.9659,-1.16626 2.6991,-1.89938 0.733,-0.79972 1.4661,-1.53281 2.1993,-2.19928 0.7996,-0.73307 1.666,-1.33288 2.5991,-1.79942 0.9996,-0.53313 2.2325,-0.79971 3.6988,-0.79974 2.8656,3e-5 5.1316,0.96638 6.7978,2.89906 1.7327,1.93272 2.599,4.29862 2.5992,7.09769 -2e-4,1.86607 -0.2334,3.3989 -0.6998,4.5985 -0.4666,1.13297 -1.2664,2.16597 -2.3992,3.09899 -2.5326,2.13264 -6.0315,3.96538 -10.4966,5.49821 -4.3987,1.53283 -9.1971,2.79909 -14.3953,3.79876 -5.1984,0.99967 -10.4967,1.73277 -15.8948,2.19928 -5.3317,0.46652 -10.2301,0.69977 -14.6952,0.69977 -5.1984,0 -10.3967,-0.33322 -15.595,-0.99967 -5.1317,-0.66645 -10.0634,-1.76609 -14.7951,-3.29892 -4.7319,-1.59948 -9.1638,-3.73212 -13.2957,-6.39792 -4.0654,-2.73243 -7.5976,-6.13132 -10.5966,-10.19668 -2.999,-4.13196 -5.3649,-8.99704 -7.0976,-14.59524 -1.6662,-5.59814 -2.4992,-12.12934 -2.4992,-19.59362"
             id="path6868" />
          <path
             inkscape:connector-curvature="0"
             d="m -5674.6272,516.3205 c 0,-9.19695 1.3329,-17.82747 3.9987,-25.89156 2.6658,-8.13061 6.5979,-15.22829 11.7962,-21.29307 5.1983,-6.13124 11.6295,-10.96299 19.2937,-14.49528 7.6641,-3.53207 16.4612,-5.29816 26.3914,-5.29827 1.866,1.1e-4 3.9986,0.33333 6.3979,0.99967 2.3992,0.66656 4.8317,1.63291 7.2976,2.89906 2.4658,1.26636 4.8984,2.79919 7.2977,4.5985 2.3991,1.73287 4.5317,3.69889 6.3979,5.89808 1.8659,2.13273 3.3654,4.4653 4.4985,6.99772 1.1329,2.53259 1.6994,5.16507 1.6995,7.89743 -1e-4,0.79982 -0.1668,1.79949 -0.4999,2.99902 -0.3333,1.19969 -0.7998,2.33265 -1.3995,3.39889 -0.5333,1.0664 -1.1997,1.93278 -1.9994,2.59916 -0.7998,0.66652 -1.6995,0.9331 -2.6991,0.79974 -0.9331,-0.19987 -1.9661,-0.93296 -3.099,-2.19929 -1.133,-1.26618 -2.2993,-3.36549 -3.4988,-6.29795 -0.9332,-2.13255 -2.2661,-3.96529 -3.9987,-5.4982 -1.6662,-1.53275 -3.599,-2.76568 -5.7981,-3.6988 -2.1994,-0.99959 -4.5653,-1.73268 -7.0977,-2.19928 -2.466,-0.46643 -4.9318,-0.69968 -7.3976,-0.69977 -6.0648,9e-5 -11.5297,1.23302 -16.3947,3.69879 -4.7985,2.46595 -8.8971,5.73155 -12.296,9.79681 -3.3989,3.99877 -5.9981,8.56394 -7.7974,13.69554 -1.7995,5.13172 -2.6992,10.33002 -2.6992,15.59492 0,6.4646 0.9664,11.76287 2.8991,15.89482 1.9327,4.06537 4.6651,7.29765 8.1973,9.69684 3.5988,2.33259 7.8641,3.93207 12.7959,4.79844 4.9983,0.8664 10.5298,1.29959 16.5946,1.29957 1.7993,2e-5 3.5321,0.0667 5.1983,0.19994 1.7326,0.0667 3.3988,0.1 4.9983,0.1 1.6661,-0.0666 3.3322,-0.23324 4.9984,-0.49984 1.666,-0.26656 3.3988,-0.7664 5.1983,-1.49951 1.4661,-0.66643 2.8323,-1.29956 4.0987,-1.89938 1.1328,-0.4665 2.2325,-0.89969 3.2989,-1.29958 1.0662,-0.39985 1.866,-0.59978 2.3992,-0.5998 0.6664,2e-5 1.5994,0.19995 2.7991,0.5998 1.1995,0.39989 2.3658,1.06634 3.4989,1.99935 1.1995,0.93305 2.2325,2.16598 3.099,3.69879 0.8662,1.46621 1.2994,3.29894 1.2995,5.49821 -1e-4,1.13298 -0.3999,2.29926 -1.1996,3.49886 -0.7332,1.13297 -1.6995,2.19929 -2.899,3.19896 -1.1331,0.93303 -2.3327,1.69945 -3.5989,2.29925 -1.2663,0.59981 -2.3993,0.89971 -3.3989,0.89971 l -7.8974,0 c -4.6652,0 -9.2304,0.19993 -13.6955,0.5998 -4.3987,0.39987 -8.9972,0.59981 -13.7955,0.59981 -7.1311,0 -13.9289,-0.66645 -20.3934,-1.99935 -6.4646,-1.39954 -12.1294,-3.76544 -16.9944,-7.09769 -4.8652,-3.33224 -8.7306,-7.76412 -11.5963,-13.29567 -2.8657,-5.59815 -4.2986,-12.59586 -4.2986,-20.99316"
             id="path6870" />
        </g>
        <g
           style="font-size:120.21715546px;font-style:normal;font-weight:normal;line-height:125%;letter-spacing:0px;word-spacing:0px;fill:#ffffff;fill-opacity:1;stroke:none;font-family:Sans"
           id="text3048-5">
          <path
             inkscape:connector-curvature="0"
             d="m -5916.7166,647.6942 c 0,-2.15229 0.1565,-4.42201 0.4696,-6.80917 0.313,-2.42622 0.7435,-4.85248 1.2914,-7.27878 0.5478,-2.46534 1.1544,-4.8916 1.8197,-7.27877 0.7043,-2.38707 1.4479,-4.63723 2.2306,-6.75048 0.9391,-2.50446 2.2697,-5.08725 3.9915,-7.74837 1.761,-2.66098 3.8742,-5.06767 6.3396,-7.22007 2.5045,-2.19138 5.3417,-3.99151 8.5115,-5.40038 3.2089,-1.40871 6.7309,-2.11311 10.5659,-2.11319 3.3655,8e-5 6.6918,0.48924 9.979,1.46749 3.3263,0.97841 6.3004,2.42634 8.9224,4.34379 2.661,1.9176 4.8133,4.28515 6.457,7.10267 1.6435,2.77852 2.4653,6.00701 2.4653,9.68546 0,0.66533 -0.078,1.44799 -0.2348,2.348 -0.1566,0.86098 -0.4305,1.70234 -0.8218,2.52409 -0.3522,0.78271 -0.861,1.44798 -1.5261,1.99579 -0.6654,0.54792 -1.5263,0.82185 -2.5828,0.8218 -1.2132,5e-5 -2.1524,-0.33258 -2.8176,-0.9979 -0.6262,-0.70434 -1.0958,-1.56527 -1.4088,-2.58279 -0.274,-1.01741 -0.4501,-2.1327 -0.5283,-3.34589 -0.039,-1.2522 -0.059,-2.4262 -0.059,-3.52199 -1e-4,-1.33046 -0.5675,-2.58272 -1.7023,-3.75678 -1.1349,-1.21306 -2.5633,-2.26966 -4.2851,-3.16979 -1.7219,-0.89999 -3.6003,-1.60439 -5.6352,-2.11319 -2.035,-0.5478 -3.9329,-0.82173 -5.6939,-0.8218 -3.2872,7e-5 -6.2026,0.76317 -8.7462,2.28929 -2.5437,1.52626 -4.7547,3.52206 -6.6331,5.98738 -1.8784,2.46545 -3.4633,5.22434 -4.7547,8.27667 -1.2523,3.05244 -2.2697,6.10483 -3.0524,9.15717 -0.7827,3.01329 -1.3501,5.88958 -1.7023,8.62886 -0.313,2.73936 -0.4696,4.98952 -0.4696,6.75048 0,3.48288 0.7435,6.59397 2.2306,9.33326 1.4871,2.73935 3.4437,5.06777 5.87,6.98528 2.4262,1.8784 5.1656,3.32633 8.218,4.34378 3.0523,0.97834 6.1634,1.46751 9.3332,1.4675 1.5653,10e-6 3.4046,-0.0587 5.5178,-0.1761 2.1132,-0.11739 4.2655,-0.31306 6.457,-0.587 2.1914,-0.31306 4.3242,-0.72395 6.3983,-1.2327 2.1131,-0.50872 3.9132,-1.13485 5.4004,-1.87839 0.626,-0.31305 1.1543,-0.68482 1.5848,-1.11529 0.4304,-0.46959 0.8609,-0.90005 1.2914,-1.2914 0.4696,-0.43045 0.9783,-0.78265 1.5262,-1.0566 0.587,-0.31304 1.3109,-0.46958 2.1719,-0.46959 1.6827,1e-5 3.0132,0.56744 3.9916,1.70229 1.0174,1.13488 1.5261,2.5241 1.5262,4.16768 -1e-4,1.09574 -0.137,1.99581 -0.4109,2.70019 -0.274,0.66528 -0.7436,1.27184 -1.4088,1.8197 -1.4871,1.25226 -3.5416,2.32843 -6.1635,3.22849 -2.5828,0.90006 -5.4004,1.64359 -8.4527,2.23059 -3.0525,0.587 -6.1636,1.01746 -9.3333,1.29139 -3.1307,0.27393 -6.007,0.4109 -8.6289,0.4109 -3.0524,0 -6.1048,-0.19567 -9.1571,-0.587 -3.0133,-0.39133 -5.9092,-1.03703 -8.6876,-1.93709 -2.7785,-0.93919 -5.3808,-2.19145 -7.8071,-3.75679 -2.3871,-1.60445 -4.4612,-3.60024 -6.2221,-5.98737 -1.761,-2.42625 -3.1503,-5.28297 -4.1677,-8.57017 -0.9784,-3.28717 -1.4675,-7.12222 -1.4675,-11.50516"
             style="font-variant:normal;font-stretch:normal;font-family:Short Stack;-inkscape-font-specification:Short Stack"
             id="path6855" />
          <path
             inkscape:connector-curvature="0"
             d="m -5833.3629,647.6942 c 0,-6.06561 0.9783,-11.21162 2.935,-15.43804 1.9566,-4.22634 4.5198,-7.65049 7.6896,-10.27246 3.2089,-2.661 6.8287,-4.57853 10.8595,-5.75258 4.0698,-1.21307 8.2179,-1.81963 12.4443,-1.8197 4.8916,7e-5 9.2746,0.8023 13.1488,2.4067 3.9133,1.60452 7.22,3.91337 9.9203,6.92657 2.7001,3.01331 4.7741,6.67226 6.2221,10.97686 1.4479,4.26556 2.1719,9.05937 2.1719,14.38145 0,3.09154 -0.4109,6.00696 -1.2327,8.74626 -0.8218,2.73934 -1.9567,5.283 -3.4046,7.63098 -1.448,2.30886 -3.1894,4.38292 -5.2242,6.22217 -1.9959,1.83927 -4.1874,3.42416 -6.5744,4.75468 -2.3872,1.2914 -4.9113,2.26973 -7.5723,2.93499 -2.6611,0.7044 -5.3613,1.0566 -8.1006,1.0566 -2.9741,0 -5.87,-0.4696 -8.6875,-1.4088 -2.7785,-0.90006 -5.4004,-2.15232 -7.8658,-3.75678 -2.4654,-1.60446 -4.7351,-3.46328 -6.8092,-5.57648 -2.0349,-2.15231 -3.7959,-4.4416 -5.283,-6.86788 -1.4479,-2.42623 -2.5828,-4.93076 -3.4045,-7.51357 -0.8218,-2.58276 -1.2327,-5.12642 -1.2327,-7.63097 m 10.155,-1.46749 c 0,2.89588 0.6261,5.8113 1.8784,8.74626 1.2523,2.89588 2.8959,5.5178 4.9308,7.86577 2.074,2.34801 4.422,4.26553 7.044,5.75258 2.661,1.44794 5.3612,2.1719 8.1005,2.1719 2.9741,0 5.8504,-0.50873 8.6289,-1.5262 2.8176,-1.01745 5.2829,-2.50451 7.3962,-4.46118 2.1523,-1.95665 3.8741,-4.34377 5.1656,-7.16138 1.2913,-2.81756 1.937,-6.02648 1.9371,-9.62676 -1e-4,-3.52195 -0.4893,-6.73087 -1.4675,-9.62676 -0.9393,-2.93495 -2.2503,-5.45904 -3.9329,-7.57228 -1.6828,-2.11314 -3.6982,-3.73716 -6.0461,-4.87208 -2.348,-1.17394 -4.8917,-1.76094 -7.631,-1.76099 -3.0524,5e-5 -6.1244,0.48922 -9.2158,1.46749 -3.0916,0.93925 -5.8896,2.34804 -8.3941,4.22639 -2.4654,1.8393 -4.4808,4.12859 -6.0461,6.86787 -1.5653,2.73936 -2.348,5.90915 -2.348,9.50937"
             style="font-variant:normal;font-stretch:normal;font-family:Short Stack;-inkscape-font-specification:Short Stack"
             id="path6857" />
          <path
             inkscape:connector-curvature="0"
             d="m -5732.0471,671.87851 c -1.0175,-1.80012 -2.1719,-3.93287 -3.4633,-6.39827 -1.2914,-2.50451 -2.6415,-5.12643 -4.0503,-7.86578 -1.3697,-2.77843 -2.7589,-5.57645 -4.1677,-8.39406 -1.3696,-2.8567 -2.6806,-5.55688 -3.9329,-8.10057 -1.2131,-2.58275 -2.3284,-4.91118 -3.3458,-6.98528 -0.9784,-2.07401 -1.761,-3.73717 -2.348,-4.98948 -0.6653,-1.36961 -1.1349,-2.52404 -1.4088,-3.46329 -0.274,-0.93914 -0.4109,-1.68267 -0.4109,-2.23059 0,-0.93914 0.1761,-1.80007 0.5283,-2.58279 0.3522,-0.7826 0.8218,-1.44787 1.4088,-1.99579 0.6261,-0.58694 1.3305,-1.03697 2.1132,-1.3501 0.7826,-0.313 1.6044,-0.46953 2.4654,-0.4696 0.8217,7e-5 1.4674,0.13703 1.937,0.4109 0.4696,0.274 0.861,0.64576 1.174,1.1153 0.3522,0.46966 0.6262,1.01752 0.8218,1.64359 0.2348,0.58706 0.5088,1.23276 0.8218,1.9371 0.9001,2.11324 1.8784,4.38296 2.935,6.80917 1.0957,2.42631 2.211,4.89169 3.3459,7.39617 1.174,2.46543 2.3284,4.93082 3.4633,7.39618 1.174,2.42629 2.2697,4.71558 3.2872,6.86787 1.0566,2.15235 2.0153,4.12858 2.8763,5.92868 0.9,1.76101 1.6435,3.20894 2.2306,4.34378 l 23.4212,-40.56155 c 1.213,-1.99573 2.7588,-3.56106 4.6373,-4.69598 1.8783,-1.1348 3.8154,-1.70223 5.8112,-1.70229 0.5087,6e-5 0.9783,0.13703 1.4088,0.41089 0.4304,0.23487 0.8022,0.5675 1.1153,0.9979 0.313,0.3914 0.5478,0.82186 0.7044,1.2914 0.1565,0.46966 0.2348,0.90012 0.2348,1.29139 0,0.62619 -0.098,1.17406 -0.2935,1.64359 -0.1566,0.46966 -0.4892,1.07623 -0.9979,1.8197 -0.5088,0.74359 -1.2132,1.72191 -2.1132,2.93499 -0.9001,1.17405 -2.0741,2.81764 -3.5219,4.93078 -1.4089,2.07411 -3.1503,4.71559 -5.2243,7.92447 -2.035,3.16983 -4.4417,7.10271 -7.2201,11.79866 l -14.6749,26.8258 c -1.2915,2.23059 -2.6024,4.67641 -3.9329,7.33747 -1.3306,2.70018 -2.5437,5.3221 -3.6394,7.86577 -1.0566,2.58278 -1.9371,4.9699 -2.6415,7.16137 -0.6653,2.19144 -0.9979,3.89373 -0.9979,5.10689 0,0.7435 -0.137,1.5066 -0.4109,2.28929 -0.2348,0.82177 -0.587,1.5653 -1.0566,2.23059 -0.4696,0.66523 -1.0371,1.2131 -1.7023,1.64359 -0.6261,0.43044 -1.3305,0.64567 -2.1132,0.6457 -0.6653,-3e-5 -1.4479,-0.1957 -2.348,-0.587 -0.9001,-0.39136 -1.761,-0.90009 -2.5828,-1.52619 -0.8218,-0.58703 -1.5262,-1.25229 -2.1132,-1.99579 -0.587,-0.74356 -0.8805,-1.46752 -0.8805,-2.1719 0,-0.97835 0.1957,-2.23061 0.587,-3.75678 0.4305,-1.52622 0.9979,-3.18938 1.7023,-4.98948 0.7044,-1.80015 1.5262,-3.65897 2.4654,-5.57648 0.9783,-1.91754 2.0154,-3.7568 3.1111,-5.51778 l 6.9853,-12.09216"
             style="font-variant:normal;font-stretch:normal;font-family:Short Stack;-inkscape-font-specification:Short Stack"
             id="path6859" />
          <path
             inkscape:connector-curvature="0"
             d="m -5681.2131,647.6942 c 0,-6.06561 0.9783,-11.21162 2.935,-15.43804 1.9566,-4.22634 4.5199,-7.65049 7.6897,-10.27246 3.2089,-2.661 6.8287,-4.57853 10.8594,-5.75258 4.0698,-1.21307 8.218,-1.81963 12.4444,-1.8197 4.8916,7e-5 9.2745,0.8023 13.1487,2.4067 3.9133,1.60452 7.22,3.91337 9.9203,6.92657 2.7001,3.01331 4.7742,6.67226 6.2222,10.97686 1.4478,4.26556 2.1718,9.05937 2.1719,14.38145 -1e-4,3.09154 -0.411,6.00696 -1.2327,8.74626 -0.8219,2.73934 -1.9568,5.283 -3.4046,7.63098 -1.448,2.30886 -3.1894,4.38292 -5.2243,6.22217 -1.9959,1.83927 -4.1873,3.42416 -6.5744,4.75468 -2.3872,1.2914 -4.9112,2.26973 -7.5723,2.93499 -2.6611,0.7044 -5.3612,1.0566 -8.1005,1.0566 -2.9742,0 -5.87,-0.4696 -8.6876,-1.4088 -2.7785,-0.90006 -5.4004,-2.15232 -7.8658,-3.75678 -2.4654,-1.60446 -4.7351,-3.46328 -6.8091,-5.57648 -2.035,-2.15231 -3.796,-4.4416 -5.283,-6.86788 -1.448,-2.42623 -2.5828,-4.93076 -3.4046,-7.51357 -0.8218,-2.58276 -1.2327,-5.12642 -1.2327,-7.63097 m 10.1551,-1.46749 c -1e-4,2.89588 0.6261,5.8113 1.8784,8.74626 1.2522,2.89588 2.8958,5.5178 4.9307,7.86577 2.0741,2.34801 4.4221,4.26553 7.044,5.75258 2.661,1.44794 5.3612,2.1719 8.1006,2.1719 2.9741,0 5.8503,-0.50873 8.6288,-1.5262 2.8176,-1.01745 5.283,-2.50451 7.3962,-4.46118 2.1523,-1.95665 3.8741,-4.34377 5.1656,-7.16138 1.2913,-2.81756 1.937,-6.02648 1.9371,-9.62676 -1e-4,-3.52195 -0.4892,-6.73087 -1.4675,-9.62676 -0.9393,-2.93495 -2.2502,-5.45904 -3.9329,-7.57228 -1.6828,-2.11314 -3.6981,-3.73716 -6.0461,-4.87208 -2.348,-1.17394 -4.8917,-1.76094 -7.6309,-1.76099 -3.0525,5e-5 -6.1244,0.48922 -9.2159,1.46749 -3.0916,0.93925 -5.8896,2.34804 -8.3941,4.22639 -2.4654,1.8393 -4.4807,4.12859 -6.046,6.86787 -1.5654,2.73936 -2.3481,5.90915 -2.348,9.50937"
             style="font-variant:normal;font-stretch:normal;font-family:Short Stack;-inkscape-font-specification:Short Stack"
             id="path6861" />
          <path
             inkscape:connector-curvature="0"
             d="m -5565.3984,679.80298 c -3.8742,0 -7.0832,-0.7631 -9.6268,-2.28929 -2.5437,-1.56532 -4.5982,-3.63938 -6.1635,-6.22218 -1.5653,-2.62191 -2.7393,-5.59603 -3.522,-8.92236 -0.7826,-3.36544 -1.3305,-6.84829 -1.6435,-10.44856 -0.3131,-3.63936 -0.4892,-7.25918 -0.5283,-10.85946 -0.039,-3.60022 -0.098,-6.92653 -0.1761,-9.97897 -1.0567,5e-5 -2.0154,5e-5 -2.8763,0 -0.8218,5e-5 -1.6436,0.0196 -2.4654,0.0587 -0.4696,0.0392 -0.9001,0.0783 -1.2914,0.1174 -0.3914,5e-5 -0.8218,0.0196 -1.2914,0.0587 -0.4305,5e-5 -0.9392,0.0196 -1.5262,0.0587 -0.5479,5e-5 -1.2327,5e-5 -2.0545,0 -0.4696,5e-5 -1.0957,-0.11735 -1.8784,-0.3522 -0.7827,-0.23475 -1.5653,-0.56738 -2.348,-0.99789 -0.7827,-0.43042 -1.4675,-0.95872 -2.0545,-1.5849 -0.5478,-0.66521 -0.8218,-1.40874 -0.8218,-2.23059 0,-0.82174 0.1761,-1.58484 0.5283,-2.28929 0.3522,-0.70434 0.8218,-1.29134 1.4088,-1.76099 0.6261,-0.50868 1.3501,-0.90001 2.1719,-1.174 0.8218,-0.27387 1.6827,-0.41084 2.5828,-0.4109 l 12.327,0.2935 c 0.1173,-0.97827 0.2347,-1.9566 0.3522,-2.93499 0.1173,-0.97827 0.2152,-1.93703 0.2935,-2.87629 0.1173,-1.1348 0.1956,-2.19139 0.2348,-3.16979 0.039,-0.97826 0.098,-1.91745 0.1761,-2.81759 0.078,-0.93912 0.1565,-1.85875 0.2348,-2.75889 0.1173,-0.93912 0.2934,-1.91745 0.5282,-2.93499 0.1174,-0.66518 0.3914,-1.31088 0.8218,-1.93709 0.4305,-0.66518 0.9197,-1.25218 1.4675,-1.76099 0.587,-0.50865 1.1936,-0.91955 1.8197,-1.2327 0.6653,-0.31298 1.2914,-0.46951 1.8784,-0.4696 0.4696,9e-5 0.9588,0.11749 1.4675,0.3522 0.5087,0.23488 0.9783,0.58708 1.4088,1.0566 0.4304,0.43054 0.7826,0.95884 1.0566,1.58489 0.313,0.58708 0.4696,1.25234 0.4696,1.9958 0,1.5654 -0.02,2.87636 -0.059,3.93288 0,1.05667 -0.039,1.95673 -0.1174,2.70019 -0.039,0.7436 -0.098,1.3893 -0.1761,1.93709 -0.078,0.54794 -0.1566,1.0958 -0.2348,1.6436 -0.078,0.43053 -0.1566,0.90013 -0.2348,1.40879 -0.039,0.46967 -0.098,1.01753 -0.1761,1.6436 -0.039,0.62619 -0.098,1.35015 -0.1761,2.17189 -0.078,0.78272 -0.1761,1.72192 -0.2935,2.81759 2.2306,-0.0391 4.3438,-0.0782 6.3396,-0.1174 2.0349,-0.0782 4.0307,-0.13691 5.9874,-0.1761 1.9566,-0.0782 3.9524,-0.13691 5.9873,-0.1761 2.0349,-0.0391 4.2068,-0.0586 6.5157,-0.0587 0.7826,6e-5 1.4675,0.21529 2.0545,0.6457 0.6261,0.39139 1.1348,0.88055 1.5262,1.46749 0.4304,0.58706 0.7435,1.21319 0.9392,1.8784 0.2347,0.62618 0.3521,1.17404 0.3522,1.64359 -10e-5,0.82185 -0.1762,1.56538 -0.5283,2.23059 -0.3523,0.62618 -0.7827,1.15448 -1.2914,1.5849 -0.5088,0.43051 -1.0762,0.74357 -1.7023,0.93919 -0.6262,0.19572 -1.1936,0.29355 -1.7023,0.2935 l -24.0082,-0.4109 c -0.1566,0.15658 -0.2348,0.33268 -0.2348,0.5283 0,2.07411 -0.039,4.46123 -0.1174,7.16137 -0.078,2.6611 -0.098,5.38085 -0.059,8.15927 0.078,2.77849 0.2543,5.51781 0.5283,8.21797 0.2739,2.66108 0.7631,5.0482 1.4675,7.16138 0.7435,2.07407 1.7414,3.7568 2.9937,5.04818 1.2522,1.2914 2.8958,1.9371 4.9308,1.93709 0.6652,10e-6 1.4479,-0.11739 2.348,-0.3522 0.9391,-0.27392 1.8588,-0.58698 2.7589,-0.93919 0.9,-0.35219 1.7413,-0.74352 2.5241,-1.174 0.7826,-0.43045 1.3891,-0.82178 1.8196,-1.174 0.4305,-0.39131 0.9979,-0.74351 1.7023,-1.05659 0.7044,-0.31305 1.2914,-0.46958 1.761,-0.4696 1.487,2e-5 2.4262,0.37178 2.8176,1.1153 0.4304,0.70441 0.6457,1.68274 0.6457,2.93499 0,0.43047 -0.098,0.95877 -0.2935,1.58489 -0.1957,0.58701 -0.4501,1.07617 -0.7631,1.46749 -0.7436,0.93921 -1.7219,1.9371 -2.935,2.99369 -1.174,1.01747 -2.4458,1.95667 -3.8155,2.81759 -1.3697,0.8218 -2.7589,1.50663 -4.1676,2.0545 -1.4089,0.54786 -2.7003,0.82179 -3.8742,0.82179"
             style="font-variant:normal;font-stretch:normal;font-family:Short Stack;-inkscape-font-specification:Short Stack"
             id="path6863" />
          <path
             inkscape:connector-curvature="0"
             d="m -5533.4071,651.04009 c 0,-5.55688 0.8023,-10.58549 2.4067,-15.08585 1.6045,-4.50026 3.972,-8.33531 7.1027,-11.50515 3.1307,-3.16973 6.9657,-5.61556 11.5052,-7.33748 4.5785,-1.72179 9.8419,-2.58272 15.7902,-2.58279 2.0349,7e-5 4.109,0.2153 6.2222,0.6457 2.1523,0.43053 4.2263,1.05666 6.2222,1.87839 1.9957,0.82186 3.8741,1.83932 5.6351,3.05239 1.8001,1.21319 3.3654,2.62198 4.696,4.22639 1.3305,1.56538 2.3675,3.32637 3.1111,5.28298 0.7826,1.91757 1.1739,4.01119 1.174,6.28087 -1e-4,1.76104 -0.3914,3.03287 -1.174,3.81549 -0.7827,0.7827 -1.8197,1.33057 -3.1111,1.64359 -1.1349,0.31311 -2.4654,0.60661 -3.9916,0.8805 -1.4871,0.23484 -3.1698,0.64573 -5.0481,1.2327 l -39.2702,12.20955 c 0.5087,2.38715 1.3305,4.42207 2.4654,6.10478 1.174,1.68274 2.5241,3.09153 4.0503,4.22638 1.5653,1.13488 3.248,2.03494 5.0482,2.70019 1.8392,0.66528 3.6785,1.17401 5.5177,1.5262 1.8393,0.31307 3.6198,0.5283 5.3417,0.6457 1.761,0.0783 3.3459,0.1174 4.7547,0.11739 2.2306,10e-6 4.4416,-0.25435 6.6331,-0.76309 2.1914,-0.50872 4.2067,-1.07616 6.0461,-1.7023 1.8392,-0.62612 3.4436,-1.19355 4.8133,-1.70229 1.4088,-0.50872 2.4262,-0.76308 3.0524,-0.7631 2.074,2e-5 3.5806,0.46961 4.5199,1.4088 0.9783,0.9392 1.4674,2.4067 1.4675,4.40248 -10e-5,1.2914 -0.6653,2.4067 -1.9958,3.34589 -1.2914,0.9392 -2.9742,1.72186 -5.0482,2.34799 -2.0741,0.62613 -4.3829,1.1153 -6.9265,1.46749 -2.5046,0.39134 -4.97,0.66527 -7.3962,0.8218 -2.3872,0.19567 -4.5786,0.31307 -6.5744,0.3522 -1.9958,0.0783 -3.5024,0.1174 -4.5199,0.1174 -2.7002,0 -5.4004,-0.3522 -8.1005,-1.0566 -2.6611,-0.66526 -5.2048,-1.62402 -7.631,-2.87629 -2.3872,-1.25225 -4.6177,-2.75888 -6.6918,-4.51988 -2.0349,-1.80012 -3.8155,-3.77634 -5.3417,-5.92868 -1.487,-2.19144 -2.661,-4.53943 -3.522,-7.04397 -0.8218,-2.5045 -1.2327,-5.12642 -1.2327,-7.86577 m 10.9769,-4.57858 c 1.8392,-0.54784 3.9524,-1.17397 6.3396,-1.8784 2.3871,-0.70436 4.8916,-1.44789 7.5136,-2.23059 2.661,-0.82176 5.3416,-1.66312 8.0418,-2.52409 2.7393,-0.86089 5.3612,-1.70225 7.8658,-2.52409 2.5436,-0.86089 4.872,-1.66312 6.9853,-2.40669 2.1522,-0.78262 3.9524,-1.50658 5.4004,-2.17189 -0.4306,-1.48702 -1.1545,-2.75884 -2.1719,-3.81549 -1.0176,-1.09568 -2.309,-1.97617 -3.8742,-2.64149 -1.5263,-0.70434 -3.3068,-1.21307 -5.3417,-1.52619 -2.035,-0.35215 -4.2656,-0.52825 -6.6918,-0.5283 -1.0957,5e-5 -2.4067,0.15658 -3.9329,0.4696 -1.4871,0.31312 -3.072,0.82185 -4.7546,1.52619 -1.6437,0.66532 -3.3264,1.56538 -5.0482,2.70019 -1.6828,1.13491 -3.2285,2.52414 -4.6373,4.16768 -1.4088,1.64364 -2.622,3.58073 -3.6394,5.81128 -1.0175,2.1915 -1.7023,4.71559 -2.0545,7.57228"
             style="font-variant:normal;font-stretch:normal;font-family:Short Stack;-inkscape-font-specification:Short Stack"
             id="path6865" />
        </g>
        <g
           transform="matrix(-0.88353377,0,0,0.88353377,-5348.7799,-2.6344623)"
           id="layer1-37"
           inkscape:label="Capa 1"
           style="fill:#ffffff">
          <path
             inkscape:connector-curvature="0"
             id="path3876"
             d="m 321.28097,98.173793 c -15.0587,0.0574 -30.0387,1.71867 -41.75,7.093747 -2.5229,1.15793 -5.1109,2.45774 -7.7188,3.84375 a 7.1202884,7.1202884 0 0 0 -0.8124,-0.0625 7.1202884,7.1202884 0 0 0 -1.875,0.3125 c 0,0 -11.1998,3.23716 -24.2188,8.53125 -9.7853,3.97912 -20.6427,8.82561 -29.2188,15.21875 a 7.1202884,7.1202884 0 0 0 -4.25,1.625 c 0,0 -6.2011,4.97089 -13.1562,11.46875 -6.9551,6.49786 -14.6681,14.00131 -18.5938,22.0625 -6.7354,13.83111 -7.4437,30.53534 2.3438,41.5 a 7.1202884,7.1202884 0 0 0 1.7812,1.4375 c 8.0905,4.61488 17.276,5.05406 25.3126,2.5625 6.9357,-2.15026 13.1411,-6.31372 18.2187,-11.75 0.3858,-0.0205 0.7757,-0.033 1.1563,-0.0625 5.8622,-0.45445 9.2669,-3.37817 12.3437,-5.6875 1.081,-0.81136 1.9896,-1.58404 2.8125,-2.28125 2.9337,0.79062 6.1035,0.95192 9.375,0.1875 11.0727,-2.58728 21.9653,-7.09917 27.9375,-9.78125 3.4747,1.34782 7.1926,2.2443 11,3.34375 6.6493,1.92007 12.9439,-0.86643 17.5,-4.1875 4.5561,-3.32107 8.4493,-7.44521 12.5937,-11.15625 4.7067,-4.21451 9.1854,-7.81253 14.5,-9.59375 24.8035,12.01952 42.042,28.71616 51.9063,51.78125 10.7616,25.16332 12.7326,58.50565 3.8125,101.9375 a 7.1202884,7.1202884 0 0 0 -0.1875,1.1875 c -8.4806,6.48019 -17.6752,11.24453 -26.4687,13.65625 -14.3403,3.93298 -25.1883,1.08811 -38.0626,-5.625 -12.8744,-6.71311 -27.0782,-17.53941 -45.3437,-27.9375 -9.9349,-5.65571 -19.0099,-7.45744 -26.7813,-5.1875 -7.7714,2.26994 -13.0587,8.48282 -15.75,15.21875 -5.3827,13.47185 -3.5314,30.19755 5.5938,41.28125 14.3825,17.46911 37.9453,33.41218 64.9688,44.6875 24.657,10.2879 52.1926,16.5293 78.375,15.4062 l 1.375,31.74995 a 7.1202884,7.1202884 0 1 0 14.2187,-0.625 l -1.6563,-38.96865 a 7.1202884,7.1202884 0 0 0 -7.8437,-6.75 c -25.1623,2.51432 -53.6877,-3.38916 -78.9687,-13.9375 -25.281,-10.54834 -47.3003,-25.84499 -59.4688,-40.625 -4.5202,-5.49039 -6.4704,-19.19033 -3.375,-26.9375 1.5477,-3.87359 3.5714,-5.95707 6.5,-6.8125 2.9286,-0.85543 7.9349,-0.59165 15.7812,3.875 17.2969,9.84664 31.2777,20.60849 45.8126,28.1875 14.5349,7.57901 30.3097,11.71314 48.4062,6.75 17.9532,-4.92388 35.5152,-16.86625 48.875,-32.84375 13.3598,-15.9775 22.558,-36.21152 22.3438,-57.84375 -0.2216,-22.54059 -13.7911,-46.23302 -30.8438,-65.9375 -17.0527,-19.70448 -37.4524,-35.44473 -55.8125,-39.875 -5.5752,-1.3453 -10.7306,-1.4067 -15.4687,-0.625 -1.0886,-0.49196 -2.1721,-0.99527 -3.2813,-1.46875 a 7.1202884,7.1202884 0 0 0 -2.75,-0.625 7.1202884,7.1202884 0 0 0 -7.2813,6.78125 c -4.8791,2.64868 -9.0898,5.95943 -12.625,9.125 -4.6154,4.1329 -8.5018,8.06451 -11.5,10.25 -2.9983,2.18549 -4.0049,2.36371 -5.1562,2.03125 -2.7532,-0.79501 -5.1562,-1.53086 -7.1875,-2.25 a 7.1202884,7.1202884 0 0 0 -6.75,-3.1875 c -0.1431,-0.11629 -0.3019,-0.23247 -0.4063,-0.34375 -0.7127,-0.75983 -1.1051,-1.33516 -1.2812,-3.3125 -0.1761,-1.97734 0.1378,-5.31831 1.4688,-10.09375 1.795,-6.44073 12.7761,-16.11613 28.7187,-23.0625 15.9426,-6.94637 36.0538,-11.65989 53.5,-12.3125 34.9051,-1.3057 85.86,13.09971 111.2187,40.8125 24.9035,27.21516 27.9476,79.27411 29.875,112.34375 1.787,30.66193 -11.125,73.625 -11.125,73.625 a 7.1202884,7.1202884 0 0 0 -0.3124,2.125 l 0.25,90.90615 a 7.1250685,7.1250685 0 1 0 14.25,-0.062 l -0.25,-89.875 c 0.9474,-3.04243 13.3818,-43.63199 11.4062,-77.53125 -1.9117,-32.80126 -3.272,-87.98852 -33.5938,-121.125 -23.9577,-26.18167 -63.0072,-40.52859 -97.6874,-44.4375 a 7.1278092,7.1278092 0 0 0 -3.9063,-2.1875 c 0,0 -17.8507,-3.38297 -39.5625,-4.999997 -5.4279,-0.40426 -11.0634,-0.73805 -16.7812,-0.875 -2.1442,-0.0514 -4.3176,-0.0707 -6.4688,-0.0625 z m 0.1562,14.468747 c -5.7748,1.78042 -11.3777,3.82511 -16.6562,6.125 -17.7485,7.73323 -32.6635,17.64995 -36.75,32.3125 -1.6098,5.7762 -2.341,10.65638 -1.9375,15.1875 0.2522,2.83195 1.0503,5.56255 2.3125,7.9375 0.004,0.008 -0.004,0.0233 0,0.0312 -5.4387,2.18167 -12.1616,4.59079 -18.5938,6.09375 -1.431,0.33438 -4.3346,-0.44396 -7,-2.71875 -2.6653,-2.27479 -4.4467,-5.76363 -4.5937,-7.46875 -0.8721,-10.11694 4.591,-20.20463 13.9063,-29.5 9.3153,-9.29537 22.1237,-17.25652 33.3437,-22.40625 8.2418,-3.78268 21.7579,-5.37446 35.9687,-5.59375 z m -85.9687,25.3125 c -7.5404,9.60958 -12.5147,20.91033 -11.4375,33.40625 0.4877,5.65729 3.13,10.52332 6.8125,14.46875 -1.8314,1.10019 -3.6691,1.86041 -3.5313,1.9375 -0.6411,0.0475 -1.3112,0.0899 -2,0.0937 a 7.1230489,7.1230489 0 0 0 -1.8437,-0.0625 c -3.2551,-0.15568 -6.7494,-0.75018 -9.6875,-1.8125 -4.1785,-1.51082 -6.8491,-3.7108 -7.8438,-6 -1.5954,-3.67147 -1.0349,-8.48132 1.5313,-14.15625 2.5662,-5.67493 6.9966,-11.67499 11.1875,-16.34375 3.2511,-3.62194 9.6045,-7.73828 16.8125,-11.53125 z m -44.5313,40.28125 c 0.2563,2.48295 0.8737,4.9579 1.9376,7.40625 2.9569,6.80523 8.895,10.93034 15.0312,13.34375 -1.0029,0.47473 -1.9945,0.87577 -3,1.1875 -4.4538,1.3808 -8.6731,1.19264 -12.875,-0.84375 -3.1418,-4.45922 -3.9136,-12.86145 -1.0938,-21.09375 z m 198.6563,9.6875 c 3.2422,3.13331 6.4313,6.43258 9.4375,9.90625 15.6909,18.13094 27.1809,40.18695 27.3438,56.75 0.162,16.35129 -6.4689,32.48693 -16.8438,45.875 5.2748,-36.59511 2.5635,-66.84142 -7.9688,-91.46875 -3.2491,-7.59735 -7.2731,-14.6023 -11.9687,-21.0625 z"
             style="font-size:medium;font-style:normal;font-variant:normal;font-weight:normal;font-stretch:normal;text-indent:0;text-align:start;text-decoration:none;line-height:normal;letter-spacing:normal;word-spacing:normal;text-transform:none;direction:ltr;block-progression:tb;writing-mode:lr-tb;text-anchor:start;baseline-shift:baseline;color:#000000;fill:#ffffff;fill-opacity:1;stroke:none;stroke-width:14.23915291;marker:none;visibility:visible;display:inline;overflow:visible;enable-background:accumulate;font-family:Sans;-inkscape-font-specification:Sans" />
        </g>
        <g
           transform="matrix(0.57143921,0,0,0.57143921,-6146.1927,516.02124)"
           id="layer1-3-9"
           inkscape:label="Capa 1">
          <g
             id="g3871">
            <g
               id="g4461"
               transform="matrix(1.235777,0,0,1.235777,-548.4857,999.12809)">
              <path
                 sodipodi:nodetypes="ccccccccccccccccc"
                 inkscape:connector-curvature="0"
                 id="path4457"
                 d="m 1145.3217,-261.67388 c 42.2529,-58.74207 43.7001,-146.72794 23.5108,-219.29698 l 61.3727,76.63725 -18.511,-4.67387 22.563,31.95172 -19.709,-5.70567 9.2042,24.20293 -13.3656,-4.83329 17.0714,33.48232 -17.4792,-5.87194 3.1797,33.62127 -15.0693,-9.63926 3.699,31.56449 -16.9598,-7.92872 6.4619,23.51055 -20.0485,-7.24999 z"
                 style="fill:#483e37;stroke:none" />
              <path
                 sodipodi:nodetypes="ccccccccccccccccc"
                 inkscape:connector-curvature="0"
                 id="path4459"
                 d="m 1154.7053,-274.52369 c 31.6167,-63.64372 31.1123,-120.70334 21.9203,-170.41273 l 38.891,31.8198 -16.6171,-4.59619 21.2132,30.05204 -18.3848,-6.36396 11.6673,23.68807 -14.8493,-4.59619 14.1422,32.17336 -13.7885,-6.36396 2.8284,28.99138 -11.6673,-8.48529 2.4749,34.29468 -11.6673,-3.88909 0,20.85966 -6.3639,-2.12133 z"
                 style="fill:#918a6f;fill-opacity:1;stroke:none" />
            </g>
            <path
               style="fill:#484537;stroke:#000000;stroke-width:1.23577702px;stroke-linecap:butt;stroke-linejoin:miter;stroke-opacity:1"
               d="m 747.0069,491.8062 -25.9513,29.65864 24.7155,-8.65043 -11.1219,18.53665 18.5366,-9.88622 -4.9431,17.30088 9.2683,-6.17888 -13.3011,126.31272 c 0,0 -9.6196,0.18691 -12.4691,3.42035 -3.5265,4.00137 -2.2597,15.84021 -2.2597,15.84021 l 181.9076,-1.4478 C 893.1545,596.21334 870.951,519.1873 797.7723,486.76461 z"
               id="path4429"
               inkscape:connector-curvature="0"
               sodipodi:nodetypes="ccccccccacccc" />
            <path
               style="fill:#484537;fill-opacity:1;stroke:none"
               d="m 701.8426,433.19978 -50.7394,0 16.9131,14.09427 -22.5509,2.81886 22.5509,9.866 -16.9131,4.22827 15.5037,11.27543 z"
               id="path4318"
               inkscape:connector-curvature="0" />
            <path
               style="fill:#918a6f;fill-opacity:1;stroke:none"
               d="m 669.3725,472.82574 -10.1951,-6.79678 17.6098,-4.63416 c 0,0 -15.1383,-9.88622 -12.6667,-9.26833 2.4715,0.61789 19.7724,0.61789 19.7724,0.61789 l -12.0488,-14.21143 21.0082,-0.92684 z"
               id="path4433"
               inkscape:connector-curvature="0" />
            <path
               style="fill:#484537;stroke:none"
               d="m 593.3165,565.68596 43.6922,-0.70472 108.5262,-69.06195 85.975,-6.34242 -25.3698,-7.04713 39.4642,-8.45656 -28.1887,-8.45657 32.4169,-7.04713 -35.2357,-5.63771 9.8659,-107.11649 -22.5508,43.69226 -50.7394,-1.40943 4.2283,-45.10168 C 703.3604,418.59803 647.642,491.70001 593.3165,565.68596 z"
               id="path4316"
               inkscape:connector-curvature="0"
               sodipodi:nodetypes="cccccccccccccc" />
            <path
               inkscape:connector-curvature="0"
               style="fill:#ffffff;fill-opacity:1;stroke:none"
               d="m 719.01705,419.59458 c 0,11.26286 -9.13036,20.39322 -20.39323,20.39322 -11.26287,0 -20.39322,-9.13036 -20.39322,-20.39322 0,-11.26287 9.13035,-20.39323 20.39322,-20.39323 11.26287,0 20.39323,9.13036 20.39323,20.39323 z"
               id="path4350" />
            <path
               inkscape:connector-curvature="0"
               style="fill:#000000;fill-opacity:1;stroke:none"
               d="m 719.05593,419.94555 c 0,7.59481 -6.15682,13.75163 -13.75164,13.75163 -7.59482,0 -13.75163,-6.15682 -13.75163,-13.75163 0,-7.59482 6.15681,-13.75164 13.75163,-13.75164 7.59482,0 13.75164,6.15682 13.75164,13.75164 z"
               id="path4356" />
            <path
               style="fill:#28220b;stroke:none"
               d="m 614.7235,537.10164 15.71,28.35221 -37.2038,0.1887 z"
               id="path4419"
               inkscape:connector-curvature="0"
               sodipodi:nodetypes="cccc" />
            <path
               style="fill:none;stroke:#000000;stroke-width:3.85191703;stroke-linecap:butt;stroke-linejoin:miter;stroke-miterlimit:4;stroke-opacity:1;stroke-dasharray:none"
               d="M 661.6738,548.94901 C 693.9531,523.55973 814.9427,450.42426 791.8567,423.75874"
               id="path4421"
               inkscape:connector-curvature="0"
               sodipodi:nodetypes="cc" />
            <path
               style="fill:#918a6f;stroke:none"
               d="m 758.0396,491.36239 50.0489,-35.21964 19.1546,0.92683 -21.0082,5.561 15.1382,8.65044 -26.8781,9.88621 12.9757,5.561 z"
               id="path4431"
               inkscape:connector-curvature="0" />
            <path
               style="fill:#f4d7d7;stroke:none"
               d="m 817.484,369.16425 -12.9756,29.04076 9.8862,0.61789 z"
               id="path4435"
               inkscape:connector-curvature="0" />
            <path
               style="fill:#918a6f;fill-opacity:1;stroke:none"
               d="m 750.316,496.92339 -20.3904,18.22771 22.244,-9.26833 -9.8862,17.91877 16.0651,-9.26833 -3.7073,15.44721 14.9838,-6.95124 z"
               id="path4437"
               inkscape:connector-curvature="0"
               sodipodi:nodetypes="cccccccc" />
            <path
               style="fill:none;stroke:#000000;stroke-width:3.85191703;stroke-linecap:butt;stroke-linejoin:miter;stroke-miterlimit:4;stroke-opacity:1;stroke-dasharray:none"
               d="m 781.8283,534.30564 0,122.34193 c 10.0399,1.11682 22.4861,-1.77661 19.1545,21.62609"
               id="path4439"
               inkscape:connector-curvature="0"
               sodipodi:nodetypes="ccc" />
            <path
               style="fill:none;stroke:#000000;stroke-width:3.85191703;stroke-linecap:butt;stroke-linejoin:miter;stroke-miterlimit:4;stroke-opacity:1;stroke-dasharray:none"
               d="M 769.6813,542.3484 761.38,678.22838"
               id="path4441"
               inkscape:connector-curvature="0" />
            <path
               style="fill:none;stroke:#000000;stroke-width:3.85191703;stroke-linecap:butt;stroke-linejoin:miter;stroke-miterlimit:4;stroke-opacity:1;stroke-dasharray:none"
               d="m 808.1297,676.91764 c 0,0 -2.2536,-13.63801 1.966,-17.91342 6.6999,-6.7885 28.3994,-3.49531 28.3994,-3.49531 0,0 -20.8708,-33.30619 -13.7627,-51.99266 10.7911,-28.36893 34.0792,-13.54432 34.0792,-13.54432"
               id="path4443"
               inkscape:connector-curvature="0"
               sodipodi:nodetypes="cacsc" />
            <path
               style="fill:none;stroke:#000000;stroke-width:3.85191703;stroke-linecap:butt;stroke-linejoin:miter;stroke-miterlimit:4;stroke-opacity:1;stroke-dasharray:none"
               d="m 738.6605,677.79148 0.437,-11.5782"
               id="path4445"
               inkscape:connector-curvature="0" />
            <path
               inkscape:connector-curvature="0"
               id="path4447"
               d="m 748.9279,677.79148 0.437,-11.5782"
               style="fill:none;stroke:#000000;stroke-width:3.85191703;stroke-linecap:butt;stroke-linejoin:miter;stroke-miterlimit:4;stroke-opacity:1;stroke-dasharray:none" />
            <path
               style="fill:none;stroke:#000000;stroke-width:3.85191703;stroke-linecap:butt;stroke-linejoin:miter;stroke-miterlimit:4;stroke-opacity:1;stroke-dasharray:none"
               d="m 772.5213,677.79148 0.4369,-11.5782"
               id="path4449"
               inkscape:connector-curvature="0" />
            <path
               inkscape:connector-curvature="0"
               id="path4451"
               d="m 786.284,677.79148 0.437,-11.5782"
               style="fill:none;stroke:#000000;stroke-width:3.85191703;stroke-linecap:butt;stroke-linejoin:miter;stroke-miterlimit:4;stroke-opacity:1;stroke-dasharray:none" />
            <path
               style="fill:none;stroke:#000000;stroke-width:3.85191703;stroke-linecap:butt;stroke-linejoin:miter;stroke-miterlimit:4;stroke-opacity:1;stroke-dasharray:none"
               d="m 815.7757,677.79148 0.437,-11.5782"
               id="path4453"
               inkscape:connector-curvature="0" />
            <path
               inkscape:connector-curvature="0"
               id="path4455"
               d="m 826.0431,677.79148 0.437,-11.5782"
               style="fill:none;stroke:#000000;stroke-width:3.85191703;stroke-linecap:butt;stroke-linejoin:miter;stroke-miterlimit:4;stroke-opacity:1;stroke-dasharray:none" />
            <path
               inkscape:connector-curvature="0"
               style="fill:none;stroke:#000000;stroke-width:5.68457413;stroke-miterlimit:4;stroke-dasharray:none"
               d="m 755.4135,343.00775 c -13.7141,19.92323 -27.7297,39.64069 -41.8619,59.27867 -4.0081,-3.46358 -9.2323,-5.56099 -14.9453,-5.56099 -12.6296,0 -22.8618,10.23217 -22.8618,22.86187 0,5.09668 1.6993,9.79141 4.5183,13.59355 l -29.1566,0 16.9147,14.09558 -22.5529,2.81912 22.5529,9.88621 -16.9147,4.20937 11.2378,8.18702 c -20.7624,28.07992 -41.5921,56.07804 -62.2908,84.18731 l -6.8354,9.07524 0.1544,0 c -0.011,0.0145 -0.028,0.0241 -0.039,0.0385 l 3.6687,-0.0772 33.4433,-0.15448 -0.1931,-0.34756 6.7581,-0.11579 103.6897,-65.9596 -19.6569,22.43708 24.7156,-8.65044 -11.122,18.53665 18.5367,-9.88621 -4.9431,17.30088 9.2683,-6.17889 -13.2846,126.31958 c 0,0 -9.6241,0.16495 -12.4734,3.39839 -3.5265,4.00137 -2.2787,15.87201 -2.2787,15.87201 l 71.4434,-0.57927 0.077,0.69512 c 0.033,-0.23886 0.047,-0.46171 0.077,-0.69512 l 24.9858,-0.19309 85.346,-0.69513 c -0.7527,-3.32263 -1.509,-6.61691 -2.2785,-9.92483 l 14.5589,5.29067 -7.9552,-29.04076 20.9309,9.77036 -4.5568,-39.00421 18.6137,11.93297 -3.9389,-41.553 21.6261,7.26019 -21.1241,-41.39853 16.5285,5.9858 -11.3537,-29.89036 24.3294,7.02848 -27.8823,-39.46763 22.9006,5.75409 -75.8458,-94.69141 c 4.0304,14.48705 7.3125,29.47094 9.8475,44.71968 l -0.2317,-0.19309 c 0.71,3.83936 1.3892,7.71394 2.0082,11.62403 6.4118,46.20784 5.3861,94.28657 -5.7928,137.90499 -1.6449,6.11102 -3.5051,12.27388 -5.5996,18.49803 -16.3356,-53.62542 -40.5372,-100.36429 -88.9373,-125.9334 l 24.2521,-1.81505 -25.3334,-7.02848 39.4291,-8.45735 -28.1526,-8.45734 32.4004,-7.0671 -35.2196,-5.63824 9.8477,-107.0878 -22.553,43.677 -50.7441,-1.39025 4.248,-45.10586 z"
               id="path4467" />
            <path
               inkscape:connector-curvature="0"
               style="fill:#ffffff;fill-opacity:1;stroke:none"
               d="m 722.99395,419.59458 c 0,11.26286 9.13036,20.39322 20.39323,20.39322 11.26287,0 20.39322,-9.13036 20.39322,-20.39322 0,-11.26287 -9.13035,-20.39323 -20.39322,-20.39323 -11.26287,0 -20.39323,9.13036 -20.39323,20.39323 z"
               id="path4584" />
            <path
               inkscape:connector-curvature="0"
               style="fill:#000000;fill-opacity:1;stroke:none"
               d="m 722.95507,419.94555 c 0,7.59481 6.15682,13.75163 13.75164,13.75163 7.59482,0 13.75163,-6.15682 13.75163,-13.75163 0,-7.59482 -6.15681,-13.75164 -13.75163,-13.75164 -7.59482,0 -13.75164,6.15682 -13.75164,13.75164 z"
               id="path4586" />
          </g>
        </g>
      </g>
      <rect
         y="16.503397"
         x="-15171.796"
         height="1027.4425"
         width="1023.3555"
         id="rect5661"
         style="fill:none;stroke:none" />
    </g>
  </g>
</svg>
