<?xml version="1.0" encoding="UTF-8" standalone="no"?>
<!-- Created with Inkscape (http://www.inkscape.org/) -->

<svg
   xmlns:dc="http://purl.org/dc/elements/1.1/"
   xmlns:cc="http://creativecommons.org/ns#"
   xmlns:rdf="http://www.w3.org/1999/02/22-rdf-syntax-ns#"
   xmlns:svg="http://www.w3.org/2000/svg"
   xmlns="http://www.w3.org/2000/svg"
   xmlns:xlink="http://www.w3.org/1999/xlink"
   xmlns:sodipodi="http://sodipodi.sourceforge.net/DTD/sodipodi-0.dtd"
   xmlns:inkscape="http://www.inkscape.org/namespaces/inkscape"
   width="1351.74"
   height="1351.7388"
   id="svg2"
   version="1.1"
   inkscape:version="0.48.3.1 r9886"
   sodipodi:docname="f.svg">
  <defs
     id="defs4">
    <linearGradient
       id="linearGradient3265-7"
       inkscape:collect="always">
      <stop
         id="stop3267-6"
         offset="0"
         style="stop-color:#a0692f;stop-opacity:1;" />
      <stop
         id="stop3269-0"
         offset="1"
         style="stop-color:#a0692f;stop-opacity:0;" />
    </linearGradient>
    <linearGradient
       inkscape:collect="always"
       xlink:href="#linearGradient3265-7"
       id="linearGradient4849"
       gradientUnits="userSpaceOnUse"
       gradientTransform="matrix(1.9601035,0,0,1.9601035,-1268.7026,1291.2843)"
       x1="1128.5424"
       y1="-358.21252"
       x2="1128.5"
       y2="-350.88782" />
    <linearGradient
       inkscape:collect="always"
       xlink:href="#linearGradient3265-7"
       id="linearGradient4855"
       gradientUnits="userSpaceOnUse"
       gradientTransform="matrix(-1.9601035,0,0,1.9601035,3084.4205,1291.2843)"
       x1="1128.5424"
       y1="-358.21252"
       x2="1128.5"
       y2="-350.88782" />
    <linearGradient
       id="linearGradient3265-7-8"
       inkscape:collect="always">
      <stop
         id="stop3267-6-3"
         offset="0"
         style="stop-color:#a0692f;stop-opacity:1;" />
      <stop
         id="stop3269-0-6"
         offset="1"
         style="stop-color:#a0692f;stop-opacity:0;" />
    </linearGradient>
    <linearGradient
       y2="-435.80673"
       x2="919.21014"
       y1="-434.2847"
       x1="987.61987"
       gradientTransform="matrix(0.64156397,0,0,0.64156397,-240.46334,1048.4872)"
       gradientUnits="userSpaceOnUse"
       id="linearGradient3738"
       xlink:href="#linearGradient4094-1"
       inkscape:collect="always" />
    <linearGradient
       id="linearGradient4094-1">
      <stop
         id="stop4096-9"
         offset="0"
         style="stop-color:#52676c;stop-opacity:1;" />
      <stop
         id="stop4098-2"
         offset="1"
         style="stop-color:#52676c;stop-opacity:0;" />
    </linearGradient>
    <linearGradient
       id="linearGradient3310"
       inkscape:collect="always">
      <stop
         id="stop3312"
         offset="0"
         style="stop-color:#0b2228;stop-opacity:1;" />
      <stop
         id="stop3314"
         offset="1"
         style="stop-color:#0b2228;stop-opacity:0;" />
    </linearGradient>
    <linearGradient
       id="linearGradient4122-9"
       inkscape:collect="always">
      <stop
         id="stop4124-7"
         offset="0"
         style="stop-color:#1c2224;stop-opacity:1;" />
      <stop
         id="stop4126-6"
         offset="1"
         style="stop-color:#1c2224;stop-opacity:0" />
    </linearGradient>
    <linearGradient
       inkscape:collect="always"
       xlink:href="#linearGradient3310"
       id="linearGradient6795"
       gradientUnits="userSpaceOnUse"
       x1="1748.3407"
       y1="-227.81718"
       x2="1759.3722"
       y2="-149.25218" />
    <linearGradient
       inkscape:collect="always"
       xlink:href="#linearGradient4122-9"
       id="linearGradient6814"
       gradientUnits="userSpaceOnUse"
       gradientTransform="matrix(0.76362355,0,0,0.76362355,-529.2141,788.2198)"
       x1="1627.4237"
       y1="-275.98389"
       x2="1568.8258"
       y2="-208.25383" />
    <linearGradient
       inkscape:collect="always"
       id="linearGradient4871">
      <stop
         style="stop-color:#241c1f;stop-opacity:0.37777778"
         offset="0"
         id="stop4873" />
      <stop
         style="stop-color:#241c1f;stop-opacity:0;"
         offset="1"
         id="stop4875" />
    </linearGradient>
    <radialGradient
       inkscape:collect="always"
       xlink:href="#linearGradient4871"
       id="radialGradient4631"
       gradientUnits="userSpaceOnUse"
       gradientTransform="matrix(1.6682146,1.6471163,-0.88417937,0.89550496,-1046.6412,-1706.4218)"
       cx="1014.4006"
       cy="-408.6366"
       fx="1014.4006"
       fy="-408.6366"
       r="120.84957" />
    <linearGradient
       y2="-341.95212"
       x2="1033.103"
       y1="-312.79977"
       x1="1033.9359"
       gradientUnits="userSpaceOnUse"
       id="linearGradient4392"
       xlink:href="#linearGradient3219"
       inkscape:collect="always" />
    <linearGradient
       y2="-341.95212"
       x2="1033.103"
       y1="-312.79977"
       x1="1033.9359"
       gradientUnits="userSpaceOnUse"
       id="linearGradient4390"
       xlink:href="#linearGradient3209"
       inkscape:collect="always" />
    <linearGradient
       inkscape:collect="always"
       id="linearGradient3219">
      <stop
         style="stop-color:#3e4837;stop-opacity:1"
         offset="0"
         id="stop3221" />
      <stop
         style="stop-color:#e5ffd5;stop-opacity:0;"
         offset="1"
         id="stop3223" />
    </linearGradient>
    <linearGradient
       id="linearGradient3209"
       inkscape:collect="always">
      <stop
         id="stop3211"
         offset="0"
         style="stop-color:#3e4837;stop-opacity:1" />
      <stop
         id="stop3213"
         offset="1"
         style="stop-color:#e5ffd5;stop-opacity:0;" />
    </linearGradient>
    <linearGradient
       y2="-299.90375"
       x2="1731.0365"
       y1="-347.02103"
       x1="1621.358"
       gradientTransform="matrix(1.3519879,0,0,1.3519879,-2458.2999,1401.0995)"
       gradientUnits="userSpaceOnUse"
       id="linearGradient4525"
       xlink:href="#linearGradient4136"
       inkscape:collect="always" />
    <linearGradient
       id="linearGradient4136"
       inkscape:collect="always">
      <stop
         id="stop4138"
         offset="0"
         style="stop-color:#000000;stop-opacity:1" />
      <stop
         id="stop4140"
         offset="1"
         style="stop-color:#2b1100;stop-opacity:0;" />
    </linearGradient>
    <linearGradient
       id="linearGradient3449"
       inkscape:collect="always">
      <stop
         id="stop3451"
         offset="0"
         style="stop-color:#000000;stop-opacity:1;" />
      <stop
         id="stop3453"
         offset="1"
         style="stop-color:#000000;stop-opacity:0;" />
    </linearGradient>
    <linearGradient
       id="linearGradient4233"
       inkscape:collect="always">
      <stop
         id="stop4235"
         offset="0"
         style="stop-color:#000000;stop-opacity:1;" />
      <stop
         id="stop4237"
         offset="1"
         style="stop-color:#000000;stop-opacity:0;" />
    </linearGradient>
    <linearGradient
       id="linearGradient4283"
       inkscape:collect="always">
      <stop
         id="stop4285"
         offset="0"
         style="stop-color:#2b1100;stop-opacity:1;" />
      <stop
         id="stop4287"
         offset="1"
         style="stop-color:#2b1100;stop-opacity:0;" />
    </linearGradient>
    <linearGradient
       inkscape:collect="always"
       xlink:href="#linearGradient4283"
       id="linearGradient6031"
       gradientUnits="userSpaceOnUse"
       gradientTransform="translate(-2538.9898,1459.867)"
       x1="503.56857"
       y1="-348.85837"
       x2="512.40308"
       y2="-335.29108" />
    <linearGradient
       inkscape:collect="always"
       xlink:href="#linearGradient3449"
       id="linearGradient6033"
       gradientUnits="userSpaceOnUse"
       gradientTransform="translate(-2538.9898,1459.867)"
       x1="535.43597"
       y1="-304.05469"
       x2="522.1842"
       y2="-302.79257" />
    <linearGradient
       inkscape:collect="always"
       xlink:href="#linearGradient4233"
       id="linearGradient6035"
       gradientUnits="userSpaceOnUse"
       gradientTransform="translate(-2538.9898,1459.867)"
       x1="492.84091"
       y1="-285.43903"
       x2="581.34399"
       y2="-291.27615" />
    <linearGradient
       id="linearGradient4817"
       inkscape:collect="always">
      <stop
         id="stop4819"
         offset="0"
         style="stop-color:#917c6f;stop-opacity:1;" />
      <stop
         id="stop4821"
         offset="1"
         style="stop-color:#2b1100;stop-opacity:1" />
    </linearGradient>
    <linearGradient
       inkscape:collect="always"
       id="linearGradient5172">
      <stop
         style="stop-color:#502d16;stop-opacity:1;"
         offset="0"
         id="stop5174" />
      <stop
         style="stop-color:#917c6f;stop-opacity:1"
         offset="1"
         id="stop5176" />
    </linearGradient>
    <linearGradient
       id="linearGradient5181">
      <stop
         id="stop5183"
         offset="0"
         style="stop-color:#907b6e;stop-opacity:1" />
      <stop
         style="stop-color:#7a6356;stop-opacity:1;"
         offset="0.75249761"
         id="stop5191" />
      <stop
         style="stop-color:#644c3e;stop-opacity:1;"
         offset="0.812451"
         id="stop5189" />
      <stop
         id="stop5185"
         offset="1"
         style="stop-color:#381e0e;stop-opacity:1" />
    </linearGradient>
    <linearGradient
       inkscape:collect="always"
       id="linearGradient5193">
      <stop
         style="stop-color:#826c5f;stop-opacity:1"
         offset="0"
         id="stop5195" />
      <stop
         style="stop-color:#502d16;stop-opacity:1"
         offset="1"
         id="stop5197" />
    </linearGradient>
    <linearGradient
       inkscape:collect="always"
       xlink:href="#linearGradient4817"
       id="linearGradient5870"
       gradientUnits="userSpaceOnUse"
       gradientTransform="matrix(0.89679722,0,0,0.89679722,-2045.7805,1424)"
       x1="660.06604"
       y1="-501.25412"
       x2="616.52441"
       y2="-327.7186" />
    <linearGradient
       inkscape:collect="always"
       xlink:href="#linearGradient5181"
       id="linearGradient5872"
       gradientUnits="userSpaceOnUse"
       gradientTransform="translate(-1159.9752,1449.158)"
       x1="-276.65112"
       y1="-462.97198"
       x2="-282.89807"
       y2="-279.57907" />
    <linearGradient
       inkscape:collect="always"
       xlink:href="#linearGradient5172"
       id="linearGradient5874"
       gradientUnits="userSpaceOnUse"
       gradientTransform="matrix(0.89679722,0,0,0.89679722,-2045.7805,1424)"
       x1="533.96741"
       y1="-432.47049"
       x2="555.86011"
       y2="-240.41187" />
    <linearGradient
       inkscape:collect="always"
       xlink:href="#linearGradient4817"
       id="linearGradient5876"
       gradientUnits="userSpaceOnUse"
       gradientTransform="matrix(0.82173933,0,0,0.82173933,-2014.5348,1366.3891)"
       x1="626.62103"
       y1="-258.30438"
       x2="602.01056"
       y2="-402.81216" />
    <linearGradient
       inkscape:collect="always"
       xlink:href="#linearGradient5193"
       id="linearGradient5878"
       gradientUnits="userSpaceOnUse"
       gradientTransform="matrix(0.89679722,0,0,0.89679722,-2020.1702,1428.0016)"
       x1="564.45752"
       y1="-396.48645"
       x2="567.13477"
       y2="-318.39944" />
    <linearGradient
       id="linearGradient3338"
       inkscape:collect="always">
      <stop
         id="stop3340"
         offset="0"
         style="stop-color:#beb7c8;stop-opacity:1;" />
      <stop
         id="stop3342"
         offset="1"
         style="stop-color:#5d536c;stop-opacity:1" />
    </linearGradient>
    <linearGradient
       inkscape:collect="always"
       id="linearGradient3360">
      <stop
         style="stop-color:#474052;stop-opacity:1"
         offset="0"
         id="stop3362" />
      <stop
         style="stop-color:#5d536c;stop-opacity:1"
         offset="1"
         id="stop3364" />
    </linearGradient>
    <linearGradient
       inkscape:collect="always"
       id="linearGradient3380">
      <stop
         style="stop-color:#857c92;stop-opacity:1"
         offset="0"
         id="stop3382" />
      <stop
         style="stop-color:#5d536c;stop-opacity:1"
         offset="1"
         id="stop3384" />
    </linearGradient>
    <linearGradient
       id="linearGradient3394"
       inkscape:collect="always">
      <stop
         id="stop3396"
         offset="0"
         style="stop-color:#675d76;stop-opacity:1" />
      <stop
         id="stop3398"
         offset="1"
         style="stop-color:#5d536c;stop-opacity:1" />
    </linearGradient>
    <linearGradient
       inkscape:collect="always"
       xlink:href="#linearGradient3394"
       id="linearGradient5534"
       gradientUnits="userSpaceOnUse"
       gradientTransform="translate(-1035.7984,1460.497)"
       x1="548.9787"
       y1="-310.0397"
       x2="511.74536"
       y2="-309.25769" />
    <linearGradient
       inkscape:collect="always"
       xlink:href="#linearGradient3380"
       id="linearGradient5539"
       gradientUnits="userSpaceOnUse"
       gradientTransform="translate(-1104.5149,1460.497)"
       x1="549.00745"
       y1="-310.31183"
       x2="511.80453"
       y2="-309.47519" />
    <radialGradient
       inkscape:collect="always"
       xlink:href="#linearGradient3338"
       id="radialGradient5551"
       gradientUnits="userSpaceOnUse"
       gradientTransform="matrix(0.51554821,-0.84568081,1.1288979,0.68820444,-643.46887,1694.073)"
       cx="423.07739"
       cy="-187.4471"
       fx="423.07739"
       fy="-187.4471"
       r="166.84651" />
    <linearGradient
       inkscape:collect="always"
       xlink:href="#linearGradient3360"
       id="linearGradient5555"
       gradientUnits="userSpaceOnUse"
       gradientTransform="translate(-1124.2237,1458.7504)"
       x1="452.13895"
       y1="-403.7587"
       x2="425.63535"
       y2="-424.26743" />
    <linearGradient
       inkscape:collect="always"
       xlink:href="#linearGradient3360"
       id="linearGradient5558"
       gradientUnits="userSpaceOnUse"
       gradientTransform="translate(-1124.2237,1458.7504)"
       x1="452.13895"
       y1="-403.7587"
       x2="425.63535"
       y2="-424.26743" />
    <linearGradient
       id="linearGradient4274">
      <stop
         id="stop4276"
         offset="0"
         style="stop-color:#241c1c;stop-opacity:1" />
      <stop
         style="stop-color:#483737;stop-opacity:1;"
         offset="0.15879123"
         id="stop4286" />
      <stop
         style="stop-color:#544141;stop-opacity:1"
         offset="0.50204235"
         id="stop4282" />
      <stop
         id="stop4284"
         offset="0.75"
         style="stop-color:#483737;stop-opacity:1;" />
      <stop
         id="stop4278"
         offset="1"
         style="stop-color:#241c1c;stop-opacity:1" />
    </linearGradient>
    <linearGradient
       id="linearGradient4300"
       inkscape:collect="always">
      <stop
         id="stop4302"
         offset="0"
         style="stop-color:#513f3f;stop-opacity:1" />
      <stop
         id="stop4304"
         offset="1"
         style="stop-color:#916f6f;stop-opacity:1" />
    </linearGradient>
    <linearGradient
       id="linearGradient4338"
       inkscape:collect="always">
      <stop
         id="stop4340"
         offset="0"
         style="stop-color:#5a4545;stop-opacity:1" />
      <stop
         id="stop4342"
         offset="1"
         style="stop-color:#6c5353;stop-opacity:1" />
    </linearGradient>
    <linearGradient
       inkscape:collect="always"
       xlink:href="#linearGradient4338"
       id="linearGradient5824"
       gradientUnits="userSpaceOnUse"
       gradientTransform="matrix(1.1870923,0,0,1.1870923,557.10763,972.51967)"
       x1="506.36237"
       y1="-254.24303"
       x2="505.8338"
       y2="-219.35794" />
    <linearGradient
       inkscape:collect="always"
       xlink:href="#linearGradient4300"
       id="linearGradient5826"
       gradientUnits="userSpaceOnUse"
       gradientTransform="matrix(0.83444929,0,0,0.83444929,695.02334,866.91126)"
       x1="521.0072"
       y1="-422.45435"
       x2="521.0072"
       y2="-338.73444" />
    <linearGradient
       inkscape:collect="always"
       xlink:href="#linearGradient4274"
       id="linearGradient5828"
       gradientUnits="userSpaceOnUse"
       gradientTransform="matrix(0.83444929,0,0,0.83444929,741.18088,866.91126)"
       x1="536.79242"
       y1="-366.81332"
       x2="556.42566"
       y2="-324.86945" />
    <linearGradient
       y2="-301.63974"
       x2="535.34979"
       y1="-301.92004"
       x1="538.38654"
       gradientTransform="translate(-25.414983,34.384977)"
       gradientUnits="userSpaceOnUse"
       id="linearGradient5544"
       xlink:href="#linearGradient3146"
       inkscape:collect="always" />
    <filter
       height="1.0499389"
       y="-0.024969444"
       width="1.3299154"
       x="-0.16495769"
       id="filter3938"
       inkscape:collect="always"
       color-interpolation-filters="sRGB">
      <feGaussianBlur
         id="feGaussianBlur3940"
         stdDeviation="0.60368467"
         inkscape:collect="always" />
    </filter>
    <linearGradient
       id="linearGradient3146"
       inkscape:collect="always">
      <stop
         id="stop3148"
         offset="0"
         style="stop-color:#1c1c24;stop-opacity:1;" />
      <stop
         id="stop3150"
         offset="1"
         style="stop-color:#1c1c24;stop-opacity:0;" />
    </linearGradient>
    <linearGradient
       y2="-254.24301"
       x2="132.40479"
       y1="-254.24301"
       x1="159.62572"
       gradientTransform="translate(-47.042016,6.3427437)"
       gradientUnits="userSpaceOnUse"
       id="linearGradient4078"
       xlink:href="#linearGradient3139"
       inkscape:collect="always" />
    <linearGradient
       y2="-408.62561"
       x2="159.96489"
       y1="-417.59561"
       x1="192.85487"
       gradientTransform="translate(-63.427437,6.3427437)"
       gradientUnits="userSpaceOnUse"
       id="linearGradient4076"
       xlink:href="#linearGradient3117"
       inkscape:collect="always" />
    <linearGradient
       y2="-408.62561"
       x2="159.96489"
       y1="-417.59561"
       x1="192.85487"
       gradientTransform="matrix(1.6191115,1.2420631,-1.2420631,1.6191115,-653.89128,220.57021)"
       gradientUnits="userSpaceOnUse"
       id="linearGradient4074"
       xlink:href="#linearGradient3117"
       inkscape:collect="always" />
    <filter
       height="1.1221315"
       y="-0.061065737"
       width="1.2091677"
       x="-0.10458386"
       id="filter3915"
       inkscape:collect="always"
       color-interpolation-filters="sRGB">
      <feGaussianBlur
         id="feGaussianBlur3917"
         stdDeviation="2.0038655"
         inkscape:collect="always" />
    </filter>
    <linearGradient
       id="linearGradient3117"
       inkscape:collect="always">
      <stop
         id="stop3119"
         offset="0"
         style="stop-color:#aa4400;stop-opacity:1;" />
      <stop
         id="stop3121"
         offset="1"
         style="stop-color:#783000;stop-opacity:1" />
    </linearGradient>
    <linearGradient
       id="linearGradient3139"
       inkscape:collect="always">
      <stop
         id="stop3141"
         offset="0"
         style="stop-color:#2b1100;stop-opacity:1;" />
      <stop
         id="stop3143"
         offset="1"
         style="stop-color:#2b1100;stop-opacity:0;" />
    </linearGradient>
    <filter
       height="1.4686061"
       y="-0.23430306"
       width="1.4207194"
       x="-0.21035969"
       id="filter3967"
       inkscape:collect="always"
       color-interpolation-filters="sRGB">
      <feGaussianBlur
         id="feGaussianBlur3969"
         stdDeviation="5.8948044"
         inkscape:collect="always" />
    </filter>
    <linearGradient
       id="linearGradient3911"
       inkscape:collect="always">
      <stop
         id="stop3913"
         offset="0"
         style="stop-color:#241c1c;stop-opacity:1" />
      <stop
         id="stop3915"
         offset="1"
         style="stop-color:#784421;stop-opacity:0;" />
    </linearGradient>
    <linearGradient
       id="linearGradient3971"
       inkscape:collect="always">
      <stop
         id="stop3973"
         offset="0"
         style="stop-color:#917c6f;stop-opacity:1;" />
      <stop
         id="stop3975"
         offset="1"
         style="stop-color:#28170b;stop-opacity:1" />
    </linearGradient>
    <linearGradient
       inkscape:collect="always"
       xlink:href="#linearGradient3911"
       id="linearGradient3762"
       gradientUnits="userSpaceOnUse"
       gradientTransform="translate(0,-16.661873)"
       x1="519.29504"
       y1="-260.8017"
       x2="508.18713"
       y2="-300.37363" />
    <linearGradient
       inkscape:collect="always"
       xlink:href="#linearGradient3971"
       id="linearGradient3786"
       gradientUnits="userSpaceOnUse"
       gradientTransform="matrix(0.9140942,0,0,0.9140942,290.747,786.33643)"
       x1="441.53964"
       y1="-273.2981"
       x2="511.65836"
       y2="-286.14163" />
    <linearGradient
       id="linearGradient3578"
       inkscape:collect="always">
      <stop
         id="stop3580"
         offset="0"
         style="stop-color:#1f1c24;stop-opacity:1;" />
      <stop
         id="stop3582"
         offset="1"
         style="stop-color:#1f1c24;stop-opacity:0;" />
    </linearGradient>
    <linearGradient
       id="linearGradient3604"
       inkscape:collect="always">
      <stop
         id="stop3606"
         offset="0"
         style="stop-color:#211e26;stop-opacity:1;" />
      <stop
         id="stop3608"
         offset="1"
         style="stop-color:#211e26;stop-opacity:0;" />
    </linearGradient>
    <linearGradient
       inkscape:collect="always"
       xlink:href="#linearGradient3578"
       id="linearGradient3958"
       gradientUnits="userSpaceOnUse"
       gradientTransform="matrix(1.1100531,0,0,1.1100531,2863.0486,903.46763)"
       x1="-1887.6512"
       y1="-315.29987"
       x2="-1887.4778"
       y2="-254.37988" />
    <linearGradient
       inkscape:collect="always"
       xlink:href="#linearGradient3604"
       id="linearGradient3967"
       gradientUnits="userSpaceOnUse"
       gradientTransform="matrix(1.1100531,0,0,1.1100531,2931.5428,903.46763)"
       x1="-1801.6218"
       y1="-327.32669"
       x2="-1798.4309"
       y2="-249.51823" />
    <linearGradient
       inkscape:collect="always"
       xlink:href="#linearGradient3265-7-8"
       id="linearGradient6694"
       gradientUnits="userSpaceOnUse"
       gradientTransform="matrix(-1.9601035,0,0,1.9601035,3084.4205,1291.2843)"
       x1="1128.5424"
       y1="-358.21252"
       x2="1128.5"
       y2="-350.88782" />
    <linearGradient
       inkscape:collect="always"
       xlink:href="#linearGradient3265-7-8"
       id="linearGradient6696"
       gradientUnits="userSpaceOnUse"
       gradientTransform="matrix(1.9601035,0,0,1.9601035,-1268.7026,1291.2843)"
       x1="1128.5424"
       y1="-358.21252"
       x2="1128.5"
       y2="-350.88782" />
    <linearGradient
       inkscape:collect="always"
       xlink:href="#linearGradient3265-7-8"
       id="linearGradient9421"
       gradientUnits="userSpaceOnUse"
       gradientTransform="matrix(-1.9601035,0,0,1.9601035,3084.4205,1291.2843)"
       x1="1128.5424"
       y1="-358.21252"
       x2="1128.5"
       y2="-350.88782" />
    <linearGradient
       inkscape:collect="always"
       xlink:href="#linearGradient3265-7-8"
       id="linearGradient9423"
       gradientUnits="userSpaceOnUse"
       gradientTransform="matrix(1.9601035,0,0,1.9601035,-1268.7026,1291.2843)"
       x1="1128.5424"
       y1="-358.21252"
       x2="1128.5"
       y2="-350.88782" />
    <linearGradient
       inkscape:collect="always"
       xlink:href="#linearGradient4094-1"
       id="linearGradient9425"
       gradientUnits="userSpaceOnUse"
       gradientTransform="matrix(0.64156397,0,0,0.64156397,-240.46334,1048.4872)"
       x1="987.61987"
       y1="-434.2847"
       x2="919.21014"
       y2="-435.80673" />
    <linearGradient
       inkscape:collect="always"
       xlink:href="#linearGradient4122-9"
       id="linearGradient9427"
       gradientUnits="userSpaceOnUse"
       gradientTransform="matrix(0.76362355,0,0,0.76362355,-529.2141,788.2198)"
       x1="1627.4237"
       y1="-275.98389"
       x2="1568.8258"
       y2="-208.25383" />
    <linearGradient
       inkscape:collect="always"
       xlink:href="#linearGradient3310"
       id="linearGradient9429"
       gradientUnits="userSpaceOnUse"
       x1="1748.3407"
       y1="-227.81718"
       x2="1759.3722"
       y2="-149.25218" />
    <radialGradient
       inkscape:collect="always"
       xlink:href="#linearGradient4871"
       id="radialGradient9431"
       gradientUnits="userSpaceOnUse"
       gradientTransform="matrix(1.6682146,1.6471163,-0.88417937,0.89550496,-1046.6412,-1706.4218)"
       cx="1014.4006"
       cy="-408.6366"
       fx="1014.4006"
       fy="-408.6366"
       r="120.84957" />
    <linearGradient
       inkscape:collect="always"
       xlink:href="#linearGradient3209"
       id="linearGradient9433"
       gradientUnits="userSpaceOnUse"
       x1="1033.9359"
       y1="-312.79977"
       x2="1033.103"
       y2="-341.95212" />
    <linearGradient
       inkscape:collect="always"
       xlink:href="#linearGradient3219"
       id="linearGradient9435"
       gradientUnits="userSpaceOnUse"
       x1="1033.9359"
       y1="-312.79977"
       x2="1033.103"
       y2="-341.95212" />
    <linearGradient
       inkscape:collect="always"
       xlink:href="#linearGradient4136"
       id="linearGradient9437"
       gradientUnits="userSpaceOnUse"
       gradientTransform="matrix(1.3519879,0,0,1.3519879,-2458.2999,1401.0995)"
       x1="1621.358"
       y1="-347.02103"
       x2="1731.0365"
       y2="-299.90375" />
    <linearGradient
       inkscape:collect="always"
       xlink:href="#linearGradient4283"
       id="linearGradient9439"
       gradientUnits="userSpaceOnUse"
       gradientTransform="translate(-2538.9898,1459.867)"
       x1="503.56857"
       y1="-348.85837"
       x2="512.40308"
       y2="-335.29108" />
    <linearGradient
       inkscape:collect="always"
       xlink:href="#linearGradient3449"
       id="linearGradient9441"
       gradientUnits="userSpaceOnUse"
       gradientTransform="translate(-2538.9898,1459.867)"
       x1="535.43597"
       y1="-304.05469"
       x2="522.1842"
       y2="-302.79257" />
    <linearGradient
       inkscape:collect="always"
       xlink:href="#linearGradient4233"
       id="linearGradient9443"
       gradientUnits="userSpaceOnUse"
       gradientTransform="translate(-2538.9898,1459.867)"
       x1="492.84091"
       y1="-285.43903"
       x2="581.34399"
       y2="-291.27615" />
    <linearGradient
       inkscape:collect="always"
       xlink:href="#linearGradient4817"
       id="linearGradient9445"
       gradientUnits="userSpaceOnUse"
       gradientTransform="matrix(0.89679722,0,0,0.89679722,-2045.7805,1424)"
       x1="660.06604"
       y1="-501.25412"
       x2="616.52441"
       y2="-327.7186" />
    <linearGradient
       inkscape:collect="always"
       xlink:href="#linearGradient5181"
       id="linearGradient9447"
       gradientUnits="userSpaceOnUse"
       gradientTransform="translate(-1159.9752,1449.158)"
       x1="-276.65112"
       y1="-462.97198"
       x2="-282.89807"
       y2="-279.57907" />
    <linearGradient
       inkscape:collect="always"
       xlink:href="#linearGradient5172"
       id="linearGradient9449"
       gradientUnits="userSpaceOnUse"
       gradientTransform="matrix(0.89679722,0,0,0.89679722,-2045.7805,1424)"
       x1="533.96741"
       y1="-432.47049"
       x2="555.86011"
       y2="-240.41187" />
    <linearGradient
       inkscape:collect="always"
       xlink:href="#linearGradient4817"
       id="linearGradient9451"
       gradientUnits="userSpaceOnUse"
       gradientTransform="matrix(0.82173933,0,0,0.82173933,-2014.5348,1366.3891)"
       x1="626.62103"
       y1="-258.30438"
       x2="602.01056"
       y2="-402.81216" />
    <linearGradient
       inkscape:collect="always"
       xlink:href="#linearGradient5193"
       id="linearGradient9453"
       gradientUnits="userSpaceOnUse"
       gradientTransform="matrix(0.89679722,0,0,0.89679722,-2020.1702,1428.0016)"
       x1="564.45752"
       y1="-396.48645"
       x2="567.13477"
       y2="-318.39944" />
    <linearGradient
       inkscape:collect="always"
       xlink:href="#linearGradient3360"
       id="linearGradient9455"
       gradientUnits="userSpaceOnUse"
       gradientTransform="translate(-1124.2237,1458.7504)"
       x1="452.13895"
       y1="-403.7587"
       x2="425.63535"
       y2="-424.26743" />
    <linearGradient
       inkscape:collect="always"
       xlink:href="#linearGradient3360"
       id="linearGradient9457"
       gradientUnits="userSpaceOnUse"
       gradientTransform="translate(-1124.2237,1458.7504)"
       x1="452.13895"
       y1="-403.7587"
       x2="425.63535"
       y2="-424.26743" />
    <radialGradient
       inkscape:collect="always"
       xlink:href="#linearGradient3338"
       id="radialGradient9459"
       gradientUnits="userSpaceOnUse"
       gradientTransform="matrix(0.51554821,-0.84568081,1.1288979,0.68820444,-643.46887,1694.073)"
       cx="423.07739"
       cy="-187.4471"
       fx="423.07739"
       fy="-187.4471"
       r="166.84651" />
    <linearGradient
       inkscape:collect="always"
       xlink:href="#linearGradient3380"
       id="linearGradient9461"
       gradientUnits="userSpaceOnUse"
       gradientTransform="translate(-1104.5149,1460.497)"
       x1="549.00745"
       y1="-310.31183"
       x2="511.80453"
       y2="-309.47519" />
    <linearGradient
       inkscape:collect="always"
       xlink:href="#linearGradient3394"
       id="linearGradient9463"
       gradientUnits="userSpaceOnUse"
       gradientTransform="translate(-1035.7984,1460.497)"
       x1="548.9787"
       y1="-310.0397"
       x2="511.74536"
       y2="-309.25769" />
    <linearGradient
       inkscape:collect="always"
       xlink:href="#linearGradient4338"
       id="linearGradient9465"
       gradientUnits="userSpaceOnUse"
       gradientTransform="matrix(1.1870923,0,0,1.1870923,557.10763,972.51967)"
       x1="506.36237"
       y1="-254.24303"
       x2="505.8338"
       y2="-219.35794" />
    <linearGradient
       inkscape:collect="always"
       xlink:href="#linearGradient4300"
       id="linearGradient9467"
       gradientUnits="userSpaceOnUse"
       gradientTransform="matrix(0.83444929,0,0,0.83444929,695.02334,866.91126)"
       x1="521.0072"
       y1="-422.45435"
       x2="521.0072"
       y2="-338.73444" />
    <linearGradient
       inkscape:collect="always"
       xlink:href="#linearGradient4274"
       id="linearGradient9469"
       gradientUnits="userSpaceOnUse"
       gradientTransform="matrix(0.83444929,0,0,0.83444929,741.18088,866.91126)"
       x1="536.79242"
       y1="-366.81332"
       x2="556.42566"
       y2="-324.86945" />
    <linearGradient
       inkscape:collect="always"
       xlink:href="#linearGradient3146"
       id="linearGradient9471"
       gradientUnits="userSpaceOnUse"
       gradientTransform="translate(-25.414983,34.384977)"
       x1="538.38654"
       y1="-301.92004"
       x2="535.34979"
       y2="-301.63974" />
    <linearGradient
       inkscape:collect="always"
       xlink:href="#linearGradient3117"
       id="linearGradient9473"
       gradientUnits="userSpaceOnUse"
       gradientTransform="matrix(1.6191115,1.2420631,-1.2420631,1.6191115,-653.89128,220.57021)"
       x1="192.85487"
       y1="-417.59561"
       x2="159.96489"
       y2="-408.62561" />
    <linearGradient
       inkscape:collect="always"
       xlink:href="#linearGradient3117"
       id="linearGradient9475"
       gradientUnits="userSpaceOnUse"
       gradientTransform="translate(-63.427437,6.3427437)"
       x1="192.85487"
       y1="-417.59561"
       x2="159.96489"
       y2="-408.62561" />
    <linearGradient
       inkscape:collect="always"
       xlink:href="#linearGradient3139"
       id="linearGradient9477"
       gradientUnits="userSpaceOnUse"
       gradientTransform="translate(-47.042016,6.3427437)"
       x1="159.62572"
       y1="-254.24301"
       x2="132.40479"
       y2="-254.24301" />
    <linearGradient
       inkscape:collect="always"
       xlink:href="#linearGradient3971"
       id="linearGradient9479"
       gradientUnits="userSpaceOnUse"
       gradientTransform="matrix(0.9140942,0,0,0.9140942,290.747,786.33643)"
       x1="441.53964"
       y1="-273.2981"
       x2="511.65836"
       y2="-286.14163" />
    <linearGradient
       inkscape:collect="always"
       xlink:href="#linearGradient3911"
       id="linearGradient9481"
       gradientUnits="userSpaceOnUse"
       gradientTransform="translate(0,-16.661873)"
       x1="519.29504"
       y1="-260.8017"
       x2="508.18713"
       y2="-300.37363" />
    <linearGradient
       inkscape:collect="always"
       xlink:href="#linearGradient3604"
       id="linearGradient9483"
       gradientUnits="userSpaceOnUse"
       gradientTransform="matrix(1.1100531,0,0,1.1100531,2931.5428,903.46763)"
       x1="-1801.6218"
       y1="-327.32669"
       x2="-1798.4309"
       y2="-249.51823" />
    <linearGradient
       inkscape:collect="always"
       xlink:href="#linearGradient3578"
       id="linearGradient9485"
       gradientUnits="userSpaceOnUse"
       gradientTransform="matrix(1.1100531,0,0,1.1100531,2863.0486,903.46763)"
       x1="-1887.6512"
       y1="-315.29987"
       x2="-1887.4778"
       y2="-254.37988" />
    <linearGradient
       inkscape:collect="always"
       xlink:href="#linearGradient4283"
       id="linearGradient10519"
       gradientUnits="userSpaceOnUse"
       gradientTransform="translate(-2538.9898,1459.867)"
       x1="503.56857"
       y1="-348.85837"
       x2="512.40308"
       y2="-335.29108" />
    <linearGradient
       inkscape:collect="always"
       xlink:href="#linearGradient3449"
       id="linearGradient10521"
       gradientUnits="userSpaceOnUse"
       gradientTransform="translate(-2538.9898,1459.867)"
       x1="535.43597"
       y1="-304.05469"
       x2="522.1842"
       y2="-302.79257" />
    <linearGradient
       inkscape:collect="always"
       xlink:href="#linearGradient4233"
       id="linearGradient10523"
       gradientUnits="userSpaceOnUse"
       gradientTransform="translate(-2538.9898,1459.867)"
       x1="492.84091"
       y1="-285.43903"
       x2="581.34399"
       y2="-291.27615" />
    <radialGradient
       inkscape:collect="always"
       xlink:href="#linearGradient4871"
       id="radialGradient10535"
       gradientUnits="userSpaceOnUse"
       gradientTransform="matrix(1.6682146,1.6471163,-0.88417937,0.89550496,-1046.6412,-1706.4218)"
       cx="1014.4006"
       cy="-408.6366"
       fx="1014.4006"
       fy="-408.6366"
       r="120.84957" />
    <linearGradient
       inkscape:collect="always"
       xlink:href="#linearGradient3209"
       id="linearGradient10537"
       gradientUnits="userSpaceOnUse"
       x1="1033.9359"
       y1="-312.79977"
       x2="1033.103"
       y2="-341.95212" />
    <linearGradient
       inkscape:collect="always"
       xlink:href="#linearGradient3219"
       id="linearGradient10539"
       gradientUnits="userSpaceOnUse"
       x1="1033.9359"
       y1="-312.79977"
       x2="1033.103"
       y2="-341.95212" />
    <linearGradient
       inkscape:collect="always"
       xlink:href="#linearGradient4136"
       id="linearGradient10541"
       gradientUnits="userSpaceOnUse"
       gradientTransform="matrix(1.3519879,0,0,1.3519879,-2458.2999,1401.0995)"
       x1="1621.358"
       y1="-347.02103"
       x2="1731.0365"
       y2="-299.90375" />
    <linearGradient
       inkscape:collect="always"
       xlink:href="#linearGradient4817"
       id="linearGradient10572"
       gradientUnits="userSpaceOnUse"
       gradientTransform="matrix(0.89679722,0,0,0.89679722,-2045.7805,1424)"
       x1="660.06604"
       y1="-501.25412"
       x2="616.52441"
       y2="-327.7186" />
    <linearGradient
       inkscape:collect="always"
       xlink:href="#linearGradient5181"
       id="linearGradient10574"
       gradientUnits="userSpaceOnUse"
       gradientTransform="translate(-1159.9752,1449.158)"
       x1="-276.65112"
       y1="-462.97198"
       x2="-282.89807"
       y2="-279.57907" />
    <linearGradient
       inkscape:collect="always"
       xlink:href="#linearGradient5172"
       id="linearGradient10576"
       gradientUnits="userSpaceOnUse"
       gradientTransform="matrix(0.89679722,0,0,0.89679722,-2045.7805,1424)"
       x1="533.96741"
       y1="-432.47049"
       x2="555.86011"
       y2="-240.41187" />
    <linearGradient
       inkscape:collect="always"
       xlink:href="#linearGradient4817"
       id="linearGradient10578"
       gradientUnits="userSpaceOnUse"
       gradientTransform="matrix(0.82173933,0,0,0.82173933,-2014.5348,1366.3891)"
       x1="626.62103"
       y1="-258.30438"
       x2="602.01056"
       y2="-402.81216" />
    <linearGradient
       inkscape:collect="always"
       xlink:href="#linearGradient5193"
       id="linearGradient10580"
       gradientUnits="userSpaceOnUse"
       gradientTransform="matrix(0.89679722,0,0,0.89679722,-2020.1702,1428.0016)"
       x1="564.45752"
       y1="-396.48645"
       x2="567.13477"
       y2="-318.39944" />
    <linearGradient
       inkscape:collect="always"
       xlink:href="#linearGradient3360"
       id="linearGradient10582"
       gradientUnits="userSpaceOnUse"
       gradientTransform="translate(-1124.2237,1458.7504)"
       x1="452.13895"
       y1="-403.7587"
       x2="425.63535"
       y2="-424.26743" />
    <linearGradient
       inkscape:collect="always"
       xlink:href="#linearGradient3360"
       id="linearGradient10584"
       gradientUnits="userSpaceOnUse"
       gradientTransform="translate(-1124.2237,1458.7504)"
       x1="452.13895"
       y1="-403.7587"
       x2="425.63535"
       y2="-424.26743" />
    <radialGradient
       inkscape:collect="always"
       xlink:href="#linearGradient3338"
       id="radialGradient10586"
       gradientUnits="userSpaceOnUse"
       gradientTransform="matrix(0.51554821,-0.84568081,1.1288979,0.68820444,-643.46887,1694.073)"
       cx="423.07739"
       cy="-187.4471"
       fx="423.07739"
       fy="-187.4471"
       r="166.84651" />
    <linearGradient
       inkscape:collect="always"
       xlink:href="#linearGradient3380"
       id="linearGradient10588"
       gradientUnits="userSpaceOnUse"
       gradientTransform="translate(-1104.5149,1460.497)"
       x1="549.00745"
       y1="-310.31183"
       x2="511.80453"
       y2="-309.47519" />
    <linearGradient
       inkscape:collect="always"
       xlink:href="#linearGradient3394"
       id="linearGradient10590"
       gradientUnits="userSpaceOnUse"
       gradientTransform="translate(-1035.7984,1460.497)"
       x1="548.9787"
       y1="-310.0397"
       x2="511.74536"
       y2="-309.25769" />
    <linearGradient
       inkscape:collect="always"
       xlink:href="#linearGradient4338"
       id="linearGradient10592"
       gradientUnits="userSpaceOnUse"
       gradientTransform="matrix(1.1870923,0,0,1.1870923,557.10763,972.51967)"
       x1="506.36237"
       y1="-254.24303"
       x2="505.8338"
       y2="-219.35794" />
    <linearGradient
       inkscape:collect="always"
       xlink:href="#linearGradient4300"
       id="linearGradient10594"
       gradientUnits="userSpaceOnUse"
       gradientTransform="matrix(0.83444929,0,0,0.83444929,695.02334,866.91126)"
       x1="521.0072"
       y1="-422.45435"
       x2="521.0072"
       y2="-338.73444" />
    <linearGradient
       inkscape:collect="always"
       xlink:href="#linearGradient4274"
       id="linearGradient10596"
       gradientUnits="userSpaceOnUse"
       gradientTransform="matrix(0.83444929,0,0,0.83444929,741.18088,866.91126)"
       x1="536.79242"
       y1="-366.81332"
       x2="556.42566"
       y2="-324.86945" />
    <linearGradient
       inkscape:collect="always"
       xlink:href="#linearGradient3604"
       id="linearGradient10598"
       gradientUnits="userSpaceOnUse"
       gradientTransform="matrix(1.1100531,0,0,1.1100531,2931.5428,903.46763)"
       x1="-1801.6218"
       y1="-327.32669"
       x2="-1798.4309"
       y2="-249.51823" />
    <linearGradient
       inkscape:collect="always"
       xlink:href="#linearGradient3578"
       id="linearGradient10600"
       gradientUnits="userSpaceOnUse"
       gradientTransform="matrix(1.1100531,0,0,1.1100531,2863.0486,903.46763)"
       x1="-1887.6512"
       y1="-315.29987"
       x2="-1887.4778"
       y2="-254.37988" />
    <linearGradient
       inkscape:collect="always"
       xlink:href="#linearGradient3971"
       id="linearGradient10602"
       gradientUnits="userSpaceOnUse"
       gradientTransform="matrix(0.9140942,0,0,0.9140942,290.747,786.33643)"
       x1="441.53964"
       y1="-273.2981"
       x2="511.65836"
       y2="-286.14163" />
    <linearGradient
       inkscape:collect="always"
       xlink:href="#linearGradient3911"
       id="linearGradient10604"
       gradientUnits="userSpaceOnUse"
       gradientTransform="translate(0,-16.661873)"
       x1="519.29504"
       y1="-260.8017"
       x2="508.18713"
       y2="-300.37363" />
    <linearGradient
       inkscape:collect="always"
       xlink:href="#linearGradient3117"
       id="linearGradient10606"
       gradientUnits="userSpaceOnUse"
       gradientTransform="matrix(1.6191115,1.2420631,-1.2420631,1.6191115,-653.89128,220.57021)"
       x1="192.85487"
       y1="-417.59561"
       x2="159.96489"
       y2="-408.62561" />
    <linearGradient
       inkscape:collect="always"
       xlink:href="#linearGradient3117"
       id="linearGradient10608"
       gradientUnits="userSpaceOnUse"
       gradientTransform="translate(-63.427437,6.3427437)"
       x1="192.85487"
       y1="-417.59561"
       x2="159.96489"
       y2="-408.62561" />
    <linearGradient
       inkscape:collect="always"
       xlink:href="#linearGradient3139"
       id="linearGradient10610"
       gradientUnits="userSpaceOnUse"
       gradientTransform="translate(-47.042016,6.3427437)"
       x1="159.62572"
       y1="-254.24301"
       x2="132.40479"
       y2="-254.24301" />
    <linearGradient
       inkscape:collect="always"
       xlink:href="#linearGradient3146"
       id="linearGradient10612"
       gradientUnits="userSpaceOnUse"
       gradientTransform="translate(-25.414983,34.384977)"
       x1="538.38654"
       y1="-301.92004"
       x2="535.34979"
       y2="-301.63974" />
  </defs>
  <sodipodi:namedview
     id="base"
     pagecolor="#ffffff"
     bordercolor="#666666"
     borderopacity="1.0"
     inkscape:pageopacity="0.0"
     inkscape:pageshadow="2"
     inkscape:zoom="0.22940226"
     inkscape:cx="2096.6076"
     inkscape:cy="792.24518"
     inkscape:document-units="px"
     inkscape:current-layer="layer1"
     showgrid="false"
     fit-margin-top="0"
     fit-margin-left="0"
     fit-margin-right="0"
     fit-margin-bottom="0"
     inkscape:window-width="1920"
     inkscape:window-height="1017"
     inkscape:window-x="0"
     inkscape:window-y="28"
     inkscape:window-maximized="1"
     showguides="true"
     inkscape:guide-bbox="true"
     inkscape:snap-grids="false"
     inkscape:snap-to-guides="false">
    <sodipodi:guide
       orientation="0,1"
       position="371.87981,1115.6394"
       id="guide6622" />
    <sodipodi:guide
       orientation="0,1"
       position="73.848474,189.89608"
       id="guide6624" />
    <sodipodi:guide
       orientation="1,0"
       position="363.96748,1521.806"
       id="guide6626" />
    <sodipodi:guide
       orientation="1,0"
       position="862.44468,1442.6827"
       id="guide6628" />
  </sodipodi:namedview>
  <metadata
     id="metadata7">
    <rdf:RDF>
      <cc:Work
         rdf:about="">
        <dc:format>image/svg+xml</dc:format>
        <dc:type
           rdf:resource="http://purl.org/dc/dcmitype/StillImage" />
        <dc:title></dc:title>
      </cc:Work>
    </rdf:RDF>
  </metadata>
  <g
     inkscape:label="Capa 1"
     inkscape:groupmode="layer"
     id="layer1"
     transform="translate(15278.44,186.36436)">
    <rect
       style="opacity:0.8;fill:#000000;fill-opacity:1;stroke:none"
       id="rect6564"
       width="23217.738"
       height="1351.7388"
       x="-15278.44"
       y="-186.36436" />
    <g
       id="g6937">
      <g
         transform="translate(-6907.7016,-4.279516)"
         id="g8122">
        <g
           style="font-size:204.73330688px;font-style:normal;font-variant:normal;font-weight:normal;font-stretch:normal;line-height:125%;letter-spacing:0px;word-spacing:0px;fill:#ffffff;fill-opacity:1;stroke:none;font-family:Short Stack;-inkscape-font-specification:Short Stack"
           id="text3044-0">
          <path
             inkscape:connector-curvature="0"
             d="m -7865.5807,490.82881 c 0,-3.53212 0.6664,-7.69742 1.9993,-12.49593 1.3329,-4.865 3.299,-9.86337 5.8981,-14.99512 2.5992,-5.19821 5.7648,-10.32986 9.4969,-15.39498 3.7988,-5.13155 8.1307,-9.69673 12.9958,-13.69554 4.865,-3.99857 10.2299,-7.23085 16.0948,-9.69684 5.9313,-2.46573 12.3292,-3.69866 19.1937,-3.6988 3.1322,1.4e-4 6.2645,0.26672 9.3969,0.79974 3.1989,0.5333 6.2313,1.26639 9.0971,2.19928 2.9323,0.86652 5.6647,1.93284 8.1973,3.19896 2.5324,1.19974 4.7317,2.49932 6.5979,3.89873 1.3994,1.06645 2.7989,2.19941 4.1986,3.39889 1.3994,1.13309 2.6657,2.43267 3.7988,3.89873 1.1328,1.39967 2.0658,3.03247 2.799,4.89841 0.733,1.79953 1.0996,3.86552 1.0997,6.19798 -1e-4,1.93281 -0.3334,3.46564 -0.9997,4.5985 -0.5999,1.13307 -1.2664,2.03278 -1.9993,2.69912 -0.8665,0.7332 -1.8329,1.29968 -2.8991,1.69945 -1.6662,1e-4 -3.0991,-0.49974 -4.2986,-1.49951 -1.1997,-0.99957 -2.3327,-2.13254 -3.3989,-3.3989 -0.9998,-1.33279 -1.9994,-2.66569 -2.999,-3.99869 -0.9998,-1.33279 -2.0994,-2.29914 -3.2989,-2.89906 -4.0655,-3.26549 -8.2308,-5.46477 -12.496,-6.59785 -4.2653,-1.13284 -8.7639,-1.69933 -13.4956,-1.69945 -3.7988,1.2e-4 -7.5976,0.83319 -11.3963,2.49919 -3.7988,1.66624 -7.4643,3.89884 -10.9964,6.69782 -3.4656,2.79919 -6.6978,6.09812 -9.6968,9.89677 -2.9991,3.73222 -5.6316,7.69759 -7.8974,11.89613 -2.1994,4.19872 -3.9321,8.49731 -5.1983,12.8958 -1.2663,4.39864 -1.8995,8.66391 -1.8994,12.79583 -1e-4,8.39732 1.2329,15.56165 3.6988,21.493 2.4658,5.86479 5.8647,10.69655 10.1966,14.49528 4.3986,3.73214 9.5635,6.46458 15.495,8.19733 5.9313,1.73278 12.3959,2.59917 19.3937,2.59915 6.3312,2e-5 11.4295,-0.43318 15.295,-1.29958 3.9319,-0.86636 6.931,-2.16594 8.9971,-3.89873 2.1325,-1.73274 3.532,-3.86538 4.1986,-6.39791 0.733,-2.59913 1.0995,-5.63147 1.0996,-9.09704 -1e-4,-0.7997 -0.033,-1.89934 -0.1,-3.29892 -1e-4,-1.39951 -0.033,-2.86569 -0.1,-4.39857 -1e-4,-1.59943 -0.033,-3.16559 -0.1,-4.69847 -10e-5,-1.59943 -10e-5,-2.93233 0,-3.9987 -3.199,0.53321 -6.5313,0.83312 -9.9967,0.89971 -3.399,0.0667 -6.598,0.10002 -9.5969,0.1 -1.5329,5e-5 -3.1324,-0.19989 -4.7984,-0.59981 -1.6662,-0.46646 -3.1991,-1.13291 -4.5985,-1.99935 -1.333,-0.86633 -2.4326,-1.93264 -3.2989,-3.19896 -0.8665,-1.26619 -1.2997,-2.73238 -1.2996,-4.39856 -1e-4,-1.79935 0.3331,-3.23222 0.9997,-4.2986 0.733,-1.1329 1.666,-2.0326 2.799,-2.69912 1.1996,-0.66638 2.5658,-1.09957 4.0987,-1.29958 1.5328,-0.26651 3.1656,-0.3998 4.8984,-0.39987 1.3328,7e-5 2.799,0.0667 4.3986,0.19994 1.666,0.0667 3.2322,0.16668 4.6984,0.2999 1.7327,0.13336 3.4322,0.26665 5.0984,0.39987 1.3994,7e-5 2.9323,-0.13322 4.5985,-0.39987 1.7326,-0.26651 3.4654,-0.53309 5.1983,-0.79974 1.7326,-0.33315 3.4321,-0.63306 5.0983,-0.89971 1.7327,-0.26651 3.3655,-0.3998 4.8984,-0.39987 1.3328,7e-5 2.5991,0.29998 3.7988,0.89971 1.1995,0.59987 2.2325,1.39961 3.099,2.39922 0.9329,0.9331 1.666,1.99941 2.1993,3.19895 0.533,1.13303 0.7996,2.23268 0.7997,3.29893 -1e-4,2.19934 -0.4666,3.96543 -1.3995,5.29827 -0.9332,1.33296 -2.1661,2.4326 -3.6988,3.29893 -0.067,4.19868 -0.2001,8.59724 -0.3999,13.1957 -0.2001,4.53189 -0.1667,8.83049 0.1,12.8958 0.1998,2.59918 0.3664,4.69849 0.4998,6.29795 0.1332,1.5995 0.2331,2.89907 0.2999,3.89873 0.1332,0.99969 0.2331,1.76611 0.2999,2.29925 0.067,0.46653 0.1,0.8664 0.1,1.19961 -1e-4,2.53252 -0.1668,4.56519 -0.4999,6.09801 -0.3333,1.53284 -0.7998,2.73245 -1.3995,3.59883 -0.5999,0.79974 -1.333,1.3329 -2.1993,1.59948 -0.8665,0.26658 -1.8328,0.39987 -2.899,0.39987 -1.7996,0 -3.2658,-0.16661 -4.3986,-0.49984 -1.1331,-0.33322 -2.0994,-0.76641 -2.8991,-1.29958 -0.7332,-0.59979 -1.333,-1.1996 -1.7994,-1.79941 -0.4,-0.66644 -0.7665,-1.29957 -1.0996,-1.89938 -1.9328,1.06633 -4.1654,2.13264 -6.6978,3.19896 -2.466,1.06632 -5.1651,2.03267 -8.0974,2.89905 -2.9325,0.79974 -6.0315,1.46619 -9.297,1.99935 -3.199,0.46652 -6.4979,0.69977 -9.8967,0.69977 -10.73,0 -20.0936,-1.46618 -28.0909,-4.39856 -7.9974,-2.93237 -14.6286,-7.23097 -19.8935,-12.8958 -5.265,-5.73145 -9.197,-12.7958 -11.7962,-21.1931 -2.5991,-8.39722 -3.8987,-18.06073 -3.8987,-28.99055"
             id="path6832" />
          <path
             inkscape:connector-curvature="0"
             d="m -7722.5273,487.81427 c 0,-4.99832 0.4332,-9.96336 1.2996,-14.89515 0.933,-4.93166 2.2992,-9.63012 4.0986,-14.09541 1.8661,-4.46513 4.1987,-8.59711 6.9978,-12.39596 2.799,-3.79867 6.0646,-7.06427 9.7968,-9.79681 3.7987,-2.79898 8.064,-4.96494 12.7958,-6.49788 4.7984,-1.59937 10.0967,-2.39911 15.8948,-2.39922 6.3979,1.1e-4 12.1293,0.83317 17.1944,2.49919 5.1316,1.59958 9.5968,3.76554 13.3957,6.49788 3.8653,2.6659 7.0975,5.73156 9.6968,9.197 2.599,3.46563 4.5984,7.06445 5.998,10.79649 0.733,1.99942 1.2662,3.56558 1.5995,4.69847 0.3998,1.06639 0.7997,1.73284 1.1996,1.99935 2.1992,1.46626 3.8986,3.1657 5.0984,5.09833 1.2661,1.93277 1.8992,3.76551 1.8994,5.49821 l -0.1,35.88831 c -0.2667,3.79879 -0.5666,8.39729 -0.8997,13.79551 -0.2667,5.3316 -0.7666,11.82948 -1.4995,19.49365 -0.4,4.13198 -0.8332,8.26396 -1.2996,12.39596 -0.4666,4.13196 -1.1664,8.09734 -2.0993,11.89613 -0.8665,3.86537 -2.0661,7.43087 -3.5988,10.69651 -1.533,3.26556 -3.5657,6.09797 -6.0981,8.49723 -2.4659,2.46581 -5.5316,4.39852 -9.197,5.79811 -3.6655,1.39949 -8.0974,2.09926 -13.2956,2.09932 -1.1997,-6e-5 -2.9658,-0.10003 -5.2983,-0.2999 -2.266,-0.13335 -4.7652,-0.43325 -7.4976,-0.89971 -2.7325,-0.46657 -5.5316,-1.06637 -8.3972,-1.79941 -2.7992,-0.73315 -5.365,-1.66618 -7.6975,-2.79909 -2.3326,-1.06637 -4.232,-2.36595 -5.6982,-3.89873 -1.4662,-1.53288 -2.1993,-3.33229 -2.1993,-5.39824 0,-1.2663 0.1,-2.46591 0.3,-3.59883 0.1998,-1.133 0.5997,-2.13268 1.1996,-2.99902 0.5997,-0.79978 1.4661,-1.46623 2.5991,-1.99935 1.1329,-0.46655 2.6324,-0.69981 4.4985,-0.69977 1.3995,-4e-5 2.7658,0.43315 4.0987,1.29957 1.3995,0.933 2.9323,1.73273 4.5985,2.39922 1.6661,0.66641 3.5655,1.16625 5.6982,1.49951 2.1992,0.33319 4.2985,0.56645 6.2979,0.69977 1.9993,0.1999 3.7654,0.29987 5.2983,0.29991 1.5327,-4e-5 2.5657,-4e-5 3.099,0 3.0656,-4e-5 5.5647,-0.96639 7.4975,-2.89906 1.9993,-1.93274 3.5988,-4.36528 4.7985,-7.29762 1.1995,-2.86576 2.0325,-6.03139 2.4992,-9.49691 0.533,-3.46555 0.8996,-6.76447 1.0996,-9.89677 0.066,-1.4662 0.1998,-3.16565 0.3999,-5.09834 0.1998,-1.93271 0.3997,-3.96538 0.5998,-6.09802 0.1998,-2.19928 0.3997,-4.39856 0.5998,-6.59785 0.1998,-2.19927 0.3331,-4.26526 0.3998,-6.19798 -3.9988,4.93174 -8.9305,8.93043 -14.7951,11.99609 -5.8649,2.99903 -12.8626,4.49854 -20.9932,4.49854 -8.3307,0 -15.7283,-1.06632 -22.1928,-3.19896 -6.3979,-2.13264 -11.7962,-5.33159 -16.1947,-9.59687 -4.3986,-4.26527 -7.7642,-9.59686 -10.0967,-15.99479 -2.2659,-6.46453 -3.3989,-14.02873 -3.3989,-22.69261 m 19.1937,0.19993 c 0,6.93112 0.8997,12.62926 2.6992,17.09444 1.866,4.46523 4.3652,7.99741 7.4975,10.59654 3.1989,2.59918 6.9311,4.43191 11.1964,5.49821 4.2652,0.99969 8.8304,1.49953 13.6955,1.49951 5.5315,2e-5 10.3299,-1.19959 14.3953,-3.59882 4.0653,-2.46585 7.4975,-5.53151 10.2967,-9.19701 2.799,-3.66544 4.9649,-7.66413 6.4979,-11.99609 1.5327,-4.33188 2.499,-8.39722 2.899,-12.19603 0.1998,-1.866 0.1,-3.4988 -0.2999,-4.8984 -0.4,-1.46613 -0.8665,-2.83235 -1.3995,-4.09867 -0.6666,-1.46612 -1.2664,-2.89899 -1.7994,-4.2986 -0.5333,-1.46612 -0.7999,-2.96563 -0.7998,-4.49853 -1e-4,-2.06592 -0.7665,-4.39849 -2.2992,-6.99772 -1.4663,-2.66572 -3.5323,-5.1649 -6.198,-7.49756 -2.5993,-2.33249 -5.6982,-4.29851 -9.297,-5.89808 -3.5989,-1.66603 -7.4643,-2.49909 -11.5962,-2.49918 -6.8645,9e-5 -12.596,1.23302 -17.1944,3.69879 -4.5319,2.39931 -8.1641,5.59826 -10.8965,9.59688 -2.6658,3.99877 -4.5652,8.59727 -5.6981,13.7955 -1.133,5.13172 -1.6995,10.42999 -1.6995,15.89482"
             id="path6834" />
        </g>
        <g
           style="font-size:120.21715546px;font-style:normal;font-weight:normal;line-height:125%;letter-spacing:0px;word-spacing:0px;fill:#ffffff;fill-opacity:1;stroke:none;font-family:Sans"
           id="text3048-7">
          <path
             inkscape:connector-curvature="0"
             d="m -7950.7754,639.30013 c 0,-2.07402 0.3914,-4.51984 1.174,-7.33747 0.7827,-2.85667 1.9371,-5.79166 3.4633,-8.80497 1.5262,-3.05233 3.385,-6.06558 5.5765,-9.03977 2.2306,-3.01318 4.7742,-5.6938 7.631,-8.04187 2.8567,-2.34791 6.0069,-4.24587 9.4506,-5.69387 3.4828,-1.44785 7.2396,-2.17182 11.2704,-2.1719 1.8392,8e-5 3.6785,0.15662 5.5178,0.4696 1.8783,0.31315 3.6589,0.74361 5.3416,1.2914 1.7218,0.50881 3.3263,1.13494 4.8134,1.87839 1.487,0.70447 2.7784,1.46757 3.8742,2.28929 0.8217,0.62621 1.6435,1.29147 2.4654,1.99579 0.8217,0.66534 1.5653,1.42844 2.2306,2.2893 0.6652,0.82186 1.2131,1.78062 1.6436,2.87629 0.4304,1.05666 0.6456,2.26979 0.6457,3.63938 -10e-5,1.13493 -0.1957,2.03499 -0.587,2.70019 -0.3523,0.66533 -0.7436,1.19362 -1.174,1.5849 -0.5088,0.43052 -1.0762,0.76315 -1.7023,0.99789 -0.9784,6e-5 -1.8198,-0.29344 -2.5241,-0.88049 -0.7045,-0.58694 -1.3697,-1.25221 -1.9958,-1.9958 -0.587,-0.7826 -1.174,-1.56526 -1.761,-2.34799 -0.587,-0.7826 -1.2327,-1.35003 -1.9371,-1.70229 -2.3872,-1.91746 -4.833,-3.20885 -7.3374,-3.87419 -2.5046,-0.66519 -5.1461,-0.99782 -7.9245,-0.99789 -2.2306,7e-5 -4.4612,0.48923 -6.6918,1.46749 -2.2306,0.9784 -4.3829,2.28936 -6.457,3.93289 -2.0349,1.64365 -3.9329,3.58074 -5.6938,5.81127 -1.7611,2.19152 -3.3068,4.51994 -4.6373,6.98528 -1.2914,2.46544 -2.3089,4.98953 -3.0524,7.57227 -0.7436,2.58283 -1.1153,5.08735 -1.1153,7.51357 0,4.93082 0.7239,9.13763 2.1719,12.62046 1.4479,3.44374 3.4437,6.28089 5.9874,8.51146 2.5827,2.19148 5.6155,3.79594 9.0984,4.81339 3.4828,1.01747 7.2788,1.5262 11.3878,1.52619 3.7176,10e-6 6.7113,-0.25435 8.9811,-0.7631 2.3088,-0.50872 4.0697,-1.27181 5.2829,-2.28929 1.2522,-1.01745 2.074,-2.26971 2.4654,-3.75678 0.4304,-1.52618 0.6457,-3.30674 0.6457,-5.34168 0,-0.46958 -0.02,-1.11528 -0.059,-1.9371 0,-0.82177 -0.02,-1.6827 -0.059,-2.58279 0,-0.93917 -0.02,-1.8588 -0.059,-2.75889 0,-0.93916 0,-1.72183 0,-2.34799 -1.8784,0.3131 -3.8351,0.4892 -5.87,0.5283 -1.9958,0.0392 -3.8742,0.0587 -5.6351,0.0587 -0.9002,3e-5 -1.8393,-0.11737 -2.8176,-0.3522 -0.9784,-0.2739 -1.8785,-0.66523 -2.7002,-1.17399 -0.7827,-0.5087 -1.4284,-1.13483 -1.9371,-1.8784 -0.5088,-0.74349 -0.7631,-1.60442 -0.7631,-2.58279 0,-1.05656 0.1956,-1.89792 0.587,-2.52409 0.4304,-0.66522 0.9783,-1.19352 1.6436,-1.58489 0.7043,-0.39129 1.5066,-0.64566 2.4067,-0.7631 0.9,-0.15649 1.8588,-0.23476 2.8763,-0.2348 0.7826,4e-5 1.6435,0.0392 2.5828,0.1174 0.9782,0.0392 1.8979,0.0979 2.7588,0.1761 1.0175,0.0783 2.0153,0.15657 2.9937,0.2348 0.8218,4e-5 1.7218,-0.0782 2.7002,-0.2348 1.0174,-0.15649 2.0349,-0.31302 3.0524,-0.4696 1.0174,-0.19562 2.0153,-0.37172 2.9937,-0.5283 1.0174,-0.15649 1.9762,-0.23475 2.8763,-0.2348 0.7826,5e-5 1.5261,0.17615 2.2306,0.5283 0.7043,0.35224 1.3109,0.82184 1.8197,1.4088 0.5478,0.5479 0.9782,1.17403 1.2914,1.87839 0.313,0.6653 0.4695,1.311 0.4696,1.93709 -10e-5,1.29143 -0.274,2.32846 -0.8218,3.11109 -0.548,0.7827 -1.2719,1.4284 -2.1719,1.93709 -0.039,2.46542 -0.1175,5.04821 -0.2348,7.74838 -0.1175,2.66107 -0.098,5.18516 0.059,7.57227 0.1173,1.52621 0.2151,2.7589 0.2935,3.69808 0.078,0.93921 0.1369,1.70231 0.1761,2.2893 0.078,0.587 0.1369,1.03703 0.1761,1.35009 0.039,0.27394 0.059,0.50874 0.059,0.7044 -1e-4,1.48707 -0.098,2.68063 -0.2935,3.58068 -0.1958,0.90007 -0.4697,1.60447 -0.8218,2.1132 -0.3523,0.4696 -0.7828,0.78266 -1.2914,0.93919 -0.5088,0.15654 -1.0762,0.2348 -1.7023,0.2348 -1.0567,0 -1.9176,-0.0978 -2.5828,-0.2935 -0.6653,-0.19566 -1.2328,-0.45003 -1.7023,-0.76309 -0.4305,-0.3522 -0.7827,-0.7044 -1.0566,-1.0566 -0.2348,-0.39133 -0.4501,-0.76309 -0.6457,-1.1153 -1.1349,0.62614 -2.4459,1.25227 -3.9329,1.8784 -1.448,0.62613 -3.0328,1.19356 -4.7546,1.70229 -1.722,0.4696 -3.5417,0.86093 -5.4591,1.174 -1.8785,0.27393 -3.8156,0.4109 -5.8113,0.4109 -6.3005,0 -11.7987,-0.86093 -16.4946,-2.5828 -4.6961,-1.72185 -8.5898,-4.24594 -11.6813,-7.57227 -3.0915,-3.36544 -5.4004,-7.51355 -6.9266,-12.44435 -1.5262,-4.93076 -2.2893,-10.60506 -2.2893,-17.02294"
             style="font-variant:normal;font-stretch:normal;font-family:Short Stack;-inkscape-font-specification:Short Stack"
             id="path6819" />
          <path
             inkscape:connector-curvature="0"
             d="m -7866.776,653.91638 c 0,-3.05236 0.4305,-6.22215 1.2914,-9.50937 0.9001,-3.32628 2.1719,-6.4178 3.8155,-9.27456 1.5653,-2.85668 3.4828,-5.5373 5.7526,-8.04187 2.3088,-2.50447 4.872,-4.67636 7.6897,-6.51568 2.8175,-1.87833 5.8503,-3.34582 9.0984,-4.40248 3.2872,-1.09567 6.7113,-1.64353 10.2725,-1.6436 2.7001,7e-5 5.3025,0.37183 7.8071,1.1153 2.5044,0.70446 4.8524,1.68279 7.0439,2.93499 2.1914,1.25232 4.1872,2.73938 5.9874,4.46118 1.8392,1.72192 3.4045,3.58074 4.696,5.57648 1.2913,1.95671 2.2892,4.0112 2.9937,6.16348 0.7043,2.15237 1.0565,4.30469 1.0566,6.45697 -1e-4,1.91757 -0.1175,3.61986 -0.3522,5.10689 -0.1958,1.44795 -0.4501,2.89588 -0.7631,4.34378 -0.2349,1.48709 -0.4697,3.03285 -0.7044,4.63728 -0.2349,1.56535 -0.3523,3.40461 -0.3522,5.51778 -10e-5,1.83928 0.1369,3.36547 0.4109,4.57859 0.2738,1.174 0.6652,2.13277 1.174,2.87628 0.5086,0.74355 1.1152,1.27184 1.8197,1.5849 0.7434,0.27394 1.5652,0.41091 2.4654,0.4109 0.2347,10e-6 0.5282,-0.0587 0.8805,-0.1761 0.3521,-0.15653 0.6847,-0.31306 0.9979,-0.4696 0.3129,-0.19566 0.5869,-0.37176 0.8218,-0.5283 0.2347,-0.19565 0.3912,-0.35219 0.4696,-0.4696 0.4303,-0.43045 0.8412,-0.80222 1.2326,-1.11529 0.4304,-0.35219 0.9979,-0.52829 1.7023,-0.5283 1.4087,10e-6 2.4653,0.33264 3.1698,0.9979 0.7435,0.66527 1.1152,1.761 1.1153,3.28718 -1e-4,0.93921 -0.2936,1.91754 -0.8805,2.93499 -0.5479,1.01747 -1.3306,1.95666 -2.348,2.81759 -1.0175,0.8218 -2.2306,1.50663 -3.6394,2.05449 -1.4088,0.54787 -2.9742,0.8218 -4.6959,0.8218 -3.4438,0 -6.3984,-0.95876 -8.8637,-2.87629 -2.4263,-1.95665 -4.1678,-4.61771 -5.2243,-7.98317 -1.448,1.5262 -3.0329,2.9937 -4.7547,4.40249 -1.7219,1.36966 -3.6198,2.58279 -5.6938,3.63938 -2.0742,1.01747 -4.383,1.8197 -6.9266,2.40669 -2.5046,0.62613 -5.283,0.9392 -8.3354,0.9392 -2.3089,0 -4.6764,-0.31307 -7.1027,-0.9392 -2.3871,-0.62613 -4.7155,-1.50662 -6.9852,-2.64149 -2.2306,-1.13486 -4.3243,-2.50452 -6.2809,-4.10898 -1.9567,-1.64359 -3.6785,-3.44371 -5.1656,-5.40038 -1.4479,-1.95665 -2.6024,-4.06984 -3.4633,-6.33958 -0.8218,-2.2697 -1.2327,-4.63726 -1.2327,-7.10267 m 10.9769,-0.1174 c 0,2.42628 0.6457,4.65687 1.9371,6.69177 1.3305,2.03495 3.0328,3.77637 5.1069,5.22428 2.074,1.44794 4.3828,2.58281 6.9265,3.40459 2.5828,0.78267 5.1069,1.17401 7.5723,1.174 3.2871,10e-6 6.3004,-0.62612 9.0398,-1.8784 2.7784,-1.25225 5.1459,-2.87627 7.1026,-4.87208 1.9958,-1.99577 3.5415,-4.22636 4.6373,-6.69177 1.0957,-2.5045 1.6436,-4.96989 1.6436,-7.39618 0,-1.36963 0.2935,-2.56319 0.8805,-3.58068 0.6261,-1.05656 1.2131,-2.05446 1.761,-2.99369 0.1565,-0.19563 0.2347,-0.48913 0.2348,-0.8805 0.039,-0.43043 0.039,-0.86089 0,-1.29139 -1e-4,-0.46956 -0.02,-0.90003 -0.059,-1.2914 -0.039,-0.39129 -0.059,-0.66522 -0.059,-0.8218 -1e-4,-0.86088 -0.2936,-1.80008 -0.8805,-2.81759 -0.587,-1.01741 -1.3893,-2.03488 -2.4067,-3.05238 -0.9784,-1.01742 -2.1132,-1.99575 -3.4046,-2.93499 -1.2523,-0.97828 -2.5437,-1.83921 -3.8741,-2.58279 -1.3306,-0.74348 -2.6612,-1.33048 -3.9916,-1.761 -1.3306,-0.46954 -2.5242,-0.70434 -3.5807,-0.70439 -2.9742,5e-5 -5.7526,0.41095 -8.3354,1.23269 -2.5437,0.82185 -4.8721,1.93714 -6.9853,3.34589 -2.1132,1.40884 -4.0111,3.072 -5.6938,4.98948 -1.6437,1.87844 -3.0329,3.89379 -4.1677,6.04608 -1.0958,2.15236 -1.9371,4.38295 -2.5241,6.69177 -0.587,2.30889 -0.8805,4.55905 -0.8805,6.75048"
             style="font-variant:normal;font-stretch:normal;font-family:Short Stack;-inkscape-font-specification:Short Stack"
             id="path6821" />
          <path
             inkscape:connector-curvature="0"
             d="m -7742.2737,679.80298 c -3.8743,0 -7.0832,-0.7631 -9.6268,-2.28929 -2.5437,-1.56532 -4.5982,-3.63938 -6.1635,-6.22218 -1.5653,-2.62191 -2.7393,-5.59603 -3.522,-8.92236 -0.7826,-3.36544 -1.3305,-6.84829 -1.6436,-10.44856 -0.313,-3.63936 -0.4891,-7.25918 -0.5282,-10.85946 -0.039,-3.60022 -0.098,-6.92653 -0.1761,-9.97897 -1.0567,5e-5 -2.0154,5e-5 -2.8763,0 -0.8219,5e-5 -1.6436,0.0196 -2.4654,0.0587 -0.4696,0.0392 -0.9001,0.0783 -1.2914,0.1174 -0.3914,5e-5 -0.8218,0.0196 -1.2914,0.0587 -0.4305,5e-5 -0.9392,0.0196 -1.5262,0.0587 -0.5479,5e-5 -1.2327,5e-5 -2.0545,0 -0.4696,5e-5 -1.0957,-0.11735 -1.8784,-0.3522 -0.7827,-0.23475 -1.5653,-0.56738 -2.348,-0.99789 -0.7827,-0.43042 -1.4675,-0.95872 -2.0545,-1.5849 -0.5478,-0.66521 -0.8218,-1.40874 -0.8218,-2.23059 0,-0.82174 0.1761,-1.58484 0.5283,-2.28929 0.3522,-0.70434 0.8218,-1.29134 1.4088,-1.76099 0.6261,-0.50868 1.3501,-0.90001 2.1719,-1.174 0.8218,-0.27387 1.6827,-0.41084 2.5828,-0.4109 l 12.327,0.2935 c 0.1173,-0.97827 0.2347,-1.9566 0.3521,-2.93499 0.1174,-0.97827 0.2153,-1.93703 0.2935,-2.87629 0.1174,-1.1348 0.1957,-2.19139 0.2348,-3.16979 0.039,-0.97826 0.098,-1.91745 0.1761,-2.81759 0.078,-0.93912 0.1566,-1.85875 0.2348,-2.75889 0.1174,-0.93912 0.2935,-1.91745 0.5283,-2.93499 0.1174,-0.66518 0.3914,-1.31088 0.8218,-1.93709 0.4305,-0.66518 0.9196,-1.25218 1.4675,-1.76099 0.587,-0.50865 1.1936,-0.91955 1.8197,-1.2327 0.6653,-0.31298 1.2914,-0.46951 1.8784,-0.4696 0.4696,9e-5 0.9588,0.11749 1.4675,0.3522 0.5087,0.23488 0.9783,0.58708 1.4088,1.0566 0.4304,0.43054 0.7826,0.95884 1.0566,1.58489 0.313,0.58708 0.4696,1.25234 0.4696,1.9958 0,1.5654 -0.02,2.87636 -0.059,3.93288 0,1.05667 -0.039,1.95673 -0.1174,2.70019 -0.039,0.7436 -0.098,1.3893 -0.1761,1.93709 -0.078,0.54794 -0.1566,1.0958 -0.2348,1.6436 -0.078,0.43053 -0.1566,0.90013 -0.2348,1.40879 -0.039,0.46967 -0.098,1.01753 -0.1761,1.6436 -0.039,0.62619 -0.098,1.35015 -0.1761,2.17189 -0.078,0.78272 -0.1761,1.72192 -0.2935,2.81759 2.2306,-0.0391 4.3438,-0.0782 6.3396,-0.1174 2.0349,-0.0782 4.0307,-0.13691 5.9874,-0.1761 1.9566,-0.0782 3.9524,-0.13691 5.9873,-0.1761 2.0349,-0.0391 4.2068,-0.0586 6.5157,-0.0587 0.7826,6e-5 1.4675,0.21529 2.0545,0.6457 0.6261,0.39139 1.1348,0.88055 1.5262,1.46749 0.4304,0.58706 0.7435,1.21319 0.9392,1.8784 0.2347,0.62618 0.3521,1.17404 0.3522,1.64359 -1e-4,0.82185 -0.1762,1.56538 -0.5283,2.23059 -0.3523,0.62618 -0.7827,1.15448 -1.2914,1.5849 -0.5088,0.43051 -1.0762,0.74357 -1.7023,0.93919 -0.6262,0.19572 -1.1936,0.29355 -1.7023,0.2935 l -24.0082,-0.4109 c -0.1566,0.15658 -0.2348,0.33268 -0.2348,0.5283 0,2.07411 -0.039,4.46123 -0.1174,7.16137 -0.078,2.6611 -0.098,5.38085 -0.059,8.15927 0.078,2.77849 0.2543,5.51781 0.5283,8.21797 0.2739,2.66108 0.7631,5.0482 1.4675,7.16138 0.7435,2.07407 1.7414,3.7568 2.9937,5.04818 1.2522,1.2914 2.8958,1.9371 4.9308,1.93709 0.6652,10e-6 1.4479,-0.11739 2.348,-0.3522 0.9391,-0.27392 1.8587,-0.58698 2.7589,-0.93919 0.9,-0.35219 1.7413,-0.74352 2.524,-1.174 0.7827,-0.43045 1.3892,-0.82178 1.8197,-1.174 0.4305,-0.39131 0.9979,-0.74351 1.7023,-1.05659 0.7044,-0.31305 1.2914,-0.46958 1.761,-0.4696 1.487,2e-5 2.4262,0.37178 2.8176,1.1153 0.4304,0.70441 0.6457,1.68274 0.6457,2.93499 0,0.43047 -0.098,0.95877 -0.2935,1.58489 -0.1957,0.58701 -0.4501,1.07617 -0.7631,1.46749 -0.7436,0.93921 -1.7219,1.9371 -2.935,2.99369 -1.174,1.01747 -2.4458,1.95667 -3.8155,2.81759 -1.3697,0.8218 -2.7589,1.50663 -4.1676,2.0545 -1.4089,0.54786 -2.7003,0.82179 -3.8742,0.82179"
             style="font-variant:normal;font-stretch:normal;font-family:Short Stack;-inkscape-font-specification:Short Stack"
             id="path6823" />
          <path
             inkscape:connector-curvature="0"
             d="m -7694.7269,601.90837 c -0.6653,8e-5 -1.6241,-0.15646 -2.8763,-0.4696 -1.2131,-0.35212 -2.4263,-0.86085 -3.6394,-1.52619 -1.174,-0.66519 -2.211,-1.50655 -3.1111,-2.52409 -0.8609,-1.01738 -1.2914,-2.21094 -1.2914,-3.58069 0,-0.66518 0.137,-1.35001 0.4109,-2.05449 0.2739,-0.70431 0.6457,-1.35001 1.1153,-1.9371 0.5087,-0.5869 1.1153,-1.0565 1.8197,-1.40879 0.7044,-0.39124 1.4871,-0.58691 2.348,-0.587 0.7435,9e-5 1.6631,0.29359 2.7589,0.8805 1.1348,0.58709 2.211,1.35018 3.2285,2.28929 1.0174,0.90015 1.8979,1.91761 2.6415,3.05239 0.7435,1.09581 1.1152,2.17197 1.1153,3.22849 -10e-5,0.27401 -0.098,0.66534 -0.2935,1.17399 -0.1566,0.50881 -0.4305,1.01755 -0.8218,1.5262 -0.3522,0.50881 -0.8218,0.95884 -1.4088,1.35009 -0.5479,0.39141 -1.2132,0.58708 -1.9958,0.587 m -8.1593,72.84643 c -0.078,-0.31306 -0.1761,-0.91962 -0.2935,-1.81969 -0.078,-0.90006 -0.1761,-2.38712 -0.2935,-4.46119 -0.078,-2.07404 -0.1565,-4.87206 -0.2348,-8.39406 -0.039,-3.5611 -0.059,-8.13968 -0.059,-13.73575 0,-4.38288 0.2544,-8.86363 0.7631,-13.44225 0.5479,-4.61767 1.2131,-8.98102 1.9958,-13.09006 0.039,-0.35214 0.1761,-0.82173 0.4109,-1.40879 0.2739,-0.62607 0.6261,-1.23263 1.0566,-1.81969 0.4696,-0.62607 1.0174,-1.15437 1.6436,-1.5849 0.6261,-0.46953 1.3501,-0.70433 2.1719,-0.7044 0.8609,7e-5 1.5653,0.1566 2.1132,0.4696 0.5478,0.274 0.9587,0.6849 1.2327,1.2327 0.313,0.50879 0.5283,1.11536 0.6457,1.81969 0.1174,0.66533 0.1761,1.36972 0.1761,2.11319 0,2.07412 -0.078,4.36341 -0.2348,6.86788 -0.1566,2.46544 -0.3327,4.98953 -0.5283,7.57227 -0.1566,2.5437 -0.3131,5.04822 -0.4696,7.51357 -0.1174,2.46543 -0.1761,4.69602 -0.1761,6.69178 0,1.76102 0.1174,3.75681 0.3522,5.98738 0.2739,2.23061 0.5674,4.5199 0.8805,6.86787 0.3521,2.34801 0.6456,4.65686 0.8805,6.92657 0.2739,2.2306 0.4108,4.26553 0.4109,6.10478 -1e-4,1.91753 -0.4892,3.40459 -1.4675,4.46119 -0.9784,1.01746 -2.0741,1.52619 -3.2872,1.52619 -2.348,0 -4.109,-0.43047 -5.283,-1.2914 -1.174,-0.82179 -1.9762,-2.28928 -2.4067,-4.40248"
             style="font-variant:normal;font-stretch:normal;font-family:Short Stack;-inkscape-font-specification:Short Stack"
             id="path6825" />
          <path
             inkscape:connector-curvature="0"
             d="m -7637.0837,679.80298 c -3.8743,0 -7.0832,-0.7631 -9.6268,-2.28929 -2.5437,-1.56532 -4.5982,-3.63938 -6.1635,-6.22218 -1.5653,-2.62191 -2.7393,-5.59603 -3.522,-8.92236 -0.7826,-3.36544 -1.3305,-6.84829 -1.6435,-10.44856 -0.3131,-3.63936 -0.4892,-7.25918 -0.5283,-10.85946 -0.039,-3.60022 -0.098,-6.92653 -0.1761,-9.97897 -1.0567,5e-5 -2.0154,5e-5 -2.8763,0 -0.8218,5e-5 -1.6436,0.0196 -2.4654,0.0587 -0.4696,0.0392 -0.9001,0.0783 -1.2914,0.1174 -0.3914,5e-5 -0.8218,0.0196 -1.2914,0.0587 -0.4305,5e-5 -0.9392,0.0196 -1.5262,0.0587 -0.5479,5e-5 -1.2327,5e-5 -2.0545,0 -0.4696,5e-5 -1.0957,-0.11735 -1.8784,-0.3522 -0.7827,-0.23475 -1.5653,-0.56738 -2.348,-0.99789 -0.7827,-0.43042 -1.4675,-0.95872 -2.0545,-1.5849 -0.5478,-0.66521 -0.8218,-1.40874 -0.8218,-2.23059 0,-0.82174 0.1761,-1.58484 0.5283,-2.28929 0.3522,-0.70434 0.8218,-1.29134 1.4088,-1.76099 0.6261,-0.50868 1.3501,-0.90001 2.1719,-1.174 0.8218,-0.27387 1.6827,-0.41084 2.5828,-0.4109 l 12.327,0.2935 c 0.1173,-0.97827 0.2347,-1.9566 0.3522,-2.93499 0.1173,-0.97827 0.2152,-1.93703 0.2935,-2.87629 0.1173,-1.1348 0.1956,-2.19139 0.2347,-3.16979 0.039,-0.97826 0.098,-1.91745 0.1761,-2.81759 0.078,-0.93912 0.1566,-1.85875 0.2348,-2.75889 0.1174,-0.93912 0.2935,-1.91745 0.5283,-2.93499 0.1174,-0.66518 0.3914,-1.31088 0.8218,-1.93709 0.4305,-0.66518 0.9196,-1.25218 1.4675,-1.76099 0.587,-0.50865 1.1936,-0.91955 1.8197,-1.2327 0.6653,-0.31298 1.2914,-0.46951 1.8784,-0.4696 0.4696,9e-5 0.9588,0.11749 1.4675,0.3522 0.5087,0.23488 0.9783,0.58708 1.4088,1.0566 0.4304,0.43054 0.7826,0.95884 1.0566,1.58489 0.313,0.58708 0.4696,1.25234 0.4696,1.9958 0,1.5654 -0.02,2.87636 -0.059,3.93288 0,1.05667 -0.039,1.95673 -0.1174,2.70019 -0.039,0.7436 -0.098,1.3893 -0.1761,1.93709 -0.078,0.54794 -0.1566,1.0958 -0.2348,1.6436 -0.078,0.43053 -0.1566,0.90013 -0.2348,1.40879 -0.039,0.46967 -0.098,1.01753 -0.1761,1.6436 -0.039,0.62619 -0.098,1.35015 -0.1761,2.17189 -0.078,0.78272 -0.1761,1.72192 -0.2935,2.81759 2.2306,-0.0391 4.3438,-0.0782 6.3396,-0.1174 2.0349,-0.0782 4.0307,-0.13691 5.9874,-0.1761 1.9566,-0.0782 3.9524,-0.13691 5.9873,-0.1761 2.0349,-0.0391 4.2068,-0.0586 6.5157,-0.0587 0.7826,6e-5 1.4675,0.21529 2.0545,0.6457 0.6261,0.39139 1.1348,0.88055 1.5262,1.46749 0.4304,0.58706 0.7435,1.21319 0.9392,1.8784 0.2347,0.62618 0.3521,1.17404 0.3522,1.64359 -1e-4,0.82185 -0.1762,1.56538 -0.5283,2.23059 -0.3523,0.62618 -0.7827,1.15448 -1.2914,1.5849 -0.5088,0.43051 -1.0762,0.74357 -1.7023,0.93919 -0.6262,0.19572 -1.1936,0.29355 -1.7023,0.2935 l -24.0082,-0.4109 c -0.1566,0.15658 -0.2348,0.33268 -0.2348,0.5283 0,2.07411 -0.039,4.46123 -0.1174,7.16137 -0.078,2.6611 -0.098,5.38085 -0.059,8.15927 0.078,2.77849 0.2543,5.51781 0.5283,8.21797 0.2739,2.66108 0.7631,5.0482 1.4675,7.16138 0.7435,2.07407 1.7414,3.7568 2.9937,5.04818 1.2522,1.2914 2.8958,1.9371 4.9308,1.93709 0.6652,10e-6 1.4479,-0.11739 2.348,-0.3522 0.9391,-0.27392 1.8587,-0.58698 2.7589,-0.93919 0.9,-0.35219 1.7413,-0.74352 2.524,-1.174 0.7827,-0.43045 1.3892,-0.82178 1.8197,-1.174 0.4305,-0.39131 0.9979,-0.74351 1.7023,-1.05659 0.7044,-0.31305 1.2914,-0.46958 1.761,-0.4696 1.487,2e-5 2.4262,0.37178 2.8176,1.1153 0.4304,0.70441 0.6457,1.68274 0.6457,2.93499 0,0.43047 -0.098,0.95877 -0.2935,1.58489 -0.1957,0.58701 -0.4501,1.07617 -0.7631,1.46749 -0.7436,0.93921 -1.7219,1.9371 -2.935,2.99369 -1.174,1.01747 -2.4458,1.95667 -3.8155,2.81759 -1.3697,0.8218 -2.7589,1.50663 -4.1676,2.0545 -1.4089,0.54786 -2.7003,0.82179 -3.8742,0.82179"
             style="font-variant:normal;font-stretch:normal;font-family:Short Stack;-inkscape-font-specification:Short Stack"
             id="path6827" />
          <path
             inkscape:connector-curvature="0"
             d="m -7603.5662,647.6942 c 0,-6.06561 0.9784,-11.21162 2.935,-15.43804 1.9567,-4.22634 4.5199,-7.65049 7.6897,-10.27246 3.2089,-2.661 6.8287,-4.57853 10.8595,-5.75258 4.0698,-1.21307 8.2179,-1.81963 12.4443,-1.8197 4.8916,7e-5 9.2745,0.8023 13.1488,2.4067 3.9132,1.60452 7.22,3.91337 9.9202,6.92657 2.7002,3.01331 4.7742,6.67226 6.2222,10.97686 1.4479,4.26556 2.1718,9.05937 2.1719,14.38145 -10e-5,3.09154 -0.411,6.00696 -1.2327,8.74626 -0.8219,2.73934 -1.9567,5.283 -3.4046,7.63098 -1.448,2.30886 -3.1894,4.38292 -5.2243,6.22217 -1.9958,1.83927 -4.1873,3.42416 -6.5743,4.75468 -2.3872,1.2914 -4.9113,2.26973 -7.5723,2.93499 -2.6611,0.7044 -5.3613,1.0566 -8.1006,1.0566 -2.9741,0 -5.87,-0.4696 -8.6875,-1.4088 -2.7785,-0.90006 -5.4005,-2.15232 -7.8658,-3.75678 -2.4654,-1.60446 -4.7352,-3.46328 -6.8092,-5.57648 -2.0349,-2.15231 -3.7959,-4.4416 -5.283,-6.86788 -1.4479,-2.42623 -2.5828,-4.93076 -3.4046,-7.51357 -0.8218,-2.58276 -1.2327,-5.12642 -1.2327,-7.63097 m 10.1551,-1.46749 c 0,2.89588 0.6261,5.8113 1.8784,8.74626 1.2522,2.89588 2.8958,5.5178 4.9308,7.86577 2.074,2.34801 4.422,4.26553 7.044,5.75258 2.661,1.44794 5.3612,2.1719 8.1005,2.1719 2.9741,0 5.8504,-0.50873 8.6289,-1.5262 2.8175,-1.01745 5.2829,-2.50451 7.3962,-4.46118 2.1522,-1.95665 3.8741,-4.34377 5.1655,-7.16138 1.2914,-2.81756 1.9371,-6.02648 1.9371,-9.62676 0,-3.52195 -0.4892,-6.73087 -1.4675,-9.62676 -0.9392,-2.93495 -2.2502,-5.45904 -3.9328,-7.57228 -1.6828,-2.11314 -3.6982,-3.73716 -6.0461,-4.87208 -2.3481,-1.17394 -4.8917,-1.76094 -7.631,-1.76099 -3.0524,5e-5 -6.1244,0.48922 -9.2159,1.46749 -3.0915,0.93925 -5.8895,2.34804 -8.394,4.22639 -2.4654,1.8393 -4.4808,4.12859 -6.0461,6.86787 -1.5654,2.73936 -2.348,5.90915 -2.348,9.50937"
             style="font-variant:normal;font-stretch:normal;font-family:Short Stack;-inkscape-font-specification:Short Stack"
             id="path6829" />
        </g>
        <g
           transform="matrix(0.71545391,0,0,0.71545391,-8285.3634,434.08993)"
           id="layer1-7-6"
           inkscape:label="Capa 1">
          <g
             id="g6924">
            <g
               id="g4993"
               transform="matrix(0.95255195,0,0,0.95255195,-248.1724,852.9037)">
              <g
                 transform="matrix(0.94616804,0,0,0.94616804,45.05794,-22.815908)"
                 id="g4713">
                <path
                   style="fill:#552200;fill-opacity:1;stroke:none"
                   d="m 1238.4337,-193.42806 c 37.6788,-104.97759 33.4592,-244.84048 -53.7456,-285.31814 -44.1922,-20.51261 -67.7785,11.84999 -25.3136,25.73499 109.537,35.81584 46.3077,259.58315 46.3077,259.58315 z"
                   id="path4706"
                   inkscape:connector-curvature="0"
                   sodipodi:nodetypes="csscc"
                   inkscape:transform-center-x="30.752421"
                   inkscape:transform-center-y="-139.66993" />
                <path
                   sodipodi:nodetypes="ccsccccccccccccccccccccsc"
                   inkscape:connector-curvature="0"
                   style="fill:#c87137;fill-opacity:1;stroke:none"
                   d="m 1168.5625,-484.21875 -20.125,26.46875 c 2.9991,1.7181 6.6214,3.33875 10.9375,4.75 9.2496,3.0244 17.2571,7.39821 24.1875,12.875 l 12.75,-3.65625 -6.0313,9.625 c 14.9509,14.93426 23.832,35.75956 28.6876,59 l 12.3437,3.65625 -10.4063,7.0625 c 2.5516,16.59484 3.3134,34.07672 2.9063,51.3125 l 15.125,10.875 -15.6875,2.8125 c -0.9383,16.45313 -2.7868,32.30999 -4.9375,46.625 l 20.7154,59.78682 c 5.689,-9.08714 15.2534,-55.77652 16.8471,-65.25557 l -15.4375,-17.3125 17.625,2.375 c 2.6303,-20.46464 3.6398,-41.03817 2.7187,-60.90625 l -22.625,-9.21875 20.7188,-13.21875 c -3.4979,-27.99147 -11.2027,-53.89776 -23.8125,-75.28125 l -19.7187,5.5625 6.8437,-23.75 c -10.2382,-12.03603 -22.6779,-21.83879 -37.5,-28.71875 -5.7581,-2.67274 -11.1671,-4.43354 -16.125,-5.46875 z"
                   id="path4708" />
              </g>
              <path
                 sodipodi:nodetypes="csccacccccc"
                 inkscape:connector-curvature="0"
                 id="path4663"
                 d="m 1002.7178,-477.27513 c 0,0 -98.89003,76.86495 -82.80514,123.84775 26.90486,78.58719 132.48834,54.72341 132.48834,54.72341 l -6.4804,79.20496 c 0,0 -12.9939,-3.12028 -16.9392,0.93094 -2.7988,2.87392 -0.3419,12.02987 -0.3419,12.02987 l 188.6518,1.44009 c -0.6891,-101.91657 -72.2631,-189.65615 -148.3294,-276.49729 l -2.7928,53.7351 -61.9239,1.44009 z"
                 style="fill:#c87137;stroke:none" />
              <path
                 sodipodi:nodetypes="ccac"
                 inkscape:connector-curvature="0"
                 id="path4665"
                 d="m 1081.3837,-296.84208 7.5573,75.90298 c 0,0 20.0516,-5.62496 25.9216,0.72005 3.2639,3.52804 -0.72,14.40089 -0.72,14.40089"
                 style="fill:none;stroke:#000000;stroke-width:3.14599991;stroke-linecap:butt;stroke-linejoin:miter;stroke-miterlimit:4;stroke-opacity:1;stroke-dasharray:none" />
              <path
                 sodipodi:nodetypes="cscac"
                 inkscape:connector-curvature="0"
                 id="path4667"
                 d="m 1145.0248,-291.50351 c 0,0 -42.9546,-9.95913 -41.0426,34.56216 1.0766,25.07032 41.4025,32.40202 41.4025,32.40202 0,0 -22.0411,-2.63855 -28.0817,4.68029 -2.9802,3.61083 0.36,14.04088 0.36,14.04088"
                 style="fill:none;stroke:#000000;stroke-width:3.14599991;stroke-linecap:butt;stroke-linejoin:miter;stroke-miterlimit:4;stroke-opacity:1;stroke-dasharray:none" />
              <path
                 sodipodi:nodetypes="cc"
                 inkscape:connector-curvature="0"
                 id="path4669"
                 d="m 1066.4103,-287.5021 0.5091,80.70007"
                 style="fill:none;stroke:#000000;stroke-width:3.14599991;stroke-linecap:butt;stroke-linejoin:miter;stroke-miterlimit:4;stroke-opacity:1;stroke-dasharray:none" />
              <path
                 inkscape:connector-curvature="0"
                 id="path4671"
                 d="m 1036.3705,-213.42097 0.5091,6.87351"
                 style="fill:none;stroke:#000000;stroke-width:3.14599991;stroke-linecap:butt;stroke-linejoin:miter;stroke-miterlimit:4;stroke-opacity:1;stroke-dasharray:none" />
              <path
                 inkscape:connector-curvature="0"
                 id="path4673"
                 d="m 1046.2989,-212.91182 0.5092,6.87351"
                 style="fill:none;stroke:#000000;stroke-width:3.14599991;stroke-linecap:butt;stroke-linejoin:miter;stroke-miterlimit:4;stroke-opacity:1;stroke-dasharray:none" />
              <path
                 inkscape:connector-curvature="0"
                 id="path4675"
                 d="m 1088.0491,-214.18469 -0.7637,7.8918"
                 style="fill:none;stroke:#000000;stroke-width:3.14599991;stroke-linecap:butt;stroke-linejoin:miter;stroke-miterlimit:4;stroke-opacity:1;stroke-dasharray:none" />
              <path
                 inkscape:connector-curvature="0"
                 id="path4677"
                 d="m 1101.5415,-214.18469 -1.2729,8.14638"
                 style="fill:none;stroke:#000000;stroke-width:3.14599991;stroke-linecap:butt;stroke-linejoin:miter;stroke-miterlimit:4;stroke-opacity:1;stroke-dasharray:none" />
              <path
                 style="fill:none;stroke:#000000;stroke-width:3.14599991;stroke-linecap:butt;stroke-linejoin:miter;stroke-miterlimit:4;stroke-opacity:1;stroke-dasharray:none"
                 d="m 1133.1088,-212.91182 0.5091,6.87351"
                 id="path4679"
                 inkscape:connector-curvature="0" />
              <path
                 style="fill:none;stroke:#000000;stroke-width:3.14599991;stroke-linecap:butt;stroke-linejoin:miter;stroke-miterlimit:4;stroke-opacity:1;stroke-dasharray:none"
                 d="m 1150.929,-213.42096 0.5092,6.87351"
                 id="path4681"
                 inkscape:connector-curvature="0" />
              <path
                 sodipodi:nodetypes="aaaa"
                 inkscape:connector-curvature="0"
                 id="path4683"
                 d="m 986.53001,-359.3137 c 4.66539,-8.66864 26.07489,-8.54374 29.52519,0.67615 2.8146,7.52087 -9.826,17.13103 -17.80524,16.22759 -6.81288,-0.77137 -14.96928,-10.86618 -11.71995,-16.90374 z"
                 style="fill:#000000;stroke:#000000;stroke-width:0.41883749px;stroke-linecap:butt;stroke-linejoin:miter;stroke-opacity:1" />
              <path
                 sodipodi:type="arc"
                 style="fill:#ffffff;fill-opacity:1;stroke:none"
                 id="path4401"
                 sodipodi:cx="-510.12704"
                 sodipodi:cy="962.45862"
                 sodipodi:rx="61.619305"
                 sodipodi:ry="61.619305"
                 d="m -448.50774,962.45862 c 0,34.0314 -27.5879,61.61928 -61.6193,61.61928 -34.03141,0 -61.61931,-27.58788 -61.61931,-61.61928 0,-34.0314 27.5879,-61.61931 61.61931,-61.61931 34.0314,0 61.6193,27.58791 61.6193,61.61931 z"
                 transform="matrix(0.37473333,0,0,0.37473333,1166.5091,-749.0664)"
                 inkscape:export-filename="/home/david/work/pipo/textures/abeja.png"
                 inkscape:export-xdpi="90"
                 inkscape:export-ydpi="90" />
              <path
                 inkscape:export-ydpi="90"
                 inkscape:export-xdpi="90"
                 inkscape:export-filename="/home/david/work/pipo/textures/abeja.png"
                 transform="matrix(-0.37473333,0,0,0.37473333,832.36261,-749.0664)"
                 d="m -448.50774,962.45862 c 0,34.0314 -27.5879,61.61928 -61.6193,61.61928 -34.03141,0 -61.61931,-27.58788 -61.61931,-61.61928 0,-34.0314 27.5879,-61.61931 61.61931,-61.61931 34.0314,0 61.6193,27.58791 61.6193,61.61931 z"
                 sodipodi:ry="61.619305"
                 sodipodi:rx="61.619305"
                 sodipodi:cy="962.45862"
                 sodipodi:cx="-510.12704"
                 id="path4424"
                 style="fill:#ffffff;fill-opacity:1;stroke:none"
                 sodipodi:type="arc" />
              <path
                 sodipodi:nodetypes="ccc"
                 inkscape:connector-curvature="0"
                 id="path4689"
                 d="m 975.78182,-406.38834 c 11.28736,10.69212 12.45729,23.42084 -1.01831,35.13126 -10.88046,-8.9101 -13.20154,-23.42085 1.01831,-35.13126 z"
                 style="fill:#000000;stroke:#000000;stroke-width:0.94616807px;stroke-linecap:butt;stroke-linejoin:miter;stroke-opacity:1" />
              <path
                 style="fill:#000000;stroke:#000000;stroke-width:0.99957979px;stroke-linecap:butt;stroke-linejoin:miter;stroke-opacity:1"
                 d="m 1022.4015,-407.37994 c 11.9246,11.29571 13.1606,24.74298 -1.0758,37.11446 -11.4947,-9.41309 -13.9468,-24.74298 1.0758,-37.11446 z"
                 id="path4691"
                 inkscape:connector-curvature="0"
                 sodipodi:nodetypes="ccc" />
              <path
                 sodipodi:nodetypes="cc"
                 inkscape:connector-curvature="0"
                 id="path4693"
                 d="m 917.73886,-361.0741 c 48.51061,53.35005 198.53154,37.42142 202.64124,-50.91487"
                 style="fill:none;stroke:#000000;stroke-width:3.14599991;stroke-linecap:butt;stroke-linejoin:miter;stroke-miterlimit:4;stroke-opacity:1;stroke-dasharray:none" />
              <path
                 inkscape:connector-curvature="0"
                 id="path4695"
                 d="m 999.20266,-342.74474 0,12.21956"
                 style="fill:none;stroke:#000000;stroke-width:3.14599991;stroke-linecap:butt;stroke-linejoin:miter;stroke-miterlimit:4;stroke-opacity:1;stroke-dasharray:none" />
              <path
                 sodipodi:nodetypes="cccccccc"
                 inkscape:connector-curvature="0"
                 id="path4697"
                 d="m 1004.1579,-426.51196 6.8405,14.04088 12.2407,-14.04088 9.0006,13.68086 10.4407,-14.04087 11.5206,14.04087 10.8007,-15.48097 z"
                 style="fill:#552200;stroke:none" />
              <path
                 inkscape:connector-curvature="0"
                 id="path4701"
                 d="m 1142.4355,-392.08755 -23.4177,36.87098 38.4677,-15.4935 c -4.8281,-7.16778 -9.8443,-14.28524 -15.05,-21.37748 z m 34.476,52.45319 -33.796,34.09161 50.7087,-0.9166 c -4.9956,-11.18922 -10.664,-22.23639 -16.9127,-33.17501 z m 30.1591,68.62675 -37.3145,12.62543 43.1098,10.58525 c -1.5542,-7.81272 -3.4961,-15.54697 -5.7953,-23.21068 z"
                 style="fill:#552200;stroke:none" />
              <path
                 sodipodi:nodetypes="cccccccccccccccccccccccccccccscccccccccccccccccccccccccccccccccccccccccccccccccccscccccccccccccccccccccccccccccccssc"
                 inkscape:connector-curvature="0"
                 id="path4936"
                 d="m 1140.3438,-482.0625 c -20.8397,0.2297 -27.7151,16.62318 -6.625,27.25 0.04,0.0203 0.084,0.0423 0.125,0.0625 0.138,0.0695 0.2971,0.11851 0.4374,0.1875 0.4254,0.2077 0.8653,0.42211 1.3126,0.625 0.2658,0.12153 0.5075,0.25525 0.7812,0.375 0.135,0.0587 0.2693,0.098 0.4062,0.15625 0.1797,0.077 0.3795,0.14253 0.5626,0.21875 0.5198,0.2147 1.047,0.44822 1.5937,0.65625 0.1042,0.0399 0.2073,0.0854 0.3125,0.125 0.892,0.33411 1.8181,0.65381 2.7812,0.96875 0.8097,0.26475 1.5852,0.52623 2.375,0.8125 0.2816,0.10206 0.5648,0.20772 0.8438,0.3125 0.5025,0.18867 1.0055,0.39639 1.5,0.59375 0.5417,0.21646 1.093,0.4294 1.625,0.65625 0.9753,0.41549 1.9317,0.86298 2.875,1.3125 0.042,0.02 0.083,0.0425 0.125,0.0625 0.9865,0.4733 1.9543,0.95874 2.9062,1.46875 0.4205,0.22464 0.8362,0.45589 1.25,0.6875 0.5235,0.29385 1.0497,0.60129 1.5626,0.90625 1.8359,1.09162 3.6088,2.2394 5.3124,3.46875 0.8519,0.61468 1.6804,1.25851 2.5,1.90625 0.01,0.005 0.025,-0.005 0.031,0 2.2263,1.75572 4.3503,3.63988 6.3437,5.625 l -0.031,0.0312 c 14.146,14.13032 22.562,33.82314 27.1562,55.8125 l 0.031,0 c 0.6924,3.33827 1.3229,6.72547 1.8437,10.15625 l -0.031,0 c 0.3018,1.96269 0.5625,3.91943 0.8125,5.90625 0.25,1.98682 0.487,3.99323 0.6875,6 0.1475,1.47602 0.2532,2.95266 0.375,4.4375 0.075,0.95103 0.1538,1.88972 0.2188,2.84375 0,0.0738 0.026,0.14498 0.031,0.21875 0.108,1.53738 0.1989,3.08124 0.2812,4.625 0.013,0.24949 0.019,0.50038 0.031,0.75 0.8616,18.09375 -0.037,36.51682 -1.75,53.75 -2.1922,-5.82766 -4.5564,-11.62262 -7.125,-17.375 -0.07,-0.15724 -0.1483,-0.31156 -0.2187,-0.46875 -0.5569,-1.24176 -1.1141,-2.48032 -1.6876,-3.71875 -0.1843,-0.39837 -0.3764,-0.78948 -0.5624,-1.1875 -0.4641,-0.99218 -0.9318,-1.97866 -1.4063,-2.96875 -0.4031,-0.84151 -0.8083,-1.69126 -1.2187,-2.53125 -0.2674,-0.54681 -0.5108,-1.11006 -0.7813,-1.65625 -0.6921,-1.39848 -1.4128,-2.79307 -2.125,-4.1875 -0.7012,-1.37183 -1.4047,-2.72573 -2.125,-4.09375 -0.039,-0.0743 -0.086,-0.14444 -0.125,-0.21875 -0.6828,-1.29483 -1.363,-2.61476 -2.0625,-3.90625 -0.08,-0.1469 -0.1703,-0.29064 -0.25,-0.4375 -0.6349,-1.16875 -1.2893,-2.33392 -1.9375,-3.5 -0.1494,-0.26889 -0.2873,-0.54375 -0.4375,-0.8125 -6.5065,-11.64326 -13.6912,-23.15471 -21.375,-34.5625 -0.1131,-0.16792 -0.2304,-0.33213 -0.3438,-0.5 -1.0932,-1.61943 -2.1987,-3.22843 -3.3124,-4.84375 -0.9783,-1.41977 -1.9757,-2.86476 -2.9688,-4.28125 -0.2579,-0.36743 -0.5224,-0.72652 -0.7812,-1.09375 -0.3235,-0.45938 -0.6437,-0.91593 -0.9688,-1.375 -0.93,-1.31189 -1.8701,-2.6281 -2.8125,-3.9375 -0.2299,-0.31971 -0.4568,-0.64917 -0.6875,-0.96875 -22.9773,-31.80932 -49.5219,-62.89708 -76.6562,-93.875 l -2.8126,53.71875 -1.5,0.0312 0.3438,-0.46875 -60.75,1.8125 -1.5312,-50.78125 c 0,0 -88.62882,68.88674 -84.43755,116.09375 -0.21912,1.22237 1.00677,5.82371 1.625,7.75 26.90486,78.58719 132.49995,54.71875 132.49995,54.71875 l -6.5,79.21875 c 0,0 -12.9921,-3.11372 -16.9374,0.9375 -2.7989,2.87392 -0.3438,12.03125 -0.3438,12.03125 64.6725,0.65855 132.0359,1.1461 188.6562,0.8125 7.5764,-18.4374 12.4452,-40.88943 16.0313,-61.46875 L 1233,-267.53125 c 0.7903,-4.59239 1.4795,-9.20105 2.0938,-13.8125 l 0.3124,0.0312 c 2.4888,-19.36299 3.434,-38.85771 2.5626,-57.65625 L 1237.875,-339 c -0.308,-7.17127 -0.8726,-14.24811 -1.7188,-21.1875 -0.2022,-1.65906 -0.4223,-3.29458 -0.6562,-4.9375 -0.234,-1.64348 -0.484,-3.28005 -0.75,-4.90625 -0.5309,-3.24524 -1.1521,-6.45525 -1.8125,-9.625 -6.2144,-29.82712 -18.2197,-56.11004 -37.1563,-75.15625 -1.3124,-1.32006 -2.6518,-2.5945 -4.0312,-3.84375 -0.69,-0.62485 -1.3869,-1.23707 -2.0938,-1.84375 -0.8392,-0.72301 -1.668,-1.45965 -2.5312,-2.15625 -0.5877,-0.47287 -1.1823,-0.91444 -1.7812,-1.375 -0.7456,-0.57335 -1.4871,-1.1335 -2.25,-1.6875 -0.3508,-0.25551 -0.7082,-0.49868 -1.0626,-0.75 -0.4077,-0.28826 -0.806,-0.59226 -1.2187,-0.875 -0.093,-0.0637 -0.1883,-0.12409 -0.2813,-0.1875 -0.6795,-0.46231 -1.3696,-0.92778 -2.0624,-1.375 -0.1762,-0.11399 -0.3543,-0.23075 -0.5313,-0.34375 -0.5931,-0.37765 -1.2097,-0.72722 -1.8125,-1.09375 -0.024,-0.0148 -0.038,-0.0477 -0.062,-0.0625 -0.8582,-0.52204 -1.7159,-1.03241 -2.5937,-1.53125 -0.7725,-0.43827 -1.556,-0.86093 -2.3438,-1.28125 -0.1102,-0.0589 -0.2332,-0.0977 -0.3438,-0.15625 -0.6872,-0.36345 -1.3635,-0.74409 -2.0624,-1.09375 -0.05,-0.025 -0.1062,-0.0376 -0.1563,-0.0625 -0.8589,-0.4283 -1.7172,-0.84315 -2.5937,-1.25 -0.651,-0.30213 -1.2962,-0.5972 -1.9376,-0.875 -0.03,-0.0133 -0.063,-0.018 -0.094,-0.0312 -0.6096,-0.26321 -1.2118,-0.5395 -1.8125,-0.78125 -0.061,-0.0248 -0.1262,-0.038 -0.1875,-0.0625 -0.2764,-0.11043 -0.5381,-0.20654 -0.8125,-0.3125 -0.3748,-0.14511 -0.7539,-0.30057 -1.125,-0.4375 -0.5456,-0.20054 -1.0876,-0.41063 -1.625,-0.59375 -0.1048,-0.0358 -0.2081,-0.0586 -0.3125,-0.0937 -1.2685,-0.42752 -2.5299,-0.79128 -3.75,-1.125 -0.4437,-0.12082 -0.8754,-0.23479 -1.3125,-0.34375 -0.1689,-0.0423 -0.3322,-0.0845 -0.5,-0.125 -0.4104,-0.0987 -0.8144,-0.19277 -1.2188,-0.28125 -0.1895,-0.0416 -0.3742,-0.0857 -0.5624,-0.125 -3.75,-0.78351 -7.2181,-1.12855 -10.375,-1.09375 z"
                 style="fill:none;stroke:#000000;stroke-width:6.19999981;stroke-miterlimit:4;stroke-dasharray:none" />
              <path
                 inkscape:connector-curvature="0"
                 id="path4981"
                 d="m 1044.8692,-359.31468 53.2708,-28.91844"
                 style="fill:none;stroke:#000000;stroke-width:1px;stroke-linecap:butt;stroke-linejoin:miter;stroke-opacity:1" />
              <path
                 sodipodi:nodetypes="cc"
                 inkscape:connector-curvature="0"
                 id="path4983"
                 d="m 1043.3472,-345.61646 53.2708,30.44046"
                 style="fill:none;stroke:#000000;stroke-width:1px;stroke-linecap:butt;stroke-linejoin:miter;stroke-opacity:1" />
              <path
                 inkscape:connector-curvature="0"
                 id="path4985"
                 d="m 1046.3912,-353.98759 62.403,3.04404"
                 style="fill:none;stroke:#000000;stroke-width:1px;stroke-linecap:butt;stroke-linejoin:miter;stroke-opacity:1" />
              <path
                 inkscape:connector-curvature="0"
                 id="path4987"
                 d="m 949.74271,-363.11974 c -4.56607,1.52203 -59.35892,-25.8744 -59.35892,-25.8744"
                 style="fill:none;stroke:#000000;stroke-width:1px;stroke-linecap:butt;stroke-linejoin:miter;stroke-opacity:1" />
              <path
                 inkscape:connector-curvature="0"
                 id="path4989"
                 d="m 948.98169,-348.66051 -63.92499,27.39642"
                 style="fill:none;stroke:#000000;stroke-width:1px;stroke-linecap:butt;stroke-linejoin:miter;stroke-opacity:1" />
              <path
                 sodipodi:nodetypes="cc"
                 inkscape:connector-curvature="0"
                 id="path4991"
                 d="m 878.96861,-357.79266 59.73943,1.52203"
                 style="fill:none;stroke:#000000;stroke-width:1px;stroke-linecap:butt;stroke-linejoin:miter;stroke-opacity:1" />
            </g>
          </g>
        </g>
        <g
           transform="matrix(0.90438971,0,0,0.90438971,-8073.905,-13.021616)"
           id="layer1-4-9"
           inkscape:label="Capa 1"
           style="fill:#ffffff">
          <path
             inkscape:connector-curvature="0"
             id="path3060"
             d="m 466.10232,149.63307 c -1.0165,0.0178 -2.0223,0.0381 -3.0312,0.0937 -11.3798,0.62816 -23.1987,3.26334 -34.5938,7.5625 -18.5709,0.95651 -186.2429,9.61594 -275.0937,14.96875 -21.6327,1.30328 -37.3901,15.22653 -38.6875,31.78125 -0.6487,8.27736 2.8187,16.93548 10.0625,23.15625 7.2438,6.22077 17.867,10.24423 32.0313,11.46875 25.1036,2.17028 58.5478,2.18548 91.5624,1.28125 0.8178,6.44121 1.6032,13.61309 4.625,21.25 3.4926,8.82647 10.2317,17.68776 22.4376,25.90625 -0.9468,3.71288 -1.7583,8.58604 -1.5938,13.9375 0.358,11.64478 6.8176,26.51722 25.0625,33.5 0.2818,0.10784 0.5618,0.20598 0.8437,0.3125 -4.2382,3.2308 -7.6222,6.64968 -10.1562,10.34375 -4.4258,6.45185 -5.9735,14.10575 -3.9688,20.96875 4.0096,13.726 18.6153,22.38096 38.4688,27.15625 21.777,5.2381 45.0769,4.2244 67.125,-3.84375 3.3786,-1.23637 6.283,-3.20664 8.6562,-5.6875 1.3333,0.13832 5.6969,0.61105 12.4063,1.375 7.6054,0.86597 17.43,1.86554 28.0313,2.40625 21.2025,1.08143 45.4408,0.7221 63.1874,-7.8125 10.9458,-5.26404 19.7621,-16.47264 26.9376,-26.40625 4.7479,-6.57289 7.8499,-11.58426 9.875,-14.96875 l 27.1874,1.5625 a 7.1209755,7.1209755 0 1 0 0.8126,-14.21875 l -31.5,-1.8125 a 7.1202884,7.1202884 0 0 0 -0.7188,0 7.1202884,7.1202884 0 0 0 -5.875,3.625 c 0,0 -4.6565,8.25421 -11.3125,17.46875 -6.656,9.21454 -15.8505,19.14418 -21.5937,21.90625 -12.9607,6.2329 -35.987,7.4726 -56.2813,6.4375 -10.1471,-0.51755 -19.6537,-1.49305 -27.125,-2.34375 -2.9152,-0.33193 -5.0782,-0.60779 -7.2187,-0.875 0.4014,-2.10416 0.616,-4.27525 0.5624,-6.46875 -0.1734,-7.1222 -2.8464,-14.61092 -8.125,-21.28125 3.6485,-0.9379 7.2731,-2.04113 10.875,-3.28125 12.306,-4.23684 17.6378,-17.17042 17,-28.84375 -0.2623,-4.80079 -1.5819,-9.62095 -4.1874,-13.875 5.0471,-2.58047 9.4815,-6.27254 12.5,-11.0625 3.3895,-5.37918 3.7014,-11.52885 2.875,-16.8125 -0.8266,-5.28365 -2.6446,-10.13526 -4.2813,-14.65625 -1.6367,-4.52099 -3.0938,-8.70168 -3.5937,-11.96875 -0.5,-3.26707 -0.2113,-5.19898 0.9062,-6.9375 3.6782,-5.72244 10.9985,-10.74265 19.3125,-13.59375 4.4429,-1.5236 9.1057,-2.35858 13.4687,-2.59375 -13.7836,23.54824 -19.4236,41.51638 -19.1562,55.96875 0.3039,16.42476 9.612,27.76089 20.9062,33.125 11.2943,5.36411 24.2106,6.05778 34.9376,5.1875 5.3635,-0.43514 10.1777,-1.29627 14.0937,-2.375 1.958,-0.53937 3.6908,-1.1181 5.2813,-1.84375 1.5905,-0.72565 3.0749,-1.23803 4.9062,-3.625 a 7.1222068,7.1222068 0 0 0 -10.5938,-9.46875 c 0.0206,-0.0297 0.0412,-0.0757 0.0626,-0.0937 -0.0714,0.0621 -0.1633,0.15072 -0.3126,0.21875 -0.5964,0.27213 -1.6998,0.70113 -3.125,1.09375 -2.8505,0.78524 -6.9402,1.53885 -11.4687,1.90625 -9.0571,0.7348 -19.9445,-0.18113 -27.6563,-3.84375 -7.7118,-3.66262 -12.5952,-8.78271 -12.8124,-20.53125 -0.2174,-11.74854 5.5968,-30.70978 23.0312,-58 a 7.1202884,7.1202884 0 0 0 -4.2188,-10.71875 c -9.9822,-2.58905 -21.3588,-1.51344 -31.9687,2.125 -10.6099,3.63844 -20.5828,9.92598 -26.6563,19.375 -3.44,5.35197 -3.809,11.49527 -3,16.78125 0.8091,5.28598 2.6426,10.12989 4.2813,14.65625 1.6387,4.52636 3.0791,8.74148 3.5937,12.03125 0.5147,3.28977 0.2292,5.24792 -0.875,7 -1.5444,2.45102 -5.0171,5.32106 -8.75,6.84375 -1.605,0.65468 -3.2006,1.05502 -4.6562,1.21875 a 7.1218827,7.1218827 0 0 0 -4.4375,-1.9375 c -1.233,-0.0731 -2.3969,-0.0975 -3.5937,-0.15625 -8.2938,-4.80715 -15.5378,-14.06026 -20,-24.96875 -3.8384,-9.38348 -5.5497,-19.81338 -4.7813,-28.875 a 7.1202884,7.1202884 0 0 0 0.8437,-5.46875 c 0.1855,-0.86095 0.3863,-1.71254 0.625,-2.53125 4.5605,-15.63965 16.9931,-29.76129 32.9688,-40.125 6.3081,-4.09216 13.1427,-7.56535 20.1562,-10.34375 0.4471,-0.023 4.3125,-0.21875 4.3126,-0.21875 a 7.1258391,7.1258391 0 0 0 5.875,-3.28125 c 7.476,-2.18392 14.9684,-3.54591 22.0624,-3.9375 26.1568,-1.44387 58.983,14.92034 70.7188,37.59375 2.595,5.01333 1.8999,18.63653 -0.875,30.3125 -2.7749,11.67597 -6.625,21.375 -6.625,21.375 a 7.1202884,7.1202884 0 0 0 6.6875,9.75 l 38.7187,-0.4375 a 7.1254286,7.1254286 0 0 0 -0.1562,-14.25 l -28.6562,0.34375 c 1.2656,-3.91171 2.6281,-8.22191 3.875,-13.46875 3.05,-12.83349 5.9578,-28.01317 -0.3438,-40.1875 -14.6952,-28.39064 -49.5766,-45.89657 -81.0938,-45.34375 z m -67.1874,23.4375 c -15.8971,11.41807 -28.7862,26.57978 -34.0938,44.78125 -0.1602,0.54939 -0.2949,1.10079 -0.4375,1.65625 -26.5569,1.98366 -145.0533,10.27019 -206.375,4.96875 -12.0915,-1.04534 -19.7302,-4.42251 -23.9687,-8.0625 -4.2386,-3.63999 -5.4639,-7.32554 -5.1563,-11.25 0.6151,-7.84892 9.3176,-17.75323 25.3437,-18.71875 68.4252,-4.12227 185.5833,-10.30057 244.6876,-13.375 z m -36.375,60.875 c -0.0788,10.11944 2.151,20.54906 6.0937,30.1875 2.816,6.88405 6.539,13.41652 11.1563,19.0625 -25.988,0.0628 -47.8463,1.63511 -90.6563,-5.6875 a 7.1202884,7.1202884 0 0 0 -4.7187,-1.84375 7.1202884,7.1202884 0 0 0 -0.375,0.0312 c -10.7615,-7.02225 -15.3202,-13.37237 -17.8438,-19.75 -1.9811,-5.00667 -2.6613,-10.4207 -3.4688,-16.4375 43.3559,-1.52094 83.0798,-4.3037 99.8126,-5.5625 z m -73.5938,58 c 52.4972,8.76307 74.8214,4.45486 109.125,5.8125 0.4686,0.21826 0.9289,0.4536 1.4062,0.65625 2.47,1.04846 4.9823,1.57914 7.5,1.71875 0.0104,5.7e-4 0.021,-5.6e-4 0.0313,0 1.1464,0.61239 2.0329,1.4583 2.8437,2.46875 1.6333,2.03509 2.7237,5.09601 2.9063,8.4375 0.3652,6.68298 -2.9293,13.08359 -7.4063,14.625 -6.6631,2.29406 -13.4364,4.02147 -20.2812,5.1875 a 7.1202884,7.1202884 0 0 0 -5.5938,0.8125 c -24.6441,3.10706 -50.1992,-0.75436 -75.5,-10.4375 -13.5704,-5.19376 -15.6659,-12.80893 -15.9062,-20.625 -0.0973,-3.16474 0.326,-6.17029 0.875,-8.65625 z m 28.2812,48.625 c 21.6033,5.95525 43.5283,7.93469 64.9688,5.09375 7.8804,5.88605 10.6436,12.68734 10.7812,18.34375 0.1523,6.25283 -2.8572,10.70356 -6.6562,12.09375 -19.3707,7.08841 -39.7729,7.97719 -58.9062,3.375 -17.3371,-4.17003 -26.6008,-11.98754 -28.1563,-17.3125 -0.7777,-2.66248 -0.5391,-5.15921 2.0313,-8.90625 2.5533,-3.72225 7.6919,-8.25484 15.9374,-12.6875 z"
             style="font-size:medium;font-style:normal;font-variant:normal;font-weight:normal;font-stretch:normal;text-indent:0;text-align:start;text-decoration:none;line-height:normal;letter-spacing:normal;word-spacing:normal;text-transform:none;direction:ltr;block-progression:tb;writing-mode:lr-tb;text-anchor:start;baseline-shift:baseline;color:#000000;fill:#ffffff;fill-opacity:1;stroke:none;stroke-width:14.23915291;marker:none;visibility:visible;display:inline;overflow:visible;enable-background:accumulate;font-family:Sans;-inkscape-font-specification:Sans" />
        </g>
      </g>
      <rect
         y="16.503397"
         x="-15171.796"
         height="1027.4425"
         width="1023.3555"
         id="rect5661"
         style="fill:none;stroke:none" />
    </g>
  </g>
</svg>
