<?xml version="1.0" encoding="UTF-8" standalone="no"?>
<!-- Created with Inkscape (http://www.inkscape.org/) -->

<svg
   xmlns:dc="http://purl.org/dc/elements/1.1/"
   xmlns:cc="http://creativecommons.org/ns#"
   xmlns:rdf="http://www.w3.org/1999/02/22-rdf-syntax-ns#"
   xmlns:svg="http://www.w3.org/2000/svg"
   xmlns="http://www.w3.org/2000/svg"
   xmlns:xlink="http://www.w3.org/1999/xlink"
   xmlns:sodipodi="http://sodipodi.sourceforge.net/DTD/sodipodi-0.dtd"
   xmlns:inkscape="http://www.inkscape.org/namespaces/inkscape"
   width="1351.74"
   height="1351.7388"
   id="svg2"
   version="1.1"
   inkscape:version="0.48.3.1 r9886"
   sodipodi:docname="l.svg">
  <defs
     id="defs4">
    <linearGradient
       id="linearGradient3265-7"
       inkscape:collect="always">
      <stop
         id="stop3267-6"
         offset="0"
         style="stop-color:#a0692f;stop-opacity:1;" />
      <stop
         id="stop3269-0"
         offset="1"
         style="stop-color:#a0692f;stop-opacity:0;" />
    </linearGradient>
    <linearGradient
       inkscape:collect="always"
       xlink:href="#linearGradient3265-7"
       id="linearGradient4849"
       gradientUnits="userSpaceOnUse"
       gradientTransform="matrix(1.9601035,0,0,1.9601035,-1268.7026,1291.2843)"
       x1="1128.5424"
       y1="-358.21252"
       x2="1128.5"
       y2="-350.88782" />
    <linearGradient
       inkscape:collect="always"
       xlink:href="#linearGradient3265-7"
       id="linearGradient4855"
       gradientUnits="userSpaceOnUse"
       gradientTransform="matrix(-1.9601035,0,0,1.9601035,3084.4205,1291.2843)"
       x1="1128.5424"
       y1="-358.21252"
       x2="1128.5"
       y2="-350.88782" />
    <linearGradient
       id="linearGradient3265-7-8"
       inkscape:collect="always">
      <stop
         id="stop3267-6-3"
         offset="0"
         style="stop-color:#a0692f;stop-opacity:1;" />
      <stop
         id="stop3269-0-6"
         offset="1"
         style="stop-color:#a0692f;stop-opacity:0;" />
    </linearGradient>
    <linearGradient
       y2="-435.80673"
       x2="919.21014"
       y1="-434.2847"
       x1="987.61987"
       gradientTransform="matrix(0.64156397,0,0,0.64156397,-240.46334,1048.4872)"
       gradientUnits="userSpaceOnUse"
       id="linearGradient3738"
       xlink:href="#linearGradient4094-1"
       inkscape:collect="always" />
    <linearGradient
       id="linearGradient4094-1">
      <stop
         id="stop4096-9"
         offset="0"
         style="stop-color:#52676c;stop-opacity:1;" />
      <stop
         id="stop4098-2"
         offset="1"
         style="stop-color:#52676c;stop-opacity:0;" />
    </linearGradient>
    <linearGradient
       id="linearGradient3310"
       inkscape:collect="always">
      <stop
         id="stop3312"
         offset="0"
         style="stop-color:#0b2228;stop-opacity:1;" />
      <stop
         id="stop3314"
         offset="1"
         style="stop-color:#0b2228;stop-opacity:0;" />
    </linearGradient>
    <linearGradient
       id="linearGradient4122-9"
       inkscape:collect="always">
      <stop
         id="stop4124-7"
         offset="0"
         style="stop-color:#1c2224;stop-opacity:1;" />
      <stop
         id="stop4126-6"
         offset="1"
         style="stop-color:#1c2224;stop-opacity:0" />
    </linearGradient>
    <linearGradient
       inkscape:collect="always"
       xlink:href="#linearGradient3310"
       id="linearGradient6795"
       gradientUnits="userSpaceOnUse"
       x1="1748.3407"
       y1="-227.81718"
       x2="1759.3722"
       y2="-149.25218" />
    <linearGradient
       inkscape:collect="always"
       xlink:href="#linearGradient4122-9"
       id="linearGradient6814"
       gradientUnits="userSpaceOnUse"
       gradientTransform="matrix(0.76362355,0,0,0.76362355,-529.2141,788.2198)"
       x1="1627.4237"
       y1="-275.98389"
       x2="1568.8258"
       y2="-208.25383" />
    <linearGradient
       inkscape:collect="always"
       id="linearGradient4871">
      <stop
         style="stop-color:#241c1f;stop-opacity:0.37777778"
         offset="0"
         id="stop4873" />
      <stop
         style="stop-color:#241c1f;stop-opacity:0;"
         offset="1"
         id="stop4875" />
    </linearGradient>
    <radialGradient
       inkscape:collect="always"
       xlink:href="#linearGradient4871"
       id="radialGradient4631"
       gradientUnits="userSpaceOnUse"
       gradientTransform="matrix(1.6682146,1.6471163,-0.88417937,0.89550496,-1046.6412,-1706.4218)"
       cx="1014.4006"
       cy="-408.6366"
       fx="1014.4006"
       fy="-408.6366"
       r="120.84957" />
    <linearGradient
       y2="-341.95212"
       x2="1033.103"
       y1="-312.79977"
       x1="1033.9359"
       gradientUnits="userSpaceOnUse"
       id="linearGradient4392"
       xlink:href="#linearGradient3219"
       inkscape:collect="always" />
    <linearGradient
       y2="-341.95212"
       x2="1033.103"
       y1="-312.79977"
       x1="1033.9359"
       gradientUnits="userSpaceOnUse"
       id="linearGradient4390"
       xlink:href="#linearGradient3209"
       inkscape:collect="always" />
    <linearGradient
       inkscape:collect="always"
       id="linearGradient3219">
      <stop
         style="stop-color:#3e4837;stop-opacity:1"
         offset="0"
         id="stop3221" />
      <stop
         style="stop-color:#e5ffd5;stop-opacity:0;"
         offset="1"
         id="stop3223" />
    </linearGradient>
    <linearGradient
       id="linearGradient3209"
       inkscape:collect="always">
      <stop
         id="stop3211"
         offset="0"
         style="stop-color:#3e4837;stop-opacity:1" />
      <stop
         id="stop3213"
         offset="1"
         style="stop-color:#e5ffd5;stop-opacity:0;" />
    </linearGradient>
    <linearGradient
       y2="-299.90375"
       x2="1731.0365"
       y1="-347.02103"
       x1="1621.358"
       gradientTransform="matrix(1.3519879,0,0,1.3519879,-2458.2999,1401.0995)"
       gradientUnits="userSpaceOnUse"
       id="linearGradient4525"
       xlink:href="#linearGradient4136"
       inkscape:collect="always" />
    <linearGradient
       id="linearGradient4136"
       inkscape:collect="always">
      <stop
         id="stop4138"
         offset="0"
         style="stop-color:#000000;stop-opacity:1" />
      <stop
         id="stop4140"
         offset="1"
         style="stop-color:#2b1100;stop-opacity:0;" />
    </linearGradient>
    <linearGradient
       id="linearGradient3449"
       inkscape:collect="always">
      <stop
         id="stop3451"
         offset="0"
         style="stop-color:#000000;stop-opacity:1;" />
      <stop
         id="stop3453"
         offset="1"
         style="stop-color:#000000;stop-opacity:0;" />
    </linearGradient>
    <linearGradient
       id="linearGradient4233"
       inkscape:collect="always">
      <stop
         id="stop4235"
         offset="0"
         style="stop-color:#000000;stop-opacity:1;" />
      <stop
         id="stop4237"
         offset="1"
         style="stop-color:#000000;stop-opacity:0;" />
    </linearGradient>
    <linearGradient
       id="linearGradient4283"
       inkscape:collect="always">
      <stop
         id="stop4285"
         offset="0"
         style="stop-color:#2b1100;stop-opacity:1;" />
      <stop
         id="stop4287"
         offset="1"
         style="stop-color:#2b1100;stop-opacity:0;" />
    </linearGradient>
    <linearGradient
       inkscape:collect="always"
       xlink:href="#linearGradient4283"
       id="linearGradient6031"
       gradientUnits="userSpaceOnUse"
       gradientTransform="translate(-2538.9898,1459.867)"
       x1="503.56857"
       y1="-348.85837"
       x2="512.40308"
       y2="-335.29108" />
    <linearGradient
       inkscape:collect="always"
       xlink:href="#linearGradient3449"
       id="linearGradient6033"
       gradientUnits="userSpaceOnUse"
       gradientTransform="translate(-2538.9898,1459.867)"
       x1="535.43597"
       y1="-304.05469"
       x2="522.1842"
       y2="-302.79257" />
    <linearGradient
       inkscape:collect="always"
       xlink:href="#linearGradient4233"
       id="linearGradient6035"
       gradientUnits="userSpaceOnUse"
       gradientTransform="translate(-2538.9898,1459.867)"
       x1="492.84091"
       y1="-285.43903"
       x2="581.34399"
       y2="-291.27615" />
    <linearGradient
       id="linearGradient4817"
       inkscape:collect="always">
      <stop
         id="stop4819"
         offset="0"
         style="stop-color:#917c6f;stop-opacity:1;" />
      <stop
         id="stop4821"
         offset="1"
         style="stop-color:#2b1100;stop-opacity:1" />
    </linearGradient>
    <linearGradient
       inkscape:collect="always"
       id="linearGradient5172">
      <stop
         style="stop-color:#502d16;stop-opacity:1;"
         offset="0"
         id="stop5174" />
      <stop
         style="stop-color:#917c6f;stop-opacity:1"
         offset="1"
         id="stop5176" />
    </linearGradient>
    <linearGradient
       id="linearGradient5181">
      <stop
         id="stop5183"
         offset="0"
         style="stop-color:#907b6e;stop-opacity:1" />
      <stop
         style="stop-color:#7a6356;stop-opacity:1;"
         offset="0.75249761"
         id="stop5191" />
      <stop
         style="stop-color:#644c3e;stop-opacity:1;"
         offset="0.812451"
         id="stop5189" />
      <stop
         id="stop5185"
         offset="1"
         style="stop-color:#381e0e;stop-opacity:1" />
    </linearGradient>
    <linearGradient
       inkscape:collect="always"
       id="linearGradient5193">
      <stop
         style="stop-color:#826c5f;stop-opacity:1"
         offset="0"
         id="stop5195" />
      <stop
         style="stop-color:#502d16;stop-opacity:1"
         offset="1"
         id="stop5197" />
    </linearGradient>
    <linearGradient
       inkscape:collect="always"
       xlink:href="#linearGradient4817"
       id="linearGradient5870"
       gradientUnits="userSpaceOnUse"
       gradientTransform="matrix(0.89679722,0,0,0.89679722,-2045.7805,1424)"
       x1="660.06604"
       y1="-501.25412"
       x2="616.52441"
       y2="-327.7186" />
    <linearGradient
       inkscape:collect="always"
       xlink:href="#linearGradient5181"
       id="linearGradient5872"
       gradientUnits="userSpaceOnUse"
       gradientTransform="translate(-1159.9752,1449.158)"
       x1="-276.65112"
       y1="-462.97198"
       x2="-282.89807"
       y2="-279.57907" />
    <linearGradient
       inkscape:collect="always"
       xlink:href="#linearGradient5172"
       id="linearGradient5874"
       gradientUnits="userSpaceOnUse"
       gradientTransform="matrix(0.89679722,0,0,0.89679722,-2045.7805,1424)"
       x1="533.96741"
       y1="-432.47049"
       x2="555.86011"
       y2="-240.41187" />
    <linearGradient
       inkscape:collect="always"
       xlink:href="#linearGradient4817"
       id="linearGradient5876"
       gradientUnits="userSpaceOnUse"
       gradientTransform="matrix(0.82173933,0,0,0.82173933,-2014.5348,1366.3891)"
       x1="626.62103"
       y1="-258.30438"
       x2="602.01056"
       y2="-402.81216" />
    <linearGradient
       inkscape:collect="always"
       xlink:href="#linearGradient5193"
       id="linearGradient5878"
       gradientUnits="userSpaceOnUse"
       gradientTransform="matrix(0.89679722,0,0,0.89679722,-2020.1702,1428.0016)"
       x1="564.45752"
       y1="-396.48645"
       x2="567.13477"
       y2="-318.39944" />
    <linearGradient
       id="linearGradient3338"
       inkscape:collect="always">
      <stop
         id="stop3340"
         offset="0"
         style="stop-color:#beb7c8;stop-opacity:1;" />
      <stop
         id="stop3342"
         offset="1"
         style="stop-color:#5d536c;stop-opacity:1" />
    </linearGradient>
    <linearGradient
       inkscape:collect="always"
       id="linearGradient3360">
      <stop
         style="stop-color:#474052;stop-opacity:1"
         offset="0"
         id="stop3362" />
      <stop
         style="stop-color:#5d536c;stop-opacity:1"
         offset="1"
         id="stop3364" />
    </linearGradient>
    <linearGradient
       inkscape:collect="always"
       id="linearGradient3380">
      <stop
         style="stop-color:#857c92;stop-opacity:1"
         offset="0"
         id="stop3382" />
      <stop
         style="stop-color:#5d536c;stop-opacity:1"
         offset="1"
         id="stop3384" />
    </linearGradient>
    <linearGradient
       id="linearGradient3394"
       inkscape:collect="always">
      <stop
         id="stop3396"
         offset="0"
         style="stop-color:#675d76;stop-opacity:1" />
      <stop
         id="stop3398"
         offset="1"
         style="stop-color:#5d536c;stop-opacity:1" />
    </linearGradient>
    <linearGradient
       inkscape:collect="always"
       xlink:href="#linearGradient3394"
       id="linearGradient5534"
       gradientUnits="userSpaceOnUse"
       gradientTransform="translate(-1035.7984,1460.497)"
       x1="548.9787"
       y1="-310.0397"
       x2="511.74536"
       y2="-309.25769" />
    <linearGradient
       inkscape:collect="always"
       xlink:href="#linearGradient3380"
       id="linearGradient5539"
       gradientUnits="userSpaceOnUse"
       gradientTransform="translate(-1104.5149,1460.497)"
       x1="549.00745"
       y1="-310.31183"
       x2="511.80453"
       y2="-309.47519" />
    <radialGradient
       inkscape:collect="always"
       xlink:href="#linearGradient3338"
       id="radialGradient5551"
       gradientUnits="userSpaceOnUse"
       gradientTransform="matrix(0.51554821,-0.84568081,1.1288979,0.68820444,-643.46887,1694.073)"
       cx="423.07739"
       cy="-187.4471"
       fx="423.07739"
       fy="-187.4471"
       r="166.84651" />
    <linearGradient
       inkscape:collect="always"
       xlink:href="#linearGradient3360"
       id="linearGradient5555"
       gradientUnits="userSpaceOnUse"
       gradientTransform="translate(-1124.2237,1458.7504)"
       x1="452.13895"
       y1="-403.7587"
       x2="425.63535"
       y2="-424.26743" />
    <linearGradient
       inkscape:collect="always"
       xlink:href="#linearGradient3360"
       id="linearGradient5558"
       gradientUnits="userSpaceOnUse"
       gradientTransform="translate(-1124.2237,1458.7504)"
       x1="452.13895"
       y1="-403.7587"
       x2="425.63535"
       y2="-424.26743" />
    <linearGradient
       id="linearGradient4274">
      <stop
         id="stop4276"
         offset="0"
         style="stop-color:#241c1c;stop-opacity:1" />
      <stop
         style="stop-color:#483737;stop-opacity:1;"
         offset="0.15879123"
         id="stop4286" />
      <stop
         style="stop-color:#544141;stop-opacity:1"
         offset="0.50204235"
         id="stop4282" />
      <stop
         id="stop4284"
         offset="0.75"
         style="stop-color:#483737;stop-opacity:1;" />
      <stop
         id="stop4278"
         offset="1"
         style="stop-color:#241c1c;stop-opacity:1" />
    </linearGradient>
    <linearGradient
       id="linearGradient4300"
       inkscape:collect="always">
      <stop
         id="stop4302"
         offset="0"
         style="stop-color:#513f3f;stop-opacity:1" />
      <stop
         id="stop4304"
         offset="1"
         style="stop-color:#916f6f;stop-opacity:1" />
    </linearGradient>
    <linearGradient
       id="linearGradient4338"
       inkscape:collect="always">
      <stop
         id="stop4340"
         offset="0"
         style="stop-color:#5a4545;stop-opacity:1" />
      <stop
         id="stop4342"
         offset="1"
         style="stop-color:#6c5353;stop-opacity:1" />
    </linearGradient>
    <linearGradient
       inkscape:collect="always"
       xlink:href="#linearGradient4338"
       id="linearGradient5824"
       gradientUnits="userSpaceOnUse"
       gradientTransform="matrix(1.1870923,0,0,1.1870923,557.10763,972.51967)"
       x1="506.36237"
       y1="-254.24303"
       x2="505.8338"
       y2="-219.35794" />
    <linearGradient
       inkscape:collect="always"
       xlink:href="#linearGradient4300"
       id="linearGradient5826"
       gradientUnits="userSpaceOnUse"
       gradientTransform="matrix(0.83444929,0,0,0.83444929,695.02334,866.91126)"
       x1="521.0072"
       y1="-422.45435"
       x2="521.0072"
       y2="-338.73444" />
    <linearGradient
       inkscape:collect="always"
       xlink:href="#linearGradient4274"
       id="linearGradient5828"
       gradientUnits="userSpaceOnUse"
       gradientTransform="matrix(0.83444929,0,0,0.83444929,741.18088,866.91126)"
       x1="536.79242"
       y1="-366.81332"
       x2="556.42566"
       y2="-324.86945" />
    <linearGradient
       y2="-301.63974"
       x2="535.34979"
       y1="-301.92004"
       x1="538.38654"
       gradientTransform="translate(-25.414983,34.384977)"
       gradientUnits="userSpaceOnUse"
       id="linearGradient5544"
       xlink:href="#linearGradient3146"
       inkscape:collect="always" />
    <filter
       height="1.0499389"
       y="-0.024969444"
       width="1.3299154"
       x="-0.16495769"
       id="filter3938"
       inkscape:collect="always"
       color-interpolation-filters="sRGB">
      <feGaussianBlur
         id="feGaussianBlur3940"
         stdDeviation="0.60368467"
         inkscape:collect="always" />
    </filter>
    <linearGradient
       id="linearGradient3146"
       inkscape:collect="always">
      <stop
         id="stop3148"
         offset="0"
         style="stop-color:#1c1c24;stop-opacity:1;" />
      <stop
         id="stop3150"
         offset="1"
         style="stop-color:#1c1c24;stop-opacity:0;" />
    </linearGradient>
    <linearGradient
       y2="-254.24301"
       x2="132.40479"
       y1="-254.24301"
       x1="159.62572"
       gradientTransform="translate(-47.042016,6.3427437)"
       gradientUnits="userSpaceOnUse"
       id="linearGradient4078"
       xlink:href="#linearGradient3139"
       inkscape:collect="always" />
    <linearGradient
       y2="-408.62561"
       x2="159.96489"
       y1="-417.59561"
       x1="192.85487"
       gradientTransform="translate(-63.427437,6.3427437)"
       gradientUnits="userSpaceOnUse"
       id="linearGradient4076"
       xlink:href="#linearGradient3117"
       inkscape:collect="always" />
    <linearGradient
       y2="-408.62561"
       x2="159.96489"
       y1="-417.59561"
       x1="192.85487"
       gradientTransform="matrix(1.6191115,1.2420631,-1.2420631,1.6191115,-653.89128,220.57021)"
       gradientUnits="userSpaceOnUse"
       id="linearGradient4074"
       xlink:href="#linearGradient3117"
       inkscape:collect="always" />
    <filter
       height="1.1221315"
       y="-0.061065737"
       width="1.2091677"
       x="-0.10458386"
       id="filter3915"
       inkscape:collect="always"
       color-interpolation-filters="sRGB">
      <feGaussianBlur
         id="feGaussianBlur3917"
         stdDeviation="2.0038655"
         inkscape:collect="always" />
    </filter>
    <linearGradient
       id="linearGradient3117"
       inkscape:collect="always">
      <stop
         id="stop3119"
         offset="0"
         style="stop-color:#aa4400;stop-opacity:1;" />
      <stop
         id="stop3121"
         offset="1"
         style="stop-color:#783000;stop-opacity:1" />
    </linearGradient>
    <linearGradient
       id="linearGradient3139"
       inkscape:collect="always">
      <stop
         id="stop3141"
         offset="0"
         style="stop-color:#2b1100;stop-opacity:1;" />
      <stop
         id="stop3143"
         offset="1"
         style="stop-color:#2b1100;stop-opacity:0;" />
    </linearGradient>
    <filter
       height="1.4686061"
       y="-0.23430306"
       width="1.4207194"
       x="-0.21035969"
       id="filter3967"
       inkscape:collect="always"
       color-interpolation-filters="sRGB">
      <feGaussianBlur
         id="feGaussianBlur3969"
         stdDeviation="5.8948044"
         inkscape:collect="always" />
    </filter>
    <linearGradient
       id="linearGradient3911"
       inkscape:collect="always">
      <stop
         id="stop3913"
         offset="0"
         style="stop-color:#241c1c;stop-opacity:1" />
      <stop
         id="stop3915"
         offset="1"
         style="stop-color:#784421;stop-opacity:0;" />
    </linearGradient>
    <linearGradient
       id="linearGradient3971"
       inkscape:collect="always">
      <stop
         id="stop3973"
         offset="0"
         style="stop-color:#917c6f;stop-opacity:1;" />
      <stop
         id="stop3975"
         offset="1"
         style="stop-color:#28170b;stop-opacity:1" />
    </linearGradient>
    <linearGradient
       inkscape:collect="always"
       xlink:href="#linearGradient3911"
       id="linearGradient3762"
       gradientUnits="userSpaceOnUse"
       gradientTransform="translate(0,-16.661873)"
       x1="519.29504"
       y1="-260.8017"
       x2="508.18713"
       y2="-300.37363" />
    <linearGradient
       inkscape:collect="always"
       xlink:href="#linearGradient3971"
       id="linearGradient3786"
       gradientUnits="userSpaceOnUse"
       gradientTransform="matrix(0.9140942,0,0,0.9140942,290.747,786.33643)"
       x1="441.53964"
       y1="-273.2981"
       x2="511.65836"
       y2="-286.14163" />
    <linearGradient
       id="linearGradient3578"
       inkscape:collect="always">
      <stop
         id="stop3580"
         offset="0"
         style="stop-color:#1f1c24;stop-opacity:1;" />
      <stop
         id="stop3582"
         offset="1"
         style="stop-color:#1f1c24;stop-opacity:0;" />
    </linearGradient>
    <linearGradient
       id="linearGradient3604"
       inkscape:collect="always">
      <stop
         id="stop3606"
         offset="0"
         style="stop-color:#211e26;stop-opacity:1;" />
      <stop
         id="stop3608"
         offset="1"
         style="stop-color:#211e26;stop-opacity:0;" />
    </linearGradient>
    <linearGradient
       inkscape:collect="always"
       xlink:href="#linearGradient3578"
       id="linearGradient3958"
       gradientUnits="userSpaceOnUse"
       gradientTransform="matrix(1.1100531,0,0,1.1100531,2863.0486,903.46763)"
       x1="-1887.6512"
       y1="-315.29987"
       x2="-1887.4778"
       y2="-254.37988" />
    <linearGradient
       inkscape:collect="always"
       xlink:href="#linearGradient3604"
       id="linearGradient3967"
       gradientUnits="userSpaceOnUse"
       gradientTransform="matrix(1.1100531,0,0,1.1100531,2931.5428,903.46763)"
       x1="-1801.6218"
       y1="-327.32669"
       x2="-1798.4309"
       y2="-249.51823" />
    <linearGradient
       inkscape:collect="always"
       xlink:href="#linearGradient3265-7-8"
       id="linearGradient6694"
       gradientUnits="userSpaceOnUse"
       gradientTransform="matrix(-1.9601035,0,0,1.9601035,3084.4205,1291.2843)"
       x1="1128.5424"
       y1="-358.21252"
       x2="1128.5"
       y2="-350.88782" />
    <linearGradient
       inkscape:collect="always"
       xlink:href="#linearGradient3265-7-8"
       id="linearGradient6696"
       gradientUnits="userSpaceOnUse"
       gradientTransform="matrix(1.9601035,0,0,1.9601035,-1268.7026,1291.2843)"
       x1="1128.5424"
       y1="-358.21252"
       x2="1128.5"
       y2="-350.88782" />
    <linearGradient
       inkscape:collect="always"
       xlink:href="#linearGradient3265-7-8"
       id="linearGradient9421"
       gradientUnits="userSpaceOnUse"
       gradientTransform="matrix(-1.9601035,0,0,1.9601035,3084.4205,1291.2843)"
       x1="1128.5424"
       y1="-358.21252"
       x2="1128.5"
       y2="-350.88782" />
    <linearGradient
       inkscape:collect="always"
       xlink:href="#linearGradient3265-7-8"
       id="linearGradient9423"
       gradientUnits="userSpaceOnUse"
       gradientTransform="matrix(1.9601035,0,0,1.9601035,-1268.7026,1291.2843)"
       x1="1128.5424"
       y1="-358.21252"
       x2="1128.5"
       y2="-350.88782" />
    <linearGradient
       inkscape:collect="always"
       xlink:href="#linearGradient4094-1"
       id="linearGradient9425"
       gradientUnits="userSpaceOnUse"
       gradientTransform="matrix(0.64156397,0,0,0.64156397,-240.46334,1048.4872)"
       x1="987.61987"
       y1="-434.2847"
       x2="919.21014"
       y2="-435.80673" />
    <linearGradient
       inkscape:collect="always"
       xlink:href="#linearGradient4122-9"
       id="linearGradient9427"
       gradientUnits="userSpaceOnUse"
       gradientTransform="matrix(0.76362355,0,0,0.76362355,-529.2141,788.2198)"
       x1="1627.4237"
       y1="-275.98389"
       x2="1568.8258"
       y2="-208.25383" />
    <linearGradient
       inkscape:collect="always"
       xlink:href="#linearGradient3310"
       id="linearGradient9429"
       gradientUnits="userSpaceOnUse"
       x1="1748.3407"
       y1="-227.81718"
       x2="1759.3722"
       y2="-149.25218" />
    <radialGradient
       inkscape:collect="always"
       xlink:href="#linearGradient4871"
       id="radialGradient9431"
       gradientUnits="userSpaceOnUse"
       gradientTransform="matrix(1.6682146,1.6471163,-0.88417937,0.89550496,-1046.6412,-1706.4218)"
       cx="1014.4006"
       cy="-408.6366"
       fx="1014.4006"
       fy="-408.6366"
       r="120.84957" />
    <linearGradient
       inkscape:collect="always"
       xlink:href="#linearGradient3209"
       id="linearGradient9433"
       gradientUnits="userSpaceOnUse"
       x1="1033.9359"
       y1="-312.79977"
       x2="1033.103"
       y2="-341.95212" />
    <linearGradient
       inkscape:collect="always"
       xlink:href="#linearGradient3219"
       id="linearGradient9435"
       gradientUnits="userSpaceOnUse"
       x1="1033.9359"
       y1="-312.79977"
       x2="1033.103"
       y2="-341.95212" />
    <linearGradient
       inkscape:collect="always"
       xlink:href="#linearGradient4136"
       id="linearGradient9437"
       gradientUnits="userSpaceOnUse"
       gradientTransform="matrix(1.3519879,0,0,1.3519879,-2458.2999,1401.0995)"
       x1="1621.358"
       y1="-347.02103"
       x2="1731.0365"
       y2="-299.90375" />
    <linearGradient
       inkscape:collect="always"
       xlink:href="#linearGradient4283"
       id="linearGradient9439"
       gradientUnits="userSpaceOnUse"
       gradientTransform="translate(-2538.9898,1459.867)"
       x1="503.56857"
       y1="-348.85837"
       x2="512.40308"
       y2="-335.29108" />
    <linearGradient
       inkscape:collect="always"
       xlink:href="#linearGradient3449"
       id="linearGradient9441"
       gradientUnits="userSpaceOnUse"
       gradientTransform="translate(-2538.9898,1459.867)"
       x1="535.43597"
       y1="-304.05469"
       x2="522.1842"
       y2="-302.79257" />
    <linearGradient
       inkscape:collect="always"
       xlink:href="#linearGradient4233"
       id="linearGradient9443"
       gradientUnits="userSpaceOnUse"
       gradientTransform="translate(-2538.9898,1459.867)"
       x1="492.84091"
       y1="-285.43903"
       x2="581.34399"
       y2="-291.27615" />
    <linearGradient
       inkscape:collect="always"
       xlink:href="#linearGradient4817"
       id="linearGradient9445"
       gradientUnits="userSpaceOnUse"
       gradientTransform="matrix(0.89679722,0,0,0.89679722,-2045.7805,1424)"
       x1="660.06604"
       y1="-501.25412"
       x2="616.52441"
       y2="-327.7186" />
    <linearGradient
       inkscape:collect="always"
       xlink:href="#linearGradient5181"
       id="linearGradient9447"
       gradientUnits="userSpaceOnUse"
       gradientTransform="translate(-1159.9752,1449.158)"
       x1="-276.65112"
       y1="-462.97198"
       x2="-282.89807"
       y2="-279.57907" />
    <linearGradient
       inkscape:collect="always"
       xlink:href="#linearGradient5172"
       id="linearGradient9449"
       gradientUnits="userSpaceOnUse"
       gradientTransform="matrix(0.89679722,0,0,0.89679722,-2045.7805,1424)"
       x1="533.96741"
       y1="-432.47049"
       x2="555.86011"
       y2="-240.41187" />
    <linearGradient
       inkscape:collect="always"
       xlink:href="#linearGradient4817"
       id="linearGradient9451"
       gradientUnits="userSpaceOnUse"
       gradientTransform="matrix(0.82173933,0,0,0.82173933,-2014.5348,1366.3891)"
       x1="626.62103"
       y1="-258.30438"
       x2="602.01056"
       y2="-402.81216" />
    <linearGradient
       inkscape:collect="always"
       xlink:href="#linearGradient5193"
       id="linearGradient9453"
       gradientUnits="userSpaceOnUse"
       gradientTransform="matrix(0.89679722,0,0,0.89679722,-2020.1702,1428.0016)"
       x1="564.45752"
       y1="-396.48645"
       x2="567.13477"
       y2="-318.39944" />
    <linearGradient
       inkscape:collect="always"
       xlink:href="#linearGradient3360"
       id="linearGradient9455"
       gradientUnits="userSpaceOnUse"
       gradientTransform="translate(-1124.2237,1458.7504)"
       x1="452.13895"
       y1="-403.7587"
       x2="425.63535"
       y2="-424.26743" />
    <linearGradient
       inkscape:collect="always"
       xlink:href="#linearGradient3360"
       id="linearGradient9457"
       gradientUnits="userSpaceOnUse"
       gradientTransform="translate(-1124.2237,1458.7504)"
       x1="452.13895"
       y1="-403.7587"
       x2="425.63535"
       y2="-424.26743" />
    <radialGradient
       inkscape:collect="always"
       xlink:href="#linearGradient3338"
       id="radialGradient9459"
       gradientUnits="userSpaceOnUse"
       gradientTransform="matrix(0.51554821,-0.84568081,1.1288979,0.68820444,-643.46887,1694.073)"
       cx="423.07739"
       cy="-187.4471"
       fx="423.07739"
       fy="-187.4471"
       r="166.84651" />
    <linearGradient
       inkscape:collect="always"
       xlink:href="#linearGradient3380"
       id="linearGradient9461"
       gradientUnits="userSpaceOnUse"
       gradientTransform="translate(-1104.5149,1460.497)"
       x1="549.00745"
       y1="-310.31183"
       x2="511.80453"
       y2="-309.47519" />
    <linearGradient
       inkscape:collect="always"
       xlink:href="#linearGradient3394"
       id="linearGradient9463"
       gradientUnits="userSpaceOnUse"
       gradientTransform="translate(-1035.7984,1460.497)"
       x1="548.9787"
       y1="-310.0397"
       x2="511.74536"
       y2="-309.25769" />
    <linearGradient
       inkscape:collect="always"
       xlink:href="#linearGradient4338"
       id="linearGradient9465"
       gradientUnits="userSpaceOnUse"
       gradientTransform="matrix(1.1870923,0,0,1.1870923,557.10763,972.51967)"
       x1="506.36237"
       y1="-254.24303"
       x2="505.8338"
       y2="-219.35794" />
    <linearGradient
       inkscape:collect="always"
       xlink:href="#linearGradient4300"
       id="linearGradient9467"
       gradientUnits="userSpaceOnUse"
       gradientTransform="matrix(0.83444929,0,0,0.83444929,695.02334,866.91126)"
       x1="521.0072"
       y1="-422.45435"
       x2="521.0072"
       y2="-338.73444" />
    <linearGradient
       inkscape:collect="always"
       xlink:href="#linearGradient4274"
       id="linearGradient9469"
       gradientUnits="userSpaceOnUse"
       gradientTransform="matrix(0.83444929,0,0,0.83444929,741.18088,866.91126)"
       x1="536.79242"
       y1="-366.81332"
       x2="556.42566"
       y2="-324.86945" />
    <linearGradient
       inkscape:collect="always"
       xlink:href="#linearGradient3146"
       id="linearGradient9471"
       gradientUnits="userSpaceOnUse"
       gradientTransform="translate(-25.414983,34.384977)"
       x1="538.38654"
       y1="-301.92004"
       x2="535.34979"
       y2="-301.63974" />
    <linearGradient
       inkscape:collect="always"
       xlink:href="#linearGradient3117"
       id="linearGradient9473"
       gradientUnits="userSpaceOnUse"
       gradientTransform="matrix(1.6191115,1.2420631,-1.2420631,1.6191115,-653.89128,220.57021)"
       x1="192.85487"
       y1="-417.59561"
       x2="159.96489"
       y2="-408.62561" />
    <linearGradient
       inkscape:collect="always"
       xlink:href="#linearGradient3117"
       id="linearGradient9475"
       gradientUnits="userSpaceOnUse"
       gradientTransform="translate(-63.427437,6.3427437)"
       x1="192.85487"
       y1="-417.59561"
       x2="159.96489"
       y2="-408.62561" />
    <linearGradient
       inkscape:collect="always"
       xlink:href="#linearGradient3139"
       id="linearGradient9477"
       gradientUnits="userSpaceOnUse"
       gradientTransform="translate(-47.042016,6.3427437)"
       x1="159.62572"
       y1="-254.24301"
       x2="132.40479"
       y2="-254.24301" />
    <linearGradient
       inkscape:collect="always"
       xlink:href="#linearGradient3971"
       id="linearGradient9479"
       gradientUnits="userSpaceOnUse"
       gradientTransform="matrix(0.9140942,0,0,0.9140942,290.747,786.33643)"
       x1="441.53964"
       y1="-273.2981"
       x2="511.65836"
       y2="-286.14163" />
    <linearGradient
       inkscape:collect="always"
       xlink:href="#linearGradient3911"
       id="linearGradient9481"
       gradientUnits="userSpaceOnUse"
       gradientTransform="translate(0,-16.661873)"
       x1="519.29504"
       y1="-260.8017"
       x2="508.18713"
       y2="-300.37363" />
    <linearGradient
       inkscape:collect="always"
       xlink:href="#linearGradient3604"
       id="linearGradient9483"
       gradientUnits="userSpaceOnUse"
       gradientTransform="matrix(1.1100531,0,0,1.1100531,2931.5428,903.46763)"
       x1="-1801.6218"
       y1="-327.32669"
       x2="-1798.4309"
       y2="-249.51823" />
    <linearGradient
       inkscape:collect="always"
       xlink:href="#linearGradient3578"
       id="linearGradient9485"
       gradientUnits="userSpaceOnUse"
       gradientTransform="matrix(1.1100531,0,0,1.1100531,2863.0486,903.46763)"
       x1="-1887.6512"
       y1="-315.29987"
       x2="-1887.4778"
       y2="-254.37988" />
    <linearGradient
       inkscape:collect="always"
       xlink:href="#linearGradient4283"
       id="linearGradient10519"
       gradientUnits="userSpaceOnUse"
       gradientTransform="translate(-2538.9898,1459.867)"
       x1="503.56857"
       y1="-348.85837"
       x2="512.40308"
       y2="-335.29108" />
    <linearGradient
       inkscape:collect="always"
       xlink:href="#linearGradient3449"
       id="linearGradient10521"
       gradientUnits="userSpaceOnUse"
       gradientTransform="translate(-2538.9898,1459.867)"
       x1="535.43597"
       y1="-304.05469"
       x2="522.1842"
       y2="-302.79257" />
    <linearGradient
       inkscape:collect="always"
       xlink:href="#linearGradient4233"
       id="linearGradient10523"
       gradientUnits="userSpaceOnUse"
       gradientTransform="translate(-2538.9898,1459.867)"
       x1="492.84091"
       y1="-285.43903"
       x2="581.34399"
       y2="-291.27615" />
    <linearGradient
       inkscape:collect="always"
       xlink:href="#linearGradient4817"
       id="linearGradient10572"
       gradientUnits="userSpaceOnUse"
       gradientTransform="matrix(0.89679722,0,0,0.89679722,-2045.7805,1424)"
       x1="660.06604"
       y1="-501.25412"
       x2="616.52441"
       y2="-327.7186" />
    <linearGradient
       inkscape:collect="always"
       xlink:href="#linearGradient5181"
       id="linearGradient10574"
       gradientUnits="userSpaceOnUse"
       gradientTransform="translate(-1159.9752,1449.158)"
       x1="-276.65112"
       y1="-462.97198"
       x2="-282.89807"
       y2="-279.57907" />
    <linearGradient
       inkscape:collect="always"
       xlink:href="#linearGradient5172"
       id="linearGradient10576"
       gradientUnits="userSpaceOnUse"
       gradientTransform="matrix(0.89679722,0,0,0.89679722,-2045.7805,1424)"
       x1="533.96741"
       y1="-432.47049"
       x2="555.86011"
       y2="-240.41187" />
    <linearGradient
       inkscape:collect="always"
       xlink:href="#linearGradient4817"
       id="linearGradient10578"
       gradientUnits="userSpaceOnUse"
       gradientTransform="matrix(0.82173933,0,0,0.82173933,-2014.5348,1366.3891)"
       x1="626.62103"
       y1="-258.30438"
       x2="602.01056"
       y2="-402.81216" />
    <linearGradient
       inkscape:collect="always"
       xlink:href="#linearGradient5193"
       id="linearGradient10580"
       gradientUnits="userSpaceOnUse"
       gradientTransform="matrix(0.89679722,0,0,0.89679722,-2020.1702,1428.0016)"
       x1="564.45752"
       y1="-396.48645"
       x2="567.13477"
       y2="-318.39944" />
    <linearGradient
       inkscape:collect="always"
       xlink:href="#linearGradient3360"
       id="linearGradient10582"
       gradientUnits="userSpaceOnUse"
       gradientTransform="translate(-1124.2237,1458.7504)"
       x1="452.13895"
       y1="-403.7587"
       x2="425.63535"
       y2="-424.26743" />
    <linearGradient
       inkscape:collect="always"
       xlink:href="#linearGradient3360"
       id="linearGradient10584"
       gradientUnits="userSpaceOnUse"
       gradientTransform="translate(-1124.2237,1458.7504)"
       x1="452.13895"
       y1="-403.7587"
       x2="425.63535"
       y2="-424.26743" />
    <radialGradient
       inkscape:collect="always"
       xlink:href="#linearGradient3338"
       id="radialGradient10586"
       gradientUnits="userSpaceOnUse"
       gradientTransform="matrix(0.51554821,-0.84568081,1.1288979,0.68820444,-643.46887,1694.073)"
       cx="423.07739"
       cy="-187.4471"
       fx="423.07739"
       fy="-187.4471"
       r="166.84651" />
    <linearGradient
       inkscape:collect="always"
       xlink:href="#linearGradient3380"
       id="linearGradient10588"
       gradientUnits="userSpaceOnUse"
       gradientTransform="translate(-1104.5149,1460.497)"
       x1="549.00745"
       y1="-310.31183"
       x2="511.80453"
       y2="-309.47519" />
    <linearGradient
       inkscape:collect="always"
       xlink:href="#linearGradient3394"
       id="linearGradient10590"
       gradientUnits="userSpaceOnUse"
       gradientTransform="translate(-1035.7984,1460.497)"
       x1="548.9787"
       y1="-310.0397"
       x2="511.74536"
       y2="-309.25769" />
    <linearGradient
       inkscape:collect="always"
       xlink:href="#linearGradient4338"
       id="linearGradient10592"
       gradientUnits="userSpaceOnUse"
       gradientTransform="matrix(1.1870923,0,0,1.1870923,557.10763,972.51967)"
       x1="506.36237"
       y1="-254.24303"
       x2="505.8338"
       y2="-219.35794" />
    <linearGradient
       inkscape:collect="always"
       xlink:href="#linearGradient4300"
       id="linearGradient10594"
       gradientUnits="userSpaceOnUse"
       gradientTransform="matrix(0.83444929,0,0,0.83444929,695.02334,866.91126)"
       x1="521.0072"
       y1="-422.45435"
       x2="521.0072"
       y2="-338.73444" />
    <linearGradient
       inkscape:collect="always"
       xlink:href="#linearGradient4274"
       id="linearGradient10596"
       gradientUnits="userSpaceOnUse"
       gradientTransform="matrix(0.83444929,0,0,0.83444929,741.18088,866.91126)"
       x1="536.79242"
       y1="-366.81332"
       x2="556.42566"
       y2="-324.86945" />
    <linearGradient
       inkscape:collect="always"
       xlink:href="#linearGradient3604"
       id="linearGradient10598"
       gradientUnits="userSpaceOnUse"
       gradientTransform="matrix(1.1100531,0,0,1.1100531,2931.5428,903.46763)"
       x1="-1801.6218"
       y1="-327.32669"
       x2="-1798.4309"
       y2="-249.51823" />
    <linearGradient
       inkscape:collect="always"
       xlink:href="#linearGradient3578"
       id="linearGradient10600"
       gradientUnits="userSpaceOnUse"
       gradientTransform="matrix(1.1100531,0,0,1.1100531,2863.0486,903.46763)"
       x1="-1887.6512"
       y1="-315.29987"
       x2="-1887.4778"
       y2="-254.37988" />
    <linearGradient
       inkscape:collect="always"
       xlink:href="#linearGradient3971"
       id="linearGradient10602"
       gradientUnits="userSpaceOnUse"
       gradientTransform="matrix(0.9140942,0,0,0.9140942,290.747,786.33643)"
       x1="441.53964"
       y1="-273.2981"
       x2="511.65836"
       y2="-286.14163" />
    <linearGradient
       inkscape:collect="always"
       xlink:href="#linearGradient3911"
       id="linearGradient10604"
       gradientUnits="userSpaceOnUse"
       gradientTransform="translate(0,-16.661873)"
       x1="519.29504"
       y1="-260.8017"
       x2="508.18713"
       y2="-300.37363" />
    <linearGradient
       inkscape:collect="always"
       xlink:href="#linearGradient3117"
       id="linearGradient10606"
       gradientUnits="userSpaceOnUse"
       gradientTransform="matrix(1.6191115,1.2420631,-1.2420631,1.6191115,-653.89128,220.57021)"
       x1="192.85487"
       y1="-417.59561"
       x2="159.96489"
       y2="-408.62561" />
    <linearGradient
       inkscape:collect="always"
       xlink:href="#linearGradient3117"
       id="linearGradient10608"
       gradientUnits="userSpaceOnUse"
       gradientTransform="translate(-63.427437,6.3427437)"
       x1="192.85487"
       y1="-417.59561"
       x2="159.96489"
       y2="-408.62561" />
    <linearGradient
       inkscape:collect="always"
       xlink:href="#linearGradient3139"
       id="linearGradient10610"
       gradientUnits="userSpaceOnUse"
       gradientTransform="translate(-47.042016,6.3427437)"
       x1="159.62572"
       y1="-254.24301"
       x2="132.40479"
       y2="-254.24301" />
    <linearGradient
       inkscape:collect="always"
       xlink:href="#linearGradient3146"
       id="linearGradient10612"
       gradientUnits="userSpaceOnUse"
       gradientTransform="translate(-25.414983,34.384977)"
       x1="538.38654"
       y1="-301.92004"
       x2="535.34979"
       y2="-301.63974" />
  </defs>
  <sodipodi:namedview
     id="base"
     pagecolor="#ffffff"
     bordercolor="#666666"
     borderopacity="1.0"
     inkscape:pageopacity="0.0"
     inkscape:pageshadow="2"
     inkscape:zoom="0.072646391"
     inkscape:cx="6579.0174"
     inkscape:cy="2184.3811"
     inkscape:document-units="px"
     inkscape:current-layer="layer1"
     showgrid="false"
     fit-margin-top="0"
     fit-margin-left="0"
     fit-margin-right="0"
     fit-margin-bottom="0"
     inkscape:window-width="1920"
     inkscape:window-height="1017"
     inkscape:window-x="0"
     inkscape:window-y="28"
     inkscape:window-maximized="1"
     showguides="true"
     inkscape:guide-bbox="true"
     inkscape:snap-grids="false"
     inkscape:snap-to-guides="false">
    <sodipodi:guide
       orientation="0,1"
       position="371.87981,1115.6394"
       id="guide6622" />
    <sodipodi:guide
       orientation="0,1"
       position="73.848474,189.89608"
       id="guide6624" />
    <sodipodi:guide
       orientation="1,0"
       position="363.96748,1521.806"
       id="guide6626" />
    <sodipodi:guide
       orientation="1,0"
       position="862.44468,1442.6827"
       id="guide6628" />
  </sodipodi:namedview>
  <metadata
     id="metadata7">
    <rdf:RDF>
      <cc:Work
         rdf:about="">
        <dc:format>image/svg+xml</dc:format>
        <dc:type
           rdf:resource="http://purl.org/dc/dcmitype/StillImage" />
        <dc:title></dc:title>
      </cc:Work>
    </rdf:RDF>
  </metadata>
  <g
     inkscape:label="Capa 1"
     inkscape:groupmode="layer"
     id="layer1"
     transform="translate(15278.44,186.36436)">
    <rect
       style="opacity:0.8;fill:#000000;fill-opacity:1;stroke:none"
       id="rect6564"
       width="23217.738"
       height="1351.7388"
       x="-15278.44"
       y="-186.36436" />
    <g
       id="g7317">
      <g
         transform="translate(-5913.0604,17.435188)"
         id="g8168">
        <g
           style="font-size:204.73330688px;font-style:normal;font-variant:normal;font-weight:normal;font-stretch:normal;line-height:125%;letter-spacing:0px;word-spacing:0px;fill:#ffffff;fill-opacity:1;stroke:none;font-family:Short Stack;-inkscape-font-specification:Short Stack"
           id="text3044-9">
          <path
             inkscape:connector-curvature="0"
             d="m -8936.2159,540.61259 c 0,-1.53282 0.1666,-3.09897 0.4998,-4.69847 0.3333,-1.59946 0.4999,-3.13229 0.4999,-4.5985 0,-14.59521 0.067,-26.89119 0.1999,-36.88799 0.1333,-10.06331 0.2666,-18.42725 0.3999,-25.09182 0.1999,-6.6644 0.3665,-11.96267 0.4998,-15.89483 0.1333,-3.99858 0.1999,-7.23086 0.2,-9.69684 -10e-5,-2.9989 0.2665,-5.86463 0.7997,-8.5972 0.5998,-2.73231 1.3995,-5.13153 2.3992,-7.19765 0.9997,-2.13251 2.1993,-3.79863 3.5988,-4.99837 1.3996,-1.26612 2.9657,-1.89925 4.6985,-1.89938 1.4662,1.3e-4 2.7324,0.36668 3.7988,1.09964 1.0663,0.66658 1.966,1.53297 2.6991,2.59915 0.7331,1.06645 1.2662,2.26606 1.5995,3.59883 0.3998,1.33303 0.5997,2.6326 0.5998,3.89873 l 0,0.49984 c 0.2665,0.8665 0.4998,1.93282 0.6998,3.19895 0.1998,1.33302 0.7997,3.29905 1.7994,5.89808 1.0662,2.53262 2.3658,5.39835 3.8987,8.5972 1.5328,3.19906 3.1989,6.56463 4.9984,10.09671 1.866,3.53228 3.6654,6.96449 5.3982,10.29665 1.7327,3.33233 3.3322,6.398 4.7985,9.197 1.5327,2.79917 2.7323,5.06509 3.5988,6.79779 0.5331,1.13303 1.1995,2.5659 1.9993,4.2986 0.8663,1.66619 1.766,3.43228 2.6991,5.29827 0.933,1.86612 1.866,3.73218 2.7991,5.59818 0.9996,1.86611 1.8993,3.53223 2.6992,4.99837 0.7996,1.46624 1.4661,2.66585 1.9993,3.59883 0.5997,0.93307 0.9996,1.39959 1.1996,1.39954 0.6664,5e-5 1.4328,-0.29985 2.2993,-0.89971 0.8663,-0.6664 1.6993,-1.43281 2.4992,-2.29925 0.8663,-0.86633 1.5993,-1.69939 2.1992,-2.49918 0.6664,-0.79969 1.1329,-1.39949 1.3996,-1.79942 0.5331,-0.86633 1.1662,-1.83268 1.8994,-2.89905 0.733,-1.13291 1.5993,-2.49913 2.5991,-4.09867 1.0662,-1.66606 2.2992,-3.63208 3.6988,-5.89808 1.3995,-2.3325 3.0989,-5.16491 5.0983,-8.49723 2.0659,-3.46546 4.3652,-7.16425 6.8978,-11.09638 2.599,-3.93196 5.1982,-7.89734 7.7975,-11.89613 2.599,-4.06524 5.0649,-8.06393 7.3976,-11.99609 2.399,-3.93194 4.3984,-7.59741 5.998,-10.99642 0.533,-1.19948 1.0662,-2.49906 1.5995,-3.89873 0.533,-1.39942 1.1661,-2.76564 1.8994,-4.09866 0.3997,-1.13284 0.8329,-2.19915 1.2995,-3.19896 0.5331,-1.06619 1.1329,-1.96589 1.7994,-2.69912 0.733,-0.7996 1.5327,-1.43273 2.3993,-1.89938 0.9329,-0.46638 2.0325,-0.69964 3.2989,-0.69977 3.3987,1.3e-4 6.0645,0.99981 7.9974,2.99902 1.9992,1.93284 2.9989,4.59863 2.999,7.99739 -10e-5,20.06024 -0.3334,40.42026 -0.9997,61.08011 -0.5999,20.65998 -0.8998,41.51983 -0.8997,62.57961 -10e-5,1.3329 -0.3333,2.39922 -0.9996,3.19896 -0.6,0.86638 -1.3331,1.53283 -2.1993,1.99935 -0.7999,0.46651 -1.5997,0.79973 -2.3992,0.99967 -0.7999,0.19993 -1.3997,0.2999 -1.7995,0.2999 -0.2,0 -1.0331,-0.16661 -2.4991,-0.49983 -1.3997,-0.26659 -2.9659,-0.79974 -4.6985,-1.59948 -1.6663,-0.79974 -3.1991,-1.89938 -4.5985,-3.29893 -1.333,-1.46618 -1.9995,-3.36556 -1.9994,-5.69814 -1e-4,-1.59947 0.1998,-3.23227 0.5998,-4.89841 0.3998,-1.73275 0.833,-3.43219 1.2996,-5.09833 0.533,-1.66611 1.0329,-3.29891 1.4995,-4.89841 0.4664,-1.6661 0.7663,-3.2989 0.8997,-4.8984 l 0,-50.38359 c -1e-4,-2.46578 -0.033,-5.03161 -0.1,-7.69749 -2e-4,-2.73236 -0.067,-5.4648 -0.2,-8.19733 -2.5993,3.39898 -5.1318,7.13109 -7.5975,11.19635 -2.3993,3.99878 -4.8319,8.13076 -7.2976,12.39596 -2.3994,4.26534 -4.7986,8.53062 -7.1977,12.79583 -2.3993,4.26533 -4.8318,8.36399 -7.2976,12.296 -2.466,3.86545 -5.0318,7.46427 -7.6975,10.79648 -2.5992,3.26563 -5.2984,6.06472 -8.0974,8.39727 -0.3333,0.2666 -0.6998,0.59983 -1.0996,0.99967 -0.3333,0.33325 -0.8331,0.66647 -1.4995,0.99967 -0.6665,0.33325 -1.5329,0.63315 -2.5992,0.89971 -1.0664,0.19996 -2.4659,0.29993 -4.1986,0.2999 -1.4663,3e-5 -3.0991,-0.73307 -4.8984,-2.19928 -1.7328,-1.46616 -3.5322,-3.36554 -5.3982,-5.69814 -1.8662,-2.33254 -3.7322,-4.9317 -5.5982,-7.79746 -1.8661,-2.8657 -3.5989,-5.66478 -5.1983,-8.39727 -1.5996,-2.79904 -3.0324,-5.36487 -4.2986,-7.69749 -1.2663,-2.39916 -2.2327,-4.29854 -2.8991,-5.69814 l -13.0957,-26.79128 c -0.1333,3.33233 -0.2333,7.16442 -0.2999,11.49626 -0.067,4.26535 -0.1,9.13042 -0.1,14.59524 l 0,36.08825 c 0.1999,1.33292 0.5665,2.83243 1.0997,4.49853 0.5331,1.66614 0.7997,3.26562 0.7997,4.79844 0,4.39858 -0.5998,7.96408 -1.7994,10.69651 -1.133,2.6658 -3.199,3.9987 -6.198,3.9987 -2.999,0 -5.3649,-0.43319 -7.0977,-1.29957 -1.6661,-0.86639 -2.8991,-2.06599 -3.6988,-3.59883 -0.7997,-1.53283 -1.2996,-3.33224 -1.4995,-5.39824 -0.1999,-2.06598 -0.2999,-4.29859 -0.2999,-6.69782"
             id="path6814" />
          <path
             inkscape:connector-curvature="0"
             d="m -8767.171,545.01115 c -0.1333,-3.93203 -0.3332,-9.73014 -0.5998,-17.39433 -0.2666,-7.66413 -0.3998,-16.89445 -0.3998,-27.69098 0,-4.99831 0,-9.33022 0,-12.99576 0,-3.73205 0.033,-7.09761 0.1,-10.09672 0.1333,-2.99893 0.2666,-5.7647 0.3999,-8.29729 0.1999,-2.59906 0.4665,-5.26486 0.7997,-7.9974 0.2666,-2.06589 1.0997,-3.79866 2.4992,-5.1983 1.4662,-1.46609 3.0657,-2.19918 4.7985,-2.19929 0.7997,1.1e-4 1.6661,0.10007 2.5991,0.2999 0.933,0.20004 1.7994,0.56659 2.5992,1.09965 0.8663,0.46661 1.5994,1.13306 2.1993,1.99934 0.6664,0.86649 1.1662,1.93281 1.4995,3.19896 1.1329,-0.93293 2.5324,-1.96592 4.1986,-3.09899 1.7327,-1.13286 3.7321,-2.19918 5.998,-3.19896 2.2659,-0.99956 4.8318,-1.83263 7.6975,-2.49918 2.8657,-0.66634 5.998,-0.99957 9.397,-0.99968 3.4655,1.1e-4 7.031,0.53327 10.6965,1.59948 3.732,1.06643 7.2975,2.66591 10.6965,4.79844 3.4655,2.06609 6.5978,4.63192 9.397,7.69749 2.8656,3.06576 5.1982,6.59794 6.9977,10.59655 2.0659,-3.26552 4.6317,-6.16457 7.6975,-8.69717 3.0655,-2.59905 6.4311,-4.79834 10.0967,-6.59785 3.6653,-1.79931 7.4974,-3.16553 11.4962,-4.09866 4.0652,-0.93293 8.0973,-1.39944 12.0961,-1.39955 7.7307,1.1e-4 14.7284,1.29968 20.9932,3.89873 6.3311,2.53261 11.7293,6.49798 16.1947,11.89613 4.5316,5.33168 7.9972,12.1961 10.3966,20.59329 2.4657,8.33068 3.6986,18.29409 3.6988,29.89026 -2e-4,2.73248 -0.067,5.39828 -0.2,7.9974 -0.1334,2.59918 -0.3334,5.33162 -0.5998,8.19733 -0.2001,2.86575 -0.4667,5.96474 -0.7997,9.29697 -0.2668,3.33226 -0.5333,7.06437 -0.7997,11.19635 -2e-4,0.53316 -0.2002,1.26626 -0.5998,2.19929 -0.4001,0.99967 -0.9666,1.9327 -1.6995,2.79908 -0.7333,0.93303 -1.633,1.73277 -2.6991,2.39922 -1.0665,0.66645 -2.2661,0.99967 -3.5988,0.99968 -1.8663,-10e-6 -3.599,-0.4332 -5.1983,-1.29958 -1.533,-0.79974 -2.8993,-1.83274 -4.0987,-3.09899 -1.1331,-1.19961 -2.0328,-2.49919 -2.6991,-3.89873 -0.6,-1.46619 -0.8999,-2.79908 -0.8997,-3.9987 -2e-4,-2.66579 0.2664,-4.93171 0.7997,-6.79778 0.533,-1.86605 1.1328,-3.7321 1.7994,-5.59818 0.6663,-1.93268 1.2661,-4.06532 1.7994,-6.39792 0.533,-2.33254 0.7996,-5.33156 0.7998,-8.99706 -2e-4,-3.19893 -0.067,-6.29791 -0.2,-9.29698 -0.067,-2.99897 -0.1001,-6.09796 -0.1,-9.29697 -2e-4,-3.7987 -0.7666,-7.7974 -2.2993,-11.99609 -1.4663,-4.19856 -3.6323,-8.06397 -6.4979,-11.59622 -2.8659,-3.53211 -6.3647,-6.46448 -10.4965,-8.79714 -4.0655,-2.33248 -8.6974,-3.49877 -13.8955,-3.49886 -2.5993,9e-5 -5.5317,0.39996 -8.7972,1.19961 -3.2657,0.79983 -6.4313,2.06608 -9.4969,3.79876 -2.9991,1.66621 -5.7315,3.83217 -8.1973,6.49789 -2.3993,2.66587 -4.0654,5.8315 -4.9984,9.4969 l 0,43.18594 c -10e-5,0.33324 0.033,1.03302 0.1,2.09931 0.067,0.9997 0.1332,2.06602 0.1999,3.19896 0.1332,1.13298 0.2332,2.23262 0.2999,3.29893 0.067,0.99968 0.1,1.63281 0.1,1.89938 -10e-5,1.4662 -0.2,2.89906 -0.5998,4.2986 -0.4,1.3329 -0.9998,2.53251 -1.7994,3.59882 -0.7999,0.99968 -1.7662,1.83274 -2.8991,2.49919 -1.0664,0.59981 -2.2993,0.89971 -3.6988,0.89971 -1.4662,0 -2.9991,-0.13329 -4.5985,-0.39987 -1.5995,-0.26658 -3.0657,-0.76642 -4.3985,-1.49951 -1.2664,-0.79974 -2.3327,-1.86606 -3.199,-3.19896 -0.7998,-1.33289 -1.1997,-3.06566 -1.1996,-5.19831 -10e-5,-0.39986 0.067,-1.19959 0.1999,-2.39922 0.1999,-1.19959 0.3665,-2.46584 0.4999,-3.79876 0.1998,-1.33288 0.3664,-2.53249 0.4998,-3.59883 0.1999,-1.13294 0.2998,-1.79939 0.2999,-1.99935 l 0,-33.68902 c -10e-5,-3.53212 -0.6332,-7.23091 -1.8994,-11.09639 -1.1997,-3.93198 -2.9657,-7.5308 -5.2982,-10.79648 -2.266,-3.33216 -5.0318,-6.06461 -8.2973,-8.19733 -3.2657,-2.19919 -6.9312,-3.29883 -10.9965,-3.29892 -5.1317,9e-5 -9.3969,0.49992 -12.7958,1.49951 -3.3323,0.99976 -5.9981,2.56591 -7.9974,4.69847 -1.9327,2.06607 -3.2989,4.73187 -4.0986,7.99739 -0.7332,3.26568 -1.0997,7.19773 -1.0997,11.79616 0,4.86514 0.067,9.86351 0.2,14.99511 0.1332,5.06507 0.4664,9.8635 0.9996,14.39531 l 3.099,25.1918 c 0,1.53284 -0.3999,2.89906 -1.1996,4.09866 -0.7998,1.19962 -1.7661,2.19929 -2.899,2.99903 -1.0664,0.79974 -2.166,1.43286 -3.299,1.89938 -1.0663,0.39987 -1.9327,0.5998 -2.5991,0.5998 -3.9321,0 -6.8312,-0.8997 -8.6972,-2.69912 -1.8661,-1.86605 -3.0324,-5.16497 -3.4989,-9.89678"
             id="path6816" />
        </g>
        <g
           style="font-size:120.21715546px;font-style:normal;font-weight:normal;line-height:125%;letter-spacing:0px;word-spacing:0px;fill:#ffffff;fill-opacity:1;stroke:none;font-family:Sans"
           id="text3048-3">
          <path
             inkscape:connector-curvature="0"
             d="m -8927.8443,668.53262 c 0,-0.90005 0.098,-1.81968 0.2935,-2.75889 0.1956,-0.93918 0.2935,-1.83924 0.2935,-2.70019 0,-8.57014 0.039,-15.79021 0.1174,-21.66022 0.078,-5.90906 0.1565,-10.82027 0.2348,-14.73364 0.1174,-3.91326 0.2152,-7.02435 0.2935,-9.33327 0.078,-2.34792 0.1174,-4.24588 0.1174,-5.69388 0,-1.76092 0.1565,-3.44365 0.4696,-5.04818 0.3522,-1.60438 0.8218,-3.01318 1.4088,-4.22638 0.5869,-1.25219 1.2913,-2.23051 2.1132,-2.93499 0.8217,-0.74345 1.7414,-1.11522 2.7588,-1.1153 0.861,8e-5 1.6045,0.21532 2.2306,0.6457 0.6261,0.39141 1.1544,0.90014 1.5849,1.5262 0.4305,0.6262 0.7435,1.3306 0.9392,2.11319 0.2348,0.78274 0.3522,1.54583 0.3522,2.28929 l 0,0.2935 c 0.1565,0.5088 0.2935,1.13493 0.4109,1.87839 0.1174,0.78274 0.4696,1.93716 1.0566,3.46329 0.6261,1.48713 1.3892,3.16985 2.2893,5.04818 0.9,1.87845 1.8784,3.85468 2.935,5.92868 1.0957,2.07411 2.1523,4.08947 3.1698,6.04608 1.0174,1.9567 1.9566,3.75683 2.8176,5.40038 0.9,1.64363 1.6044,2.97416 2.1132,3.99158 0.313,0.66531 0.7043,1.50667 1.174,2.52409 0.5087,0.97837 1.037,2.0154 1.5849,3.11109 0.5478,1.09576 1.0956,2.19149 1.6436,3.28719 0.5869,1.09576 1.1152,2.07409 1.5849,2.93499 0.4695,0.86096 0.8608,1.56535 1.1739,2.11319 0.3522,0.54789 0.587,0.82182 0.7044,0.8218 0.3913,2e-5 0.8414,-0.17608 1.3501,-0.5283 0.5087,-0.39131 0.9979,-0.84134 1.4675,-1.3501 0.5087,-0.5087 0.9392,-0.99786 1.2914,-1.46749 0.3913,-0.46957 0.6652,-0.82177 0.8218,-1.0566 0.313,-0.5087 0.6848,-1.07613 1.1153,-1.70229 0.4304,-0.66523 0.9392,-1.46746 1.5262,-2.40669 0.6261,-0.9783 1.3501,-2.13272 2.1719,-3.46329 0.8217,-1.36962 1.8196,-3.03278 2.9937,-4.98948 1.2131,-2.03488 2.5632,-4.20677 4.0503,-6.51568 1.5261,-2.3088 3.0523,-4.63722 4.5786,-6.98527 1.5261,-2.38707 2.974,-4.73505 4.3437,-7.04398 1.4088,-2.30879 2.5828,-4.46111 3.522,-6.45697 0.313,-0.70433 0.6261,-1.46742 0.9392,-2.28929 0.313,-0.82173 0.6848,-1.62396 1.1153,-2.40669 0.2347,-0.66519 0.4891,-1.29132 0.7631,-1.8784 0.313,-0.62605 0.6652,-1.15435 1.0566,-1.58489 0.4304,-0.46952 0.9,-0.84128 1.4088,-1.1153 0.5478,-0.27385 1.1935,-0.41081 1.9371,-0.4109 1.9957,9e-5 3.561,0.58708 4.696,1.761 1.1739,1.13494 1.7609,2.70026 1.761,4.69598 -10e-5,11.77915 -0.1958,23.73433 -0.587,35.86557 -0.3523,12.13131 -0.5284,24.37999 -0.5283,36.74606 -1e-4,0.78267 -0.1958,1.4088 -0.587,1.87839 -0.3523,0.50874 -0.7828,0.90007 -1.2914,1.174 -0.4697,0.27393 -0.9393,0.4696 -1.4088,0.587 -0.4697,0.1174 -0.8219,0.1761 -1.0566,0.1761 -0.1175,0 -0.6066,-0.0978 -1.4675,-0.2935 -0.8219,-0.15654 -1.7415,-0.4696 -2.7589,-0.9392 -0.9784,-0.4696 -1.8785,-1.11529 -2.7002,-1.93709 -0.7827,-0.86093 -1.174,-1.97622 -1.174,-3.34589 0,-0.93919 0.1174,-1.89795 0.3522,-2.87629 0.2348,-1.01745 0.4891,-2.01535 0.7631,-2.99369 0.313,-0.97831 0.6065,-1.93708 0.8805,-2.87629 0.2739,-0.97831 0.45,-1.93707 0.5283,-2.87629 l 0,-29.58469 c -1e-4,-1.44788 -0.02,-2.9545 -0.059,-4.51988 -10e-5,-1.60441 -0.039,-3.20887 -0.1174,-4.81338 -1.5262,1.99584 -3.0133,4.1873 -4.4612,6.57437 -1.4088,2.34804 -2.8372,4.7743 -4.285,7.27878 -1.4089,2.50456 -2.8177,5.00908 -4.2264,7.51357 -1.4089,2.50455 -2.8372,4.91124 -4.2851,7.22007 -1.448,2.26975 -2.9546,4.38294 -4.5199,6.33958 -1.5262,1.91754 -3.1111,3.56114 -4.7547,4.93078 -0.1957,0.15655 -0.4109,0.35221 -0.6457,0.587 -0.1957,0.19568 -0.4892,0.39135 -0.8805,0.587 -0.3914,0.19568 -0.9001,0.37178 -1.5262,0.5283 -0.6261,0.11741 -1.4479,0.17611 -2.4654,0.17609 -0.8609,2e-5 -1.8197,-0.43045 -2.8762,-1.29139 -1.0175,-0.86092 -2.0741,-1.97621 -3.1698,-3.34589 -1.0958,-1.36964 -2.1915,-2.89583 -3.2872,-4.57858 -1.0958,-1.6827 -2.1132,-3.3263 -3.0524,-4.93078 -0.9392,-1.64357 -1.7806,-3.15019 -2.5241,-4.51989 -0.7436,-1.40876 -1.311,-2.52405 -1.7023,-3.34588 l -7.6897,-15.73155 c -0.078,1.95671 -0.137,4.20687 -0.1761,6.75048 -0.039,2.50456 -0.059,5.36128 -0.059,8.57017 l 0,21.19062 c 0.1174,0.78268 0.3326,1.66317 0.6457,2.64149 0.3131,0.97834 0.4696,1.91754 0.4696,2.81759 0,2.5828 -0.3522,4.67642 -1.0566,6.28088 -0.6653,1.56532 -1.8784,2.34799 -3.6394,2.34799 -1.761,0 -3.1502,-0.25437 -4.1676,-0.7631 -0.9784,-0.50873 -1.7023,-1.21313 -2.1719,-2.11319 -0.4696,-0.90006 -0.7631,-1.95666 -0.8805,-3.16979 -0.1174,-1.21312 -0.1761,-2.52408 -0.1761,-3.93289"
             style="font-variant:normal;font-stretch:normal;font-family:Short Stack;-inkscape-font-specification:Short Stack"
             id="path6805" />
          <path
             inkscape:connector-curvature="0"
             d="m -8831.518,647.6942 c 0,-6.06561 0.9783,-11.21162 2.935,-15.43804 1.9567,-4.22634 4.5199,-7.65049 7.6897,-10.27246 3.2089,-2.661 6.8287,-4.57853 10.8594,-5.75258 4.0699,-1.21307 8.218,-1.81963 12.4444,-1.8197 4.8916,7e-5 9.2745,0.8023 13.1487,2.4067 3.9133,1.60452 7.2201,3.91337 9.9203,6.92657 2.7001,3.01331 4.7742,6.67226 6.2222,10.97686 1.4478,4.26556 2.1718,9.05937 2.1719,14.38145 -1e-4,3.09154 -0.411,6.00696 -1.2327,8.74626 -0.8219,2.73934 -1.9567,5.283 -3.4046,7.63098 -1.448,2.30886 -3.1894,4.38292 -5.2243,6.22217 -1.9958,1.83927 -4.1873,3.42416 -6.5744,4.75468 -2.3871,1.2914 -4.9112,2.26973 -7.5722,2.93499 -2.6611,0.7044 -5.3613,1.0566 -8.1006,1.0566 -2.9742,0 -5.87,-0.4696 -8.6876,-1.4088 -2.7785,-0.90006 -5.4004,-2.15232 -7.8657,-3.75678 -2.4655,-1.60446 -4.7352,-3.46328 -6.8092,-5.57648 -2.035,-2.15231 -3.7959,-4.4416 -5.283,-6.86788 -1.4479,-2.42623 -2.5828,-4.93076 -3.4046,-7.51357 -0.8218,-2.58276 -1.2327,-5.12642 -1.2327,-7.63097 m 10.1551,-1.46749 c 0,2.89588 0.6261,5.8113 1.8784,8.74626 1.2522,2.89588 2.8958,5.5178 4.9308,7.86577 2.074,2.34801 4.422,4.26553 7.0439,5.75258 2.6611,1.44794 5.3612,2.1719 8.1006,2.1719 2.9741,0 5.8504,-0.50873 8.6289,-1.5262 2.8175,-1.01745 5.2829,-2.50451 7.3961,-4.46118 2.1523,-1.95665 3.8742,-4.34377 5.1656,-7.16138 1.2914,-2.81756 1.9371,-6.02648 1.9371,-9.62676 0,-3.52195 -0.4892,-6.73087 -1.4675,-9.62676 -0.9392,-2.93495 -2.2502,-5.45904 -3.9329,-7.57228 -1.6827,-2.11314 -3.6981,-3.73716 -6.046,-4.87208 -2.3481,-1.17394 -4.8917,-1.76094 -7.631,-1.76099 -3.0524,5e-5 -6.1244,0.48922 -9.2159,1.46749 -3.0915,0.93925 -5.8896,2.34804 -8.394,4.22639 -2.4655,1.8393 -4.4808,4.12859 -6.0461,6.86787 -1.5654,2.73936 -2.348,5.90915 -2.348,9.50937"
             style="font-variant:normal;font-stretch:normal;font-family:Short Stack;-inkscape-font-specification:Short Stack"
             id="path6807" />
          <path
             inkscape:connector-curvature="0"
             d="m -8746.8142,673.6395 c 0,-0.58699 0.02,-1.38922 0.059,-2.40669 0.039,-1.01745 0.059,-2.34798 0.059,-3.99158 0,-2.66104 -0.078,-5.45906 -0.2348,-8.39407 -0.1565,-2.9741 -0.3326,-6.04605 -0.5283,-9.21587 -0.1565,-3.20889 -0.3131,-6.49607 -0.4696,-9.86156 -0.1174,-3.40454 -0.1761,-6.8874 -0.1761,-10.44856 0,-1.36961 0.059,-2.8958 0.1761,-4.57858 0.1174,-1.72181 0.3522,-3.3067 0.7044,-4.75469 0.3522,-1.487 0.8609,-2.71969 1.5262,-3.69808 0.6653,-1.0174 1.5653,-1.52613 2.7002,-1.5262 1.2131,7e-5 2.1523,0.3914 2.8176,1.174 0.7044,0.74359 1.2131,1.72192 1.5262,2.93499 0.3522,1.17405 0.5478,2.52415 0.587,4.05028 0.078,1.48712 0.1174,2.99374 0.1174,4.51989 1.3696,-1.99574 3.111,-3.79587 5.2243,-5.40038 2.1131,-1.64354 4.3633,-3.03277 6.7504,-4.16769 2.4263,-1.1348 4.8721,-2.0153 7.3375,-2.64149 2.4654,-0.62607 4.7546,-0.93913 6.8679,-0.9392 3.835,7e-5 7.2004,0.5675 10.0963,1.7023 2.935,1.09579 5.4591,2.60242 7.5723,4.51988 2.1523,1.91758 3.9328,4.14817 5.3417,6.69178 1.4478,2.50457 2.6023,5.16562 3.4633,7.98317 0.8608,2.81763 1.4674,5.71348 1.8197,8.68756 0.3912,2.93503 0.5869,5.77218 0.587,8.51147 l 0,9.97897 c -1e-4,2.54367 -0.1762,5.00906 -0.5283,7.39617 -0.3132,2.348 -0.7828,4.44162 -1.4088,6.28088 -0.6262,1.80012 -1.4089,3.24805 -2.348,4.34378 -0.9001,1.13486 -1.9372,1.70229 -3.1111,1.70229 -0.861,0 -1.6632,-0.0587 -2.4067,-0.1761 -0.7436,-0.1174 -1.4089,-0.4109 -1.9958,-0.88049 -0.5479,-0.43047 -0.9784,-1.1153 -1.2914,-2.05449 -0.3131,-0.9392 -0.4696,-2.23059 -0.4696,-3.87419 0,-1.52619 0.1565,-3.11108 0.4696,-4.75468 0.313,-1.68272 0.6457,-3.36545 0.9979,-5.04818 0.3913,-1.68272 0.7435,-3.36544 1.0566,-5.04819 0.313,-1.6827 0.4695,-3.34586 0.4696,-4.98948 -10e-5,-1.83923 -0.059,-3.65892 -0.1761,-5.45908 -0.078,-1.83923 -0.274,-3.63935 -0.587,-5.40038 -0.3131,-1.76095 -0.7631,-3.46325 -1.3501,-5.10688 -0.5479,-1.68268 -1.311,-3.28714 -2.2893,-4.81338 -0.7827,-1.25222 -1.6045,-2.46534 -2.4654,-3.63939 -0.8218,-1.21308 -1.8393,-2.28924 -3.0524,-3.22848 -1.174,-0.93915 -2.6024,-1.68268 -4.285,-2.2306 -1.6828,-0.58694 -3.7569,-0.88044 -6.2222,-0.88049 -1.6828,5e-5 -3.6003,0.35225 -5.7526,1.05659 -2.1524,0.66532 -4.3242,1.64365 -6.5157,2.93499 -2.1523,1.25231 -4.2264,2.77851 -6.2221,4.57858 -1.9567,1.76104 -3.6003,3.73727 -4.9308,5.92868 l 0,15.02715 c 0,0.50875 0.02,1.17402 0.059,1.99579 0.078,0.78269 0.176,1.66318 0.2935,2.64149 0.1173,0.97835 0.2543,2.01538 0.4109,3.11109 0.1956,1.09574 0.3913,2.17191 0.587,3.22849 0.313,1.6436 0.6848,3.20893 1.1153,4.69598 0.4304,1.48707 0.6456,2.8763 0.6457,4.16768 -10e-5,0.90007 -0.039,1.761 -0.1174,2.58279 -0.078,0.8218 -0.2936,1.54577 -0.6457,2.1719 -0.3131,0.58699 -0.8219,1.05659 -1.5262,1.40879 -0.7045,0.3522 -1.6828,0.5283 -2.935,0.5283 -0.8218,0 -1.6632,-0.0783 -2.5241,-0.2348 -0.861,-0.1174 -1.6632,-0.4109 -2.4067,-0.8805 -0.7044,-0.46959 -1.2914,-1.15443 -1.761,-2.05449 -0.4696,-0.93919 -0.7044,-2.19145 -0.7044,-3.75679"
             style="font-variant:normal;font-stretch:normal;font-family:Short Stack;-inkscape-font-specification:Short Stack"
             id="path6809" />
          <path
             inkscape:connector-curvature="0"
             d="m -8666.689,647.6942 c 0,-6.06561 0.9783,-11.21162 2.935,-15.43804 1.9566,-4.22634 4.5199,-7.65049 7.6897,-10.27246 3.2089,-2.661 6.8287,-4.57853 10.8594,-5.75258 4.0698,-1.21307 8.218,-1.81963 12.4444,-1.8197 4.8916,7e-5 9.2745,0.8023 13.1487,2.4067 3.9133,1.60452 7.22,3.91337 9.9203,6.92657 2.7001,3.01331 4.7742,6.67226 6.2222,10.97686 1.4478,4.26556 2.1718,9.05937 2.1719,14.38145 -1e-4,3.09154 -0.411,6.00696 -1.2327,8.74626 -0.8219,2.73934 -1.9568,5.283 -3.4046,7.63098 -1.448,2.30886 -3.1894,4.38292 -5.2243,6.22217 -1.9959,1.83927 -4.1873,3.42416 -6.5744,4.75468 -2.3872,1.2914 -4.9112,2.26973 -7.5722,2.93499 -2.6611,0.7044 -5.3613,1.0566 -8.1006,1.0566 -2.9742,0 -5.87,-0.4696 -8.6876,-1.4088 -2.7785,-0.90006 -5.4004,-2.15232 -7.8658,-3.75678 -2.4654,-1.60446 -4.7351,-3.46328 -6.8091,-5.57648 -2.035,-2.15231 -3.796,-4.4416 -5.283,-6.86788 -1.4479,-2.42623 -2.5828,-4.93076 -3.4046,-7.51357 -0.8218,-2.58276 -1.2327,-5.12642 -1.2327,-7.63097 m 10.1551,-1.46749 c 0,2.89588 0.6261,5.8113 1.8784,8.74626 1.2522,2.89588 2.8958,5.5178 4.9307,7.86577 2.0741,2.34801 4.4221,4.26553 7.044,5.75258 2.661,1.44794 5.3612,2.1719 8.1006,2.1719 2.9741,0 5.8504,-0.50873 8.6289,-1.5262 2.8175,-1.01745 5.2829,-2.50451 7.3961,-4.46118 2.1523,-1.95665 3.8742,-4.34377 5.1656,-7.16138 1.2913,-2.81756 1.937,-6.02648 1.9371,-9.62676 -1e-4,-3.52195 -0.4892,-6.73087 -1.4675,-9.62676 -0.9392,-2.93495 -2.2502,-5.45904 -3.9329,-7.57228 -1.6828,-2.11314 -3.6981,-3.73716 -6.0461,-4.87208 -2.348,-1.17394 -4.8916,-1.76094 -7.6309,-1.76099 -3.0525,5e-5 -6.1244,0.48922 -9.2159,1.46749 -3.0915,0.93925 -5.8896,2.34804 -8.3941,4.22639 -2.4654,1.8393 -4.4807,4.12859 -6.046,6.86787 -1.5654,2.73936 -2.348,5.90915 -2.348,9.50937"
             style="font-variant:normal;font-stretch:normal;font-family:Short Stack;-inkscape-font-specification:Short Stack"
             id="path6811" />
        </g>
        <g
           transform="matrix(1.1625416,0,0,1.1625416,-9168.0553,-86.891364)"
           id="layer1-29"
           inkscape:label="Capa 1"
           style="fill:#ffffff">
          <path
             inkscape:connector-curvature="0"
             id="path3155-0"
             d="m 356.66199,144.92558 c -8.3208,0.2174 -16.7038,1.9262 -23.875,5.5626 -1.8391,0.9325 -3.6445,2.0308 -5.3125,3.2812 -2.5794,-2.2773 -5.633,-4.0278 -8.8125,-5.3125 -6.4559,-2.6085 -13.8114,-3.6419 -21.2187,-3.4687 a 7.1202884,7.1202884 0 0 0 -0.1876,0 c -8.2942,0.2166 -16.6869,1.9141 -23.875,5.5 -7.1881,3.5858 -13.6128,9.6029 -15.2187,18.125 -1.9499,10.3492 -3.1351,19.7627 -3.7187,28.3124 -0.8495,-0.1415 -1.7018,-0.2799 -2.5626,-0.3437 -1.4934,-0.1106 -2.9853,-0.025 -4.4687,0.062 a 7.1202884,7.1202884 0 0 0 -0.5,-0.031 l 0,0.031 c -0.2068,0.015 -0.4191,-0.018 -0.625,0 a 7.1202884,7.1202884 0 0 0 -0.9063,0.1562 c -9.2439,1.0175 -18.6447,4.994 -26.1874,10.9063 -7.7894,6.1058 -14.3183,15.182 -12.1563,25.7187 0.8489,4.1375 1.7499,8.0599 2.7187,11.7813 a 7.1202884,7.1202884 0 0 0 -1.1562,3.875 c -0.461,25.2125 -4.265,51.751 2.1562,74.8437 3.2106,11.5463 9.3035,22.3111 19.6563,30.4688 9.236,7.2775 21.8008,12.2762 37.9687,15.125 l 1.4376,24.1562 a 7.1228488,7.1228488 0 1 0 14.2187,-0.875 l -1.8125,-29.6874 a 7.1202884,7.1202884 0 0 0 -6.1562,-6.625 c -17.4463,-2.3334 -29.0434,-7.1349 -36.8438,-13.2813 -7.8004,-6.1463 -12.1445,-13.7235 -14.75,-23.0937 -3.2848,-11.8132 -3.2713,-26.3938 -2.6875,-42.1563 7.3182,14.4748 15.0369,22.6851 20.4375,26.7187 11.6544,8.7048 24.2756,9.5698 33.375,4.5 9.0994,-5.0697 14.4083,-14.5861 15.9688,-24.4687 0.2901,-1.8422 0.3983,-3.6914 0.375,-5.5625 1.8348,0.1405 3.6684,0.1047 5.4687,-0.125 11.4177,-1.4567 20.9325,-9.0283 26.8125,-18.5312 3.6239,5.9098 7.9443,10.3831 12.625,13.4687 -2.4747,1.37 -4.6642,3.0551 -6.5312,5 -5.6001,5.834 -8.2627,13.4879 -8.7188,21.0313 -0.4561,7.5434 1.2207,15.1449 5.0625,21.5624 3.8418,6.4176 10.2439,11.714 18.4687,13 a 7.1202884,7.1202884 0 1 0 2.2188,-14.0624 c -3.6034,-0.5635 -6.3147,-2.6517 -8.4688,-6.25 -2.1541,-3.5984 -3.3508,-8.6356 -3.0624,-13.4063 0.2884,-4.7706 1.9878,-9.0899 4.7812,-12 2.7934,-2.91 6.6696,-4.8723 13.4688,-4.5937 a 7.1202884,7.1202884 0 0 0 0.0312,0 l 81.9375,2.6874 a 7.1202884,7.1202884 0 1 0 1.0313,-14.1874 c 4.6658,-3.3341 8.6211,-7.7235 11.5937,-12.625 4.2938,-7.0768 6.8362,-16.4288 8.4687,-27.75 0.1968,0.1845 0.3946,0.3648 0.5938,0.5624 2.6705,2.6505 5.7695,6.5348 8.5,11.875 5.4609,10.6803 9.5726,27.1604 5.3438,51.8126 -3.8794,22.6174 -20.6347,35.4537 -37.5,43.1562 -16.8654,7.7024 -32.7813,9.4999 -32.7813,9.5 a 7.1202884,7.1202884 0 0 0 -6.3437,6.9062 l -0.9063,37.8126 a 7.1267131,7.1267131 0 1 0 14.25,0.3124 l 0.75,-32 c 6.2257,-1.0278 16.9856,-3.1906 30.9375,-9.5624 19.1998,-8.7687 40.7323,-25.1942 45.625,-53.7188 4.6735,-27.245 0.2042,-47.2088 -6.6875,-60.6875 -3.4459,-6.7393 -7.4567,-11.8593 -11.1563,-15.5313 -3.3516,-3.3264 -6.1902,-5.3938 -8.9374,-6.7187 0.9496,-14.2337 0.8562,-30.5828 -0.1563,-48.2813 -0.4916,-8.5935 -6.6363,-15.0871 -13.625,-18.4687 -6.9887,-3.3815 -15.2417,-4.6236 -23.5625,-4.4063 -8.3208,0.2174 -16.7038,1.9262 -23.875,5.5626 -3.0189,1.5308 -5.9086,3.4863 -8.3438,5.875 -2.4457,-2.9976 -5.6346,-5.3878 -9.0312,-7.0313 -6.9887,-3.3815 -15.2417,-4.6236 -23.5625,-4.4063 z m 0.375,14.2188 c 6.505,-0.17 12.8675,1.0156 16.9687,3 4.1011,1.9843 5.5043,3.8124 5.6563,6.4688 0.2679,4.6829 0.4641,9.26 0.5937,13.7187 -2.3015,16.9822 -2.4193,31.0558 -1.3437,42.5313 -1.5154,12.994 -4.2651,22.9244 -7.25,27.8437 -3.9309,6.4817 -10.6266,11.354 -16.6875,12.125 -6.0609,0.7711 -12.3086,-1.2081 -18.8438,-12.0937 -1.3503,-2.2494 -3.25,-6.4906 -4.9062,-12.8126 a 7.1202884,7.1202884 0 0 0 -0.1875,-1.2187 c -1.2824,-5.1054 -2.4207,-11.4154 -2.9687,-19.0625 -0.0671,-1.0095 -0.1094,-2.038 -0.1563,-3.0938 -0.0964,-1.9567 -0.139,-4.0057 -0.1563,-6.125 -0.0478,-10.8699 0.9998,-23.8648 3.875,-39.125 0.0365,-0.1936 0.1048,-0.3711 0.1563,-0.5624 0.1793,-0.4036 0.4651,-0.9935 1.0937,-2.0313 a 7.1202884,7.1202884 0 0 0 0.5313,-1.125 c 1.2542,-1.5621 3.1508,-3.0253 5.8125,-4.375 4.6804,-2.3733 11.3075,-3.8926 17.8125,-4.0625 z m 64.8125,0 c 6.505,-0.17 12.8677,1.0156 16.9688,3 4.1012,1.9843 5.5042,3.8124 5.6562,6.4688 1.1461,20.0326 1.0299,38.2056 -0.375,52.875 -1.4049,14.6693 -4.3843,25.8777 -7.625,31.2187 -3.9309,6.4817 -10.6266,11.354 -16.6875,12.125 -6.0609,0.7711 -12.2774,-1.2081 -18.8125,-12.0937 -2.2521,-3.7515 -6.0942,-12.952 -7.6875,-28.3126 0.0551,-0.5373 0.1353,-1.0488 0.1875,-1.5937 1.1229,-11.7245 1.4346,-25.1492 1.0312,-39.75 0.5218,-3.7692 1.1666,-7.6892 1.9376,-11.7813 0.5648,-2.9969 2.9133,-5.7203 7.5937,-8.0937 4.6804,-2.3733 11.3075,-3.8926 17.8125,-4.0625 z m -124.2188,0.094 c 5.8375,-0.1525 11.5883,0.781 15.6876,2.4374 2.6695,1.0786 4.1744,2.3329 5.25,3.5938 -0.1719,0.4702 -0.3283,0.9496 -0.4688,1.4375 -0.0203,0.053 -0.0426,0.1022 -0.0625,0.1563 -0.0233,0.083 -0.0402,0.1661 -0.0625,0.25 -0.1567,0.4536 -0.3038,0.9267 -0.4062,1.4687 a 7.1202884,7.1202884 0 0 0 0,0.031 c -1.5901,8.4354 -2.6485,16.233 -3.2813,23.4374 -1.9659,21.0936 -0.4208,37.1522 2.3437,48.8438 -1.3103,5.123 -2.8738,9.4001 -4.375,11.875 -3.9363,6.4905 -10.5959,11.3558 -16.625,12.125 -2.5761,0.3286 -5.186,0.1529 -7.8437,-1 a 7.1202884,7.1202884 0 0 0 -0.75,-0.4375 c -2.4669,-1.227 -5.0772,-3.3593 -7.75,-6.9375 -0.008,-0.011 -0.023,-0.02 -0.0313,-0.031 -0.3765,-0.5054 -0.7453,-1.029 -1.125,-1.5938 -0.432,-0.6463 -0.8464,-1.3391 -1.2812,-2.0625 l 0,-0.031 c -0.5442,-0.9144 -1.1985,-2.1625 -1.875,-3.7187 -0.2135,-0.5047 -0.4362,-1.0498 -0.6562,-1.625 -0.0126,-0.032 -0.0188,-0.062 -0.0313,-0.094 -2.7926,-7.3415 -5.9514,-20.3704 -5.7813,-39.125 a 7.1202884,7.1202884 0 0 0 -0.1562,-1.4063 c 0.1508,-10.1304 1.2438,-21.9603 3.8125,-35.5937 0.5613,-2.9791 2.8687,-5.6586 7.5625,-8 4.6938,-2.3415 11.3746,-3.8295 17.9062,-4 z m -48.4374,51.5312 c 0.5137,0 1.0069,0 1.4687,0.031 1.402,0.1031 2.4766,0.3899 3.3437,0.75 0.1986,19.987 3.8539,33.9179 7.6563,42.6876 0.0917,0.2163 0.1892,0.446 0.2813,0.6562 0.018,0.04 0.0444,0.085 0.0624,0.125 0.2773,0.6285 0.5649,1.2389 0.8438,1.8125 0.1521,0.3082 0.3175,0.6456 0.4688,0.9375 0.4368,0.8497 0.8817,1.6574 1.3124,2.375 3.6333,6.0517 7.787,10.6791 12.5313,13.9062 0.4108,3.5745 0.6176,6.6986 0.3437,8.4376 -0.9727,6.1596 -4.5998,11.8855 -8.8437,14.25 -4.2439,2.3644 -9.3761,2.9024 -17.9063,-3.4688 -5.3001,-3.9588 -21.2347,-21.0647 -29.7812,-62.7188 -0.6182,-3.0129 1.5285,-7.3674 7,-11.6562 5.4715,-4.2889 13.5329,-7.5246 19.5938,-8.0625 0.577,-0.051 1.1112,-0.059 1.625,-0.062 z m 137.0937,44.625 c 0.8238,1.795 1.6716,3.3597 2.4687,4.6875 2.7956,4.6567 6.0304,8.4387 9.5313,11.375 l -23.375,-0.7813 c 3.5164,-2.9983 6.5464,-6.6198 8.9375,-10.5624 0.8923,-1.4707 1.6871,-3.0567 2.4375,-4.7188 z"
             style="font-size:medium;font-style:normal;font-variant:normal;font-weight:normal;font-stretch:normal;text-indent:0;text-align:start;text-decoration:none;line-height:normal;letter-spacing:normal;word-spacing:normal;text-transform:none;direction:ltr;block-progression:tb;writing-mode:lr-tb;text-anchor:start;baseline-shift:baseline;color:#000000;fill:#ffffff;fill-opacity:1;stroke:none;stroke-width:14.23915291;marker:none;visibility:visible;display:inline;overflow:visible;enable-background:accumulate;font-family:Sans;-inkscape-font-specification:Sans" />
        </g>
        <g
           transform="matrix(0.75670594,0,0,0.75670594,-9368.4772,405.06877)"
           id="layer1-5"
           inkscape:label="Capa 1">
          <text
             sodipodi:linespacing="125%"
             id="text3197-63"
             y="535.85278"
             x="3592.4868"
             style="font-size:430.46691895px;font-style:normal;font-variant:normal;font-weight:bold;font-stretch:normal;text-align:start;line-height:125%;letter-spacing:0px;word-spacing:0px;writing-mode:lr-tb;text-anchor:start;fill:#ffffff;fill-opacity:1;stroke:none;font-family:Rudiment;-inkscape-font-specification:Rudiment Bold"
             xml:space="preserve"
             inkscape:export-filename="/home/david/work/pipo/textures/abeja.png"
             inkscape:export-xdpi="90"
             inkscape:export-ydpi="90"><tspan
               style="font-style:normal;font-weight:500;fill:#ffffff;-inkscape-font-specification:Rudiment Medium"
               y="535.85278"
               x="3592.4868"
               id="tspan3199-7"
               sodipodi:role="line" /></text>
          <text
             sodipodi:linespacing="125%"
             id="text3197-5-20"
             y="626.41736"
             x="1691.156"
             style="font-size:430.46691895px;font-style:normal;font-variant:normal;font-weight:bold;font-stretch:normal;text-align:start;line-height:125%;letter-spacing:0px;word-spacing:0px;writing-mode:lr-tb;text-anchor:start;fill:#ffffff;fill-opacity:1;stroke:none;font-family:Rudiment;-inkscape-font-specification:Rudiment Bold"
             xml:space="preserve"
             inkscape:export-filename="/home/david/work/pipo/textures/abeja.png"
             inkscape:export-xdpi="90"
             inkscape:export-ydpi="90"><tspan
               style="font-style:normal;font-weight:500;fill:#ffffff;-inkscape-font-specification:Rudiment Medium"
               y="626.41736"
               x="1691.156"
               id="tspan3199-9-8"
               sodipodi:role="line" /></text>
          <text
             sodipodi:linespacing="125%"
             id="text3197-6-7"
             y="274.43268"
             x="3083.7539"
             style="font-size:430.46691895px;font-style:normal;font-variant:normal;font-weight:bold;font-stretch:normal;text-align:start;line-height:125%;letter-spacing:0px;word-spacing:0px;writing-mode:lr-tb;text-anchor:start;fill:#ffffff;fill-opacity:1;stroke:none;font-family:Rudiment;-inkscape-font-specification:Rudiment Bold"
             xml:space="preserve"
             inkscape:export-filename="/home/david/work/pipo/textures/abeja.png"
             inkscape:export-xdpi="90"
             inkscape:export-ydpi="90"><tspan
               style="font-style:normal;font-weight:500;fill:#ffffff;-inkscape-font-specification:Rudiment Medium"
               y="274.43268"
               x="3083.7539"
               id="tspan3199-97"
               sodipodi:role="line" /></text>
          <g
             transform="translate(2829.1068,-573.07189)"
             id="g6002">
            <path
               style="font-size:medium;font-style:normal;font-variant:normal;font-weight:normal;font-stretch:normal;text-indent:0;text-align:start;text-decoration:none;line-height:normal;letter-spacing:normal;word-spacing:normal;text-transform:none;direction:ltr;block-progression:tb;writing-mode:lr-tb;text-anchor:start;baseline-shift:baseline;color:#000000;fill:none;stroke:#000000;stroke-width:11.39999962;stroke-miterlimit:7.0999999;stroke-dasharray:none;marker:none;visibility:visible;display:inline;overflow:visible;enable-background:accumulate;font-family:Sans;-inkscape-font-specification:Sans"
               d="m -2013.7711,982.77328 3.75,23.62502 c -0.5212,-0.1304 -1.0365,-0.2496 -1.5625,-0.375 l -16.1562,-22.21877 4.625,19.93747 c -8.5361,-1.3594 -17.5408,-2.0937 -26.8438,-2.0937 -41.4224,0 -76.9123,14.38 -91.6562,34.8437 -12.732,0.1235 -23,10.4888 -23,23.25 0,12.838 10.412,23.25 23.25,23.25 1.0073,0 1.9952,-0.063 2.9687,-0.1875 6.9502,7.8321 17.0442,14.6103 29.3438,19.8125 -0.1804,1.5267 -0.2813,3.0811 -0.2813,4.6563 0,21.682 17.5368,39.25 39.2188,39.25 4.7934,0 9.3783,-0.8652 13.625,-2.4375 -0.1158,0.6234 -0.2514,1.2454 -0.4063,1.8437 -0.2793,0.8376 -0.5603,1.667 -0.8125,2.5 -0.112,0.2851 -0.2202,0.5715 -0.3437,0.8438 -1.2985,10.3368 -3.744,21.6358 1.375,29.2813 3.0459,4.2839 7.9547,7.1803 13.625,8.75 l -1.6875,19.9375 -38.8125,1.9062 -1.875,16.4063 54.4375,0.625 55.1875,-0.625 -1.875,-16.4063 -38.8125,-1.9062 -1.75,-20.5938 c 1.9728,-0.6309 3.841,-1.406 5.5937,-2.3125 0.8999,-0.4148 1.8657,-0.993 2.8438,-1.6875 0.4054,-0.27 0.8034,-0.5251 1.1875,-0.8125 l 15.5312,17.0938 13.8125,0.75 c 2.4075,-8.2471 4.7334,-16.5198 7.0938,-24.7813 2.152,-0.3214 4.2957,-0.6745 6.4375,-1.0937 0.1459,-0.029 0.2917,-0.065 0.4375,-0.094 0.042,-0.01 0.083,-0.023 0.125,-0.031 10.807,-2.025 22.4214,-5.5737 33.5937,-11.5 0.7097,-0.3651 1.4245,-0.7453 2.125,-1.125 38.7005,-21.7201 31.4688,-66.2189 31.4688,-66.2189 -0.048,-0.2665 -0.1217,-0.5284 -0.2188,-0.7813 -0.4521,-1.2835 -1.5412,-2.3247 -2.8437,-2.7187 -0.2346,-0.072 -0.4753,-0.1246 -0.7188,-0.1563 -0.021,-10e-5 -0.042,-10e-5 -0.062,0 -0.269,-0.036 -0.5414,-0.046 -0.8125,-0.031 -0.1506,0.013 -0.291,0.032 -0.4375,0.062 -0.1478,0.034 -0.2939,0.076 -0.4375,0.125 -1.732,0.5217 -3.0378,2.2233 -3.0937,4.0313 0,0.062 0,0.125 0,0.1875 0,0.1431 0.016,0.2942 0.031,0.4375 0.01,0.096 0.014,0.1861 0.031,0.2812 0,0 6.7483,38.1593 -27.1563,57.1875 -8.6639,4.8625 -17.7749,8.1 -26.5625,10.2188 -8.7875,2.1187 -17.2401,3.1062 -24.625,3.5 -1.4899,0.08 -2.9169,0.1221 -4.3125,0.1562 l -10.125,-3.375 c 2.8372,-19.1654 -4.5013,-45.9242 -7.5312,-55.8125 17.9419,-4.9279 32.8874,-12.8442 42.7812,-22.5937 0.3062,0.011 0.5976,0.031 0.9063,0.031 14.5497,0 26.3437,-11.794 26.3437,-26.3438 0,-13.8634 -10.7158,-25.2402 -24.3125,-26.2812 -6.0662,-6.9795 -14.5858,-13.1227 -24.9686,-18.0938 l -13.2188,-29.99997 2.9688,25.68747 c -0.2377,-0.087 -0.4797,-0.1642 -0.7188,-0.25 z"
               id="path4321"
               inkscape:connector-curvature="0"
               sodipodi:nodetypes="cccccscssccsscccccccccccccccccccccccccccccccccccscsssccccsscccccc" />
            <path
               style="font-size:medium;font-style:normal;font-variant:normal;font-weight:normal;font-stretch:normal;text-indent:0;text-align:start;text-decoration:none;line-height:normal;letter-spacing:normal;word-spacing:normal;text-transform:none;direction:ltr;block-progression:tb;writing-mode:lr-tb;text-anchor:start;baseline-shift:baseline;color:#000000;fill:#502d16;fill-opacity:1;stroke:none;stroke-width:8.69999981;marker:none;visibility:visible;display:inline;overflow:visible;enable-background:accumulate;font-family:Sans;-inkscape-font-specification:Sans"
               d="m -1902.646,1091.1483 a 4.3504349,4.3504349 0 0 0 -3.9063,5.125 c 0,0 6.7483,38.1592 -27.1562,57.1875 -34.6557,19.4498 -76.4063,12.875 -76.4063,12.875 a 4.3540234,4.3540234 0 1 0 -1.4062,8.5937 c 0,0 44.1131,7.4234 82.0625,-13.875 38.7004,-21.7199 31.4687,-66.2187 31.4687,-66.2187 a 4.3504349,4.3504349 0 0 0 -4.6562,-3.6875 z"
               id="path3457"
               inkscape:connector-curvature="0" />
            <path
               style="fill:#502d16;fill-opacity:1;stroke:none"
               d="m -2008.1067,1104.1759 c 0,0 19.7869,57.5732 2.0662,75.418 -11.8926,11.9761 -40.8427,12.7222 -50.623,-1.0331 -16.7863,-23.6091 26.8612,-82.6499 26.8612,-82.6499 z"
               id="path3323-1"
               inkscape:connector-curvature="0"
               sodipodi:nodetypes="caacc" />
            <path
               style="opacity:0.52244897;fill:url(#linearGradient10519);fill-opacity:1;stroke:none"
               d="m -2058.0597,1149.2654 51.9818,-36.9947 -2.6819,-11.8319 -48.1167,29.8165 c 1.4428,5.2879 1.3093,13.515 -1.1832,19.0101 z"
               id="path4265"
               inkscape:connector-curvature="0"
               sodipodi:nodetypes="ccccc" />
            <path
               style="fill:#502d16;fill-opacity:1;stroke:none"
               d="m -2013.7768,982.7812 3.7604,23.6112 c -0.5212,-0.1304 -1.0345,-0.2583 -1.5604,-0.3837 l -16.1672,-22.20427 4.6302,19.92757 c -8.5361,-1.3594 -17.5314,-2.0977 -26.8344,-2.0977 -41.4225,0 -76.9125,14.4031 -91.6565,34.8669 -12.732,0.1234 -23.0228,10.4918 -23.0228,23.253 0,12.838 10.415,23.2531 23.253,23.2531 1.0074,0 1.9939,-0.08 2.9674,-0.2047 6.9502,7.8321 17.0418,14.623 29.3414,19.8253 -0.1804,1.5266 -0.2814,3.0805 -0.2814,4.6557 0,21.682 17.5591,39.2411 39.2411,39.2411 19.828,0 36.2243,-14.6965 38.883,-33.7924 28.7099,-3.1192 53.0243,-13.2726 67.1244,-27.1669 0.3061,0.011 0.6122,0.026 0.9209,0.026 14.5497,0 26.3484,-11.7986 26.3484,-26.3484 0,-13.8634 -10.7053,-25.2306 -24.3019,-26.2716 -6.0663,-6.9795 -14.6098,-13.1403 -24.9926,-18.1113 l -13.1998,-30.00643 2.9674,25.70883 c -0.2377,-0.087 -0.4771,-0.17 -0.7162,-0.2558 l -16.7044,-27.52508 z"
               id="path3312"
               inkscape:connector-curvature="0" />
            <path
               style="fill:#deaa87;fill-opacity:1;stroke:none"
               d="m -2145.2628,1042.615 c -7.8352,1.7645 -13.6858,8.771 -13.6858,17.1392 0,9.2632 7.1758,16.8586 16.2695,17.523 -4.0151,-6.0955 -6.2162,-12.7051 -6.2162,-19.595 0,-5.2205 1.2764,-10.273 3.6325,-15.0672 z"
               id="path3317-1"
               inkscape:connector-curvature="0" />
            <path
               id="path3306"
               d="m -2034.0914,1019.5419 c -20.0201,0.1442 -38.3501,15.0148 -33.8501,21.5768 2.5986,-4.6197 -8.3894,-20.3402 -24.3554,-20.6734 -34.5881,-0.7218 -47.3002,17.0647 -47.3002,38.7777 0,16.6737 14.1901,31.4608 36.0867,40.7222 -0.1635,1.3832 -0.255,2.791 -0.255,4.2182 0,19.6445 15.9091,35.5536 35.5536,35.5536 17.9648,0 32.8203,-13.3154 35.2292,-30.6169 41.3879,-4.4966 72.6833,-25.1132 72.6833,-49.8771 0,-28.0535 -35.2118,-39.9592 -73.7921,-39.6811 z"
               style="fill:#deaa87;fill-opacity:1;stroke:none"
               inkscape:connector-curvature="0"
               sodipodi:nodetypes="scsscsscss" />
            <path
               inkscape:export-ydpi="90"
               inkscape:export-xdpi="90"
               inkscape:export-filename="/home/david/work/pipo/textures/abeja.png"
               transform="matrix(0.37626158,0,0,0.37626158,-1901.4473,697.28848)"
               d="m -448.50774,962.45862 c 0,34.0314 -27.5879,61.61928 -61.6193,61.61928 -34.03141,0 -61.61931,-27.58788 -61.61931,-61.61928 0,-34.0314 27.5879,-61.61931 61.61931,-61.61931 34.0314,0 61.6193,27.58791 61.6193,61.61931 z"
               sodipodi:ry="61.619305"
               sodipodi:rx="61.619305"
               sodipodi:cy="962.45862"
               sodipodi:cx="-510.12704"
               id="path3247"
               style="fill:#ffffff;fill-opacity:1;stroke:none"
               sodipodi:type="arc" />
            <path
               inkscape:export-ydpi="90"
               inkscape:export-xdpi="90"
               inkscape:export-filename="/home/david/work/pipo/textures/abeja.png"
               transform="matrix(0.38182909,0,0,0.38182909,-1912.5576,688.89696)"
               d="m -270.72089,972.56012 c 0,35.14718 -28.49243,63.63958 -63.63961,63.63958 -35.14719,0 -63.63961,-28.4924 -63.63961,-63.63958 0,-35.14719 28.49242,-63.63961 63.63961,-63.63961 35.14718,0 63.63961,28.49242 63.63961,63.63961 z"
               sodipodi:ry="63.63961"
               sodipodi:rx="63.63961"
               sodipodi:cy="972.56012"
               sodipodi:cx="-334.3605"
               id="path3251-12"
               style="fill:#ffffff;fill-opacity:1;stroke:none"
               sodipodi:type="arc" />
            <path
               inkscape:export-ydpi="90"
               inkscape:export-xdpi="90"
               inkscape:export-filename="/home/david/work/pipo/textures/abeja.png"
               transform="matrix(0.2262633,0,0,0.2262633,-1969.5794,843.98295)"
               sodipodi:type="arc"
               style="fill:#000000;fill-opacity:1;stroke:none"
               id="path3253-1"
               sodipodi:cx="-510.12704"
               sodipodi:cy="962.45862"
               sodipodi:rx="61.619305"
               sodipodi:ry="61.619305"
               d="m -448.50774,962.45862 c 0,34.0314 -27.5879,61.61928 -61.6193,61.61928 -34.03141,0 -61.61931,-27.58788 -61.61931,-61.61928 0,-34.0314 27.5879,-61.61931 61.61931,-61.61931 34.0314,0 61.6193,27.58791 61.6193,61.61931 z" />
            <path
               inkscape:export-ydpi="90"
               inkscape:export-xdpi="90"
               inkscape:export-filename="/home/david/work/pipo/textures/abeja.png"
               sodipodi:type="arc"
               style="fill:#000000;fill-opacity:1;stroke:none"
               id="path3255"
               sodipodi:cx="-334.3605"
               sodipodi:cy="972.56012"
               sodipodi:rx="63.63961"
               sodipodi:ry="63.63961"
               d="m -270.72089,972.56012 c 0,35.14718 -28.49243,63.63958 -63.63961,63.63958 -35.14719,0 -63.63961,-28.4924 -63.63961,-63.63958 0,-35.14719 28.49242,-63.63961 63.63961,-63.63961 35.14718,0 63.63961,28.49242 63.63961,63.63961 z"
               transform="matrix(0.2262633,0,0,0.2262633,-1973.7986,841.86313)" />
            <path
               style="fill:#552200;stroke:none"
               d="m -2089.2069,1089.4539 c 5.1856,-10.6898 31.7507,-10.9673 35.6428,0.2583 1.0835,3.1251 -3.2903,5.7894 -7.7484,6.1987 -15.4096,-4.54 -8.4877,-3.5495 -22.7287,0 -4.8245,0.9306 -6.3687,-3.977 -5.1657,-6.457 z"
               id="path3304"
               inkscape:connector-curvature="0"
               sodipodi:nodetypes="aacca" />
            <path
               style="fill:none;stroke:#000000;stroke-width:2.17000008;stroke-linecap:butt;stroke-linejoin:miter;stroke-miterlimit:4;stroke-opacity:1;stroke-dasharray:none"
               d="m -2094.889,1119.4145 c 32.3286,26.307 64.1341,-11.7541 56.3052,-27.8943"
               id="path3308"
               inkscape:connector-curvature="0"
               sodipodi:nodetypes="cc" />
            <path
               sodipodi:type="arc"
               style="fill:#deaa87;fill-opacity:1;stroke:none"
               id="path3310"
               sodipodi:cx="603.90369"
               sodipodi:cy="-375.04648"
               sodipodi:rx="27.134647"
               sodipodi:ry="27.134647"
               d="m 631.03833,-375.04648 c 0,14.98605 -12.14859,27.13465 -27.13464,27.13465 -14.98606,0 -27.13465,-12.1486 -27.13465,-27.13465 0,-14.98605 12.14859,-27.13465 27.13465,-27.13465 14.98605,0 27.13464,12.1486 27.13464,27.13465 z"
               transform="matrix(0.72340491,0,0,0.72340491,-2400.0328,1330.5455)" />
            <path
               transform="matrix(0.72340491,0,0,0.72340491,-2474.4176,1430.7585)"
               d="m 631.03833,-375.04648 c 0,14.98605 -12.14859,27.13465 -27.13464,27.13465 -14.98606,0 -27.13465,-12.1486 -27.13465,-27.13465 0,-14.98605 12.14859,-27.13465 27.13465,-27.13465 14.98605,0 27.13464,12.1486 27.13464,27.13465 z"
               sodipodi:ry="27.134647"
               sodipodi:rx="27.134647"
               sodipodi:cy="-375.04648"
               sodipodi:cx="603.90369"
               id="path3325-15"
               style="fill:#deaa87;fill-opacity:1;stroke:none"
               sodipodi:type="arc" />
            <path
               style="fill:none;stroke:#000000;stroke-width:2.7349999;stroke-linecap:butt;stroke-linejoin:miter;stroke-miterlimit:4;stroke-opacity:1;stroke-dasharray:none"
               d="m -1968.1124,1049.5161 c 14.6773,-8.4152 25.1622,13.1863 10.2629,20.9719"
               id="path3365"
               inkscape:connector-curvature="0"
               sodipodi:nodetypes="cc" />
            <path
               style="fill:none;stroke:#000000;stroke-width:2.7349999;stroke-linecap:butt;stroke-linejoin:miter;stroke-miterlimit:4;stroke-opacity:1;stroke-dasharray:none"
               d="m -1955.435,1049.8874 c 0.024,5.0539 -1.5228,9.7452 -12.3053,12.3053"
               id="path3367"
               inkscape:connector-curvature="0"
               sodipodi:nodetypes="cc" />
            <path
               sodipodi:nodetypes="cccc"
               inkscape:connector-curvature="0"
               id="path3447"
               d="m -2018.6987,1126.4691 5.2061,58.2133 c 4.439,-1.5693 10.2337,-7.7338 15.3027,-12.6208 l -12.1475,-48.2744"
               style="fill:url(#linearGradient10521);fill-opacity:1;stroke:none" />
            <path
               inkscape:connector-curvature="0"
               id="path4231"
               d="m -1902.646,1091.1483 c -2.41,0.2067 -4.3458,2.7465 -3.9063,5.125 0,0 6.7483,38.1592 -27.1562,57.1875 -8.6639,4.8625 -17.7713,8.0984 -26.5589,10.2171 -8.7875,2.1188 -17.2553,3.1203 -24.6401,3.5141 -7.3848,0.3937 -13.6866,0.1797 -18.1423,-0.1328 -1.0229,4.4869 -1.4596,5.4082 -0.5123,9.1707 24.4907,1.6267 51.6851,-3.0247 74.1036,-15.1754 38.7004,-21.7199 31.4687,-66.2187 31.4687,-66.2187 -0.3248,-2.1548 -2.4843,-3.865 -4.6562,-3.6875 z"
               style="font-size:medium;font-style:normal;font-variant:normal;font-weight:normal;font-stretch:normal;text-indent:0;text-align:start;text-decoration:none;line-height:normal;letter-spacing:normal;word-spacing:normal;text-transform:none;direction:ltr;block-progression:tb;writing-mode:lr-tb;text-anchor:start;baseline-shift:baseline;opacity:0.57551018;color:#000000;fill:url(#linearGradient10523);fill-opacity:1;stroke:none;stroke-width:8.69999981;marker:none;visibility:visible;display:inline;overflow:visible;enable-background:accumulate;font-family:Sans;-inkscape-font-specification:Sans"
               sodipodi:nodetypes="ccsssccccc" />
            <path
               style="fill:#502d16;fill-opacity:1;stroke:none"
               d="m -2018.6987,1122.9984 7.888,56.4779 17.7378,19.4548 13.8141,0.7384 7.5725,-26.5036 -28.3968,-9.4655 -5.6793,-42.2796"
               id="path3441"
               inkscape:connector-curvature="0"
               sodipodi:nodetypes="ccccccc" />
            <path
               style="fill:none;stroke:#000000;stroke-width:2.17000008;stroke-linecap:butt;stroke-linejoin:miter;stroke-miterlimit:4;stroke-opacity:1;stroke-dasharray:none"
               d="m -1999.7675,1181.3694 8.2035,10.0966 14.8294,1.8932"
               id="path3443"
               inkscape:connector-curvature="0" />
            <path
               style="fill:none;stroke:#000000;stroke-width:2.17000008;stroke-linecap:butt;stroke-linejoin:miter;stroke-miterlimit:4;stroke-opacity:1;stroke-dasharray:none"
               d="m -1994.7192,1175.6901 6.6259,5.0483 13.2518,2.8397"
               id="path3445"
               inkscape:connector-curvature="0" />
            <path
               style="fill:#502d16;fill-opacity:1;stroke:none"
               d="m -2018.3832,1184.8401 1.8931,22.4019 38.8089,1.8931 1.8931,16.407 -55.2158,0.6311 0,-43.8572 z"
               id="path4241-8"
               inkscape:connector-curvature="0"
               sodipodi:nodetypes="ccccccc" />
            <path
               style="fill:none;stroke:#000000;stroke-width:2.17000008;stroke-linecap:butt;stroke-linejoin:miter;stroke-miterlimit:4;stroke-opacity:1;stroke-dasharray:none"
               d="m -2022.1694,1215.13 27.4502,0.3155 0.3155,9.7811"
               id="path4243-5"
               inkscape:connector-curvature="0"
               sodipodi:nodetypes="ccc" />
            <path
               sodipodi:nodetypes="ccccccc"
               inkscape:connector-curvature="0"
               id="path4245"
               d="m -2042.8359,1184.8401 -1.8931,22.4019 -38.8089,1.8931 -1.8931,16.407 55.2159,0.6311 0,-43.8572 z"
               style="fill:#502d16;fill-opacity:1;stroke:none" />
            <path
               sodipodi:nodetypes="ccc"
               inkscape:connector-curvature="0"
               id="path4247"
               d="m -2039.0497,1215.13 -27.4501,0.3155 -0.3156,9.7811"
               style="fill:none;stroke:#000000;stroke-width:2.17000008;stroke-linecap:butt;stroke-linejoin:miter;stroke-miterlimit:4;stroke-opacity:1;stroke-dasharray:none" />
            <path
               style="fill:none;stroke:#000000;stroke-width:2.17000008;stroke-linecap:butt;stroke-linejoin:miter;stroke-miterlimit:4;stroke-opacity:1;stroke-dasharray:none"
               d="m -2030.2151,1226.3309 0,-41.333"
               id="path4249"
               inkscape:connector-curvature="0" />
          </g>
        </g>
      </g>
      <rect
         y="16.503397"
         x="-15171.796"
         height="1027.4425"
         width="1023.3555"
         id="rect5661"
         style="fill:none;stroke:none" />
    </g>
  </g>
</svg>
