<?xml version="1.0" encoding="UTF-8" standalone="no"?>
<!-- Created with Inkscape (http://www.inkscape.org/) -->

<svg
   xmlns:dc="http://purl.org/dc/elements/1.1/"
   xmlns:cc="http://creativecommons.org/ns#"
   xmlns:rdf="http://www.w3.org/1999/02/22-rdf-syntax-ns#"
   xmlns:svg="http://www.w3.org/2000/svg"
   xmlns="http://www.w3.org/2000/svg"
   xmlns:xlink="http://www.w3.org/1999/xlink"
   xmlns:sodipodi="http://sodipodi.sourceforge.net/DTD/sodipodi-0.dtd"
   xmlns:inkscape="http://www.inkscape.org/namespaces/inkscape"
   width="1351.74"
   height="1351.7388"
   id="svg2"
   version="1.1"
   inkscape:version="0.48.3.1 r9886"
   sodipodi:docname="m.svg">
  <defs
     id="defs4">
    <linearGradient
       id="linearGradient3265-7"
       inkscape:collect="always">
      <stop
         id="stop3267-6"
         offset="0"
         style="stop-color:#a0692f;stop-opacity:1;" />
      <stop
         id="stop3269-0"
         offset="1"
         style="stop-color:#a0692f;stop-opacity:0;" />
    </linearGradient>
    <linearGradient
       inkscape:collect="always"
       xlink:href="#linearGradient3265-7"
       id="linearGradient4849"
       gradientUnits="userSpaceOnUse"
       gradientTransform="matrix(1.9601035,0,0,1.9601035,-1268.7026,1291.2843)"
       x1="1128.5424"
       y1="-358.21252"
       x2="1128.5"
       y2="-350.88782" />
    <linearGradient
       inkscape:collect="always"
       xlink:href="#linearGradient3265-7"
       id="linearGradient4855"
       gradientUnits="userSpaceOnUse"
       gradientTransform="matrix(-1.9601035,0,0,1.9601035,3084.4205,1291.2843)"
       x1="1128.5424"
       y1="-358.21252"
       x2="1128.5"
       y2="-350.88782" />
    <linearGradient
       id="linearGradient3265-7-8"
       inkscape:collect="always">
      <stop
         id="stop3267-6-3"
         offset="0"
         style="stop-color:#a0692f;stop-opacity:1;" />
      <stop
         id="stop3269-0-6"
         offset="1"
         style="stop-color:#a0692f;stop-opacity:0;" />
    </linearGradient>
    <linearGradient
       y2="-435.80673"
       x2="919.21014"
       y1="-434.2847"
       x1="987.61987"
       gradientTransform="matrix(0.64156397,0,0,0.64156397,-240.46334,1048.4872)"
       gradientUnits="userSpaceOnUse"
       id="linearGradient3738"
       xlink:href="#linearGradient4094-1"
       inkscape:collect="always" />
    <linearGradient
       id="linearGradient4094-1">
      <stop
         id="stop4096-9"
         offset="0"
         style="stop-color:#52676c;stop-opacity:1;" />
      <stop
         id="stop4098-2"
         offset="1"
         style="stop-color:#52676c;stop-opacity:0;" />
    </linearGradient>
    <linearGradient
       id="linearGradient3310"
       inkscape:collect="always">
      <stop
         id="stop3312"
         offset="0"
         style="stop-color:#0b2228;stop-opacity:1;" />
      <stop
         id="stop3314"
         offset="1"
         style="stop-color:#0b2228;stop-opacity:0;" />
    </linearGradient>
    <linearGradient
       id="linearGradient4122-9"
       inkscape:collect="always">
      <stop
         id="stop4124-7"
         offset="0"
         style="stop-color:#1c2224;stop-opacity:1;" />
      <stop
         id="stop4126-6"
         offset="1"
         style="stop-color:#1c2224;stop-opacity:0" />
    </linearGradient>
    <linearGradient
       inkscape:collect="always"
       xlink:href="#linearGradient3310"
       id="linearGradient6795"
       gradientUnits="userSpaceOnUse"
       x1="1748.3407"
       y1="-227.81718"
       x2="1759.3722"
       y2="-149.25218" />
    <linearGradient
       inkscape:collect="always"
       xlink:href="#linearGradient4122-9"
       id="linearGradient6814"
       gradientUnits="userSpaceOnUse"
       gradientTransform="matrix(0.76362355,0,0,0.76362355,-529.2141,788.2198)"
       x1="1627.4237"
       y1="-275.98389"
       x2="1568.8258"
       y2="-208.25383" />
    <linearGradient
       inkscape:collect="always"
       id="linearGradient4871">
      <stop
         style="stop-color:#241c1f;stop-opacity:0.37777778"
         offset="0"
         id="stop4873" />
      <stop
         style="stop-color:#241c1f;stop-opacity:0;"
         offset="1"
         id="stop4875" />
    </linearGradient>
    <radialGradient
       inkscape:collect="always"
       xlink:href="#linearGradient4871"
       id="radialGradient4631"
       gradientUnits="userSpaceOnUse"
       gradientTransform="matrix(1.6682146,1.6471163,-0.88417937,0.89550496,-1046.6412,-1706.4218)"
       cx="1014.4006"
       cy="-408.6366"
       fx="1014.4006"
       fy="-408.6366"
       r="120.84957" />
    <linearGradient
       y2="-341.95212"
       x2="1033.103"
       y1="-312.79977"
       x1="1033.9359"
       gradientUnits="userSpaceOnUse"
       id="linearGradient4392"
       xlink:href="#linearGradient3219"
       inkscape:collect="always" />
    <linearGradient
       y2="-341.95212"
       x2="1033.103"
       y1="-312.79977"
       x1="1033.9359"
       gradientUnits="userSpaceOnUse"
       id="linearGradient4390"
       xlink:href="#linearGradient3209"
       inkscape:collect="always" />
    <linearGradient
       inkscape:collect="always"
       id="linearGradient3219">
      <stop
         style="stop-color:#3e4837;stop-opacity:1"
         offset="0"
         id="stop3221" />
      <stop
         style="stop-color:#e5ffd5;stop-opacity:0;"
         offset="1"
         id="stop3223" />
    </linearGradient>
    <linearGradient
       id="linearGradient3209"
       inkscape:collect="always">
      <stop
         id="stop3211"
         offset="0"
         style="stop-color:#3e4837;stop-opacity:1" />
      <stop
         id="stop3213"
         offset="1"
         style="stop-color:#e5ffd5;stop-opacity:0;" />
    </linearGradient>
    <linearGradient
       y2="-299.90375"
       x2="1731.0365"
       y1="-347.02103"
       x1="1621.358"
       gradientTransform="matrix(1.3519879,0,0,1.3519879,-2458.2999,1401.0995)"
       gradientUnits="userSpaceOnUse"
       id="linearGradient4525"
       xlink:href="#linearGradient4136"
       inkscape:collect="always" />
    <linearGradient
       id="linearGradient4136"
       inkscape:collect="always">
      <stop
         id="stop4138"
         offset="0"
         style="stop-color:#000000;stop-opacity:1" />
      <stop
         id="stop4140"
         offset="1"
         style="stop-color:#2b1100;stop-opacity:0;" />
    </linearGradient>
    <linearGradient
       id="linearGradient3449"
       inkscape:collect="always">
      <stop
         id="stop3451"
         offset="0"
         style="stop-color:#000000;stop-opacity:1;" />
      <stop
         id="stop3453"
         offset="1"
         style="stop-color:#000000;stop-opacity:0;" />
    </linearGradient>
    <linearGradient
       id="linearGradient4233"
       inkscape:collect="always">
      <stop
         id="stop4235"
         offset="0"
         style="stop-color:#000000;stop-opacity:1;" />
      <stop
         id="stop4237"
         offset="1"
         style="stop-color:#000000;stop-opacity:0;" />
    </linearGradient>
    <linearGradient
       id="linearGradient4283"
       inkscape:collect="always">
      <stop
         id="stop4285"
         offset="0"
         style="stop-color:#2b1100;stop-opacity:1;" />
      <stop
         id="stop4287"
         offset="1"
         style="stop-color:#2b1100;stop-opacity:0;" />
    </linearGradient>
    <linearGradient
       inkscape:collect="always"
       xlink:href="#linearGradient4283"
       id="linearGradient6031"
       gradientUnits="userSpaceOnUse"
       gradientTransform="translate(-2538.9898,1459.867)"
       x1="503.56857"
       y1="-348.85837"
       x2="512.40308"
       y2="-335.29108" />
    <linearGradient
       inkscape:collect="always"
       xlink:href="#linearGradient3449"
       id="linearGradient6033"
       gradientUnits="userSpaceOnUse"
       gradientTransform="translate(-2538.9898,1459.867)"
       x1="535.43597"
       y1="-304.05469"
       x2="522.1842"
       y2="-302.79257" />
    <linearGradient
       inkscape:collect="always"
       xlink:href="#linearGradient4233"
       id="linearGradient6035"
       gradientUnits="userSpaceOnUse"
       gradientTransform="translate(-2538.9898,1459.867)"
       x1="492.84091"
       y1="-285.43903"
       x2="581.34399"
       y2="-291.27615" />
    <linearGradient
       id="linearGradient4817"
       inkscape:collect="always">
      <stop
         id="stop4819"
         offset="0"
         style="stop-color:#917c6f;stop-opacity:1;" />
      <stop
         id="stop4821"
         offset="1"
         style="stop-color:#2b1100;stop-opacity:1" />
    </linearGradient>
    <linearGradient
       inkscape:collect="always"
       id="linearGradient5172">
      <stop
         style="stop-color:#502d16;stop-opacity:1;"
         offset="0"
         id="stop5174" />
      <stop
         style="stop-color:#917c6f;stop-opacity:1"
         offset="1"
         id="stop5176" />
    </linearGradient>
    <linearGradient
       id="linearGradient5181">
      <stop
         id="stop5183"
         offset="0"
         style="stop-color:#907b6e;stop-opacity:1" />
      <stop
         style="stop-color:#7a6356;stop-opacity:1;"
         offset="0.75249761"
         id="stop5191" />
      <stop
         style="stop-color:#644c3e;stop-opacity:1;"
         offset="0.812451"
         id="stop5189" />
      <stop
         id="stop5185"
         offset="1"
         style="stop-color:#381e0e;stop-opacity:1" />
    </linearGradient>
    <linearGradient
       inkscape:collect="always"
       id="linearGradient5193">
      <stop
         style="stop-color:#826c5f;stop-opacity:1"
         offset="0"
         id="stop5195" />
      <stop
         style="stop-color:#502d16;stop-opacity:1"
         offset="1"
         id="stop5197" />
    </linearGradient>
    <linearGradient
       inkscape:collect="always"
       xlink:href="#linearGradient4817"
       id="linearGradient5870"
       gradientUnits="userSpaceOnUse"
       gradientTransform="matrix(0.89679722,0,0,0.89679722,-2045.7805,1424)"
       x1="660.06604"
       y1="-501.25412"
       x2="616.52441"
       y2="-327.7186" />
    <linearGradient
       inkscape:collect="always"
       xlink:href="#linearGradient5181"
       id="linearGradient5872"
       gradientUnits="userSpaceOnUse"
       gradientTransform="translate(-1159.9752,1449.158)"
       x1="-276.65112"
       y1="-462.97198"
       x2="-282.89807"
       y2="-279.57907" />
    <linearGradient
       inkscape:collect="always"
       xlink:href="#linearGradient5172"
       id="linearGradient5874"
       gradientUnits="userSpaceOnUse"
       gradientTransform="matrix(0.89679722,0,0,0.89679722,-2045.7805,1424)"
       x1="533.96741"
       y1="-432.47049"
       x2="555.86011"
       y2="-240.41187" />
    <linearGradient
       inkscape:collect="always"
       xlink:href="#linearGradient4817"
       id="linearGradient5876"
       gradientUnits="userSpaceOnUse"
       gradientTransform="matrix(0.82173933,0,0,0.82173933,-2014.5348,1366.3891)"
       x1="626.62103"
       y1="-258.30438"
       x2="602.01056"
       y2="-402.81216" />
    <linearGradient
       inkscape:collect="always"
       xlink:href="#linearGradient5193"
       id="linearGradient5878"
       gradientUnits="userSpaceOnUse"
       gradientTransform="matrix(0.89679722,0,0,0.89679722,-2020.1702,1428.0016)"
       x1="564.45752"
       y1="-396.48645"
       x2="567.13477"
       y2="-318.39944" />
    <linearGradient
       id="linearGradient3338"
       inkscape:collect="always">
      <stop
         id="stop3340"
         offset="0"
         style="stop-color:#beb7c8;stop-opacity:1;" />
      <stop
         id="stop3342"
         offset="1"
         style="stop-color:#5d536c;stop-opacity:1" />
    </linearGradient>
    <linearGradient
       inkscape:collect="always"
       id="linearGradient3360">
      <stop
         style="stop-color:#474052;stop-opacity:1"
         offset="0"
         id="stop3362" />
      <stop
         style="stop-color:#5d536c;stop-opacity:1"
         offset="1"
         id="stop3364" />
    </linearGradient>
    <linearGradient
       inkscape:collect="always"
       id="linearGradient3380">
      <stop
         style="stop-color:#857c92;stop-opacity:1"
         offset="0"
         id="stop3382" />
      <stop
         style="stop-color:#5d536c;stop-opacity:1"
         offset="1"
         id="stop3384" />
    </linearGradient>
    <linearGradient
       id="linearGradient3394"
       inkscape:collect="always">
      <stop
         id="stop3396"
         offset="0"
         style="stop-color:#675d76;stop-opacity:1" />
      <stop
         id="stop3398"
         offset="1"
         style="stop-color:#5d536c;stop-opacity:1" />
    </linearGradient>
    <linearGradient
       inkscape:collect="always"
       xlink:href="#linearGradient3394"
       id="linearGradient5534"
       gradientUnits="userSpaceOnUse"
       gradientTransform="translate(-1035.7984,1460.497)"
       x1="548.9787"
       y1="-310.0397"
       x2="511.74536"
       y2="-309.25769" />
    <linearGradient
       inkscape:collect="always"
       xlink:href="#linearGradient3380"
       id="linearGradient5539"
       gradientUnits="userSpaceOnUse"
       gradientTransform="translate(-1104.5149,1460.497)"
       x1="549.00745"
       y1="-310.31183"
       x2="511.80453"
       y2="-309.47519" />
    <radialGradient
       inkscape:collect="always"
       xlink:href="#linearGradient3338"
       id="radialGradient5551"
       gradientUnits="userSpaceOnUse"
       gradientTransform="matrix(0.51554821,-0.84568081,1.1288979,0.68820444,-643.46887,1694.073)"
       cx="423.07739"
       cy="-187.4471"
       fx="423.07739"
       fy="-187.4471"
       r="166.84651" />
    <linearGradient
       inkscape:collect="always"
       xlink:href="#linearGradient3360"
       id="linearGradient5555"
       gradientUnits="userSpaceOnUse"
       gradientTransform="translate(-1124.2237,1458.7504)"
       x1="452.13895"
       y1="-403.7587"
       x2="425.63535"
       y2="-424.26743" />
    <linearGradient
       inkscape:collect="always"
       xlink:href="#linearGradient3360"
       id="linearGradient5558"
       gradientUnits="userSpaceOnUse"
       gradientTransform="translate(-1124.2237,1458.7504)"
       x1="452.13895"
       y1="-403.7587"
       x2="425.63535"
       y2="-424.26743" />
    <linearGradient
       id="linearGradient4274">
      <stop
         id="stop4276"
         offset="0"
         style="stop-color:#241c1c;stop-opacity:1" />
      <stop
         style="stop-color:#483737;stop-opacity:1;"
         offset="0.15879123"
         id="stop4286" />
      <stop
         style="stop-color:#544141;stop-opacity:1"
         offset="0.50204235"
         id="stop4282" />
      <stop
         id="stop4284"
         offset="0.75"
         style="stop-color:#483737;stop-opacity:1;" />
      <stop
         id="stop4278"
         offset="1"
         style="stop-color:#241c1c;stop-opacity:1" />
    </linearGradient>
    <linearGradient
       id="linearGradient4300"
       inkscape:collect="always">
      <stop
         id="stop4302"
         offset="0"
         style="stop-color:#513f3f;stop-opacity:1" />
      <stop
         id="stop4304"
         offset="1"
         style="stop-color:#916f6f;stop-opacity:1" />
    </linearGradient>
    <linearGradient
       id="linearGradient4338"
       inkscape:collect="always">
      <stop
         id="stop4340"
         offset="0"
         style="stop-color:#5a4545;stop-opacity:1" />
      <stop
         id="stop4342"
         offset="1"
         style="stop-color:#6c5353;stop-opacity:1" />
    </linearGradient>
    <linearGradient
       inkscape:collect="always"
       xlink:href="#linearGradient4338"
       id="linearGradient5824"
       gradientUnits="userSpaceOnUse"
       gradientTransform="matrix(1.1870923,0,0,1.1870923,557.10763,972.51967)"
       x1="506.36237"
       y1="-254.24303"
       x2="505.8338"
       y2="-219.35794" />
    <linearGradient
       inkscape:collect="always"
       xlink:href="#linearGradient4300"
       id="linearGradient5826"
       gradientUnits="userSpaceOnUse"
       gradientTransform="matrix(0.83444929,0,0,0.83444929,695.02334,866.91126)"
       x1="521.0072"
       y1="-422.45435"
       x2="521.0072"
       y2="-338.73444" />
    <linearGradient
       inkscape:collect="always"
       xlink:href="#linearGradient4274"
       id="linearGradient5828"
       gradientUnits="userSpaceOnUse"
       gradientTransform="matrix(0.83444929,0,0,0.83444929,741.18088,866.91126)"
       x1="536.79242"
       y1="-366.81332"
       x2="556.42566"
       y2="-324.86945" />
    <linearGradient
       y2="-301.63974"
       x2="535.34979"
       y1="-301.92004"
       x1="538.38654"
       gradientTransform="translate(-25.414983,34.384977)"
       gradientUnits="userSpaceOnUse"
       id="linearGradient5544"
       xlink:href="#linearGradient3146"
       inkscape:collect="always" />
    <filter
       height="1.0499389"
       y="-0.024969444"
       width="1.3299154"
       x="-0.16495769"
       id="filter3938"
       inkscape:collect="always"
       color-interpolation-filters="sRGB">
      <feGaussianBlur
         id="feGaussianBlur3940"
         stdDeviation="0.60368467"
         inkscape:collect="always" />
    </filter>
    <linearGradient
       id="linearGradient3146"
       inkscape:collect="always">
      <stop
         id="stop3148"
         offset="0"
         style="stop-color:#1c1c24;stop-opacity:1;" />
      <stop
         id="stop3150"
         offset="1"
         style="stop-color:#1c1c24;stop-opacity:0;" />
    </linearGradient>
    <linearGradient
       y2="-254.24301"
       x2="132.40479"
       y1="-254.24301"
       x1="159.62572"
       gradientTransform="translate(-47.042016,6.3427437)"
       gradientUnits="userSpaceOnUse"
       id="linearGradient4078"
       xlink:href="#linearGradient3139"
       inkscape:collect="always" />
    <linearGradient
       y2="-408.62561"
       x2="159.96489"
       y1="-417.59561"
       x1="192.85487"
       gradientTransform="translate(-63.427437,6.3427437)"
       gradientUnits="userSpaceOnUse"
       id="linearGradient4076"
       xlink:href="#linearGradient3117"
       inkscape:collect="always" />
    <linearGradient
       y2="-408.62561"
       x2="159.96489"
       y1="-417.59561"
       x1="192.85487"
       gradientTransform="matrix(1.6191115,1.2420631,-1.2420631,1.6191115,-653.89128,220.57021)"
       gradientUnits="userSpaceOnUse"
       id="linearGradient4074"
       xlink:href="#linearGradient3117"
       inkscape:collect="always" />
    <filter
       height="1.1221315"
       y="-0.061065737"
       width="1.2091677"
       x="-0.10458386"
       id="filter3915"
       inkscape:collect="always"
       color-interpolation-filters="sRGB">
      <feGaussianBlur
         id="feGaussianBlur3917"
         stdDeviation="2.0038655"
         inkscape:collect="always" />
    </filter>
    <linearGradient
       id="linearGradient3117"
       inkscape:collect="always">
      <stop
         id="stop3119"
         offset="0"
         style="stop-color:#aa4400;stop-opacity:1;" />
      <stop
         id="stop3121"
         offset="1"
         style="stop-color:#783000;stop-opacity:1" />
    </linearGradient>
    <linearGradient
       id="linearGradient3139"
       inkscape:collect="always">
      <stop
         id="stop3141"
         offset="0"
         style="stop-color:#2b1100;stop-opacity:1;" />
      <stop
         id="stop3143"
         offset="1"
         style="stop-color:#2b1100;stop-opacity:0;" />
    </linearGradient>
    <filter
       height="1.4686061"
       y="-0.23430306"
       width="1.4207194"
       x="-0.21035969"
       id="filter3967"
       inkscape:collect="always"
       color-interpolation-filters="sRGB">
      <feGaussianBlur
         id="feGaussianBlur3969"
         stdDeviation="5.8948044"
         inkscape:collect="always" />
    </filter>
    <linearGradient
       id="linearGradient3911"
       inkscape:collect="always">
      <stop
         id="stop3913"
         offset="0"
         style="stop-color:#241c1c;stop-opacity:1" />
      <stop
         id="stop3915"
         offset="1"
         style="stop-color:#784421;stop-opacity:0;" />
    </linearGradient>
    <linearGradient
       id="linearGradient3971"
       inkscape:collect="always">
      <stop
         id="stop3973"
         offset="0"
         style="stop-color:#917c6f;stop-opacity:1;" />
      <stop
         id="stop3975"
         offset="1"
         style="stop-color:#28170b;stop-opacity:1" />
    </linearGradient>
    <linearGradient
       inkscape:collect="always"
       xlink:href="#linearGradient3911"
       id="linearGradient3762"
       gradientUnits="userSpaceOnUse"
       gradientTransform="translate(0,-16.661873)"
       x1="519.29504"
       y1="-260.8017"
       x2="508.18713"
       y2="-300.37363" />
    <linearGradient
       inkscape:collect="always"
       xlink:href="#linearGradient3971"
       id="linearGradient3786"
       gradientUnits="userSpaceOnUse"
       gradientTransform="matrix(0.9140942,0,0,0.9140942,290.747,786.33643)"
       x1="441.53964"
       y1="-273.2981"
       x2="511.65836"
       y2="-286.14163" />
    <linearGradient
       id="linearGradient3578"
       inkscape:collect="always">
      <stop
         id="stop3580"
         offset="0"
         style="stop-color:#1f1c24;stop-opacity:1;" />
      <stop
         id="stop3582"
         offset="1"
         style="stop-color:#1f1c24;stop-opacity:0;" />
    </linearGradient>
    <linearGradient
       id="linearGradient3604"
       inkscape:collect="always">
      <stop
         id="stop3606"
         offset="0"
         style="stop-color:#211e26;stop-opacity:1;" />
      <stop
         id="stop3608"
         offset="1"
         style="stop-color:#211e26;stop-opacity:0;" />
    </linearGradient>
    <linearGradient
       inkscape:collect="always"
       xlink:href="#linearGradient3578"
       id="linearGradient3958"
       gradientUnits="userSpaceOnUse"
       gradientTransform="matrix(1.1100531,0,0,1.1100531,2863.0486,903.46763)"
       x1="-1887.6512"
       y1="-315.29987"
       x2="-1887.4778"
       y2="-254.37988" />
    <linearGradient
       inkscape:collect="always"
       xlink:href="#linearGradient3604"
       id="linearGradient3967"
       gradientUnits="userSpaceOnUse"
       gradientTransform="matrix(1.1100531,0,0,1.1100531,2931.5428,903.46763)"
       x1="-1801.6218"
       y1="-327.32669"
       x2="-1798.4309"
       y2="-249.51823" />
    <linearGradient
       inkscape:collect="always"
       xlink:href="#linearGradient3265-7-8"
       id="linearGradient6694"
       gradientUnits="userSpaceOnUse"
       gradientTransform="matrix(-1.9601035,0,0,1.9601035,3084.4205,1291.2843)"
       x1="1128.5424"
       y1="-358.21252"
       x2="1128.5"
       y2="-350.88782" />
    <linearGradient
       inkscape:collect="always"
       xlink:href="#linearGradient3265-7-8"
       id="linearGradient6696"
       gradientUnits="userSpaceOnUse"
       gradientTransform="matrix(1.9601035,0,0,1.9601035,-1268.7026,1291.2843)"
       x1="1128.5424"
       y1="-358.21252"
       x2="1128.5"
       y2="-350.88782" />
    <linearGradient
       inkscape:collect="always"
       xlink:href="#linearGradient3265-7-8"
       id="linearGradient9421"
       gradientUnits="userSpaceOnUse"
       gradientTransform="matrix(-1.9601035,0,0,1.9601035,3084.4205,1291.2843)"
       x1="1128.5424"
       y1="-358.21252"
       x2="1128.5"
       y2="-350.88782" />
    <linearGradient
       inkscape:collect="always"
       xlink:href="#linearGradient3265-7-8"
       id="linearGradient9423"
       gradientUnits="userSpaceOnUse"
       gradientTransform="matrix(1.9601035,0,0,1.9601035,-1268.7026,1291.2843)"
       x1="1128.5424"
       y1="-358.21252"
       x2="1128.5"
       y2="-350.88782" />
    <linearGradient
       inkscape:collect="always"
       xlink:href="#linearGradient4094-1"
       id="linearGradient9425"
       gradientUnits="userSpaceOnUse"
       gradientTransform="matrix(0.64156397,0,0,0.64156397,-240.46334,1048.4872)"
       x1="987.61987"
       y1="-434.2847"
       x2="919.21014"
       y2="-435.80673" />
    <linearGradient
       inkscape:collect="always"
       xlink:href="#linearGradient4122-9"
       id="linearGradient9427"
       gradientUnits="userSpaceOnUse"
       gradientTransform="matrix(0.76362355,0,0,0.76362355,-529.2141,788.2198)"
       x1="1627.4237"
       y1="-275.98389"
       x2="1568.8258"
       y2="-208.25383" />
    <linearGradient
       inkscape:collect="always"
       xlink:href="#linearGradient3310"
       id="linearGradient9429"
       gradientUnits="userSpaceOnUse"
       x1="1748.3407"
       y1="-227.81718"
       x2="1759.3722"
       y2="-149.25218" />
    <radialGradient
       inkscape:collect="always"
       xlink:href="#linearGradient4871"
       id="radialGradient9431"
       gradientUnits="userSpaceOnUse"
       gradientTransform="matrix(1.6682146,1.6471163,-0.88417937,0.89550496,-1046.6412,-1706.4218)"
       cx="1014.4006"
       cy="-408.6366"
       fx="1014.4006"
       fy="-408.6366"
       r="120.84957" />
    <linearGradient
       inkscape:collect="always"
       xlink:href="#linearGradient3209"
       id="linearGradient9433"
       gradientUnits="userSpaceOnUse"
       x1="1033.9359"
       y1="-312.79977"
       x2="1033.103"
       y2="-341.95212" />
    <linearGradient
       inkscape:collect="always"
       xlink:href="#linearGradient3219"
       id="linearGradient9435"
       gradientUnits="userSpaceOnUse"
       x1="1033.9359"
       y1="-312.79977"
       x2="1033.103"
       y2="-341.95212" />
    <linearGradient
       inkscape:collect="always"
       xlink:href="#linearGradient4136"
       id="linearGradient9437"
       gradientUnits="userSpaceOnUse"
       gradientTransform="matrix(1.3519879,0,0,1.3519879,-2458.2999,1401.0995)"
       x1="1621.358"
       y1="-347.02103"
       x2="1731.0365"
       y2="-299.90375" />
    <linearGradient
       inkscape:collect="always"
       xlink:href="#linearGradient4283"
       id="linearGradient9439"
       gradientUnits="userSpaceOnUse"
       gradientTransform="translate(-2538.9898,1459.867)"
       x1="503.56857"
       y1="-348.85837"
       x2="512.40308"
       y2="-335.29108" />
    <linearGradient
       inkscape:collect="always"
       xlink:href="#linearGradient3449"
       id="linearGradient9441"
       gradientUnits="userSpaceOnUse"
       gradientTransform="translate(-2538.9898,1459.867)"
       x1="535.43597"
       y1="-304.05469"
       x2="522.1842"
       y2="-302.79257" />
    <linearGradient
       inkscape:collect="always"
       xlink:href="#linearGradient4233"
       id="linearGradient9443"
       gradientUnits="userSpaceOnUse"
       gradientTransform="translate(-2538.9898,1459.867)"
       x1="492.84091"
       y1="-285.43903"
       x2="581.34399"
       y2="-291.27615" />
    <linearGradient
       inkscape:collect="always"
       xlink:href="#linearGradient4817"
       id="linearGradient9445"
       gradientUnits="userSpaceOnUse"
       gradientTransform="matrix(0.89679722,0,0,0.89679722,-2045.7805,1424)"
       x1="660.06604"
       y1="-501.25412"
       x2="616.52441"
       y2="-327.7186" />
    <linearGradient
       inkscape:collect="always"
       xlink:href="#linearGradient5181"
       id="linearGradient9447"
       gradientUnits="userSpaceOnUse"
       gradientTransform="translate(-1159.9752,1449.158)"
       x1="-276.65112"
       y1="-462.97198"
       x2="-282.89807"
       y2="-279.57907" />
    <linearGradient
       inkscape:collect="always"
       xlink:href="#linearGradient5172"
       id="linearGradient9449"
       gradientUnits="userSpaceOnUse"
       gradientTransform="matrix(0.89679722,0,0,0.89679722,-2045.7805,1424)"
       x1="533.96741"
       y1="-432.47049"
       x2="555.86011"
       y2="-240.41187" />
    <linearGradient
       inkscape:collect="always"
       xlink:href="#linearGradient4817"
       id="linearGradient9451"
       gradientUnits="userSpaceOnUse"
       gradientTransform="matrix(0.82173933,0,0,0.82173933,-2014.5348,1366.3891)"
       x1="626.62103"
       y1="-258.30438"
       x2="602.01056"
       y2="-402.81216" />
    <linearGradient
       inkscape:collect="always"
       xlink:href="#linearGradient5193"
       id="linearGradient9453"
       gradientUnits="userSpaceOnUse"
       gradientTransform="matrix(0.89679722,0,0,0.89679722,-2020.1702,1428.0016)"
       x1="564.45752"
       y1="-396.48645"
       x2="567.13477"
       y2="-318.39944" />
    <linearGradient
       inkscape:collect="always"
       xlink:href="#linearGradient3360"
       id="linearGradient9455"
       gradientUnits="userSpaceOnUse"
       gradientTransform="translate(-1124.2237,1458.7504)"
       x1="452.13895"
       y1="-403.7587"
       x2="425.63535"
       y2="-424.26743" />
    <linearGradient
       inkscape:collect="always"
       xlink:href="#linearGradient3360"
       id="linearGradient9457"
       gradientUnits="userSpaceOnUse"
       gradientTransform="translate(-1124.2237,1458.7504)"
       x1="452.13895"
       y1="-403.7587"
       x2="425.63535"
       y2="-424.26743" />
    <radialGradient
       inkscape:collect="always"
       xlink:href="#linearGradient3338"
       id="radialGradient9459"
       gradientUnits="userSpaceOnUse"
       gradientTransform="matrix(0.51554821,-0.84568081,1.1288979,0.68820444,-643.46887,1694.073)"
       cx="423.07739"
       cy="-187.4471"
       fx="423.07739"
       fy="-187.4471"
       r="166.84651" />
    <linearGradient
       inkscape:collect="always"
       xlink:href="#linearGradient3380"
       id="linearGradient9461"
       gradientUnits="userSpaceOnUse"
       gradientTransform="translate(-1104.5149,1460.497)"
       x1="549.00745"
       y1="-310.31183"
       x2="511.80453"
       y2="-309.47519" />
    <linearGradient
       inkscape:collect="always"
       xlink:href="#linearGradient3394"
       id="linearGradient9463"
       gradientUnits="userSpaceOnUse"
       gradientTransform="translate(-1035.7984,1460.497)"
       x1="548.9787"
       y1="-310.0397"
       x2="511.74536"
       y2="-309.25769" />
    <linearGradient
       inkscape:collect="always"
       xlink:href="#linearGradient4338"
       id="linearGradient9465"
       gradientUnits="userSpaceOnUse"
       gradientTransform="matrix(1.1870923,0,0,1.1870923,557.10763,972.51967)"
       x1="506.36237"
       y1="-254.24303"
       x2="505.8338"
       y2="-219.35794" />
    <linearGradient
       inkscape:collect="always"
       xlink:href="#linearGradient4300"
       id="linearGradient9467"
       gradientUnits="userSpaceOnUse"
       gradientTransform="matrix(0.83444929,0,0,0.83444929,695.02334,866.91126)"
       x1="521.0072"
       y1="-422.45435"
       x2="521.0072"
       y2="-338.73444" />
    <linearGradient
       inkscape:collect="always"
       xlink:href="#linearGradient4274"
       id="linearGradient9469"
       gradientUnits="userSpaceOnUse"
       gradientTransform="matrix(0.83444929,0,0,0.83444929,741.18088,866.91126)"
       x1="536.79242"
       y1="-366.81332"
       x2="556.42566"
       y2="-324.86945" />
    <linearGradient
       inkscape:collect="always"
       xlink:href="#linearGradient3146"
       id="linearGradient9471"
       gradientUnits="userSpaceOnUse"
       gradientTransform="translate(-25.414983,34.384977)"
       x1="538.38654"
       y1="-301.92004"
       x2="535.34979"
       y2="-301.63974" />
    <linearGradient
       inkscape:collect="always"
       xlink:href="#linearGradient3117"
       id="linearGradient9473"
       gradientUnits="userSpaceOnUse"
       gradientTransform="matrix(1.6191115,1.2420631,-1.2420631,1.6191115,-653.89128,220.57021)"
       x1="192.85487"
       y1="-417.59561"
       x2="159.96489"
       y2="-408.62561" />
    <linearGradient
       inkscape:collect="always"
       xlink:href="#linearGradient3117"
       id="linearGradient9475"
       gradientUnits="userSpaceOnUse"
       gradientTransform="translate(-63.427437,6.3427437)"
       x1="192.85487"
       y1="-417.59561"
       x2="159.96489"
       y2="-408.62561" />
    <linearGradient
       inkscape:collect="always"
       xlink:href="#linearGradient3139"
       id="linearGradient9477"
       gradientUnits="userSpaceOnUse"
       gradientTransform="translate(-47.042016,6.3427437)"
       x1="159.62572"
       y1="-254.24301"
       x2="132.40479"
       y2="-254.24301" />
    <linearGradient
       inkscape:collect="always"
       xlink:href="#linearGradient3971"
       id="linearGradient9479"
       gradientUnits="userSpaceOnUse"
       gradientTransform="matrix(0.9140942,0,0,0.9140942,290.747,786.33643)"
       x1="441.53964"
       y1="-273.2981"
       x2="511.65836"
       y2="-286.14163" />
    <linearGradient
       inkscape:collect="always"
       xlink:href="#linearGradient3911"
       id="linearGradient9481"
       gradientUnits="userSpaceOnUse"
       gradientTransform="translate(0,-16.661873)"
       x1="519.29504"
       y1="-260.8017"
       x2="508.18713"
       y2="-300.37363" />
    <linearGradient
       inkscape:collect="always"
       xlink:href="#linearGradient3604"
       id="linearGradient9483"
       gradientUnits="userSpaceOnUse"
       gradientTransform="matrix(1.1100531,0,0,1.1100531,2931.5428,903.46763)"
       x1="-1801.6218"
       y1="-327.32669"
       x2="-1798.4309"
       y2="-249.51823" />
    <linearGradient
       inkscape:collect="always"
       xlink:href="#linearGradient3578"
       id="linearGradient9485"
       gradientUnits="userSpaceOnUse"
       gradientTransform="matrix(1.1100531,0,0,1.1100531,2863.0486,903.46763)"
       x1="-1887.6512"
       y1="-315.29987"
       x2="-1887.4778"
       y2="-254.37988" />
    <linearGradient
       inkscape:collect="always"
       xlink:href="#linearGradient4817"
       id="linearGradient10572"
       gradientUnits="userSpaceOnUse"
       gradientTransform="matrix(0.89679722,0,0,0.89679722,-2045.7805,1424)"
       x1="660.06604"
       y1="-501.25412"
       x2="616.52441"
       y2="-327.7186" />
    <linearGradient
       inkscape:collect="always"
       xlink:href="#linearGradient5181"
       id="linearGradient10574"
       gradientUnits="userSpaceOnUse"
       gradientTransform="translate(-1159.9752,1449.158)"
       x1="-276.65112"
       y1="-462.97198"
       x2="-282.89807"
       y2="-279.57907" />
    <linearGradient
       inkscape:collect="always"
       xlink:href="#linearGradient5172"
       id="linearGradient10576"
       gradientUnits="userSpaceOnUse"
       gradientTransform="matrix(0.89679722,0,0,0.89679722,-2045.7805,1424)"
       x1="533.96741"
       y1="-432.47049"
       x2="555.86011"
       y2="-240.41187" />
    <linearGradient
       inkscape:collect="always"
       xlink:href="#linearGradient4817"
       id="linearGradient10578"
       gradientUnits="userSpaceOnUse"
       gradientTransform="matrix(0.82173933,0,0,0.82173933,-2014.5348,1366.3891)"
       x1="626.62103"
       y1="-258.30438"
       x2="602.01056"
       y2="-402.81216" />
    <linearGradient
       inkscape:collect="always"
       xlink:href="#linearGradient5193"
       id="linearGradient10580"
       gradientUnits="userSpaceOnUse"
       gradientTransform="matrix(0.89679722,0,0,0.89679722,-2020.1702,1428.0016)"
       x1="564.45752"
       y1="-396.48645"
       x2="567.13477"
       y2="-318.39944" />
    <linearGradient
       inkscape:collect="always"
       xlink:href="#linearGradient3360"
       id="linearGradient10582"
       gradientUnits="userSpaceOnUse"
       gradientTransform="translate(-1124.2237,1458.7504)"
       x1="452.13895"
       y1="-403.7587"
       x2="425.63535"
       y2="-424.26743" />
    <linearGradient
       inkscape:collect="always"
       xlink:href="#linearGradient3360"
       id="linearGradient10584"
       gradientUnits="userSpaceOnUse"
       gradientTransform="translate(-1124.2237,1458.7504)"
       x1="452.13895"
       y1="-403.7587"
       x2="425.63535"
       y2="-424.26743" />
    <radialGradient
       inkscape:collect="always"
       xlink:href="#linearGradient3338"
       id="radialGradient10586"
       gradientUnits="userSpaceOnUse"
       gradientTransform="matrix(0.51554821,-0.84568081,1.1288979,0.68820444,-643.46887,1694.073)"
       cx="423.07739"
       cy="-187.4471"
       fx="423.07739"
       fy="-187.4471"
       r="166.84651" />
    <linearGradient
       inkscape:collect="always"
       xlink:href="#linearGradient3380"
       id="linearGradient10588"
       gradientUnits="userSpaceOnUse"
       gradientTransform="translate(-1104.5149,1460.497)"
       x1="549.00745"
       y1="-310.31183"
       x2="511.80453"
       y2="-309.47519" />
    <linearGradient
       inkscape:collect="always"
       xlink:href="#linearGradient3394"
       id="linearGradient10590"
       gradientUnits="userSpaceOnUse"
       gradientTransform="translate(-1035.7984,1460.497)"
       x1="548.9787"
       y1="-310.0397"
       x2="511.74536"
       y2="-309.25769" />
    <linearGradient
       inkscape:collect="always"
       xlink:href="#linearGradient4338"
       id="linearGradient10592"
       gradientUnits="userSpaceOnUse"
       gradientTransform="matrix(1.1870923,0,0,1.1870923,557.10763,972.51967)"
       x1="506.36237"
       y1="-254.24303"
       x2="505.8338"
       y2="-219.35794" />
    <linearGradient
       inkscape:collect="always"
       xlink:href="#linearGradient4300"
       id="linearGradient10594"
       gradientUnits="userSpaceOnUse"
       gradientTransform="matrix(0.83444929,0,0,0.83444929,695.02334,866.91126)"
       x1="521.0072"
       y1="-422.45435"
       x2="521.0072"
       y2="-338.73444" />
    <linearGradient
       inkscape:collect="always"
       xlink:href="#linearGradient4274"
       id="linearGradient10596"
       gradientUnits="userSpaceOnUse"
       gradientTransform="matrix(0.83444929,0,0,0.83444929,741.18088,866.91126)"
       x1="536.79242"
       y1="-366.81332"
       x2="556.42566"
       y2="-324.86945" />
    <linearGradient
       inkscape:collect="always"
       xlink:href="#linearGradient3604"
       id="linearGradient10598"
       gradientUnits="userSpaceOnUse"
       gradientTransform="matrix(1.1100531,0,0,1.1100531,2931.5428,903.46763)"
       x1="-1801.6218"
       y1="-327.32669"
       x2="-1798.4309"
       y2="-249.51823" />
    <linearGradient
       inkscape:collect="always"
       xlink:href="#linearGradient3578"
       id="linearGradient10600"
       gradientUnits="userSpaceOnUse"
       gradientTransform="matrix(1.1100531,0,0,1.1100531,2863.0486,903.46763)"
       x1="-1887.6512"
       y1="-315.29987"
       x2="-1887.4778"
       y2="-254.37988" />
    <linearGradient
       inkscape:collect="always"
       xlink:href="#linearGradient3971"
       id="linearGradient10602"
       gradientUnits="userSpaceOnUse"
       gradientTransform="matrix(0.9140942,0,0,0.9140942,290.747,786.33643)"
       x1="441.53964"
       y1="-273.2981"
       x2="511.65836"
       y2="-286.14163" />
    <linearGradient
       inkscape:collect="always"
       xlink:href="#linearGradient3911"
       id="linearGradient10604"
       gradientUnits="userSpaceOnUse"
       gradientTransform="translate(0,-16.661873)"
       x1="519.29504"
       y1="-260.8017"
       x2="508.18713"
       y2="-300.37363" />
    <linearGradient
       inkscape:collect="always"
       xlink:href="#linearGradient3117"
       id="linearGradient10606"
       gradientUnits="userSpaceOnUse"
       gradientTransform="matrix(1.6191115,1.2420631,-1.2420631,1.6191115,-653.89128,220.57021)"
       x1="192.85487"
       y1="-417.59561"
       x2="159.96489"
       y2="-408.62561" />
    <linearGradient
       inkscape:collect="always"
       xlink:href="#linearGradient3117"
       id="linearGradient10608"
       gradientUnits="userSpaceOnUse"
       gradientTransform="translate(-63.427437,6.3427437)"
       x1="192.85487"
       y1="-417.59561"
       x2="159.96489"
       y2="-408.62561" />
    <linearGradient
       inkscape:collect="always"
       xlink:href="#linearGradient3139"
       id="linearGradient10610"
       gradientUnits="userSpaceOnUse"
       gradientTransform="translate(-47.042016,6.3427437)"
       x1="159.62572"
       y1="-254.24301"
       x2="132.40479"
       y2="-254.24301" />
    <linearGradient
       inkscape:collect="always"
       xlink:href="#linearGradient3146"
       id="linearGradient10612"
       gradientUnits="userSpaceOnUse"
       gradientTransform="translate(-25.414983,34.384977)"
       x1="538.38654"
       y1="-301.92004"
       x2="535.34979"
       y2="-301.63974" />
  </defs>
  <sodipodi:namedview
     id="base"
     pagecolor="#ffffff"
     bordercolor="#666666"
     borderopacity="1.0"
     inkscape:pageopacity="0.0"
     inkscape:pageshadow="2"
     inkscape:zoom="0.10273751"
     inkscape:cx="4596.6252"
     inkscape:cy="1399.8787"
     inkscape:document-units="px"
     inkscape:current-layer="layer1"
     showgrid="false"
     fit-margin-top="0"
     fit-margin-left="0"
     fit-margin-right="0"
     fit-margin-bottom="0"
     inkscape:window-width="1920"
     inkscape:window-height="1017"
     inkscape:window-x="0"
     inkscape:window-y="28"
     inkscape:window-maximized="1"
     showguides="true"
     inkscape:guide-bbox="true"
     inkscape:snap-grids="false"
     inkscape:snap-to-guides="false">
    <sodipodi:guide
       orientation="0,1"
       position="371.87981,1115.6394"
       id="guide6622" />
    <sodipodi:guide
       orientation="0,1"
       position="73.848474,189.89608"
       id="guide6624" />
    <sodipodi:guide
       orientation="1,0"
       position="363.96748,1521.806"
       id="guide6626" />
    <sodipodi:guide
       orientation="1,0"
       position="862.44468,1442.6827"
       id="guide6628" />
  </sodipodi:namedview>
  <metadata
     id="metadata7">
    <rdf:RDF>
      <cc:Work
         rdf:about="">
        <dc:format>image/svg+xml</dc:format>
        <dc:type
           rdf:resource="http://purl.org/dc/dcmitype/StillImage" />
        <dc:title></dc:title>
      </cc:Work>
    </rdf:RDF>
  </metadata>
  <g
     inkscape:label="Capa 1"
     inkscape:groupmode="layer"
     id="layer1"
     transform="translate(15278.44,186.36436)">
    <rect
       style="opacity:0.8;fill:#000000;fill-opacity:1;stroke:none"
       id="rect6564"
       width="23217.738"
       height="1351.7388"
       x="-15278.44"
       y="-186.36436" />
    <g
       id="g7385">
      <g
         transform="translate(-16140.307,17.349835)"
         id="g7756">
        <g
           style="font-size:204.73330688px;font-style:normal;font-variant:normal;font-weight:normal;font-stretch:normal;line-height:125%;letter-spacing:0px;word-spacing:0px;fill:#ffffff;fill-opacity:1;stroke:none;font-family:Short Stack;-inkscape-font-specification:Short Stack"
           id="text3044-12">
          <path
             inkscape:connector-curvature="0"
             d="m 1350.2195,540.61259 c 0,-2.59914 -0.033,-5.53151 -0.1,-8.79714 -0.067,-3.26557 -0.1,-6.29791 -0.1,-9.09703 -1e-4,-4.26524 0.033,-8.76377 0.1,-13.49561 0.067,-4.73173 0.1333,-9.53017 0.2,-14.39531 0.067,-4.93166 0.1332,-9.86338 0.1999,-14.79518 0.067,-4.93164 0.1,-9.79672 0.1,-14.59524 -10e-5,-4.93163 -0.2,-9.86335 -0.5998,-14.79518 -0.3333,-4.93162 -0.4999,-10.16324 -0.4999,-15.69489 0,-0.93291 0.1333,-2.09919 0.3999,-3.49886 0.3332,-1.39942 0.833,-2.73231 1.4995,-3.9987 0.6664,-1.33277 1.4995,-2.43241 2.4992,-3.29892 0.9996,-0.9329 2.1992,-1.39941 3.5988,-1.39955 2.7991,1.4e-4 5.1316,0.66659 6.9977,1.99935 1.9327,1.26639 3.5322,2.96583 4.7985,5.09834 1.3328,2.13276 2.4325,4.5653 3.2989,7.29762 0.8663,2.73256 1.6661,5.53165 2.3992,8.39727 0.7997,2.86584 1.5994,5.69825 2.3992,8.49723 0.8664,2.73254 1.9327,5.1984 3.199,7.39759 2.1992,3.93214 4.6318,8.19742 7.2976,12.79583 2.6657,4.59858 5.3649,9.19708 8.0974,13.79551 2.799,4.59856 5.4981,9.06377 8.0973,13.39563 2.6658,4.26533 5.0983,8.06409 7.2977,11.39629 2.5324,3.39894 4.9649,6.66454 7.2976,9.79681 2.3991,3.13234 4.5651,5.89811 6.4979,8.2973 1.9326,2.3326 3.5654,4.19865 4.8984,5.59817 1.3994,1.39957 2.3991,2.09934 2.999,2.09932 0.1998,2e-5 0.3998,-0.7664 0.5998,-2.29925 0.2665,-1.53281 0.4997,-3.49884 0.6998,-5.89808 0.1998,-2.46583 0.3997,-5.19827 0.5998,-8.19733 0.2664,-3.06563 0.4664,-6.06465 0.5998,-8.99707 0.1998,-2.99897 0.3664,-5.79806 0.4998,-8.39726 0.1998,-2.5991 0.3331,-4.69842 0.3999,-6.29795 0.066,-8.66378 0.1332,-16.29462 0.1999,-22.89255 0.067,-6.59776 0.1,-12.46251 0.1,-17.59426 0.066,-5.1982 0.1,-9.83002 0.1,-13.89548 -2e-4,-4.06522 -2e-4,-7.8973 0,-11.49625 -2e-4,-3.33212 0.1331,-6.2645 0.3998,-8.79714 0.2665,-2.53237 0.7663,-4.665 1.4995,-6.39791 0.7997,-1.73263 1.8327,-3.0322 3.099,-3.89873 1.3328,-0.93289 2.9989,-1.3994 4.9984,-1.39955 1.666,1.5e-4 3.0989,0.13344 4.2986,0.39987 1.1995,0.20008 2.1992,0.73324 2.999,1.59948 0.7996,0.79989 1.3661,2.03282 1.6995,3.6988 0.3997,1.59962 0.5996,3.7989 0.5998,6.59785 -2e-4,6.86456 -0.1668,13.66233 -0.4999,20.39336 -0.3333,6.6646 -0.5999,13.46238 -0.7997,20.39335 -0.3334,11.79624 -0.8332,23.82564 -1.4995,36.08825 -0.6666,12.19607 -1.333,24.35876 -1.9994,36.48811 -0.2,2.79911 -0.3666,5.79813 -0.4998,8.99707 -0.1334,3.19896 -0.6666,6.16466 -1.5995,8.8971 -0.8665,2.6658 -2.366,4.86508 -4.4985,6.59785 -2.0661,1.79941 -5.2318,2.69912 -9.4969,2.69912 -0.9332,0 -1.8329,-0.16662 -2.6991,-0.49984 -0.8665,-0.33323 -1.6996,-0.7331 -2.4992,-1.1996 -0.7332,-0.39988 -1.3997,-0.86639 -1.9994,-1.39955 -0.5999,-0.53316 -1.0331,-0.99968 -1.2996,-1.39954 -5.8648,-6.06469 -11.5296,-12.59589 -16.9944,-19.59362 -5.3983,-7.06434 -10.5966,-14.29531 -15.5949,-21.69293 -4.9985,-7.39755 -9.7636,-14.86177 -14.2954,-22.39271 -4.4652,-7.59745 -8.6305,-14.99504 -12.4959,-22.19277 0,16.59466 0.2332,29.09058 0.6998,37.48779 0.4664,8.3973 0.7663,13.06244 0.8997,13.99544 0.3998,2.06602 0.7997,4.49856 1.1996,7.29762 0.4665,2.79911 0.6997,5.79813 0.6997,8.99707 0,1.86607 -0.1666,3.63216 -0.4998,5.29828 -0.2666,1.66613 -0.7664,3.13232 -1.4995,4.39856 -0.7331,1.26626 -1.6995,2.26594 -2.8991,2.99903 -1.1996,0.73309 -2.6991,1.09964 -4.4985,1.09964 -2.5992,0 -4.6652,-0.39987 -6.198,-1.19961 -1.5328,-0.86638 -2.6991,-1.99935 -3.4988,-3.39889 -0.7998,-1.46619 -1.333,-3.13231 -1.5995,-4.99838 -0.2,-1.93269 -0.2999,-3.93203 -0.2999,-5.99804"
             id="path7008" />
          <path
             inkscape:connector-curvature="0"
             d="m 1492.4731,549.30975 c 0,-0.99966 0.033,-2.36588 0.1,-4.09866 0.067,-1.73275 0.1,-3.99868 0.1,-6.79779 0,-4.53183 -0.1333,-9.29694 -0.3999,-14.29534 -0.2666,-5.06498 -0.5665,-10.2966 -0.8997,-15.69489 -0.2666,-5.46483 -0.5332,-11.063 -0.7997,-16.79453 -0.2,-5.79803 -0.3,-11.72943 -0.2999,-17.7942 -10e-5,-2.33249 0.1,-4.93164 0.2999,-7.79746 0.1999,-2.93228 0.5998,-5.6314 1.1996,-8.09736 0.5998,-2.53241 1.4661,-4.63172 2.5991,-6.29795 1.133,-1.73266 2.6658,-2.59904 4.5985,-2.59915 2.066,1.1e-4 3.6655,0.66656 4.7985,1.99935 1.1995,1.26636 2.0659,2.93248 2.5991,4.99837 0.5998,1.99945 0.933,4.2987 0.9997,6.89775 0.1333,2.5326 0.1999,5.09843 0.1999,7.69749 2.3326,-3.3988 5.2983,-6.46446 8.8971,-9.197 3.5988,-2.79899 7.4309,-5.16488 11.4963,-7.09769 4.1319,-1.9326 8.2972,-3.43211 12.4959,-4.49853 4.1986,-1.06621 8.0973,-1.59937 11.6962,-1.59948 6.5311,1.1e-4 12.2626,0.96646 17.1944,2.89905 4.9983,1.86617 9.2969,4.432 12.8958,7.6975 3.6654,3.26569 6.6977,7.06445 9.097,11.39628 2.4658,4.26536 4.4318,8.79722 5.8981,13.59557 1.4661,4.79851 2.4991,9.73023 3.099,14.79519 0.6663,4.99842 0.9996,9.83018 0.9997,14.49527 l 0,16.99447 c -10e-5,4.33194 -0.3,8.53057 -0.8997,12.59589 -0.5333,3.99871 -1.333,7.56421 -2.3992,10.69652 -1.0665,3.06567 -2.3994,5.53153 -3.9987,7.39759 -1.533,1.9327 -3.2991,2.89905 -5.2983,2.89906 -1.4663,-10e-6 -2.8325,-0.1 -4.0987,-0.29991 -1.2663,-0.19994 -2.3993,-0.69977 -3.3989,-1.49951 -0.9331,-0.7331 -1.6662,-1.89938 -2.1993,-3.49886 -0.5332,-1.59948 -0.7998,-3.79876 -0.7997,-6.59785 -10e-5,-2.59914 0.2665,-5.29826 0.7997,-8.09736 0.5331,-2.86572 1.0996,-5.73145 1.6995,-8.5972 0.6663,-2.86571 1.2661,-5.73144 1.7994,-8.5972 0.5331,-2.8657 0.7996,-5.69811 0.7997,-8.49723 -10e-5,-3.13227 -0.1,-6.23126 -0.2999,-9.29697 -0.1334,-3.13226 -0.4666,-6.19793 -0.9996,-9.19701 -0.5333,-2.99896 -1.2997,-5.89801 -2.2993,-8.69716 -0.9331,-2.86567 -2.2327,-5.59811 -3.8987,-8.19733 -1.333,-2.13257 -2.7326,-4.19856 -4.1986,-6.19799 -1.3997,-2.06591 -3.1325,-3.89864 -5.1983,-5.4982 -1.9995,-1.59939 -4.432,-2.86565 -7.2977,-3.79877 -2.8658,-0.99958 -6.398,-1.49942 -10.5965,-1.49951 -2.8658,9e-5 -6.1314,0.5999 -9.7968,1.79942 -3.6656,1.13305 -7.3644,2.79917 -11.0964,4.99837 -3.6655,2.13272 -7.1977,4.73187 -10.5966,7.79746 -3.3323,2.9991 -6.1313,6.36466 -8.3972,10.09671 l 0,25.59166 c -10e-5,0.86643 0.033,1.99939 0.1,3.39889 0.1333,1.33294 0.2999,2.83245 0.4999,4.49854 0.1999,1.66616 0.4331,3.43224 0.6998,5.29827 0.3331,1.86609 0.6664,3.69882 0.9996,5.49821 0.5331,2.79911 1.1663,5.46491 1.8994,7.9974 0.7331,2.53252 1.0996,4.89841 1.0996,7.09768 0,1.53285 -0.067,2.99903 -0.1999,4.39857 -0.1333,1.39955 -0.4999,2.63248 -1.0996,3.6988 -0.5332,0.99967 -1.3996,1.79941 -2.5992,2.39921 -1.1996,0.59981 -2.8657,0.89971 -4.9984,0.89971 -1.3995,0 -2.8324,-0.13329 -4.2986,-0.39987 -1.4662,-0.19993 -2.8324,-0.69977 -4.0986,-1.49951 -1.1997,-0.79974 -2.1993,-1.96602 -2.999,-3.49886 -0.7998,-1.59947 -1.1997,-3.73211 -1.1997,-6.39792"
             id="path7010" />
        </g>
        <g
           style="font-size:120.21715546px;font-style:normal;font-weight:normal;line-height:125%;letter-spacing:0px;word-spacing:0px;fill:#ffffff;fill-opacity:1;stroke:none;font-family:Sans"
           id="text3048-0">
          <path
             inkscape:connector-curvature="0"
             d="m 1224.5164,668.53262 c 0,-1.52618 -0.02,-3.24804 -0.059,-5.16558 -0.039,-1.91751 -0.059,-3.69806 -0.059,-5.34168 0,-2.5045 0.02,-5.14599 0.059,-7.92447 0.039,-2.77842 0.078,-5.59601 0.1174,-8.45277 0.039,-2.89581 0.078,-5.79167 0.1174,-8.68756 0.039,-2.89581 0.059,-5.75253 0.059,-8.57017 0,-2.8958 -0.1174,-5.79165 -0.3522,-8.68757 -0.1957,-2.89579 -0.2935,-5.96774 -0.2935,-9.21587 0,-0.54779 0.078,-1.23262 0.2348,-2.05449 0.1957,-0.82172 0.4892,-1.60438 0.8805,-2.34799 0.3913,-0.78259 0.8805,-1.42828 1.4675,-1.93709 0.587,-0.54779 1.2914,-0.82172 2.1132,-0.8218 1.6436,8e-5 3.0132,0.39141 4.109,1.174 1.1348,0.7436 2.074,1.7415 2.8176,2.99368 0.7826,1.25234 1.4283,2.6807 1.9371,4.28509 0.5087,1.60453 0.9783,3.24812 1.4088,4.93078 0.4695,1.68279 0.9391,3.34595 1.4088,4.98948 0.5087,1.60452 1.1348,3.05245 1.8784,4.34379 1.2913,2.30891 2.7197,4.81343 4.285,7.51357 1.5653,2.70023 3.1502,5.40042 4.7547,8.10057 1.6436,2.70023 3.2285,5.32215 4.7547,7.86577 1.5653,2.50455 2.9936,4.73514 4.2851,6.69177 1.487,1.99582 2.9154,3.91335 4.2851,5.75258 1.4087,1.83928 2.6805,3.46331 3.8155,4.87208 1.1348,1.36968 2.0935,2.46541 2.8763,3.28719 0.8217,0.82181 1.4087,1.23271 1.7609,1.2327 0.1174,1e-5 0.2348,-0.45002 0.3522,-1.3501 0.1565,-0.90005 0.2935,-2.05447 0.4109,-3.46328 0.1174,-1.44791 0.2348,-3.05237 0.3522,-4.81339 0.1565,-1.8001 0.2739,-3.56109 0.3522,-5.28298 0.1174,-1.76096 0.2152,-3.40455 0.2935,-4.93078 0.1174,-1.52616 0.1956,-2.75885 0.2348,-3.69808 0.039,-5.08728 0.078,-9.56802 0.1174,-13.44226 0.039,-3.87413 0.059,-7.31785 0.059,-10.33116 0.039,-3.05232 0.059,-5.77208 0.059,-8.15927 0,-2.38705 0,-4.63721 0,-6.75047 0,-1.95659 0.078,-3.67844 0.2348,-5.16558 0.1565,-1.48698 0.45,-2.73924 0.8805,-3.75679 0.4696,-1.01738 1.0761,-1.78047 1.8197,-2.28929 0.7826,-0.54778 1.761,-0.82171 2.935,-0.8218 0.9783,9e-5 1.8196,0.0784 2.5241,0.2348 0.7043,0.11749 1.2913,0.43055 1.761,0.9392 0.4695,0.46968 0.8022,1.19364 0.9979,2.17189 0.2347,0.93928 0.3521,2.23067 0.3522,3.87419 -10e-5,4.03079 -0.098,8.02237 -0.2935,11.97475 -0.1957,3.91338 -0.3523,7.90496 -0.4696,11.97476 -0.1957,6.92662 -0.4892,13.99015 -0.8805,21.19062 -0.3914,7.1614 -0.7827,14.3032 -1.174,21.42542 -0.1175,1.6436 -0.2153,3.4046 -0.2935,5.28298 -0.078,1.8784 -0.3914,3.61982 -0.9392,5.22428 -0.5088,1.56533 -1.3893,2.85672 -2.6415,3.87419 -1.2132,1.05659 -3.072,1.58489 -5.5765,1.58489 -0.5479,0 -1.0762,-0.0978 -1.5849,-0.2935 -0.5087,-0.19567 -0.9979,-0.43047 -1.4675,-0.7044 -0.4305,-0.2348 -0.8218,-0.50873 -1.1739,-0.82179 -0.3523,-0.31307 -0.6067,-0.587 -0.7631,-0.8218 -3.4438,-3.56112 -6.7701,-7.39617 -9.979,-11.50516 -3.1698,-4.1481 -6.2222,-8.39405 -9.1572,-12.73785 -2.935,-4.34376 -5.733,-8.72667 -8.394,-13.14875 -2.622,-4.46114 -5.0678,-8.80492 -7.3375,-13.03135 0,9.7442 0.1369,17.08167 0.4109,22.01242 0.2739,4.9308 0.45,7.67012 0.5283,8.21797 0.2348,1.21314 0.4696,2.6415 0.7044,4.28508 0.2739,1.64361 0.4109,3.4046 0.4109,5.28298 0,1.09574 -0.098,2.13277 -0.2935,3.11109 -0.1566,0.97833 -0.4501,1.83926 -0.8805,2.58279 -0.4305,0.74353 -0.9979,1.33053 -1.7023,1.76099 -0.7044,0.43047 -1.5849,0.6457 -2.6415,0.6457 -1.5262,0 -2.7393,-0.2348 -3.6394,-0.7044 -0.9001,-0.50873 -1.5849,-1.17399 -2.0545,-1.99579 -0.4696,-0.86093 -0.7827,-1.83925 -0.9392,-2.93499 -0.1174,-1.13485 -0.1761,-2.30885 -0.1761,-3.52199"
             style="font-variant:normal;font-stretch:normal;font-family:Short Stack;-inkscape-font-specification:Short Stack"
             id="path6995" />
          <path
             inkscape:connector-curvature="0"
             d="m 1305.5221,645.05271 c 0,-1.21309 0.039,-2.58275 0.1174,-4.10898 0.078,-1.52616 0.1957,-3.11105 0.3522,-4.75469 0.1565,-1.64355 0.3326,-3.30671 0.5283,-4.98948 0.2348,-1.72181 0.4892,-3.3654 0.7631,-4.93078 0.2739,-1.60441 0.5674,-3.0719 0.8805,-4.40248 0.3522,-1.36961 0.7044,-2.5436 1.0566,-3.52199 0.4305,-1.05654 1.1153,-1.91746 2.0545,-2.58279 0.9392,-0.70433 2.1914,-1.05653 3.7568,-1.0566 1.4088,7e-5 2.5241,0.5088 3.3459,1.5262 0.8609,1.01752 1.2913,2.23065 1.2914,3.63938 -10e-5,0.23486 -0.1957,0.97839 -0.587,2.2306 -0.3523,1.21318 -0.7631,2.85677 -1.2327,4.93078 -0.4305,2.03497 -0.8414,4.46123 -1.2327,7.27877 -0.3522,2.7785 -0.5283,5.83088 -0.5283,9.15717 0,1.29143 0.059,2.87632 0.1761,4.75468 0.1565,1.87842 0.4304,3.85464 0.8218,5.92868 0.3913,2.03495 0.9392,4.08944 1.6436,6.16347 0.7043,2.03495 1.6435,3.8742 2.8176,5.51778 1.2131,1.64361 2.6806,2.97414 4.4024,3.99159 1.7219,1.01747 3.7764,1.5262 6.1635,1.52619 2.0349,1e-5 3.9133,-0.31305 5.6352,-0.93919 1.7218,-0.62613 3.2871,-1.42835 4.696,-2.40669 1.4479,-1.01746 2.7393,-2.15232 3.8742,-3.40459 1.1739,-1.25225 2.2109,-2.50451 3.1111,-3.75679 0.9391,-1.25224 1.7413,-2.42623 2.4066,-3.52198 0.7044,-1.09571 1.311,-2.01534 1.8197,-2.75889 0.2348,-2.2697 0.4109,-4.26549 0.5283,-5.98738 0.1174,-1.76096 0.1956,-3.36542 0.2348,-4.81338 0.078,-1.4479 0.1174,-2.79799 0.1174,-4.05029 0.039,-1.29135 0.059,-2.60231 0.059,-3.93289 0,-1.36961 -0.02,-2.81754 -0.059,-4.34378 0,-1.56528 0,-3.34584 0,-5.34168 l 0,-6.98527 c 0,-0.82174 0.1761,-1.50657 0.5283,-2.0545 0.3913,-0.5478 0.8609,-0.99783 1.4088,-1.35009 0.5478,-0.35214 1.1544,-0.58693 1.8197,-0.7044 0.6652,-0.15647 1.2718,-0.23473 1.8197,-0.2348 0.4696,7e-5 0.9783,0.0783 1.5262,0.2348 0.5478,0.1566 1.0565,0.3914 1.5262,0.7044 0.4695,0.31313 0.8609,0.74359 1.174,1.29139 0.313,0.5088 0.4695,1.11536 0.4696,1.8197 l -0.1174,55.70609 c -10e-5,1.9958 -0.3914,3.34589 -1.174,4.05029 -0.7827,0.66526 -1.9763,0.99789 -3.5807,0.99789 -1.448,0 -2.5828,-0.1174 -3.4046,-0.3522 -0.7827,-0.19566 -1.3697,-0.58699 -1.761,-1.17399 -0.3522,-0.587 -0.5675,-1.38923 -0.6457,-2.40669 -0.078,-1.01746 -0.1174,-2.32842 -0.1174,-3.93289 l 0,-3.99158 c -1.0175,1.83927 -2.1719,3.60026 -3.4632,5.28298 -1.2524,1.6436 -2.7199,3.09152 -4.4025,4.34378 -1.6828,1.25226 -3.6199,2.25016 -5.8113,2.99369 -2.1915,0.74353 -4.696,1.11529 -7.5136,1.1153 -4.0699,-1e-5 -7.5723,-0.62614 -10.5072,-1.8784 -2.8959,-1.21313 -5.3613,-2.81758 -7.3962,-4.81338 -1.9958,-2.03492 -3.6198,-4.34377 -4.8721,-6.92657 -1.2131,-2.58278 -2.1719,-5.22427 -2.8763,-7.92447 -0.6653,-2.70017 -1.1153,-5.34166 -1.3501,-7.92448 -0.1957,-2.58276 -0.2935,-4.89161 -0.2935,-6.92657"
             style="font-variant:normal;font-stretch:normal;font-family:Short Stack;-inkscape-font-specification:Short Stack"
             id="path6997" />
          <path
             inkscape:connector-curvature="0"
             d="m 1385.706,671.11541 c -0.078,-2.30884 -0.1957,-5.71343 -0.3522,-10.21376 -0.1565,-4.50029 -0.2348,-9.92023 -0.2348,-16.25984 0,-2.93495 0,-5.4786 0,-7.63097 0,-2.19141 0.02,-4.16764 0.059,-5.92868 0.078,-1.76094 0.1565,-3.38497 0.2348,-4.87208 0.1174,-1.52614 0.2739,-3.09147 0.4696,-4.69598 0.1565,-1.21307 0.6457,-2.23053 1.4675,-3.05239 0.8609,-0.86087 1.8001,-1.29133 2.8176,-1.2914 0.4696,7e-5 0.9783,0.0588 1.5262,0.1761 0.5478,0.11746 1.0566,0.3327 1.5262,0.6457 0.5087,0.27399 0.9392,0.66533 1.2914,1.174 0.3913,0.50879 0.6848,1.13492 0.8805,1.87839 0.6652,-0.54781 1.487,-1.15437 2.4654,-1.81969 1.0174,-0.66521 2.1914,-1.29134 3.522,-1.8784 1.3305,-0.58693 2.8371,-1.0761 4.5198,-1.46749 1.6827,-0.39127 3.522,-0.58694 5.5178,-0.587 2.0349,6e-5 4.1285,0.31313 6.2809,0.9392 2.1914,0.62619 4.285,1.56539 6.2809,2.81759 2.0349,1.21318 3.8741,2.71981 5.5178,4.51988 1.6826,1.80018 3.0523,3.87424 4.1089,6.22218 1.2131,-1.91748 2.7197,-3.61977 4.5199,-5.10688 1.8001,-1.52614 3.7763,-2.81754 5.9287,-3.87419 2.1523,-1.05654 4.4024,-1.85877 6.7505,-2.40669 2.387,-0.5478 4.7546,-0.82174 7.1027,-0.8218 4.5393,6e-5 8.6483,0.76316 12.3269,2.28929 3.7176,1.48712 6.8873,3.81554 9.5094,6.98528 2.6609,3.1307 4.6958,7.16142 6.1047,12.09215 1.4479,4.89169 2.1718,10.74209 2.1719,17.55124 -10e-5,1.60448 -0.039,3.16981 -0.1174,4.69598 -0.078,1.52621 -0.1957,3.13067 -0.3522,4.81338 -0.1175,1.68274 -0.274,3.50243 -0.4696,5.45908 -0.1566,1.95667 -0.3131,4.14812 -0.4696,6.57438 -10e-5,0.31306 -0.1175,0.74353 -0.3522,1.29139 -0.2349,0.587 -0.5675,1.13486 -0.9978,1.6436 -0.4306,0.54786 -0.9589,1.01746 -1.5849,1.40879 -0.6263,0.39133 -1.3307,0.587 -2.1132,0.587 -1.0959,0 -2.1133,-0.25437 -3.0524,-0.7631 -0.9002,-0.4696 -1.7024,-1.07616 -2.4067,-1.81969 -0.6654,-0.7044 -1.1937,-1.46749 -1.5849,-2.28929 -0.3523,-0.86093 -0.5284,-1.64359 -0.5283,-2.34799 -10e-5,-1.56533 0.1564,-2.89585 0.4696,-3.99159 0.313,-1.09572 0.6652,-2.19145 1.0566,-3.28719 0.3912,-1.13485 0.7434,-2.38711 1.0566,-3.75678 0.3129,-1.36965 0.4695,-3.13064 0.4696,-5.28298 -10e-5,-1.87837 -0.039,-3.69807 -0.1174,-5.45908 -0.039,-1.76097 -0.059,-3.58066 -0.059,-5.45908 -10e-5,-2.23056 -0.4502,-4.57855 -1.3501,-7.04398 -0.861,-2.46535 -2.1329,-4.73507 -3.8155,-6.80917 -1.6828,-2.07401 -3.7373,-3.79587 -6.1635,-5.16558 -2.3872,-1.36961 -5.1069,-2.05444 -8.1592,-2.05449 -1.5263,5e-5 -3.2482,0.23485 -5.1656,0.70439 -1.9176,0.46965 -3.7765,1.21318 -5.5765,2.23059 -1.7611,0.97838 -3.3655,2.25021 -4.8134,3.81549 -1.4088,1.56537 -2.3872,3.4242 -2.935,5.57648 l 0,25.35831 c 0,0.19568 0.02,0.60657 0.059,1.23269 0.039,0.58701 0.078,1.21314 0.1174,1.87839 0.078,0.66528 0.1369,1.31098 0.1761,1.9371 0.039,0.587 0.059,0.95877 0.059,1.11529 0,0.86094 -0.1174,1.7023 -0.3522,2.52409 -0.2348,0.78267 -0.587,1.48707 -1.0566,2.1132 -0.4696,0.587 -1.0371,1.07616 -1.7023,1.46749 -0.6262,0.3522 -1.3501,0.5283 -2.1719,0.5283 -0.8609,0 -1.761,-0.0783 -2.7001,-0.2348 -0.9393,-0.15653 -1.8002,-0.45003 -2.5828,-0.8805 -0.7436,-0.46959 -1.3698,-1.09572 -1.8784,-1.87839 -0.4697,-0.78266 -0.7045,-1.80012 -0.7044,-3.05239 -10e-5,-0.23479 0.039,-0.70439 0.1174,-1.40879 0.1173,-0.70439 0.2152,-1.44792 0.2935,-2.2306 0.1173,-0.78265 0.2151,-1.48704 0.2935,-2.11319 0.1173,-0.66525 0.176,-1.05658 0.1761,-1.17399 l 0,-19.78183 c -1e-4,-2.07402 -0.3719,-4.24591 -1.1153,-6.51568 -0.7045,-2.30881 -1.7415,-4.422 -3.1111,-6.33957 -1.3306,-1.95661 -2.9546,-3.56107 -4.8721,-4.81338 -1.9176,-1.29135 -4.0699,-1.93704 -6.457,-1.9371 -3.0133,6e-5 -5.5178,0.29355 -7.5135,0.8805 -1.9567,0.58705 -3.5221,1.50668 -4.696,2.75889 -1.1349,1.21318 -1.9371,2.7785 -2.4067,4.69598 -0.4305,1.91757 -0.6457,4.22643 -0.6457,6.92658 0,2.85675 0.039,5.79174 0.1174,8.80496 0.078,2.97415 0.2739,5.79174 0.587,8.45277 l 1.8197,14.79235 c -10e-5,0.90007 -0.2349,1.7023 -0.7044,2.40669 -0.4696,0.7044 -1.0371,1.2914 -1.7023,1.76099 -0.6262,0.4696 -1.2719,0.84137 -1.9371,1.1153 -0.6262,0.2348 -1.1349,0.3522 -1.5262,0.3522 -2.3089,0 -4.0112,-0.5283 -5.1069,-1.5849 -1.0957,-1.09572 -1.7806,-3.03281 -2.0545,-5.81128"
             style="font-variant:normal;font-stretch:normal;font-family:Short Stack;-inkscape-font-specification:Short Stack"
             id="path6999" />
          <path
             inkscape:connector-curvature="0"
             d="m 1507.3907,672.34811 c -0.078,-1.36965 -0.137,-3.42414 -0.1761,-6.16348 -0.039,-2.77844 -0.059,-5.92866 -0.059,-9.45066 0,-3.5611 0.02,-7.35701 0.059,-11.38776 0.039,-4.06981 0.059,-8.08096 0.059,-12.03346 0,-3.9524 0,-7.68961 0,-11.21165 0,-3.56106 -0.02,-6.61345 -0.059,-9.15717 l -0.1761,-9.68546 c 0,-0.35213 0,-0.82173 0,-1.4088 0.039,-0.62605 0.059,-1.25218 0.059,-1.87839 0,-0.62605 0,-1.19348 0,-1.7023 0.039,-0.50865 0.059,-0.84128 0.059,-0.99789 0,-1.60438 0.3717,-2.85664 1.1153,-3.75679 0.7826,-0.89998 2.2501,-1.35001 4.4024,-1.35009 0.5088,8e-5 1.0762,0.0979 1.7023,0.2935 0.6261,0.15661 1.2131,0.39141 1.761,0.70439 0.5479,0.31315 0.9979,0.70448 1.3501,1.174 0.3913,0.43055 0.587,0.91971 0.587,1.46749 l 0.1174,5.57648 c 0.039,1.95674 0.039,3.81556 0,5.57648 -0.039,1.72193 -0.098,3.44379 -0.1761,5.16558 -0.039,1.68279 -0.098,3.40465 -0.1761,5.16558 -0.039,1.72192 -0.059,3.54161 -0.059,5.45908 2.348,-1.99573 5.0873,-3.61976 8.218,-4.87208 3.1306,-1.29133 6.7113,-1.93703 10.7421,-1.93709 10.018,6e-5 17.6098,2.52415 22.7755,7.57227 5.2046,5.04823 7.807,12.87486 7.807,23.47991 0,4.14815 -0.6066,7.84623 -1.8197,11.09426 -1.174,3.20894 -2.7589,6.02653 -4.7546,8.45277 -1.9568,2.42627 -4.2069,4.50033 -6.7505,6.22218 -2.5437,1.68273 -5.1852,3.05239 -7.9245,4.10898 -2.7002,1.01747 -5.4004,1.761 -8.1006,2.23059 -2.661,0.4696 -5.1069,0.7044 -7.3374,0.7044 -2.035,0 -4.109,-0.19566 -6.2222,-0.587 -2.1132,-0.39133 -4.109,-0.91963 -5.9874,-1.58489 -0.5087,0.7044 -1.2131,1.27183 -2.1132,1.70229 -0.8609,0.43047 -1.8784,0.6457 -3.0524,0.6457 -1.0566,0 -1.9371,-0.2348 -2.6415,-0.7044 -0.7044,-0.43046 -1.2914,-0.99789 -1.7609,-1.70229 -0.4697,-0.74353 -0.8219,-1.56532 -1.0566,-2.46539 -0.2349,-0.90006 -0.3718,-1.81969 -0.4109,-2.75889 m 11.8573,-4.05029 c 0.587,0.31308 1.3305,0.56745 2.2306,0.7631 0.9,0.19568 1.8588,0.35221 2.8763,0.4696 1.0174,0.11741 2.0545,0.19568 3.1111,0.2348 1.0957,0.0391 2.1131,0.0391 3.0524,0 2.0349,-0.0783 4.1481,-0.37176 6.3396,-0.8805 2.1914,-0.50872 4.285,-1.23268 6.2808,-2.17189 2.0349,-0.93918 3.9133,-2.09361 5.6352,-3.46329 1.7218,-1.40877 3.1306,-3.0328 4.2264,-4.87208 0.7435,-1.09571 1.3109,-2.3284 1.7023,-3.69809 0.4304,-1.36963 0.7435,-2.79799 0.9392,-4.28508 0.1956,-1.48703 0.313,-2.97409 0.3522,-4.46118 0.039,-1.52616 0.059,-2.97409 0.059,-4.34379 -0.1175,-2.85668 -0.8806,-5.26337 -2.2893,-7.22007 -1.3697,-1.95661 -3.0916,-3.54151 -5.1656,-4.75468 -2.035,-1.21308 -4.2851,-2.07401 -6.7505,-2.58279 -2.4263,-0.54781 -4.7351,-0.82175 -6.9265,-0.8218 -1.4089,5e-5 -2.9351,0.19572 -4.5786,0.587 -1.6045,0.39138 -3.1698,0.93925 -4.696,1.64359 -1.5262,0.66532 -2.935,1.46755 -4.2264,2.40669 -1.2523,0.93925 -2.2306,1.95671 -2.935,3.05239 -0.1565,0.0783 -0.2739,0.70444 -0.3522,1.87839 -0.039,1.17404 -0.059,2.64154 -0.059,4.40249 0,1.7219 0,3.61985 0,5.69388 0.039,2.07409 0.078,4.08944 0.1174,6.04608 0.039,1.95668 0.059,3.71767 0.059,5.28298 0.039,1.56534 0.059,2.68064 0.059,3.34588 0,1.21315 0.059,2.54368 0.1761,3.99159 0.1565,1.40881 0.4109,2.66107 0.7631,3.75678"
             style="font-variant:normal;font-stretch:normal;font-family:Short Stack;-inkscape-font-specification:Short Stack"
             id="path7001" />
          <path
             inkscape:connector-curvature="0"
             d="m 1583.0547,653.91638 c 0,-3.05236 0.4304,-6.22215 1.2914,-9.50937 0.9,-3.32628 2.1719,-6.4178 3.8155,-9.27456 1.5653,-2.85668 3.4828,-5.5373 5.7526,-8.04187 2.3088,-2.50447 4.872,-4.67636 7.6896,-6.51568 2.8176,-1.87833 5.8504,-3.34582 9.0985,-4.40248 3.2871,-1.09567 6.7113,-1.64353 10.2725,-1.6436 2.7001,7e-5 5.3024,0.37183 7.807,1.1153 2.5045,0.70446 4.8525,1.68279 7.044,2.93499 2.1914,1.25232 4.1872,2.73938 5.9874,4.46118 1.8392,1.72192 3.4045,3.58074 4.696,5.57648 1.2913,1.95671 2.2892,4.0112 2.9936,6.16348 0.7044,2.15237 1.0566,4.30469 1.0566,6.45697 0,1.91757 -0.1174,3.61986 -0.3522,5.10689 -0.1957,1.44795 -0.4501,2.89588 -0.7631,4.34378 -0.2348,1.48709 -0.4696,3.03285 -0.7044,4.63728 -0.2348,1.56535 -0.3522,3.40461 -0.3522,5.51778 0,1.83928 0.1369,3.36547 0.4109,4.57859 0.2739,1.174 0.6652,2.13277 1.174,2.87628 0.5087,0.74355 1.1153,1.27184 1.8197,1.5849 0.7435,0.27394 1.5653,0.41091 2.4654,0.4109 0.2347,10e-6 0.5282,-0.0587 0.8805,-0.1761 0.3521,-0.15653 0.6848,-0.31306 0.9979,-0.4696 0.313,-0.19566 0.5869,-0.37176 0.8218,-0.5283 0.2347,-0.19565 0.3913,-0.35219 0.4696,-0.4696 0.4304,-0.43045 0.8413,-0.80222 1.2327,-1.11529 0.4304,-0.35219 0.9978,-0.52829 1.7023,-0.5283 1.4087,10e-6 2.4653,0.33264 3.1698,0.9979 0.7434,0.66527 1.1152,1.761 1.1153,3.28718 -10e-5,0.93921 -0.2936,1.91754 -0.8805,2.93499 -0.548,1.01747 -1.3306,1.95666 -2.348,2.81759 -1.0175,0.8218 -2.2307,1.50663 -3.6394,2.05449 -1.4089,0.54787 -2.9742,0.8218 -4.696,0.8218 -3.4438,0 -6.3983,-0.95876 -8.8636,-2.87629 -2.4264,-1.95665 -4.1678,-4.61771 -5.2243,-7.98317 -1.448,1.5262 -3.0329,2.9937 -4.7547,4.40249 -1.7219,1.36966 -3.6199,2.58279 -5.6939,3.63938 -2.0741,1.01747 -4.3829,1.8197 -6.9266,2.40669 -2.5045,0.62613 -5.283,0.9392 -8.3353,0.9392 -2.3089,0 -4.6765,-0.31307 -7.1027,-0.9392 -2.3871,-0.62613 -4.7156,-1.50662 -6.9853,-2.64149 -2.2306,-1.13486 -4.3242,-2.50452 -6.2808,-4.10898 -1.9567,-1.64359 -3.6786,-3.44371 -5.1656,-5.40038 -1.448,-1.95665 -2.6024,-4.06984 -3.4633,-6.33958 -0.8218,-2.2697 -1.2327,-4.63726 -1.2327,-7.10267 m 10.9769,-0.1174 c -10e-5,2.42628 0.6456,4.65687 1.937,6.69177 1.3305,2.03495 3.0328,3.77637 5.1069,5.22428 2.0741,1.44794 4.3829,2.58281 6.9266,3.40459 2.5828,0.78267 5.1068,1.17401 7.5723,1.174 3.2871,10e-6 6.3004,-0.62612 9.0397,-1.8784 2.7784,-1.25225 5.146,-2.87627 7.1027,-4.87208 1.9957,-1.99577 3.5415,-4.22636 4.6373,-6.69177 1.0957,-2.5045 1.6435,-4.96989 1.6436,-7.39618 -10e-5,-1.36963 0.2934,-2.56319 0.8805,-3.58068 0.6261,-1.05656 1.213,-2.05446 1.761,-2.99369 0.1564,-0.19563 0.2347,-0.48913 0.2348,-0.8805 0.039,-0.43043 0.039,-0.86089 0,-1.29139 -10e-5,-0.46956 -0.02,-0.90003 -0.059,-1.2914 -0.039,-0.39129 -0.059,-0.66522 -0.059,-0.8218 -10e-5,-0.86088 -0.2936,-1.80008 -0.8805,-2.81759 -0.5871,-1.01741 -1.3893,-2.03488 -2.4067,-3.05238 -0.9784,-1.01742 -2.1133,-1.99575 -3.4046,-2.93499 -1.2523,-0.97828 -2.5437,-1.83921 -3.8742,-2.58279 -1.3306,-0.74348 -2.6611,-1.33048 -3.9916,-1.761 -1.3305,-0.46954 -2.5241,-0.70434 -3.5807,-0.70439 -2.9741,5e-5 -5.7526,0.41095 -8.3353,1.23269 -2.5437,0.82185 -4.8721,1.93714 -6.9853,3.34589 -2.1132,1.40884 -4.0112,3.072 -5.6939,4.98948 -1.6436,1.87844 -3.0328,3.89379 -4.1677,6.04608 -1.0957,2.15236 -1.9371,4.38295 -2.5241,6.69177 -0.587,2.30889 -0.8805,4.55905 -0.8804,6.75048"
             style="font-variant:normal;font-stretch:normal;font-family:Short Stack;-inkscape-font-specification:Short Stack"
             id="path7003" />
          <path
             inkscape:connector-curvature="0"
             d="m 1707.5569,679.80298 c -3.8742,0 -7.0831,-0.7631 -9.6267,-2.28929 -2.5437,-1.56532 -4.5982,-3.63938 -6.1635,-6.22218 -1.5654,-2.62191 -2.7394,-5.59603 -3.522,-8.92236 -0.7827,-3.36544 -1.3305,-6.84829 -1.6436,-10.44856 -0.3131,-3.63936 -0.4892,-7.25918 -0.5283,-10.85946 -0.039,-3.60022 -0.098,-6.92653 -0.1761,-9.97897 -1.0566,5e-5 -2.0154,5e-5 -2.8763,0 -0.8218,5e-5 -1.6436,0.0196 -2.4654,0.0587 -0.4696,0.0392 -0.9,0.0783 -1.2914,0.1174 -0.3913,5e-5 -0.8218,0.0196 -1.2914,0.0587 -0.4304,5e-5 -0.9392,0.0196 -1.5262,0.0587 -0.5478,5e-5 -1.2327,5e-5 -2.0544,0 -0.4697,5e-5 -1.0958,-0.11735 -1.8784,-0.3522 -0.7827,-0.23475 -1.5654,-0.56738 -2.348,-0.99789 -0.7827,-0.43042 -1.4675,-0.95872 -2.0545,-1.5849 -0.5479,-0.66521 -0.8218,-1.40874 -0.8218,-2.23059 0,-0.82174 0.1761,-1.58484 0.5283,-2.28929 0.3522,-0.70434 0.8218,-1.29134 1.4088,-1.76099 0.6261,-0.50868 1.3501,-0.90001 2.1719,-1.174 0.8218,-0.27387 1.6827,-0.41084 2.5828,-0.4109 l 12.3269,0.2935 c 0.1174,-0.97827 0.2348,-1.9566 0.3522,-2.93499 0.1174,-0.97827 0.2152,-1.93703 0.2935,-2.87629 0.1174,-1.1348 0.1956,-2.19139 0.2348,-3.16979 0.039,-0.97826 0.098,-1.91745 0.1761,-2.81759 0.078,-0.93912 0.1565,-1.85875 0.2348,-2.75889 0.1174,-0.93912 0.2935,-1.91745 0.5283,-2.93499 0.1174,-0.66518 0.3913,-1.31088 0.8218,-1.93709 0.4304,-0.66518 0.9196,-1.25218 1.4675,-1.76099 0.587,-0.50865 1.1935,-0.91955 1.8197,-1.2327 0.6652,-0.31298 1.2914,-0.46951 1.8784,-0.4696 0.4695,9e-5 0.9587,0.11749 1.4675,0.3522 0.5087,0.23488 0.9783,0.58708 1.4088,1.0566 0.4304,0.43054 0.7826,0.95884 1.0566,1.58489 0.313,0.58708 0.4695,1.25234 0.4696,1.9958 -10e-5,1.5654 -0.02,2.87636 -0.059,3.93288 -10e-5,1.05667 -0.039,1.95673 -0.1174,2.70019 -0.039,0.7436 -0.098,1.3893 -0.1761,1.93709 -0.078,0.54794 -0.1566,1.0958 -0.2348,1.6436 -0.078,0.43053 -0.1566,0.90013 -0.2348,1.40879 -0.039,0.46967 -0.098,1.01753 -0.1761,1.6436 -0.039,0.62619 -0.098,1.35015 -0.1761,2.17189 -0.078,0.78272 -0.1762,1.72192 -0.2935,2.81759 2.2305,-0.0391 4.3437,-0.0782 6.3395,-0.1174 2.0349,-0.0782 4.0307,-0.13691 5.9874,-0.1761 1.9566,-0.0782 3.9524,-0.13691 5.9874,-0.1761 2.0349,-0.0391 4.2068,-0.0586 6.5157,-0.0587 0.7826,6e-5 1.4674,0.21529 2.0545,0.6457 0.626,0.39139 1.1348,0.88055 1.5262,1.46749 0.4304,0.58706 0.7434,1.21319 0.9392,1.8784 0.2347,0.62618 0.3521,1.17404 0.3522,1.64359 -10e-5,0.82185 -0.1762,1.56538 -0.5283,2.23059 -0.3523,0.62618 -0.7828,1.15448 -1.2914,1.5849 -0.5088,0.43051 -1.0763,0.74357 -1.7023,0.93919 -0.6262,0.19572 -1.1936,0.29355 -1.7023,0.2935 l -24.0082,-0.4109 c -0.1566,0.15658 -0.2349,0.33268 -0.2348,0.5283 -10e-5,2.07411 -0.039,4.46123 -0.1174,7.16137 -0.078,2.6611 -0.098,5.38085 -0.059,8.15927 0.078,2.77849 0.2543,5.51781 0.5283,8.21797 0.2739,2.66108 0.763,5.0482 1.4675,7.16138 0.7435,2.07407 1.7414,3.7568 2.9937,5.04818 1.2522,1.2914 2.8958,1.9371 4.9307,1.93709 0.6653,10e-6 1.4479,-0.11739 2.348,-0.3522 0.9392,-0.27392 1.8588,-0.58698 2.7589,-0.93919 0.9,-0.35219 1.7414,-0.74352 2.5241,-1.174 0.7826,-0.43045 1.3892,-0.82178 1.8197,-1.174 0.4304,-0.39131 0.9978,-0.74351 1.7023,-1.05659 0.7043,-0.31305 1.2913,-0.46958 1.761,-0.4696 1.487,2e-5 2.4262,0.37178 2.8176,1.1153 0.4304,0.70441 0.6456,1.68274 0.6457,2.93499 -10e-5,0.43047 -0.098,0.95877 -0.2935,1.58489 -0.1958,0.58701 -0.4501,1.07617 -0.7631,1.46749 -0.7436,0.93921 -1.7219,1.9371 -2.935,2.99369 -1.1741,1.01747 -2.4459,1.95667 -3.8155,2.81759 -1.3697,0.8218 -2.7589,1.50663 -4.1677,2.0545 -1.4088,0.54786 -2.7002,0.82179 -3.8742,0.82179"
             style="font-variant:normal;font-stretch:normal;font-family:Short Stack;-inkscape-font-specification:Short Stack"
             id="path7005" />
        </g>
        <g
           transform="matrix(0.7798944,0,0,0.7798944,878.52079,374.2105)"
           id="layer1-5-4"
           inkscape:label="Capa 1">
          <text
             sodipodi:linespacing="125%"
             id="text3197-4"
             y="535.85278"
             x="3592.4868"
             style="font-size:430.46691895px;font-style:normal;font-variant:normal;font-weight:bold;font-stretch:normal;text-align:start;line-height:125%;letter-spacing:0px;word-spacing:0px;writing-mode:lr-tb;text-anchor:start;fill:#ffffff;fill-opacity:1;stroke:none;font-family:Rudiment;-inkscape-font-specification:Rudiment Bold"
             xml:space="preserve"
             inkscape:export-filename="/home/david/work/pipo/textures/abeja.png"
             inkscape:export-xdpi="90"
             inkscape:export-ydpi="90"><tspan
               style="font-style:normal;font-weight:500;fill:#ffffff;-inkscape-font-specification:Rudiment Medium"
               y="535.85278"
               x="3592.4868"
               id="tspan3199-95"
               sodipodi:role="line" /></text>
          <text
             sodipodi:linespacing="125%"
             id="text3197-5-27"
             y="626.41736"
             x="1691.156"
             style="font-size:430.46691895px;font-style:normal;font-variant:normal;font-weight:bold;font-stretch:normal;text-align:start;line-height:125%;letter-spacing:0px;word-spacing:0px;writing-mode:lr-tb;text-anchor:start;fill:#ffffff;fill-opacity:1;stroke:none;font-family:Rudiment;-inkscape-font-specification:Rudiment Bold"
             xml:space="preserve"
             inkscape:export-filename="/home/david/work/pipo/textures/abeja.png"
             inkscape:export-xdpi="90"
             inkscape:export-ydpi="90"><tspan
               style="font-style:normal;font-weight:500;fill:#ffffff;-inkscape-font-specification:Rudiment Medium"
               y="626.41736"
               x="1691.156"
               id="tspan3199-9-4"
               sodipodi:role="line" /></text>
          <text
             sodipodi:linespacing="125%"
             id="text3197-6-6"
             y="274.43268"
             x="3083.7539"
             style="font-size:430.46691895px;font-style:normal;font-variant:normal;font-weight:bold;font-stretch:normal;text-align:start;line-height:125%;letter-spacing:0px;word-spacing:0px;writing-mode:lr-tb;text-anchor:start;fill:#ffffff;fill-opacity:1;stroke:none;font-family:Rudiment;-inkscape-font-specification:Rudiment Bold"
             xml:space="preserve"
             inkscape:export-filename="/home/david/work/pipo/textures/abeja.png"
             inkscape:export-xdpi="90"
             inkscape:export-ydpi="90"><tspan
               style="font-style:normal;font-weight:500;fill:#ffffff;-inkscape-font-specification:Rudiment Medium"
               y="274.43268"
               x="3083.7539"
               id="tspan3199-97-7"
               sodipodi:role="line" /></text>
          <g
             transform="translate(2343.5539,-537.40115)"
             id="g5849">
            <path
               style="fill:none;stroke:#000000;stroke-width:14.80000019;stroke-linecap:butt;stroke-linejoin:miter;stroke-miterlimit:4;stroke-opacity:1;stroke-dasharray:none"
               d="m -1591.4126,966.94168 -24.0174,18.13212 c -1.3369,-0.2699 -2.7312,-0.42038 -4.1477,-0.42038 -10.9352,0 -19.8797,8.44695 -20.7104,19.16908 l -69.3056,52.2945 -0.028,0.028 21.2709,-0.2242 136.3692,-1.3452 c 0,0 -24.0004,29.8167 -35.5075,58.7962 -0.1294,0.3259 -0.2381,0.6553 -0.3643,0.9809 -0.1161,0.2994 -0.2511,0.5977 -0.3644,0.8968 -0.144,0.3804 -0.281,0.7692 -0.4203,1.149 -1.0882,2.9668 -2.0444,5.9069 -2.8025,8.7998 -0.027,0.1013 -0.03,0.2072 -0.056,0.3083 -0.2354,0.9128 -0.4756,1.8176 -0.6726,2.7184 -0.01,0.038 -0.02,0.074 -0.028,0.1121 -0.4071,1.8763 -0.7298,3.7392 -0.9529,5.549 0,0.046 0.01,0.094 0,0.1401 -0.218,1.8082 -0.3535,3.5744 -0.3643,5.2967 0,0.4707 0.014,0.9379 0.028,1.4012 0.012,0.4126 0.03,0.8266 0.056,1.2331 0.01,0.094 0.021,0.187 0.028,0.2803 0.02,0.276 0.03,0.5677 0.056,0.8407 0.048,0.4974 0.099,0.9983 0.1682,1.4854 0.1175,0.8212 0.2944,1.6201 0.4764,2.4101 0,0.01 0,0.019 0,0.028 0.092,0.3968 0.1716,0.7887 0.2802,1.177 0.109,0.3904 0.238,0.7675 0.3643,1.1491 0.096,0.2893 0.1743,0.5846 0.2803,0.8687 0.095,0.255 0.205,0.506 0.3083,0.7567 0.055,0.1324 0.1111,0.2612 0.1681,0.3924 0.033,0.077 0.078,0.1479 0.1121,0.2242 0.08,0.1779 0.1681,0.3568 0.2522,0.5324 0.1001,0.2091 0.202,0.4109 0.3083,0.6166 0.057,0.1109 0.109,0.2264 0.1682,0.3363 0.1613,0.2995 0.3291,0.6047 0.5044,0.8968 0.3568,0.5943 0.7328,1.1754 1.149,1.7375 1.2104,1.6346 2.5735,3.163 4.0917,4.5681 0,0 0.023,0 0.028,0 0.175,0.1618 0.3537,0.3177 0.5324,0.4764 0.4199,0.3732 0.8491,0.7364 1.2892,1.093 0.1801,0.1458 0.3491,0.3054 0.5325,0.4484 0,0 0.022,0 0.028,0 0.1727,0.1345 0.3569,0.2603 0.5324,0.3923 0.6657,0.5012 1.3407,0.9915 2.0459,1.4573 4.9048,3.2397 10.7294,5.6175 17.0391,7.1744 1.4927,0.3683 3.0274,0.677 4.5681,0.9528 0.226,0.04 0.4457,0.1018 0.6726,0.1402 0.01,0 0.019,0 0.028,0 0.073,0.012 0.1506,0.016 0.2242,0.028 l -0.3924,19.0569 -27.9969,-2.4101 -4.8203,20.8225 94.0517,0.8127 -1.5975,-20.0098 -31.6121,1.5974 -1.3732,-19.7295 c 12.9298,-1.9224 25.0666,-6.7454 33.2656,-14.3207 0.192,-0.1773 0.3728,-0.3522 0.5605,-0.5325 0.4135,-0.3971 0.8132,-0.7934 1.2051,-1.2051 0.1472,-0.1546 0.2762,-0.3197 0.4203,-0.4764 0.1439,-0.1566 0.3077,-0.2898 0.4484,-0.4484 0.031,-0.035 0.053,-0.077 0.084,-0.1121 0.2469,-0.2804 0.492,-0.582 0.7287,-0.8688 0.094,-0.1133 0.1883,-0.2219 0.2802,-0.3363 0.1738,-0.2159 0.3365,-0.4251 0.5045,-0.6445 0.1417,-0.1853 0.2828,-0.3728 0.4203,-0.5605 0.1095,-0.1496 0.2296,-0.2973 0.3363,-0.4484 0.1904,-0.2695 0.3789,-0.5383 0.5605,-0.8128 0.049,-0.074 0.092,-0.1501 0.1402,-0.2242 0.2271,-0.3495 0.4599,-0.7073 0.6726,-1.0649 0.2041,-0.3666 0.3986,-0.7457 0.5885,-1.121 0.7559,-1.4943 1.3943,-3.0537 1.9337,-4.6802 0.01,-0.019 0.022,-0.037 0.028,-0.056 0.2158,-0.6544 0.4063,-1.343 0.5885,-2.0178 0.037,-0.1378 0.077,-0.2817 0.1121,-0.4203 0.043,-0.1662 0.071,-0.3371 0.1121,-0.5045 l 2.8025,-0.4484 0.2522,-16.0583 c 27.5102,-58.5475 47.8369,-113.9475 33.3217,-154.10896 -38.3471,28.00071 -44.246,71.37246 -43.775,117.76066 -0.8764,-2.465 -1.7991,-4.9432 -2.7744,-7.4546 -0.4763,-1.2266 -0.9678,-2.4633 -1.4573,-3.6993 -0.2683,-0.6661 -0.5386,-1.3492 -0.8127,-2.0178 l -0.028,0 c -2.3084,-5.6306 -4.7832,-11.3461 -7.4266,-17.0952 -0.7544,-1.6408 -1.4958,-3.2592 -2.2701,-4.9043 -3.1562,-6.7069 -6.4599,-13.4156 -9.8087,-20.0939 -1.0654,-2.1247 -2.1528,-4.2506 -3.2228,-6.3617 -10.788,-21.2832 -21.6157,-41.76405 -28.8377,-58.74018 l -1.6977,11.6891 -42.9179,0.24952 z"
               id="path4863"
               inkscape:connector-curvature="0"
               sodipodi:nodetypes="ccsccccccccccsscccccccccccccccccccccsccccccccsccccccccccccsccscccccccccccccccccccccccccsscccc" />
            <path
               style="fill:url(#linearGradient10572);fill-opacity:1;stroke:none"
               d="m -1493.4491,1143.1189 c -2.0645,-64.9361 -11.2492,-133.2449 41.8776,-172.03771 15.9904,44.24291 -10.2714,106.97121 -41.8776,172.03771 z"
               id="path4825"
               inkscape:connector-curvature="0"
               sodipodi:nodetypes="ccc" />
            <path
               style="fill:url(#linearGradient10574);fill-opacity:1;stroke:none"
               d="m -1591.4127,966.93921 -118.2188,89.18749 21.2813,-0.1875 0,-0.031 136.375,-1.3437 c 0,0 -23.9915,29.8358 -35.5,58.8125 -0.4021,1.0123 -0.7862,2.0222 -1.1563,3.0312 -0.3687,1.005 -0.7286,2.001 -1.0625,3 -0.2406,0.72 -0.4663,1.4093 -0.6875,2.125 -0.087,0.2807 -0.1663,0.5638 -0.25,0.8438 -0.591,1.9785 -1.1099,3.9459 -1.5312,5.875 -0.2103,0.9629 -0.3991,1.9282 -0.5625,2.875 -0.4903,2.8406 -0.7679,5.6011 -0.7813,8.25 0,0.01 10e-5,0.021 0,0.031 0,0.01 10e-5,0.021 0,0.031 0,0.8791 0.038,1.7409 0.094,2.5937 0.056,0.8614 0.1308,1.6993 0.25,2.5313 0.012,0.083 0.019,0.1675 0.031,0.25 0.05,0.3291 0.1275,0.6446 0.1875,0.9687 0.076,0.4093 0.1574,0.8177 0.25,1.2188 0.092,0.3988 0.1721,0.7971 0.2813,1.1875 0.1089,0.3902 0.2487,0.7747 0.375,1.1562 0.1267,0.3822 0.2617,0.7519 0.4062,1.125 0.1266,0.3266 0.2346,0.6494 0.375,0.9688 0.1885,0.4288 0.4109,0.8658 0.625,1.2812 0.022,0.041 0.041,0.084 0.062,0.125 0.1513,0.2889 0.3048,0.5617 0.4688,0.8438 0.2016,0.3463 0.4037,0.6955 0.625,1.0312 0.2155,0.3271 0.4217,0.6521 0.6562,0.9688 0.4235,0.5719 0.881,1.1125 1.3438,1.6562 0.4574,0.5373 0.9435,1.0527 1.4375,1.5625 0.435,0.4489 0.8816,0.9161 1.3437,1.3438 0.06,0.055 0.1276,0.1014 0.1875,0.1562 0.4864,0.444 0.9855,0.8603 1.5,1.2813 0.046,0.038 0.079,0.088 0.125,0.125 0.186,0.1507 0.373,0.2897 0.5625,0.4375 0.3873,0.3027 0.7861,0.6159 1.1875,0.9062 0.4533,0.3266 0.9357,0.6579 1.4063,0.9688 0.1345,0.089 0.2704,0.1623 0.4062,0.25 0.4535,0.2922 0.9067,0.5658 1.375,0.8437 0.2406,0.1431 0.4744,0.2982 0.7188,0.4375 0.5575,0.3172 1.111,0.6086 1.6875,0.9063 0.042,0.022 0.083,0.041 0.125,0.062 0.6369,0.3266 1.3102,0.6345 1.9687,0.9375 0.1986,0.091 0.3933,0.1919 0.5938,0.2812 0.188,0.084 0.3729,0.1682 0.5625,0.25 0.3564,0.1539 0.7006,0.3215 1.0625,0.4688 0.084,0.034 0.1659,0.06 0.25,0.094 0.039,0.016 0.086,0.016 0.125,0.031 0.4871,0.1938 0.9723,0.4118 1.4687,0.5937 0.1234,0.045 0.2511,0.08 0.375,0.125 0.6073,0.218 1.2237,0.4246 1.8438,0.625 0.8971,0.2904 1.7972,0.5588 2.7187,0.8125 0.01,0 0.022,0 0.031,0 1.0218,0.2808 2.0768,0.5454 3.125,0.7813 0.2293,0.052 0.457,0.1068 0.6875,0.1562 1.0431,0.224 2.0918,0.4135 3.1562,0.5938 0.085,0.014 0.1645,0.048 0.25,0.062 l -0.375,19.0312 -28.0312,-2.375 -4.8125,20.7813 94.0625,0.8125 -1.625,-20 -31.5938,1.5937 -1.375,-19.7187 c 0.9933,-0.1477 1.9862,-0.3182 2.9688,-0.5 0.063,-0.012 0.1249,-0.02 0.1875,-0.031 1.1492,-0.2155 2.2763,-0.4567 3.4062,-0.7188 0.9264,-0.2149 1.8395,-0.4413 2.75,-0.6875 1.0126,-0.2738 2.0103,-0.5627 3,-0.875 0.9825,-0.31 1.9497,-0.6523 2.9063,-1 0.9059,-0.3293 1.8077,-0.6683 2.6875,-1.0312 0.052,-0.021 0.1044,-0.041 0.1562,-0.062 0.1562,-0.065 0.3135,-0.1216 0.4688,-0.1875 0.7277,-0.3092 1.4489,-0.6364 2.1562,-0.9688 0.042,-0.02 0.083,-0.043 0.125,-0.062 0.801,-0.3781 1.6028,-0.7483 2.375,-1.1562 0.096,-0.051 0.1856,-0.105 0.2813,-0.1563 0.8367,-0.4486 1.6694,-0.9224 2.4687,-1.4062 0.012,-0.01 0.019,-0.024 0.031,-0.031 0.052,-0.032 0.1042,-0.062 0.1562,-0.094 0.7767,-0.4746 1.5121,-0.961 2.25,-1.4688 0.1677,-0.1153 0.3345,-0.2267 0.5,-0.3437 0.6051,-0.4277 1.2052,-0.8621 1.7813,-1.3125 0.276,-0.2158 0.5435,-0.4353 0.8125,-0.6563 0.4543,-0.3729 0.8786,-0.7373 1.3125,-1.125 0.111,-0.099 0.2029,-0.2125 0.3125,-0.3125 0.4477,-0.4089 0.8883,-0.825 1.3125,-1.25 0.1093,-0.1095 0.236,-0.2019 0.3437,-0.3125 0.066,-0.068 0.1221,-0.1505 0.1875,-0.2187 0.2528,-0.2635 0.5066,-0.5118 0.75,-0.7813 0.1052,-0.1161 0.2092,-0.2265 0.3125,-0.3437 0.1905,-0.2164 0.3781,-0.4361 0.5625,-0.6563 0.1479,-0.1762 0.2936,-0.3526 0.4375,-0.5312 0.1352,-0.1679 0.2747,-0.33 0.4063,-0.5 0.184,-0.2374 0.3543,-0.4773 0.5312,-0.7188 0.3024,-0.4129 0.5936,-0.8562 0.875,-1.2812 0.2794,-0.4222 0.5545,-0.8473 0.8125,-1.2813 0.2047,-0.3675 0.4034,-0.7487 0.5938,-1.125 0.1248,-0.2466 0.2563,-0.4997 0.375,-0.75 0.064,-0.1342 0.1256,-0.271 0.1875,-0.4062 0.056,-0.1226 0.1015,-0.2516 0.1562,-0.375 0.2639,-0.5961 0.5188,-1.1965 0.75,-1.8125 0.023,-0.062 0.04,-0.1255 0.062,-0.1875 0.037,-0.1014 0.057,-0.2107 0.094,-0.3125 0.2186,-0.6099 0.4369,-1.2154 0.625,-1.8438 0.031,-0.1046 0.063,-0.2074 0.094,-0.3125 0.018,-0.06 0.014,-0.1272 0.031,-0.1875 0.1549,-0.5444 0.3046,-1.0986 0.4375,-1.6562 0.057,-0.2393 0.1345,-0.4771 0.1875,-0.7188 0.025,-0.1126 0.038,-0.2306 0.062,-0.3437 0.161,-0.7641 0.3151,-1.5253 0.4375,-2.3125 0.1115,-0.7067 0.1998,-1.4317 0.2812,-2.1563 0.1712,-1.5229 0.2689,-3.0888 0.3125,-4.6875 0.227,-8.3208 -1.2001,-17.617 -3.8125,-27.5625 l -0.1562,0.031 c -11.5711,-42.9098 -45.3638,-97.6449 -61.375,-135.28124 l 0,11.40625 -44.5938,0.5 5.1563,-13.46875 z"
               id="path4800"
               inkscape:connector-curvature="0" />
            <path
               sodipodi:type="arc"
               style="fill:#ffffff;fill-opacity:1;stroke:none"
               id="path4517"
               sodipodi:cx="-510.12704"
               sodipodi:cy="962.45862"
               sodipodi:rx="61.619305"
               sodipodi:ry="61.619305"
               d="m -448.50774,962.45862 c 0,34.0314 -27.5879,61.61928 -61.6193,61.61928 -34.03141,0 -61.61931,-27.58788 -61.61931,-61.61928 0,-34.0314 27.5879,-61.61931 61.61931,-61.61931 34.0314,0 61.6193,27.58791 61.6193,61.61931 z"
               transform="matrix(0.33743034,0,0,0.33743034,-1447.4373,680.68409)"
               inkscape:export-filename="/home/david/work/pipo/textures/abeja.png"
               inkscape:export-xdpi="90"
               inkscape:export-ydpi="90" />
            <path
               sodipodi:type="arc"
               style="fill:#ffffff;fill-opacity:1;stroke:none"
               id="path4519"
               sodipodi:cx="-334.3605"
               sodipodi:cy="972.56012"
               sodipodi:rx="63.63961"
               sodipodi:ry="63.63961"
               d="m -270.72089,972.56012 c 0,35.14718 -28.49243,63.63958 -63.63961,63.63958 -35.14719,0 -63.63961,-28.4924 -63.63961,-63.63958 0,-35.14719 28.49242,-63.63961 63.63961,-63.63961 35.14718,0 63.63961,28.49242 63.63961,63.63961 z"
               transform="matrix(0.34242327,0,0,0.34242327,-1457.4009,673.1586)"
               inkscape:export-filename="/home/david/work/pipo/textures/abeja.png"
               inkscape:export-xdpi="90"
               inkscape:export-ydpi="90" />
            <path
               d="m -448.50774,962.45862 c 0,34.0314 -27.5879,61.61928 -61.6193,61.61928 -34.03141,0 -61.61931,-27.58788 -61.61931,-61.61928 0,-34.0314 27.5879,-61.61931 61.61931,-61.61931 34.0314,0 61.6193,27.58791 61.6193,61.61931 z"
               sodipodi:ry="61.619305"
               sodipodi:rx="61.619305"
               sodipodi:cy="962.45862"
               sodipodi:cx="-510.12704"
               id="path4521"
               style="fill:#000000;fill-opacity:1;stroke:none"
               sodipodi:type="arc"
               transform="matrix(0.2029123,0,0,0.2029123,-1508.5379,812.23928)"
               inkscape:export-filename="/home/david/work/pipo/textures/abeja.png"
               inkscape:export-xdpi="90"
               inkscape:export-ydpi="90" />
            <path
               transform="matrix(0.2029123,0,0,0.2029123,-1512.3217,810.33824)"
               d="m -270.72089,972.56012 c 0,35.14718 -28.49243,63.63958 -63.63961,63.63958 -35.14719,0 -63.63961,-28.4924 -63.63961,-63.63958 0,-35.14719 28.49242,-63.63961 63.63961,-63.63961 35.14718,0 63.63961,28.49242 63.63961,63.63961 z"
               sodipodi:ry="63.63961"
               sodipodi:rx="63.63961"
               sodipodi:cy="972.56012"
               sodipodi:cx="-334.3605"
               id="path4523"
               style="fill:#000000;fill-opacity:1;stroke:none"
               sodipodi:type="arc"
               inkscape:export-filename="/home/david/work/pipo/textures/abeja.png"
               inkscape:export-xdpi="90"
               inkscape:export-ydpi="90" />
            <path
               style="fill:url(#linearGradient10576);fill-opacity:1;stroke:none"
               d="m -1695.1627,1045.2517 -14.4688,10.875 21.2813,-0.1875 z"
               id="path4806"
               inkscape:connector-curvature="0"
               sodipodi:nodetypes="cccc" />
            <path
               style="fill:none;stroke:#000000;stroke-width:2.68142366;stroke-linecap:butt;stroke-linejoin:miter;stroke-miterlimit:4;stroke-opacity:1;stroke-dasharray:none"
               d="m -1676.4408,1051.4575 c 60.1964,2.094 145.8352,4.5468 132.7485,-48.225"
               id="path4809"
               inkscape:connector-curvature="0"
               sodipodi:nodetypes="cc" />
            <path
               style="fill:url(#linearGradient10578);fill-opacity:1;stroke:none"
               d="m -1523.1347,1027.2162 -20.0299,13.8668 23.2398,-7.4983 c -1.0653,-2.1247 -2.1398,-4.2574 -3.2099,-6.3685 z m 13.0195,26.4497 -24.2414,10.2461 26.5268,-5.3156 c -0.7543,-1.6409 -1.5112,-3.2853 -2.2854,-4.9305 z m 9.7324,22.0072 -28.7865,6.9078 31.0463,-1.1813 c -0.7368,-1.8976 -1.473,-3.8071 -2.2598,-5.7265 z m 7.447,20.2097 -28.9663,5.8806 30.8409,0.3851 c -0.5789,-2.0621 -1.201,-4.1545 -1.8746,-6.2657 z m -27.4255,25.063 33.7427,8.0377 c -0.03,-2.3332 -0.1941,-4.7451 -0.4623,-7.2159 l -33.2804,-0.8218 z m -3.1072,19.6961 25.7307,17.6674 c 2.5463,-2.3407 4.7189,-4.9459 6.4198,-7.8065 0.5066,-0.9097 0.9412,-1.8618 1.361,-2.8248 l -33.5115,-7.0361 z"
               id="path4813"
               inkscape:connector-curvature="0" />
            <path
               style="fill:url(#linearGradient10580);fill-opacity:1;stroke:none"
               d="m -1518.3681,1070.4328 1.6007,76.0307 31.6127,-5.2021 0.4002,-25.6103 -21.2086,6.8027 -0.4001,-51.6208"
               id="path4829"
               inkscape:connector-curvature="0" />
            <path
               style="fill:none;stroke:#000000;stroke-width:2.68142366;stroke-linecap:butt;stroke-linejoin:miter;stroke-miterlimit:4;stroke-opacity:1;stroke-dasharray:none"
               d="m -1503.5621,1128.0561 18.0072,-4.0017"
               id="path4831"
               inkscape:connector-curvature="0" />
            <path
               style="fill:none;stroke:#000000;stroke-width:2.68142366;stroke-linecap:butt;stroke-linejoin:miter;stroke-miterlimit:4;stroke-opacity:1;stroke-dasharray:none"
               d="m -1502.3616,1136.4594 16.8067,-3.6014"
               id="path4833"
               inkscape:connector-curvature="0" />
            <path
               style="fill:none;stroke:#000000;stroke-width:2.68142366;stroke-linecap:butt;stroke-linejoin:miter;stroke-miterlimit:4;stroke-opacity:1;stroke-dasharray:none"
               d="m -1544.7787,1170.4731 1.6006,39.8161"
               id="path4845"
               inkscape:connector-curvature="0"
               sodipodi:nodetypes="cc" />
            <path
               style="fill:none;stroke:#000000;stroke-width:2.68142366;stroke-linecap:butt;stroke-linejoin:miter;stroke-miterlimit:4;stroke-opacity:1;stroke-dasharray:none"
               d="m -1581.5936,1196.0835 -0.8003,13.2053"
               id="path4855"
               inkscape:connector-curvature="0" />
            <path
               style="fill:none;stroke:#000000;stroke-width:2.68142366;stroke-linecap:butt;stroke-linejoin:miter;stroke-miterlimit:4;stroke-opacity:1;stroke-dasharray:none"
               d="m -1572.3898,1197.6841 0.4001,11.6047"
               id="path4857"
               inkscape:connector-curvature="0" />
            <path
               style="fill:none;stroke:#000000;stroke-width:2.68142366;stroke-linecap:butt;stroke-linejoin:miter;stroke-miterlimit:4;stroke-opacity:1;stroke-dasharray:none"
               d="m -1517.9679,1199.2848 -0.4002,10.8043"
               id="path4859"
               inkscape:connector-curvature="0" />
            <path
               style="fill:none;stroke:#000000;stroke-width:2.68142366;stroke-linecap:butt;stroke-linejoin:miter;stroke-miterlimit:4;stroke-opacity:1;stroke-dasharray:none"
               d="m -1507.9639,1199.2848 0,10.8043"
               id="path4861"
               inkscape:connector-curvature="0" />
            <path
               style="fill:#000000;stroke:none"
               d="m -1590.561,1127.6338 c 14.4258,5.2047 39.2802,3.5176 50.483,-0.631 z"
               id="path3212"
               inkscape:connector-curvature="0"
               sodipodi:nodetypes="ccc" />
          </g>
        </g>
        <g
           transform="matrix(1.1861164,0,0,1.1861164,1063.7626,-91.940294)"
           id="layer1-4-98"
           inkscape:label="Capa 1"
           style="fill:#ffffff">
          <path
             inkscape:connector-curvature="0"
             id="path3186-3"
             d="m 347.10618,145.18646 c -8.3208,0.2174 -16.735,1.9574 -23.9062,5.5938 -7.1712,3.6363 -13.5225,9.6833 -15.125,18.1875 -0.2471,1.3113 -0.4958,2.5934 -0.7188,3.875 -2.7523,-1.2326 -5.7369,-1.966 -8.7187,-2.2187 a 7.1202884,7.1202884 0 0 0 -1.4063,-0.1876 c -11.6401,-0.3984 -24.0964,4.4709 -34.0624,11.875 -4.9829,3.702 -9.3277,8.082 -12.3126,13.2813 -0.0805,0.1403 -0.1402,0.2956 -0.2187,0.4375 -0.9767,-0.036 -1.9598,-0.051 -2.9687,0 a 7.1202884,7.1202884 0 0 0 -0.25,-0.031 7.1202884,7.1202884 0 0 0 -0.7188,0.031 l -0.0625,0 -0.125,0 a 7.1202884,7.1202884 0 0 0 -0.9063,0.1562 c -9.2439,1.0175 -18.6448,4.994 -26.1874,10.9063 -7.7894,6.1058 -14.3183,15.182 -12.1563,25.7187 0.8608,4.1952 1.7661,8.17 2.75,11.9376 a 7.1202884,7.1202884 0 0 0 -1.0625,3.7187 c -0.4609,25.2125 -4.2961,51.751 2.125,74.8437 3.2106,11.5463 9.3346,22.3111 19.6875,30.4688 9.236,7.2775 21.7697,12.2762 37.9375,15.125 l 1.4688,24.1562 a 7.1228488,7.1228488 0 1 0 14.2187,-0.875 l -1.8125,-29.6874 a 7.1202884,7.1202884 0 0 0 -6.1562,-6.625 c -17.4463,-2.3334 -29.0434,-7.1349 -36.8438,-13.2813 -7.8004,-6.1463 -12.1757,-13.7235 -14.7812,-23.0937 -3.274,-11.7744 -3.2969,-26.297 -2.7188,-42 7.2957,14.3821 14.9929,22.5426 20.375,26.5624 11.6544,8.7048 24.2756,9.5698 33.375,4.5 6.1211,-3.4103 10.5154,-8.8386 13.2188,-15.0312 0.476,0.3656 0.9582,0.7469 1.4062,1.0625 10.9709,7.7279 22.2478,9.516 31.4375,6.6875 -0.0946,6.9123 1.5738,13.7765 5.0937,19.6562 3.8419,6.4176 10.2753,11.714 18.5,13 a 7.1202884,7.1202884 0 1 0 2.1876,-14.0624 c -3.6033,-0.5635 -6.3147,-2.6517 -8.4688,-6.25 -2.1541,-3.5984 -3.3196,-8.6356 -3.0312,-13.4063 0.2884,-4.7706 1.9565,-9.0899 4.75,-12 2.7934,-2.91 6.6695,-4.8723 13.4687,-4.5937 a 7.1202884,7.1202884 0 0 0 0.0625,0 l 81.9062,2.6874 a 7.1202884,7.1202884 0 1 0 0.4688,-14.2187 l -7.7188,-0.25 c 3.9737,-3.1585 7.3715,-7.1034 10,-11.4375 l -0.0312,0 c 4.4858,-7.3932 7.0915,-17.2674 8.7188,-29.2812 3.9402,3.0754 8.6086,7.3453 12.6562,12.75 8.6223,11.513 15.5614,28.0844 11.4375,52.125 -3.8794,22.6174 -20.6034,35.4537 -37.4687,43.1562 -16.8654,7.7024 -32.7813,9.5 -32.7813,9.5 a 7.1202884,7.1202884 0 0 0 -6.3437,6.9062 l -0.9063,37.8126 a 7.1202884,7.1202884 0 1 0 14.2187,0.3124 l 0.7813,-32 c 6.2257,-1.0278 16.9856,-3.1906 30.9375,-9.5624 19.1998,-8.7687 40.7012,-25.1942 45.5938,-53.7188 4.7785,-27.8565 -3.5808,-49.0663 -14.0626,-63.0625 -8.0365,-10.7309 -16.6173,-17.2143 -22.5,-20.6563 0.8342,-13.8463 0.7233,-29.6136 -0.25,-46.625 -0.4916,-8.5935 -6.6364,-15.0559 -13.625,-18.4374 -6.9886,-3.3816 -15.2415,-4.6549 -23.5624,-4.4376 -8.3209,0.2174 -16.7351,1.9574 -23.9063,5.5938 -3.0121,1.5273 -5.8808,3.4936 -8.3125,5.875 -2.4462,-2.9919 -5.6331,-5.387 -9.0312,-7.0312 -6.9886,-3.3816 -15.2418,-4.6549 -23.5626,-4.4376 z m 0.3438,14.25 c 6.505,-0.1699 12.8989,1.0157 17,3 4.1011,1.9845 5.473,3.7811 5.625,6.4376 0.2685,4.6937 0.4615,9.2815 0.5938,13.75 -2.308,17.0437 -2.4376,31.1582 -1.3438,42.6562 -1.5193,12.9216 -4.2459,22.819 -7.2188,27.7188 -3.9309,6.4816 -10.6265,11.3539 -16.6874,12.125 -1.4534,0.1849 -2.93,0.2162 -4.4063,0 a 7.1202884,7.1202884 0 0 0 -1.375,-0.5626 c -4.1828,-1.1812 -8.5294,-4.0739 -12.9687,-11.4687 -2.3206,-3.8655 -6.3438,-13.5465 -7.875,-29.6875 -0.056,-0.6033 -0.1074,-1.2222 -0.1563,-1.8438 -0.0437,-0.5416 -0.087,-1.0695 -0.125,-1.625 -0.1263,-1.9016 -0.2291,-3.8713 -0.2813,-5.9374 -5e-4,-0.02 6e-4,-0.042 0,-0.063 -0.1309,-5.2742 0.0161,-11.0994 0.5,-17.4687 0.0154,-0.2006 0.0153,-0.3921 0.0313,-0.5937 0.5806,-7.3517 1.6458,-15.4351 3.3125,-24.2813 0.5647,-2.9969 2.8821,-5.7516 7.5625,-8.125 4.6804,-2.3733 11.3075,-3.8613 17.8125,-4.0313 z m 64.8125,0 c 6.505,-0.1699 12.8989,1.0157 17,3 4.1011,1.9845 5.473,3.7811 5.625,6.4376 1.036,18.109 1.0729,34.6759 0.0313,48.5312 a 7.1202884,7.1202884 0 0 0 -0.0313,0.062 7.1202884,7.1202884 0 0 0 -0.125,1.7187 c -0.0711,0.8531 -0.1392,1.7317 -0.2187,2.5626 -1.4049,14.6693 -4.3843,25.9089 -7.625,31.25 -3.9309,6.4816 -10.6267,11.3539 -16.6876,12.125 -6.0609,0.771 -12.3086,-1.2082 -18.8437,-12.0938 -2.2475,-3.7438 -6.0656,-12.9142 -7.6563,-28.2188 0.0586,-0.568 0.1323,-1.1109 0.1876,-1.6874 1.1229,-11.7246 1.4346,-25.1717 1.0312,-39.7813 0.5213,-3.7599 1.1686,-7.669 1.9375,-11.75 0.5647,-2.9969 2.8821,-5.7516 7.5625,-8.125 4.6804,-2.3733 11.3075,-3.8613 17.8125,-4.0313 z m -116.8437,25.2188 c 0.4554,-0.016 0.9169,-0.015 1.3437,0 4.4891,0.1536 6.4411,1.2552 7.6875,3.6875 0.254,0.4952 0.397,0.7349 0.5938,1.0937 -4.1086,38.6814 3.4378,61.0997 9.3437,70.9376 1.9395,3.2306 4.1024,6.0065 6.4063,8.4062 0.2129,0.2243 0.4095,0.4705 0.625,0.6875 0.2104,0.2096 0.4434,0.3908 0.6562,0.5937 0.4226,0.4071 0.8187,0.839 1.25,1.2188 0.2309,0.2018 0.4855,0.3682 0.7188,0.5625 0.4643,0.3891 0.9329,0.7666 1.4062,1.125 0.0539,0.041 0.1023,0.085 0.1562,0.125 1.1603,0.8684 2.3555,1.6569 3.5626,2.3437 -1.9904,4.9928 -5.2967,9.154 -9.0938,11.25 -5.0853,2.8072 -11.4327,3.3288 -21.4375,-3.7187 -1.7001,-1.1976 -4.2567,-3.4181 -7.2813,-6.875 a 7.1202884,7.1202884 0 0 0 -0.9687,-1.5 c -4.8998,-5.7679 -10.8127,-14.4184 -16.4687,-27 -0.0224,-0.05 -0.0402,-0.1061 -0.0626,-0.1563 -1.3168,-2.9378 -2.5991,-6.0914 -3.875,-9.4687 -0.4965,-1.3174 -0.9818,-2.6776 -1.4687,-4.0625 -0.1628,-0.4624 -0.3384,-0.936 -0.5,-1.4062 -0.4239,-1.2351 -0.8353,-2.4931 -1.25,-3.7813 -0.0914,-0.2837 -0.1903,-0.5573 -0.2813,-0.8437 -0.3983,-1.2555 -0.7991,-2.5378 -1.1874,-3.8438 -0.097,-0.3261 -0.185,-0.6393 -0.2813,-0.9688 -0.6186,-2.1155 -1.2244,-4.3137 -1.8125,-6.5624 -0.5348,-2.0465 -1.0556,-4.1495 -1.5625,-6.3126 -0.0723,-0.3087 -0.1205,-0.6227 -0.1563,-0.9374 -0.0751,-0.964 0.0813,-2.0257 0.5,-3.4376 a 7.1202884,7.1202884 0 0 0 0.1876,-1.0312 c 0.2659,-0.6665 0.6112,-1.3622 1.0312,-2.0938 1.6799,-2.926 4.6915,-6.1313 8.4688,-8.9374 7.0823,-5.2617 16.9189,-8.8577 23.75,-9.0938 z m -48.125,25.625 c 0.0852,1.052 0.2522,2.099 0.5,3.1562 8.1031,34.5742 19.7943,56.0146 29.9062,68.6563 -1.0223,6.0769 -4.6186,11.6946 -8.8125,14.0313 -4.2437,2.3643 -9.376,2.9024 -17.9063,-3.4688 -5.3001,-3.9587 -21.2347,-21.0647 -29.7812,-62.7188 -0.6182,-3.0129 1.5285,-7.3674 7,-11.6562 5.3287,-4.177 13.093,-7.3401 19.0938,-8 z m 129.4374,45.375 c 0.8287,1.8062 1.6677,3.3844 2.4688,4.7188 2.4007,3.9988 5.1224,7.3343 8.0625,10.0624 l -20.5937,-0.6874 c 2.9399,-2.7417 5.5158,-5.9174 7.5937,-9.3438 0.899,-1.4817 1.7123,-3.074 2.4687,-4.75 z"
             style="font-size:medium;font-style:normal;font-variant:normal;font-weight:normal;font-stretch:normal;text-indent:0;text-align:start;text-decoration:none;line-height:normal;letter-spacing:normal;word-spacing:normal;text-transform:none;direction:ltr;block-progression:tb;writing-mode:lr-tb;text-anchor:start;baseline-shift:baseline;color:#000000;fill:#ffffff;fill-opacity:1;stroke:none;stroke-width:14.23915291;marker:none;visibility:visible;display:inline;overflow:visible;enable-background:accumulate;font-family:Sans;-inkscape-font-specification:Sans" />
        </g>
      </g>
      <rect
         y="16.503397"
         x="-15171.796"
         height="1027.4425"
         width="1023.3555"
         id="rect5661"
         style="fill:none;stroke:none" />
    </g>
  </g>
</svg>
