<?xml version="1.0" encoding="UTF-8" standalone="no"?>
<!-- Created with Inkscape (http://www.inkscape.org/) -->

<svg
   xmlns:dc="http://purl.org/dc/elements/1.1/"
   xmlns:cc="http://creativecommons.org/ns#"
   xmlns:rdf="http://www.w3.org/1999/02/22-rdf-syntax-ns#"
   xmlns:svg="http://www.w3.org/2000/svg"
   xmlns="http://www.w3.org/2000/svg"
   xmlns:xlink="http://www.w3.org/1999/xlink"
   xmlns:sodipodi="http://sodipodi.sourceforge.net/DTD/sodipodi-0.dtd"
   xmlns:inkscape="http://www.inkscape.org/namespaces/inkscape"
   width="1351.74"
   height="1351.7388"
   id="svg2"
   version="1.1"
   inkscape:version="0.48.3.1 r9886"
   sodipodi:docname="o.svg">
  <defs
     id="defs4">
    <linearGradient
       id="linearGradient3265-7"
       inkscape:collect="always">
      <stop
         id="stop3267-6"
         offset="0"
         style="stop-color:#a0692f;stop-opacity:1;" />
      <stop
         id="stop3269-0"
         offset="1"
         style="stop-color:#a0692f;stop-opacity:0;" />
    </linearGradient>
    <linearGradient
       inkscape:collect="always"
       xlink:href="#linearGradient3265-7"
       id="linearGradient4849"
       gradientUnits="userSpaceOnUse"
       gradientTransform="matrix(1.9601035,0,0,1.9601035,-1268.7026,1291.2843)"
       x1="1128.5424"
       y1="-358.21252"
       x2="1128.5"
       y2="-350.88782" />
    <linearGradient
       inkscape:collect="always"
       xlink:href="#linearGradient3265-7"
       id="linearGradient4855"
       gradientUnits="userSpaceOnUse"
       gradientTransform="matrix(-1.9601035,0,0,1.9601035,3084.4205,1291.2843)"
       x1="1128.5424"
       y1="-358.21252"
       x2="1128.5"
       y2="-350.88782" />
    <linearGradient
       id="linearGradient3265-7-8"
       inkscape:collect="always">
      <stop
         id="stop3267-6-3"
         offset="0"
         style="stop-color:#a0692f;stop-opacity:1;" />
      <stop
         id="stop3269-0-6"
         offset="1"
         style="stop-color:#a0692f;stop-opacity:0;" />
    </linearGradient>
    <linearGradient
       y2="-435.80673"
       x2="919.21014"
       y1="-434.2847"
       x1="987.61987"
       gradientTransform="matrix(0.64156397,0,0,0.64156397,-240.46334,1048.4872)"
       gradientUnits="userSpaceOnUse"
       id="linearGradient3738"
       xlink:href="#linearGradient4094-1"
       inkscape:collect="always" />
    <linearGradient
       id="linearGradient4094-1">
      <stop
         id="stop4096-9"
         offset="0"
         style="stop-color:#52676c;stop-opacity:1;" />
      <stop
         id="stop4098-2"
         offset="1"
         style="stop-color:#52676c;stop-opacity:0;" />
    </linearGradient>
    <linearGradient
       id="linearGradient3310"
       inkscape:collect="always">
      <stop
         id="stop3312"
         offset="0"
         style="stop-color:#0b2228;stop-opacity:1;" />
      <stop
         id="stop3314"
         offset="1"
         style="stop-color:#0b2228;stop-opacity:0;" />
    </linearGradient>
    <linearGradient
       id="linearGradient4122-9"
       inkscape:collect="always">
      <stop
         id="stop4124-7"
         offset="0"
         style="stop-color:#1c2224;stop-opacity:1;" />
      <stop
         id="stop4126-6"
         offset="1"
         style="stop-color:#1c2224;stop-opacity:0" />
    </linearGradient>
    <linearGradient
       inkscape:collect="always"
       xlink:href="#linearGradient3310"
       id="linearGradient6795"
       gradientUnits="userSpaceOnUse"
       x1="1748.3407"
       y1="-227.81718"
       x2="1759.3722"
       y2="-149.25218" />
    <linearGradient
       inkscape:collect="always"
       xlink:href="#linearGradient4122-9"
       id="linearGradient6814"
       gradientUnits="userSpaceOnUse"
       gradientTransform="matrix(0.76362355,0,0,0.76362355,-529.2141,788.2198)"
       x1="1627.4237"
       y1="-275.98389"
       x2="1568.8258"
       y2="-208.25383" />
    <linearGradient
       inkscape:collect="always"
       id="linearGradient4871">
      <stop
         style="stop-color:#241c1f;stop-opacity:0.37777778"
         offset="0"
         id="stop4873" />
      <stop
         style="stop-color:#241c1f;stop-opacity:0;"
         offset="1"
         id="stop4875" />
    </linearGradient>
    <radialGradient
       inkscape:collect="always"
       xlink:href="#linearGradient4871"
       id="radialGradient4631"
       gradientUnits="userSpaceOnUse"
       gradientTransform="matrix(1.6682146,1.6471163,-0.88417937,0.89550496,-1046.6412,-1706.4218)"
       cx="1014.4006"
       cy="-408.6366"
       fx="1014.4006"
       fy="-408.6366"
       r="120.84957" />
    <linearGradient
       y2="-341.95212"
       x2="1033.103"
       y1="-312.79977"
       x1="1033.9359"
       gradientUnits="userSpaceOnUse"
       id="linearGradient4392"
       xlink:href="#linearGradient3219"
       inkscape:collect="always" />
    <linearGradient
       y2="-341.95212"
       x2="1033.103"
       y1="-312.79977"
       x1="1033.9359"
       gradientUnits="userSpaceOnUse"
       id="linearGradient4390"
       xlink:href="#linearGradient3209"
       inkscape:collect="always" />
    <linearGradient
       inkscape:collect="always"
       id="linearGradient3219">
      <stop
         style="stop-color:#3e4837;stop-opacity:1"
         offset="0"
         id="stop3221" />
      <stop
         style="stop-color:#e5ffd5;stop-opacity:0;"
         offset="1"
         id="stop3223" />
    </linearGradient>
    <linearGradient
       id="linearGradient3209"
       inkscape:collect="always">
      <stop
         id="stop3211"
         offset="0"
         style="stop-color:#3e4837;stop-opacity:1" />
      <stop
         id="stop3213"
         offset="1"
         style="stop-color:#e5ffd5;stop-opacity:0;" />
    </linearGradient>
    <linearGradient
       y2="-299.90375"
       x2="1731.0365"
       y1="-347.02103"
       x1="1621.358"
       gradientTransform="matrix(1.3519879,0,0,1.3519879,-2458.2999,1401.0995)"
       gradientUnits="userSpaceOnUse"
       id="linearGradient4525"
       xlink:href="#linearGradient4136"
       inkscape:collect="always" />
    <linearGradient
       id="linearGradient4136"
       inkscape:collect="always">
      <stop
         id="stop4138"
         offset="0"
         style="stop-color:#000000;stop-opacity:1" />
      <stop
         id="stop4140"
         offset="1"
         style="stop-color:#2b1100;stop-opacity:0;" />
    </linearGradient>
    <linearGradient
       id="linearGradient3449"
       inkscape:collect="always">
      <stop
         id="stop3451"
         offset="0"
         style="stop-color:#000000;stop-opacity:1;" />
      <stop
         id="stop3453"
         offset="1"
         style="stop-color:#000000;stop-opacity:0;" />
    </linearGradient>
    <linearGradient
       id="linearGradient4233"
       inkscape:collect="always">
      <stop
         id="stop4235"
         offset="0"
         style="stop-color:#000000;stop-opacity:1;" />
      <stop
         id="stop4237"
         offset="1"
         style="stop-color:#000000;stop-opacity:0;" />
    </linearGradient>
    <linearGradient
       id="linearGradient4283"
       inkscape:collect="always">
      <stop
         id="stop4285"
         offset="0"
         style="stop-color:#2b1100;stop-opacity:1;" />
      <stop
         id="stop4287"
         offset="1"
         style="stop-color:#2b1100;stop-opacity:0;" />
    </linearGradient>
    <linearGradient
       inkscape:collect="always"
       xlink:href="#linearGradient4283"
       id="linearGradient6031"
       gradientUnits="userSpaceOnUse"
       gradientTransform="translate(-2538.9898,1459.867)"
       x1="503.56857"
       y1="-348.85837"
       x2="512.40308"
       y2="-335.29108" />
    <linearGradient
       inkscape:collect="always"
       xlink:href="#linearGradient3449"
       id="linearGradient6033"
       gradientUnits="userSpaceOnUse"
       gradientTransform="translate(-2538.9898,1459.867)"
       x1="535.43597"
       y1="-304.05469"
       x2="522.1842"
       y2="-302.79257" />
    <linearGradient
       inkscape:collect="always"
       xlink:href="#linearGradient4233"
       id="linearGradient6035"
       gradientUnits="userSpaceOnUse"
       gradientTransform="translate(-2538.9898,1459.867)"
       x1="492.84091"
       y1="-285.43903"
       x2="581.34399"
       y2="-291.27615" />
    <linearGradient
       id="linearGradient4817"
       inkscape:collect="always">
      <stop
         id="stop4819"
         offset="0"
         style="stop-color:#917c6f;stop-opacity:1;" />
      <stop
         id="stop4821"
         offset="1"
         style="stop-color:#2b1100;stop-opacity:1" />
    </linearGradient>
    <linearGradient
       inkscape:collect="always"
       id="linearGradient5172">
      <stop
         style="stop-color:#502d16;stop-opacity:1;"
         offset="0"
         id="stop5174" />
      <stop
         style="stop-color:#917c6f;stop-opacity:1"
         offset="1"
         id="stop5176" />
    </linearGradient>
    <linearGradient
       id="linearGradient5181">
      <stop
         id="stop5183"
         offset="0"
         style="stop-color:#907b6e;stop-opacity:1" />
      <stop
         style="stop-color:#7a6356;stop-opacity:1;"
         offset="0.75249761"
         id="stop5191" />
      <stop
         style="stop-color:#644c3e;stop-opacity:1;"
         offset="0.812451"
         id="stop5189" />
      <stop
         id="stop5185"
         offset="1"
         style="stop-color:#381e0e;stop-opacity:1" />
    </linearGradient>
    <linearGradient
       inkscape:collect="always"
       id="linearGradient5193">
      <stop
         style="stop-color:#826c5f;stop-opacity:1"
         offset="0"
         id="stop5195" />
      <stop
         style="stop-color:#502d16;stop-opacity:1"
         offset="1"
         id="stop5197" />
    </linearGradient>
    <linearGradient
       inkscape:collect="always"
       xlink:href="#linearGradient4817"
       id="linearGradient5870"
       gradientUnits="userSpaceOnUse"
       gradientTransform="matrix(0.89679722,0,0,0.89679722,-2045.7805,1424)"
       x1="660.06604"
       y1="-501.25412"
       x2="616.52441"
       y2="-327.7186" />
    <linearGradient
       inkscape:collect="always"
       xlink:href="#linearGradient5181"
       id="linearGradient5872"
       gradientUnits="userSpaceOnUse"
       gradientTransform="translate(-1159.9752,1449.158)"
       x1="-276.65112"
       y1="-462.97198"
       x2="-282.89807"
       y2="-279.57907" />
    <linearGradient
       inkscape:collect="always"
       xlink:href="#linearGradient5172"
       id="linearGradient5874"
       gradientUnits="userSpaceOnUse"
       gradientTransform="matrix(0.89679722,0,0,0.89679722,-2045.7805,1424)"
       x1="533.96741"
       y1="-432.47049"
       x2="555.86011"
       y2="-240.41187" />
    <linearGradient
       inkscape:collect="always"
       xlink:href="#linearGradient4817"
       id="linearGradient5876"
       gradientUnits="userSpaceOnUse"
       gradientTransform="matrix(0.82173933,0,0,0.82173933,-2014.5348,1366.3891)"
       x1="626.62103"
       y1="-258.30438"
       x2="602.01056"
       y2="-402.81216" />
    <linearGradient
       inkscape:collect="always"
       xlink:href="#linearGradient5193"
       id="linearGradient5878"
       gradientUnits="userSpaceOnUse"
       gradientTransform="matrix(0.89679722,0,0,0.89679722,-2020.1702,1428.0016)"
       x1="564.45752"
       y1="-396.48645"
       x2="567.13477"
       y2="-318.39944" />
    <linearGradient
       id="linearGradient3338"
       inkscape:collect="always">
      <stop
         id="stop3340"
         offset="0"
         style="stop-color:#beb7c8;stop-opacity:1;" />
      <stop
         id="stop3342"
         offset="1"
         style="stop-color:#5d536c;stop-opacity:1" />
    </linearGradient>
    <linearGradient
       inkscape:collect="always"
       id="linearGradient3360">
      <stop
         style="stop-color:#474052;stop-opacity:1"
         offset="0"
         id="stop3362" />
      <stop
         style="stop-color:#5d536c;stop-opacity:1"
         offset="1"
         id="stop3364" />
    </linearGradient>
    <linearGradient
       inkscape:collect="always"
       id="linearGradient3380">
      <stop
         style="stop-color:#857c92;stop-opacity:1"
         offset="0"
         id="stop3382" />
      <stop
         style="stop-color:#5d536c;stop-opacity:1"
         offset="1"
         id="stop3384" />
    </linearGradient>
    <linearGradient
       id="linearGradient3394"
       inkscape:collect="always">
      <stop
         id="stop3396"
         offset="0"
         style="stop-color:#675d76;stop-opacity:1" />
      <stop
         id="stop3398"
         offset="1"
         style="stop-color:#5d536c;stop-opacity:1" />
    </linearGradient>
    <linearGradient
       inkscape:collect="always"
       xlink:href="#linearGradient3394"
       id="linearGradient5534"
       gradientUnits="userSpaceOnUse"
       gradientTransform="translate(-1035.7984,1460.497)"
       x1="548.9787"
       y1="-310.0397"
       x2="511.74536"
       y2="-309.25769" />
    <linearGradient
       inkscape:collect="always"
       xlink:href="#linearGradient3380"
       id="linearGradient5539"
       gradientUnits="userSpaceOnUse"
       gradientTransform="translate(-1104.5149,1460.497)"
       x1="549.00745"
       y1="-310.31183"
       x2="511.80453"
       y2="-309.47519" />
    <radialGradient
       inkscape:collect="always"
       xlink:href="#linearGradient3338"
       id="radialGradient5551"
       gradientUnits="userSpaceOnUse"
       gradientTransform="matrix(0.51554821,-0.84568081,1.1288979,0.68820444,-643.46887,1694.073)"
       cx="423.07739"
       cy="-187.4471"
       fx="423.07739"
       fy="-187.4471"
       r="166.84651" />
    <linearGradient
       inkscape:collect="always"
       xlink:href="#linearGradient3360"
       id="linearGradient5555"
       gradientUnits="userSpaceOnUse"
       gradientTransform="translate(-1124.2237,1458.7504)"
       x1="452.13895"
       y1="-403.7587"
       x2="425.63535"
       y2="-424.26743" />
    <linearGradient
       inkscape:collect="always"
       xlink:href="#linearGradient3360"
       id="linearGradient5558"
       gradientUnits="userSpaceOnUse"
       gradientTransform="translate(-1124.2237,1458.7504)"
       x1="452.13895"
       y1="-403.7587"
       x2="425.63535"
       y2="-424.26743" />
    <linearGradient
       id="linearGradient4274">
      <stop
         id="stop4276"
         offset="0"
         style="stop-color:#241c1c;stop-opacity:1" />
      <stop
         style="stop-color:#483737;stop-opacity:1;"
         offset="0.15879123"
         id="stop4286" />
      <stop
         style="stop-color:#544141;stop-opacity:1"
         offset="0.50204235"
         id="stop4282" />
      <stop
         id="stop4284"
         offset="0.75"
         style="stop-color:#483737;stop-opacity:1;" />
      <stop
         id="stop4278"
         offset="1"
         style="stop-color:#241c1c;stop-opacity:1" />
    </linearGradient>
    <linearGradient
       id="linearGradient4300"
       inkscape:collect="always">
      <stop
         id="stop4302"
         offset="0"
         style="stop-color:#513f3f;stop-opacity:1" />
      <stop
         id="stop4304"
         offset="1"
         style="stop-color:#916f6f;stop-opacity:1" />
    </linearGradient>
    <linearGradient
       id="linearGradient4338"
       inkscape:collect="always">
      <stop
         id="stop4340"
         offset="0"
         style="stop-color:#5a4545;stop-opacity:1" />
      <stop
         id="stop4342"
         offset="1"
         style="stop-color:#6c5353;stop-opacity:1" />
    </linearGradient>
    <linearGradient
       inkscape:collect="always"
       xlink:href="#linearGradient4338"
       id="linearGradient5824"
       gradientUnits="userSpaceOnUse"
       gradientTransform="matrix(1.1870923,0,0,1.1870923,557.10763,972.51967)"
       x1="506.36237"
       y1="-254.24303"
       x2="505.8338"
       y2="-219.35794" />
    <linearGradient
       inkscape:collect="always"
       xlink:href="#linearGradient4300"
       id="linearGradient5826"
       gradientUnits="userSpaceOnUse"
       gradientTransform="matrix(0.83444929,0,0,0.83444929,695.02334,866.91126)"
       x1="521.0072"
       y1="-422.45435"
       x2="521.0072"
       y2="-338.73444" />
    <linearGradient
       inkscape:collect="always"
       xlink:href="#linearGradient4274"
       id="linearGradient5828"
       gradientUnits="userSpaceOnUse"
       gradientTransform="matrix(0.83444929,0,0,0.83444929,741.18088,866.91126)"
       x1="536.79242"
       y1="-366.81332"
       x2="556.42566"
       y2="-324.86945" />
    <linearGradient
       y2="-301.63974"
       x2="535.34979"
       y1="-301.92004"
       x1="538.38654"
       gradientTransform="translate(-25.414983,34.384977)"
       gradientUnits="userSpaceOnUse"
       id="linearGradient5544"
       xlink:href="#linearGradient3146"
       inkscape:collect="always" />
    <filter
       height="1.0499389"
       y="-0.024969444"
       width="1.3299154"
       x="-0.16495769"
       id="filter3938"
       inkscape:collect="always"
       color-interpolation-filters="sRGB">
      <feGaussianBlur
         id="feGaussianBlur3940"
         stdDeviation="0.60368467"
         inkscape:collect="always" />
    </filter>
    <linearGradient
       id="linearGradient3146"
       inkscape:collect="always">
      <stop
         id="stop3148"
         offset="0"
         style="stop-color:#1c1c24;stop-opacity:1;" />
      <stop
         id="stop3150"
         offset="1"
         style="stop-color:#1c1c24;stop-opacity:0;" />
    </linearGradient>
    <linearGradient
       y2="-254.24301"
       x2="132.40479"
       y1="-254.24301"
       x1="159.62572"
       gradientTransform="translate(-47.042016,6.3427437)"
       gradientUnits="userSpaceOnUse"
       id="linearGradient4078"
       xlink:href="#linearGradient3139"
       inkscape:collect="always" />
    <linearGradient
       y2="-408.62561"
       x2="159.96489"
       y1="-417.59561"
       x1="192.85487"
       gradientTransform="translate(-63.427437,6.3427437)"
       gradientUnits="userSpaceOnUse"
       id="linearGradient4076"
       xlink:href="#linearGradient3117"
       inkscape:collect="always" />
    <linearGradient
       y2="-408.62561"
       x2="159.96489"
       y1="-417.59561"
       x1="192.85487"
       gradientTransform="matrix(1.6191115,1.2420631,-1.2420631,1.6191115,-653.89128,220.57021)"
       gradientUnits="userSpaceOnUse"
       id="linearGradient4074"
       xlink:href="#linearGradient3117"
       inkscape:collect="always" />
    <filter
       height="1.1221315"
       y="-0.061065737"
       width="1.2091677"
       x="-0.10458386"
       id="filter3915"
       inkscape:collect="always"
       color-interpolation-filters="sRGB">
      <feGaussianBlur
         id="feGaussianBlur3917"
         stdDeviation="2.0038655"
         inkscape:collect="always" />
    </filter>
    <linearGradient
       id="linearGradient3117"
       inkscape:collect="always">
      <stop
         id="stop3119"
         offset="0"
         style="stop-color:#aa4400;stop-opacity:1;" />
      <stop
         id="stop3121"
         offset="1"
         style="stop-color:#783000;stop-opacity:1" />
    </linearGradient>
    <linearGradient
       id="linearGradient3139"
       inkscape:collect="always">
      <stop
         id="stop3141"
         offset="0"
         style="stop-color:#2b1100;stop-opacity:1;" />
      <stop
         id="stop3143"
         offset="1"
         style="stop-color:#2b1100;stop-opacity:0;" />
    </linearGradient>
    <filter
       height="1.4686061"
       y="-0.23430306"
       width="1.4207194"
       x="-0.21035969"
       id="filter3967"
       inkscape:collect="always"
       color-interpolation-filters="sRGB">
      <feGaussianBlur
         id="feGaussianBlur3969"
         stdDeviation="5.8948044"
         inkscape:collect="always" />
    </filter>
    <linearGradient
       id="linearGradient3911"
       inkscape:collect="always">
      <stop
         id="stop3913"
         offset="0"
         style="stop-color:#241c1c;stop-opacity:1" />
      <stop
         id="stop3915"
         offset="1"
         style="stop-color:#784421;stop-opacity:0;" />
    </linearGradient>
    <linearGradient
       id="linearGradient3971"
       inkscape:collect="always">
      <stop
         id="stop3973"
         offset="0"
         style="stop-color:#917c6f;stop-opacity:1;" />
      <stop
         id="stop3975"
         offset="1"
         style="stop-color:#28170b;stop-opacity:1" />
    </linearGradient>
    <linearGradient
       inkscape:collect="always"
       xlink:href="#linearGradient3911"
       id="linearGradient3762"
       gradientUnits="userSpaceOnUse"
       gradientTransform="translate(0,-16.661873)"
       x1="519.29504"
       y1="-260.8017"
       x2="508.18713"
       y2="-300.37363" />
    <linearGradient
       inkscape:collect="always"
       xlink:href="#linearGradient3971"
       id="linearGradient3786"
       gradientUnits="userSpaceOnUse"
       gradientTransform="matrix(0.9140942,0,0,0.9140942,290.747,786.33643)"
       x1="441.53964"
       y1="-273.2981"
       x2="511.65836"
       y2="-286.14163" />
    <linearGradient
       id="linearGradient3578"
       inkscape:collect="always">
      <stop
         id="stop3580"
         offset="0"
         style="stop-color:#1f1c24;stop-opacity:1;" />
      <stop
         id="stop3582"
         offset="1"
         style="stop-color:#1f1c24;stop-opacity:0;" />
    </linearGradient>
    <linearGradient
       id="linearGradient3604"
       inkscape:collect="always">
      <stop
         id="stop3606"
         offset="0"
         style="stop-color:#211e26;stop-opacity:1;" />
      <stop
         id="stop3608"
         offset="1"
         style="stop-color:#211e26;stop-opacity:0;" />
    </linearGradient>
    <linearGradient
       inkscape:collect="always"
       xlink:href="#linearGradient3578"
       id="linearGradient3958"
       gradientUnits="userSpaceOnUse"
       gradientTransform="matrix(1.1100531,0,0,1.1100531,2863.0486,903.46763)"
       x1="-1887.6512"
       y1="-315.29987"
       x2="-1887.4778"
       y2="-254.37988" />
    <linearGradient
       inkscape:collect="always"
       xlink:href="#linearGradient3604"
       id="linearGradient3967"
       gradientUnits="userSpaceOnUse"
       gradientTransform="matrix(1.1100531,0,0,1.1100531,2931.5428,903.46763)"
       x1="-1801.6218"
       y1="-327.32669"
       x2="-1798.4309"
       y2="-249.51823" />
    <linearGradient
       inkscape:collect="always"
       xlink:href="#linearGradient3265-7-8"
       id="linearGradient6694"
       gradientUnits="userSpaceOnUse"
       gradientTransform="matrix(-1.9601035,0,0,1.9601035,3084.4205,1291.2843)"
       x1="1128.5424"
       y1="-358.21252"
       x2="1128.5"
       y2="-350.88782" />
    <linearGradient
       inkscape:collect="always"
       xlink:href="#linearGradient3265-7-8"
       id="linearGradient6696"
       gradientUnits="userSpaceOnUse"
       gradientTransform="matrix(1.9601035,0,0,1.9601035,-1268.7026,1291.2843)"
       x1="1128.5424"
       y1="-358.21252"
       x2="1128.5"
       y2="-350.88782" />
    <linearGradient
       inkscape:collect="always"
       xlink:href="#linearGradient3265-7-8"
       id="linearGradient9421"
       gradientUnits="userSpaceOnUse"
       gradientTransform="matrix(-1.9601035,0,0,1.9601035,3084.4205,1291.2843)"
       x1="1128.5424"
       y1="-358.21252"
       x2="1128.5"
       y2="-350.88782" />
    <linearGradient
       inkscape:collect="always"
       xlink:href="#linearGradient3265-7-8"
       id="linearGradient9423"
       gradientUnits="userSpaceOnUse"
       gradientTransform="matrix(1.9601035,0,0,1.9601035,-1268.7026,1291.2843)"
       x1="1128.5424"
       y1="-358.21252"
       x2="1128.5"
       y2="-350.88782" />
    <linearGradient
       inkscape:collect="always"
       xlink:href="#linearGradient4094-1"
       id="linearGradient9425"
       gradientUnits="userSpaceOnUse"
       gradientTransform="matrix(0.64156397,0,0,0.64156397,-240.46334,1048.4872)"
       x1="987.61987"
       y1="-434.2847"
       x2="919.21014"
       y2="-435.80673" />
    <linearGradient
       inkscape:collect="always"
       xlink:href="#linearGradient4122-9"
       id="linearGradient9427"
       gradientUnits="userSpaceOnUse"
       gradientTransform="matrix(0.76362355,0,0,0.76362355,-529.2141,788.2198)"
       x1="1627.4237"
       y1="-275.98389"
       x2="1568.8258"
       y2="-208.25383" />
    <linearGradient
       inkscape:collect="always"
       xlink:href="#linearGradient3310"
       id="linearGradient9429"
       gradientUnits="userSpaceOnUse"
       x1="1748.3407"
       y1="-227.81718"
       x2="1759.3722"
       y2="-149.25218" />
    <radialGradient
       inkscape:collect="always"
       xlink:href="#linearGradient4871"
       id="radialGradient9431"
       gradientUnits="userSpaceOnUse"
       gradientTransform="matrix(1.6682146,1.6471163,-0.88417937,0.89550496,-1046.6412,-1706.4218)"
       cx="1014.4006"
       cy="-408.6366"
       fx="1014.4006"
       fy="-408.6366"
       r="120.84957" />
    <linearGradient
       inkscape:collect="always"
       xlink:href="#linearGradient3209"
       id="linearGradient9433"
       gradientUnits="userSpaceOnUse"
       x1="1033.9359"
       y1="-312.79977"
       x2="1033.103"
       y2="-341.95212" />
    <linearGradient
       inkscape:collect="always"
       xlink:href="#linearGradient3219"
       id="linearGradient9435"
       gradientUnits="userSpaceOnUse"
       x1="1033.9359"
       y1="-312.79977"
       x2="1033.103"
       y2="-341.95212" />
    <linearGradient
       inkscape:collect="always"
       xlink:href="#linearGradient4136"
       id="linearGradient9437"
       gradientUnits="userSpaceOnUse"
       gradientTransform="matrix(1.3519879,0,0,1.3519879,-2458.2999,1401.0995)"
       x1="1621.358"
       y1="-347.02103"
       x2="1731.0365"
       y2="-299.90375" />
    <linearGradient
       inkscape:collect="always"
       xlink:href="#linearGradient4283"
       id="linearGradient9439"
       gradientUnits="userSpaceOnUse"
       gradientTransform="translate(-2538.9898,1459.867)"
       x1="503.56857"
       y1="-348.85837"
       x2="512.40308"
       y2="-335.29108" />
    <linearGradient
       inkscape:collect="always"
       xlink:href="#linearGradient3449"
       id="linearGradient9441"
       gradientUnits="userSpaceOnUse"
       gradientTransform="translate(-2538.9898,1459.867)"
       x1="535.43597"
       y1="-304.05469"
       x2="522.1842"
       y2="-302.79257" />
    <linearGradient
       inkscape:collect="always"
       xlink:href="#linearGradient4233"
       id="linearGradient9443"
       gradientUnits="userSpaceOnUse"
       gradientTransform="translate(-2538.9898,1459.867)"
       x1="492.84091"
       y1="-285.43903"
       x2="581.34399"
       y2="-291.27615" />
    <linearGradient
       inkscape:collect="always"
       xlink:href="#linearGradient4817"
       id="linearGradient9445"
       gradientUnits="userSpaceOnUse"
       gradientTransform="matrix(0.89679722,0,0,0.89679722,-2045.7805,1424)"
       x1="660.06604"
       y1="-501.25412"
       x2="616.52441"
       y2="-327.7186" />
    <linearGradient
       inkscape:collect="always"
       xlink:href="#linearGradient5181"
       id="linearGradient9447"
       gradientUnits="userSpaceOnUse"
       gradientTransform="translate(-1159.9752,1449.158)"
       x1="-276.65112"
       y1="-462.97198"
       x2="-282.89807"
       y2="-279.57907" />
    <linearGradient
       inkscape:collect="always"
       xlink:href="#linearGradient5172"
       id="linearGradient9449"
       gradientUnits="userSpaceOnUse"
       gradientTransform="matrix(0.89679722,0,0,0.89679722,-2045.7805,1424)"
       x1="533.96741"
       y1="-432.47049"
       x2="555.86011"
       y2="-240.41187" />
    <linearGradient
       inkscape:collect="always"
       xlink:href="#linearGradient4817"
       id="linearGradient9451"
       gradientUnits="userSpaceOnUse"
       gradientTransform="matrix(0.82173933,0,0,0.82173933,-2014.5348,1366.3891)"
       x1="626.62103"
       y1="-258.30438"
       x2="602.01056"
       y2="-402.81216" />
    <linearGradient
       inkscape:collect="always"
       xlink:href="#linearGradient5193"
       id="linearGradient9453"
       gradientUnits="userSpaceOnUse"
       gradientTransform="matrix(0.89679722,0,0,0.89679722,-2020.1702,1428.0016)"
       x1="564.45752"
       y1="-396.48645"
       x2="567.13477"
       y2="-318.39944" />
    <linearGradient
       inkscape:collect="always"
       xlink:href="#linearGradient3360"
       id="linearGradient9455"
       gradientUnits="userSpaceOnUse"
       gradientTransform="translate(-1124.2237,1458.7504)"
       x1="452.13895"
       y1="-403.7587"
       x2="425.63535"
       y2="-424.26743" />
    <linearGradient
       inkscape:collect="always"
       xlink:href="#linearGradient3360"
       id="linearGradient9457"
       gradientUnits="userSpaceOnUse"
       gradientTransform="translate(-1124.2237,1458.7504)"
       x1="452.13895"
       y1="-403.7587"
       x2="425.63535"
       y2="-424.26743" />
    <radialGradient
       inkscape:collect="always"
       xlink:href="#linearGradient3338"
       id="radialGradient9459"
       gradientUnits="userSpaceOnUse"
       gradientTransform="matrix(0.51554821,-0.84568081,1.1288979,0.68820444,-643.46887,1694.073)"
       cx="423.07739"
       cy="-187.4471"
       fx="423.07739"
       fy="-187.4471"
       r="166.84651" />
    <linearGradient
       inkscape:collect="always"
       xlink:href="#linearGradient3380"
       id="linearGradient9461"
       gradientUnits="userSpaceOnUse"
       gradientTransform="translate(-1104.5149,1460.497)"
       x1="549.00745"
       y1="-310.31183"
       x2="511.80453"
       y2="-309.47519" />
    <linearGradient
       inkscape:collect="always"
       xlink:href="#linearGradient3394"
       id="linearGradient9463"
       gradientUnits="userSpaceOnUse"
       gradientTransform="translate(-1035.7984,1460.497)"
       x1="548.9787"
       y1="-310.0397"
       x2="511.74536"
       y2="-309.25769" />
    <linearGradient
       inkscape:collect="always"
       xlink:href="#linearGradient4338"
       id="linearGradient9465"
       gradientUnits="userSpaceOnUse"
       gradientTransform="matrix(1.1870923,0,0,1.1870923,557.10763,972.51967)"
       x1="506.36237"
       y1="-254.24303"
       x2="505.8338"
       y2="-219.35794" />
    <linearGradient
       inkscape:collect="always"
       xlink:href="#linearGradient4300"
       id="linearGradient9467"
       gradientUnits="userSpaceOnUse"
       gradientTransform="matrix(0.83444929,0,0,0.83444929,695.02334,866.91126)"
       x1="521.0072"
       y1="-422.45435"
       x2="521.0072"
       y2="-338.73444" />
    <linearGradient
       inkscape:collect="always"
       xlink:href="#linearGradient4274"
       id="linearGradient9469"
       gradientUnits="userSpaceOnUse"
       gradientTransform="matrix(0.83444929,0,0,0.83444929,741.18088,866.91126)"
       x1="536.79242"
       y1="-366.81332"
       x2="556.42566"
       y2="-324.86945" />
    <linearGradient
       inkscape:collect="always"
       xlink:href="#linearGradient3146"
       id="linearGradient9471"
       gradientUnits="userSpaceOnUse"
       gradientTransform="translate(-25.414983,34.384977)"
       x1="538.38654"
       y1="-301.92004"
       x2="535.34979"
       y2="-301.63974" />
    <linearGradient
       inkscape:collect="always"
       xlink:href="#linearGradient3117"
       id="linearGradient9473"
       gradientUnits="userSpaceOnUse"
       gradientTransform="matrix(1.6191115,1.2420631,-1.2420631,1.6191115,-653.89128,220.57021)"
       x1="192.85487"
       y1="-417.59561"
       x2="159.96489"
       y2="-408.62561" />
    <linearGradient
       inkscape:collect="always"
       xlink:href="#linearGradient3117"
       id="linearGradient9475"
       gradientUnits="userSpaceOnUse"
       gradientTransform="translate(-63.427437,6.3427437)"
       x1="192.85487"
       y1="-417.59561"
       x2="159.96489"
       y2="-408.62561" />
    <linearGradient
       inkscape:collect="always"
       xlink:href="#linearGradient3139"
       id="linearGradient9477"
       gradientUnits="userSpaceOnUse"
       gradientTransform="translate(-47.042016,6.3427437)"
       x1="159.62572"
       y1="-254.24301"
       x2="132.40479"
       y2="-254.24301" />
    <linearGradient
       inkscape:collect="always"
       xlink:href="#linearGradient3971"
       id="linearGradient9479"
       gradientUnits="userSpaceOnUse"
       gradientTransform="matrix(0.9140942,0,0,0.9140942,290.747,786.33643)"
       x1="441.53964"
       y1="-273.2981"
       x2="511.65836"
       y2="-286.14163" />
    <linearGradient
       inkscape:collect="always"
       xlink:href="#linearGradient3911"
       id="linearGradient9481"
       gradientUnits="userSpaceOnUse"
       gradientTransform="translate(0,-16.661873)"
       x1="519.29504"
       y1="-260.8017"
       x2="508.18713"
       y2="-300.37363" />
    <linearGradient
       inkscape:collect="always"
       xlink:href="#linearGradient3604"
       id="linearGradient9483"
       gradientUnits="userSpaceOnUse"
       gradientTransform="matrix(1.1100531,0,0,1.1100531,2931.5428,903.46763)"
       x1="-1801.6218"
       y1="-327.32669"
       x2="-1798.4309"
       y2="-249.51823" />
    <linearGradient
       inkscape:collect="always"
       xlink:href="#linearGradient3578"
       id="linearGradient9485"
       gradientUnits="userSpaceOnUse"
       gradientTransform="matrix(1.1100531,0,0,1.1100531,2863.0486,903.46763)"
       x1="-1887.6512"
       y1="-315.29987"
       x2="-1887.4778"
       y2="-254.37988" />
    <linearGradient
       inkscape:collect="always"
       xlink:href="#linearGradient3360"
       id="linearGradient10582"
       gradientUnits="userSpaceOnUse"
       gradientTransform="translate(-1124.2237,1458.7504)"
       x1="452.13895"
       y1="-403.7587"
       x2="425.63535"
       y2="-424.26743" />
    <linearGradient
       inkscape:collect="always"
       xlink:href="#linearGradient3360"
       id="linearGradient10584"
       gradientUnits="userSpaceOnUse"
       gradientTransform="translate(-1124.2237,1458.7504)"
       x1="452.13895"
       y1="-403.7587"
       x2="425.63535"
       y2="-424.26743" />
    <radialGradient
       inkscape:collect="always"
       xlink:href="#linearGradient3338"
       id="radialGradient10586"
       gradientUnits="userSpaceOnUse"
       gradientTransform="matrix(0.51554821,-0.84568081,1.1288979,0.68820444,-643.46887,1694.073)"
       cx="423.07739"
       cy="-187.4471"
       fx="423.07739"
       fy="-187.4471"
       r="166.84651" />
    <linearGradient
       inkscape:collect="always"
       xlink:href="#linearGradient3380"
       id="linearGradient10588"
       gradientUnits="userSpaceOnUse"
       gradientTransform="translate(-1104.5149,1460.497)"
       x1="549.00745"
       y1="-310.31183"
       x2="511.80453"
       y2="-309.47519" />
    <linearGradient
       inkscape:collect="always"
       xlink:href="#linearGradient3394"
       id="linearGradient10590"
       gradientUnits="userSpaceOnUse"
       gradientTransform="translate(-1035.7984,1460.497)"
       x1="548.9787"
       y1="-310.0397"
       x2="511.74536"
       y2="-309.25769" />
    <linearGradient
       inkscape:collect="always"
       xlink:href="#linearGradient4338"
       id="linearGradient10592"
       gradientUnits="userSpaceOnUse"
       gradientTransform="matrix(1.1870923,0,0,1.1870923,557.10763,972.51967)"
       x1="506.36237"
       y1="-254.24303"
       x2="505.8338"
       y2="-219.35794" />
    <linearGradient
       inkscape:collect="always"
       xlink:href="#linearGradient4300"
       id="linearGradient10594"
       gradientUnits="userSpaceOnUse"
       gradientTransform="matrix(0.83444929,0,0,0.83444929,695.02334,866.91126)"
       x1="521.0072"
       y1="-422.45435"
       x2="521.0072"
       y2="-338.73444" />
    <linearGradient
       inkscape:collect="always"
       xlink:href="#linearGradient4274"
       id="linearGradient10596"
       gradientUnits="userSpaceOnUse"
       gradientTransform="matrix(0.83444929,0,0,0.83444929,741.18088,866.91126)"
       x1="536.79242"
       y1="-366.81332"
       x2="556.42566"
       y2="-324.86945" />
    <linearGradient
       inkscape:collect="always"
       xlink:href="#linearGradient3604"
       id="linearGradient10598"
       gradientUnits="userSpaceOnUse"
       gradientTransform="matrix(1.1100531,0,0,1.1100531,2931.5428,903.46763)"
       x1="-1801.6218"
       y1="-327.32669"
       x2="-1798.4309"
       y2="-249.51823" />
    <linearGradient
       inkscape:collect="always"
       xlink:href="#linearGradient3578"
       id="linearGradient10600"
       gradientUnits="userSpaceOnUse"
       gradientTransform="matrix(1.1100531,0,0,1.1100531,2863.0486,903.46763)"
       x1="-1887.6512"
       y1="-315.29987"
       x2="-1887.4778"
       y2="-254.37988" />
    <linearGradient
       inkscape:collect="always"
       xlink:href="#linearGradient3971"
       id="linearGradient10602"
       gradientUnits="userSpaceOnUse"
       gradientTransform="matrix(0.9140942,0,0,0.9140942,290.747,786.33643)"
       x1="441.53964"
       y1="-273.2981"
       x2="511.65836"
       y2="-286.14163" />
    <linearGradient
       inkscape:collect="always"
       xlink:href="#linearGradient3911"
       id="linearGradient10604"
       gradientUnits="userSpaceOnUse"
       gradientTransform="translate(0,-16.661873)"
       x1="519.29504"
       y1="-260.8017"
       x2="508.18713"
       y2="-300.37363" />
    <linearGradient
       inkscape:collect="always"
       xlink:href="#linearGradient3117"
       id="linearGradient10606"
       gradientUnits="userSpaceOnUse"
       gradientTransform="matrix(1.6191115,1.2420631,-1.2420631,1.6191115,-653.89128,220.57021)"
       x1="192.85487"
       y1="-417.59561"
       x2="159.96489"
       y2="-408.62561" />
    <linearGradient
       inkscape:collect="always"
       xlink:href="#linearGradient3117"
       id="linearGradient10608"
       gradientUnits="userSpaceOnUse"
       gradientTransform="translate(-63.427437,6.3427437)"
       x1="192.85487"
       y1="-417.59561"
       x2="159.96489"
       y2="-408.62561" />
    <linearGradient
       inkscape:collect="always"
       xlink:href="#linearGradient3139"
       id="linearGradient10610"
       gradientUnits="userSpaceOnUse"
       gradientTransform="translate(-47.042016,6.3427437)"
       x1="159.62572"
       y1="-254.24301"
       x2="132.40479"
       y2="-254.24301" />
    <linearGradient
       inkscape:collect="always"
       xlink:href="#linearGradient3146"
       id="linearGradient10612"
       gradientUnits="userSpaceOnUse"
       gradientTransform="translate(-25.414983,34.384977)"
       x1="538.38654"
       y1="-301.92004"
       x2="535.34979"
       y2="-301.63974" />
  </defs>
  <sodipodi:namedview
     id="base"
     pagecolor="#ffffff"
     bordercolor="#666666"
     borderopacity="1.0"
     inkscape:pageopacity="0.0"
     inkscape:pageshadow="2"
     inkscape:zoom="0.11225024"
     inkscape:cx="5215.6009"
     inkscape:cy="1063.2344"
     inkscape:document-units="px"
     inkscape:current-layer="layer1"
     showgrid="false"
     fit-margin-top="0"
     fit-margin-left="0"
     fit-margin-right="0"
     fit-margin-bottom="0"
     inkscape:window-width="1920"
     inkscape:window-height="1017"
     inkscape:window-x="0"
     inkscape:window-y="28"
     inkscape:window-maximized="1"
     showguides="true"
     inkscape:guide-bbox="true"
     inkscape:snap-grids="false"
     inkscape:snap-to-guides="false">
    <sodipodi:guide
       orientation="0,1"
       position="371.87981,1115.6394"
       id="guide6622" />
    <sodipodi:guide
       orientation="0,1"
       position="73.848474,189.89608"
       id="guide6624" />
    <sodipodi:guide
       orientation="1,0"
       position="363.96748,1521.806"
       id="guide6626" />
    <sodipodi:guide
       orientation="1,0"
       position="862.44468,1442.6827"
       id="guide6628" />
  </sodipodi:namedview>
  <metadata
     id="metadata7">
    <rdf:RDF>
      <cc:Work
         rdf:about="">
        <dc:format>image/svg+xml</dc:format>
        <dc:type
           rdf:resource="http://purl.org/dc/dcmitype/StillImage" />
        <dc:title></dc:title>
      </cc:Work>
    </rdf:RDF>
  </metadata>
  <g
     inkscape:label="Capa 1"
     inkscape:groupmode="layer"
     id="layer1"
     transform="translate(15278.44,186.36436)">
    <rect
       style="opacity:0.8;fill:#000000;fill-opacity:1;stroke:none"
       id="rect6564"
       width="23217.738"
       height="1351.7388"
       x="-15278.44"
       y="-186.36436" />
    <g
       id="g7503">
      <g
         transform="translate(-4855.7325,11.238791)"
         id="g8215">
        <g
           style="font-size:204.73330688px;font-style:normal;font-variant:normal;font-weight:normal;font-stretch:normal;line-height:125%;letter-spacing:0px;word-spacing:0px;fill:#ffffff;fill-opacity:1;stroke:none;font-family:Short Stack;-inkscape-font-specification:Short Stack"
           id="text3044-60">
          <path
             inkscape:connector-curvature="0"
             d="m -9901.4842,557.00725 c -0.6665,-0.46652 -1.2663,-1.46619 -1.7994,-2.99903 -0.4666,-1.53282 -0.8331,-3.39888 -1.0997,-5.59817 -0.2666,-2.26592 -0.4998,-4.73178 -0.6997,-7.39759 -0.1334,-2.73243 -0.2333,-5.46487 -0.2999,-8.19733 -0.067,-2.79906 -0.1,-5.5315 -0.1,-8.19733 0,-2.73241 0,-5.23159 0,-7.49756 l 0,-8.19733 c -0.7331,-1.13291 -1.3996,-2.33252 -1.9994,-3.59883 -0.5331,-1.33284 -0.7997,-2.49913 -0.7997,-3.49886 0,-0.5331 0.067,-1.06626 0.1999,-1.59948 0.1999,-0.5331 0.4332,-1.06626 0.6998,-1.59947 0.2666,-0.59975 0.5665,-1.16623 0.8997,-1.69945 0.2666,-6.59778 0.4665,-11.89605 0.5998,-15.89482 0.1333,-4.06526 0.2333,-7.36419 0.2999,-9.89678 0.067,-2.59906 0.1,-4.66505 0.1,-6.19798 0,-1.59938 0,-3.23218 0,-4.8984 0,-2.73235 0.067,-5.49811 0.1999,-8.2973 0.1333,-2.79898 0.4665,-5.53142 0.9997,-8.19733 0.5331,-2.66568 1.3329,-5.16487 2.3992,-7.49756 1.0663,-2.39909 2.5658,-4.53173 4.4985,-6.39792 0.5332,-0.53303 1.2996,-0.93289 2.2993,-1.1996 1.0663,-0.3331 2.066,-0.49971 2.999,-0.49984 1.5995,1.3e-4 3.0657,0.4 4.3986,1.19961 1.3995,-0.3331 2.9656,-0.9329 4.6985,-1.79942 1.7993,-0.86625 3.8653,-1.73263 6.1979,-2.59915 2.3326,-0.93289 5.0317,-1.73263 8.0974,-2.39922 3.0656,-0.73296 6.6311,-1.0995 10.6965,-1.09964 17.5276,1.4e-4 30.6566,3.03248 39.3872,9.09704 8.7304,5.99816 13.0956,14.82861 13.0957,26.49137 -1e-4,5.46498 -0.4999,10.16344 -1.4995,14.09541 -0.9331,3.86549 -2.0328,7.09776 -3.2989,9.69684 -1.2664,2.59923 -2.566,4.63189 -3.8987,6.09801 -1.2664,1.46626 -2.1994,2.49926 -2.7991,3.09899 -1.4663,1.46626 -3.4657,2.99909 -5.9981,4.5985 -2.5326,1.5329 -5.4316,3.03241 -8.6971,4.49854 -3.2657,1.46624 -6.8312,2.89911 -10.6966,4.2986 -3.7988,1.33295 -7.6975,2.56588 -11.6962,3.69879 -3.9987,1.06637 -7.9974,1.96608 -11.996,2.69912 -3.9988,0.73315 -7.7976,1.19966 -11.3963,1.39955 -0.9331,0.0667 -1.9994,0.0667 -3.199,0 -1.133,-0.0666 -2.2326,-0.16657 -3.2989,-0.29991 -1.1997,-0.13324 -2.4326,-0.29985 -3.6988,-0.49983 0.2665,4.39861 0.5998,8.3973 0.9997,11.99609 0.4664,3.53221 0.8996,6.96443 1.2995,10.29665 0.4665,3.26562 0.8664,6.56454 1.1997,9.89677 0.3331,3.26562 0.4997,6.83112 0.4998,10.69652 -10e-5,1.3329 -0.3333,2.39922 -0.9997,3.19896 -0.5998,0.79974 -1.3663,1.39954 -2.2992,1.79941 -0.9331,0.39987 -1.9328,0.63313 -2.9991,0.69977 -1.0663,0.13329 -2.0327,0.19994 -2.899,0.19994 -1.2663,0 -2.7325,-0.16662 -4.3986,-0.49984 -1.6661,-0.26658 -3.0657,-0.76642 -4.1986,-1.49951 m 13.3956,-66.67828 c 1.5995,0.13336 3.0656,0.33329 4.3986,0.5998 1.3328,0.2 2.6324,0.43326 3.8987,0.69977 1.2662,0.20001 2.4992,0.39994 3.6988,0.59981 1.1996,0.2 2.4658,0.29997 3.7988,0.2999 1.866,7e-5 4.0653,-0.16654 6.5978,-0.49984 2.5325,-0.3998 5.1983,-0.89964 7.9974,-1.49951 2.8657,-0.59973 5.6981,-1.2995 8.4973,-2.09931 2.8656,-0.86632 5.5314,-1.76602 7.9973,-2.69912 2.5325,-0.93296 4.7317,-1.86599 6.5979,-2.79909 1.866,-0.9996 3.2322,-1.96595 4.0987,-2.89906 1.9326,-2.13256 3.632,-4.76503 5.0983,-7.89743 1.5327,-3.13222 2.2991,-6.46446 2.2993,-9.99674 -2e-4,-3.93195 -0.6333,-7.39749 -1.8994,-10.39661 -1.1997,-3.06556 -3.1324,-5.63139 -5.7981,-7.69749 -2.6659,-2.06588 -6.0981,-3.63204 -10.2967,-4.69847 -4.1987,-1.0662 -9.2637,-1.59936 -15.195,-1.59948 -2.5326,1.2e-4 -5.1651,0.13341 -7.8975,0.39987 -2.7325,0.20005 -5.3316,0.63324 -7.7974,1.29957 -2.3993,0.59993 -4.5319,1.43299 -6.3979,2.49919 -1.7995,1.06643 -2.9991,2.39933 -3.5989,3.9987 -0.067,0.20004 -0.1999,0.69988 -0.3998,1.49951 -0.2,0.7332 -0.5332,1.59959 -0.9997,2.59915 -0.3999,0.93314 -0.9664,1.86617 -1.6995,2.79909 -0.7331,0.93313 -1.6661,1.69955 -2.799,2.29925 -0.1334,0.99978 -0.2667,2.26603 -0.3999,3.79876 -0.067,1.53294 -0.1333,3.16573 -0.1999,4.89841 -10e-5,1.66621 -0.033,3.36566 -0.1,5.09834 -10e-5,1.66621 -10e-5,3.16572 0,4.49853 -10e-5,1.19969 -10e-5,2.56591 0,4.09867 0.067,1.53291 0.1,3.06574 0.1,4.5985 0.067,1.53291 0.1332,3.03242 0.1999,4.49853 0.067,1.39962 0.1332,2.63255 0.1999,3.6988"
             id="path6800" />
          <path
             inkscape:connector-curvature="0"
             d="m -9776.8248,471.43512 c 1.9993,-3.93196 4.6984,-7.23088 8.0973,-9.89677 3.3989,-2.6657 7.0977,-4.79834 11.0964,-6.39792 3.9987,-1.66602 8.064,-2.8323 12.1961,-3.49886 4.1985,-0.73299 8.0306,-1.09953 11.4962,-1.09964 10.4632,1.1e-4 19.7268,1.23304 27.791,3.69879 8.1305,2.39932 14.9283,5.73157 20.3933,9.99675 5.5314,4.19872 9.7301,9.16376 12.5959,14.89515 2.8656,5.66489 4.2985,11.72958 4.2986,18.19407 -10e-5,9.8635 -1.433,18.66063 -4.2986,26.3914 -2.8658,7.6642 -6.9978,14.16207 -12.396,19.49365 -5.3983,5.26496 -11.9628,9.29698 -19.6935,12.09606 -7.7309,2.73244 -16.4281,4.09866 -26.0915,4.09867 -5.9315,-10e-6 -10.9965,-0.33323 -15.1951,-0.99968 -4.132,-0.5998 -8.0641,-1.56615 -11.7961,-2.89905 l 0,7.79746 c -0.067,3.1323 0.067,6.33126 0.3998,9.59687 0.3999,3.26558 0.7997,6.49786 1.1996,9.69684 0.4665,3.26558 0.8997,6.46453 1.2996,9.59687 0.3998,3.19893 0.5998,6.23127 0.5998,9.09704 0,1.33286 -0.3333,2.49914 -0.9997,3.49886 -0.6665,0.99963 -1.5328,1.83269 -2.5991,2.49919 -0.9997,0.6664 -2.1327,1.16623 -3.3989,1.49951 -1.2663,0.33317 -2.4992,0.49978 -3.6988,0.49984 -1.5329,-6e-5 -2.9657,-0.19999 -4.2986,-0.59981 -1.2663,-0.39992 -2.3992,-1.06637 -3.3989,-1.99935 -0.9997,-0.93307 -1.7994,-2.19933 -2.3992,-3.79876 -0.5332,-1.59952 -0.7998,-3.56555 -0.7998,-5.89808 0,-1.46623 0,-3.23231 0,-5.29827 0,-2.06603 -0.033,-4.23199 -0.1,-6.49789 0,-2.1993 -0.033,-4.39859 -0.1,-6.59785 0,-2.1993 0,-4.132 0,-5.79811 l -0.1999,-24.39205 0,-76.97493 m 18.494,66.77825 c -0.1334,1.06634 0.5331,1.8994 1.9993,2.49919 1.5328,0.59982 3.2989,1.06633 5.2983,1.39954 2.0659,0.2666 4.1319,0.43321 6.198,0.49984 2.0659,0.0667 3.632,0.1 4.6984,0.1 6.9977,2e-5 13.6622,-0.73307 19.9935,-2.19928 6.3312,-1.53281 11.896,-3.93203 16.6946,-7.19766 4.7983,-3.33221 8.5971,-7.66413 11.3963,-12.99576 2.8656,-5.33155 4.2985,-11.86275 4.2986,-19.59362 -1e-4,-5.46482 -1.0665,-10.26325 -3.199,-14.39531 -2.1327,-4.19856 -5.1984,-7.69741 -9.197,-10.49658 -3.9321,-2.799 -8.7639,-4.89832 -14.4953,-6.29795 -5.6649,-1.39945 -12.0628,-2.09922 -19.1937,-2.09931 -1.9994,9e-5 -4.3987,0.29999 -7.1977,0.8997 -2.7325,0.53325 -5.3983,1.36631 -7.9974,2.49919 -2.5992,1.13305 -4.8651,2.53259 -6.7978,4.19863 -1.9327,1.66621 -3.099,3.59891 -3.4988,5.79811 l -0.2,28.19082 c 0,0.6665 0,1.59952 0,2.79909 0.067,1.19965 0.1333,2.56587 0.2,4.09866 0.067,1.46623 0.1332,3.03239 0.1999,4.69847 0.067,1.66616 0.1333,3.33228 0.1999,4.99837 0.1999,3.86544 0.3999,8.06407 0.5999,12.5959"
             id="path6802" />
        </g>
        <g
           style="font-size:82.98419189px;font-style:normal;font-weight:normal;line-height:125%;letter-spacing:0px;word-spacing:0px;fill:#ffffff;fill-opacity:1;stroke:none;font-family:Sans"
           id="text3048-1">
          <path
             inkscape:connector-curvature="0"
             d="m -10061.349,667.30583 c -0.27,-0.1891 -0.513,-0.59429 -0.73,-1.21559 -0.189,-0.6213 -0.337,-1.37767 -0.445,-2.2691 -0.108,-0.91844 -0.203,-1.91793 -0.284,-2.99845 -0.05,-1.10753 -0.09,-2.21507 -0.121,-3.32261 -0.03,-1.13454 -0.04,-2.24208 -0.04,-3.32261 0,-1.10752 0,-2.12051 0,-3.03897 l 0,-3.32261 c -0.297,-0.45921 -0.567,-0.94544 -0.81,-1.45871 -0.217,-0.54024 -0.325,-1.01297 -0.325,-1.41819 0,-0.21608 0.03,-0.43218 0.08,-0.64831 0.08,-0.21608 0.176,-0.43219 0.284,-0.64832 0.108,-0.24309 0.23,-0.4727 0.365,-0.68883 0.108,-2.67427 0.189,-4.8218 0.243,-6.44262 0.05,-1.64776 0.09,-2.98491 0.121,-4.01144 0.03,-1.05348 0.04,-1.89088 0.04,-2.51222 0,-0.64827 0,-1.31009 0,-1.98546 0,-1.1075 0.03,-2.22854 0.08,-3.36313 0.05,-1.1345 0.189,-2.24204 0.405,-3.32261 0.216,-1.08047 0.54,-2.09346 0.973,-3.03897 0.432,-0.97242 1.04,-1.83684 1.823,-2.59326 0.216,-0.21605 0.527,-0.37813 0.932,-0.48623 0.432,-0.13501 0.837,-0.20255 1.216,-0.2026 0.648,5e-5 1.242,0.16213 1.782,0.48624 0.568,-0.13502 1.203,-0.37814 1.905,-0.72936 0.729,-0.35111 1.567,-0.70228 2.512,-1.05351 0.946,-0.37813 2.04,-0.70228 3.282,-0.97247 1.243,-0.29709 2.688,-0.44566 4.336,-0.44572 7.104,6e-5 12.426,1.22915 15.965,3.68729 3.538,2.43123 5.308,6.01046 5.308,10.7377 0,2.21511 -0.203,4.11953 -0.608,5.71327 -0.378,1.56679 -0.824,2.87692 -1.337,3.9304 -0.514,1.05354 -1.04,1.87744 -1.581,2.4717 -0.513,0.59432 -0.891,1.01302 -1.134,1.25611 -0.594,0.59431 -1.405,1.21561 -2.431,1.8639 -1.027,0.62133 -2.202,1.22912 -3.526,1.82338 -1.323,0.59431 -2.768,1.1751 -4.335,1.74235 -1.54,0.54028 -3.12,1.04002 -4.741,1.49922 -1.621,0.43223 -3.242,0.79691 -4.862,1.09403 -1.621,0.29717 -3.161,0.48626 -4.62,0.56728 -0.378,0.027 -0.81,0.027 -1.296,0 -0.459,-0.027 -0.905,-0.0675 -1.337,-0.12156 -0.487,-0.054 -0.986,-0.12154 -1.5,-0.2026 0.109,1.78288 0.244,3.40367 0.406,4.86236 0.189,1.4317 0.364,2.82287 0.526,4.17352 0.19,1.32365 0.352,2.66079 0.487,4.01144 0.135,1.32365 0.202,2.76884 0.202,4.3356 0,0.54026 -0.135,0.97247 -0.405,1.29663 -0.243,0.32416 -0.554,0.56727 -0.932,0.72935 -0.378,0.16208 -0.783,0.25663 -1.215,0.28364 -0.433,0.054 -0.824,0.081 -1.176,0.081 -0.513,0 -1.107,-0.0675 -1.782,-0.2026 -0.676,-0.10805 -1.243,-0.31065 -1.702,-0.60779 m 5.429,-27.02659 c 0.649,0.0541 1.243,0.13509 1.783,0.24311 0.541,0.0811 1.067,0.17562 1.581,0.28364 0.513,0.0811 1.013,0.16211 1.499,0.24312 0.486,0.0811 0.999,0.12158 1.54,0.12156 0.756,2e-5 1.647,-0.0675 2.674,-0.2026 1.026,-0.16205 2.107,-0.36465 3.241,-0.6078 1.162,-0.24309 2.31,-0.52672 3.445,-0.85091 1.161,-0.35114 2.242,-0.71581 3.241,-1.09403 1.027,-0.37815 1.918,-0.75633 2.674,-1.13455 0.757,-0.40516 1.311,-0.79685 1.662,-1.17507 0.783,-0.86438 1.472,-1.9314 2.066,-3.20105 0.621,-1.26957 0.932,-2.62023 0.932,-4.05196 0,-1.59373 -0.256,-2.99841 -0.77,-4.21404 -0.486,-1.24256 -1.269,-2.28256 -2.35,-3.12001 -1.08,-0.83736 -2.472,-1.47217 -4.173,-1.90442 -1.702,-0.43216 -3.755,-0.64827 -6.159,-0.64832 -1.027,5e-5 -2.094,0.0541 -3.201,0.16208 -1.108,0.0811 -2.161,0.25667 -3.161,0.52676 -0.972,0.24316 -1.837,0.58083 -2.593,1.01299 -0.73,0.43225 -1.216,0.97251 -1.459,1.62078 -0.03,0.0811 -0.08,0.28368 -0.162,0.6078 -0.08,0.29719 -0.216,0.64835 -0.405,1.05351 -0.162,0.37822 -0.392,0.75641 -0.689,1.13455 -0.297,0.37822 -0.675,0.68887 -1.135,0.93195 -0.05,0.40524 -0.108,0.91848 -0.162,1.53974 -0.03,0.62134 -0.05,1.28316 -0.08,1.98546 0,0.67537 -0.01,1.3642 -0.04,2.06651 0,0.67536 0,1.28315 0,1.82338 0,0.48627 0,1.04004 0,1.6613 0.03,0.62134 0.04,1.24264 0.04,1.86391 0.03,0.62133 0.05,1.22912 0.08,1.82338 0.03,0.5673 0.05,1.06704 0.08,1.49923"
             style="font-variant:normal;font-stretch:normal;font-family:Short Stack;-inkscape-font-specification:Short Stack"
             id="path6777" />
          <path
             inkscape:connector-curvature="0"
             d="m -10012.564,644.45276 c 0,-0.83738 0.03,-1.78284 0.08,-2.83638 0.05,-1.05348 0.136,-2.14751 0.244,-3.28209 0.108,-1.13452 0.229,-2.28257 0.364,-3.44416 0.162,-1.18855 0.338,-2.32309 0.527,-3.40365 0.189,-1.1075 0.392,-2.12049 0.608,-3.03897 0.243,-0.94542 0.486,-1.75581 0.729,-2.43118 0.297,-0.72931 0.77,-1.3236 1.418,-1.78287 0.649,-0.48619 1.513,-0.7293 2.594,-0.72935 0.972,5e-5 1.742,0.35121 2.309,1.05351 0.594,0.70238 0.892,1.53979 0.892,2.51222 0,0.16212 -0.135,0.67537 -0.406,1.53974 -0.243,0.83745 -0.526,1.972 -0.85,3.40365 -0.298,1.40472 -0.581,3.07953 -0.851,5.02444 -0.244,1.91795 -0.365,4.02497 -0.365,6.32106 0,0.89145 0.04,1.98548 0.122,3.28209 0.108,1.29664 0.297,2.6608 0.567,4.09248 0.27,1.40469 0.648,2.82288 1.134,4.25456 0.487,1.40469 1.135,2.6743 1.945,3.80884 0.838,1.13456 1.8506,2.05301 3.0392,2.75534 1.1886,0.70234 2.6068,1.05351 4.2546,1.05351 1.4047,0 2.7013,-0.2161 3.8899,-0.64832 1.1885,-0.4322 2.2691,-0.98597 3.2416,-1.6613 0.9994,-0.70233 1.8908,-1.48571 2.6743,-2.35014 0.8103,-0.86441 1.5262,-1.72882 2.1475,-2.59325 0.6483,-0.86441 1.202,-1.6748 1.6613,-2.43118 0.4862,-0.75635 0.9049,-1.39116 1.2561,-1.90442 0.162,-1.56674 0.2836,-2.94441 0.3647,-4.13301 0.081,-1.21556 0.135,-2.3231 0.1621,-3.3226 0.054,-0.99946 0.081,-1.93141 0.081,-2.79586 0.027,-0.8914 0.04,-1.79634 0.04,-2.71481 0,-0.94543 -0.013,-1.94491 -0.04,-2.99846 0,-1.08049 0,-2.30958 0,-3.68728 l 0,-4.82184 c 0,-0.56723 0.1215,-1.03996 0.3647,-1.41818 0.2701,-0.37814 0.5942,-0.68879 0.9724,-0.93196 0.3782,-0.24307 0.7969,-0.40515 1.2562,-0.48623 0.4591,-0.10801 0.8778,-0.16204 1.2561,-0.16208 0.3241,4e-5 0.6752,0.0541 1.0535,0.16208 0.3781,0.1081 0.7293,0.27017 1.0535,0.48623 0.3241,0.21615 0.5942,0.5133 0.8104,0.89144 0.216,0.35121 0.3241,0.76991 0.3241,1.2561 l -0.081,38.45313 c -1e-4,1.37767 -0.2702,2.30962 -0.8104,2.79585 -0.5403,0.45923 -1.3642,0.68884 -2.4717,0.68884 -0.9995,0 -1.7829,-0.081 -2.3501,-0.24312 -0.5403,-0.13507 -0.9455,-0.4052 -1.2156,-0.81039 -0.2432,-0.4052 -0.3917,-0.95897 -0.4457,-1.66131 -0.054,-0.70234 -0.081,-1.60727 -0.081,-2.71481 l 0,-2.75534 c -0.7024,1.26962 -1.4992,2.48521 -2.3906,3.64677 -0.8645,1.13455 -1.8775,2.13403 -3.039,2.99845 -1.1616,0.86442 -2.4987,1.55325 -4.0114,2.0665 -1.5128,0.51325 -3.2416,0.76987 -5.1866,0.76987 -2.8093,0 -5.227,-0.43221 -7.2531,-1.29662 -1.999,-0.83741 -3.701,-1.94494 -5.105,-3.32261 -1.378,-1.40468 -2.499,-2.99845 -3.364,-4.78132 -0.837,-1.78285 -1.499,-3.60623 -1.985,-5.47015 -0.459,-1.86389 -0.77,-3.68727 -0.932,-5.47015 -0.135,-1.78284 -0.203,-3.37661 -0.203,-4.78131"
             style="font-variant:normal;font-stretch:normal;font-family:Short Stack;-inkscape-font-specification:Short Stack"
             id="path6779" />
          <path
             inkscape:connector-curvature="0"
             d="m -9960.2933,648.58576 c 0,-3.83584 0.5538,-7.30701 1.6613,-10.41354 1.1076,-3.10648 2.7419,-5.75376 4.9029,-7.94185 2.161,-2.18802 4.8083,-3.87634 7.9419,-5.06495 3.1605,-1.18854 6.7937,-1.78282 10.8997,-1.78287 1.4047,5e-5 2.8364,0.14862 4.2951,0.44572 1.4857,0.29719 2.9174,0.72939 4.2951,1.29663 1.3776,0.56731 2.6743,1.26965 3.8899,2.10702 1.2425,0.83744 2.3231,1.80991 3.2416,2.91741 0.9183,1.08056 1.6342,2.29615 2.1475,3.64677 0.5402,1.32367 0.8103,2.76887 0.8104,4.3356 -1e-4,1.21561 -0.2702,2.09354 -0.8104,2.63377 -0.5403,0.54029 -1.2562,0.91847 -2.1475,1.13455 -0.7835,0.21613 -1.7019,0.41873 -2.7554,0.60779 -1.0265,0.16211 -2.1881,0.44575 -3.4847,0.85092 l -27.1076,8.42808 c 0.3512,1.64781 0.9184,3.05249 1.7018,4.21404 0.8104,1.16157 1.7424,2.13404 2.7959,2.91741 1.0805,0.78339 2.242,1.40469 3.4847,1.86391 1.2696,0.45922 2.5392,0.81039 3.8088,1.05351 1.2696,0.21611 2.4987,0.36468 3.6873,0.44571 1.2156,0.054 2.3096,0.0811 3.2821,0.081 1.5397,10e-6 3.0659,-0.17558 4.5787,-0.52675 1.5127,-0.35117 2.9039,-0.74286 4.1735,-1.17507 1.2696,-0.4322 2.3771,-0.82389 3.3226,-1.17507 0.9725,-0.35116 1.6748,-0.52675 2.1071,-0.52676 1.4316,10e-6 2.4716,0.32417 3.12,0.97247 0.6752,0.64832 1.0129,1.66131 1.013,3.03898 -10e-5,0.89143 -0.4593,1.6613 -1.3777,2.30961 -0.8915,0.64832 -2.0531,1.18858 -3.4847,1.62079 -1.4317,0.43221 -3.0255,0.76987 -4.7813,1.01299 -1.7289,0.27013 -3.4307,0.45922 -5.1055,0.56727 -1.6478,0.13507 -3.1605,0.21611 -4.5382,0.24312 -1.3777,0.054 -2.4177,0.081 -3.12,0.081 -1.8639,0 -3.7278,-0.24312 -5.5917,-0.72935 -1.8369,-0.45922 -3.5928,-1.12104 -5.2676,-1.98546 -1.6478,-0.86442 -3.1875,-1.90442 -4.6192,-3.12001 -1.4047,-1.2426 -2.6338,-2.60676 -3.6873,-4.09249 -1.0265,-1.51272 -1.8369,-3.1335 -2.4312,-4.86235 -0.5672,-1.72882 -0.8509,-3.5387 -0.8509,-5.42963 m 7.5772,-3.16053 c 1.2696,-0.37816 2.7283,-0.81037 4.3761,-1.29663 1.6478,-0.48621 3.3766,-0.99946 5.1865,-1.53975 1.8369,-0.56724 3.6873,-1.14803 5.5512,-1.74234 1.8909,-0.59426 3.7008,-1.17504 5.4297,-1.74234 1.7558,-0.59426 3.363,-1.14803 4.8218,-1.66131 1.4857,-0.54023 2.7283,-1.03997 3.7278,-1.49922 -0.2972,-1.02647 -0.7969,-1.90439 -1.4992,-2.63378 -0.7024,-0.75633 -1.5938,-1.36412 -2.6743,-1.82338 -1.0536,-0.4862 -2.2827,-0.83737 -3.6873,-1.05351 -1.4047,-0.24308 -2.9445,-0.36464 -4.6193,-0.36468 -0.7563,4e-5 -1.6613,0.10809 -2.7148,0.32416 -1.0265,0.21614 -2.1205,0.56731 -3.2821,1.05351 -1.1345,0.45926 -2.2961,1.08056 -3.4846,1.8639 -1.1616,0.78341 -2.2286,1.74238 -3.2011,2.87689 -0.9725,1.13458 -1.8099,2.47173 -2.5122,4.01145 -0.7024,1.51276 -1.1751,3.2551 -1.4182,5.22703"
             style="font-variant:normal;font-stretch:normal;font-family:Short Stack;-inkscape-font-specification:Short Stack"
             id="path6781" />
          <path
             inkscape:connector-curvature="0"
             d="m -9902.877,662.60555 c 0,-0.70234 0.041,-1.43169 0.1216,-2.18806 0.081,-0.75636 0.1216,-1.48571 0.1216,-2.18806 0,-1.64779 -0.081,-3.36312 -0.2432,-5.14599 -0.135,-1.43168 -0.2161,-2.9309 -0.2431,-4.49768 0,-1.56674 0.054,-2.94441 0.1621,-4.133 l 1.3372,-16.00525 c 0.108,-1.29659 0.4322,-2.32309 0.9724,-3.0795 0.5673,-0.78333 1.5668,-1.17502 2.9985,-1.17507 0.5943,5e-5 1.1075,0.1081 1.5397,0.32416 0.4592,0.18914 0.8374,0.44576 1.1346,0.76987 0.3241,0.3242 0.5807,0.68888 0.7698,1.09403 0.1891,0.37823 0.3242,0.75641 0.4052,1.13455 1.1076,-0.83736 2.3231,-1.55321 3.6468,-2.14754 1.3236,-0.59424 2.6878,-1.08048 4.0925,-1.4587 1.4046,-0.37814 2.8228,-0.64827 4.2546,-0.8104 1.4316,-0.18904 2.8228,-0.28359 4.1735,-0.28363 1.1345,4e-5 2.4311,0.0811 3.8899,0.24311 1.4586,0.13512 2.8363,0.44577 4.133,0.93196 1.2965,0.48628 2.3906,1.18861 3.282,2.10702 0.8914,0.91848 1.3371,2.16108 1.3372,3.7278 -1e-4,1.10758 -0.3512,2.01251 -1.0535,2.71482 -0.6754,0.67536 -1.5803,1.01302 -2.7148,1.01299 -0.8645,3e-5 -1.5398,-0.18906 -2.026,-0.56728 -0.4863,-0.40516 -0.9185,-0.85087 -1.2966,-1.33714 -0.1622,-0.18906 -0.3512,-0.39166 -0.5673,-0.6078 -0.2162,-0.21607 -0.5268,-0.41866 -0.932,-0.60779 -0.3782,-0.18906 -0.8779,-0.33763 -1.4992,-0.44572 -0.6213,-0.10801 -1.4182,-0.16204 -2.3906,-0.16208 -3.0526,4e-5 -5.6998,0.3242 -7.9419,0.97247 -2.2421,0.62134 -4.0925,1.60732 -5.5512,2.95794 -1.4587,1.35068 -2.5392,3.09303 -3.2416,5.22703 -0.7023,2.10704 -1.0535,4.64627 -1.0535,7.61769 0,1.10755 0.013,2.16106 0.041,3.16053 0.027,0.97249 0.067,1.94496 0.1215,2.91741 0.081,0.97249 0.1621,1.95846 0.2431,2.95793 0.081,0.9995 0.1621,2.06651 0.2431,3.20105 0.054,0.86443 0.1351,1.75586 0.2432,2.6743 0.108,0.91845 0.162,1.80988 0.162,2.67429 0,0.24313 -0.068,0.58079 -0.2026,1.01299 -0.135,0.43222 -0.3646,0.86443 -0.6888,1.29663 -0.2971,0.4052 -0.7023,0.76988 -1.2156,1.09403 -0.4862,0.29715 -1.094,0.44572 -1.8234,0.44572 -0.9454,0 -1.7288,-0.10805 -2.3501,-0.32416 -0.5943,-0.2161 -1.0805,-0.54026 -1.4587,-0.97247 -0.3512,-0.45922 -0.5943,-1.02649 -0.7294,-1.70182 -0.135,-0.70234 -0.2026,-1.51273 -0.2026,-2.43118"
             style="font-variant:normal;font-stretch:normal;font-family:Short Stack;-inkscape-font-specification:Short Stack"
             id="path6783" />
          <path
             inkscape:connector-curvature="0"
             d="m -9858.1028,650.81434 c 0,-3.72779 0.5403,-7.22598 1.6208,-10.49458 1.0805,-3.29557 2.6743,-6.17246 4.7813,-8.63068 2.107,-2.48517 4.7138,-4.44362 7.8203,-5.87535 3.1065,-1.43165 6.6722,-2.1475 10.6972,-2.14754 0.7563,4e-5 1.6208,0.13511 2.5933,0.4052 0.9724,0.27017 1.9584,0.66186 2.9579,1.17506 0.9994,0.5133 1.9854,1.1346 2.9579,1.86391 0.9724,0.70238 1.8369,1.49926 2.5933,2.39066 0.7563,0.86445 1.3641,1.80991 1.8234,2.83637 0.4591,1.02653 0.6887,2.09355 0.6888,3.20105 -10e-5,0.32419 -0.068,0.72938 -0.2026,1.21559 -0.1351,0.48626 -0.3242,0.94549 -0.5673,1.37767 -0.2161,0.43223 -0.4863,0.7834 -0.8104,1.05351 -0.3242,0.27015 -0.6888,0.37821 -1.094,0.32415 -0.3782,-0.081 -0.7969,-0.37815 -1.2561,-0.89143 -0.4593,-0.51322 -0.932,-1.36413 -1.4182,-2.55274 -0.3782,-0.86438 -0.9185,-1.60724 -1.6208,-2.22857 -0.6753,-0.62127 -1.4587,-1.12101 -2.3501,-1.49923 -0.8915,-0.40516 -1.8505,-0.7023 -2.8769,-0.89143 -0.9995,-0.18906 -1.999,-0.2836 -2.9985,-0.28364 -2.4582,4e-5 -4.6733,0.49978 -6.6452,1.49923 -1.9449,0.99951 -3.6063,2.32315 -4.9839,3.97092 -1.3777,1.62081 -2.4312,3.47121 -3.1605,5.55119 -0.7294,2.08003 -1.0941,4.18705 -1.0941,6.32106 0,2.62029 0.3917,4.76782 1.1751,6.44262 0.7834,1.64781 1.8909,2.95794 3.3226,3.9304 1.4587,0.94547 3.1875,1.59378 5.1865,1.94495 2.026,0.35117 4.2681,0.52676 6.7263,0.52675 0.7293,1e-5 1.4316,0.027 2.107,0.081 0.7023,0.027 1.3776,0.0405 2.026,0.0405 0.6753,-0.027 1.3506,-0.0945 2.026,-0.2026 0.6753,-0.10804 1.3776,-0.31064 2.107,-0.60779 0.5942,-0.27013 1.148,-0.52675 1.6613,-0.76988 0.4592,-0.18908 0.9049,-0.36466 1.3371,-0.52675 0.4322,-0.16207 0.7564,-0.24311 0.9725,-0.24312 0.2701,10e-6 0.6483,0.0811 1.1346,0.24312 0.4862,0.16209 0.9589,0.43222 1.4181,0.81039 0.4862,0.37819 0.9049,0.87793 1.2562,1.49923 0.3511,0.59429 0.5267,1.33715 0.5267,2.22858 0,0.45922 -0.1621,0.93195 -0.4862,1.41818 -0.2972,0.45923 -0.6889,0.89144 -1.1751,1.29663 -0.4593,0.37819 -0.9455,0.68884 -1.4587,0.93195 -0.5133,0.24312 -0.9725,0.36468 -1.3777,0.36468 l -3.201,0 c -1.891,0 -3.7414,0.081 -5.5512,0.24312 -1.7829,0.16208 -3.6468,0.24311 -5.5917,0.24312 -2.8904,-10e-6 -5.6458,-0.27014 -8.266,-0.8104 -2.6203,-0.56727 -4.9164,-1.52623 -6.8884,-2.87689 -1.9719,-1.35065 -3.5387,-3.14702 -4.7002,-5.38911 -1.1616,-2.26909 -1.7424,-5.10546 -1.7424,-8.50912"
             style="font-variant:normal;font-stretch:normal;font-family:Short Stack;-inkscape-font-specification:Short Stack"
             id="path6785" />
          <path
             inkscape:connector-curvature="0"
             d="m -9807.3722,646.27614 c 0,-4.187 0.6753,-7.73922 2.026,-10.65666 1.3506,-2.91738 3.12,-5.28102 5.308,-7.09094 2.2151,-1.83684 4.7138,-3.16048 7.4962,-3.97092 2.8093,-0.83736 5.6727,-1.25606 8.5901,-1.25611 3.3766,5e-5 6.4021,0.55381 9.0764,1.66131 2.7013,1.10758 4.9839,2.70135 6.8478,4.78131 1.8639,2.08005 3.2956,4.60577 4.2951,7.57717 0.9995,2.94446 1.4992,6.25356 1.4993,9.92731 -10e-5,2.13405 -0.2837,4.14653 -0.851,6.03743 -0.5673,1.89092 -1.3507,3.64677 -2.3501,5.26755 -0.9995,1.59378 -2.2016,3.02547 -3.6062,4.29508 -1.3778,1.26962 -2.8905,2.36364 -4.5382,3.28209 -1.6479,0.89143 -3.3902,1.56676 -5.2271,2.02598 -1.8369,0.48623 -3.7008,0.72935 -5.5917,0.72935 -2.053,0 -4.052,-0.32416 -5.9969,-0.97247 -1.9179,-0.6213 -3.7278,-1.48572 -5.4296,-2.59326 -1.7019,-1.10753 -3.2686,-2.39065 -4.7003,-3.84936 -1.4047,-1.48571 -2.6203,-3.06598 -3.6468,-4.7408 -0.9995,-1.6748 -1.7828,-3.40363 -2.3501,-5.18651 -0.5673,-1.78284 -0.8509,-3.53869 -0.8509,-5.26755 m 7.0099,-1.01299 c 0,1.99899 0.4322,4.01146 1.2966,6.03742 0.8644,1.99899 1.999,3.80886 3.4037,5.42963 1.4316,1.6208 3.0524,2.94444 4.8623,3.97093 1.8369,0.99949 3.7008,1.49923 5.5917,1.49922 2.053,1e-5 4.0384,-0.35116 5.9564,-1.05351 1.9449,-0.70233 3.6467,-1.72883 5.1055,-3.07949 1.4857,-1.35064 2.6742,-2.99844 3.5657,-4.94339 0.8914,-1.94493 1.3371,-4.16 1.3372,-6.64522 -10e-5,-2.43116 -0.3378,-4.64623 -1.013,-6.64522 -0.6484,-2.02595 -1.5533,-3.76829 -2.7149,-5.22703 -1.1616,-1.45867 -2.5527,-2.57972 -4.1735,-3.36313 -1.6208,-0.81036 -3.3766,-1.21555 -5.2675,-1.21559 -2.1071,4e-5 -4.2276,0.3377 -6.3616,1.01299 -2.1341,0.64835 -4.0655,1.62082 -5.7943,2.91741 -1.7019,1.26965 -3.093,2.84992 -4.1735,4.7408 -1.0806,1.89094 -1.6208,4.079 -1.6208,6.56418"
             style="font-variant:normal;font-stretch:normal;font-family:Short Stack;-inkscape-font-specification:Short Stack"
             id="path6787" />
          <path
             inkscape:connector-curvature="0"
             d="m -9752.5086,648.58576 c 0,-3.83584 0.5537,-7.30701 1.6613,-10.41354 1.1075,-3.10648 2.7418,-5.75376 4.9028,-7.94185 2.1611,-2.18802 4.8084,-3.87634 7.9419,-5.06495 3.1605,-1.18854 6.7938,-1.78282 10.8998,-1.78287 1.4046,5e-5 2.8363,0.14862 4.295,0.44572 1.4857,0.29719 2.9174,0.72939 4.2951,1.29663 1.3777,0.56731 2.6743,1.26965 3.8899,2.10702 1.2426,0.83744 2.3231,1.80991 3.2416,2.91741 0.9184,1.08056 1.6342,2.29615 2.1475,3.64677 0.5402,1.32367 0.8104,2.76887 0.8104,4.3356 0,1.21561 -0.2702,2.09354 -0.8104,2.63377 -0.5403,0.54029 -1.2561,0.91847 -2.1475,1.13455 -0.7834,0.21613 -1.7019,0.41873 -2.7554,0.60779 -1.0265,0.16211 -2.1881,0.44575 -3.4846,0.85092 l -27.1077,8.42808 c 0.3512,1.64781 0.9185,3.05249 1.7019,4.21404 0.8103,1.16157 1.7423,2.13404 2.7958,2.91741 1.0805,0.78339 2.2421,1.40469 3.4847,1.86391 1.2696,0.45922 2.5392,0.81039 3.8088,1.05351 1.2696,0.21611 2.4987,0.36468 3.6873,0.44571 1.2156,0.054 2.3096,0.0811 3.2821,0.081 1.5397,10e-6 3.066,-0.17558 4.5787,-0.52675 1.5127,-0.35117 2.9039,-0.74286 4.1736,-1.17507 1.2695,-0.4322 2.3771,-0.82389 3.3226,-1.17507 0.9724,-0.35116 1.6747,-0.52675 2.107,-0.52676 1.4316,10e-6 2.4716,0.32417 3.12,0.97247 0.6753,0.64832 1.0129,1.66131 1.013,3.03898 -1e-4,0.89143 -0.4593,1.6613 -1.3777,2.30961 -0.8915,0.64832 -2.053,1.18858 -3.4847,1.62079 -1.4317,0.43221 -3.0255,0.76987 -4.7813,1.01299 -1.7289,0.27013 -3.4307,0.45922 -5.1055,0.56727 -1.6478,0.13507 -3.1605,0.21611 -4.5382,0.24312 -1.3777,0.054 -2.4177,0.081 -3.12,0.081 -1.8639,0 -3.7278,-0.24312 -5.5917,-0.72935 -1.8369,-0.45922 -3.5927,-1.12104 -5.2675,-1.98546 -1.6478,-0.86442 -3.1876,-1.90442 -4.6193,-3.12001 -1.4047,-1.2426 -2.6337,-2.60676 -3.6872,-4.09249 -1.0266,-1.51272 -1.8369,-3.1335 -2.4312,-4.86235 -0.5673,-1.72882 -0.8509,-3.5387 -0.8509,-5.42963 m 7.5771,-3.16053 c 1.2696,-0.37816 2.7283,-0.81037 4.3762,-1.29663 1.6477,-0.48621 3.3766,-0.99946 5.1865,-1.53975 1.8368,-0.56724 3.6872,-1.14803 5.5512,-1.74234 1.8908,-0.59426 3.7007,-1.17504 5.4296,-1.74234 1.7558,-0.59426 3.3631,-1.14803 4.8218,-1.66131 1.4857,-0.54023 2.7283,-1.03997 3.7278,-1.49922 -0.2972,-1.02647 -0.7969,-1.90439 -1.4992,-2.63378 -0.7024,-0.75633 -1.5938,-1.36412 -2.6743,-1.82338 -1.0535,-0.4862 -2.2826,-0.83737 -3.6873,-1.05351 -1.4047,-0.24308 -2.9444,-0.36464 -4.6192,-0.36468 -0.7564,4e-5 -1.6614,0.10809 -2.7148,0.32416 -1.0266,0.21614 -2.1206,0.56731 -3.2821,1.05351 -1.1346,0.45926 -2.2962,1.08056 -3.4847,1.8639 -1.1616,0.78341 -2.2286,1.74238 -3.2011,2.87689 -0.9725,1.13458 -1.8099,2.47173 -2.5122,4.01145 -0.7023,1.51276 -1.1751,3.2551 -1.4182,5.22703"
             style="font-variant:normal;font-stretch:normal;font-family:Short Stack;-inkscape-font-specification:Short Stack"
             id="path6789" />
          <path
             inkscape:connector-curvature="0"
             d="m -9692.5801,661.471 c 0,-0.35116 0.1485,-0.82389 0.4457,-1.41819 0.2971,-0.62129 0.6618,-1.17506 1.094,-1.6613 0.4592,-0.48623 0.959,-0.79688 1.4993,-0.93195 0.5402,-0.16207 1.0535,0.027 1.5397,0.56727 0.8914,0.99949 1.6883,1.78287 2.3907,2.35014 0.7293,0.56728 1.4857,0.98598 2.2691,1.25611 0.8103,0.27013 1.6883,0.43221 2.6337,0.48623 0.9725,0.054 2.134,0.0811 3.4847,0.081 1.6208,1e-5 3.2686,-0.17558 4.9434,-0.52675 1.7018,-0.37818 3.2551,-0.81039 4.6598,-1.29663 1.4046,-0.51324 2.5527,-1.04 3.4441,-1.58027 0.8914,-0.54025 1.3371,-0.97246 1.3372,-1.29662 -10e-5,-0.4322 -0.2837,-0.87792 -0.8509,-1.33715 -0.5403,-0.45921 -1.2832,-0.89142 -2.2286,-1.29663 -0.9455,-0.40518 -2.053,-0.78337 -3.3226,-1.13455 -1.2697,-0.37817 -2.6203,-0.68882 -4.052,-0.93195 -1.6748,-0.21609 -3.3901,-0.45921 -5.146,-0.72935 -1.7288,-0.27012 -3.4171,-0.62129 -5.0649,-1.05351 -1.6478,-0.4322 -3.2011,-0.94544 -4.6598,-1.53975 -1.4587,-0.62128 -2.7418,-1.39115 -3.8493,-2.30962 -1.1076,-0.91842 -1.9855,-2.01245 -2.6338,-3.28209 -0.6213,-1.26959 -0.932,-2.75531 -0.932,-4.45716 0,-1.83686 0.3107,-3.53868 0.932,-5.10547 0.6483,-1.56672 1.5127,-2.99842 2.5932,-4.29508 1.1076,-1.29659 2.3907,-2.44464 3.8494,-3.44417 1.4857,-0.99944 3.0795,-1.83684 4.7813,-2.51221 1.7018,-0.67529 3.4712,-1.18854 5.3081,-1.53975 1.8369,-0.35112 3.6602,-0.52671 5.4701,-0.52676 1.8909,5e-5 3.6063,0.24317 5.146,0.72936 1.5668,0.45927 2.8904,1.08057 3.971,1.8639 1.0804,0.75641 1.9178,1.63433 2.5122,2.63378 0.5942,0.99952 0.8914,2.03952 0.8914,3.12001 0,0.67536 -0.013,1.44523 -0.04,2.30962 -0.027,0.86445 -0.1486,1.68835 -0.3647,2.47169 -0.1891,0.7564 -0.5133,1.40471 -0.9725,1.94495 -0.4592,0.51327 -1.121,0.7699 -1.9854,0.76987 -0.5403,3e-5 -0.959,-0.10802 -1.2561,-0.32416 -0.2702,-0.24309 -0.4728,-0.52672 -0.6078,-0.85091 -0.1351,-0.32413 -0.2162,-0.6753 -0.2431,-1.05351 -0.027,-0.40516 -0.041,-0.76984 -0.041,-1.09403 0,-1.05348 -0.1891,-1.90439 -0.5672,-2.55274 -0.3512,-0.64828 -0.878,-1.16152 -1.5803,-1.53974 -0.7024,-0.37815 -1.5668,-0.63477 -2.5933,-0.76988 -0.9995,-0.13502 -2.1475,-0.20256 -3.4441,-0.20259 -0.8915,3e-5 -1.864,0.12159 -2.9174,0.36467 -1.0536,0.24316 -2.1206,0.58082 -3.2011,1.01299 -1.0535,0.40524 -2.0935,0.90498 -3.12,1.49923 -0.9995,0.59432 -1.8909,1.25614 -2.6743,1.98546 -0.7564,0.70237 -1.3777,1.44523 -1.8639,2.22858 -0.4592,0.78341 -0.6888,1.5938 -0.6888,2.43118 0,1.05354 0.4187,1.93146 1.2561,2.63377 0.8374,0.67536 1.9449,1.24263 3.3226,1.70183 1.3776,0.45924 2.9309,0.85093 4.6597,1.17507 1.7559,0.29716 3.5387,0.5808 5.3486,0.85091 2.2421,0.35119 4.4436,0.79691 6.6047,1.33715 2.1881,0.51327 4.1465,1.21561 5.8754,2.10702 1.7288,0.89145 3.1199,2.0395 4.1735,3.44416 1.0535,1.37769 1.5802,3.09302 1.5803,5.146 -10e-5,1.45871 -0.4188,2.76885 -1.2561,3.9304 -0.8375,1.13456 -1.9315,2.14755 -3.2821,3.03897 -1.3237,0.86442 -2.8229,1.60728 -4.4977,2.22858 -1.6749,0.6213 -3.3632,1.12105 -5.065,1.49923 -1.6748,0.40519 -3.2821,0.70234 -4.8218,0.89143 -1.5398,0.18909 -2.8364,0.28364 -3.8899,0.28364 -0.8104,0 -1.7288,-0.0405 -2.7553,-0.12156 -1.0265,-0.054 -2.08,-0.17559 -3.1606,-0.36468 -1.0535,-0.18909 -2.08,-0.45922 -3.0794,-0.81039 -0.9995,-0.35117 -1.9045,-0.81039 -2.7149,-1.37767 -0.7834,-0.59428 -1.4182,-1.29662 -1.9044,-2.10702 -0.4592,-0.8374 -0.6888,-1.83688 -0.6888,-2.99845"
             style="font-variant:normal;font-stretch:normal;font-family:Short Stack;-inkscape-font-specification:Short Stack"
             id="path6791" />
          <path
             inkscape:connector-curvature="0"
             d="m -9640.4718,632.62103 c 0.8103,-1.59374 1.9044,-2.93088 3.282,-4.01145 1.3777,-1.08048 2.8769,-1.9449 4.4977,-2.59325 1.6208,-0.67529 3.2686,-1.14802 4.9434,-1.41819 1.7018,-0.2971 3.2551,-0.44567 4.6598,-0.44572 4.241,5e-5 7.9958,0.49979 11.2644,1.49923 3.2956,0.97251 6.0509,2.32317 8.266,4.05196 2.2421,1.70186 3.9439,3.71434 5.1055,6.03743 1.1615,2.29614 1.7423,4.75433 1.7423,7.37457 0,3.99796 -0.5808,7.56368 -1.7423,10.69718 -1.1616,3.10652 -2.8364,5.74029 -5.0244,7.90133 -2.1881,2.13403 -4.8489,3.76832 -7.9824,4.90287 -3.1335,1.10754 -6.6588,1.66131 -10.5756,1.66131 -2.4042,0 -4.4572,-0.13507 -6.159,-0.4052 -1.6748,-0.24312 -3.2686,-0.63481 -4.7813,-1.17507 l 0,3.16053 c -0.027,1.26961 0.027,2.56624 0.1621,3.88989 0.162,1.32363 0.3241,2.63376 0.4862,3.9304 0.1891,1.32363 0.3647,2.62026 0.5267,3.88988 0.1621,1.29662 0.2432,2.52571 0.2432,3.68729 0,0.54024 -0.1351,1.01297 -0.4052,1.41819 -0.2702,0.40517 -0.6213,0.74284 -1.0535,1.01299 -0.4053,0.27011 -0.8645,0.47271 -1.3777,0.60779 -0.5133,0.13505 -1.013,0.20258 -1.4992,0.2026 -0.6213,-2e-5 -1.2021,-0.0811 -1.7424,-0.24312 -0.5132,-0.1621 -0.9725,-0.43223 -1.3776,-0.81039 -0.4052,-0.3782 -0.7294,-0.89145 -0.9725,-1.53975 -0.2161,-0.64833 -0.3242,-1.44521 -0.3242,-2.39065 0,-0.59431 0,-1.31015 0,-2.14754 0,-0.83742 -0.013,-1.71535 -0.04,-2.63378 0,-0.89144 -0.013,-1.78287 -0.04,-2.6743 0,-0.89143 0,-1.67481 0,-2.35013 l -0.081,-9.88679 0,-31.20011 m 7.4961,27.06711 c -0.054,0.43221 0.2161,0.76988 0.8104,1.01299 0.6213,0.24312 1.3371,0.43221 2.1475,0.56727 0.8374,0.10806 1.6748,0.17559 2.5122,0.2026 0.8374,0.027 1.4722,0.0405 1.9045,0.0405 2.8363,1e-5 5.5376,-0.29714 8.1039,-0.89143 2.5662,-0.6213 4.8218,-1.59377 6.7668,-2.91742 1.9449,-1.35064 3.4846,-3.10649 4.6192,-5.26755 1.1615,-2.16103 1.7423,-4.80831 1.7423,-7.94184 0,-2.21505 -0.4322,-4.15999 -1.2966,-5.83483 -0.8645,-1.70179 -2.1071,-3.11998 -3.7278,-4.25456 -1.5938,-1.13451 -3.5523,-1.98543 -5.8753,-2.55274 -2.2962,-0.56723 -4.8894,-0.85087 -7.7798,-0.85091 -0.8104,4e-5 -1.7829,0.1216 -2.9174,0.36468 -1.1076,0.21614 -2.1881,0.5538 -3.2416,1.01299 -1.0535,0.45926 -1.972,1.02653 -2.7553,1.70182 -0.7834,0.67536 -1.2562,1.45874 -1.4182,2.35014 l -0.081,11.42654 c 0,0.27015 0,0.64833 0,1.13454 0.027,0.48626 0.054,1.04003 0.081,1.66131 0.027,0.5943 0.054,1.22911 0.081,1.90442 0.027,0.67534 0.054,1.35067 0.081,2.02598 0.081,1.56677 0.162,3.2686 0.2431,5.10548"
             style="font-variant:normal;font-stretch:normal;font-family:Short Stack;-inkscape-font-specification:Short Stack"
             id="path6793" />
          <path
             inkscape:connector-curvature="0"
             d="m -9577.7475,616.61577 c -0.7293,6e-5 -1.2831,-0.054 -1.6613,-0.16207 -0.3782,-0.13502 -0.6618,-0.33762 -0.8509,-0.6078 -0.1891,-0.27008 -0.2971,-0.60774 -0.3241,-1.01299 -0.027,-0.43215 -0.041,-0.9454 -0.041,-1.53974 0,-0.62125 0.2296,-1.22904 0.6889,-1.82339 0.4592,-0.59423 0.9859,-1.1615 1.5802,-1.70182 0.6213,-0.54021 1.2156,-1.05345 1.7829,-1.53975 0.5673,-0.48617 0.959,-0.9454 1.1751,-1.37766 0.189,-0.27007 0.4862,-0.67527 0.8914,-1.21559 0.4322,-0.5402 0.9184,-1.148 1.4587,-1.82339 0.5403,-0.67526 1.1075,-1.36409 1.7018,-2.0665 0.6213,-0.72928 1.2291,-1.3911 1.8234,-1.98546 0.5943,-0.59422 1.1481,-1.08045 1.6613,-1.45871 0.5132,-0.37811 0.932,-0.5672 1.2561,-0.56727 0.5133,7e-5 1.013,0.0271 1.4993,0.081 0.4862,0.0541 0.9184,0.22968 1.2966,0.52675 0.4052,0.29722 0.7158,0.76995 0.9319,1.41819 0.2431,0.64838 0.3647,1.58033 0.3647,2.79585 0,0.29721 -0.2837,0.85098 -0.8509,1.66131 -0.5403,0.78344 -1.2561,1.70189 -2.1475,2.75533 -0.8645,1.02656 -1.864,2.10708 -2.9985,3.24157 -1.1075,1.13461 -2.2286,2.17461 -3.3631,3.12002 -1.1076,0.94551 -2.1881,1.72889 -3.2416,2.35013 -1.0265,0.62136 -1.9044,0.93201 -2.6338,0.93195 m -3.4441,48.46148 c 0,-0.10805 -0.027,-0.39169 -0.081,-0.85092 -0.054,-0.48623 -0.108,-0.99948 -0.1621,-1.53974 -0.081,-0.45922 -0.162,-0.95896 -0.2431,-1.49923 -0.054,-0.56727 -0.081,-0.98597 -0.081,-1.25611 l 0,-14.50602 c 0,-3.02544 0.1215,-6.14545 0.3647,-9.36004 0.2431,-3.21452 0.7023,-6.2805 1.3776,-9.19795 l 0,0.24312 c 0.027,-0.24308 0.1351,-0.56724 0.3242,-0.97247 0.1891,-0.43217 0.4457,-0.85087 0.7699,-1.25611 0.3511,-0.43217 0.7563,-0.79684 1.2156,-1.09403 0.4592,-0.32411 0.9859,-0.48619 1.5802,-0.48624 1.1616,5e-5 1.972,0.37823 2.4312,1.13455 0.4862,0.75641 0.7293,1.67486 0.7294,2.75534 -1e-4,1.45874 -0.081,2.99849 -0.2432,4.61923 -0.1621,1.59381 -0.3241,3.24161 -0.4862,4.9434 -0.1621,1.83692 -0.3107,3.64679 -0.4457,5.42963 -0.1081,1.78289 -0.1621,3.37666 -0.1621,4.78131 0,1.02652 0.067,2.24211 0.2026,3.64677 0.135,1.37768 0.3241,2.83639 0.5673,4.37612 0.2161,1.67482 0.4322,3.36314 0.6483,5.06495 0.2161,1.70183 0.3241,3.2821 0.3241,4.7408 0,1.35065 -0.3376,2.37715 -1.0129,3.07949 -0.6484,0.72935 -1.3912,1.09403 -2.2286,1.09403 -1.6478,0 -2.958,-0.33766 -3.9304,-1.01299 -0.9725,-0.67533 -1.4587,-1.63429 -1.4587,-2.87689"
             style="font-variant:normal;font-stretch:normal;font-family:Short Stack;-inkscape-font-specification:Short Stack"
             id="path6795" />
          <path
             inkscape:connector-curvature="0"
             d="m -9557.1635,664.18581 c 0,-0.40519 0.014,-0.95896 0.041,-1.6613 0.027,-0.70233 0.04,-1.62078 0.04,-2.75533 0,-1.83688 -0.054,-3.76832 -0.162,-5.79431 -0.1081,-2.05298 -0.2297,-4.1735 -0.3647,-6.36158 -0.1081,-2.21505 -0.2161,-4.48415 -0.3242,-6.8073 -0.081,-2.35011 -0.1215,-4.75427 -0.1215,-7.21249 0,-0.94543 0.04,-1.99893 0.1215,-3.16053 0.081,-1.18854 0.2431,-2.28257 0.4863,-3.28209 0.2431,-1.02646 0.5942,-1.87737 1.0535,-2.55274 0.4592,-0.7023 1.0805,-1.05347 1.8639,-1.05351 0.8374,4e-5 1.4857,0.27018 1.9449,0.81039 0.4862,0.51329 0.8374,1.18862 1.0535,2.02598 0.2431,0.81044 0.3782,1.74239 0.4052,2.79586 0.054,1.02653 0.081,2.06654 0.081,3.12001 0.9454,-1.37763 2.1475,-2.62023 3.6062,-3.72781 1.4587,-1.13451 3.0119,-2.09347 4.6598,-2.87689 1.6748,-0.78334 3.3631,-1.39113 5.0649,-1.82338 1.7018,-0.43217 3.2821,-0.64827 4.7408,-0.64832 2.6473,5e-5 4.9704,0.39174 6.9694,1.17507 2.0259,0.75641 3.7683,1.79641 5.227,3.12001 1.4857,1.32368 2.7148,2.86343 3.6873,4.61924 0.9994,1.72887 1.7963,3.56576 2.3907,5.51067 0.5942,1.94497 1.0129,3.94394 1.2561,5.9969 0.2701,2.02601 0.4051,3.98445 0.4052,5.87535 l 0,6.88834 c -10e-5,1.75586 -0.1216,3.45768 -0.3647,5.10547 -0.2162,1.62079 -0.5403,3.06599 -0.9725,4.3356 -0.4322,1.2426 -0.9725,2.24208 -1.6208,2.99845 -0.6213,0.78338 -1.3372,1.17507 -2.1475,1.17507 -0.5943,0 -1.1481,-0.0405 -1.6613,-0.12156 -0.5133,-0.081 -0.9725,-0.28364 -1.3777,-0.60779 -0.3782,-0.29715 -0.6753,-0.76988 -0.8914,-1.41819 -0.2162,-0.64831 -0.3242,-1.53974 -0.3242,-2.6743 0,-1.0535 0.108,-2.14753 0.3242,-3.28208 0.2161,-1.16156 0.4457,-2.32312 0.6888,-3.48469 0.2701,-1.16155 0.5132,-2.32312 0.7294,-3.48469 0.216,-1.16155 0.3241,-2.3096 0.3241,-3.44417 0,-1.2696 -0.04,-2.5257 -0.1215,-3.76832 -0.054,-1.2696 -0.1892,-2.5122 -0.4052,-3.72781 -0.2162,-1.21556 -0.5268,-2.39063 -0.932,-3.52521 -0.3782,-1.16153 -0.9049,-2.26907 -1.5802,-3.32261 -0.5403,-0.86438 -1.1076,-1.70179 -1.7019,-2.51221 -0.5673,-0.83737 -1.2696,-1.58023 -2.107,-2.22858 -0.8104,-0.64828 -1.7964,-1.16153 -2.9579,-1.53975 -1.1616,-0.40516 -2.5933,-0.60775 -4.2951,-0.60779 -1.1616,4e-5 -2.4852,0.24315 -3.9709,0.72935 -1.4858,0.45926 -2.985,1.13459 -4.4977,2.02598 -1.4857,0.86446 -2.9174,1.91796 -4.2951,3.16053 -1.3506,1.21562 -2.4852,2.57978 -3.4036,4.09249 l 0,10.37302 c 0,0.35119 0.013,0.81041 0.04,1.37767 0.054,0.54027 0.1215,1.14807 0.2026,1.82338 0.081,0.67534 0.1756,1.39119 0.2836,2.14754 0.1351,0.75638 0.2701,1.49924 0.4052,2.22858 0.2161,1.13456 0.4727,2.21508 0.7699,3.24157 0.2971,1.0265 0.4457,1.98547 0.4457,2.87689 0,0.62131 -0.027,1.21559 -0.081,1.78287 -0.054,0.56727 -0.2026,1.06701 -0.4457,1.49922 -0.2162,0.4052 -0.5673,0.72936 -1.0535,0.97247 -0.4863,0.24312 -1.1616,0.36468 -2.026,0.36468 -0.5673,0 -1.1481,-0.054 -1.7424,-0.16208 -0.5943,-0.081 -1.148,-0.28364 -1.6613,-0.60779 -0.4862,-0.32416 -0.8914,-0.79689 -1.2156,-1.41819 -0.3241,-0.64831 -0.4862,-1.51273 -0.4862,-2.59326"
             style="font-variant:normal;font-stretch:normal;font-family:Short Stack;-inkscape-font-specification:Short Stack"
             id="path6797" />
        </g>
        <g
           transform="matrix(0.73890697,0,0,0.73890697,-10365.313,380.64153)"
           id="layer1-5-5"
           inkscape:label="Capa 1">
          <text
             sodipodi:linespacing="125%"
             id="text3197-9"
             y="535.85278"
             x="3592.4868"
             style="font-size:430.46691895px;font-style:normal;font-variant:normal;font-weight:bold;font-stretch:normal;text-align:start;line-height:125%;letter-spacing:0px;word-spacing:0px;writing-mode:lr-tb;text-anchor:start;fill:#ffffff;fill-opacity:1;stroke:none;font-family:Rudiment;-inkscape-font-specification:Rudiment Bold"
             xml:space="preserve"
             inkscape:export-filename="/home/david/work/pipo/textures/abeja.png"
             inkscape:export-xdpi="90"
             inkscape:export-ydpi="90"><tspan
               style="font-style:normal;font-weight:500;fill:#ffffff;-inkscape-font-specification:Rudiment Medium"
               y="535.85278"
               x="3592.4868"
               id="tspan3199-5"
               sodipodi:role="line" /></text>
          <text
             sodipodi:linespacing="125%"
             id="text3197-5-9"
             y="626.41736"
             x="1691.156"
             style="font-size:430.46691895px;font-style:normal;font-variant:normal;font-weight:bold;font-stretch:normal;text-align:start;line-height:125%;letter-spacing:0px;word-spacing:0px;writing-mode:lr-tb;text-anchor:start;fill:#ffffff;fill-opacity:1;stroke:none;font-family:Rudiment;-inkscape-font-specification:Rudiment Bold"
             xml:space="preserve"
             inkscape:export-filename="/home/david/work/pipo/textures/abeja.png"
             inkscape:export-xdpi="90"
             inkscape:export-ydpi="90"><tspan
               style="font-style:normal;font-weight:500;fill:#ffffff;-inkscape-font-specification:Rudiment Medium"
               y="626.41736"
               x="1691.156"
               id="tspan3199-9-18"
               sodipodi:role="line" /></text>
          <text
             sodipodi:linespacing="125%"
             id="text3197-6-8"
             y="274.43268"
             x="3083.7539"
             style="font-size:430.46691895px;font-style:normal;font-variant:normal;font-weight:bold;font-stretch:normal;text-align:start;line-height:125%;letter-spacing:0px;word-spacing:0px;writing-mode:lr-tb;text-anchor:start;fill:#ffffff;fill-opacity:1;stroke:none;font-family:Rudiment;-inkscape-font-specification:Rudiment Bold"
             xml:space="preserve"
             inkscape:export-filename="/home/david/work/pipo/textures/abeja.png"
             inkscape:export-xdpi="90"
             inkscape:export-ydpi="90"><tspan
               style="font-style:normal;font-weight:500;fill:#ffffff;-inkscape-font-specification:Rudiment Medium"
               y="274.43268"
               x="3083.7539"
               id="tspan3199-97-72"
               sodipodi:role="line" /></text>
          <g
             transform="translate(1373.8075,-501.03566)"
             id="g5899">
            <path
               style="fill:url(#linearGradient10582);fill-opacity:1;stroke:#000000;stroke-width:6.80000019;stroke-linejoin:bevel;stroke-miterlimit:4;stroke-dasharray:none"
               d="m -582.74312,997.10017 -10.40625,19.18753 -3,-18.96878 -10.34375,20.06248 -2.96875,-20.12498 -11.15625,22.03128 -5.6875,-20.56253 -9.21875,23.37503 -7.4063,-22 -8.2812,25.75 -8.375,-20.2813 -8.1563,25 -3.3437,4.6563 -37.75,-17.7813 16.0312,38.9063 c -0.568,-0.032 -1.1427,-0.031 -1.7187,-0.031 -16.7353,0 -30.3125,13.546 -30.3125,30.2812 0,6.113 1.824,11.8019 4.9375,16.5625 l -40.2188,55.9375 0.2188,0 0.1562,0 c 101.0306,-0.2844 213.96541,-1.1898 308.4063,-1.7812 l 24.90625,0.625 -24.84375,-6.8438 5.3125,-0.1875 -5.46875,-6.2812 4.21875,-0.1563 -4.6875,-6.5312 5.125,-0.1875 -5.84375,-6.7188 5.71875,-0.1875 -6.78125,-6.8437 6.28125,-0.3125 -7.65625,-6.8125 7.625,-0.2813 -9.34375,-6.9375 8.375,-1.7187 -10.46875,-5.5 7.875,-1.4688 -10.375,-5.75 7.3125,-2.6875 -10.1875,-4.4375 8.1875,-1.8437 -11.46875,-5.2188 8.15625,-2.5 -11.90625,-4.375 9.53125,-2.75 -13.75,-3.9687 11.3125,-3.0625 -15.96875,-3.4375 9.1875,-5.1563 -14.375,-1.0625 10.6875,-5.9687 -16.375,0.062 12.84375,-5.9375 -19.09375,0.4062 12.96875,-8.6562 -19.75,3.5 14.03125,-11.0625 -21.375,6.3437 11.8125,-14.3437 -19.78125,10.0937 10.875,-15.3125 -19.4375,11.5625 9,-15.375 -18.1875,12.2188 8.65625,-16.5313 -18.46875,13.9688 6.09375,-17.5625 -16.625,15.6562 3.65625,-17 -14.84375,15.75 0.625,-18.18748 -12.5,17.68748 z"
               id="path4190"
               inkscape:connector-curvature="0"
               sodipodi:nodetypes="cccccccccccccccsscccccccccccccccccccccccccccccccccccccccccccccccccccccccccc" />
            <path
               inkscape:transform-center-y="-9.818417"
               inkscape:transform-center-x="11.882331"
               inkscape:connector-curvature="0"
               id="path3346"
               d="m -687.77777,1068.6225 -21.0738,-51.1894 47.4925,22.3599"
               style="fill:url(#linearGradient10584);fill-opacity:1;stroke:none" />
            <path
               inkscape:transform-center-y="-7.8147745"
               style="fill:#f4d7d7;stroke:none"
               d="m -683.88397,1063.5309 -13.7586,-33.4204 31.0068,14.5983"
               id="path3348"
               inkscape:connector-curvature="0"
               inkscape:transform-center-x="7.5107695" />
            <path
               style="fill:url(#radialGradient10586);fill-opacity:1;stroke:none"
               d="m -760.11507,1159.0919 92.3789,-128.5089 8.1375,-25.0222 8.3771,20.2946 8.2843,-25.7557 7.41298,22.0048 9.22137,-23.38661 5.67753,20.57071 11.17181,-22.0423 2.94746,20.1198 10.34285,-20.04948 3.01561,18.97868 10.4157,-19.19292 2.20075,18.93242 12.50592,-17.68796 -0.61267,18.19596 14.82863,-15.7575 -3.63978,16.9924 16.603,-15.6327 -6.09973,17.553 18.4983,-13.9671 -8.66182,16.5311 18.17197,-12.2106 -8.98345,15.3767 19.41677,-11.5905 -10.85743,15.3171 19.77858,-10.0988 -11.82959,14.3443 21.37685,-6.3411 -14.01942,11.0638 19.74949,-3.4965 -12.9648,8.6549 19.07973,-0.3939 -12.84898,5.9464 16.39925,-0.082 -10.70363,5.9866 14.39218,1.0637 -9.21288,5.152 15.98235,3.4345 -11.30057,3.0504 13.74391,3.9862 -9.54085,2.7263 11.92281,4.3864 -8.17964,2.5121 11.4768,5.1984 -8.17473,1.8445 10.16827,4.4302 -7.2885,2.7154 10.35859,5.7281 -7.88229,1.4786 10.47941,5.5064 -8.38779,1.7199 9.34757,6.9204 -7.62182,0.2838 7.67297,6.8149 -6.29428,0.3256 6.79657,6.8463 -5.74614,0.1889 5.85071,6.6992 -5.10972,0.189 4.67759,6.5313 -4.22725,0.1685 5.48589,6.2636 -5.30733,0.206 24.84013,6.8428 -24.91483,-0.645 z"
               id="path3319-1"
               inkscape:connector-curvature="0"
               sodipodi:nodetypes="ccccccccccccccccccccccccccccccccccccccccccccccccccccccccccccccccccc" />
            <path
               sodipodi:type="arc"
               style="fill:#ffffff;fill-opacity:1;stroke:none"
               id="path3249-2"
               sodipodi:cx="-510.12704"
               sodipodi:cy="962.45862"
               sodipodi:rx="61.619305"
               sodipodi:ry="61.619305"
               d="m -448.50774,962.45862 c 0,34.0314 -27.5879,61.61928 -61.6193,61.61928 -34.03141,0 -61.61931,-27.58788 -61.61931,-61.61928 0,-34.0314 27.5879,-61.61931 61.61931,-61.61931 34.0314,0 61.6193,27.58791 61.6193,61.61931 z"
               transform="matrix(0.49175932,0,0,0.49175932,-443.66512,613.31093)"
               inkscape:export-filename="/home/david/work/pipo/textures/abeja.png"
               inkscape:export-xdpi="90"
               inkscape:export-ydpi="90" />
            <path
               sodipodi:type="arc"
               style="fill:#ffffff;fill-opacity:1;stroke:none"
               id="path3256"
               sodipodi:cx="-334.3605"
               sodipodi:cy="972.56012"
               sodipodi:rx="63.63961"
               sodipodi:ry="63.63961"
               d="m -270.72089,972.56012 c 0,35.14718 -28.49243,63.63958 -63.63961,63.63958 -35.14719,0 -63.63961,-28.4924 -63.63961,-63.63958 0,-35.14719 28.49242,-63.63961 63.63961,-63.63961 35.14718,0 63.63961,28.49242 63.63961,63.63961 z"
               transform="matrix(0.49903583,0,0,0.49903583,-458.1858,602.34355)"
               inkscape:export-filename="/home/david/work/pipo/textures/abeja.png"
               inkscape:export-xdpi="90"
               inkscape:export-ydpi="90" />
            <path
               d="m -448.50774,962.45862 c 0,34.0314 -27.5879,61.61928 -61.6193,61.61928 -34.03141,0 -61.61931,-27.58788 -61.61931,-61.61928 0,-34.0314 27.5879,-61.61931 61.61931,-61.61931 34.0314,0 61.6193,27.58791 61.6193,61.61931 z"
               sodipodi:ry="61.619305"
               sodipodi:rx="61.619305"
               sodipodi:cy="962.45862"
               sodipodi:cx="-510.12704"
               id="path3260"
               style="fill:#000000;fill-opacity:1;stroke:none"
               sodipodi:type="arc"
               transform="matrix(0.29571738,0,0,0.29571738,-532.71113,805.03492)"
               inkscape:export-filename="/home/david/work/pipo/textures/abeja.png"
               inkscape:export-xdpi="90"
               inkscape:export-ydpi="90" />
            <path
               transform="matrix(0.29571738,0,0,0.29571738,-538.22543,802.2644)"
               d="m -270.72089,972.56012 c 0,35.14718 -28.49243,63.63958 -63.63961,63.63958 -35.14719,0 -63.63961,-28.4924 -63.63961,-63.63958 0,-35.14719 28.49242,-63.63961 63.63961,-63.63961 35.14718,0 63.63961,28.49242 63.63961,63.63961 z"
               sodipodi:ry="63.63961"
               sodipodi:rx="63.63961"
               sodipodi:cy="972.56012"
               sodipodi:cx="-334.3605"
               id="path3262"
               style="fill:#000000;fill-opacity:1;stroke:none"
               sodipodi:type="arc"
               inkscape:export-filename="/home/david/work/pipo/textures/abeja.png"
               inkscape:export-xdpi="90"
               inkscape:export-ydpi="90" />
            <path
               style="fill:#000000;stroke:none"
               d="m -748.95977,1144.1438 -10.9322,14.948 16.5098,-0.2231 z"
               id="path3321-3"
               inkscape:connector-curvature="0" />
            <path
               style="fill:none;stroke:#000000;stroke-width:1.82500005;stroke-linecap:butt;stroke-linejoin:miter;stroke-miterlimit:4;stroke-opacity:1;stroke-dasharray:none"
               d="m -737.58137,1157.5301 c 147.43008,-1.4979 190.99675,-28.6825 172.6838,-71.1707"
               id="path3324"
               inkscape:connector-curvature="0"
               sodipodi:nodetypes="cc" />
            <path
               style="fill:#625971;fill-opacity:1;stroke:#000000;stroke-width:1.82500005;stroke-miterlimit:4;stroke-dasharray:none"
               d="m -595.25499,1051.1322 49.39654,-24.989 -18.6007,49.0868"
               id="path3326"
               inkscape:connector-curvature="0"
               inkscape:transform-center-x="-7.8383605"
               inkscape:transform-center-y="-13.730005" />
            <path
               inkscape:transform-center-x="-6.5369855"
               inkscape:connector-curvature="0"
               id="path3328"
               d="m -589.87615,1054.6184 32.24989,-16.3147 -12.14397,32.0477"
               style="fill:#f4d7d7;stroke:none"
               inkscape:transform-center-y="-8.8269995" />
            <path
               style="fill:url(#linearGradient10588);fill-opacity:1;stroke:#000000;stroke-width:1.82500005;stroke-linecap:butt;stroke-linejoin:miter;stroke-miterlimit:4;stroke-opacity:1;stroke-dasharray:none"
               d="m -555.56326,1139.1972 c -29.0773,0.5557 -38.36883,-0.3732 -38.03952,16.1751 -0.229,3.9653 1.67973,4.1895 3.7916,4.0583 l 34.24792,-0.6001"
               id="path3372"
               inkscape:connector-curvature="0"
               sodipodi:nodetypes="cccc" />
            <path
               style="fill:none;stroke:#000000;stroke-width:1.82500005;stroke-linecap:butt;stroke-linejoin:miter;stroke-miterlimit:4;stroke-opacity:1;stroke-dasharray:none"
               d="m -586.24029,1159.2767 0,-11.1553"
               id="path3374"
               inkscape:connector-curvature="0" />
            <path
               inkscape:connector-curvature="0"
               id="path3376"
               d="m -574.63879,1159.2767 0,-11.1553"
               style="fill:none;stroke:#000000;stroke-width:1.82500005;stroke-linecap:butt;stroke-linejoin:miter;stroke-miterlimit:4;stroke-opacity:1;stroke-dasharray:none" />
            <path
               sodipodi:nodetypes="cccc"
               inkscape:connector-curvature="0"
               id="path3386"
               d="m -486.84669,1139.1972 c -29.0773,0.5557 -38.36884,-0.3732 -38.03953,16.1751 -0.229,3.9653 1.67973,4.1895 3.7916,4.0583 l 34.24793,-0.6001"
               style="fill:url(#linearGradient10590);fill-opacity:1;stroke:#000000;stroke-width:1.82500005;stroke-linecap:butt;stroke-linejoin:miter;stroke-miterlimit:4;stroke-opacity:1;stroke-dasharray:none" />
            <path
               inkscape:connector-curvature="0"
               id="path3388"
               d="m -517.52373,1159.2767 0,-11.1553"
               style="fill:none;stroke:#000000;stroke-width:1.82500005;stroke-linecap:butt;stroke-linejoin:miter;stroke-miterlimit:4;stroke-opacity:1;stroke-dasharray:none" />
            <path
               style="fill:none;stroke:#000000;stroke-width:1.82500005;stroke-linecap:butt;stroke-linejoin:miter;stroke-miterlimit:4;stroke-opacity:1;stroke-dasharray:none"
               d="m -505.92223,1159.2767 0,-11.1553"
               id="path3390"
               inkscape:connector-curvature="0" />
          </g>
        </g>
        <g
           transform="translate(-10135.642,-18.057615)"
           id="layer1-6"
           inkscape:label="Capa 1"
           style="fill:#ffffff">
          <path
             inkscape:connector-curvature="0"
             id="path3235-3"
             d="m 406.55973,146.20289 c -8.4763,-0.029 -16.4743,2.343 -23.9062,4.9376 -9.9092,3.4594 -19.132,7.3543 -27.5,8.4687 -59.487,7.9226 -120.2579,7.3625 -181.0938,8.9375 -9.6696,0.2502 -17.5104,4.2304 -21.0937,10.8438 -3.5833,6.6132 -2.8225,14.0357 -0.4687,20.5937 2.3539,6.5581 6.4422,12.6615 11.625,17.4687 5.1828,4.8072 11.6215,8.5149 19.0937,8.5313 37.2471,0.085 73.6954,-6.0364 109.2187,-6.125 -0.6112,0.3083 -1.1238,0.488 -1.75,0.8125 -13.591,7.041 -19.3718,20.7426 -18.8437,32.7812 0.2641,6.0193 1.9913,11.8141 5.375,16.5626 3.3837,4.7484 8.7529,8.4423 15.1563,9.0624 3.2936,0.3191 6.4116,0.6675 9.5624,1 -0.3111,5.5579 -2.2817,40.9779 -4.2812,85.2188 -0.5374,11.887 2.1948,21.152 7.9062,27.25 5.7113,6.0979 13.9177,8.13 21.375,7.2188 14.9145,-1.8226 29.3007,-13.657 31.6876,-30.4688 1.2832,-9.0379 2.2374,-17.6673 3,-25.75 l 53.7812,-29.0312 c 3.1585,2.4102 6.3699,4.8805 9.625,7.3124 12.8957,9.6349 27.3439,18.8638 45,17.5626 11.8835,-0.8758 21.872,-9.1995 30.1562,-16.625 5.9817,-5.3616 9.8635,-9.6454 12.0938,-12.1563 l 23.8438,0 a 7.1202884,7.1202884 0 1 0 0,-14.2187 l -27,0 a 7.1202884,7.1202884 0 0 0 -5.4376,2.5 c 0,0 -5.5811,6.5722 -13.0312,13.25 -7.4501,6.6777 -17.2586,12.7384 -21.6562,13.0624 -12.0589,0.8887 -23.1837,-5.6259 -35.4376,-14.7812 -12.2538,-9.1554 -24.9821,-20.6733 -40.9062,-26.25 -31.8767,-11.1637 -61.0571,-15.6148 -98.9062,-19.2812 -2.0209,-0.1957 -3.4691,-1.0953 -4.9376,-3.1563 -1.4686,-2.0609 -2.592,-5.3033 -2.75,-8.9063 -0.3161,-7.2057 2.7535,-15.1617 11.1876,-19.5312 15.0888,-7.8173 23.2229,-9.6908 30.75,-9.5625 7.5271,0.1284 15.5316,2.6999 28.7187,4.875 a 7.1202884,7.1202884 0 0 0 1.0937,0.094 c 4.1261,0.045 11.9342,2.3635 20.4688,5.9376 8.5346,3.5741 17.9821,8.1961 27,12.1562 9.0179,3.96 17.4005,7.3787 25.3125,8.1562 3.956,0.3888 8.1252,0.1608 11.9687,-2.1562 3.8435,-2.3171 6.3589,-6.7835 7,-11.3125 a 7.1202884,7.1202884 0 0 0 -5.75,-8 c -57.2073,-10.601 -84.0045,-23.3639 -128.5312,-27.0937 -45.0735,-3.7757 -89.187,5.4726 -132.0312,5.375 -2.3802,-0.01 -6.0225,-1.5824 -9.4376,-4.75 -3.4152,-3.1676 -6.4224,-7.7098 -7.9062,-11.8438 -1.4838,-4.1341 -1.2829,-7.4397 -0.4375,-9 0.8454,-1.5604 2.4372,-3.206 8.9687,-3.375 60.4982,-1.5663 121.7686,-0.9616 182.5938,-9.0625 11.1183,-1.4806 21.0932,-5.9377 30.3125,-9.1563 9.2193,-3.2185 17.3571,-5.1669 24.875,-3.5624 12.4441,2.6555 31.3593,15.9417 46.0937,28.7812 14.7344,12.8394 25.75,24.875 25.75,24.875 a 7.1202884,7.1202884 0 0 0 3.9376,2.1875 l 37.7812,7.2187 a 7.1278092,7.1278092 0 1 0 2.6875,-14 l -35.5937,-6.7812 c -2.1842,-2.3564 -11.4845,-12.3092 -25.1876,-24.25 -15.4143,-13.432 -34.3064,-28.0551 -52.5,-31.9375 -2.9269,-0.6246 -5.7996,-0.8967 -8.625,-0.9063 z m -90.4374,135.4688 c 11.9205,1.4825 22.9886,3.2204 33.7187,5.4375 a 7.1202884,7.1202884 0 0 0 0.0313,0.4063 c 0,0 0.0579,2.0654 0.0624,5.5 a 7.1224198,7.1224198 0 0 0 -0.0312,1.9687 c -0.033,8.0895 -0.3444,22.2359 -1.8125,40.1563 a 7.1242457,7.1242457 0 0 0 -0.75,8.5312 c -0.7239,7.4435 -1.6388,15.3582 -2.8125,23.625 -1.3031,9.1782 -11.2626,17.3288 -19.3125,18.3125 -4.0249,0.4919 -6.9416,-0.3479 -9.25,-2.8125 -2.3084,-2.4647 -4.5197,-7.4539 -4.0937,-16.875 1.9636,-43.4459 3.8857,-77.7557 4.25,-84.25 z m 61.2187,13.5625 c 7.479,2.7493 14.9694,5.6636 24.0937,10.625 l -38.4374,20.75 c 0.7295,-11.2608 0.9994,-20.5233 1.0937,-27.3437 l 13.25,-4.0313 z"
             style="font-size:medium;font-style:normal;font-variant:normal;font-weight:normal;font-stretch:normal;text-indent:0;text-align:start;text-decoration:none;line-height:normal;letter-spacing:normal;word-spacing:normal;text-transform:none;direction:ltr;block-progression:tb;writing-mode:lr-tb;text-anchor:start;baseline-shift:baseline;color:#000000;fill:#ffffff;fill-opacity:1;stroke:none;stroke-width:14.23915291;marker:none;visibility:visible;display:inline;overflow:visible;enable-background:accumulate;font-family:Sans;-inkscape-font-specification:Sans" />
        </g>
      </g>
      <rect
         y="16.503397"
         x="-15171.796"
         height="1027.4425"
         width="1023.3555"
         id="rect5661"
         style="fill:none;stroke:none" />
    </g>
  </g>
</svg>
