<?xml version="1.0" encoding="UTF-8" standalone="no"?>
<!-- Created with Inkscape (http://www.inkscape.org/) -->

<svg
   xmlns:dc="http://purl.org/dc/elements/1.1/"
   xmlns:cc="http://creativecommons.org/ns#"
   xmlns:rdf="http://www.w3.org/1999/02/22-rdf-syntax-ns#"
   xmlns:svg="http://www.w3.org/2000/svg"
   xmlns="http://www.w3.org/2000/svg"
   xmlns:xlink="http://www.w3.org/1999/xlink"
   xmlns:sodipodi="http://sodipodi.sourceforge.net/DTD/sodipodi-0.dtd"
   xmlns:inkscape="http://www.inkscape.org/namespaces/inkscape"
   width="1351.74"
   height="1351.7388"
   id="svg2"
   version="1.1"
   inkscape:version="0.48.3.1 r9886"
   sodipodi:docname="p.svg">
  <defs
     id="defs4">
    <linearGradient
       id="linearGradient3265-7"
       inkscape:collect="always">
      <stop
         id="stop3267-6"
         offset="0"
         style="stop-color:#a0692f;stop-opacity:1;" />
      <stop
         id="stop3269-0"
         offset="1"
         style="stop-color:#a0692f;stop-opacity:0;" />
    </linearGradient>
    <linearGradient
       inkscape:collect="always"
       xlink:href="#linearGradient3265-7"
       id="linearGradient4849"
       gradientUnits="userSpaceOnUse"
       gradientTransform="matrix(1.9601035,0,0,1.9601035,-1268.7026,1291.2843)"
       x1="1128.5424"
       y1="-358.21252"
       x2="1128.5"
       y2="-350.88782" />
    <linearGradient
       inkscape:collect="always"
       xlink:href="#linearGradient3265-7"
       id="linearGradient4855"
       gradientUnits="userSpaceOnUse"
       gradientTransform="matrix(-1.9601035,0,0,1.9601035,3084.4205,1291.2843)"
       x1="1128.5424"
       y1="-358.21252"
       x2="1128.5"
       y2="-350.88782" />
    <linearGradient
       id="linearGradient3265-7-8"
       inkscape:collect="always">
      <stop
         id="stop3267-6-3"
         offset="0"
         style="stop-color:#a0692f;stop-opacity:1;" />
      <stop
         id="stop3269-0-6"
         offset="1"
         style="stop-color:#a0692f;stop-opacity:0;" />
    </linearGradient>
    <linearGradient
       y2="-435.80673"
       x2="919.21014"
       y1="-434.2847"
       x1="987.61987"
       gradientTransform="matrix(0.64156397,0,0,0.64156397,-240.46334,1048.4872)"
       gradientUnits="userSpaceOnUse"
       id="linearGradient3738"
       xlink:href="#linearGradient4094-1"
       inkscape:collect="always" />
    <linearGradient
       id="linearGradient4094-1">
      <stop
         id="stop4096-9"
         offset="0"
         style="stop-color:#52676c;stop-opacity:1;" />
      <stop
         id="stop4098-2"
         offset="1"
         style="stop-color:#52676c;stop-opacity:0;" />
    </linearGradient>
    <linearGradient
       id="linearGradient3310"
       inkscape:collect="always">
      <stop
         id="stop3312"
         offset="0"
         style="stop-color:#0b2228;stop-opacity:1;" />
      <stop
         id="stop3314"
         offset="1"
         style="stop-color:#0b2228;stop-opacity:0;" />
    </linearGradient>
    <linearGradient
       id="linearGradient4122-9"
       inkscape:collect="always">
      <stop
         id="stop4124-7"
         offset="0"
         style="stop-color:#1c2224;stop-opacity:1;" />
      <stop
         id="stop4126-6"
         offset="1"
         style="stop-color:#1c2224;stop-opacity:0" />
    </linearGradient>
    <linearGradient
       inkscape:collect="always"
       xlink:href="#linearGradient3310"
       id="linearGradient6795"
       gradientUnits="userSpaceOnUse"
       x1="1748.3407"
       y1="-227.81718"
       x2="1759.3722"
       y2="-149.25218" />
    <linearGradient
       inkscape:collect="always"
       xlink:href="#linearGradient4122-9"
       id="linearGradient6814"
       gradientUnits="userSpaceOnUse"
       gradientTransform="matrix(0.76362355,0,0,0.76362355,-529.2141,788.2198)"
       x1="1627.4237"
       y1="-275.98389"
       x2="1568.8258"
       y2="-208.25383" />
    <linearGradient
       inkscape:collect="always"
       id="linearGradient4871">
      <stop
         style="stop-color:#241c1f;stop-opacity:0.37777778"
         offset="0"
         id="stop4873" />
      <stop
         style="stop-color:#241c1f;stop-opacity:0;"
         offset="1"
         id="stop4875" />
    </linearGradient>
    <radialGradient
       inkscape:collect="always"
       xlink:href="#linearGradient4871"
       id="radialGradient4631"
       gradientUnits="userSpaceOnUse"
       gradientTransform="matrix(1.6682146,1.6471163,-0.88417937,0.89550496,-1046.6412,-1706.4218)"
       cx="1014.4006"
       cy="-408.6366"
       fx="1014.4006"
       fy="-408.6366"
       r="120.84957" />
    <linearGradient
       y2="-341.95212"
       x2="1033.103"
       y1="-312.79977"
       x1="1033.9359"
       gradientUnits="userSpaceOnUse"
       id="linearGradient4392"
       xlink:href="#linearGradient3219"
       inkscape:collect="always" />
    <linearGradient
       y2="-341.95212"
       x2="1033.103"
       y1="-312.79977"
       x1="1033.9359"
       gradientUnits="userSpaceOnUse"
       id="linearGradient4390"
       xlink:href="#linearGradient3209"
       inkscape:collect="always" />
    <linearGradient
       inkscape:collect="always"
       id="linearGradient3219">
      <stop
         style="stop-color:#3e4837;stop-opacity:1"
         offset="0"
         id="stop3221" />
      <stop
         style="stop-color:#e5ffd5;stop-opacity:0;"
         offset="1"
         id="stop3223" />
    </linearGradient>
    <linearGradient
       id="linearGradient3209"
       inkscape:collect="always">
      <stop
         id="stop3211"
         offset="0"
         style="stop-color:#3e4837;stop-opacity:1" />
      <stop
         id="stop3213"
         offset="1"
         style="stop-color:#e5ffd5;stop-opacity:0;" />
    </linearGradient>
    <linearGradient
       y2="-299.90375"
       x2="1731.0365"
       y1="-347.02103"
       x1="1621.358"
       gradientTransform="matrix(1.3519879,0,0,1.3519879,-2458.2999,1401.0995)"
       gradientUnits="userSpaceOnUse"
       id="linearGradient4525"
       xlink:href="#linearGradient4136"
       inkscape:collect="always" />
    <linearGradient
       id="linearGradient4136"
       inkscape:collect="always">
      <stop
         id="stop4138"
         offset="0"
         style="stop-color:#000000;stop-opacity:1" />
      <stop
         id="stop4140"
         offset="1"
         style="stop-color:#2b1100;stop-opacity:0;" />
    </linearGradient>
    <linearGradient
       id="linearGradient3449"
       inkscape:collect="always">
      <stop
         id="stop3451"
         offset="0"
         style="stop-color:#000000;stop-opacity:1;" />
      <stop
         id="stop3453"
         offset="1"
         style="stop-color:#000000;stop-opacity:0;" />
    </linearGradient>
    <linearGradient
       id="linearGradient4233"
       inkscape:collect="always">
      <stop
         id="stop4235"
         offset="0"
         style="stop-color:#000000;stop-opacity:1;" />
      <stop
         id="stop4237"
         offset="1"
         style="stop-color:#000000;stop-opacity:0;" />
    </linearGradient>
    <linearGradient
       id="linearGradient4283"
       inkscape:collect="always">
      <stop
         id="stop4285"
         offset="0"
         style="stop-color:#2b1100;stop-opacity:1;" />
      <stop
         id="stop4287"
         offset="1"
         style="stop-color:#2b1100;stop-opacity:0;" />
    </linearGradient>
    <linearGradient
       inkscape:collect="always"
       xlink:href="#linearGradient4283"
       id="linearGradient6031"
       gradientUnits="userSpaceOnUse"
       gradientTransform="translate(-2538.9898,1459.867)"
       x1="503.56857"
       y1="-348.85837"
       x2="512.40308"
       y2="-335.29108" />
    <linearGradient
       inkscape:collect="always"
       xlink:href="#linearGradient3449"
       id="linearGradient6033"
       gradientUnits="userSpaceOnUse"
       gradientTransform="translate(-2538.9898,1459.867)"
       x1="535.43597"
       y1="-304.05469"
       x2="522.1842"
       y2="-302.79257" />
    <linearGradient
       inkscape:collect="always"
       xlink:href="#linearGradient4233"
       id="linearGradient6035"
       gradientUnits="userSpaceOnUse"
       gradientTransform="translate(-2538.9898,1459.867)"
       x1="492.84091"
       y1="-285.43903"
       x2="581.34399"
       y2="-291.27615" />
    <linearGradient
       id="linearGradient4817"
       inkscape:collect="always">
      <stop
         id="stop4819"
         offset="0"
         style="stop-color:#917c6f;stop-opacity:1;" />
      <stop
         id="stop4821"
         offset="1"
         style="stop-color:#2b1100;stop-opacity:1" />
    </linearGradient>
    <linearGradient
       inkscape:collect="always"
       id="linearGradient5172">
      <stop
         style="stop-color:#502d16;stop-opacity:1;"
         offset="0"
         id="stop5174" />
      <stop
         style="stop-color:#917c6f;stop-opacity:1"
         offset="1"
         id="stop5176" />
    </linearGradient>
    <linearGradient
       id="linearGradient5181">
      <stop
         id="stop5183"
         offset="0"
         style="stop-color:#907b6e;stop-opacity:1" />
      <stop
         style="stop-color:#7a6356;stop-opacity:1;"
         offset="0.75249761"
         id="stop5191" />
      <stop
         style="stop-color:#644c3e;stop-opacity:1;"
         offset="0.812451"
         id="stop5189" />
      <stop
         id="stop5185"
         offset="1"
         style="stop-color:#381e0e;stop-opacity:1" />
    </linearGradient>
    <linearGradient
       inkscape:collect="always"
       id="linearGradient5193">
      <stop
         style="stop-color:#826c5f;stop-opacity:1"
         offset="0"
         id="stop5195" />
      <stop
         style="stop-color:#502d16;stop-opacity:1"
         offset="1"
         id="stop5197" />
    </linearGradient>
    <linearGradient
       inkscape:collect="always"
       xlink:href="#linearGradient4817"
       id="linearGradient5870"
       gradientUnits="userSpaceOnUse"
       gradientTransform="matrix(0.89679722,0,0,0.89679722,-2045.7805,1424)"
       x1="660.06604"
       y1="-501.25412"
       x2="616.52441"
       y2="-327.7186" />
    <linearGradient
       inkscape:collect="always"
       xlink:href="#linearGradient5181"
       id="linearGradient5872"
       gradientUnits="userSpaceOnUse"
       gradientTransform="translate(-1159.9752,1449.158)"
       x1="-276.65112"
       y1="-462.97198"
       x2="-282.89807"
       y2="-279.57907" />
    <linearGradient
       inkscape:collect="always"
       xlink:href="#linearGradient5172"
       id="linearGradient5874"
       gradientUnits="userSpaceOnUse"
       gradientTransform="matrix(0.89679722,0,0,0.89679722,-2045.7805,1424)"
       x1="533.96741"
       y1="-432.47049"
       x2="555.86011"
       y2="-240.41187" />
    <linearGradient
       inkscape:collect="always"
       xlink:href="#linearGradient4817"
       id="linearGradient5876"
       gradientUnits="userSpaceOnUse"
       gradientTransform="matrix(0.82173933,0,0,0.82173933,-2014.5348,1366.3891)"
       x1="626.62103"
       y1="-258.30438"
       x2="602.01056"
       y2="-402.81216" />
    <linearGradient
       inkscape:collect="always"
       xlink:href="#linearGradient5193"
       id="linearGradient5878"
       gradientUnits="userSpaceOnUse"
       gradientTransform="matrix(0.89679722,0,0,0.89679722,-2020.1702,1428.0016)"
       x1="564.45752"
       y1="-396.48645"
       x2="567.13477"
       y2="-318.39944" />
    <linearGradient
       id="linearGradient3338"
       inkscape:collect="always">
      <stop
         id="stop3340"
         offset="0"
         style="stop-color:#beb7c8;stop-opacity:1;" />
      <stop
         id="stop3342"
         offset="1"
         style="stop-color:#5d536c;stop-opacity:1" />
    </linearGradient>
    <linearGradient
       inkscape:collect="always"
       id="linearGradient3360">
      <stop
         style="stop-color:#474052;stop-opacity:1"
         offset="0"
         id="stop3362" />
      <stop
         style="stop-color:#5d536c;stop-opacity:1"
         offset="1"
         id="stop3364" />
    </linearGradient>
    <linearGradient
       inkscape:collect="always"
       id="linearGradient3380">
      <stop
         style="stop-color:#857c92;stop-opacity:1"
         offset="0"
         id="stop3382" />
      <stop
         style="stop-color:#5d536c;stop-opacity:1"
         offset="1"
         id="stop3384" />
    </linearGradient>
    <linearGradient
       id="linearGradient3394"
       inkscape:collect="always">
      <stop
         id="stop3396"
         offset="0"
         style="stop-color:#675d76;stop-opacity:1" />
      <stop
         id="stop3398"
         offset="1"
         style="stop-color:#5d536c;stop-opacity:1" />
    </linearGradient>
    <linearGradient
       inkscape:collect="always"
       xlink:href="#linearGradient3394"
       id="linearGradient5534"
       gradientUnits="userSpaceOnUse"
       gradientTransform="translate(-1035.7984,1460.497)"
       x1="548.9787"
       y1="-310.0397"
       x2="511.74536"
       y2="-309.25769" />
    <linearGradient
       inkscape:collect="always"
       xlink:href="#linearGradient3380"
       id="linearGradient5539"
       gradientUnits="userSpaceOnUse"
       gradientTransform="translate(-1104.5149,1460.497)"
       x1="549.00745"
       y1="-310.31183"
       x2="511.80453"
       y2="-309.47519" />
    <radialGradient
       inkscape:collect="always"
       xlink:href="#linearGradient3338"
       id="radialGradient5551"
       gradientUnits="userSpaceOnUse"
       gradientTransform="matrix(0.51554821,-0.84568081,1.1288979,0.68820444,-643.46887,1694.073)"
       cx="423.07739"
       cy="-187.4471"
       fx="423.07739"
       fy="-187.4471"
       r="166.84651" />
    <linearGradient
       inkscape:collect="always"
       xlink:href="#linearGradient3360"
       id="linearGradient5555"
       gradientUnits="userSpaceOnUse"
       gradientTransform="translate(-1124.2237,1458.7504)"
       x1="452.13895"
       y1="-403.7587"
       x2="425.63535"
       y2="-424.26743" />
    <linearGradient
       inkscape:collect="always"
       xlink:href="#linearGradient3360"
       id="linearGradient5558"
       gradientUnits="userSpaceOnUse"
       gradientTransform="translate(-1124.2237,1458.7504)"
       x1="452.13895"
       y1="-403.7587"
       x2="425.63535"
       y2="-424.26743" />
    <linearGradient
       id="linearGradient4274">
      <stop
         id="stop4276"
         offset="0"
         style="stop-color:#241c1c;stop-opacity:1" />
      <stop
         style="stop-color:#483737;stop-opacity:1;"
         offset="0.15879123"
         id="stop4286" />
      <stop
         style="stop-color:#544141;stop-opacity:1"
         offset="0.50204235"
         id="stop4282" />
      <stop
         id="stop4284"
         offset="0.75"
         style="stop-color:#483737;stop-opacity:1;" />
      <stop
         id="stop4278"
         offset="1"
         style="stop-color:#241c1c;stop-opacity:1" />
    </linearGradient>
    <linearGradient
       id="linearGradient4300"
       inkscape:collect="always">
      <stop
         id="stop4302"
         offset="0"
         style="stop-color:#513f3f;stop-opacity:1" />
      <stop
         id="stop4304"
         offset="1"
         style="stop-color:#916f6f;stop-opacity:1" />
    </linearGradient>
    <linearGradient
       id="linearGradient4338"
       inkscape:collect="always">
      <stop
         id="stop4340"
         offset="0"
         style="stop-color:#5a4545;stop-opacity:1" />
      <stop
         id="stop4342"
         offset="1"
         style="stop-color:#6c5353;stop-opacity:1" />
    </linearGradient>
    <linearGradient
       inkscape:collect="always"
       xlink:href="#linearGradient4338"
       id="linearGradient5824"
       gradientUnits="userSpaceOnUse"
       gradientTransform="matrix(1.1870923,0,0,1.1870923,557.10763,972.51967)"
       x1="506.36237"
       y1="-254.24303"
       x2="505.8338"
       y2="-219.35794" />
    <linearGradient
       inkscape:collect="always"
       xlink:href="#linearGradient4300"
       id="linearGradient5826"
       gradientUnits="userSpaceOnUse"
       gradientTransform="matrix(0.83444929,0,0,0.83444929,695.02334,866.91126)"
       x1="521.0072"
       y1="-422.45435"
       x2="521.0072"
       y2="-338.73444" />
    <linearGradient
       inkscape:collect="always"
       xlink:href="#linearGradient4274"
       id="linearGradient5828"
       gradientUnits="userSpaceOnUse"
       gradientTransform="matrix(0.83444929,0,0,0.83444929,741.18088,866.91126)"
       x1="536.79242"
       y1="-366.81332"
       x2="556.42566"
       y2="-324.86945" />
    <linearGradient
       y2="-301.63974"
       x2="535.34979"
       y1="-301.92004"
       x1="538.38654"
       gradientTransform="translate(-25.414983,34.384977)"
       gradientUnits="userSpaceOnUse"
       id="linearGradient5544"
       xlink:href="#linearGradient3146"
       inkscape:collect="always" />
    <filter
       height="1.0499389"
       y="-0.024969444"
       width="1.3299154"
       x="-0.16495769"
       id="filter3938"
       inkscape:collect="always"
       color-interpolation-filters="sRGB">
      <feGaussianBlur
         id="feGaussianBlur3940"
         stdDeviation="0.60368467"
         inkscape:collect="always" />
    </filter>
    <linearGradient
       id="linearGradient3146"
       inkscape:collect="always">
      <stop
         id="stop3148"
         offset="0"
         style="stop-color:#1c1c24;stop-opacity:1;" />
      <stop
         id="stop3150"
         offset="1"
         style="stop-color:#1c1c24;stop-opacity:0;" />
    </linearGradient>
    <linearGradient
       y2="-254.24301"
       x2="132.40479"
       y1="-254.24301"
       x1="159.62572"
       gradientTransform="translate(-47.042016,6.3427437)"
       gradientUnits="userSpaceOnUse"
       id="linearGradient4078"
       xlink:href="#linearGradient3139"
       inkscape:collect="always" />
    <linearGradient
       y2="-408.62561"
       x2="159.96489"
       y1="-417.59561"
       x1="192.85487"
       gradientTransform="translate(-63.427437,6.3427437)"
       gradientUnits="userSpaceOnUse"
       id="linearGradient4076"
       xlink:href="#linearGradient3117"
       inkscape:collect="always" />
    <linearGradient
       y2="-408.62561"
       x2="159.96489"
       y1="-417.59561"
       x1="192.85487"
       gradientTransform="matrix(1.6191115,1.2420631,-1.2420631,1.6191115,-653.89128,220.57021)"
       gradientUnits="userSpaceOnUse"
       id="linearGradient4074"
       xlink:href="#linearGradient3117"
       inkscape:collect="always" />
    <filter
       height="1.1221315"
       y="-0.061065737"
       width="1.2091677"
       x="-0.10458386"
       id="filter3915"
       inkscape:collect="always"
       color-interpolation-filters="sRGB">
      <feGaussianBlur
         id="feGaussianBlur3917"
         stdDeviation="2.0038655"
         inkscape:collect="always" />
    </filter>
    <linearGradient
       id="linearGradient3117"
       inkscape:collect="always">
      <stop
         id="stop3119"
         offset="0"
         style="stop-color:#aa4400;stop-opacity:1;" />
      <stop
         id="stop3121"
         offset="1"
         style="stop-color:#783000;stop-opacity:1" />
    </linearGradient>
    <linearGradient
       id="linearGradient3139"
       inkscape:collect="always">
      <stop
         id="stop3141"
         offset="0"
         style="stop-color:#2b1100;stop-opacity:1;" />
      <stop
         id="stop3143"
         offset="1"
         style="stop-color:#2b1100;stop-opacity:0;" />
    </linearGradient>
    <filter
       height="1.4686061"
       y="-0.23430306"
       width="1.4207194"
       x="-0.21035969"
       id="filter3967"
       inkscape:collect="always"
       color-interpolation-filters="sRGB">
      <feGaussianBlur
         id="feGaussianBlur3969"
         stdDeviation="5.8948044"
         inkscape:collect="always" />
    </filter>
    <linearGradient
       id="linearGradient3911"
       inkscape:collect="always">
      <stop
         id="stop3913"
         offset="0"
         style="stop-color:#241c1c;stop-opacity:1" />
      <stop
         id="stop3915"
         offset="1"
         style="stop-color:#784421;stop-opacity:0;" />
    </linearGradient>
    <linearGradient
       id="linearGradient3971"
       inkscape:collect="always">
      <stop
         id="stop3973"
         offset="0"
         style="stop-color:#917c6f;stop-opacity:1;" />
      <stop
         id="stop3975"
         offset="1"
         style="stop-color:#28170b;stop-opacity:1" />
    </linearGradient>
    <linearGradient
       inkscape:collect="always"
       xlink:href="#linearGradient3911"
       id="linearGradient3762"
       gradientUnits="userSpaceOnUse"
       gradientTransform="translate(0,-16.661873)"
       x1="519.29504"
       y1="-260.8017"
       x2="508.18713"
       y2="-300.37363" />
    <linearGradient
       inkscape:collect="always"
       xlink:href="#linearGradient3971"
       id="linearGradient3786"
       gradientUnits="userSpaceOnUse"
       gradientTransform="matrix(0.9140942,0,0,0.9140942,290.747,786.33643)"
       x1="441.53964"
       y1="-273.2981"
       x2="511.65836"
       y2="-286.14163" />
    <linearGradient
       id="linearGradient3578"
       inkscape:collect="always">
      <stop
         id="stop3580"
         offset="0"
         style="stop-color:#1f1c24;stop-opacity:1;" />
      <stop
         id="stop3582"
         offset="1"
         style="stop-color:#1f1c24;stop-opacity:0;" />
    </linearGradient>
    <linearGradient
       id="linearGradient3604"
       inkscape:collect="always">
      <stop
         id="stop3606"
         offset="0"
         style="stop-color:#211e26;stop-opacity:1;" />
      <stop
         id="stop3608"
         offset="1"
         style="stop-color:#211e26;stop-opacity:0;" />
    </linearGradient>
    <linearGradient
       inkscape:collect="always"
       xlink:href="#linearGradient3578"
       id="linearGradient3958"
       gradientUnits="userSpaceOnUse"
       gradientTransform="matrix(1.1100531,0,0,1.1100531,2863.0486,903.46763)"
       x1="-1887.6512"
       y1="-315.29987"
       x2="-1887.4778"
       y2="-254.37988" />
    <linearGradient
       inkscape:collect="always"
       xlink:href="#linearGradient3604"
       id="linearGradient3967"
       gradientUnits="userSpaceOnUse"
       gradientTransform="matrix(1.1100531,0,0,1.1100531,2931.5428,903.46763)"
       x1="-1801.6218"
       y1="-327.32669"
       x2="-1798.4309"
       y2="-249.51823" />
    <linearGradient
       inkscape:collect="always"
       xlink:href="#linearGradient3265-7-8"
       id="linearGradient6694"
       gradientUnits="userSpaceOnUse"
       gradientTransform="matrix(-1.9601035,0,0,1.9601035,3084.4205,1291.2843)"
       x1="1128.5424"
       y1="-358.21252"
       x2="1128.5"
       y2="-350.88782" />
    <linearGradient
       inkscape:collect="always"
       xlink:href="#linearGradient3265-7-8"
       id="linearGradient6696"
       gradientUnits="userSpaceOnUse"
       gradientTransform="matrix(1.9601035,0,0,1.9601035,-1268.7026,1291.2843)"
       x1="1128.5424"
       y1="-358.21252"
       x2="1128.5"
       y2="-350.88782" />
    <linearGradient
       inkscape:collect="always"
       xlink:href="#linearGradient3265-7-8"
       id="linearGradient9421"
       gradientUnits="userSpaceOnUse"
       gradientTransform="matrix(-1.9601035,0,0,1.9601035,3084.4205,1291.2843)"
       x1="1128.5424"
       y1="-358.21252"
       x2="1128.5"
       y2="-350.88782" />
    <linearGradient
       inkscape:collect="always"
       xlink:href="#linearGradient3265-7-8"
       id="linearGradient9423"
       gradientUnits="userSpaceOnUse"
       gradientTransform="matrix(1.9601035,0,0,1.9601035,-1268.7026,1291.2843)"
       x1="1128.5424"
       y1="-358.21252"
       x2="1128.5"
       y2="-350.88782" />
    <linearGradient
       inkscape:collect="always"
       xlink:href="#linearGradient4094-1"
       id="linearGradient9425"
       gradientUnits="userSpaceOnUse"
       gradientTransform="matrix(0.64156397,0,0,0.64156397,-240.46334,1048.4872)"
       x1="987.61987"
       y1="-434.2847"
       x2="919.21014"
       y2="-435.80673" />
    <linearGradient
       inkscape:collect="always"
       xlink:href="#linearGradient4122-9"
       id="linearGradient9427"
       gradientUnits="userSpaceOnUse"
       gradientTransform="matrix(0.76362355,0,0,0.76362355,-529.2141,788.2198)"
       x1="1627.4237"
       y1="-275.98389"
       x2="1568.8258"
       y2="-208.25383" />
    <linearGradient
       inkscape:collect="always"
       xlink:href="#linearGradient3310"
       id="linearGradient9429"
       gradientUnits="userSpaceOnUse"
       x1="1748.3407"
       y1="-227.81718"
       x2="1759.3722"
       y2="-149.25218" />
    <radialGradient
       inkscape:collect="always"
       xlink:href="#linearGradient4871"
       id="radialGradient9431"
       gradientUnits="userSpaceOnUse"
       gradientTransform="matrix(1.6682146,1.6471163,-0.88417937,0.89550496,-1046.6412,-1706.4218)"
       cx="1014.4006"
       cy="-408.6366"
       fx="1014.4006"
       fy="-408.6366"
       r="120.84957" />
    <linearGradient
       inkscape:collect="always"
       xlink:href="#linearGradient3209"
       id="linearGradient9433"
       gradientUnits="userSpaceOnUse"
       x1="1033.9359"
       y1="-312.79977"
       x2="1033.103"
       y2="-341.95212" />
    <linearGradient
       inkscape:collect="always"
       xlink:href="#linearGradient3219"
       id="linearGradient9435"
       gradientUnits="userSpaceOnUse"
       x1="1033.9359"
       y1="-312.79977"
       x2="1033.103"
       y2="-341.95212" />
    <linearGradient
       inkscape:collect="always"
       xlink:href="#linearGradient4136"
       id="linearGradient9437"
       gradientUnits="userSpaceOnUse"
       gradientTransform="matrix(1.3519879,0,0,1.3519879,-2458.2999,1401.0995)"
       x1="1621.358"
       y1="-347.02103"
       x2="1731.0365"
       y2="-299.90375" />
    <linearGradient
       inkscape:collect="always"
       xlink:href="#linearGradient4283"
       id="linearGradient9439"
       gradientUnits="userSpaceOnUse"
       gradientTransform="translate(-2538.9898,1459.867)"
       x1="503.56857"
       y1="-348.85837"
       x2="512.40308"
       y2="-335.29108" />
    <linearGradient
       inkscape:collect="always"
       xlink:href="#linearGradient3449"
       id="linearGradient9441"
       gradientUnits="userSpaceOnUse"
       gradientTransform="translate(-2538.9898,1459.867)"
       x1="535.43597"
       y1="-304.05469"
       x2="522.1842"
       y2="-302.79257" />
    <linearGradient
       inkscape:collect="always"
       xlink:href="#linearGradient4233"
       id="linearGradient9443"
       gradientUnits="userSpaceOnUse"
       gradientTransform="translate(-2538.9898,1459.867)"
       x1="492.84091"
       y1="-285.43903"
       x2="581.34399"
       y2="-291.27615" />
    <linearGradient
       inkscape:collect="always"
       xlink:href="#linearGradient4817"
       id="linearGradient9445"
       gradientUnits="userSpaceOnUse"
       gradientTransform="matrix(0.89679722,0,0,0.89679722,-2045.7805,1424)"
       x1="660.06604"
       y1="-501.25412"
       x2="616.52441"
       y2="-327.7186" />
    <linearGradient
       inkscape:collect="always"
       xlink:href="#linearGradient5181"
       id="linearGradient9447"
       gradientUnits="userSpaceOnUse"
       gradientTransform="translate(-1159.9752,1449.158)"
       x1="-276.65112"
       y1="-462.97198"
       x2="-282.89807"
       y2="-279.57907" />
    <linearGradient
       inkscape:collect="always"
       xlink:href="#linearGradient5172"
       id="linearGradient9449"
       gradientUnits="userSpaceOnUse"
       gradientTransform="matrix(0.89679722,0,0,0.89679722,-2045.7805,1424)"
       x1="533.96741"
       y1="-432.47049"
       x2="555.86011"
       y2="-240.41187" />
    <linearGradient
       inkscape:collect="always"
       xlink:href="#linearGradient4817"
       id="linearGradient9451"
       gradientUnits="userSpaceOnUse"
       gradientTransform="matrix(0.82173933,0,0,0.82173933,-2014.5348,1366.3891)"
       x1="626.62103"
       y1="-258.30438"
       x2="602.01056"
       y2="-402.81216" />
    <linearGradient
       inkscape:collect="always"
       xlink:href="#linearGradient5193"
       id="linearGradient9453"
       gradientUnits="userSpaceOnUse"
       gradientTransform="matrix(0.89679722,0,0,0.89679722,-2020.1702,1428.0016)"
       x1="564.45752"
       y1="-396.48645"
       x2="567.13477"
       y2="-318.39944" />
    <linearGradient
       inkscape:collect="always"
       xlink:href="#linearGradient3360"
       id="linearGradient9455"
       gradientUnits="userSpaceOnUse"
       gradientTransform="translate(-1124.2237,1458.7504)"
       x1="452.13895"
       y1="-403.7587"
       x2="425.63535"
       y2="-424.26743" />
    <linearGradient
       inkscape:collect="always"
       xlink:href="#linearGradient3360"
       id="linearGradient9457"
       gradientUnits="userSpaceOnUse"
       gradientTransform="translate(-1124.2237,1458.7504)"
       x1="452.13895"
       y1="-403.7587"
       x2="425.63535"
       y2="-424.26743" />
    <radialGradient
       inkscape:collect="always"
       xlink:href="#linearGradient3338"
       id="radialGradient9459"
       gradientUnits="userSpaceOnUse"
       gradientTransform="matrix(0.51554821,-0.84568081,1.1288979,0.68820444,-643.46887,1694.073)"
       cx="423.07739"
       cy="-187.4471"
       fx="423.07739"
       fy="-187.4471"
       r="166.84651" />
    <linearGradient
       inkscape:collect="always"
       xlink:href="#linearGradient3380"
       id="linearGradient9461"
       gradientUnits="userSpaceOnUse"
       gradientTransform="translate(-1104.5149,1460.497)"
       x1="549.00745"
       y1="-310.31183"
       x2="511.80453"
       y2="-309.47519" />
    <linearGradient
       inkscape:collect="always"
       xlink:href="#linearGradient3394"
       id="linearGradient9463"
       gradientUnits="userSpaceOnUse"
       gradientTransform="translate(-1035.7984,1460.497)"
       x1="548.9787"
       y1="-310.0397"
       x2="511.74536"
       y2="-309.25769" />
    <linearGradient
       inkscape:collect="always"
       xlink:href="#linearGradient4338"
       id="linearGradient9465"
       gradientUnits="userSpaceOnUse"
       gradientTransform="matrix(1.1870923,0,0,1.1870923,557.10763,972.51967)"
       x1="506.36237"
       y1="-254.24303"
       x2="505.8338"
       y2="-219.35794" />
    <linearGradient
       inkscape:collect="always"
       xlink:href="#linearGradient4300"
       id="linearGradient9467"
       gradientUnits="userSpaceOnUse"
       gradientTransform="matrix(0.83444929,0,0,0.83444929,695.02334,866.91126)"
       x1="521.0072"
       y1="-422.45435"
       x2="521.0072"
       y2="-338.73444" />
    <linearGradient
       inkscape:collect="always"
       xlink:href="#linearGradient4274"
       id="linearGradient9469"
       gradientUnits="userSpaceOnUse"
       gradientTransform="matrix(0.83444929,0,0,0.83444929,741.18088,866.91126)"
       x1="536.79242"
       y1="-366.81332"
       x2="556.42566"
       y2="-324.86945" />
    <linearGradient
       inkscape:collect="always"
       xlink:href="#linearGradient3146"
       id="linearGradient9471"
       gradientUnits="userSpaceOnUse"
       gradientTransform="translate(-25.414983,34.384977)"
       x1="538.38654"
       y1="-301.92004"
       x2="535.34979"
       y2="-301.63974" />
    <linearGradient
       inkscape:collect="always"
       xlink:href="#linearGradient3117"
       id="linearGradient9473"
       gradientUnits="userSpaceOnUse"
       gradientTransform="matrix(1.6191115,1.2420631,-1.2420631,1.6191115,-653.89128,220.57021)"
       x1="192.85487"
       y1="-417.59561"
       x2="159.96489"
       y2="-408.62561" />
    <linearGradient
       inkscape:collect="always"
       xlink:href="#linearGradient3117"
       id="linearGradient9475"
       gradientUnits="userSpaceOnUse"
       gradientTransform="translate(-63.427437,6.3427437)"
       x1="192.85487"
       y1="-417.59561"
       x2="159.96489"
       y2="-408.62561" />
    <linearGradient
       inkscape:collect="always"
       xlink:href="#linearGradient3139"
       id="linearGradient9477"
       gradientUnits="userSpaceOnUse"
       gradientTransform="translate(-47.042016,6.3427437)"
       x1="159.62572"
       y1="-254.24301"
       x2="132.40479"
       y2="-254.24301" />
    <linearGradient
       inkscape:collect="always"
       xlink:href="#linearGradient3971"
       id="linearGradient9479"
       gradientUnits="userSpaceOnUse"
       gradientTransform="matrix(0.9140942,0,0,0.9140942,290.747,786.33643)"
       x1="441.53964"
       y1="-273.2981"
       x2="511.65836"
       y2="-286.14163" />
    <linearGradient
       inkscape:collect="always"
       xlink:href="#linearGradient3911"
       id="linearGradient9481"
       gradientUnits="userSpaceOnUse"
       gradientTransform="translate(0,-16.661873)"
       x1="519.29504"
       y1="-260.8017"
       x2="508.18713"
       y2="-300.37363" />
    <linearGradient
       inkscape:collect="always"
       xlink:href="#linearGradient3604"
       id="linearGradient9483"
       gradientUnits="userSpaceOnUse"
       gradientTransform="matrix(1.1100531,0,0,1.1100531,2931.5428,903.46763)"
       x1="-1801.6218"
       y1="-327.32669"
       x2="-1798.4309"
       y2="-249.51823" />
    <linearGradient
       inkscape:collect="always"
       xlink:href="#linearGradient3578"
       id="linearGradient9485"
       gradientUnits="userSpaceOnUse"
       gradientTransform="matrix(1.1100531,0,0,1.1100531,2863.0486,903.46763)"
       x1="-1887.6512"
       y1="-315.29987"
       x2="-1887.4778"
       y2="-254.37988" />
    <linearGradient
       inkscape:collect="always"
       xlink:href="#linearGradient4338"
       id="linearGradient10592"
       gradientUnits="userSpaceOnUse"
       gradientTransform="matrix(1.1870923,0,0,1.1870923,557.10763,972.51967)"
       x1="506.36237"
       y1="-254.24303"
       x2="505.8338"
       y2="-219.35794" />
    <linearGradient
       inkscape:collect="always"
       xlink:href="#linearGradient4300"
       id="linearGradient10594"
       gradientUnits="userSpaceOnUse"
       gradientTransform="matrix(0.83444929,0,0,0.83444929,695.02334,866.91126)"
       x1="521.0072"
       y1="-422.45435"
       x2="521.0072"
       y2="-338.73444" />
    <linearGradient
       inkscape:collect="always"
       xlink:href="#linearGradient4274"
       id="linearGradient10596"
       gradientUnits="userSpaceOnUse"
       gradientTransform="matrix(0.83444929,0,0,0.83444929,741.18088,866.91126)"
       x1="536.79242"
       y1="-366.81332"
       x2="556.42566"
       y2="-324.86945" />
    <linearGradient
       inkscape:collect="always"
       xlink:href="#linearGradient3604"
       id="linearGradient10598"
       gradientUnits="userSpaceOnUse"
       gradientTransform="matrix(1.1100531,0,0,1.1100531,2931.5428,903.46763)"
       x1="-1801.6218"
       y1="-327.32669"
       x2="-1798.4309"
       y2="-249.51823" />
    <linearGradient
       inkscape:collect="always"
       xlink:href="#linearGradient3578"
       id="linearGradient10600"
       gradientUnits="userSpaceOnUse"
       gradientTransform="matrix(1.1100531,0,0,1.1100531,2863.0486,903.46763)"
       x1="-1887.6512"
       y1="-315.29987"
       x2="-1887.4778"
       y2="-254.37988" />
    <linearGradient
       inkscape:collect="always"
       xlink:href="#linearGradient3971"
       id="linearGradient10602"
       gradientUnits="userSpaceOnUse"
       gradientTransform="matrix(0.9140942,0,0,0.9140942,290.747,786.33643)"
       x1="441.53964"
       y1="-273.2981"
       x2="511.65836"
       y2="-286.14163" />
    <linearGradient
       inkscape:collect="always"
       xlink:href="#linearGradient3911"
       id="linearGradient10604"
       gradientUnits="userSpaceOnUse"
       gradientTransform="translate(0,-16.661873)"
       x1="519.29504"
       y1="-260.8017"
       x2="508.18713"
       y2="-300.37363" />
    <linearGradient
       inkscape:collect="always"
       xlink:href="#linearGradient3117"
       id="linearGradient10606"
       gradientUnits="userSpaceOnUse"
       gradientTransform="matrix(1.6191115,1.2420631,-1.2420631,1.6191115,-653.89128,220.57021)"
       x1="192.85487"
       y1="-417.59561"
       x2="159.96489"
       y2="-408.62561" />
    <linearGradient
       inkscape:collect="always"
       xlink:href="#linearGradient3117"
       id="linearGradient10608"
       gradientUnits="userSpaceOnUse"
       gradientTransform="translate(-63.427437,6.3427437)"
       x1="192.85487"
       y1="-417.59561"
       x2="159.96489"
       y2="-408.62561" />
    <linearGradient
       inkscape:collect="always"
       xlink:href="#linearGradient3139"
       id="linearGradient10610"
       gradientUnits="userSpaceOnUse"
       gradientTransform="translate(-47.042016,6.3427437)"
       x1="159.62572"
       y1="-254.24301"
       x2="132.40479"
       y2="-254.24301" />
    <linearGradient
       inkscape:collect="always"
       xlink:href="#linearGradient3146"
       id="linearGradient10612"
       gradientUnits="userSpaceOnUse"
       gradientTransform="translate(-25.414983,34.384977)"
       x1="538.38654"
       y1="-301.92004"
       x2="535.34979"
       y2="-301.63974" />
  </defs>
  <sodipodi:namedview
     id="base"
     pagecolor="#ffffff"
     bordercolor="#666666"
     borderopacity="1.0"
     inkscape:pageopacity="0.0"
     inkscape:pageshadow="2"
     inkscape:zoom="0.11225024"
     inkscape:cx="5424.8135"
     inkscape:cy="1009.3138"
     inkscape:document-units="px"
     inkscape:current-layer="layer1"
     showgrid="false"
     fit-margin-top="0"
     fit-margin-left="0"
     fit-margin-right="0"
     fit-margin-bottom="0"
     inkscape:window-width="1920"
     inkscape:window-height="1017"
     inkscape:window-x="0"
     inkscape:window-y="28"
     inkscape:window-maximized="1"
     showguides="true"
     inkscape:guide-bbox="true"
     inkscape:snap-grids="false"
     inkscape:snap-to-guides="false">
    <sodipodi:guide
       orientation="0,1"
       position="371.87981,1115.6394"
       id="guide6622" />
    <sodipodi:guide
       orientation="0,1"
       position="73.848474,189.89608"
       id="guide6624" />
    <sodipodi:guide
       orientation="1,0"
       position="363.96748,1521.806"
       id="guide6626" />
    <sodipodi:guide
       orientation="1,0"
       position="862.44468,1442.6827"
       id="guide6628" />
  </sodipodi:namedview>
  <metadata
     id="metadata7">
    <rdf:RDF>
      <cc:Work
         rdf:about="">
        <dc:format>image/svg+xml</dc:format>
        <dc:type
           rdf:resource="http://purl.org/dc/dcmitype/StillImage" />
        <dc:title></dc:title>
      </cc:Work>
    </rdf:RDF>
  </metadata>
  <g
     inkscape:label="Capa 1"
     inkscape:groupmode="layer"
     id="layer1"
     transform="translate(15278.44,186.36436)">
    <rect
       style="opacity:0.8;fill:#000000;fill-opacity:1;stroke:none"
       id="rect6564"
       width="23217.738"
       height="1351.7388"
       x="-15278.44"
       y="-186.36436" />
    <g
       id="g7569">
      <g
         transform="translate(-10000.079,-0.626883)"
         id="g7990">
        <g
           style="font-size:204.73330688px;font-style:normal;font-variant:normal;font-weight:normal;font-stretch:normal;line-height:125%;letter-spacing:0px;word-spacing:0px;fill:#ffffff;fill-opacity:1;stroke:none;font-family:Short Stack;-inkscape-font-specification:Short Stack"
           id="text3044-32">
          <path
             inkscape:connector-curvature="0"
             d="m -4807.3762,486.73014 c 0,-6.59777 0.8664,-12.86239 2.5992,-18.79388 1.7994,-5.9313 4.2652,-11.39618 7.3976,-16.39466 3.1323,-4.99826 6.831,-9.46346 11.0964,-13.39563 4.3318,-3.99858 9.0636,-7.36414 14.1953,-10.09671 5.1316,-2.79896 10.5632,-4.9316 16.2947,-6.39792 5.7314,-1.5327 11.5628,-2.29911 17.4943,-2.29925 6.3312,1.4e-4 12.4625,0.99981 18.394,2.99902 5.998,1.99948 11.6295,4.73193 16.8945,8.19733 5.2649,3.39902 10.0966,7.39771 14.4953,11.99609 4.3984,4.59862 8.1639,9.49702 11.2963,14.69522 3.1322,5.1984 5.5647,10.59664 7.2976,16.19472 1.7993,5.59826 2.699,11.06314 2.6992,16.39466 -2e-4,10.26338 -1.3331,19.22712 -3.9987,26.89124 -2.5993,7.6642 -6.1648,14.29537 -10.6965,19.89352 2.1991,2.33259 4.2651,4.66516 6.1979,6.99772 1.9992,2.33259 3.7653,4.53187 5.2983,6.59785 1.5327,2.066 2.7323,3.96538 3.5988,5.69815 0.9329,1.73276 1.3994,3.19895 1.3996,4.39856 -2e-4,2.06599 -0.6999,3.76544 -2.0993,5.09834 -1.3997,1.39954 -3.4324,2.09931 -6.098,2.09932 -0.8666,-10e-6 -1.9329,-0.0667 -3.199,-0.19994 -1.2664,-0.1333 -2.5327,-0.36655 -3.7988,-0.69977 -1.1997,-0.33323 -2.366,-0.79975 -3.4988,-1.39954 -1.0665,-0.53317 -1.8329,-1.26626 -2.2993,-2.19929 -0.3333,-0.46652 -1.3997,-1.9327 -3.1989,-4.39856 -1.7329,-2.46587 -4.0322,-5.49821 -6.8978,-9.09704 -6.398,3.9987 -13.3291,6.89775 -20.7932,8.69717 -7.3977,1.79941 -14.9619,2.69911 -22.6926,2.69912 -10.53,-10e-6 -19.9602,-1.69945 -28.2908,-5.09834 -8.3307,-3.39889 -15.395,-8.29729 -21.1931,-14.69522 -5.7981,-6.39789 -10.23,-14.16202 -13.2957,-23.29241 -3.0657,-9.19695 -4.5985,-19.56023 -4.5985,-31.08987 m 18.394,2.79909 c 0,8.33068 1.1663,15.86155 3.4989,22.59264 2.3992,6.73118 5.6648,12.46264 9.7968,17.1944 4.1986,4.66517 9.1303,8.26399 14.7952,10.79648 5.7314,2.53252 11.9627,3.79878 18.6939,3.79876 6.0646,2e-5 11.9627,-0.69975 17.6942,-2.09931 5.7314,-1.39953 11.063,-3.53217 15.9948,-6.39792 -3.4656,-3.93202 -7.1311,-7.73078 -10.9964,-11.39629 -3.7989,-3.73208 -7.6643,-7.09764 -11.5962,-10.09671 l 0,-2.99902 c -1e-4,-2.86568 0.4997,-5.13161 1.4995,-6.79779 0.9996,-1.73271 2.6657,-2.59909 4.9984,-2.59915 1.666,6e-5 3.532,0.53322 5.5981,1.59948 2.0659,1.06637 4.0986,2.33263 6.0981,3.79876 2.0658,1.3996 3.9652,2.89911 5.6981,4.49854 1.7993,1.53288 3.1988,2.79913 4.1986,3.79876 0.9329,0.99972 2.0992,2.19932 3.4989,3.59883 1.4661,1.39958 3.0655,2.93241 4.7984,4.5985 2.9989,-3.86537 5.3648,-8.26393 7.0977,-13.1957 1.7326,-4.99832 2.599,-10.59649 2.5992,-16.79453 -2e-4,-4.53179 -0.6666,-9.09696 -1.9994,-13.69554 -1.2664,-4.66506 -3.0991,-9.09695 -5.4982,-13.29567 -2.3327,-4.26518 -5.0985,-8.23055 -8.2973,-11.89612 -3.1991,-3.73201 -6.7312,-6.96429 -10.5965,-9.69684 -3.7989,-2.79898 -7.8309,-4.96494 -12.0961,-6.49789 -4.2654,-1.59936 -8.6306,-2.39909 -13.0957,-2.39922 -7.0645,1.3e-4 -13.7623,1.19973 -20.0935,3.59883 -6.3313,2.33269 -11.8962,5.7649 -16.6945,10.29665 -4.7985,4.53196 -8.5973,10.13013 -11.3963,16.79453 -2.7992,6.66458 -4.1987,14.29542 -4.1987,22.89254"
             id="path6896" />
          <path
             inkscape:connector-curvature="0"
             d="m -4638.2313,506.32376 c 0,-8.26392 1.3329,-15.86143 3.9987,-22.79258 2.7324,-6.99764 6.4979,-12.99568 11.2963,-17.99414 4.7984,-5.06491 10.4633,-8.99696 16.9945,-11.79615 6.5978,-2.79898 13.7288,-4.19853 21.393,-4.19864 3.4655,1.1e-4 7.1643,0.39998 11.0964,1.19961 3.932,0.73321 7.8307,1.89949 11.6962,3.49886 3.8653,1.53294 7.5974,3.46564 11.1964,5.79812 3.5987,2.33266 6.7643,5.06511 9.4969,8.19732 2.7323,3.06576 4.9316,6.56462 6.5978,10.49659 1.666,3.93212 2.5324,8.23072 2.5992,12.89579 0.2664,0.39994 0.533,0.96642 0.7997,1.69945 0.3331,0.73316 0.4997,1.59954 0.4998,2.59915 l 0,27.79095 c -1e-4,3.0657 -0.033,6.0314 -0.1,8.8971 -1e-4,2.79911 -0.067,5.63152 -0.2,8.49723 -0.1334,2.46588 -0.2667,4.96507 -0.3998,7.49756 -0.067,2.46587 -0.1001,5.26496 -0.1,8.39727 0.066,7.131 0.1998,14.49526 0.3999,22.0928 0.2664,7.66414 0.3997,15.12837 0.3998,22.39271 -1e-4,1.46614 -0.3666,2.69907 -1.0996,3.69879 -0.7332,0.99963 -1.6329,1.79937 -2.6991,2.39922 -0.9998,0.59975 -2.0994,1.03295 -3.2989,1.29958 -1.1331,0.26652 -2.1328,0.39981 -2.9991,0.39987 -3.3323,-6e-5 -5.9315,-0.59986 -7.7974,-1.79942 -1.7995,-1.19966 -2.6992,-3.56555 -2.6991,-7.09769 l 1.4995,-37.58775 c -10e-5,-2.13264 -10e-5,-4.99837 0,-8.5972 -10e-5,-3.59882 0.066,-8.13067 0.1999,-13.59557 -1.6662,2.39923 -3.7655,4.69848 -6.2979,6.89775 -2.5326,2.19929 -5.3651,4.13199 -8.4973,5.79811 -3.0657,1.66613 -6.3647,2.99903 -9.8968,3.9987 -3.5322,0.99967 -7.1977,1.49951 -10.9964,1.49951 -8.3306,0 -15.7949,-1.56615 -22.3927,-4.69847 -6.5979,-3.1323 -12.1627,-7.19764 -16.6945,-12.19603 -4.5319,-5.06499 -7.9975,-10.69648 -10.3967,-16.89449 -2.3992,-6.26459 -3.5988,-12.49589 -3.5988,-18.69391 m 18.494,-2.19929 c 0,4.19869 0.6997,8.49728 2.0993,12.8958 1.3995,4.39861 3.5655,8.3973 6.4979,11.9961 2.999,3.5322 6.7644,6.43126 11.2963,8.69716 4.5318,2.26595 9.9634,3.39891 16.2947,3.39889 3.5988,2e-5 7.2976,-0.73307 11.0964,-2.19928 3.7987,-1.53281 7.2309,-3.69877 10.2966,-6.49788 3.1323,-2.79906 5.6648,-6.16463 7.5976,-10.09671 1.9992,-3.99866 2.9989,-8.49719 2.999,-13.49561 -1e-4,-0.99962 0.1,-2.19923 0.2999,-3.59882 0.2665,-1.39949 0.5997,-2.86568 0.9997,-4.39857 0.3997,-1.53278 0.8329,-3.06561 1.2995,-4.5985 0.4665,-1.53277 0.9663,-2.89899 1.4996,-4.09867 -0.9998,-4.26521 -2.6993,-7.99732 -5.0984,-11.19635 -2.3993,-3.26552 -5.1651,-5.96464 -8.2973,-8.09736 -3.0657,-2.13255 -6.3313,-3.73203 -9.7968,-4.79844 -3.4656,-1.06623 -6.7312,-1.59939 -9.7968,-1.59948 -5.1984,9e-5 -10.1634,0.83315 -14.8951,2.49919 -4.7319,1.59956 -8.9305,3.99878 -12.5959,7.19765 -3.5989,3.19904 -6.4646,7.16441 -8.5972,11.89613 -2.1327,4.66521 -3.199,10.03012 -3.199,16.09475"
             id="path6898" />
        </g>
        <g
           style="font-size:82.78043365px;font-style:normal;font-weight:normal;line-height:125%;letter-spacing:0px;word-spacing:0px;fill:#ffffff;fill-opacity:1;stroke:none;font-family:Sans"
           id="text3048-14">
          <path
             inkscape:connector-curvature="0"
             d="m -4939.9782,640.45799 c 0,-2.6677 0.3503,-5.20069 1.0509,-7.59899 0.7276,-2.39822 1.7246,-4.60785 2.9911,-6.6289 1.2665,-2.02096 2.7621,-3.82639 4.4867,-5.4163 1.7515,-1.61675 3.6647,-2.97756 5.7396,-4.08243 2.0749,-1.13171 4.2711,-1.99401 6.5885,-2.58689 2.3174,-0.61972 4.6752,-0.92961 7.0735,-0.92966 2.5599,5e-5 5.039,0.40426 7.4373,1.2126 2.4252,0.80846 4.7022,1.91327 6.831,3.31445 2.1288,1.37434 4.0824,2.99114 5.861,4.85042 1.7784,1.85937 3.3009,3.83995 4.5674,5.94176 1.2665,2.10188 2.25,4.28457 2.9507,6.54806 0.7275,2.26356 1.0913,4.47319 1.0913,6.6289 0,4.14983 -0.539,7.77416 -1.6168,10.87302 -1.0509,3.09889 -2.4926,5.78009 -4.3249,8.0436 0.8892,0.94315 1.7245,1.88628 2.506,2.82941 0.8084,0.94315 1.5225,1.83239 2.1423,2.66773 0.6197,0.83535 1.1048,1.60334 1.4551,2.30395 0.3772,0.70062 0.5658,1.29344 0.5659,1.77849 -10e-5,0.83534 -0.283,1.52249 -0.8488,2.06142 -0.566,0.56588 -1.3878,0.84882 -2.4656,0.84883 -0.3504,-1e-5 -0.7816,-0.027 -1.2935,-0.0808 -0.512,-0.0539 -1.024,-0.14821 -1.536,-0.28295 -0.4851,-0.13473 -0.9566,-0.32336 -1.4147,-0.56588 -0.4312,-0.21557 -0.7411,-0.51199 -0.9296,-0.88924 -0.1348,-0.18863 -0.566,-0.78146 -1.2935,-1.77849 -0.7006,-0.99702 -1.6303,-2.2231 -2.789,-3.67823 -2.5869,1.61681 -5.3894,2.78899 -8.4073,3.51655 -2.9912,0.72757 -6.0496,1.09135 -9.1754,1.09135 -4.2576,0 -8.0706,-0.68715 -11.4389,-2.06143 -3.3684,-1.37428 -6.2247,-3.35487 -8.5691,-5.94176 -2.3444,-2.58688 -4.1363,-5.72617 -5.3759,-9.41789 -1.2395,-3.71863 -1.8593,-7.90885 -1.8593,-12.57066 m 7.4373,1.13176 c 0,3.36837 0.4716,6.41335 1.4147,9.13495 0.9701,2.72164 2.2905,5.03906 3.9612,6.95226 1.6976,1.88629 3.6917,3.34141 5.9822,4.36538 2.3174,1.02398 4.8369,1.53597 7.5585,1.53596 2.4522,10e-6 4.8369,-0.28293 7.1544,-0.84882 2.3174,-0.56587 4.4731,-1.42817 6.4672,-2.58689 -1.4012,-1.58984 -2.8833,-3.12581 -4.4462,-4.60789 -1.536,-1.50901 -3.0989,-2.86981 -4.6887,-4.08244 l 0,-1.2126 c -1e-4,-1.15869 0.202,-2.07488 0.6063,-2.74857 0.4041,-0.70059 1.0778,-1.0509 2.021,-1.05092 0.6736,2e-5 1.4281,0.21559 2.2635,0.64672 0.8353,0.43117 1.6572,0.94316 2.4656,1.53597 0.8353,0.5659 1.6033,1.1722 2.304,1.8189 0.7275,0.61979 1.2934,1.13178 1.6976,1.53597 0.3772,0.40421 0.8488,0.88926 1.4147,1.45512 0.5928,0.5659 1.2395,1.18567 1.9402,1.85933 1.2126,-1.5629 2.1692,-3.34138 2.8698,-5.33546 0.7006,-2.02099 1.0509,-4.28451 1.051,-6.79058 -1e-4,-1.83235 -0.2696,-3.67821 -0.8084,-5.53756 -0.5121,-1.88624 -1.2531,-3.6782 -2.2232,-5.37588 -0.9431,-1.72455 -2.0614,-3.32788 -3.3548,-4.80999 -1.2935,-1.50898 -2.7217,-2.8159 -4.2846,-3.92076 -1.536,-1.13171 -3.1662,-2.00748 -4.8908,-2.62731 -1.7246,-0.64667 -3.4896,-0.97003 -5.295,-0.97008 -2.8564,5e-5 -5.5646,0.48509 -8.1245,1.45512 -2.5599,0.94319 -4.81,2.33095 -6.7501,4.16328 -1.9402,1.83242 -3.4762,4.09595 -4.6079,6.79058 -1.1318,2.69471 -1.6977,5.78011 -1.6977,9.25621"
             style="font-variant:normal;font-stretch:normal;font-family:Short Stack;-inkscape-font-specification:Short Stack"
             id="path6873" />
          <path
             inkscape:connector-curvature="0"
             d="m -4870.7789,646.07639 c 0,-0.83533 0.027,-1.77846 0.081,-2.82941 0.054,-1.0509 0.1348,-2.14224 0.2425,-3.27403 0.1078,-1.13174 0.2291,-2.27697 0.3638,-3.43571 0.1617,-1.18563 0.3369,-2.31739 0.5255,-3.3953 0.1886,-1.10478 0.3907,-2.11528 0.6063,-3.03151 0.2425,-0.94309 0.485,-1.75149 0.7276,-2.4252 0.2964,-0.72752 0.7679,-1.32035 1.4147,-1.77849 0.6467,-0.485 1.509,-0.72752 2.5868,-0.72756 0.9701,4e-5 1.7381,0.35035 2.304,1.05092 0.5928,0.70066 0.8892,1.53601 0.8892,2.50605 0,0.16172 -0.1347,0.67371 -0.4042,1.53596 -0.2425,0.83539 -0.5254,1.96715 -0.8488,3.3953 -0.2964,1.40126 -0.5794,3.07196 -0.8488,5.01209 -0.2425,1.91325 -0.3638,4.0151 -0.3638,6.30554 0,0.88927 0.04,1.98061 0.1213,3.27403 0.1077,1.29347 0.2964,2.65428 0.5659,4.08244 0.2694,1.40124 0.6467,2.81595 1.1317,4.24411 0.485,1.40124 1.1318,2.66774 1.9402,3.79949 0.8353,1.13178 1.8458,2.04796 3.0315,2.74857 1.1856,0.70062 2.6003,1.05093 4.2441,1.05093 1.4012,0 2.6947,-0.21557 3.8803,-0.64673 1.1857,-0.43114 2.2635,-0.98355 3.2336,-1.65722 0.997,-0.70061 1.8863,-1.48206 2.6678,-2.34437 0.8083,-0.86228 1.5224,-1.72458 2.1422,-2.58689 0.6467,-0.86228 1.1991,-1.67068 1.6573,-2.42521 0.485,-0.75449 0.9026,-1.38774 1.253,-1.89974 0.1616,-1.5629 0.2829,-2.93718 0.3638,-4.12286 0.081,-1.21258 0.1347,-2.31739 0.1617,-3.31445 0.054,-0.997 0.081,-1.92666 0.081,-2.78899 0.027,-0.88921 0.04,-1.79193 0.04,-2.70814 0,-0.94311 -0.014,-1.94014 -0.04,-2.99109 0,-1.07784 0,-2.30392 0,-3.67824 l 0,-4.80999 c 0,-0.56584 0.1212,-1.03741 0.3638,-1.41471 0.2694,-0.37721 0.5928,-0.6871 0.9701,-0.92966 0.3772,-0.24248 0.7948,-0.40416 1.253,-0.48504 0.458,-0.10774 0.8757,-0.16164 1.253,-0.16168 0.3233,4e-5 0.6736,0.0539 1.0509,0.16168 0.3772,0.10783 0.7275,0.26951 1.051,0.48504 0.3233,0.21562 0.5927,0.51203 0.8084,0.88924 0.2155,0.35035 0.3233,0.76803 0.3233,1.25303 l -0.081,38.3587 c -10e-5,1.37429 -0.2695,2.30395 -0.8084,2.78899 -0.539,0.4581 -1.3609,0.68714 -2.4657,0.68715 -0.997,-10e-6 -1.7785,-0.0809 -2.3443,-0.24253 -0.539,-0.13473 -0.9432,-0.4042 -1.2126,-0.8084 -0.2426,-0.4042 -0.3908,-0.95661 -0.4446,-1.65722 -0.054,-0.70062 -0.081,-1.60333 -0.081,-2.70815 l 0,-2.74857 c -0.7006,1.2665 -1.4956,2.4791 -2.3848,3.63781 -0.8623,1.13177 -1.8728,2.1288 -3.0315,2.99109 -1.1587,0.8623 -2.4926,1.54944 -4.0016,2.06143 -1.509,0.51198 -3.2336,0.76798 -5.1738,0.76798 -2.8024,0 -5.2142,-0.43115 -7.2352,-1.29344 -1.994,-0.83535 -3.6917,-1.94017 -5.0929,-3.31446 -1.3743,-1.40122 -2.4926,-2.99108 -3.3549,-4.76957 -0.8353,-1.77848 -1.4955,-3.59738 -1.9806,-5.45672 -0.4581,-1.85931 -0.7679,-3.67821 -0.9296,-5.45672 -0.1348,-1.77846 -0.2021,-3.36832 -0.2021,-4.76957"
             style="font-variant:normal;font-stretch:normal;font-family:Short Stack;-inkscape-font-specification:Short Stack"
             id="path6875" />
          <path
             inkscape:connector-curvature="0"
             d="m -4807.9256,616.36759 c -0.4581,5e-5 -1.1183,-0.10774 -1.9806,-0.32336 -0.8354,-0.24247 -1.6707,-0.59278 -2.506,-1.05093 -0.8085,-0.45804 -1.5225,-1.03739 -2.1423,-1.73806 -0.5928,-0.70056 -0.8893,-1.52244 -0.8893,-2.46563 0,-0.45804 0.094,-0.9296 0.283,-1.4147 0.1886,-0.48499 0.4446,-0.92961 0.768,-1.33387 0.3503,-0.40414 0.7679,-0.7275 1.253,-0.97008 0.485,-0.26941 1.024,-0.40414 1.6168,-0.4042 0.512,6e-5 1.1452,0.20216 1.8997,0.6063 0.7815,0.40426 1.5225,0.92972 2.2232,1.57638 0.7006,0.61984 1.3069,1.32045 1.8189,2.10185 0.5119,0.75457 0.7679,1.4956 0.7679,2.22311 0,0.18868 -0.067,0.45815 -0.2021,0.8084 -0.1078,0.35036 -0.2964,0.70067 -0.5658,1.05092 -0.2426,0.35037 -0.5659,0.66025 -0.9701,0.92967 -0.3773,0.26952 -0.8354,0.40425 -1.3743,0.4042 m -5.6184,50.16138 c -0.054,-0.21557 -0.1213,-0.63324 -0.2021,-1.25302 -0.054,-0.61977 -0.1213,-1.64375 -0.2021,-3.07193 -0.054,-1.42817 -0.1078,-3.35486 -0.1617,-5.78008 -0.027,-2.45214 -0.04,-5.60491 -0.04,-9.45831 0,-3.01801 0.1751,-6.10341 0.5255,-9.25621 0.3772,-3.17968 0.8353,-6.18424 1.3742,-9.01369 0.027,-0.24248 0.1213,-0.56584 0.283,-0.97008 0.1886,-0.43111 0.4311,-0.84878 0.7275,-1.25303 0.3234,-0.4311 0.7006,-0.79488 1.1318,-1.09134 0.4311,-0.32332 0.9297,-0.485 1.4955,-0.48504 0.5929,4e-5 1.0779,0.10783 1.4552,0.32336 0.3772,0.18867 0.6602,0.47161 0.8488,0.84882 0.2156,0.35035 0.3638,0.76803 0.4446,1.25302 0.081,0.45814 0.1213,0.94318 0.1213,1.45513 0,1.42822 -0.054,3.0046 -0.1617,4.72916 -0.1078,1.69767 -0.2291,3.43574 -0.3638,5.21419 -0.1078,1.75157 -0.2156,3.47616 -0.3233,5.17378 -0.081,1.69767 -0.1213,3.23363 -0.1213,4.60789 0,1.21263 0.081,2.58691 0.2425,4.12286 0.1886,1.53598 0.3907,3.11236 0.6063,4.72915 0.2425,1.61682 0.4446,3.20668 0.6063,4.76958 0.1886,1.53597 0.2829,2.9372 0.283,4.20369 -10e-5,1.3204 -0.3369,2.34437 -1.0105,3.07193 -0.6737,0.70062 -1.4282,1.05093 -2.2636,1.05093 -1.6168,0 -2.8294,-0.29642 -3.6378,-0.88925 -0.8084,-0.56588 -1.3608,-1.57638 -1.6572,-3.03151"
             style="font-variant:normal;font-stretch:normal;font-family:Short Stack;-inkscape-font-specification:Short Stack"
             id="path6877" />
          <path
             inkscape:connector-curvature="0"
             d="m -4789.9791,664.18461 c 0,-0.70061 0.04,-1.42817 0.1213,-2.18269 0.081,-0.7545 0.1212,-1.48206 0.1213,-2.18269 -1e-4,-1.64374 -0.081,-3.35486 -0.2426,-5.13335 -0.1347,-1.42817 -0.2155,-2.92371 -0.2425,-4.48664 0,-1.56289 0.054,-2.93717 0.1617,-4.12285 l 1.3339,-15.96596 c 0.1077,-1.2934 0.4311,-2.31738 0.97,-3.07193 0.5659,-0.78141 1.5629,-1.17214 2.9911,-1.17218 0.5928,4e-5 1.1048,0.10783 1.536,0.32336 0.4581,0.18867 0.8353,0.44467 1.1318,0.76798 0.3233,0.32341 0.5793,0.68719 0.7679,1.09135 0.1887,0.37729 0.3234,0.75455 0.4042,1.13176 1.1048,-0.83531 2.3174,-1.5494 3.6379,-2.14227 1.3203,-0.59278 2.6811,-1.07782 4.0824,-1.45512 1.4012,-0.37721 2.8159,-0.64668 4.2441,-0.8084 1.4282,-0.18859 2.8159,-0.2829 4.1633,-0.28294 1.1317,4e-5 2.4252,0.0809 3.8803,0.24252 1.4551,0.13477 2.8294,0.44466 4.1229,0.92966 1.2934,0.48508 2.3847,1.1857 3.274,2.10185 0.8892,0.91623 1.3338,2.15578 1.3339,3.71865 -1e-4,1.10485 -0.3504,2.00757 -1.051,2.70815 -0.6737,0.6737 -1.5764,1.01053 -2.7081,1.0105 -0.8623,3e-5 -1.536,-0.18859 -2.021,-0.56588 -0.4851,-0.40417 -0.9162,-0.84879 -1.2935,-1.33387 -0.1617,-0.18859 -0.3503,-0.39069 -0.5658,-0.6063 -0.2157,-0.21553 -0.5255,-0.41764 -0.9297,-0.6063 -0.3773,-0.18859 -0.8758,-0.3368 -1.4956,-0.44462 -0.6198,-0.10775 -1.4147,-0.16164 -2.3847,-0.16168 -3.0451,4e-5 -5.6858,0.3234 -7.9224,0.97008 -2.2366,0.61981 -4.0824,1.60337 -5.5375,2.95067 -1.4552,1.34737 -2.5331,3.08544 -3.2337,5.2142 -0.7006,2.10187 -1.0509,4.63486 -1.0509,7.59898 0,1.10484 0.014,2.15576 0.04,3.15277 0.027,0.9701 0.067,1.94019 0.1213,2.91025 0.081,0.9701 0.1617,1.95366 0.2425,2.95067 0.081,0.99704 0.1617,2.06144 0.2425,3.19319 0.054,0.86231 0.1348,1.75155 0.2426,2.66773 0.1077,0.9162 0.1616,1.80544 0.1616,2.66773 0,0.24253 -0.067,0.57936 -0.2021,1.01051 -0.1347,0.43115 -0.3638,0.86229 -0.6871,1.29344 -0.2964,0.4042 -0.7006,0.76798 -1.2126,1.09134 -0.4851,0.29642 -1.0914,0.44462 -1.8189,0.44462 -0.9432,0 -1.7246,-0.10778 -2.3444,-0.32336 -0.5928,-0.21557 -1.0779,-0.53893 -1.4551,-0.97008 -0.3503,-0.45809 -0.5928,-1.02397 -0.7276,-1.69765 -0.1347,-0.70061 -0.2021,-1.50901 -0.2021,-2.4252"
             style="font-variant:normal;font-stretch:normal;font-family:Short Stack;-inkscape-font-specification:Short Stack"
             id="path6879" />
          <path
             inkscape:connector-curvature="0"
             d="m -4745.3148,648.38033 c 0,-3.34137 0.5389,-6.4133 1.6168,-9.21579 1.1048,-2.82937 2.6273,-5.25458 4.5675,-7.27562 1.9401,-2.04791 4.2306,-3.63777 6.8714,-4.76958 2.6677,-1.13172 5.551,-1.6976 8.6499,-1.69764 1.4012,4e-5 2.8967,0.16172 4.4866,0.48504 1.5898,0.29646 3.1662,0.76803 4.7292,1.4147 1.5628,0.61982 3.0719,1.40128 4.527,2.34437 1.4551,0.94318 2.7351,2.04799 3.8399,3.31445 1.1048,1.23959 1.9941,2.65429 2.6678,4.24412 0.6736,1.58989 1.0239,3.32795 1.0509,5.21419 0.1077,0.16171 0.2155,0.39076 0.3234,0.68715 0.1346,0.29644 0.202,0.64674 0.2021,1.05092 l 0,11.2368 c -1e-4,1.23956 -0.014,2.43869 -0.041,3.59739 0,1.13177 -0.027,2.27701 -0.081,3.43571 -0.054,0.99704 -0.1078,2.00754 -0.1617,3.03151 -0.027,0.99703 -0.041,2.1288 -0.04,3.39529 0.027,2.8833 0.081,5.86092 0.1617,8.93285 0.1077,3.09887 0.1616,6.1169 0.1617,9.05411 -1e-4,0.59281 -0.1483,1.09133 -0.4447,1.49555 -0.2964,0.40418 -0.6602,0.72754 -1.0913,0.97008 -0.4043,0.2425 -0.8489,0.41765 -1.3339,0.52546 -0.4581,0.10777 -0.8623,0.16166 -1.2126,0.16168 -1.3474,-2e-5 -2.3983,-0.24254 -3.1527,-0.72756 -0.7276,-0.48506 -1.0914,-1.44167 -1.0914,-2.86983 l 0.6063,-15.19797 c 0,-0.8623 0,-2.02101 0,-3.47613 0,-1.45512 0.027,-3.2875 0.081,-5.49714 -0.6738,0.97009 -1.5226,1.89975 -2.5465,2.78899 -1.024,0.88925 -2.1693,1.6707 -3.4357,2.34437 -1.2396,0.67367 -2.5735,1.2126 -4.0016,1.6168 -1.4282,0.4042 -2.9103,0.6063 -4.4462,0.6063 -3.3684,0 -6.3864,-0.63324 -9.0541,-1.89974 -2.6678,-1.2665 -4.9178,-2.91025 -6.7502,-4.93126 -1.8324,-2.04794 -3.2336,-4.32494 -4.2037,-6.831 -0.9701,-2.53298 -1.4551,-5.0525 -1.4551,-7.55857 m 7.4777,-0.88924 c 0,1.69767 0.2829,3.43573 0.8488,5.2142 0.5659,1.7785 1.4417,3.3953 2.6273,4.85041 1.2126,1.42819 2.7351,2.60038 4.5675,3.51656 1.8324,0.91619 4.0285,1.37429 6.5885,1.37428 1.4551,10e-6 2.9506,-0.29641 4.4866,-0.88924 1.536,-0.61977 2.9237,-1.49554 4.1633,-2.62731 1.2665,-1.13175 2.2904,-2.49256 3.0719,-4.08243 0.8084,-1.61679 1.2126,-3.4357 1.2126,-5.45672 0,-0.40418 0.04,-0.88922 0.1213,-1.45513 0.1077,-0.56586 0.2425,-1.15869 0.4042,-1.77848 0.1616,-0.61975 0.3368,-1.23953 0.5255,-1.85933 0.1885,-0.61975 0.3906,-1.17216 0.6063,-1.65722 -0.4043,-1.72457 -1.0914,-3.23359 -2.0615,-4.52706 -0.9701,-1.32036 -2.0884,-2.4117 -3.3548,-3.27403 -1.2396,-0.86226 -2.56,-1.50898 -3.9612,-1.94017 -1.4013,-0.43111 -2.7217,-0.64668 -3.9612,-0.64672 -2.1019,4e-5 -4.1094,0.33687 -6.0226,1.0105 -1.9132,0.64676 -3.6109,1.61684 -5.0929,2.91025 -1.4552,1.29348 -2.6139,2.89681 -3.4762,4.81 -0.8623,1.8863 -1.2934,4.05551 -1.2934,6.50764"
             style="font-variant:normal;font-stretch:normal;font-family:Short Stack;-inkscape-font-specification:Short Stack"
             id="path6881" />
          <path
             inkscape:connector-curvature="0"
             d="m -4688.565,646.07639 c 0,-0.83533 0.027,-1.77846 0.081,-2.82941 0.054,-1.0509 0.1347,-2.14224 0.2425,-3.27403 0.1078,-1.13174 0.229,-2.27697 0.3638,-3.43571 0.1617,-1.18563 0.3368,-2.31739 0.5254,-3.3953 0.1887,-1.10478 0.3908,-2.11528 0.6063,-3.03151 0.2426,-0.94309 0.4851,-1.75149 0.7276,-2.4252 0.2964,-0.72752 0.768,-1.32035 1.4147,-1.77849 0.6467,-0.485 1.509,-0.72752 2.5869,-0.72756 0.9701,4e-5 1.7381,0.35035 2.304,1.05092 0.5928,0.70066 0.8892,1.53601 0.8892,2.50605 0,0.16172 -0.1348,0.67371 -0.4042,1.53596 -0.2425,0.83539 -0.5255,1.96715 -0.8488,3.3953 -0.2965,1.40126 -0.5794,3.07196 -0.8489,5.01209 -0.2425,1.91325 -0.3637,4.0151 -0.3637,6.30554 0,0.88927 0.04,1.98061 0.1212,3.27403 0.1078,1.29347 0.2964,2.65428 0.5659,4.08244 0.2695,1.40124 0.6467,2.81595 1.1318,4.24411 0.485,1.40124 1.1317,2.66774 1.9401,3.79949 0.8354,1.13178 1.8459,2.04796 3.0315,2.74857 1.1857,0.70062 2.6004,1.05093 4.2442,1.05093 1.4012,0 2.6946,-0.21557 3.8803,-0.64673 1.1856,-0.43114 2.2635,-0.98355 3.2336,-1.65722 0.997,-0.70061 1.8862,-1.48206 2.6677,-2.34437 0.8084,-0.86228 1.5225,-1.72458 2.1423,-2.58689 0.6467,-0.86228 1.1991,-1.67068 1.6572,-2.42521 0.485,-0.75449 0.9027,-1.38774 1.2531,-1.89974 0.1616,-1.5629 0.2829,-2.93718 0.3637,-4.12286 0.081,-1.21258 0.1347,-2.31739 0.1617,-3.31445 0.054,-0.997 0.081,-1.92666 0.081,-2.78899 0.027,-0.88921 0.04,-1.79193 0.04,-2.70814 -1e-4,-0.94311 -0.014,-1.94014 -0.04,-2.99109 -1e-4,-1.07784 -1e-4,-2.30392 0,-3.67824 l 0,-4.80999 c -1e-4,-0.56584 0.1212,-1.03741 0.3637,-1.41471 0.2695,-0.37721 0.5928,-0.6871 0.9701,-0.92966 0.3772,-0.24248 0.7949,-0.40416 1.253,-0.48504 0.4581,-0.10774 0.8758,-0.16164 1.2531,-0.16168 0.3233,4e-5 0.6736,0.0539 1.0509,0.16168 0.3772,0.10783 0.7275,0.26951 1.0509,0.48504 0.3233,0.21562 0.5928,0.51203 0.8084,0.88924 0.2155,0.35035 0.3233,0.76803 0.3234,1.25303 l -0.081,38.3587 c 0,1.37429 -0.2695,2.30395 -0.8084,2.78899 -0.5389,0.4581 -1.3608,0.68714 -2.4656,0.68715 -0.9971,-10e-6 -1.7785,-0.0809 -2.3444,-0.24253 -0.5389,-0.13473 -0.9431,-0.4042 -1.2126,-0.8084 -0.2425,-0.4042 -0.3907,-0.95661 -0.4446,-1.65722 -0.054,-0.70062 -0.081,-1.60333 -0.081,-2.70815 l 0,-2.74857 c -0.7007,1.2665 -1.4956,2.4791 -2.3848,3.63781 -0.8623,1.13177 -1.8728,2.1288 -3.0315,2.99109 -1.1588,0.8623 -2.4926,1.54944 -4.0016,2.06143 -1.5091,0.51198 -3.2337,0.76798 -5.1738,0.76798 -2.8025,0 -5.2142,-0.43115 -7.2352,-1.29344 -1.9941,-0.83535 -3.6917,-1.94017 -5.0929,-3.31446 -1.3743,-1.40122 -2.4926,-2.99108 -3.3549,-4.76957 -0.8354,-1.77848 -1.4956,-3.59738 -1.9806,-5.45672 -0.4581,-1.85931 -0.768,-3.67821 -0.9297,-5.45672 -0.1347,-1.77846 -0.2021,-3.36832 -0.2021,-4.76957"
             style="font-variant:normal;font-stretch:normal;font-family:Short Stack;-inkscape-font-specification:Short Stack"
             id="path6883" />
          <path
             inkscape:connector-curvature="0"
             d="m -4625.7116,616.36759 c -0.4581,5e-5 -1.1183,-0.10774 -1.9806,-0.32336 -0.8354,-0.24247 -1.6707,-0.59278 -2.5061,-1.05093 -0.8084,-0.45804 -1.5225,-1.03739 -2.1422,-1.73806 -0.5929,-0.70056 -0.8893,-1.52244 -0.8893,-2.46563 0,-0.45804 0.094,-0.9296 0.283,-1.4147 0.1886,-0.48499 0.4446,-0.92961 0.7679,-1.33387 0.3503,-0.40414 0.768,-0.7275 1.2531,-0.97008 0.485,-0.26941 1.0239,-0.40414 1.6168,-0.4042 0.5119,6e-5 1.1452,0.20216 1.8997,0.6063 0.7815,0.40426 1.5225,0.92972 2.2231,1.57638 0.7006,0.61984 1.3069,1.32045 1.8189,2.10185 0.512,0.75457 0.768,1.4956 0.768,2.22311 0,0.18868 -0.067,0.45815 -0.2021,0.8084 -0.1078,0.35036 -0.2964,0.70067 -0.5659,1.05092 -0.2425,0.35037 -0.5659,0.66025 -0.9701,0.92967 -0.3772,0.26952 -0.8353,0.40425 -1.3742,0.4042 m -5.6184,50.16138 c -0.054,-0.21557 -0.1213,-0.63324 -0.2021,-1.25302 -0.054,-0.61977 -0.1213,-1.64375 -0.2021,-3.07193 -0.054,-1.42817 -0.1078,-3.35486 -0.1617,-5.78008 -0.027,-2.45214 -0.04,-5.60491 -0.04,-9.45831 0,-3.01801 0.1751,-6.10341 0.5254,-9.25621 0.3773,-3.17968 0.8354,-6.18424 1.3743,-9.01369 0.027,-0.24248 0.1213,-0.56584 0.283,-0.97008 0.1886,-0.43111 0.4311,-0.84878 0.7275,-1.25303 0.3234,-0.4311 0.7006,-0.79488 1.1318,-1.09134 0.4311,-0.32332 0.9296,-0.485 1.4955,-0.48504 0.5928,4e-5 1.0779,0.10783 1.4551,0.32336 0.3773,0.18867 0.6602,0.47161 0.8489,0.84882 0.2155,0.35035 0.3637,0.76803 0.4446,1.25302 0.081,0.45814 0.1212,0.94318 0.1213,1.45513 -10e-5,1.42822 -0.054,3.0046 -0.1617,4.72916 -0.1078,1.69767 -0.2291,3.43574 -0.3638,5.21419 -0.1078,1.75157 -0.2156,3.47616 -0.3234,5.17378 -0.081,1.69767 -0.1212,3.23363 -0.1212,4.60789 0,1.21263 0.081,2.58691 0.2425,4.12286 0.1886,1.53598 0.3907,3.11236 0.6063,4.72915 0.2425,1.61682 0.4446,3.20668 0.6063,4.76958 0.1886,1.53597 0.2829,2.9372 0.2829,4.20369 0,1.3204 -0.3368,2.34437 -1.0105,3.07193 -0.6737,0.70062 -1.4282,1.05093 -2.2635,1.05093 -1.6168,0 -2.8294,-0.29642 -3.6378,-0.88925 -0.8084,-0.56588 -1.3608,-1.57638 -1.6572,-3.03151"
             style="font-variant:normal;font-stretch:normal;font-family:Short Stack;-inkscape-font-specification:Short Stack"
             id="path6885" />
          <path
             inkscape:connector-curvature="0"
             d="m -4607.4418,665.76099 c 0,-0.4042 0.014,-0.9566 0.04,-1.65722 0.027,-0.70061 0.04,-1.6168 0.04,-2.74857 0,-1.83237 -0.054,-3.75906 -0.1617,-5.78008 -0.1078,-2.04794 -0.2291,-4.16326 -0.3638,-6.34596 -0.1078,-2.20961 -0.2156,-4.47314 -0.3233,-6.79059 -0.081,-2.34433 -0.1213,-4.74259 -0.1213,-7.19478 0,-0.9431 0.04,-1.99402 0.1213,-3.15277 0.081,-1.18562 0.2425,-2.27696 0.485,-3.27403 0.2425,-1.02394 0.5928,-1.87276 1.0509,-2.54647 0.4581,-0.70057 1.0779,-1.05088 1.8593,-1.05092 0.8354,4e-5 1.4821,0.26951 1.9402,0.8084 0.485,0.51203 0.8354,1.1857 1.0509,2.02101 0.2425,0.80844 0.3773,1.7381 0.4042,2.78899 0.054,1.02401 0.081,2.06146 0.081,3.11235 0.9431,-1.37425 2.1422,-2.6138 3.5974,-3.71866 1.4551,-1.13172 3.0045,-2.08833 4.6483,-2.86983 1.6707,-0.78141 3.3548,-1.38771 5.0525,-1.8189 1.6976,-0.43111 3.274,-0.64668 4.7292,-0.64672 2.6407,4e-5 4.9581,0.39077 6.9522,1.17218 2.021,0.75455 3.7591,1.792 5.2142,3.11235 1.482,1.32043 2.7081,2.85639 3.6783,4.6079 0.9969,1.72462 1.7919,3.557 2.3847,5.49713 0.5928,1.9402 1.0105,3.93426 1.2531,5.98218 0.2694,2.02103 0.4041,3.97467 0.4042,5.86092 l 0,6.87143 c -1e-4,1.75154 -0.1213,3.44919 -0.3638,5.09293 -0.2156,1.61681 -0.539,3.05846 -0.9701,4.32496 -0.4312,1.23955 -0.9701,2.23658 -1.6168,2.99109 -0.6198,0.78145 -1.3339,1.17218 -2.1423,1.17218 -0.5928,0 -1.1453,-0.0404 -1.6572,-0.12126 -0.512,-0.0808 -0.9701,-0.28294 -1.3743,-0.6063 -0.3773,-0.29642 -0.6737,-0.76798 -0.8892,-1.41471 -0.2156,-0.64672 -0.3234,-1.53596 -0.3234,-2.66772 0,-1.05092 0.1078,-2.14227 0.3234,-3.27404 0.2155,-1.1587 0.4446,-2.31741 0.6871,-3.47613 0.2694,-1.1587 0.512,-2.31741 0.7276,-3.47613 0.2155,-1.1587 0.3233,-2.30393 0.3233,-3.43571 0,-1.26648 -0.04,-2.5195 -0.1212,-3.75907 -0.054,-1.26648 -0.1887,-2.50603 -0.4042,-3.71865 -0.2156,-1.21258 -0.5255,-2.38477 -0.9297,-3.51656 -0.3773,-1.15868 -0.9027,-2.26349 -1.5764,-3.31445 -0.5389,-0.86226 -1.1048,-1.69761 -1.6976,-2.50605 -0.5659,-0.83531 -1.2665,-1.57635 -2.1019,-2.2231 -0.8084,-0.64669 -1.792,-1.15868 -2.9506,-1.53597 -1.1588,-0.40416 -2.587,-0.60626 -4.2846,-0.6063 -1.1587,4e-5 -2.4791,0.24256 -3.9611,0.72756 -1.4821,0.45813 -2.9777,1.1318 -4.4867,2.02101 -1.4821,0.86233 -2.9102,1.91325 -4.2845,3.15277 -1.3474,1.21263 -2.4791,2.57344 -3.3953,4.08243 l 0,10.34756 c 0,0.35032 0.014,0.80842 0.04,1.37428 0.054,0.53895 0.1213,1.14525 0.2021,1.81891 0.081,0.67368 0.1752,1.38777 0.283,2.14226 0.1347,0.75452 0.2694,1.49556 0.4042,2.22311 0.2155,1.13177 0.4715,2.20964 0.7679,3.23361 0.2964,1.02398 0.4447,1.98059 0.4447,2.86983 0,0.61978 -0.027,1.21261 -0.081,1.77849 -0.054,0.56588 -0.2021,1.0644 -0.4446,1.49554 -0.2156,0.4042 -0.5659,0.72756 -1.0509,0.97009 -0.4851,0.24252 -1.1587,0.36378 -2.021,0.36378 -0.5659,0 -1.1453,-0.0539 -1.7381,-0.16168 -0.5928,-0.0808 -1.1452,-0.28294 -1.6572,-0.60631 -0.4851,-0.32336 -0.8893,-0.79492 -1.2126,-1.4147 -0.3234,-0.64672 -0.4851,-1.50902 -0.4851,-2.58689"
             style="font-variant:normal;font-stretch:normal;font-family:Short Stack;-inkscape-font-specification:Short Stack"
             id="path6887" />
          <path
             inkscape:connector-curvature="0"
             d="m -4552.2683,652.42235 c 0,-3.71863 0.539,-7.20824 1.6168,-10.46882 1.0779,-3.28747 2.6678,-6.1573 4.7696,-8.60949 2.1019,-2.47906 4.7022,-4.4327 7.8011,-5.86091 3.0989,-1.42814 6.6558,-2.14223 10.6709,-2.14227 0.7545,4e-5 1.6168,0.13478 2.5869,0.4042 0.9701,0.26951 1.9536,0.66024 2.9507,1.17218 0.997,0.51203 1.9805,1.13181 2.9507,1.85933 0.97,0.70065 1.8323,1.49558 2.5868,2.38479 0.7545,0.86233 1.3608,1.80547 1.8189,2.82941 0.4581,1.02401 0.6871,2.0884 0.6872,3.19319 -1e-4,0.32339 -0.067,0.72759 -0.2021,1.2126 -0.1348,0.48507 -0.3234,0.94317 -0.5659,1.37429 -0.2156,0.43117 -0.4851,0.78148 -0.8084,1.05092 -0.3234,0.2695 -0.6872,0.37728 -1.0913,0.32336 -0.3773,-0.0808 -0.795,-0.37723 -1.2531,-0.88924 -0.4581,-0.51196 -0.9297,-1.36078 -1.4147,-2.54647 -0.3773,-0.86226 -0.9162,-1.6033 -1.6168,-2.22311 -0.6737,-0.61974 -1.4551,-1.11825 -2.3443,-1.49554 -0.8893,-0.40417 -1.8459,-0.70058 -2.8699,-0.88925 -0.997,-0.18859 -1.9941,-0.2829 -2.9911,-0.28294 -2.4521,4e-5 -4.6618,0.49855 -6.6289,1.49555 -1.9401,0.99706 -3.5974,2.31745 -4.9716,3.96117 -1.3743,1.61684 -2.4253,3.46269 -3.1528,5.53756 -0.7276,2.07492 -1.0914,4.17677 -1.0914,6.30554 0,2.61385 0.3908,4.75612 1.1722,6.4268 0.7815,1.64376 1.8863,2.95068 3.3145,3.92075 1.4551,0.94315 3.1797,1.58987 5.1738,1.94017 2.0209,0.35032 4.2575,0.52547 6.7097,0.52546 0.7275,10e-6 1.4281,0.027 2.1018,0.0808 0.7006,0.027 1.3743,0.0404 2.0211,0.0404 0.6736,-0.0269 1.3473,-0.0943 2.021,-0.2021 0.6736,-0.10778 1.3742,-0.30988 2.1018,-0.6063 0.5928,-0.26946 1.1452,-0.52545 1.6572,-0.76798 0.4581,-0.18862 0.9027,-0.36378 1.3339,-0.52546 0.4311,-0.16168 0.7545,-0.24252 0.9701,-0.24253 0.2694,1e-5 0.6467,0.0808 1.1317,0.24253 0.485,0.16168 0.9566,0.43115 1.4148,0.8084 0.4849,0.37726 0.9026,0.87577 1.253,1.49554 0.3502,0.59284 0.5254,1.33387 0.5254,2.22311 0,0.4581 -0.1617,0.92967 -0.485,1.41471 -0.2965,0.45809 -0.6872,0.88924 -1.1722,1.29344 -0.4581,0.37726 -0.9432,0.68714 -1.4551,0.92966 -0.512,0.24252 -0.9701,0.36378 -1.3743,0.36378 l -3.1932,0 c -1.8863,0 -3.7321,0.0808 -5.5375,0.24252 -1.7786,0.16168 -3.6379,0.24253 -5.578,0.24253 -2.8834,0 -5.6319,-0.26947 -8.2457,-0.80841 -2.6139,-0.56588 -4.9044,-1.52249 -6.8715,-2.86983 -1.9671,-1.34733 -3.53,-3.13929 -4.6887,-5.37587 -1.1587,-2.26352 -1.7381,-5.09293 -1.7381,-8.48823"
             style="font-variant:normal;font-stretch:normal;font-family:Short Stack;-inkscape-font-specification:Short Stack"
             id="path6889" />
          <path
             inkscape:connector-curvature="0"
             d="m -4499.6008,614.7912 c 0,-0.43109 0.1077,-0.9296 0.3233,-1.49554 0.2156,-0.59277 0.512,-1.14518 0.8893,-1.65723 0.4042,-0.51193 0.8757,-0.94307 1.4147,-1.29344 0.5389,-0.35025 1.1317,-0.5254 1.7785,-0.52546 0.9161,6e-5 1.6841,0.30994 2.3039,0.92966 0.6467,0.61983 0.9701,1.33392 0.9701,2.14227 0,1.05098 -0.027,2.18274 -0.081,3.39529 -0.027,1.21265 -0.067,2.47915 -0.1212,3.79949 -0.027,1.29349 -0.067,2.61388 -0.1213,3.96117 -0.027,1.34739 -0.04,2.66778 -0.04,3.96118 l 0,3.03151 c 1.7246,-1.77845 3.7186,-3.12579 5.9822,-4.04202 2.2904,-0.94309 4.7156,-1.41466 7.2756,-1.4147 1.0509,4e-5 2.1288,0.0674 3.2336,0.2021 1.1048,0.10783 2.2096,0.28298 3.3145,0.52546 1.1047,0.24256 2.1691,0.55245 3.1932,0.92966 1.0508,0.35035 2.0344,0.7815 2.9506,1.29345 2.4521,1.40127 4.3923,2.82945 5.8205,4.28453 1.4282,1.42822 2.506,2.95071 3.2336,4.56748 0.7275,1.58989 1.1856,3.301 1.3743,5.13335 0.1886,1.83241 0.2694,3.85341 0.2425,6.06302 l -0.081,15.03629 c 0,0.56589 -0.027,1.26651 -0.081,2.10185 -0.027,0.80841 -0.1752,1.60334 -0.4447,2.38479 -0.2695,0.78146 -0.6872,1.44165 -1.253,1.98059 -0.5659,0.56588 -1.3743,0.84882 -2.4252,0.84882 -0.6468,0 -1.2396,-0.12126 -1.7785,-0.36378 -0.539,-0.24252 -1.0105,-0.57936 -1.4147,-1.01051 -0.3773,-0.4042 -0.6737,-0.87576 -0.8892,-1.4147 -0.1887,-0.56588 -0.283,-1.17218 -0.283,-1.81891 0,-1.45512 0.054,-2.88329 0.1617,-4.28453 0.1347,-1.42817 0.2694,-2.84287 0.4042,-4.24411 0.1347,-1.40122 0.256,-2.80245 0.3638,-4.2037 0.1347,-1.42816 0.2021,-2.85634 0.2021,-4.28453 0,-1.02396 -0.04,-2.14225 -0.1213,-3.35487 -0.081,-1.21258 -0.2964,-2.42519 -0.6467,-3.63782 -0.3234,-1.23952 -0.8219,-2.42517 -1.4955,-3.55697 -0.6737,-1.15868 -1.6034,-2.18265 -2.789,-3.07193 -1.1588,-0.88921 -2.6274,-1.58982 -4.4058,-2.10184 -1.7516,-0.5389 -3.8804,-0.80837 -6.3864,-0.80841 -1.7246,4e-5 -3.3953,0.30993 -5.0121,0.92967 -1.5899,0.59286 -3.0046,1.34737 -4.2441,2.26352 -1.2126,0.91623 -2.1827,1.91325 -2.9103,2.99109 -0.7275,1.0779 -1.0913,2.10188 -1.0913,3.07193 l 0,17.01688 c 0,0.83536 0.054,1.79197 0.1617,2.86983 0.1347,1.05093 0.2021,2.03448 0.2021,2.95067 0,0.53894 -0.027,1.09135 -0.081,1.65722 -0.027,0.53894 -0.1482,1.03746 -0.3637,1.49555 -0.1887,0.43115 -0.512,0.79493 -0.9701,1.09134 -0.4312,0.29642 -1.051,0.44462 -1.8593,0.44462 -0.3504,0 -0.7815,-0.0404 -1.2935,-0.12126 -0.512,-0.0539 -1.0105,-0.21557 -1.4955,-0.48504 -0.4581,-0.29641 -0.8623,-0.72756 -1.2126,-1.29344 -0.3234,-0.59283 -0.4851,-1.40123 -0.4851,-2.42521 l 0.081,-50.44433"
             style="font-variant:normal;font-stretch:normal;font-family:Short Stack;-inkscape-font-specification:Short Stack"
             id="path6891" />
          <path
             inkscape:connector-curvature="0"
             d="m -4444.4273,647.89529 c -10e-5,-4.17672 0.6736,-7.72021 2.021,-10.63049 1.3473,-2.91022 3.1123,-5.26806 5.295,-7.07353 2.2096,-1.83233 4.7022,-3.15272 7.4777,-3.96117 2.8025,-0.8353 5.6588,-1.25298 8.5691,-1.25302 3.3683,4e-5 6.3863,0.55245 9.0541,1.65722 2.6946,1.10486 4.9716,2.69472 6.831,4.76958 1.8593,2.07493 3.2875,4.59445 4.2845,7.55856 0.997,2.93723 1.4955,6.2382 1.4956,9.90294 -1e-4,2.12881 -0.283,4.13634 -0.8488,6.0226 -0.566,1.88628 -1.3474,3.63782 -2.3444,5.25461 -0.9971,1.58987 -2.1962,3.01805 -3.5974,4.28454 -1.3743,1.2665 -2.8833,2.35784 -4.5271,3.27403 -1.6437,0.88924 -3.3818,1.56291 -5.2142,2.021 -1.8324,0.48505 -3.6917,0.72757 -5.5779,0.72757 -2.048,0 -4.0421,-0.32336 -5.9822,-0.97009 -1.9132,-0.61977 -3.7187,-1.48207 -5.4163,-2.58688 -1.6977,-1.10482 -3.2606,-2.38479 -4.6887,-3.83992 -1.4013,-1.48206 -2.6139,-3.05844 -3.6379,-4.72915 -0.997,-1.67069 -1.7784,-3.39528 -2.3443,-5.17378 -0.5659,-1.77847 -0.8489,-3.53001 -0.8488,-5.25462 m 6.9926,-1.0105 c 0,1.99408 0.4312,4.00161 1.2935,6.0226 0.8623,1.99407 1.994,3.7995 3.3953,5.4163 1.4281,1.61681 3.0449,2.9372 4.8504,3.96117 1.8323,0.99704 3.6917,1.49555 5.578,1.49555 2.0479,0 4.0285,-0.35031 5.9417,-1.05093 1.9402,-0.70061 3.6378,-1.72458 5.093,-3.07193 1.482,-1.34733 2.6677,-2.99108 3.5569,-4.93125 0.8892,-1.94015 1.3339,-4.14979 1.3339,-6.62891 0,-2.42518 -0.3369,-4.63481 -1.0105,-6.6289 -0.6468,-2.02098 -1.5495,-3.75904 -2.7082,-5.2142 -1.1587,-1.45509 -2.5465,-2.57338 -4.1632,-3.35487 -1.6169,-0.80836 -3.3684,-1.21256 -5.2546,-1.2126 -2.1019,4e-5 -4.2172,0.33687 -6.346,1.0105 -2.1288,0.64676 -4.0555,1.61684 -5.7801,2.91025 -1.6976,1.26653 -3.0854,2.84292 -4.1633,4.72916 -1.0778,1.8863 -1.6168,4.06898 -1.6168,6.54806"
             style="font-variant:normal;font-stretch:normal;font-family:Short Stack;-inkscape-font-specification:Short Stack"
             id="path6893" />
        </g>
        <g
           transform="matrix(1.1092326,0,0,1.1092326,-5062.7187,-68.166172)"
           id="layer1-9-1"
           inkscape:label="Capa 1"
           style="fill:#ffffff">
          <path
             inkscape:connector-curvature="0"
             id="path3251-0"
             d="m 367.93302,163.89781 c -0.9531,0 -1.8897,0.01 -2.8438,0.031 -1.0785,0.029 -2.1706,0.085 -3.25,0.1562 a 7.1258391,7.1258391 0 0 0 -1.5,-0.1562 c 0,0 -15.0874,0.2413 -33.25,2.3438 -18.1626,2.1023 -39.3054,5.643 -53.5,14.2812 -6.5418,3.9808 -11.1074,10.516 -14.9688,16.25 -3.4663,5.1473 -5.7057,9.2128 -6.1874,10.0938 -3.3838,3.2892 -6.3311,6.9278 -8.6563,11 -3.6131,6.328 -5.9238,15.6332 -8.0937,24.3437 -1.0787,4.3304 -2.0298,8.3669 -2.6876,11.3437 -15.407,19.4553 -29.8167,41.1854 -44.125,64.7813 -13.9515,23.0078 -13.5065,45.1146 -1.8437,56.9687 5.8314,5.9272 14.788,8.4196 23.4687,6.0626 8.6806,-2.357 17.0352,-8.8537 24.625,-19.4376 13.3927,-18.6765 26.665,-39.7013 40.6563,-59.3437 a 7.121984,7.121984 0 0 0 0.375,0.094 c 0,0 18.4692,3.4299 39.5,5.1563 10.5154,0.8633 21.6955,1.3279 31.8125,0.6563 10.117,-0.6718 19.1584,-2.0862 26.1875,-6.9688 6.8351,-4.7479 10.6839,-12.2044 13.2813,-20.0938 2.5974,-7.8893 3.9213,-16.498 4.625,-24.5937 0.7413,-8.527 0.7628,-16.4573 0.625,-22.125 5.5031,3.0881 10.7863,7.581 15.4374,13.0937 8.707,10.3199 14.975,23.8833 16.8126,35.4688 0.6324,3.9867 -0.484,7.9934 -3.25,12.8125 -2.766,4.8192 -7.1172,10.063 -11.625,15.5313 -4.5078,5.4682 -9.1998,11.1712 -12.5,17.6874 -3.3002,6.5163 -5.0977,14.3781 -2.625,22.3438 2.5231,8.1275 8.5183,14.8244 15.75,19.4688 7.2317,4.6443 16.251,7.4789 25.0312,4.4062 12.0415,-4.2141 20.2925,-14.6462 26.375,-26.7188 6.0825,-12.0724 10.1582,-26.2393 13.0312,-39.875 4.6133,-21.8956 5.7263,-39.0138 6.125,-46.3124 l 28.3126,-2.25 a 7.1202884,7.1202884 0 1 0 -1.1563,-14.1876 l -34.375,2.75 a 7.1202884,7.1202884 0 0 0 -6.5313,6.8438 c 0,0 -0.8753,24.4134 -6.3124,50.2188 -2.7185,12.9025 -6.6181,26.0961 -11.8126,36.4062 -5.1945,10.31 -11.5274,17.2912 -18.375,19.6875 -2.8692,1.0042 -7.8695,0.085 -12.625,-2.9687 -4.7555,-3.0542 -8.7075,-8.0276 -9.8437,-11.6876 -1.177,-3.7913 -0.5407,-7.1645 1.75,-11.6874 2.2907,-4.523 6.3311,-9.6639 10.7813,-15.0626 4.4503,-5.3985 9.2833,-11.0792 12.9687,-17.5 3.6854,-6.4208 6.2651,-13.953 4.9687,-22.125 -2.3311,-14.696 -9.5782,-30.085 -20,-42.4374 -10.4219,-12.3525 -24.3142,-21.9405 -40.3124,-22.7188 -15.1099,-0.7353 -28.9703,2.5638 -41.75,8.625 -0.0381,0.018 -0.087,0.013 -0.125,0.031 a 7.1202884,7.1202884 0 0 0 -1.875,0.9063 7.1202884,7.1202884 0 0 0 -0.0938,0.031 c -8.8383,4.44 -17.136,10.2163 -25,16.9062 -1.0913,0.4474 -2.1739,0.9184 -3.2812,1.4375 a 7.1296511,7.1296511 0 0 0 -3.9688,5.0937 c -4.7243,4.4993 -9.2558,9.2977 -13.6562,14.3126 -24.3443,27.7434 -44.8509,62.4382 -64.9063,90.4062 -6.2838,8.7627 -12.3668,12.7787 -16.75,13.9688 -4.3832,1.1901 -7.1168,0.2681 -9.625,-2.2813 -5.0163,-5.0986 -7.8787,-20.2103 3.875,-39.5937 13.0508,-21.5223 26.0228,-41.2308 39.625,-58.9063 a 7.1276085,7.1276085 0 0 0 5.2813,-5.5 c 0,0 0.2593,-1.219 0.3437,-1.625 28.6403,-35.5666 60.3457,-62.2671 101.1563,-78.1875 11.3987,-4.4466 24.2403,-3.8724 38.3124,-1.875 14.0722,1.9973 29.0948,5.4359 44.5,5.125 26.0182,-0.5262 76.1876,-5.5312 76.1876,-5.5312 a 7.1285636,7.1285636 0 0 0 -1.4063,-14.1876 c 0,0 -50.535,4.9727 -75.0625,5.4688 -13.0242,0.2628 -27.3906,-2.8641 -42.2188,-4.9688 -6.4873,-0.9207 -13.1412,-1.6544 -19.8124,-1.6874 z m -89.5626,42.4062 c -8.2769,6.8969 -16.1758,14.353 -23.7812,22.3438 0.6118,-1.6767 1.1717,-3.0031 1.5625,-3.6876 3.9219,-6.8683 12.3537,-13.3076 22.2187,-18.6562 z m 93.4688,23.8125 c 1.8595,-0.054 3.7541,-0.03 5.6562,0.062 0.0947,0 0.1866,0.026 0.2813,0.031 0.2301,4.6116 0.5346,14.5821 -0.4063,25.4063 -0.6436,7.403 -1.904,15.135 -3.9687,21.4063 -2.0647,6.2711 -4.9722,10.796 -7.875,12.8124 -2.7088,1.8816 -10.0156,3.8722 -19,4.4688 -8.9844,0.5965 -19.6345,0.2028 -29.7187,-0.625 -12.8238,-1.0528 -24.6646,-2.7598 -31.625,-3.875 4.5511,-5.9811 9.2145,-11.7383 13.9687,-17.1562 5.6752,-6.4676 11.4568,-12.4196 17.4063,-17.6876 2.5876,-0.9021 4.7682,-1.3655 6.3437,-1.4062 2.412,-0.062 3.1551,0.2762 4.25,1.5 l 0.0625,-0.062 c 0.3312,0.2967 0.5556,0.6998 0.9062,0.9687 a 7.1202884,7.1202884 0 0 0 9.6563,-10.375 c -0.3003,-0.3357 -0.6777,-0.5668 -1,-0.875 l 0.0313,-0.031 c -0.1836,-0.1408 -0.1578,-0.1106 -0.25,-0.1875 0.041,-0.09 0.0207,-0.083 0.0937,-0.2187 0.7516,-1.3929 3.3029,-4.1266 5.9687,-7 9.2006,-4.3214 18.8877,-6.8534 29.2188,-7.1563 z"
             style="font-size:medium;font-style:normal;font-variant:normal;font-weight:normal;font-stretch:normal;text-indent:0;text-align:start;text-decoration:none;line-height:normal;letter-spacing:normal;word-spacing:normal;text-transform:none;direction:ltr;block-progression:tb;writing-mode:lr-tb;text-anchor:start;baseline-shift:baseline;color:#000000;fill:#ffffff;fill-opacity:1;stroke:none;stroke-width:14.23915291;marker:none;visibility:visible;display:inline;overflow:visible;enable-background:accumulate;font-family:Sans;-inkscape-font-specification:Sans" />
        </g>
        <g
           transform="matrix(0.69534295,0,0,0.69534295,-5214.5668,438.55589)"
           id="layer1-1-86"
           inkscape:label="Capa 1">
          <text
             sodipodi:linespacing="125%"
             id="text3197-45"
             y="535.85278"
             x="3592.4868"
             style="font-size:430.46691895px;font-style:normal;font-variant:normal;font-weight:bold;font-stretch:normal;text-align:start;line-height:125%;letter-spacing:0px;word-spacing:0px;writing-mode:lr-tb;text-anchor:start;fill:#ffffff;fill-opacity:1;stroke:none;font-family:Rudiment;-inkscape-font-specification:Rudiment Bold"
             xml:space="preserve"
             inkscape:export-filename="/home/david/work/pipo/textures/abeja.png"
             inkscape:export-xdpi="90"
             inkscape:export-ydpi="90"><tspan
               style="font-style:normal;font-weight:500;fill:#ffffff;-inkscape-font-specification:Rudiment Medium"
               y="535.85278"
               x="3592.4868"
               id="tspan3199-86"
               sodipodi:role="line" /></text>
          <text
             sodipodi:linespacing="125%"
             id="text3197-5-14"
             y="626.41736"
             x="1691.156"
             style="font-size:430.46691895px;font-style:normal;font-variant:normal;font-weight:bold;font-stretch:normal;text-align:start;line-height:125%;letter-spacing:0px;word-spacing:0px;writing-mode:lr-tb;text-anchor:start;fill:#ffffff;fill-opacity:1;stroke:none;font-family:Rudiment;-inkscape-font-specification:Rudiment Bold"
             xml:space="preserve"
             inkscape:export-filename="/home/david/work/pipo/textures/abeja.png"
             inkscape:export-xdpi="90"
             inkscape:export-ydpi="90"><tspan
               style="font-style:normal;font-weight:500;fill:#ffffff;-inkscape-font-specification:Rudiment Medium"
               y="626.41736"
               x="1691.156"
               id="tspan3199-9-41"
               sodipodi:role="line" /></text>
          <text
             sodipodi:linespacing="125%"
             id="text3197-6-79"
             y="274.43268"
             x="3083.7539"
             style="font-size:430.46691895px;font-style:normal;font-variant:normal;font-weight:bold;font-stretch:normal;text-align:start;line-height:125%;letter-spacing:0px;word-spacing:0px;writing-mode:lr-tb;text-anchor:start;fill:#ffffff;fill-opacity:1;stroke:none;font-family:Rudiment;-inkscape-font-specification:Rudiment Bold"
             xml:space="preserve"
             inkscape:export-filename="/home/david/work/pipo/textures/abeja.png"
             inkscape:export-xdpi="90"
             inkscape:export-ydpi="90"><tspan
               style="font-style:normal;font-weight:500;fill:#ffffff;-inkscape-font-specification:Rudiment Medium"
               y="274.43268"
               x="3083.7539"
               id="tspan3199-97-9"
               sodipodi:role="line" /></text>
          <g
             transform="translate(-363.65492,-48.487322)"
             id="g5795">
            <path
               style="fill:none;stroke:#000000;stroke-width:11.60000038;stroke-miterlimit:4;stroke-dasharray:none"
               d="m 1140.8429,451.52099 c -25.5701,0.24858 -50.0027,12.6866 -60.9375,42.9375 l -21.5625,-21.53125 c -3.9554,17.74441 2.549,24.04406 15.5625,23.21875 -7.6349,2.13509 -13.25,9.12115 -13.25,17.4375 0,3.43864 0.9622,6.63563 2.625,9.375 -0.1344,0.27514 -0.2722,0.53429 -0.4063,0.8125 l -26.8125,59.59375 21.5938,5.9375 35.4062,-17 c -5.7174,25.72803 -11.4828,65.74619 2.2813,84.8125 11.3406,15.7093 25.3169,21.12947 37.75,22.125 l 0,16 -21.0313,0 0,22.0625 10,0 10.375,0 39.9063,0 10.375,0 14.5,0 0,-21.03125 -21.0313,0 0,-23.1875 c 2.354,-0.52732 4.6236,-1.10505 6.7813,-1.71875 22.16,-0.355 60.3437,-1.03125 60.3437,-1.03125 l -37.7812,-9.34375 c 20.1396,-14.8789 22.1507,-40.66449 14.4687,-82.59375 2.9626,-12.39948 3.8507,-27.35472 -3.1562,-42 20.1605,-45.89684 -29.7258,-85.32486 -76,-84.875 z m -61.2813,43.90625 c -0.011,0.0315 -0.02,0.0622 -0.031,0.0937 -0.1261,-0.005 -0.2482,-0.0286 -0.375,-0.0312 0.1356,-0.0237 0.2696,-0.0376 0.4063,-0.0625 z m 88.2188,36.625 0.625,0.25 -0.5938,0.15625 c -0.012,-0.13567 -0.017,-0.26944 -0.031,-0.40625 z"
               id="path4376"
               inkscape:connector-curvature="0" />
            <path
               style="fill:url(#linearGradient10592);fill-opacity:1;stroke:none"
               d="m 1176.1751,657.78813 0,38.47441 21.0326,0 0,21.03268 -85.1567,0 0,-22.05866 21.0327,0 0,-35.39646"
               id="path4326"
               inkscape:connector-curvature="0"
               sodipodi:nodetypes="cccccccc" />
            <path
               style="fill:#533f3f;fill-opacity:1;stroke:none"
               d="m 1167.8262,671.57963 c 5.6137,0 75.4738,-1.2475 75.4738,-1.2475 l -55.5138,-13.72251 z"
               id="path4318-0"
               inkscape:connector-curvature="0" />
            <path
               style="fill:none;stroke:#000000;stroke-width:1.78900003;stroke-linecap:butt;stroke-linejoin:miter;stroke-miterlimit:4;stroke-opacity:1;stroke-dasharray:none"
               d="m 1152.5774,716.78223 0,-58.4811"
               id="path4328"
               inkscape:connector-curvature="0" />
            <path
               style="fill:url(#linearGradient10594);fill-opacity:1;stroke:none"
               d="m 1099.2136,548.70079 c 0,0 -25.0239,79.10195 -3.8562,108.42384 27.118,37.56433 69.35,16.32625 69.35,16.32625 12.8489,-46.62336 16.2149,-91.89976 5.6138,-141.59135 z"
               id="path4298"
               inkscape:connector-curvature="0"
               sodipodi:nodetypes="csccc" />
            <path
               sodipodi:nodetypes="ccccc"
               inkscape:connector-curvature="0"
               id="path4288"
               d="m 1214.0537,531.22304 c 12.63,20.49323 8.1577,42.32899 2.9788,57.3405 l -45.5275,24.72725 -1.3875,-45.57835 z"
               style="fill:#6c5353;fill-opacity:1;stroke:none" />
            <path
               style="opacity:0.36734697;fill:url(#linearGradient10596);fill-opacity:1;stroke:none"
               d="m 1214.0537,531.22304 c 12.63,20.49323 8.1577,42.32899 2.9788,57.3405 -15.6491,10.05317 -31.3417,20.24811 -45.3715,25.03911 l -1.5435,-45.89021 z"
               id="path4270"
               inkscape:connector-curvature="0"
               sodipodi:nodetypes="ccccc" />
            <path
               style="fill:#6c5353;stroke:none"
               d="m 1079.2663,496.22301 90.1065,36.4894 1.0916,50.60335 c 142.6274,-88.18333 -55.4648,-193.33175 -91.1981,-87.09275 z"
               id="path4268"
               inkscape:connector-curvature="0"
               sodipodi:nodetypes="cccc" />
            <path
               style="fill:#916f6f;stroke:none"
               d="m 1062.8834,523.77623 -26.8086,59.57453 21.5958,5.95745 110.2128,-52.87239 c 2.2513,-30.14125 -61.0507,-103.87824 -105,-12.65959 z"
               id="path4266"
               inkscape:connector-curvature="0"
               sodipodi:nodetypes="ccccc" />
            <g
               id="g4259"
               transform="matrix(0.5596159,0,0,0.5596159,819.34325,715.20437)">
              <path
                 sodipodi:type="arc"
                 style="fill:#ffffff;fill-opacity:1;stroke:none"
                 id="path4210"
                 sodipodi:cx="-510.12704"
                 sodipodi:cy="962.45862"
                 sodipodi:rx="61.619305"
                 sodipodi:ry="61.619305"
                 d="m -448.50774,962.45862 c 0,34.0314 -27.5879,61.61928 -61.6193,61.61928 -34.03141,0 -61.61931,-27.58788 -61.61931,-61.61928 0,-34.0314 27.5879,-61.61931 61.61931,-61.61931 34.0314,0 61.6193,27.58791 61.6193,61.61931 z"
                 transform="matrix(0.52570076,0,0,0.52570076,731.7766,-866.25005)"
                 inkscape:export-filename="/home/david/work/pipo/textures/abeja.png"
                 inkscape:export-xdpi="90"
                 inkscape:export-ydpi="90" />
              <path
                 sodipodi:type="arc"
                 style="fill:#ffffff;fill-opacity:1;stroke:none"
                 id="path4214"
                 sodipodi:cx="-334.3605"
                 sodipodi:cy="972.56012"
                 sodipodi:rx="63.63961"
                 sodipodi:ry="63.63961"
                 d="m -270.72089,972.56012 c 0,35.14718 -28.49243,63.63958 -63.63961,63.63958 -35.14719,0 -63.63961,-28.4924 -63.63961,-63.63958 0,-35.14719 28.49242,-63.63961 63.63961,-63.63961 35.14718,0 63.63961,28.49242 63.63961,63.63961 z"
                 transform="matrix(0.5334795,0,0,0.5334795,716.2537,-877.97441)"
                 inkscape:export-filename="/home/david/work/pipo/textures/abeja.png"
                 inkscape:export-xdpi="90"
                 inkscape:export-ydpi="90" />
              <path
                 d="m -448.50774,962.45862 c 0,34.0314 -27.5879,61.61928 -61.6193,61.61928 -34.03141,0 -61.61931,-27.58788 -61.61931,-61.61928 0,-34.0314 27.5879,-61.61931 61.61931,-61.61931 34.0314,0 61.6193,27.58791 61.6193,61.61931 z"
                 sodipodi:ry="61.619305"
                 sodipodi:rx="61.619305"
                 sodipodi:cy="962.45862"
                 sodipodi:cx="-510.12704"
                 id="path4216"
                 style="fill:#000000;fill-opacity:1;stroke:none"
                 sodipodi:type="arc"
                 transform="matrix(0.31612792,0,0,0.31612792,636.5846,-661.29319)"
                 inkscape:export-filename="/home/david/work/pipo/textures/abeja.png"
                 inkscape:export-xdpi="90"
                 inkscape:export-ydpi="90" />
              <path
                 transform="matrix(0.31612792,0,0,0.31612792,630.6897,-664.25493)"
                 d="m -270.72089,972.56012 c 0,35.14718 -28.49243,63.63958 -63.63961,63.63958 -35.14719,0 -63.63961,-28.4924 -63.63961,-63.63958 0,-35.14719 28.49242,-63.63961 63.63961,-63.63961 35.14718,0 63.63961,28.49242 63.63961,63.63961 z"
                 sodipodi:ry="63.63961"
                 sodipodi:rx="63.63961"
                 sodipodi:cy="972.56012"
                 sodipodi:cx="-334.3605"
                 id="path4218"
                 style="fill:#000000;fill-opacity:1;stroke:none"
                 sodipodi:type="arc"
                 inkscape:export-filename="/home/david/work/pipo/textures/abeja.png"
                 inkscape:export-xdpi="90"
                 inkscape:export-ydpi="90" />
            </g>
            <path
               style="fill:#6c5353;fill-opacity:1;stroke:none"
               d="m 1171.626,609.45599 c 16.8073,-3.29907 39.7254,-16.75725 48.2921,-31.59725 11.8968,64.45316 1.1005,90.94231 -62.654,98.34914 13.4824,-18.51116 13.7202,-46.96629 14.3619,-66.75189 z"
               id="path4272"
               inkscape:connector-curvature="0"
               sodipodi:nodetypes="cccc" />
            <path
               style="fill:none;stroke:#000000;stroke-width:1.78900003;stroke-linecap:butt;stroke-linejoin:miter;stroke-miterlimit:4;stroke-opacity:1;stroke-dasharray:none"
               d="m 1063.0361,583.63081 c 43.4827,-22.00341 97.4495,-42.41835 88.5726,-72.35504"
               id="path4308-2"
               inkscape:connector-curvature="0"
               sodipodi:nodetypes="cc" />
            <path
               sodipodi:type="arc"
               style="fill:#000000;fill-opacity:1;stroke:none"
               id="path4310"
               sodipodi:cx="418.88004"
               sodipodi:cy="-345.36847"
               sodipodi:rx="2.3359361"
               sodipodi:ry="2.3359361"
               d="m 421.21597,-345.36847 c 0,1.2901 -1.04583,2.33594 -2.33593,2.33594 -1.29011,0 -2.33594,-1.04584 -2.33594,-2.33594 0,-1.2901 1.04583,-2.33594 2.33594,-2.33594 1.2901,0 2.33593,1.04584 2.33593,2.33594 z"
               transform="matrix(1.7022765,0,0,1.7022765,331.50785,1166.6314)" />
            <path
               transform="matrix(1.7022765,0,0,1.7022765,341.95567,1168.9705)"
               d="m 421.21597,-345.36847 c 0,1.2901 -1.04583,2.33594 -2.33593,2.33594 -1.29011,0 -2.33594,-1.04584 -2.33594,-2.33594 0,-1.2901 1.04583,-2.33594 2.33594,-2.33594 1.2901,0 2.33593,1.04584 2.33593,2.33594 z"
               sodipodi:ry="2.3359361"
               sodipodi:rx="2.3359361"
               sodipodi:cy="-345.36847"
               sodipodi:cx="418.88004"
               id="path4312-4"
               style="fill:#000000;fill-opacity:1;stroke:none"
               sodipodi:type="arc" />
            <path
               style="fill:#916f6f;fill-opacity:1;stroke:none"
               d="m 1080.6571,495.21419 -22.2991,-22.29908 c -4.5897,20.58992 4.8895,25.78378 22.2991,22.29908 z"
               id="path4314-3"
               inkscape:connector-curvature="0"
               sodipodi:nodetypes="ccc" />
            <path
               sodipodi:nodetypes="ccc"
               inkscape:connector-curvature="0"
               id="path4316-3"
               d="m 1151.6407,500.01733 22.2991,-22.29908 c 4.5896,20.58991 -4.8896,25.78377 -22.2991,22.29908 z"
               style="fill:#916f6f;fill-opacity:1;stroke:none" />
            <path
               style="fill:#6c5353;fill-opacity:1;stroke:#000000;stroke-width:1.78900003;stroke-linecap:butt;stroke-linejoin:miter;stroke-miterlimit:4;stroke-opacity:1;stroke-dasharray:none"
               d="m 1173.4996,560.2907 1.0571,72.41299 31.9119,-3.17137 4.8232,-23.25673 -24.0496,0.52857 -1.5857,-46.51346"
               id="path4320"
               inkscape:connector-curvature="0"
               sodipodi:nodetypes="cccccc" />
            <path
               style="fill:#6c5353;fill-opacity:1;stroke:#000000;stroke-width:1.78900003;stroke-linecap:butt;stroke-linejoin:miter;stroke-miterlimit:4;stroke-opacity:1;stroke-dasharray:none"
               d="m 1190.4136,615.39329 18.8961,-0.92498"
               id="path4322"
               inkscape:connector-curvature="0"
               sodipodi:nodetypes="cc" />
            <path
               style="fill:none;stroke:#000000;stroke-width:1.78900003;stroke-linecap:butt;stroke-linejoin:miter;stroke-miterlimit:4;stroke-opacity:1;stroke-dasharray:none"
               d="m 1191.1404,623.1235 17.0461,-0.79284"
               id="path4324"
               inkscape:connector-curvature="0"
               sodipodi:nodetypes="cc" />
            <path
               style="fill:none;stroke:#000000;stroke-width:1.78900003;stroke-linecap:butt;stroke-linejoin:miter;stroke-miterlimit:4;stroke-opacity:1;stroke-dasharray:none"
               d="m 1122.0544,717.29522 0,-13.97904"
               id="path4330"
               inkscape:connector-curvature="0" />
            <path
               inkscape:connector-curvature="0"
               id="path4332"
               d="m 1132.4425,717.29522 0,-13.97904"
               style="fill:none;stroke:#000000;stroke-width:1.78900003;stroke-linecap:butt;stroke-linejoin:miter;stroke-miterlimit:4;stroke-opacity:1;stroke-dasharray:none" />
            <path
               inkscape:connector-curvature="0"
               id="path4334"
               d="m 1172.3276,717.29522 0,-13.97904"
               style="fill:none;stroke:#000000;stroke-width:1.78900003;stroke-linecap:butt;stroke-linejoin:miter;stroke-miterlimit:4;stroke-opacity:1;stroke-dasharray:none" />
            <path
               style="fill:none;stroke:#000000;stroke-width:1.78900003;stroke-linecap:butt;stroke-linejoin:miter;stroke-miterlimit:4;stroke-opacity:1;stroke-dasharray:none"
               d="m 1182.7157,717.29522 0,-13.97904"
               id="path4336"
               inkscape:connector-curvature="0" />
          </g>
        </g>
      </g>
      <rect
         y="16.503397"
         x="-15171.796"
         height="1027.4425"
         width="1023.3555"
         id="rect5661"
         style="fill:none;stroke:none" />
    </g>
  </g>
</svg>
