<?xml version="1.0" encoding="UTF-8" standalone="no"?>
<!-- Created with Inkscape (http://www.inkscape.org/) -->

<svg
   xmlns:dc="http://purl.org/dc/elements/1.1/"
   xmlns:cc="http://creativecommons.org/ns#"
   xmlns:rdf="http://www.w3.org/1999/02/22-rdf-syntax-ns#"
   xmlns:svg="http://www.w3.org/2000/svg"
   xmlns="http://www.w3.org/2000/svg"
   xmlns:xlink="http://www.w3.org/1999/xlink"
   xmlns:sodipodi="http://sodipodi.sourceforge.net/DTD/sodipodi-0.dtd"
   xmlns:inkscape="http://www.inkscape.org/namespaces/inkscape"
   width="1351.74"
   height="1351.7388"
   id="svg2"
   version="1.1"
   inkscape:version="0.48.3.1 r9886"
   sodipodi:docname="q.svg">
  <defs
     id="defs4">
    <linearGradient
       id="linearGradient3265-7"
       inkscape:collect="always">
      <stop
         id="stop3267-6"
         offset="0"
         style="stop-color:#a0692f;stop-opacity:1;" />
      <stop
         id="stop3269-0"
         offset="1"
         style="stop-color:#a0692f;stop-opacity:0;" />
    </linearGradient>
    <linearGradient
       inkscape:collect="always"
       xlink:href="#linearGradient3265-7"
       id="linearGradient4849"
       gradientUnits="userSpaceOnUse"
       gradientTransform="matrix(1.9601035,0,0,1.9601035,-1268.7026,1291.2843)"
       x1="1128.5424"
       y1="-358.21252"
       x2="1128.5"
       y2="-350.88782" />
    <linearGradient
       inkscape:collect="always"
       xlink:href="#linearGradient3265-7"
       id="linearGradient4855"
       gradientUnits="userSpaceOnUse"
       gradientTransform="matrix(-1.9601035,0,0,1.9601035,3084.4205,1291.2843)"
       x1="1128.5424"
       y1="-358.21252"
       x2="1128.5"
       y2="-350.88782" />
    <linearGradient
       id="linearGradient3265-7-8"
       inkscape:collect="always">
      <stop
         id="stop3267-6-3"
         offset="0"
         style="stop-color:#a0692f;stop-opacity:1;" />
      <stop
         id="stop3269-0-6"
         offset="1"
         style="stop-color:#a0692f;stop-opacity:0;" />
    </linearGradient>
    <linearGradient
       y2="-435.80673"
       x2="919.21014"
       y1="-434.2847"
       x1="987.61987"
       gradientTransform="matrix(0.64156397,0,0,0.64156397,-240.46334,1048.4872)"
       gradientUnits="userSpaceOnUse"
       id="linearGradient3738"
       xlink:href="#linearGradient4094-1"
       inkscape:collect="always" />
    <linearGradient
       id="linearGradient4094-1">
      <stop
         id="stop4096-9"
         offset="0"
         style="stop-color:#52676c;stop-opacity:1;" />
      <stop
         id="stop4098-2"
         offset="1"
         style="stop-color:#52676c;stop-opacity:0;" />
    </linearGradient>
    <linearGradient
       id="linearGradient3310"
       inkscape:collect="always">
      <stop
         id="stop3312"
         offset="0"
         style="stop-color:#0b2228;stop-opacity:1;" />
      <stop
         id="stop3314"
         offset="1"
         style="stop-color:#0b2228;stop-opacity:0;" />
    </linearGradient>
    <linearGradient
       id="linearGradient4122-9"
       inkscape:collect="always">
      <stop
         id="stop4124-7"
         offset="0"
         style="stop-color:#1c2224;stop-opacity:1;" />
      <stop
         id="stop4126-6"
         offset="1"
         style="stop-color:#1c2224;stop-opacity:0" />
    </linearGradient>
    <linearGradient
       inkscape:collect="always"
       xlink:href="#linearGradient3310"
       id="linearGradient6795"
       gradientUnits="userSpaceOnUse"
       x1="1748.3407"
       y1="-227.81718"
       x2="1759.3722"
       y2="-149.25218" />
    <linearGradient
       inkscape:collect="always"
       xlink:href="#linearGradient4122-9"
       id="linearGradient6814"
       gradientUnits="userSpaceOnUse"
       gradientTransform="matrix(0.76362355,0,0,0.76362355,-529.2141,788.2198)"
       x1="1627.4237"
       y1="-275.98389"
       x2="1568.8258"
       y2="-208.25383" />
    <linearGradient
       inkscape:collect="always"
       id="linearGradient4871">
      <stop
         style="stop-color:#241c1f;stop-opacity:0.37777778"
         offset="0"
         id="stop4873" />
      <stop
         style="stop-color:#241c1f;stop-opacity:0;"
         offset="1"
         id="stop4875" />
    </linearGradient>
    <radialGradient
       inkscape:collect="always"
       xlink:href="#linearGradient4871"
       id="radialGradient4631"
       gradientUnits="userSpaceOnUse"
       gradientTransform="matrix(1.6682146,1.6471163,-0.88417937,0.89550496,-1046.6412,-1706.4218)"
       cx="1014.4006"
       cy="-408.6366"
       fx="1014.4006"
       fy="-408.6366"
       r="120.84957" />
    <linearGradient
       y2="-341.95212"
       x2="1033.103"
       y1="-312.79977"
       x1="1033.9359"
       gradientUnits="userSpaceOnUse"
       id="linearGradient4392"
       xlink:href="#linearGradient3219"
       inkscape:collect="always" />
    <linearGradient
       y2="-341.95212"
       x2="1033.103"
       y1="-312.79977"
       x1="1033.9359"
       gradientUnits="userSpaceOnUse"
       id="linearGradient4390"
       xlink:href="#linearGradient3209"
       inkscape:collect="always" />
    <linearGradient
       inkscape:collect="always"
       id="linearGradient3219">
      <stop
         style="stop-color:#3e4837;stop-opacity:1"
         offset="0"
         id="stop3221" />
      <stop
         style="stop-color:#e5ffd5;stop-opacity:0;"
         offset="1"
         id="stop3223" />
    </linearGradient>
    <linearGradient
       id="linearGradient3209"
       inkscape:collect="always">
      <stop
         id="stop3211"
         offset="0"
         style="stop-color:#3e4837;stop-opacity:1" />
      <stop
         id="stop3213"
         offset="1"
         style="stop-color:#e5ffd5;stop-opacity:0;" />
    </linearGradient>
    <linearGradient
       y2="-299.90375"
       x2="1731.0365"
       y1="-347.02103"
       x1="1621.358"
       gradientTransform="matrix(1.3519879,0,0,1.3519879,-2458.2999,1401.0995)"
       gradientUnits="userSpaceOnUse"
       id="linearGradient4525"
       xlink:href="#linearGradient4136"
       inkscape:collect="always" />
    <linearGradient
       id="linearGradient4136"
       inkscape:collect="always">
      <stop
         id="stop4138"
         offset="0"
         style="stop-color:#000000;stop-opacity:1" />
      <stop
         id="stop4140"
         offset="1"
         style="stop-color:#2b1100;stop-opacity:0;" />
    </linearGradient>
    <linearGradient
       id="linearGradient3449"
       inkscape:collect="always">
      <stop
         id="stop3451"
         offset="0"
         style="stop-color:#000000;stop-opacity:1;" />
      <stop
         id="stop3453"
         offset="1"
         style="stop-color:#000000;stop-opacity:0;" />
    </linearGradient>
    <linearGradient
       id="linearGradient4233"
       inkscape:collect="always">
      <stop
         id="stop4235"
         offset="0"
         style="stop-color:#000000;stop-opacity:1;" />
      <stop
         id="stop4237"
         offset="1"
         style="stop-color:#000000;stop-opacity:0;" />
    </linearGradient>
    <linearGradient
       id="linearGradient4283"
       inkscape:collect="always">
      <stop
         id="stop4285"
         offset="0"
         style="stop-color:#2b1100;stop-opacity:1;" />
      <stop
         id="stop4287"
         offset="1"
         style="stop-color:#2b1100;stop-opacity:0;" />
    </linearGradient>
    <linearGradient
       inkscape:collect="always"
       xlink:href="#linearGradient4283"
       id="linearGradient6031"
       gradientUnits="userSpaceOnUse"
       gradientTransform="translate(-2538.9898,1459.867)"
       x1="503.56857"
       y1="-348.85837"
       x2="512.40308"
       y2="-335.29108" />
    <linearGradient
       inkscape:collect="always"
       xlink:href="#linearGradient3449"
       id="linearGradient6033"
       gradientUnits="userSpaceOnUse"
       gradientTransform="translate(-2538.9898,1459.867)"
       x1="535.43597"
       y1="-304.05469"
       x2="522.1842"
       y2="-302.79257" />
    <linearGradient
       inkscape:collect="always"
       xlink:href="#linearGradient4233"
       id="linearGradient6035"
       gradientUnits="userSpaceOnUse"
       gradientTransform="translate(-2538.9898,1459.867)"
       x1="492.84091"
       y1="-285.43903"
       x2="581.34399"
       y2="-291.27615" />
    <linearGradient
       id="linearGradient4817"
       inkscape:collect="always">
      <stop
         id="stop4819"
         offset="0"
         style="stop-color:#917c6f;stop-opacity:1;" />
      <stop
         id="stop4821"
         offset="1"
         style="stop-color:#2b1100;stop-opacity:1" />
    </linearGradient>
    <linearGradient
       inkscape:collect="always"
       id="linearGradient5172">
      <stop
         style="stop-color:#502d16;stop-opacity:1;"
         offset="0"
         id="stop5174" />
      <stop
         style="stop-color:#917c6f;stop-opacity:1"
         offset="1"
         id="stop5176" />
    </linearGradient>
    <linearGradient
       id="linearGradient5181">
      <stop
         id="stop5183"
         offset="0"
         style="stop-color:#907b6e;stop-opacity:1" />
      <stop
         style="stop-color:#7a6356;stop-opacity:1;"
         offset="0.75249761"
         id="stop5191" />
      <stop
         style="stop-color:#644c3e;stop-opacity:1;"
         offset="0.812451"
         id="stop5189" />
      <stop
         id="stop5185"
         offset="1"
         style="stop-color:#381e0e;stop-opacity:1" />
    </linearGradient>
    <linearGradient
       inkscape:collect="always"
       id="linearGradient5193">
      <stop
         style="stop-color:#826c5f;stop-opacity:1"
         offset="0"
         id="stop5195" />
      <stop
         style="stop-color:#502d16;stop-opacity:1"
         offset="1"
         id="stop5197" />
    </linearGradient>
    <linearGradient
       inkscape:collect="always"
       xlink:href="#linearGradient4817"
       id="linearGradient5870"
       gradientUnits="userSpaceOnUse"
       gradientTransform="matrix(0.89679722,0,0,0.89679722,-2045.7805,1424)"
       x1="660.06604"
       y1="-501.25412"
       x2="616.52441"
       y2="-327.7186" />
    <linearGradient
       inkscape:collect="always"
       xlink:href="#linearGradient5181"
       id="linearGradient5872"
       gradientUnits="userSpaceOnUse"
       gradientTransform="translate(-1159.9752,1449.158)"
       x1="-276.65112"
       y1="-462.97198"
       x2="-282.89807"
       y2="-279.57907" />
    <linearGradient
       inkscape:collect="always"
       xlink:href="#linearGradient5172"
       id="linearGradient5874"
       gradientUnits="userSpaceOnUse"
       gradientTransform="matrix(0.89679722,0,0,0.89679722,-2045.7805,1424)"
       x1="533.96741"
       y1="-432.47049"
       x2="555.86011"
       y2="-240.41187" />
    <linearGradient
       inkscape:collect="always"
       xlink:href="#linearGradient4817"
       id="linearGradient5876"
       gradientUnits="userSpaceOnUse"
       gradientTransform="matrix(0.82173933,0,0,0.82173933,-2014.5348,1366.3891)"
       x1="626.62103"
       y1="-258.30438"
       x2="602.01056"
       y2="-402.81216" />
    <linearGradient
       inkscape:collect="always"
       xlink:href="#linearGradient5193"
       id="linearGradient5878"
       gradientUnits="userSpaceOnUse"
       gradientTransform="matrix(0.89679722,0,0,0.89679722,-2020.1702,1428.0016)"
       x1="564.45752"
       y1="-396.48645"
       x2="567.13477"
       y2="-318.39944" />
    <linearGradient
       id="linearGradient3338"
       inkscape:collect="always">
      <stop
         id="stop3340"
         offset="0"
         style="stop-color:#beb7c8;stop-opacity:1;" />
      <stop
         id="stop3342"
         offset="1"
         style="stop-color:#5d536c;stop-opacity:1" />
    </linearGradient>
    <linearGradient
       inkscape:collect="always"
       id="linearGradient3360">
      <stop
         style="stop-color:#474052;stop-opacity:1"
         offset="0"
         id="stop3362" />
      <stop
         style="stop-color:#5d536c;stop-opacity:1"
         offset="1"
         id="stop3364" />
    </linearGradient>
    <linearGradient
       inkscape:collect="always"
       id="linearGradient3380">
      <stop
         style="stop-color:#857c92;stop-opacity:1"
         offset="0"
         id="stop3382" />
      <stop
         style="stop-color:#5d536c;stop-opacity:1"
         offset="1"
         id="stop3384" />
    </linearGradient>
    <linearGradient
       id="linearGradient3394"
       inkscape:collect="always">
      <stop
         id="stop3396"
         offset="0"
         style="stop-color:#675d76;stop-opacity:1" />
      <stop
         id="stop3398"
         offset="1"
         style="stop-color:#5d536c;stop-opacity:1" />
    </linearGradient>
    <linearGradient
       inkscape:collect="always"
       xlink:href="#linearGradient3394"
       id="linearGradient5534"
       gradientUnits="userSpaceOnUse"
       gradientTransform="translate(-1035.7984,1460.497)"
       x1="548.9787"
       y1="-310.0397"
       x2="511.74536"
       y2="-309.25769" />
    <linearGradient
       inkscape:collect="always"
       xlink:href="#linearGradient3380"
       id="linearGradient5539"
       gradientUnits="userSpaceOnUse"
       gradientTransform="translate(-1104.5149,1460.497)"
       x1="549.00745"
       y1="-310.31183"
       x2="511.80453"
       y2="-309.47519" />
    <radialGradient
       inkscape:collect="always"
       xlink:href="#linearGradient3338"
       id="radialGradient5551"
       gradientUnits="userSpaceOnUse"
       gradientTransform="matrix(0.51554821,-0.84568081,1.1288979,0.68820444,-643.46887,1694.073)"
       cx="423.07739"
       cy="-187.4471"
       fx="423.07739"
       fy="-187.4471"
       r="166.84651" />
    <linearGradient
       inkscape:collect="always"
       xlink:href="#linearGradient3360"
       id="linearGradient5555"
       gradientUnits="userSpaceOnUse"
       gradientTransform="translate(-1124.2237,1458.7504)"
       x1="452.13895"
       y1="-403.7587"
       x2="425.63535"
       y2="-424.26743" />
    <linearGradient
       inkscape:collect="always"
       xlink:href="#linearGradient3360"
       id="linearGradient5558"
       gradientUnits="userSpaceOnUse"
       gradientTransform="translate(-1124.2237,1458.7504)"
       x1="452.13895"
       y1="-403.7587"
       x2="425.63535"
       y2="-424.26743" />
    <linearGradient
       id="linearGradient4274">
      <stop
         id="stop4276"
         offset="0"
         style="stop-color:#241c1c;stop-opacity:1" />
      <stop
         style="stop-color:#483737;stop-opacity:1;"
         offset="0.15879123"
         id="stop4286" />
      <stop
         style="stop-color:#544141;stop-opacity:1"
         offset="0.50204235"
         id="stop4282" />
      <stop
         id="stop4284"
         offset="0.75"
         style="stop-color:#483737;stop-opacity:1;" />
      <stop
         id="stop4278"
         offset="1"
         style="stop-color:#241c1c;stop-opacity:1" />
    </linearGradient>
    <linearGradient
       id="linearGradient4300"
       inkscape:collect="always">
      <stop
         id="stop4302"
         offset="0"
         style="stop-color:#513f3f;stop-opacity:1" />
      <stop
         id="stop4304"
         offset="1"
         style="stop-color:#916f6f;stop-opacity:1" />
    </linearGradient>
    <linearGradient
       id="linearGradient4338"
       inkscape:collect="always">
      <stop
         id="stop4340"
         offset="0"
         style="stop-color:#5a4545;stop-opacity:1" />
      <stop
         id="stop4342"
         offset="1"
         style="stop-color:#6c5353;stop-opacity:1" />
    </linearGradient>
    <linearGradient
       inkscape:collect="always"
       xlink:href="#linearGradient4338"
       id="linearGradient5824"
       gradientUnits="userSpaceOnUse"
       gradientTransform="matrix(1.1870923,0,0,1.1870923,557.10763,972.51967)"
       x1="506.36237"
       y1="-254.24303"
       x2="505.8338"
       y2="-219.35794" />
    <linearGradient
       inkscape:collect="always"
       xlink:href="#linearGradient4300"
       id="linearGradient5826"
       gradientUnits="userSpaceOnUse"
       gradientTransform="matrix(0.83444929,0,0,0.83444929,695.02334,866.91126)"
       x1="521.0072"
       y1="-422.45435"
       x2="521.0072"
       y2="-338.73444" />
    <linearGradient
       inkscape:collect="always"
       xlink:href="#linearGradient4274"
       id="linearGradient5828"
       gradientUnits="userSpaceOnUse"
       gradientTransform="matrix(0.83444929,0,0,0.83444929,741.18088,866.91126)"
       x1="536.79242"
       y1="-366.81332"
       x2="556.42566"
       y2="-324.86945" />
    <linearGradient
       y2="-301.63974"
       x2="535.34979"
       y1="-301.92004"
       x1="538.38654"
       gradientTransform="translate(-25.414983,34.384977)"
       gradientUnits="userSpaceOnUse"
       id="linearGradient5544"
       xlink:href="#linearGradient3146"
       inkscape:collect="always" />
    <filter
       height="1.0499389"
       y="-0.024969444"
       width="1.3299154"
       x="-0.16495769"
       id="filter3938"
       inkscape:collect="always"
       color-interpolation-filters="sRGB">
      <feGaussianBlur
         id="feGaussianBlur3940"
         stdDeviation="0.60368467"
         inkscape:collect="always" />
    </filter>
    <linearGradient
       id="linearGradient3146"
       inkscape:collect="always">
      <stop
         id="stop3148"
         offset="0"
         style="stop-color:#1c1c24;stop-opacity:1;" />
      <stop
         id="stop3150"
         offset="1"
         style="stop-color:#1c1c24;stop-opacity:0;" />
    </linearGradient>
    <linearGradient
       y2="-254.24301"
       x2="132.40479"
       y1="-254.24301"
       x1="159.62572"
       gradientTransform="translate(-47.042016,6.3427437)"
       gradientUnits="userSpaceOnUse"
       id="linearGradient4078"
       xlink:href="#linearGradient3139"
       inkscape:collect="always" />
    <linearGradient
       y2="-408.62561"
       x2="159.96489"
       y1="-417.59561"
       x1="192.85487"
       gradientTransform="translate(-63.427437,6.3427437)"
       gradientUnits="userSpaceOnUse"
       id="linearGradient4076"
       xlink:href="#linearGradient3117"
       inkscape:collect="always" />
    <linearGradient
       y2="-408.62561"
       x2="159.96489"
       y1="-417.59561"
       x1="192.85487"
       gradientTransform="matrix(1.6191115,1.2420631,-1.2420631,1.6191115,-653.89128,220.57021)"
       gradientUnits="userSpaceOnUse"
       id="linearGradient4074"
       xlink:href="#linearGradient3117"
       inkscape:collect="always" />
    <filter
       height="1.1221315"
       y="-0.061065737"
       width="1.2091677"
       x="-0.10458386"
       id="filter3915"
       inkscape:collect="always"
       color-interpolation-filters="sRGB">
      <feGaussianBlur
         id="feGaussianBlur3917"
         stdDeviation="2.0038655"
         inkscape:collect="always" />
    </filter>
    <linearGradient
       id="linearGradient3117"
       inkscape:collect="always">
      <stop
         id="stop3119"
         offset="0"
         style="stop-color:#aa4400;stop-opacity:1;" />
      <stop
         id="stop3121"
         offset="1"
         style="stop-color:#783000;stop-opacity:1" />
    </linearGradient>
    <linearGradient
       id="linearGradient3139"
       inkscape:collect="always">
      <stop
         id="stop3141"
         offset="0"
         style="stop-color:#2b1100;stop-opacity:1;" />
      <stop
         id="stop3143"
         offset="1"
         style="stop-color:#2b1100;stop-opacity:0;" />
    </linearGradient>
    <filter
       height="1.4686061"
       y="-0.23430306"
       width="1.4207194"
       x="-0.21035969"
       id="filter3967"
       inkscape:collect="always"
       color-interpolation-filters="sRGB">
      <feGaussianBlur
         id="feGaussianBlur3969"
         stdDeviation="5.8948044"
         inkscape:collect="always" />
    </filter>
    <linearGradient
       id="linearGradient3911"
       inkscape:collect="always">
      <stop
         id="stop3913"
         offset="0"
         style="stop-color:#241c1c;stop-opacity:1" />
      <stop
         id="stop3915"
         offset="1"
         style="stop-color:#784421;stop-opacity:0;" />
    </linearGradient>
    <linearGradient
       id="linearGradient3971"
       inkscape:collect="always">
      <stop
         id="stop3973"
         offset="0"
         style="stop-color:#917c6f;stop-opacity:1;" />
      <stop
         id="stop3975"
         offset="1"
         style="stop-color:#28170b;stop-opacity:1" />
    </linearGradient>
    <linearGradient
       inkscape:collect="always"
       xlink:href="#linearGradient3911"
       id="linearGradient3762"
       gradientUnits="userSpaceOnUse"
       gradientTransform="translate(0,-16.661873)"
       x1="519.29504"
       y1="-260.8017"
       x2="508.18713"
       y2="-300.37363" />
    <linearGradient
       inkscape:collect="always"
       xlink:href="#linearGradient3971"
       id="linearGradient3786"
       gradientUnits="userSpaceOnUse"
       gradientTransform="matrix(0.9140942,0,0,0.9140942,290.747,786.33643)"
       x1="441.53964"
       y1="-273.2981"
       x2="511.65836"
       y2="-286.14163" />
    <linearGradient
       id="linearGradient3578"
       inkscape:collect="always">
      <stop
         id="stop3580"
         offset="0"
         style="stop-color:#1f1c24;stop-opacity:1;" />
      <stop
         id="stop3582"
         offset="1"
         style="stop-color:#1f1c24;stop-opacity:0;" />
    </linearGradient>
    <linearGradient
       id="linearGradient3604"
       inkscape:collect="always">
      <stop
         id="stop3606"
         offset="0"
         style="stop-color:#211e26;stop-opacity:1;" />
      <stop
         id="stop3608"
         offset="1"
         style="stop-color:#211e26;stop-opacity:0;" />
    </linearGradient>
    <linearGradient
       inkscape:collect="always"
       xlink:href="#linearGradient3578"
       id="linearGradient3958"
       gradientUnits="userSpaceOnUse"
       gradientTransform="matrix(1.1100531,0,0,1.1100531,2863.0486,903.46763)"
       x1="-1887.6512"
       y1="-315.29987"
       x2="-1887.4778"
       y2="-254.37988" />
    <linearGradient
       inkscape:collect="always"
       xlink:href="#linearGradient3604"
       id="linearGradient3967"
       gradientUnits="userSpaceOnUse"
       gradientTransform="matrix(1.1100531,0,0,1.1100531,2931.5428,903.46763)"
       x1="-1801.6218"
       y1="-327.32669"
       x2="-1798.4309"
       y2="-249.51823" />
    <linearGradient
       inkscape:collect="always"
       xlink:href="#linearGradient3265-7-8"
       id="linearGradient6694"
       gradientUnits="userSpaceOnUse"
       gradientTransform="matrix(-1.9601035,0,0,1.9601035,3084.4205,1291.2843)"
       x1="1128.5424"
       y1="-358.21252"
       x2="1128.5"
       y2="-350.88782" />
    <linearGradient
       inkscape:collect="always"
       xlink:href="#linearGradient3265-7-8"
       id="linearGradient6696"
       gradientUnits="userSpaceOnUse"
       gradientTransform="matrix(1.9601035,0,0,1.9601035,-1268.7026,1291.2843)"
       x1="1128.5424"
       y1="-358.21252"
       x2="1128.5"
       y2="-350.88782" />
    <linearGradient
       inkscape:collect="always"
       xlink:href="#linearGradient3265-7-8"
       id="linearGradient9421"
       gradientUnits="userSpaceOnUse"
       gradientTransform="matrix(-1.9601035,0,0,1.9601035,3084.4205,1291.2843)"
       x1="1128.5424"
       y1="-358.21252"
       x2="1128.5"
       y2="-350.88782" />
    <linearGradient
       inkscape:collect="always"
       xlink:href="#linearGradient3265-7-8"
       id="linearGradient9423"
       gradientUnits="userSpaceOnUse"
       gradientTransform="matrix(1.9601035,0,0,1.9601035,-1268.7026,1291.2843)"
       x1="1128.5424"
       y1="-358.21252"
       x2="1128.5"
       y2="-350.88782" />
    <linearGradient
       inkscape:collect="always"
       xlink:href="#linearGradient4094-1"
       id="linearGradient9425"
       gradientUnits="userSpaceOnUse"
       gradientTransform="matrix(0.64156397,0,0,0.64156397,-240.46334,1048.4872)"
       x1="987.61987"
       y1="-434.2847"
       x2="919.21014"
       y2="-435.80673" />
    <linearGradient
       inkscape:collect="always"
       xlink:href="#linearGradient4122-9"
       id="linearGradient9427"
       gradientUnits="userSpaceOnUse"
       gradientTransform="matrix(0.76362355,0,0,0.76362355,-529.2141,788.2198)"
       x1="1627.4237"
       y1="-275.98389"
       x2="1568.8258"
       y2="-208.25383" />
    <linearGradient
       inkscape:collect="always"
       xlink:href="#linearGradient3310"
       id="linearGradient9429"
       gradientUnits="userSpaceOnUse"
       x1="1748.3407"
       y1="-227.81718"
       x2="1759.3722"
       y2="-149.25218" />
    <radialGradient
       inkscape:collect="always"
       xlink:href="#linearGradient4871"
       id="radialGradient9431"
       gradientUnits="userSpaceOnUse"
       gradientTransform="matrix(1.6682146,1.6471163,-0.88417937,0.89550496,-1046.6412,-1706.4218)"
       cx="1014.4006"
       cy="-408.6366"
       fx="1014.4006"
       fy="-408.6366"
       r="120.84957" />
    <linearGradient
       inkscape:collect="always"
       xlink:href="#linearGradient3209"
       id="linearGradient9433"
       gradientUnits="userSpaceOnUse"
       x1="1033.9359"
       y1="-312.79977"
       x2="1033.103"
       y2="-341.95212" />
    <linearGradient
       inkscape:collect="always"
       xlink:href="#linearGradient3219"
       id="linearGradient9435"
       gradientUnits="userSpaceOnUse"
       x1="1033.9359"
       y1="-312.79977"
       x2="1033.103"
       y2="-341.95212" />
    <linearGradient
       inkscape:collect="always"
       xlink:href="#linearGradient4136"
       id="linearGradient9437"
       gradientUnits="userSpaceOnUse"
       gradientTransform="matrix(1.3519879,0,0,1.3519879,-2458.2999,1401.0995)"
       x1="1621.358"
       y1="-347.02103"
       x2="1731.0365"
       y2="-299.90375" />
    <linearGradient
       inkscape:collect="always"
       xlink:href="#linearGradient4283"
       id="linearGradient9439"
       gradientUnits="userSpaceOnUse"
       gradientTransform="translate(-2538.9898,1459.867)"
       x1="503.56857"
       y1="-348.85837"
       x2="512.40308"
       y2="-335.29108" />
    <linearGradient
       inkscape:collect="always"
       xlink:href="#linearGradient3449"
       id="linearGradient9441"
       gradientUnits="userSpaceOnUse"
       gradientTransform="translate(-2538.9898,1459.867)"
       x1="535.43597"
       y1="-304.05469"
       x2="522.1842"
       y2="-302.79257" />
    <linearGradient
       inkscape:collect="always"
       xlink:href="#linearGradient4233"
       id="linearGradient9443"
       gradientUnits="userSpaceOnUse"
       gradientTransform="translate(-2538.9898,1459.867)"
       x1="492.84091"
       y1="-285.43903"
       x2="581.34399"
       y2="-291.27615" />
    <linearGradient
       inkscape:collect="always"
       xlink:href="#linearGradient4817"
       id="linearGradient9445"
       gradientUnits="userSpaceOnUse"
       gradientTransform="matrix(0.89679722,0,0,0.89679722,-2045.7805,1424)"
       x1="660.06604"
       y1="-501.25412"
       x2="616.52441"
       y2="-327.7186" />
    <linearGradient
       inkscape:collect="always"
       xlink:href="#linearGradient5181"
       id="linearGradient9447"
       gradientUnits="userSpaceOnUse"
       gradientTransform="translate(-1159.9752,1449.158)"
       x1="-276.65112"
       y1="-462.97198"
       x2="-282.89807"
       y2="-279.57907" />
    <linearGradient
       inkscape:collect="always"
       xlink:href="#linearGradient5172"
       id="linearGradient9449"
       gradientUnits="userSpaceOnUse"
       gradientTransform="matrix(0.89679722,0,0,0.89679722,-2045.7805,1424)"
       x1="533.96741"
       y1="-432.47049"
       x2="555.86011"
       y2="-240.41187" />
    <linearGradient
       inkscape:collect="always"
       xlink:href="#linearGradient4817"
       id="linearGradient9451"
       gradientUnits="userSpaceOnUse"
       gradientTransform="matrix(0.82173933,0,0,0.82173933,-2014.5348,1366.3891)"
       x1="626.62103"
       y1="-258.30438"
       x2="602.01056"
       y2="-402.81216" />
    <linearGradient
       inkscape:collect="always"
       xlink:href="#linearGradient5193"
       id="linearGradient9453"
       gradientUnits="userSpaceOnUse"
       gradientTransform="matrix(0.89679722,0,0,0.89679722,-2020.1702,1428.0016)"
       x1="564.45752"
       y1="-396.48645"
       x2="567.13477"
       y2="-318.39944" />
    <linearGradient
       inkscape:collect="always"
       xlink:href="#linearGradient3360"
       id="linearGradient9455"
       gradientUnits="userSpaceOnUse"
       gradientTransform="translate(-1124.2237,1458.7504)"
       x1="452.13895"
       y1="-403.7587"
       x2="425.63535"
       y2="-424.26743" />
    <linearGradient
       inkscape:collect="always"
       xlink:href="#linearGradient3360"
       id="linearGradient9457"
       gradientUnits="userSpaceOnUse"
       gradientTransform="translate(-1124.2237,1458.7504)"
       x1="452.13895"
       y1="-403.7587"
       x2="425.63535"
       y2="-424.26743" />
    <radialGradient
       inkscape:collect="always"
       xlink:href="#linearGradient3338"
       id="radialGradient9459"
       gradientUnits="userSpaceOnUse"
       gradientTransform="matrix(0.51554821,-0.84568081,1.1288979,0.68820444,-643.46887,1694.073)"
       cx="423.07739"
       cy="-187.4471"
       fx="423.07739"
       fy="-187.4471"
       r="166.84651" />
    <linearGradient
       inkscape:collect="always"
       xlink:href="#linearGradient3380"
       id="linearGradient9461"
       gradientUnits="userSpaceOnUse"
       gradientTransform="translate(-1104.5149,1460.497)"
       x1="549.00745"
       y1="-310.31183"
       x2="511.80453"
       y2="-309.47519" />
    <linearGradient
       inkscape:collect="always"
       xlink:href="#linearGradient3394"
       id="linearGradient9463"
       gradientUnits="userSpaceOnUse"
       gradientTransform="translate(-1035.7984,1460.497)"
       x1="548.9787"
       y1="-310.0397"
       x2="511.74536"
       y2="-309.25769" />
    <linearGradient
       inkscape:collect="always"
       xlink:href="#linearGradient4338"
       id="linearGradient9465"
       gradientUnits="userSpaceOnUse"
       gradientTransform="matrix(1.1870923,0,0,1.1870923,557.10763,972.51967)"
       x1="506.36237"
       y1="-254.24303"
       x2="505.8338"
       y2="-219.35794" />
    <linearGradient
       inkscape:collect="always"
       xlink:href="#linearGradient4300"
       id="linearGradient9467"
       gradientUnits="userSpaceOnUse"
       gradientTransform="matrix(0.83444929,0,0,0.83444929,695.02334,866.91126)"
       x1="521.0072"
       y1="-422.45435"
       x2="521.0072"
       y2="-338.73444" />
    <linearGradient
       inkscape:collect="always"
       xlink:href="#linearGradient4274"
       id="linearGradient9469"
       gradientUnits="userSpaceOnUse"
       gradientTransform="matrix(0.83444929,0,0,0.83444929,741.18088,866.91126)"
       x1="536.79242"
       y1="-366.81332"
       x2="556.42566"
       y2="-324.86945" />
    <linearGradient
       inkscape:collect="always"
       xlink:href="#linearGradient3146"
       id="linearGradient9471"
       gradientUnits="userSpaceOnUse"
       gradientTransform="translate(-25.414983,34.384977)"
       x1="538.38654"
       y1="-301.92004"
       x2="535.34979"
       y2="-301.63974" />
    <linearGradient
       inkscape:collect="always"
       xlink:href="#linearGradient3117"
       id="linearGradient9473"
       gradientUnits="userSpaceOnUse"
       gradientTransform="matrix(1.6191115,1.2420631,-1.2420631,1.6191115,-653.89128,220.57021)"
       x1="192.85487"
       y1="-417.59561"
       x2="159.96489"
       y2="-408.62561" />
    <linearGradient
       inkscape:collect="always"
       xlink:href="#linearGradient3117"
       id="linearGradient9475"
       gradientUnits="userSpaceOnUse"
       gradientTransform="translate(-63.427437,6.3427437)"
       x1="192.85487"
       y1="-417.59561"
       x2="159.96489"
       y2="-408.62561" />
    <linearGradient
       inkscape:collect="always"
       xlink:href="#linearGradient3139"
       id="linearGradient9477"
       gradientUnits="userSpaceOnUse"
       gradientTransform="translate(-47.042016,6.3427437)"
       x1="159.62572"
       y1="-254.24301"
       x2="132.40479"
       y2="-254.24301" />
    <linearGradient
       inkscape:collect="always"
       xlink:href="#linearGradient3971"
       id="linearGradient9479"
       gradientUnits="userSpaceOnUse"
       gradientTransform="matrix(0.9140942,0,0,0.9140942,290.747,786.33643)"
       x1="441.53964"
       y1="-273.2981"
       x2="511.65836"
       y2="-286.14163" />
    <linearGradient
       inkscape:collect="always"
       xlink:href="#linearGradient3911"
       id="linearGradient9481"
       gradientUnits="userSpaceOnUse"
       gradientTransform="translate(0,-16.661873)"
       x1="519.29504"
       y1="-260.8017"
       x2="508.18713"
       y2="-300.37363" />
    <linearGradient
       inkscape:collect="always"
       xlink:href="#linearGradient3604"
       id="linearGradient9483"
       gradientUnits="userSpaceOnUse"
       gradientTransform="matrix(1.1100531,0,0,1.1100531,2931.5428,903.46763)"
       x1="-1801.6218"
       y1="-327.32669"
       x2="-1798.4309"
       y2="-249.51823" />
    <linearGradient
       inkscape:collect="always"
       xlink:href="#linearGradient3578"
       id="linearGradient9485"
       gradientUnits="userSpaceOnUse"
       gradientTransform="matrix(1.1100531,0,0,1.1100531,2863.0486,903.46763)"
       x1="-1887.6512"
       y1="-315.29987"
       x2="-1887.4778"
       y2="-254.37988" />
    <linearGradient
       inkscape:collect="always"
       xlink:href="#linearGradient4338"
       id="linearGradient10592"
       gradientUnits="userSpaceOnUse"
       gradientTransform="matrix(1.1870923,0,0,1.1870923,557.10763,972.51967)"
       x1="506.36237"
       y1="-254.24303"
       x2="505.8338"
       y2="-219.35794" />
    <linearGradient
       inkscape:collect="always"
       xlink:href="#linearGradient4300"
       id="linearGradient10594"
       gradientUnits="userSpaceOnUse"
       gradientTransform="matrix(0.83444929,0,0,0.83444929,695.02334,866.91126)"
       x1="521.0072"
       y1="-422.45435"
       x2="521.0072"
       y2="-338.73444" />
    <linearGradient
       inkscape:collect="always"
       xlink:href="#linearGradient4274"
       id="linearGradient10596"
       gradientUnits="userSpaceOnUse"
       gradientTransform="matrix(0.83444929,0,0,0.83444929,741.18088,866.91126)"
       x1="536.79242"
       y1="-366.81332"
       x2="556.42566"
       y2="-324.86945" />
    <linearGradient
       inkscape:collect="always"
       xlink:href="#linearGradient3604"
       id="linearGradient10598"
       gradientUnits="userSpaceOnUse"
       gradientTransform="matrix(1.1100531,0,0,1.1100531,2931.5428,903.46763)"
       x1="-1801.6218"
       y1="-327.32669"
       x2="-1798.4309"
       y2="-249.51823" />
    <linearGradient
       inkscape:collect="always"
       xlink:href="#linearGradient3578"
       id="linearGradient10600"
       gradientUnits="userSpaceOnUse"
       gradientTransform="matrix(1.1100531,0,0,1.1100531,2863.0486,903.46763)"
       x1="-1887.6512"
       y1="-315.29987"
       x2="-1887.4778"
       y2="-254.37988" />
    <linearGradient
       inkscape:collect="always"
       xlink:href="#linearGradient3971"
       id="linearGradient10602"
       gradientUnits="userSpaceOnUse"
       gradientTransform="matrix(0.9140942,0,0,0.9140942,290.747,786.33643)"
       x1="441.53964"
       y1="-273.2981"
       x2="511.65836"
       y2="-286.14163" />
    <linearGradient
       inkscape:collect="always"
       xlink:href="#linearGradient3911"
       id="linearGradient10604"
       gradientUnits="userSpaceOnUse"
       gradientTransform="translate(0,-16.661873)"
       x1="519.29504"
       y1="-260.8017"
       x2="508.18713"
       y2="-300.37363" />
    <linearGradient
       inkscape:collect="always"
       xlink:href="#linearGradient3117"
       id="linearGradient10606"
       gradientUnits="userSpaceOnUse"
       gradientTransform="matrix(1.6191115,1.2420631,-1.2420631,1.6191115,-653.89128,220.57021)"
       x1="192.85487"
       y1="-417.59561"
       x2="159.96489"
       y2="-408.62561" />
    <linearGradient
       inkscape:collect="always"
       xlink:href="#linearGradient3117"
       id="linearGradient10608"
       gradientUnits="userSpaceOnUse"
       gradientTransform="translate(-63.427437,6.3427437)"
       x1="192.85487"
       y1="-417.59561"
       x2="159.96489"
       y2="-408.62561" />
    <linearGradient
       inkscape:collect="always"
       xlink:href="#linearGradient3139"
       id="linearGradient10610"
       gradientUnits="userSpaceOnUse"
       gradientTransform="translate(-47.042016,6.3427437)"
       x1="159.62572"
       y1="-254.24301"
       x2="132.40479"
       y2="-254.24301" />
    <linearGradient
       inkscape:collect="always"
       xlink:href="#linearGradient3146"
       id="linearGradient10612"
       gradientUnits="userSpaceOnUse"
       gradientTransform="translate(-25.414983,34.384977)"
       x1="538.38654"
       y1="-301.92004"
       x2="535.34979"
       y2="-301.63974" />
  </defs>
  <sodipodi:namedview
     id="base"
     pagecolor="#ffffff"
     bordercolor="#666666"
     borderopacity="1.0"
     inkscape:pageopacity="0.0"
     inkscape:pageshadow="2"
     inkscape:zoom="0.15874582"
     inkscape:cx="2905.086"
     inkscape:cy="1163.0651"
     inkscape:document-units="px"
     inkscape:current-layer="layer1"
     showgrid="false"
     fit-margin-top="0"
     fit-margin-left="0"
     fit-margin-right="0"
     fit-margin-bottom="0"
     inkscape:window-width="1920"
     inkscape:window-height="1017"
     inkscape:window-x="0"
     inkscape:window-y="28"
     inkscape:window-maximized="1"
     showguides="true"
     inkscape:guide-bbox="true"
     inkscape:snap-grids="false"
     inkscape:snap-to-guides="false">
    <sodipodi:guide
       orientation="0,1"
       position="371.87981,1115.6394"
       id="guide6622" />
    <sodipodi:guide
       orientation="0,1"
       position="73.848474,189.89608"
       id="guide6624" />
    <sodipodi:guide
       orientation="1,0"
       position="363.96748,1521.806"
       id="guide6626" />
    <sodipodi:guide
       orientation="1,0"
       position="862.44468,1442.6827"
       id="guide6628" />
  </sodipodi:namedview>
  <metadata
     id="metadata7">
    <rdf:RDF>
      <cc:Work
         rdf:about="">
        <dc:format>image/svg+xml</dc:format>
        <dc:type
           rdf:resource="http://purl.org/dc/dcmitype/StillImage" />
        <dc:title></dc:title>
      </cc:Work>
    </rdf:RDF>
  </metadata>
  <g
     inkscape:label="Capa 1"
     inkscape:groupmode="layer"
     id="layer1"
     transform="translate(15278.44,186.36436)">
    <rect
       style="opacity:0.8;fill:#000000;fill-opacity:1;stroke:none"
       id="rect6564"
       width="23217.738"
       height="1351.7388"
       x="-15278.44"
       y="-186.36436" />
    <g
       id="g7644">
      <g
         transform="translate(-13072.204,26.253133)"
         id="g7875">
        <g
           style="font-size:204.73330688px;font-style:normal;font-variant:normal;font-weight:normal;font-stretch:normal;line-height:125%;letter-spacing:0px;word-spacing:0px;fill:#ffffff;fill-opacity:1;stroke:none;font-family:Short Stack;-inkscape-font-specification:Short Stack"
           id="text3044-7">
          <path
             inkscape:connector-curvature="0"
             d="m -1709.2846,544.41135 c -10e-5,-1.93269 0.1666,-3.83207 0.4998,-5.69814 0.3332,-1.86604 0.4998,-3.83207 0.4998,-5.89808 0,-1.46616 -0.1666,-3.49883 -0.4998,-6.09802 -0.2666,-2.66576 -0.5998,-5.66478 -0.9997,-8.99706 -0.3999,-3.33221 -0.8664,-6.89771 -1.3995,-10.69652 -0.5332,-3.86535 -0.9997,-7.69743 -1.3996,-11.49626 -0.3999,-3.86534 -0.7664,-7.63077 -1.0996,-11.29632 -0.2666,-3.66539 -0.3999,-6.99763 -0.3999,-9.99674 0,-2.59907 0.033,-5.53144 0.1,-8.79713 0.067,-3.33216 0.2999,-6.59775 0.6998,-9.79681 0.4665,-3.2655 1.1662,-6.26452 2.0993,-8.99707 0.9996,-2.79897 2.3992,-4.99826 4.1986,-6.59785 6.9311,-6.06457 14.4286,-10.89632 22.4927,-14.49528 8.064,-3.59869 16.8278,-5.3981 26.2914,-5.39824 4.5984,1.4e-4 9.1636,0.59994 13.6956,1.79941 4.5317,1.19975 8.6304,3.0658 12.296,5.59818 3.6653,2.53264 6.631,5.79823 8.8971,9.79681 2.2658,3.93217 3.3987,8.63063 3.3988,14.09541 -10e-5,4.06544 -0.8998,7.63094 -2.6991,10.69651 -1.7328,3.06576 -3.9321,5.73156 -6.5978,7.9974 -2.6659,2.19937 -5.5983,4.09874 -8.7972,5.69814 -3.1324,1.53291 -6.1314,2.79917 -8.997,3.79876 2.8656,0.0667 5.9979,0.53324 9.3969,1.39955 3.3988,0.79981 6.6977,1.86613 9.8968,3.19895 3.1988,1.33298 6.0979,2.86581 8.6972,4.59851 2.599,1.73283 4.5317,3.56557 5.7981,5.49821 2.4657,3.93211 4.3984,8.16406 5.7981,12.69586 1.466,4.5319 2.5324,9.36366 3.1989,14.49528 0.733,5.13169 1.1662,10.52993 1.2996,16.19472 0.1998,5.66484 0.2998,11.59623 0.2999,17.79421 -10e-5,1.46619 -0.4,2.79908 -1.1996,3.99869 -0.7332,1.19961 -1.6329,2.23261 -2.6991,3.09899 -1.0665,0.86638 -2.2327,1.53283 -3.4989,1.99935 -1.1997,0.53315 -2.2327,0.79973 -3.099,0.79974 -1.9994,-10e-6 -3.5989,-0.39987 -4.7984,-1.19961 -1.1331,-0.7331 -1.9995,-1.76609 -2.5992,-3.09899 -0.5999,-1.3329 -0.9997,-2.86573 -1.1996,-4.5985 -0.1334,-1.79941 -0.2,-3.69879 -0.1999,-5.69814 -10e-5,-2.06599 0.1332,-4.13198 0.3999,-6.19798 0.3331,-2.13263 0.4997,-4.53184 0.4998,-7.19766 -10e-5,-1.99933 -0.067,-4.13196 -0.1999,-6.39792 -0.1334,-2.33254 -0.3667,-4.59847 -0.6998,-6.79778 -0.2667,-2.26589 -0.6332,-4.43185 -1.0996,-6.49788 -0.4667,-2.1326 -1.0331,-4.03198 -1.6995,-5.69815 -1.7329,-4.06529 -4.232,-7.33089 -7.4975,-9.79681 -3.1991,-2.53245 -6.8312,-4.49847 -10.8965,-5.89808 -3.9988,-1.39948 -8.1974,-2.33251 -12.5959,-2.79908 -4.3986,-0.46645 -8.6306,-0.69971 -12.6959,-0.69978 -0.9997,7e-5 -2.6325,0.16668 -4.8984,0.49984 -2.1993,0.33329 -4.5652,0.7998 -7.0976,1.39955 -2.5326,0.59986 -4.9985,1.33296 -7.3976,2.19928 -2.3327,0.86644 -4.1321,1.83279 -5.3983,2.89905 0,3.39895 0.1666,7.0311 0.4999,10.89645 0.3331,3.79881 0.7663,7.66421 1.2995,11.59623 0.5332,3.93208 1.1663,7.79749 1.8994,11.59622 0.7331,3.73214 1.4662,7.23099 2.1993,10.49658 0.067,0.33324 0.1,0.63314 0.1,0.89971 0.067,0.26659 0.1,0.56649 0.1,0.8997 0,1.33291 -0.3332,2.56584 -0.9996,3.6988 -0.6665,1.13297 -1.5662,2.09932 -2.6992,2.89905 -1.0663,0.79975 -2.3326,1.43288 -3.7987,1.89939 -1.4663,0.39987 -3.0324,0.5998 -4.6985,0.5998 -1.3329,0 -2.6325,-0.33322 -3.8987,-0.99967 -1.1997,-0.66645 -2.266,-1.49951 -3.199,-2.49919 -0.8664,-1.06631 -1.5662,-2.2326 -2.0993,-3.49886 -0.5332,-1.33289 -0.7998,-2.63246 -0.7997,-3.89873 m 13.9954,-65.0788 c 1.866,-0.0666 4.5651,-0.43311 8.0974,-1.09964 3.5321,-0.73302 7.3975,-1.69937 11.5962,-2.89906 4.2652,-1.19952 8.5971,-2.59907 12.9958,-4.19863 4.4651,-1.59939 8.4971,-3.33216 12.096,-5.19831 3.6654,-1.86596 6.6311,-3.83199 8.8971,-5.89807 2.3325,-2.13254 3.4988,-4.26518 3.4989,-6.39792 -10e-5,-3.53208 -0.6332,-6.39781 -1.8994,-8.5972 -1.1997,-2.26581 -2.7992,-4.0319 -4.7984,-5.29827 -1.9995,-1.26614 -4.2654,-2.13252 -6.7978,-2.59916 -2.466,-0.46639 -4.9318,-0.69965 -7.3976,-0.69977 -2.266,1.2e-4 -4.7652,0.20006 -7.4976,0.59981 -2.7325,0.39999 -5.4649,1.03311 -8.1973,1.89938 -2.7325,0.79985 -5.3983,1.79953 -7.9974,2.99902 -2.5326,1.19972 -4.7985,2.56594 -6.7978,4.09866 -1.9994,1.53295 -3.5989,3.26572 -4.7984,5.19831 -1.1997,1.93281 -1.7995,3.9988 -1.7994,6.19798 -10e-5,3.93215 0.033,7.66427 0.1,11.19635 0.067,3.53227 0.2999,7.09777 0.6998,10.69652"
             id="path6942" />
          <path
             inkscape:connector-curvature="0"
             d="m -1572.5292,545.41102 c 0,-1.73275 0.1,-3.53216 0.2999,-5.39824 0.1999,-1.86604 0.2999,-3.66545 0.2999,-5.39824 0,-4.06531 -0.1999,-8.29726 -0.5998,-12.69586 -0.3332,-3.53215 -0.5332,-7.23094 -0.5998,-11.09639 0,-3.86535 0.1333,-7.26424 0.3999,-10.19668 l 3.2989,-39.48713 c 0.2666,-3.19886 1.0663,-5.73137 2.3992,-7.59753 1.3995,-1.9326 3.8654,-2.89895 7.3976,-2.89905 1.4662,10e-5 2.7324,0.26668 3.7988,0.79974 1.1329,0.46662 2.0659,1.09974 2.7991,1.89938 0.7997,0.79984 1.4328,1.69955 1.8993,2.69912 0.4665,0.93313 0.7997,1.86616 0.9997,2.79909 2.7324,-2.0659 5.7314,-3.83199 8.9971,-5.29828 3.2655,-1.46608 6.6311,-2.66569 10.0967,-3.59883 3.4655,-0.93292 6.9643,-1.59936 10.4966,-1.99934 3.5321,-0.46641 6.9643,-0.69967 10.2966,-0.69978 2.799,1.1e-4 5.998,0.20005 9.5969,0.59981 3.5987,0.33333 6.9976,1.09975 10.1967,2.29925 3.1988,1.19972 5.898,2.93248 8.0973,5.19831 2.1992,2.26602 3.2989,5.33169 3.299,9.197 -10e-5,2.73253 -0.8665,4.96514 -2.5992,6.69782 -1.6662,1.66621 -3.8988,2.49927 -6.6978,2.49918 -2.1327,9e-5 -3.7989,-0.46643 -4.9984,-1.39954 -1.1997,-0.99959 -2.266,-2.09923 -3.1989,-3.29893 -0.4,-0.46642 -0.8665,-0.96626 -1.3996,-1.49951 -0.5332,-0.53307 -1.2996,-1.0329 -2.2992,-1.49951 -0.9331,-0.46642 -2.1661,-0.83297 -3.6988,-1.09964 -1.5329,-0.26649 -3.499,-0.39978 -5.8981,-0.39987 -7.531,9e-5 -14.0622,0.79983 -19.5936,2.39922 -5.5316,1.53292 -10.0968,3.96546 -13.6956,7.29762 -3.5988,3.33233 -6.2646,7.63092 -7.9974,12.8958 -1.7328,5.19837 -2.5991,11.46299 -2.5991,18.79388 0,2.73249 0.033,5.33164 0.1,7.79746 0.067,2.39926 0.1665,4.79847 0.2999,7.19765 0.1999,2.39926 0.3998,4.83179 0.5998,7.29763 0.1999,2.46589 0.3998,5.09836 0.5998,7.89742 0.1332,2.13266 0.3332,4.33194 0.5998,6.59785 0.2665,2.26595 0.3998,4.46523 0.3998,6.59785 0,0.59982 -0.1666,1.43288 -0.4998,2.49919 -0.3333,1.06633 -0.8997,2.13264 -1.6994,3.19896 -0.7332,0.99968 -1.7328,1.89938 -2.9991,2.69912 -1.1996,0.73309 -2.6991,1.09964 -4.4985,1.09964 -2.3326,0 -4.2653,-0.26658 -5.7981,-0.79974 -1.4662,-0.53316 -2.6658,-1.3329 -3.5988,-2.39922 -0.8664,-1.13296 -1.4662,-2.5325 -1.7994,-4.19863 -0.3333,-1.73276 -0.4999,-3.73211 -0.4999,-5.99805"
             id="path6944" />
        </g>
        <g
           style="font-size:120.21715546px;font-style:normal;font-weight:normal;line-height:125%;letter-spacing:0px;word-spacing:0px;fill:#ffffff;fill-opacity:1;stroke:none;font-family:Sans"
           id="text3048-92">
          <path
             inkscape:connector-curvature="0"
             d="m -1787.0228,670.76322 c 0,-1.13486 0.098,-2.25015 0.2935,-3.34589 0.1956,-1.09572 0.2935,-2.25015 0.2935,-3.46329 0,-0.86091 -0.098,-2.05447 -0.2935,-3.58069 -0.1566,-1.5653 -0.3522,-3.3263 -0.587,-5.28298 -0.2348,-1.95663 -0.5088,-4.05025 -0.8218,-6.28087 -0.3131,-2.2697 -0.587,-4.51985 -0.8218,-6.75048 -0.2348,-2.26968 -0.4501,-4.48071 -0.6457,-6.63307 -0.1566,-2.15228 -0.2348,-4.10894 -0.2348,-5.86998 0,-1.52615 0.02,-3.248 0.059,-5.16558 0.039,-1.95661 0.1761,-3.87413 0.4109,-5.75258 0.2739,-1.91747 0.6848,-3.67846 1.2327,-5.28298 0.587,-1.64353 1.4088,-2.93492 2.4654,-3.87419 4.0698,-3.56105 8.4723,-6.3982 13.2074,-8.51147 4.7351,-2.11311 9.8811,-3.1697 15.4381,-3.16978 2.7001,8e-5 5.3807,0.35227 8.0418,1.05659 2.661,0.70448 5.0677,1.80021 7.2201,3.28719 2.1523,1.48714 3.8937,3.40466 5.2243,5.75258 1.3304,2.30892 1.9957,5.06781 1.9958,8.27667 -10e-5,2.38718 -0.5284,4.48081 -1.5849,6.28087 -1.0175,1.80019 -2.3089,3.36551 -3.8742,4.69599 -1.5654,1.29144 -3.2872,2.40674 -5.1656,3.34588 -1.8393,0.90012 -3.6003,1.64365 -5.283,2.2306 1.6827,0.0392 3.522,0.31311 5.5178,0.82179 1.9958,0.46965 3.9328,1.09578 5.8113,1.8784 1.8783,0.7827 3.5806,1.68277 5.1069,2.70019 1.5261,1.0175 2.661,2.09366 3.4046,3.22848 1.4478,2.3089 2.5827,4.79385 3.4046,7.45488 0.8608,2.66108 1.4869,5.49823 1.8783,8.51147 0.4304,3.01327 0.6848,6.18305 0.7631,9.50936 0.1174,3.32633 0.1761,6.80918 0.1761,10.44856 0,0.86093 -0.2348,1.6436 -0.7044,2.34799 -0.4305,0.7044 -0.9588,1.31096 -1.5849,1.8197 -0.6262,0.50872 -1.311,0.90006 -2.0544,1.17399 -0.7045,0.31306 -1.3111,0.4696 -1.8197,0.4696 -1.1741,0 -2.1133,-0.2348 -2.8176,-0.7044 -0.6654,-0.43047 -1.1741,-1.03703 -1.5262,-1.81969 -0.3523,-0.78267 -0.5871,-1.68273 -0.7044,-2.70019 -0.078,-1.05659 -0.1175,-2.17189 -0.1174,-3.34589 -10e-5,-1.21312 0.078,-2.42625 0.2348,-3.63938 0.1956,-1.25226 0.2934,-2.66105 0.2935,-4.22639 -1e-4,-1.17398 -0.039,-2.42624 -0.1174,-3.75679 -0.078,-1.36964 -0.2153,-2.70017 -0.4109,-3.99158 -0.1566,-1.33051 -0.3718,-2.60234 -0.6457,-3.81549 -0.274,-1.25223 -0.6066,-2.36753 -0.9979,-3.34588 -1.0175,-2.3871 -2.485,-4.30462 -4.4025,-5.75258 -1.8784,-1.48703 -4.0112,-2.64146 -6.3983,-3.46329 -2.348,-0.82176 -4.8134,-1.36962 -7.3961,-1.64359 -2.5829,-0.2739 -5.0678,-0.41086 -7.4549,-0.4109 -0.5871,4e-5 -1.5458,0.0979 -2.8763,0.2935 -1.2914,0.1957 -2.6807,0.46963 -4.1677,0.82179 -1.4871,0.35224 -2.935,0.7827 -4.3438,1.2914 -1.3697,0.50877 -2.4263,1.0762 -3.1698,1.70229 0,1.99583 0.098,4.12858 0.2935,6.39828 0.1957,2.23062 0.45,4.50034 0.7631,6.80917 0.3131,2.30888 0.6848,4.5786 1.1153,6.80918 0.4305,2.19147 0.8609,4.24596 1.2914,6.16348 0.039,0.19567 0.059,0.37177 0.059,0.52829 0.039,0.15654 0.059,0.33264 0.059,0.5283 0,0.78267 -0.1957,1.50663 -0.587,2.17189 -0.3913,0.66527 -0.9196,1.2327 -1.5849,1.7023 -0.6261,0.4696 -1.3697,0.84136 -2.2306,1.11529 -0.8609,0.2348 -1.7805,0.3522 -2.7588,0.3522 -0.7827,0 -1.5458,-0.19566 -2.2893,-0.587 -0.7045,-0.39133 -1.3306,-0.88049 -1.8784,-1.46749 -0.5088,-0.62613 -0.9197,-1.31096 -1.2327,-2.05449 -0.3131,-0.78266 -0.4696,-1.54576 -0.4696,-2.28929 m 8.2179,-38.21356 c 1.0957,-0.0391 2.6806,-0.25432 4.7547,-0.6457 2.0741,-0.43042 4.3438,-0.99785 6.8092,-1.70229 2.5045,-0.70435 5.0481,-1.52615 7.631,-2.4654 2.6219,-0.93914 4.9894,-1.9566 7.1026,-3.05238 2.1523,-1.09568 3.8937,-2.25011 5.2243,-3.46329 1.3696,-1.2522 2.0545,-2.50447 2.0545,-3.75679 0,-2.07399 -0.3718,-3.75672 -1.1153,-5.04818 -0.7044,-1.33046 -1.6436,-2.36749 -2.8176,-3.11109 -1.174,-0.74346 -2.5045,-1.25219 -3.9916,-1.52619 -1.4479,-0.27386 -2.8959,-0.41083 -4.3437,-0.4109 -1.3306,7e-5 -2.7981,0.11747 -4.4025,0.3522 -1.6045,0.23487 -3.209,0.60663 -4.8134,1.11529 -1.6045,0.46967 -3.1698,1.05667 -4.696,1.761 -1.4871,0.70446 -2.8176,1.50669 -3.9916,2.40669 -1.174,0.90013 -2.1132,1.91759 -2.8176,3.05239 -0.7044,1.13492 -1.0566,2.34805 -1.0566,3.63938 0,2.30892 0.02,4.50038 0.059,6.57438 0.039,2.07411 0.1761,4.16773 0.4109,6.28088"
             style="font-variant:normal;font-stretch:normal;font-family:Short Stack;-inkscape-font-specification:Short Stack"
             id="path6931" />
          <path
             inkscape:connector-curvature="0"
             d="m -1709.95,653.91638 c 0,-3.05236 0.4304,-6.22215 1.2914,-9.50937 0.9,-3.32628 2.1719,-6.4178 3.8155,-9.27456 1.5653,-2.85668 3.4828,-5.5373 5.7525,-8.04187 2.3089,-2.50447 4.8721,-4.67636 7.6897,-6.51568 2.8176,-1.87833 5.8504,-3.34582 9.0985,-4.40248 3.2871,-1.09567 6.7113,-1.64353 10.2724,-1.6436 2.7002,7e-5 5.3025,0.37183 7.8071,1.1153 2.5045,0.70446 4.8525,1.68279 7.044,2.93499 2.1914,1.25232 4.1872,2.73938 5.9874,4.46118 1.8392,1.72192 3.4045,3.58074 4.6959,5.57648 1.2914,1.95671 2.2893,4.0112 2.9937,6.16348 0.7044,2.15237 1.0566,4.30469 1.0566,6.45697 0,1.91757 -0.1174,3.61986 -0.3522,5.10689 -0.1957,1.44795 -0.4501,2.89588 -0.7631,4.34378 -0.2348,1.48709 -0.4696,3.03285 -0.7044,4.63728 -0.2348,1.56535 -0.3522,3.40461 -0.3522,5.51778 0,1.83928 0.1369,3.36547 0.4109,4.57859 0.2739,1.174 0.6652,2.13277 1.174,2.87628 0.5087,0.74355 1.1153,1.27184 1.8197,1.5849 0.7435,0.27394 1.5653,0.41091 2.4654,0.4109 0.2347,10e-6 0.5282,-0.0587 0.8805,-0.1761 0.3521,-0.15653 0.6848,-0.31306 0.9979,-0.4696 0.313,-0.19566 0.5869,-0.37176 0.8218,-0.5283 0.2347,-0.19565 0.3913,-0.35219 0.4696,-0.4696 0.4304,-0.43045 0.8413,-0.80222 1.2327,-1.11529 0.4304,-0.35219 0.9978,-0.52829 1.7023,-0.5283 1.4087,10e-6 2.4653,0.33264 3.1698,0.9979 0.7434,0.66527 1.1152,1.761 1.1153,3.28718 -1e-4,0.93921 -0.2936,1.91754 -0.8805,2.93499 -0.548,1.01747 -1.3306,1.95666 -2.348,2.81759 -1.0176,0.8218 -2.2307,1.50663 -3.6394,2.05449 -1.4089,0.54787 -2.9742,0.8218 -4.696,0.8218 -3.4438,0 -6.3983,-0.95876 -8.8636,-2.87629 -2.4264,-1.95665 -4.1678,-4.61771 -5.2243,-7.98317 -1.448,1.5262 -3.0329,2.9937 -4.7547,4.40249 -1.7219,1.36966 -3.6199,2.58279 -5.6939,3.63938 -2.0741,1.01747 -4.383,1.8197 -6.9266,2.40669 -2.5045,0.62613 -5.283,0.9392 -8.3353,0.9392 -2.3089,0 -4.6765,-0.31307 -7.1027,-0.9392 -2.3872,-0.62613 -4.7156,-1.50662 -6.9853,-2.64149 -2.2306,-1.13486 -4.3242,-2.50452 -6.2809,-4.10898 -1.9566,-1.64359 -3.6785,-3.44371 -5.1655,-5.40038 -1.448,-1.95665 -2.6024,-4.06984 -3.4633,-6.33958 -0.8218,-2.2697 -1.2327,-4.63726 -1.2327,-7.10267 m 10.9768,-0.1174 c 0,2.42628 0.6457,4.65687 1.9371,6.69177 1.3305,2.03495 3.0328,3.77637 5.1069,5.22428 2.074,1.44794 4.3829,2.58281 6.9266,3.40459 2.5827,0.78267 5.1068,1.17401 7.5723,1.174 3.2871,10e-6 6.3004,-0.62612 9.0397,-1.8784 2.7784,-1.25225 5.146,-2.87627 7.1027,-4.87208 1.9957,-1.99577 3.5415,-4.22636 4.6373,-6.69177 1.0957,-2.5045 1.6435,-4.96989 1.6436,-7.39618 -10e-5,-1.36963 0.2934,-2.56319 0.8805,-3.58068 0.626,-1.05656 1.213,-2.05446 1.761,-2.99369 0.1564,-0.19563 0.2347,-0.48913 0.2348,-0.8805 0.039,-0.43043 0.039,-0.86089 0,-1.29139 -10e-5,-0.46956 -0.02,-0.90003 -0.059,-1.2914 -0.039,-0.39129 -0.059,-0.66522 -0.059,-0.8218 -10e-5,-0.86088 -0.2936,-1.80008 -0.8805,-2.81759 -0.5871,-1.01741 -1.3893,-2.03488 -2.4067,-3.05238 -0.9784,-1.01742 -2.1133,-1.99575 -3.4046,-2.93499 -1.2523,-0.97828 -2.5437,-1.83921 -3.8742,-2.58279 -1.3306,-0.74348 -2.6611,-1.33048 -3.9916,-1.761 -1.3306,-0.46954 -2.5241,-0.70434 -3.5807,-0.70439 -2.9741,5e-5 -5.7526,0.41095 -8.3353,1.23269 -2.5437,0.82185 -4.8721,1.93714 -6.9853,3.34589 -2.1132,1.40884 -4.0112,3.072 -5.6939,4.98948 -1.6436,1.87844 -3.0328,3.89379 -4.1677,6.04608 -1.0957,2.15236 -1.9371,4.38295 -2.5241,6.69177 -0.587,2.30889 -0.8805,4.55905 -0.8805,6.75048"
             style="font-variant:normal;font-stretch:normal;font-family:Short Stack;-inkscape-font-specification:Short Stack"
             id="path6933" />
          <path
             inkscape:connector-curvature="0"
             d="m -1585.4478,679.80298 c -3.8742,0 -7.0831,-0.7631 -9.6267,-2.28929 -2.5437,-1.56532 -4.5982,-3.63938 -6.1635,-6.22218 -1.5654,-2.62191 -2.7394,-5.59603 -3.522,-8.92236 -0.7827,-3.36544 -1.3305,-6.84829 -1.6436,-10.44856 -0.3131,-3.63936 -0.4892,-7.25918 -0.5283,-10.85946 -0.039,-3.60022 -0.098,-6.92653 -0.1761,-9.97897 -1.0566,5e-5 -2.0154,5e-5 -2.8763,0 -0.8218,5e-5 -1.6436,0.0196 -2.4654,0.0587 -0.4696,0.0392 -0.9,0.0783 -1.2914,0.1174 -0.3913,5e-5 -0.8218,0.0196 -1.2914,0.0587 -0.4304,5e-5 -0.9392,0.0196 -1.5262,0.0587 -0.5478,5e-5 -1.2327,5e-5 -2.0544,0 -0.4697,5e-5 -1.0958,-0.11735 -1.8784,-0.3522 -0.7827,-0.23475 -1.5654,-0.56738 -2.348,-0.99789 -0.7827,-0.43042 -1.4675,-0.95872 -2.0545,-1.5849 -0.5479,-0.66521 -0.8218,-1.40874 -0.8218,-2.23059 0,-0.82174 0.1761,-1.58484 0.5283,-2.28929 0.3522,-0.70434 0.8218,-1.29134 1.4088,-1.76099 0.6261,-0.50868 1.3501,-0.90001 2.1719,-1.174 0.8218,-0.27387 1.6827,-0.41084 2.5828,-0.4109 l 12.3269,0.2935 c 0.1174,-0.97827 0.2348,-1.9566 0.3522,-2.93499 0.1174,-0.97827 0.2152,-1.93703 0.2935,-2.87629 0.1174,-1.1348 0.1957,-2.19139 0.2348,-3.16979 0.039,-0.97826 0.098,-1.91745 0.1761,-2.81759 0.078,-0.93912 0.1565,-1.85875 0.2348,-2.75889 0.1174,-0.93912 0.2935,-1.91745 0.5283,-2.93499 0.1174,-0.66518 0.3913,-1.31088 0.8218,-1.93709 0.4304,-0.66518 0.9196,-1.25218 1.4675,-1.76099 0.587,-0.50865 1.1935,-0.91955 1.8197,-1.2327 0.6652,-0.31298 1.2914,-0.46951 1.8784,-0.4696 0.4695,9e-5 0.9587,0.11749 1.4675,0.3522 0.5087,0.23488 0.9783,0.58708 1.4088,1.0566 0.4304,0.43054 0.7826,0.95884 1.0566,1.58489 0.313,0.58708 0.4695,1.25234 0.4696,1.9958 -10e-5,1.5654 -0.02,2.87636 -0.059,3.93288 -10e-5,1.05667 -0.039,1.95673 -0.1174,2.70019 -0.039,0.7436 -0.098,1.3893 -0.1761,1.93709 -0.078,0.54794 -0.1566,1.0958 -0.2348,1.6436 -0.078,0.43053 -0.1566,0.90013 -0.2348,1.40879 -0.039,0.46967 -0.098,1.01753 -0.1761,1.6436 -0.039,0.62619 -0.098,1.35015 -0.1761,2.17189 -0.078,0.78272 -0.1762,1.72192 -0.2935,2.81759 2.2305,-0.0391 4.3437,-0.0782 6.3395,-0.1174 2.0349,-0.0782 4.0307,-0.13691 5.9874,-0.1761 1.9566,-0.0782 3.9524,-0.13691 5.9874,-0.1761 2.0349,-0.0391 4.2068,-0.0586 6.5157,-0.0587 0.7826,6e-5 1.4674,0.21529 2.0545,0.6457 0.626,0.39139 1.1348,0.88055 1.5262,1.46749 0.4304,0.58706 0.7434,1.21319 0.9392,1.8784 0.2347,0.62618 0.3521,1.17404 0.3522,1.64359 -10e-5,0.82185 -0.1762,1.56538 -0.5283,2.23059 -0.3523,0.62618 -0.7828,1.15448 -1.2914,1.5849 -0.5088,0.43051 -1.0763,0.74357 -1.7023,0.93919 -0.6262,0.19572 -1.1936,0.29355 -1.7023,0.2935 l -24.0082,-0.4109 c -0.1566,0.15658 -0.2349,0.33268 -0.2348,0.5283 -1e-4,2.07411 -0.039,4.46123 -0.1174,7.16137 -0.078,2.6611 -0.098,5.38085 -0.059,8.15927 0.078,2.77849 0.2543,5.51781 0.5283,8.21797 0.2739,2.66108 0.763,5.0482 1.4675,7.16138 0.7435,2.07407 1.7414,3.7568 2.9937,5.04818 1.2522,1.2914 2.8958,1.9371 4.9307,1.93709 0.6653,10e-6 1.4479,-0.11739 2.348,-0.3522 0.9392,-0.27392 1.8588,-0.58698 2.7589,-0.93919 0.9,-0.35219 1.7414,-0.74352 2.5241,-1.174 0.7826,-0.43045 1.3892,-0.82178 1.8197,-1.174 0.4304,-0.39131 0.9978,-0.74351 1.7023,-1.05659 0.7043,-0.31305 1.2913,-0.46958 1.761,-0.4696 1.487,2e-5 2.4262,0.37178 2.8176,1.1153 0.4304,0.70441 0.6456,1.68274 0.6457,2.93499 -10e-5,0.43047 -0.098,0.95877 -0.2935,1.58489 -0.1958,0.58701 -0.4501,1.07617 -0.7631,1.46749 -0.7436,0.93921 -1.7219,1.9371 -2.935,2.99369 -1.1741,1.01747 -2.4459,1.95667 -3.8155,2.81759 -1.3697,0.8218 -2.7589,1.50663 -4.1677,2.0545 -1.4088,0.54786 -2.7002,0.82179 -3.8742,0.82179"
             style="font-variant:normal;font-stretch:normal;font-family:Short Stack;-inkscape-font-specification:Short Stack"
             id="path6935" />
          <path
             inkscape:connector-curvature="0"
             d="m -1524.2239,604.72596 c -1.0566,7e-5 -1.8589,-0.0782 -2.4067,-0.2348 -0.5479,-0.19559 -0.9588,-0.48909 -1.2327,-0.8805 -0.274,-0.39125 -0.4305,-0.88042 -0.4696,-1.46749 -0.039,-0.62605 -0.059,-1.36958 -0.059,-2.23059 0,-0.89999 0.3326,-1.78048 0.9979,-2.64149 0.6652,-0.86085 1.4283,-1.68265 2.2893,-2.46539 0.9,-0.78258 1.761,-1.52611 2.5828,-2.2306 0.8217,-0.70431 1.3892,-1.36957 1.7023,-1.99579 0.2739,-0.39124 0.7043,-0.97824 1.2914,-1.76099 0.6261,-0.78257 1.3305,-1.66307 2.1132,-2.64149 0.7826,-0.97824 1.6044,-1.97613 2.4654,-2.99369 0.9,-1.0565 1.7805,-2.01526 2.6415,-2.87629 0.8608,-0.86083 1.6631,-1.56523 2.4066,-2.11319 0.7435,-0.54777 1.3501,-0.8217 1.8197,-0.8218 0.7435,10e-5 1.4675,0.0392 2.1719,0.1174 0.7044,0.0784 1.3305,0.33273 1.8784,0.7631 0.587,0.43056 1.037,1.11539 1.3501,2.05449 0.3522,0.93929 0.5283,2.28939 0.5283,4.05029 0,0.43055 -0.4109,1.23278 -1.2327,2.40669 -0.7827,1.13495 -1.8197,2.46548 -3.1111,3.99158 -1.2523,1.48715 -2.7002,3.05248 -4.3438,4.69598 -1.6045,1.64368 -3.2285,3.15031 -4.872,4.51989 -1.6045,1.36974 -3.1699,2.5046 -4.696,3.40458 -1.4871,0.90014 -2.7589,1.35017 -3.8155,1.3501 m -27.7063,42.96824 c 0,-6.06561 0.9783,-11.21162 2.935,-15.43804 1.9566,-4.22634 4.5199,-7.65049 7.6897,-10.27246 3.2089,-2.661 6.8287,-4.57853 10.8594,-5.75258 4.0698,-1.21307 8.2179,-1.81963 12.4444,-1.8197 4.8916,7e-5 9.2745,0.8023 13.1487,2.4067 3.9133,1.60452 7.22,3.91337 9.9203,6.92657 2.7001,3.01331 4.7742,6.67226 6.2222,10.97686 1.4478,4.26556 2.1718,9.05937 2.1719,14.38145 -10e-5,3.09154 -0.411,6.00696 -1.2327,8.74626 -0.8219,2.73934 -1.9568,5.283 -3.4046,7.63098 -1.448,2.30886 -3.1894,4.38292 -5.2243,6.22217 -1.9959,1.83927 -4.1873,3.42416 -6.5744,4.75468 -2.3872,1.2914 -4.9113,2.26973 -7.5723,2.93499 -2.6611,0.7044 -5.3612,1.0566 -8.1005,1.0566 -2.9742,0 -5.87,-0.4696 -8.6876,-1.4088 -2.7785,-0.90006 -5.4004,-2.15232 -7.8658,-3.75678 -2.4654,-1.60446 -4.7351,-3.46328 -6.8091,-5.57648 -2.035,-2.15231 -3.796,-4.4416 -5.283,-6.86788 -1.448,-2.42623 -2.5828,-4.93076 -3.4046,-7.51357 -0.8218,-2.58276 -1.2327,-5.12642 -1.2327,-7.63097 m 10.1551,-1.46749 c -10e-5,2.89588 0.6261,5.8113 1.8784,8.74626 1.2522,2.89588 2.8958,5.5178 4.9307,7.86577 2.0741,2.34801 4.4221,4.26553 7.044,5.75258 2.661,1.44794 5.3612,2.1719 8.1006,2.1719 2.9741,0 5.8503,-0.50873 8.6288,-1.5262 2.8176,-1.01745 5.283,-2.50451 7.3962,-4.46118 2.1523,-1.95665 3.8741,-4.34377 5.1656,-7.16138 1.2913,-2.81756 1.937,-6.02648 1.9371,-9.62676 -10e-5,-3.52195 -0.4892,-6.73087 -1.4675,-9.62676 -0.9393,-2.93495 -2.2502,-5.45904 -3.9329,-7.57228 -1.6828,-2.11314 -3.6981,-3.73716 -6.0461,-4.87208 -2.348,-1.17394 -4.8917,-1.76094 -7.6309,-1.76099 -3.0525,5e-5 -6.1244,0.48922 -9.2159,1.46749 -3.0916,0.93925 -5.8896,2.34804 -8.3941,4.22639 -2.4654,1.8393 -4.4807,4.12859 -6.046,6.86787 -1.5654,2.73936 -2.3481,5.90915 -2.348,9.50937"
             style="font-variant:normal;font-stretch:normal;font-family:Short Stack;-inkscape-font-specification:Short Stack"
             id="path6937" />
          <path
             inkscape:connector-curvature="0"
             d="m -1467.2264,673.6395 c 0,-0.58699 0.02,-1.38922 0.059,-2.40669 0.039,-1.01745 0.059,-2.34798 0.059,-3.99158 0,-2.66104 -0.078,-5.45906 -0.2348,-8.39407 -0.1566,-2.9741 -0.3327,-6.04605 -0.5283,-9.21587 -0.1566,-3.20889 -0.3131,-6.49607 -0.4696,-9.86156 -0.1174,-3.40454 -0.1761,-6.8874 -0.1761,-10.44856 0,-1.36961 0.059,-2.8958 0.1761,-4.57858 0.1174,-1.72181 0.3522,-3.3067 0.7044,-4.75469 0.3522,-1.487 0.8609,-2.71969 1.5262,-3.69808 0.6652,-1.0174 1.5653,-1.52613 2.7002,-1.5262 1.2131,7e-5 2.1523,0.3914 2.8176,1.174 0.7043,0.74359 1.2131,1.72192 1.5262,2.93499 0.3521,1.17405 0.5478,2.52415 0.587,4.05028 0.078,1.48712 0.1173,2.99374 0.1174,4.51989 1.3696,-1.99574 3.111,-3.79587 5.2242,-5.40038 2.1132,-1.64354 4.3634,-3.03277 6.7505,-4.16769 2.4262,-1.1348 4.8721,-2.0153 7.3375,-2.64149 2.4653,-0.62607 4.7546,-0.93913 6.8679,-0.9392 3.835,7e-5 7.2004,0.5675 10.0963,1.7023 2.935,1.09579 5.459,2.60242 7.5723,4.51988 2.1523,1.91758 3.9328,4.14817 5.3417,6.69178 1.4478,2.50457 2.6023,5.16562 3.4633,7.98317 0.8608,2.81763 1.4674,5.71348 1.8197,8.68756 0.3912,2.93503 0.5869,5.77218 0.587,8.51147 l 0,9.97897 c -10e-5,2.54367 -0.1762,5.00906 -0.5283,7.39617 -0.3132,2.348 -0.7828,4.44162 -1.4088,6.28088 -0.6262,1.80012 -1.4089,3.24805 -2.348,4.34378 -0.9002,1.13486 -1.9372,1.70229 -3.1111,1.70229 -0.861,0 -1.6632,-0.0587 -2.4067,-0.1761 -0.7436,-0.1174 -1.4089,-0.4109 -1.9958,-0.88049 -0.5479,-0.43047 -0.9784,-1.1153 -1.2914,-2.05449 -0.3131,-0.9392 -0.4697,-2.23059 -0.4696,-3.87419 -10e-5,-1.52619 0.1565,-3.11108 0.4696,-4.75468 0.313,-1.68272 0.6456,-3.36545 0.9979,-5.04818 0.3913,-1.68272 0.7435,-3.36544 1.0566,-5.04819 0.313,-1.6827 0.4695,-3.34586 0.4696,-4.98948 -10e-5,-1.83923 -0.059,-3.65892 -0.1761,-5.45908 -0.078,-1.83923 -0.274,-3.63935 -0.587,-5.40038 -0.3131,-1.76095 -0.7632,-3.46325 -1.3501,-5.10688 -0.5479,-1.68268 -1.311,-3.28714 -2.2893,-4.81338 -0.7827,-1.25222 -1.6045,-2.46534 -2.4654,-3.63939 -0.8218,-1.21308 -1.8393,-2.28924 -3.0524,-3.22848 -1.174,-0.93915 -2.6024,-1.68268 -4.2851,-2.2306 -1.6827,-0.58694 -3.7568,-0.88044 -6.2221,-0.88049 -1.6828,5e-5 -3.6003,0.35225 -5.7526,1.05659 -2.1524,0.66532 -4.3243,1.64365 -6.5157,2.93499 -2.1523,1.25231 -4.2264,2.77851 -6.2222,4.57858 -1.9566,1.76104 -3.6002,3.73727 -4.9307,5.92868 l 0,15.02715 c -10e-5,0.50875 0.02,1.17402 0.059,1.99579 0.078,0.78269 0.176,1.66318 0.2935,2.64149 0.1173,0.97835 0.2543,2.01538 0.4109,3.11109 0.1956,1.09574 0.3913,2.17191 0.5869,3.22849 0.3131,1.6436 0.6849,3.20893 1.1153,4.69598 0.4305,1.48707 0.6457,2.8763 0.6457,4.16768 0,0.90007 -0.039,1.761 -0.1174,2.58279 -0.078,0.8218 -0.2935,1.54577 -0.6457,2.1719 -0.313,0.58699 -0.8218,1.05659 -1.5261,1.40879 -0.7045,0.3522 -1.6828,0.5283 -2.935,0.5283 -0.8219,0 -1.6632,-0.0783 -2.5241,-0.2348 -0.861,-0.1174 -1.6632,-0.4109 -2.4067,-0.8805 -0.7044,-0.46959 -1.2914,-1.15443 -1.761,-2.05449 -0.4696,-0.93919 -0.7044,-2.19145 -0.7044,-3.75679"
             style="font-variant:normal;font-stretch:normal;font-family:Short Stack;-inkscape-font-specification:Short Stack"
             id="path6939" />
        </g>
        <g
           transform="matrix(0.70788377,0,0,0.70788377,-2145.9281,427.22141)"
           id="layer1-8-7"
           inkscape:label="Capa 1">
          <text
             sodipodi:linespacing="125%"
             id="text3197-0"
             y="535.85278"
             x="3592.4868"
             style="font-size:430.46691895px;font-style:normal;font-variant:normal;font-weight:bold;font-stretch:normal;text-align:start;line-height:125%;letter-spacing:0px;word-spacing:0px;writing-mode:lr-tb;text-anchor:start;fill:#ffffff;fill-opacity:1;stroke:none;font-family:Rudiment;-inkscape-font-specification:Rudiment Bold"
             xml:space="preserve"
             inkscape:export-filename="/home/david/work/pipo/textures/abeja.png"
             inkscape:export-xdpi="90"
             inkscape:export-ydpi="90"><tspan
               style="font-style:normal;font-weight:500;fill:#ffffff;-inkscape-font-specification:Rudiment Medium"
               y="535.85278"
               x="3592.4868"
               id="tspan3199-4"
               sodipodi:role="line" /></text>
          <text
             sodipodi:linespacing="125%"
             id="text3197-5-0-0"
             y="626.41736"
             x="1691.156"
             style="font-size:430.46691895px;font-style:normal;font-variant:normal;font-weight:bold;font-stretch:normal;text-align:start;line-height:125%;letter-spacing:0px;word-spacing:0px;writing-mode:lr-tb;text-anchor:start;fill:#ffffff;fill-opacity:1;stroke:none;font-family:Rudiment;-inkscape-font-specification:Rudiment Bold"
             xml:space="preserve"
             inkscape:export-filename="/home/david/work/pipo/textures/abeja.png"
             inkscape:export-xdpi="90"
             inkscape:export-ydpi="90"><tspan
               style="font-style:normal;font-weight:500;fill:#ffffff;-inkscape-font-specification:Rudiment Medium"
               y="626.41736"
               x="1691.156"
               id="tspan3199-9-1-0"
               sodipodi:role="line" /></text>
          <text
             sodipodi:linespacing="125%"
             id="text3197-6-6-2"
             y="274.43268"
             x="3083.7539"
             style="font-size:430.46691895px;font-style:normal;font-variant:normal;font-weight:bold;font-stretch:normal;text-align:start;line-height:125%;letter-spacing:0px;word-spacing:0px;writing-mode:lr-tb;text-anchor:start;fill:#ffffff;fill-opacity:1;stroke:none;font-family:Rudiment;-inkscape-font-specification:Rudiment Bold"
             xml:space="preserve"
             inkscape:export-filename="/home/david/work/pipo/textures/abeja.png"
             inkscape:export-xdpi="90"
             inkscape:export-ydpi="90"><tspan
               style="font-style:normal;font-weight:500;fill:#ffffff;-inkscape-font-specification:Rudiment Medium"
               y="274.43268"
               x="3083.7539"
               id="tspan3199-97-2"
               sodipodi:role="line" /></text>
          <text
             sodipodi:linespacing="125%"
             id="text3197-52"
             y="906.88678"
             x="1852.3396"
             style="font-size:430.46691895px;font-style:normal;font-variant:normal;font-weight:bold;font-stretch:normal;text-align:start;line-height:125%;letter-spacing:0px;word-spacing:0px;writing-mode:lr-tb;text-anchor:start;fill:#ffffff;fill-opacity:1;stroke:none;font-family:Rudiment;-inkscape-font-specification:Rudiment Bold"
             xml:space="preserve"
             inkscape:export-filename="/home/david/work/pipo/textures/abeja.png"
             inkscape:export-xdpi="90"
             inkscape:export-ydpi="90"><tspan
               style="font-style:normal;font-weight:500;fill:#ffffff;-inkscape-font-specification:Rudiment Medium"
               y="906.88678"
               x="1852.3396"
               id="tspan3199-5-8"
               sodipodi:role="line" /></text>
          <g
             transform="translate(3241.7842,-678.32954)"
             id="g6387">
            <path
               style="fill:#636468;fill-opacity:1;stroke:#000000;stroke-width:7.56419325;stroke-miterlimit:4;stroke-dasharray:none"
               d="m -2504.991,1083.6759 c -23.51,0 -42.5767,19.0668 -42.5767,42.5768 0,23.51 19.0667,42.5767 42.5767,42.5767 4.3568,0 8.5646,-0.6694 12.5226,-1.8854 -36.0552,23.2921 -71.6741,66.7776 -71.6741,66.7776 l 0.6191,0.1126 21.4713,3.5738 0,-0.028 83.071,13.7326 1.7729,9.8211 c 0,0 -23.8084,20.7285 -22.4562,38.2431 0.825,10.6868 16.0821,14.1811 24.0321,15.2803 l 0.8723,31.3205 -42.0983,-4.4462 0,8.8924 86.1102,-0.5346 0,-7.8231 -38.4401,3.9115 -1.604,-30.2511 c 0.2371,0.01 0.4057,0 0.7036,0 1.2157,0.02 2.9276,0.033 5.0653,-0.056 4.2753,-0.179 10.1809,-0.7258 16.7718,-2.2794 13.1816,-3.1072 29.2247,-10.26 40.6913,-26.424 22.1443,-31.2163 5.9376,-64.1606 5.9376,-64.1606 l -2.0261,0.9849 c 0,0 15.6768,31.6896 -5.7407,61.8812 -11.0768,15.6147 -26.5637,22.5266 -39.3968,25.5517 -6.4166,1.5125 -12.1531,2.0204 -16.3216,2.1949 -2.0842,0.087 -3.7664,0.1037 -4.9527,0.084 -0.356,-0.01 -0.5796,-0.022 -0.8442,-0.028 l -0.2533,-4.7557 10.609,1.4351 -2.5045,-10.018 -8.3859,2.2231 -2.1668,-21.6401 -2.392,-29.9416 c 43.5927,-23.1882 46.4292,-53.1809 34.416,-74.5726 7.7777,8.4262 18.9211,13.7045 31.2923,13.7045 23.51,0 42.5486,-19.0668 42.5486,-42.5768 0,-23.51 -19.0386,-42.5767 -42.5486,-42.5767 -23.51,0 -42.5767,19.0667 -42.5767,42.5767 0,7.1131 1.7555,13.8049 4.8402,19.6984 -3.1152,-3.5918 -6.6582,-6.7593 -10.412,-9.3989 -10.5486,-7.4176 -24.2308,-5.644 -38.6934,0.9849 9.0108,-7.8054 14.7176,-19.3077 14.7176,-32.1647 0,-23.51 -19.0668,-42.5767 -42.5768,-42.5767 z"
               id="path4167"
               inkscape:connector-curvature="0" />
            <g
               id="g4054"
               transform="matrix(0.90049923,0,0,0.90049923,-2922.5975,1539.2441)">
              <path
                 sodipodi:nodetypes="ccccccccc"
                 inkscape:connector-curvature="0"
                 id="path3942"
                 d="m 523.38789,-259.41245 2.32128,44.56871 42.71167,-4.33307 0,8.66614 -95.637,0.61901 0,-9.90416 46.73523,4.95208 -1.23802,-44.56871 z"
                 style="fill:#636468;fill-opacity:1;stroke:none" />
              <path
                 sodipodi:nodetypes="sssccccscccsssscscss"
                 inkscape:connector-curvature="0"
                 id="path3100-1"
                 d="m 463.76291,-505.91819 c -26.10775,0 -47.27975,21.172 -47.27975,47.27975 0,26.10774 21.172,47.27975 47.27975,47.27975 4.83811,0 9.5013,-0.71988 13.89667,-2.07027 -40.03915,25.86585 -79.60181,74.14148 -79.60181,74.14148 l 116.789,19.30525 1.96676,10.92066 c 0,0 -26.45077,23.02621 -24.94923,42.47612 1.24087,16.07346 31.96672,17.50406 31.96672,17.50406 l -5.67182,-71.49604 c 48.40942,-25.75036 51.56296,-59.05533 38.22233,-82.81073 8.63708,9.35727 21.01644,15.21647 34.75463,15.21647 26.10774,0 47.25387,-21.14612 47.25387,-47.25387 0,-26.10775 -21.14613,-47.27975 -47.25387,-47.27975 -26.10775,0 -47.27975,21.172 -47.27975,47.27975 0,7.89906 1.93127,15.32242 5.35682,21.86721 -3.45934,-3.98875 -7.37316,-7.52356 -11.54175,-10.45486 -11.71417,-8.23722 -26.92328,-6.24859 -42.98394,1.11277 10.00636,-8.66783 16.32924,-21.46033 16.32924,-35.738 0,-26.10775 -21.14613,-47.27975 -47.25387,-47.27975 z"
                 style="fill:#636468;fill-opacity:1;stroke:none" />
              <g
                 transform="matrix(0.70360028,0,0,0.70360028,154.40315,-128.23275)"
                 id="g3094">
                <path
                   inkscape:export-ydpi="90"
                   inkscape:export-xdpi="90"
                   inkscape:export-filename="/home/david/work/pipo/textures/abeja.png"
                   transform="matrix(0.52570076,0,0,0.52570076,726.81449,-866.25005)"
                   d="m -448.50774,962.45862 c 0,34.0314 -27.5879,61.61928 -61.6193,61.61928 -34.03141,0 -61.61931,-27.58788 -61.61931,-61.61928 0,-34.0314 27.5879,-61.61931 61.61931,-61.61931 34.0314,0 61.6193,27.58791 61.6193,61.61931 z"
                   sodipodi:ry="61.619305"
                   sodipodi:rx="61.619305"
                   sodipodi:cy="962.45862"
                   sodipodi:cx="-510.12704"
                   id="path3070"
                   style="fill:#ffffff;fill-opacity:1;stroke:none"
                   sodipodi:type="arc" />
                <path
                   inkscape:export-ydpi="90"
                   inkscape:export-xdpi="90"
                   inkscape:export-filename="/home/david/work/pipo/textures/abeja.png"
                   transform="matrix(0.5334795,0,0,0.5334795,711.29159,-877.97441)"
                   d="m -270.72089,972.56012 c 0,35.14718 -28.49243,63.63958 -63.63961,63.63958 -35.14719,0 -63.63961,-28.4924 -63.63961,-63.63958 0,-35.14719 28.49242,-63.63961 63.63961,-63.63961 35.14718,0 63.63961,28.49242 63.63961,63.63961 z"
                   sodipodi:ry="63.63961"
                   sodipodi:rx="63.63961"
                   sodipodi:cy="972.56012"
                   sodipodi:cx="-334.3605"
                   id="path3074"
                   style="fill:#ffffff;fill-opacity:1;stroke:none"
                   sodipodi:type="arc" />
                <path
                   inkscape:export-ydpi="90"
                   inkscape:export-xdpi="90"
                   inkscape:export-filename="/home/david/work/pipo/textures/abeja.png"
                   transform="matrix(0.31612792,0,0,0.31612792,631.62249,-661.29319)"
                   sodipodi:type="arc"
                   style="fill:#000000;fill-opacity:1;stroke:none"
                   id="path3076"
                   sodipodi:cx="-510.12704"
                   sodipodi:cy="962.45862"
                   sodipodi:rx="61.619305"
                   sodipodi:ry="61.619305"
                   d="m -448.50774,962.45862 c 0,34.0314 -27.5879,61.61928 -61.6193,61.61928 -34.03141,0 -61.61931,-27.58788 -61.61931,-61.61928 0,-34.0314 27.5879,-61.61931 61.61931,-61.61931 34.0314,0 61.6193,27.58791 61.6193,61.61931 z" />
                <path
                   inkscape:export-ydpi="90"
                   inkscape:export-xdpi="90"
                   inkscape:export-filename="/home/david/work/pipo/textures/abeja.png"
                   sodipodi:type="arc"
                   style="fill:#000000;fill-opacity:1;stroke:none"
                   id="path3078"
                   sodipodi:cx="-334.3605"
                   sodipodi:cy="972.56012"
                   sodipodi:rx="63.63961"
                   sodipodi:ry="63.63961"
                   d="m -270.72089,972.56012 c 0,35.14718 -28.49243,63.63958 -63.63961,63.63958 -35.14719,0 -63.63961,-28.4924 -63.63961,-63.63958 0,-35.14719 28.49242,-63.63961 63.63961,-63.63961 35.14718,0 63.63961,28.49242 63.63961,63.63961 z"
                   transform="matrix(0.31612792,0,0,0.31612792,625.72759,-664.25493)" />
              </g>
              <path
                 sodipodi:nodetypes="cc"
                 inkscape:connector-curvature="0"
                 id="path3102-1"
                 d="m 425.67257,-339.14231 c 28.48274,5.50364 94.1806,25.08047 118.61833,-10.06723"
                 style="fill:none;stroke:#000000;stroke-width:0.82810724px;stroke-linecap:butt;stroke-linejoin:miter;stroke-opacity:1" />
              <path
                 inkscape:connector-curvature="0"
                 id="path3104-7"
                 d="m 415.16763,-357.74481 7.441,22.54186 -23.85498,-3.93936 z"
                 style="fill:#000000;stroke:#000000;stroke-width:0.82810724px;stroke-linecap:butt;stroke-linejoin:miter;stroke-opacity:1" />
              <path
                 transform="matrix(0.8200674,0,0,0.8200674,102.25458,2.1362459)"
                 d="m 495.79113,-561.33752 c 0,30.06742 -24.37447,54.44188 -54.44189,54.44188 -30.06742,0 -54.44188,-24.37446 -54.44188,-54.44188 0,-30.06743 24.37446,-54.44189 54.44188,-54.44189 30.06742,0 54.44189,24.37446 54.44189,54.44189 z"
                 sodipodi:ry="54.441883"
                 sodipodi:rx="54.441883"
                 sodipodi:cy="-561.33752"
                 sodipodi:cx="441.34924"
                 id="path3116"
                 style="fill:#f6d5ff;fill-opacity:1;stroke:none"
                 sodipodi:type="arc" />
              <path
                 sodipodi:type="arc"
                 style="fill:#f6d5ff;fill-opacity:1;stroke:none"
                 id="path3118"
                 sodipodi:cx="441.34924"
                 sodipodi:cy="-561.33752"
                 sodipodi:rx="54.441883"
                 sodipodi:ry="54.441883"
                 d="m 495.79113,-561.33752 c 0,30.06742 -24.37447,54.44188 -54.44189,54.44188 -30.06742,0 -54.44188,-24.37446 -54.44188,-54.44188 0,-30.06743 24.37446,-54.44189 54.44188,-54.44189 30.06742,0 54.44189,24.37446 54.44189,54.44189 z"
                 transform="matrix(0.8200674,0,0,0.8200674,229.18933,25.334664)" />
              <path
                 transform="matrix(0.21707668,0,0,0.21707668,410.40387,-148.56919)"
                 d="m 495.79113,-561.33752 c 0,30.06742 -24.37447,54.44188 -54.44189,54.44188 -30.06742,0 -54.44188,-24.37446 -54.44188,-54.44188 0,-30.06743 24.37446,-54.44189 54.44188,-54.44189 30.06742,0 54.44189,24.37446 54.44189,54.44189 z"
                 sodipodi:ry="54.441883"
                 sodipodi:rx="54.441883"
                 sodipodi:cy="-561.33752"
                 sodipodi:cx="441.34924"
                 id="path3120-1"
                 style="fill:#f6d5ff;fill-opacity:1;stroke:none"
                 sodipodi:type="arc" />
              <path
                 id="path3126-7"
                 d="m 395.71875,-401.96875 -0.75,0.34375 18.875,42.1875 -31.03125,-34.3125 -0.625,0.53125 31.15625,34.5 -40.8125,-22.3125 -0.40625,0.71875 42.46875,23.1875 0.15625,-0.3125 0.0937,-0.0937 0.65625,-0.28125 -19.78125,-44.15625 z m 26.125,67 -22.9375,42.59375 0.71875,0.40625 21.96875,-40.75 -8.3125,45.59375 0.8125,0.125 8.34375,-45.71875 7.1875,45.96875 0.8125,-0.125 -7.46875,-47.78125 -0.28125,0.0312 -0.28125,-0.0312 -0.5625,-0.3125 z"
                 style="font-size:medium;font-style:normal;font-variant:normal;font-weight:normal;font-stretch:normal;text-indent:0;text-align:start;text-decoration:none;line-height:normal;letter-spacing:normal;word-spacing:normal;text-transform:none;direction:ltr;block-progression:tb;writing-mode:lr-tb;text-anchor:start;baseline-shift:baseline;color:#000000;fill:#000000;fill-opacity:1;stroke:none;stroke-width:0.82810724px;marker:none;visibility:visible;display:inline;overflow:visible;enable-background:accumulate;font-family:Sans;-inkscape-font-specification:Sans"
                 inkscape:connector-curvature="0" />
              <path
                 transform="matrix(0.82810727,0,0,0.82810727,96.116393,-53.339952)"
                 sodipodi:nodetypes="ccccc"
                 inkscape:connector-curvature="0"
                 id="path3144-6"
                 d="m 508.67341,-303.50848 -1.30812,58.02465 8.78312,-0.56062 -5.41937,-57.37059 z"
                 style="fill:url(#linearGradient10612);fill-opacity:1;stroke:none;filter:url(#filter3938)" />
              <path
                 inkscape:connector-curvature="0"
                 id="path3138-65"
                 d="m 517.04304,-306.30243 c 0.3095,1.85703 4.64257,49.83029 4.64257,49.83029 l 13.61821,1.85703 -2.78554,-11.14218 -9.28515,2.47604 -4.33307,-43.02118"
                 style="fill:#636468;fill-opacity:1;stroke:none" />
              <path
                 inkscape:connector-curvature="0"
                 id="path3140-1"
                 d="m 525.39967,-261.26947 7.73762,-1.70228"
                 style="fill:none;stroke:#000000;stroke-width:0.82810724px;stroke-linecap:butt;stroke-linejoin:miter;stroke-opacity:1" />
              <path
                 inkscape:connector-curvature="0"
                 id="path3142-3"
                 d="m 525.86392,-258.48393 8.20188,-0.3095"
                 style="fill:none;stroke:#000000;stroke-width:0.82810724px;stroke-linecap:butt;stroke-linejoin:miter;stroke-opacity:1" />
              <path
                 sodipodi:nodetypes="cc"
                 inkscape:connector-curvature="0"
                 id="path3944"
                 d="m 521.0666,-249.35353 1.54752,38.9976"
                 style="fill:none;stroke:#000000;stroke-width:0.82810724px;stroke-linecap:butt;stroke-linejoin:miter;stroke-opacity:1" />
              <path
                 inkscape:connector-curvature="0"
                 id="path3946-3"
                 d="m 476.4979,-215.46275 0,5.57109"
                 style="fill:none;stroke:#000000;stroke-width:0.82810724px;stroke-linecap:butt;stroke-linejoin:miter;stroke-opacity:1" />
              <path
                 style="fill:none;stroke:#000000;stroke-width:0.82810724px;stroke-linecap:butt;stroke-linejoin:miter;stroke-opacity:1"
                 d="m 480.52146,-215.46275 0,5.57109"
                 id="path3948-6"
                 inkscape:connector-curvature="0" />
              <path
                 inkscape:connector-curvature="0"
                 id="path3950-3"
                 d="m 484.54503,-215.46275 0,5.57109"
                 style="fill:none;stroke:#000000;stroke-width:0.82810724px;stroke-linecap:butt;stroke-linejoin:miter;stroke-opacity:1" />
              <path
                 style="fill:none;stroke:#000000;stroke-width:0.82810724px;stroke-linecap:butt;stroke-linejoin:miter;stroke-opacity:1"
                 d="m 560.68323,-216.08176 0,5.57109"
                 id="path3952-0"
                 inkscape:connector-curvature="0" />
              <path
                 inkscape:connector-curvature="0"
                 id="path3954-5"
                 d="m 564.7068,-216.08176 0,5.57109"
                 style="fill:none;stroke:#000000;stroke-width:0.82810724px;stroke-linecap:butt;stroke-linejoin:miter;stroke-opacity:1" />
              <path
                 inkscape:connector-curvature="0"
                 id="path3956-9"
                 d="m 557.12393,-216.08176 0,5.57109"
                 style="fill:none;stroke:#000000;stroke-width:0.82810724px;stroke-linecap:butt;stroke-linejoin:miter;stroke-opacity:1" />
              <path
                 inkscape:transform-center-y="-51.280463"
                 inkscape:transform-center-x="-41.948773"
                 inkscape:connector-curvature="0"
                 id="path3958-9"
                 d="m 600.74387,-351.62851 -2.23783,1.08997 c 0,0 17.4001,35.21236 -6.38391,68.73998 -12.30076,17.34004 -29.48654,24.98944 -43.73767,28.34872 -7.12558,1.67963 -13.50166,2.26645 -18.13073,2.46022 -2.31453,0.0969 -4.18913,0.10709 -5.50649,0.0857 -0.65868,-0.0107 -1.17944,-0.0232 -1.55259,-0.032 -0.18659,-0.004 -0.33463,-0.034 -0.4617,-0.0337 -0.0635,1.2e-4 -0.116,0.0171 -0.1872,0.0212 -0.0712,0.004 -0.0483,-0.064 -0.46025,0.10571 l 0.94641,2.29699 c -0.3112,0.12822 -0.28007,0.0754 -0.28291,0.0606 0.0806,1.3e-4 0.20054,0.0113 0.37019,0.0154 0.3611,0.009 0.91133,0.0351 1.58637,0.0461 1.35009,0.022 3.27201,0.0123 5.64586,-0.0871 4.7477,-0.19874 11.2916,-0.79278 18.61069,-2.51803 14.6382,-3.45052 32.44533,-11.38429 45.17885,-29.33435 24.59117,-34.66547 6.60293,-71.26526 6.60293,-71.26526 z"
                 style="font-size:medium;font-style:normal;font-variant:normal;font-weight:normal;font-stretch:normal;text-indent:0;text-align:start;text-decoration:none;line-height:normal;letter-spacing:normal;word-spacing:normal;text-transform:none;direction:ltr;block-progression:tb;writing-mode:lr-tb;text-anchor:start;baseline-shift:baseline;color:#000000;fill:#636468;fill-opacity:1;stroke:none;stroke-width:3;marker:none;visibility:visible;display:inline;overflow:visible;enable-background:accumulate;font-family:Sans;-inkscape-font-specification:Sans" />
            </g>
          </g>
        </g>
        <g
           transform="matrix(0.82414307,0,0,0.82414307,-1882.6071,2.4650684)"
           id="layer1-7-0"
           inkscape:label="Capa 1"
           style="fill:#ffffff">
          <path
             inkscape:connector-curvature="0"
             id="path3268-5"
             d="m 342.9843,72.239301 c -3.6318,-0.065 -7.2533,0.6055 -10.625,1.875 -13.4872,5.0776 -23.6455,20.2612 -20.6874,38.937499 4.5738,28.8785 11.4243,66.3543 17.5,98.5937 l -22.7813,58.5 c -2.4203,-2.5198 -5.3347,-4.6531 -8.9063,-6.1562 -5.0462,-2.124 -10.3959,-2.7465 -15.7187,-2.2812 -5.3228,0.4652 -10.6269,2.0259 -15.5313,4.25 -9.809,4.4483 -18.5013,11.73 -22.8124,21.375 -2.9333,6.562 -4.5652,13.5793 -5.125,20.7812 -13.3419,1.5451 -26.3706,9.5601 -31.875,21.875 -6.6359,14.8446 -5.5095,32.2606 -0.0313,48.0938 5.3793,15.5479 15.0221,29.8016 27.5625,38.875 0.1118,1.3954 0.4317,1.6058 0.5625,1.9062 0.1566,0.3595 0.2581,0.5343 0.3437,0.6875 0.3426,0.6132 0.5085,0.8188 0.75,1.1563 0.4829,0.6748 1.1274,1.4828 1.9688,2.4687 1.6829,1.9719 4.1758,4.6053 7.4688,7.4063 5.496,4.6747 13.3481,9.7156 23.125,12.5312 l 0,19.7188 a 7.125,7.125 0 0 0 14.25,0 l 0,-25.2188 a 7.1202884,7.1202884 0 0 0 -5.9688,-7.0312 c -5.9276,-0.988 -11.2334,-3.326 -15.6562,-6.0626 7.8028,-0.3868 15.7635,-2.9702 21.0624,-9.5312 4.6735,-5.7863 5.705,-12.9549 4.9376,-19.375 5.5338,2.0011 11.5778,3.0327 17.5937,3.0625 9.9647,0.049 20.4003,-2.7586 27.0313,-10.9687 4.2013,-5.2016 5.9188,-11.4626 5.9062,-17.4063 -0.01,-4.5448 -0.8817,-8.9728 -2.1562,-13.2813 2.4693,1.0815 4.9277,2.0074 7.2812,2.75 13.8156,4.359 26.7575,-2.5637 37.6562,-7.125 5.4494,-2.2806 10.4852,-4.1502 14.4063,-4.7187 3.9101,-0.5668 6.2589,-0.1524 8.7813,1.75 0.01,0.068 0.6227,0.8481 1.0312,2.5313 0.4669,1.9236 0.6896,4.6649 0.6875,7.3437 0,5.3577 -0.8125,10.25 -0.8125,10.25 a 7.1202884,7.1202884 0 1 0 14.0312,2.375 c 0,0 1.026,-5.8503 1.0313,-12.625 0,-3.3873 -0.238,-7.0647 -1.125,-10.7187 -0.887,-3.654 -2.3928,-7.6338 -6.2187,-10.5313 -5.9269,-4.4884 -13.1507,-5.3848 -19.4688,-4.4687 -6.3181,0.916 -12.1833,3.3184 -17.8438,5.6874 -11.3209,4.7382 -21.456,8.7128 -27.875,6.6876 -5.5153,-1.7403 -12.1882,-4.9509 -16.9062,-8.7813 -1.5629,-1.2688 -2.8435,-2.5191 -3.875,-3.7813 -1.1395,-2.7129 -2.1712,-5.3288 -3,-7.75 0.3199,-6.1708 4.6512,-11.9136 12.0312,-17.125 7.5071,-5.3011 17.5807,-9.4623 26.0313,-11.9687 16.3791,-4.8579 35.853,-7.7648 53.8437,-6.5313 17.9907,1.2337 34.2522,6.5464 45.4063,17.4063 8.95,8.7142 14.9794,22.4456 17,37 2.0206,14.5545 -0.0101,29.7756 -5.7813,41.0937 -4.5945,9.0062 -22.1824,19.3921 -38.9062,25.9063 -16.7238,6.5143 -31.9375,10 -31.9375,10 a 7.1202884,7.1202884 0 0 0 -5.5313,6.9375 l 0,37.8125 a 7.1202884,7.1202884 0 1 0 14.2188,0 l 0,-32.3125 c 5.5752,-1.418 15.3861,-4.0724 28.4375,-9.1562 17.8517,-6.9536 38.0703,-16.3786 46.4063,-32.7188 7.4549,-14.6135 9.5607,-32.4361 7.1874,-49.5312 -2.3733,-17.0952 -9.2486,-33.6251 -21.1562,-45.2188 -14.393,-14.0137 -34.1866,-20.0532 -54.375,-21.4375 -1.4894,-0.1021 -2.9762,-0.1653 -4.4688,-0.2187 -1.2026,-7.5862 -5.1949,-32.0744 -11.4687,-63.625 6.2157,-10.8509 27.6241,-48.8224 39.5625,-78.9376 6.7863,-17.1189 3.2717,-34.374999 -7.375,-44.031199 -5.3234,-4.8282 -12.6237,-7.5386 -20.3125,-6.8438 -7.6888,0.6948 -15.4585,4.6215 -22.625,11.6563 -5.7533,5.6478 -10.0315,12.397799 -13.1875,18.874999 -2.091,-6.8503 -4.2355,-13.437699 -6.4375,-19.593699 -3.2028,-8.9541 -8.9215,-15.4101 -15.8125,-18.625 -3.4455,-1.6076 -7.087,-2.4036 -10.7188,-2.4688 z m -0.3124,14.2188 c 1.7293,0.03 3.4171,0.4177 5,1.1562 3.1657,1.4769 6.2631,4.4214 8.4374,10.5 4.1412,11.577399 8.1165,24.844699 11.875,38.812499 -0.0255,0.1495 -0.0937,0.5 -0.0937,0.5 a 7.1202884,7.1202884 0 0 0 2,6.6875 c 5.656,21.8104 10.7063,44.8638 14.9375,65.7812 a 7.1205919,7.1205919 0 0 0 1.7812,8.9688 c 5.119,26.0048 8.8043,47.5729 10.375,57.1562 -13.9782,0.8404 -27.7101,3.48 -40,7.125 -9.5243,2.8249 -20.7517,7.3151 -30.2187,14 -2.8618,2.0209 -5.6057,4.3059 -8.0625,6.8438 -0.5788,-3.9598 -1.1934,-7.9932 -2.0625,-12 -0.3844,-1.7721 -0.85,-3.5643 -1.375,-5.3438 a 7.1291548,7.1291548 0 0 0 0.0313,-0.094 l 18.9062,-48.5625 c 3.5654,18.4386 7.8991,40.683 7.9062,40.7188 l 0,0.062 a 7.1307761,7.1307761 0 1 0 14,-2.7187 l -12.4062,-65.4375 a 7.1202884,7.1202884 0 0 0 -0.5,-1.5625 c -6.0687,-32.2017 -12.9345,-69.5899 -17.4688,-98.2187 -2.0207,-12.757399 4.5326,-20.724299 11.6563,-23.406299 1.781,-0.6705 3.5519,-0.9986 5.2813,-0.9687 z m 71.75,10.0624 c 3.1357,0.022 5.7492,1.155 8.0937,3.2813 5.3588,4.860299 8.645,15.713199 3.6875,28.218699 -7.9588,20.0765 -21.344,45.6458 -30.7188,62.8126 -3.7801,-17.7412 -8.0528,-36.353 -12.7812,-54.1563 1.8168,-6.867 6.8989,-23.1357 16.4062,-32.4687 5.4028,-5.303499 10.1768,-7.285099 13.9376,-7.624999 0.4701,-0.042 0.927,-0.066 1.375,-0.063 z M 285.3906,275.9268 c 2.4633,0.021 4.7101,0.4077 6.5625,1.1875 5.8588,2.4656 8.6913,8.4148 10.75,17.9062 2.0587,9.4914 2.6786,21.1942 5.5938,31.6876 0.1357,0.4883 0.2905,0.9806 0.4374,1.4687 0.3546,4.5966 2.0792,8.7263 4.5626,12.3125 2.542,6.0082 5.2723,11.83 7.1562,17.25 1.6507,4.7489 2.6176,9.0869 2.625,12.5625 0.01,3.4757 -0.6982,5.967 -2.7188,8.4687 -2.8189,3.4903 -8.7611,5.6917 -15.9062,5.6563 -7.1451,-0.035 -14.9614,-2.4252 -19.5625,-5.6563 -1.6603,-1.1659 -3.2805,-2.4722 -4.875,-3.875 a 7.1202884,7.1202884 0 0 0 -0.875,-1 c -12.3504,-11.2834 -22.1065,-29.2054 -25.5313,-46.8124 -2.2561,-12.2378 -1.5022,-24.2851 2.8126,-33.9376 2.3443,-5.2449 8.5201,-10.9683 15.6874,-14.2187 3.5836,-1.6251 7.3041,-2.6015 10.75,-2.9063 0.8615,-0.076 1.7102,-0.1007 2.5313,-0.094 z m -46.8437,46.75 c 0.3043,2.8138 0.7721,5.6376 1.3437,8.4375 0.004,0.02 -0.004,0.043 0,0.062 0.7928,3.8706 1.8437,7.6948 3.0937,11.4687 0.1125,0.339 0.1965,0.6935 0.3126,1.0313 0.0287,0.084 0.0647,0.166 0.0937,0.25 0.014,0.04 0.0172,0.085 0.0313,0.125 5.2401,15.1179 13.9064,29.2121 25.0312,39.6563 2.0128,4.8762 3.6735,9.5102 4.1875,13.2187 0.5768,4.1614 0.1283,6.6834 -1.8437,9.125 -2.0325,2.5166 -6.6215,4.3136 -12.3438,4.2813 -5.7223,-0.032 -12.0433,-2.016 -15.625,-4.5313 -9.7084,-6.8183 -18.3733,-19.0928 -22.9688,-32.375 -4.5954,-13.2821 -5.0655,-27.3033 -0.4374,-37.6563 2.4423,-5.4639 11.331,-11.5364 19.125,-13.0937 z m -2.0938,98.75 a 7.1202884,7.1202884 0 0 0 0.5625,0.4375 c -0.2561,-0.1793 -0.4501,-0.3411 -0.5625,-0.4375 z"
             style="font-size:medium;font-style:normal;font-variant:normal;font-weight:normal;font-stretch:normal;text-indent:0;text-align:start;text-decoration:none;line-height:normal;letter-spacing:normal;word-spacing:normal;text-transform:none;direction:ltr;block-progression:tb;writing-mode:lr-tb;text-anchor:start;baseline-shift:baseline;color:#000000;fill:#ffffff;fill-opacity:1;stroke:none;stroke-width:14.23915291;marker:none;visibility:visible;display:inline;overflow:visible;enable-background:accumulate;font-family:Sans;-inkscape-font-specification:Sans" />
        </g>
      </g>
      <rect
         y="16.503397"
         x="-15171.796"
         height="1027.4425"
         width="1023.3555"
         id="rect5661"
         style="fill:none;stroke:none" />
    </g>
  </g>
</svg>
