<?xml version="1.0" encoding="UTF-8" standalone="no"?>
<!-- Created with Inkscape (http://www.inkscape.org/) -->

<svg
   xmlns:dc="http://purl.org/dc/elements/1.1/"
   xmlns:cc="http://creativecommons.org/ns#"
   xmlns:rdf="http://www.w3.org/1999/02/22-rdf-syntax-ns#"
   xmlns:svg="http://www.w3.org/2000/svg"
   xmlns="http://www.w3.org/2000/svg"
   xmlns:xlink="http://www.w3.org/1999/xlink"
   xmlns:sodipodi="http://sodipodi.sourceforge.net/DTD/sodipodi-0.dtd"
   xmlns:inkscape="http://www.inkscape.org/namespaces/inkscape"
   width="1351.74"
   height="1351.7388"
   id="svg2"
   version="1.1"
   inkscape:version="0.48.3.1 r9886"
   sodipodi:docname="t.svg">
  <defs
     id="defs4">
    <linearGradient
       id="linearGradient3265-7"
       inkscape:collect="always">
      <stop
         id="stop3267-6"
         offset="0"
         style="stop-color:#a0692f;stop-opacity:1;" />
      <stop
         id="stop3269-0"
         offset="1"
         style="stop-color:#a0692f;stop-opacity:0;" />
    </linearGradient>
    <linearGradient
       inkscape:collect="always"
       xlink:href="#linearGradient3265-7"
       id="linearGradient4849"
       gradientUnits="userSpaceOnUse"
       gradientTransform="matrix(1.9601035,0,0,1.9601035,-1268.7026,1291.2843)"
       x1="1128.5424"
       y1="-358.21252"
       x2="1128.5"
       y2="-350.88782" />
    <linearGradient
       inkscape:collect="always"
       xlink:href="#linearGradient3265-7"
       id="linearGradient4855"
       gradientUnits="userSpaceOnUse"
       gradientTransform="matrix(-1.9601035,0,0,1.9601035,3084.4205,1291.2843)"
       x1="1128.5424"
       y1="-358.21252"
       x2="1128.5"
       y2="-350.88782" />
    <linearGradient
       id="linearGradient3265-7-8"
       inkscape:collect="always">
      <stop
         id="stop3267-6-3"
         offset="0"
         style="stop-color:#a0692f;stop-opacity:1;" />
      <stop
         id="stop3269-0-6"
         offset="1"
         style="stop-color:#a0692f;stop-opacity:0;" />
    </linearGradient>
    <linearGradient
       y2="-435.80673"
       x2="919.21014"
       y1="-434.2847"
       x1="987.61987"
       gradientTransform="matrix(0.64156397,0,0,0.64156397,-240.46334,1048.4872)"
       gradientUnits="userSpaceOnUse"
       id="linearGradient3738"
       xlink:href="#linearGradient4094-1"
       inkscape:collect="always" />
    <linearGradient
       id="linearGradient4094-1">
      <stop
         id="stop4096-9"
         offset="0"
         style="stop-color:#52676c;stop-opacity:1;" />
      <stop
         id="stop4098-2"
         offset="1"
         style="stop-color:#52676c;stop-opacity:0;" />
    </linearGradient>
    <linearGradient
       id="linearGradient3310"
       inkscape:collect="always">
      <stop
         id="stop3312"
         offset="0"
         style="stop-color:#0b2228;stop-opacity:1;" />
      <stop
         id="stop3314"
         offset="1"
         style="stop-color:#0b2228;stop-opacity:0;" />
    </linearGradient>
    <linearGradient
       id="linearGradient4122-9"
       inkscape:collect="always">
      <stop
         id="stop4124-7"
         offset="0"
         style="stop-color:#1c2224;stop-opacity:1;" />
      <stop
         id="stop4126-6"
         offset="1"
         style="stop-color:#1c2224;stop-opacity:0" />
    </linearGradient>
    <linearGradient
       inkscape:collect="always"
       xlink:href="#linearGradient3310"
       id="linearGradient6795"
       gradientUnits="userSpaceOnUse"
       x1="1748.3407"
       y1="-227.81718"
       x2="1759.3722"
       y2="-149.25218" />
    <linearGradient
       inkscape:collect="always"
       xlink:href="#linearGradient4122-9"
       id="linearGradient6814"
       gradientUnits="userSpaceOnUse"
       gradientTransform="matrix(0.76362355,0,0,0.76362355,-529.2141,788.2198)"
       x1="1627.4237"
       y1="-275.98389"
       x2="1568.8258"
       y2="-208.25383" />
    <linearGradient
       inkscape:collect="always"
       id="linearGradient4871">
      <stop
         style="stop-color:#241c1f;stop-opacity:0.37777778"
         offset="0"
         id="stop4873" />
      <stop
         style="stop-color:#241c1f;stop-opacity:0;"
         offset="1"
         id="stop4875" />
    </linearGradient>
    <radialGradient
       inkscape:collect="always"
       xlink:href="#linearGradient4871"
       id="radialGradient4631"
       gradientUnits="userSpaceOnUse"
       gradientTransform="matrix(1.6682146,1.6471163,-0.88417937,0.89550496,-1046.6412,-1706.4218)"
       cx="1014.4006"
       cy="-408.6366"
       fx="1014.4006"
       fy="-408.6366"
       r="120.84957" />
    <linearGradient
       y2="-341.95212"
       x2="1033.103"
       y1="-312.79977"
       x1="1033.9359"
       gradientUnits="userSpaceOnUse"
       id="linearGradient4392"
       xlink:href="#linearGradient3219"
       inkscape:collect="always" />
    <linearGradient
       y2="-341.95212"
       x2="1033.103"
       y1="-312.79977"
       x1="1033.9359"
       gradientUnits="userSpaceOnUse"
       id="linearGradient4390"
       xlink:href="#linearGradient3209"
       inkscape:collect="always" />
    <linearGradient
       inkscape:collect="always"
       id="linearGradient3219">
      <stop
         style="stop-color:#3e4837;stop-opacity:1"
         offset="0"
         id="stop3221" />
      <stop
         style="stop-color:#e5ffd5;stop-opacity:0;"
         offset="1"
         id="stop3223" />
    </linearGradient>
    <linearGradient
       id="linearGradient3209"
       inkscape:collect="always">
      <stop
         id="stop3211"
         offset="0"
         style="stop-color:#3e4837;stop-opacity:1" />
      <stop
         id="stop3213"
         offset="1"
         style="stop-color:#e5ffd5;stop-opacity:0;" />
    </linearGradient>
    <linearGradient
       y2="-299.90375"
       x2="1731.0365"
       y1="-347.02103"
       x1="1621.358"
       gradientTransform="matrix(1.3519879,0,0,1.3519879,-2458.2999,1401.0995)"
       gradientUnits="userSpaceOnUse"
       id="linearGradient4525"
       xlink:href="#linearGradient4136"
       inkscape:collect="always" />
    <linearGradient
       id="linearGradient4136"
       inkscape:collect="always">
      <stop
         id="stop4138"
         offset="0"
         style="stop-color:#000000;stop-opacity:1" />
      <stop
         id="stop4140"
         offset="1"
         style="stop-color:#2b1100;stop-opacity:0;" />
    </linearGradient>
    <linearGradient
       id="linearGradient3449"
       inkscape:collect="always">
      <stop
         id="stop3451"
         offset="0"
         style="stop-color:#000000;stop-opacity:1;" />
      <stop
         id="stop3453"
         offset="1"
         style="stop-color:#000000;stop-opacity:0;" />
    </linearGradient>
    <linearGradient
       id="linearGradient4233"
       inkscape:collect="always">
      <stop
         id="stop4235"
         offset="0"
         style="stop-color:#000000;stop-opacity:1;" />
      <stop
         id="stop4237"
         offset="1"
         style="stop-color:#000000;stop-opacity:0;" />
    </linearGradient>
    <linearGradient
       id="linearGradient4283"
       inkscape:collect="always">
      <stop
         id="stop4285"
         offset="0"
         style="stop-color:#2b1100;stop-opacity:1;" />
      <stop
         id="stop4287"
         offset="1"
         style="stop-color:#2b1100;stop-opacity:0;" />
    </linearGradient>
    <linearGradient
       inkscape:collect="always"
       xlink:href="#linearGradient4283"
       id="linearGradient6031"
       gradientUnits="userSpaceOnUse"
       gradientTransform="translate(-2538.9898,1459.867)"
       x1="503.56857"
       y1="-348.85837"
       x2="512.40308"
       y2="-335.29108" />
    <linearGradient
       inkscape:collect="always"
       xlink:href="#linearGradient3449"
       id="linearGradient6033"
       gradientUnits="userSpaceOnUse"
       gradientTransform="translate(-2538.9898,1459.867)"
       x1="535.43597"
       y1="-304.05469"
       x2="522.1842"
       y2="-302.79257" />
    <linearGradient
       inkscape:collect="always"
       xlink:href="#linearGradient4233"
       id="linearGradient6035"
       gradientUnits="userSpaceOnUse"
       gradientTransform="translate(-2538.9898,1459.867)"
       x1="492.84091"
       y1="-285.43903"
       x2="581.34399"
       y2="-291.27615" />
    <linearGradient
       id="linearGradient4817"
       inkscape:collect="always">
      <stop
         id="stop4819"
         offset="0"
         style="stop-color:#917c6f;stop-opacity:1;" />
      <stop
         id="stop4821"
         offset="1"
         style="stop-color:#2b1100;stop-opacity:1" />
    </linearGradient>
    <linearGradient
       inkscape:collect="always"
       id="linearGradient5172">
      <stop
         style="stop-color:#502d16;stop-opacity:1;"
         offset="0"
         id="stop5174" />
      <stop
         style="stop-color:#917c6f;stop-opacity:1"
         offset="1"
         id="stop5176" />
    </linearGradient>
    <linearGradient
       id="linearGradient5181">
      <stop
         id="stop5183"
         offset="0"
         style="stop-color:#907b6e;stop-opacity:1" />
      <stop
         style="stop-color:#7a6356;stop-opacity:1;"
         offset="0.75249761"
         id="stop5191" />
      <stop
         style="stop-color:#644c3e;stop-opacity:1;"
         offset="0.812451"
         id="stop5189" />
      <stop
         id="stop5185"
         offset="1"
         style="stop-color:#381e0e;stop-opacity:1" />
    </linearGradient>
    <linearGradient
       inkscape:collect="always"
       id="linearGradient5193">
      <stop
         style="stop-color:#826c5f;stop-opacity:1"
         offset="0"
         id="stop5195" />
      <stop
         style="stop-color:#502d16;stop-opacity:1"
         offset="1"
         id="stop5197" />
    </linearGradient>
    <linearGradient
       inkscape:collect="always"
       xlink:href="#linearGradient4817"
       id="linearGradient5870"
       gradientUnits="userSpaceOnUse"
       gradientTransform="matrix(0.89679722,0,0,0.89679722,-2045.7805,1424)"
       x1="660.06604"
       y1="-501.25412"
       x2="616.52441"
       y2="-327.7186" />
    <linearGradient
       inkscape:collect="always"
       xlink:href="#linearGradient5181"
       id="linearGradient5872"
       gradientUnits="userSpaceOnUse"
       gradientTransform="translate(-1159.9752,1449.158)"
       x1="-276.65112"
       y1="-462.97198"
       x2="-282.89807"
       y2="-279.57907" />
    <linearGradient
       inkscape:collect="always"
       xlink:href="#linearGradient5172"
       id="linearGradient5874"
       gradientUnits="userSpaceOnUse"
       gradientTransform="matrix(0.89679722,0,0,0.89679722,-2045.7805,1424)"
       x1="533.96741"
       y1="-432.47049"
       x2="555.86011"
       y2="-240.41187" />
    <linearGradient
       inkscape:collect="always"
       xlink:href="#linearGradient4817"
       id="linearGradient5876"
       gradientUnits="userSpaceOnUse"
       gradientTransform="matrix(0.82173933,0,0,0.82173933,-2014.5348,1366.3891)"
       x1="626.62103"
       y1="-258.30438"
       x2="602.01056"
       y2="-402.81216" />
    <linearGradient
       inkscape:collect="always"
       xlink:href="#linearGradient5193"
       id="linearGradient5878"
       gradientUnits="userSpaceOnUse"
       gradientTransform="matrix(0.89679722,0,0,0.89679722,-2020.1702,1428.0016)"
       x1="564.45752"
       y1="-396.48645"
       x2="567.13477"
       y2="-318.39944" />
    <linearGradient
       id="linearGradient3338"
       inkscape:collect="always">
      <stop
         id="stop3340"
         offset="0"
         style="stop-color:#beb7c8;stop-opacity:1;" />
      <stop
         id="stop3342"
         offset="1"
         style="stop-color:#5d536c;stop-opacity:1" />
    </linearGradient>
    <linearGradient
       inkscape:collect="always"
       id="linearGradient3360">
      <stop
         style="stop-color:#474052;stop-opacity:1"
         offset="0"
         id="stop3362" />
      <stop
         style="stop-color:#5d536c;stop-opacity:1"
         offset="1"
         id="stop3364" />
    </linearGradient>
    <linearGradient
       inkscape:collect="always"
       id="linearGradient3380">
      <stop
         style="stop-color:#857c92;stop-opacity:1"
         offset="0"
         id="stop3382" />
      <stop
         style="stop-color:#5d536c;stop-opacity:1"
         offset="1"
         id="stop3384" />
    </linearGradient>
    <linearGradient
       id="linearGradient3394"
       inkscape:collect="always">
      <stop
         id="stop3396"
         offset="0"
         style="stop-color:#675d76;stop-opacity:1" />
      <stop
         id="stop3398"
         offset="1"
         style="stop-color:#5d536c;stop-opacity:1" />
    </linearGradient>
    <linearGradient
       inkscape:collect="always"
       xlink:href="#linearGradient3394"
       id="linearGradient5534"
       gradientUnits="userSpaceOnUse"
       gradientTransform="translate(-1035.7984,1460.497)"
       x1="548.9787"
       y1="-310.0397"
       x2="511.74536"
       y2="-309.25769" />
    <linearGradient
       inkscape:collect="always"
       xlink:href="#linearGradient3380"
       id="linearGradient5539"
       gradientUnits="userSpaceOnUse"
       gradientTransform="translate(-1104.5149,1460.497)"
       x1="549.00745"
       y1="-310.31183"
       x2="511.80453"
       y2="-309.47519" />
    <radialGradient
       inkscape:collect="always"
       xlink:href="#linearGradient3338"
       id="radialGradient5551"
       gradientUnits="userSpaceOnUse"
       gradientTransform="matrix(0.51554821,-0.84568081,1.1288979,0.68820444,-643.46887,1694.073)"
       cx="423.07739"
       cy="-187.4471"
       fx="423.07739"
       fy="-187.4471"
       r="166.84651" />
    <linearGradient
       inkscape:collect="always"
       xlink:href="#linearGradient3360"
       id="linearGradient5555"
       gradientUnits="userSpaceOnUse"
       gradientTransform="translate(-1124.2237,1458.7504)"
       x1="452.13895"
       y1="-403.7587"
       x2="425.63535"
       y2="-424.26743" />
    <linearGradient
       inkscape:collect="always"
       xlink:href="#linearGradient3360"
       id="linearGradient5558"
       gradientUnits="userSpaceOnUse"
       gradientTransform="translate(-1124.2237,1458.7504)"
       x1="452.13895"
       y1="-403.7587"
       x2="425.63535"
       y2="-424.26743" />
    <linearGradient
       id="linearGradient4274">
      <stop
         id="stop4276"
         offset="0"
         style="stop-color:#241c1c;stop-opacity:1" />
      <stop
         style="stop-color:#483737;stop-opacity:1;"
         offset="0.15879123"
         id="stop4286" />
      <stop
         style="stop-color:#544141;stop-opacity:1"
         offset="0.50204235"
         id="stop4282" />
      <stop
         id="stop4284"
         offset="0.75"
         style="stop-color:#483737;stop-opacity:1;" />
      <stop
         id="stop4278"
         offset="1"
         style="stop-color:#241c1c;stop-opacity:1" />
    </linearGradient>
    <linearGradient
       id="linearGradient4300"
       inkscape:collect="always">
      <stop
         id="stop4302"
         offset="0"
         style="stop-color:#513f3f;stop-opacity:1" />
      <stop
         id="stop4304"
         offset="1"
         style="stop-color:#916f6f;stop-opacity:1" />
    </linearGradient>
    <linearGradient
       id="linearGradient4338"
       inkscape:collect="always">
      <stop
         id="stop4340"
         offset="0"
         style="stop-color:#5a4545;stop-opacity:1" />
      <stop
         id="stop4342"
         offset="1"
         style="stop-color:#6c5353;stop-opacity:1" />
    </linearGradient>
    <linearGradient
       inkscape:collect="always"
       xlink:href="#linearGradient4338"
       id="linearGradient5824"
       gradientUnits="userSpaceOnUse"
       gradientTransform="matrix(1.1870923,0,0,1.1870923,557.10763,972.51967)"
       x1="506.36237"
       y1="-254.24303"
       x2="505.8338"
       y2="-219.35794" />
    <linearGradient
       inkscape:collect="always"
       xlink:href="#linearGradient4300"
       id="linearGradient5826"
       gradientUnits="userSpaceOnUse"
       gradientTransform="matrix(0.83444929,0,0,0.83444929,695.02334,866.91126)"
       x1="521.0072"
       y1="-422.45435"
       x2="521.0072"
       y2="-338.73444" />
    <linearGradient
       inkscape:collect="always"
       xlink:href="#linearGradient4274"
       id="linearGradient5828"
       gradientUnits="userSpaceOnUse"
       gradientTransform="matrix(0.83444929,0,0,0.83444929,741.18088,866.91126)"
       x1="536.79242"
       y1="-366.81332"
       x2="556.42566"
       y2="-324.86945" />
    <linearGradient
       y2="-301.63974"
       x2="535.34979"
       y1="-301.92004"
       x1="538.38654"
       gradientTransform="translate(-25.414983,34.384977)"
       gradientUnits="userSpaceOnUse"
       id="linearGradient5544"
       xlink:href="#linearGradient3146"
       inkscape:collect="always" />
    <linearGradient
       id="linearGradient3146"
       inkscape:collect="always">
      <stop
         id="stop3148"
         offset="0"
         style="stop-color:#1c1c24;stop-opacity:1;" />
      <stop
         id="stop3150"
         offset="1"
         style="stop-color:#1c1c24;stop-opacity:0;" />
    </linearGradient>
    <linearGradient
       y2="-254.24301"
       x2="132.40479"
       y1="-254.24301"
       x1="159.62572"
       gradientTransform="translate(-47.042016,6.3427437)"
       gradientUnits="userSpaceOnUse"
       id="linearGradient4078"
       xlink:href="#linearGradient3139"
       inkscape:collect="always" />
    <linearGradient
       y2="-408.62561"
       x2="159.96489"
       y1="-417.59561"
       x1="192.85487"
       gradientTransform="translate(-63.427437,6.3427437)"
       gradientUnits="userSpaceOnUse"
       id="linearGradient4076"
       xlink:href="#linearGradient3117"
       inkscape:collect="always" />
    <linearGradient
       y2="-408.62561"
       x2="159.96489"
       y1="-417.59561"
       x1="192.85487"
       gradientTransform="matrix(1.6191115,1.2420631,-1.2420631,1.6191115,-653.89128,220.57021)"
       gradientUnits="userSpaceOnUse"
       id="linearGradient4074"
       xlink:href="#linearGradient3117"
       inkscape:collect="always" />
    <linearGradient
       id="linearGradient3117"
       inkscape:collect="always">
      <stop
         id="stop3119"
         offset="0"
         style="stop-color:#aa4400;stop-opacity:1;" />
      <stop
         id="stop3121"
         offset="1"
         style="stop-color:#783000;stop-opacity:1" />
    </linearGradient>
    <linearGradient
       id="linearGradient3139"
       inkscape:collect="always">
      <stop
         id="stop3141"
         offset="0"
         style="stop-color:#2b1100;stop-opacity:1;" />
      <stop
         id="stop3143"
         offset="1"
         style="stop-color:#2b1100;stop-opacity:0;" />
    </linearGradient>
    <linearGradient
       id="linearGradient3911"
       inkscape:collect="always">
      <stop
         id="stop3913"
         offset="0"
         style="stop-color:#241c1c;stop-opacity:1" />
      <stop
         id="stop3915"
         offset="1"
         style="stop-color:#784421;stop-opacity:0;" />
    </linearGradient>
    <linearGradient
       id="linearGradient3971"
       inkscape:collect="always">
      <stop
         id="stop3973"
         offset="0"
         style="stop-color:#917c6f;stop-opacity:1;" />
      <stop
         id="stop3975"
         offset="1"
         style="stop-color:#28170b;stop-opacity:1" />
    </linearGradient>
    <linearGradient
       inkscape:collect="always"
       xlink:href="#linearGradient3911"
       id="linearGradient3762"
       gradientUnits="userSpaceOnUse"
       gradientTransform="translate(0,-16.661873)"
       x1="519.29504"
       y1="-260.8017"
       x2="508.18713"
       y2="-300.37363" />
    <linearGradient
       inkscape:collect="always"
       xlink:href="#linearGradient3971"
       id="linearGradient3786"
       gradientUnits="userSpaceOnUse"
       gradientTransform="matrix(0.9140942,0,0,0.9140942,290.747,786.33643)"
       x1="441.53964"
       y1="-273.2981"
       x2="511.65836"
       y2="-286.14163" />
    <linearGradient
       id="linearGradient3578"
       inkscape:collect="always">
      <stop
         id="stop3580"
         offset="0"
         style="stop-color:#1f1c24;stop-opacity:1;" />
      <stop
         id="stop3582"
         offset="1"
         style="stop-color:#1f1c24;stop-opacity:0;" />
    </linearGradient>
    <linearGradient
       id="linearGradient3604"
       inkscape:collect="always">
      <stop
         id="stop3606"
         offset="0"
         style="stop-color:#211e26;stop-opacity:1;" />
      <stop
         id="stop3608"
         offset="1"
         style="stop-color:#211e26;stop-opacity:0;" />
    </linearGradient>
    <linearGradient
       inkscape:collect="always"
       xlink:href="#linearGradient3578"
       id="linearGradient3958"
       gradientUnits="userSpaceOnUse"
       gradientTransform="matrix(1.1100531,0,0,1.1100531,2863.0486,903.46763)"
       x1="-1887.6512"
       y1="-315.29987"
       x2="-1887.4778"
       y2="-254.37988" />
    <linearGradient
       inkscape:collect="always"
       xlink:href="#linearGradient3604"
       id="linearGradient3967"
       gradientUnits="userSpaceOnUse"
       gradientTransform="matrix(1.1100531,0,0,1.1100531,2931.5428,903.46763)"
       x1="-1801.6218"
       y1="-327.32669"
       x2="-1798.4309"
       y2="-249.51823" />
    <linearGradient
       inkscape:collect="always"
       xlink:href="#linearGradient3265-7-8"
       id="linearGradient6694"
       gradientUnits="userSpaceOnUse"
       gradientTransform="matrix(-1.9601035,0,0,1.9601035,3084.4205,1291.2843)"
       x1="1128.5424"
       y1="-358.21252"
       x2="1128.5"
       y2="-350.88782" />
    <linearGradient
       inkscape:collect="always"
       xlink:href="#linearGradient3265-7-8"
       id="linearGradient6696"
       gradientUnits="userSpaceOnUse"
       gradientTransform="matrix(1.9601035,0,0,1.9601035,-1268.7026,1291.2843)"
       x1="1128.5424"
       y1="-358.21252"
       x2="1128.5"
       y2="-350.88782" />
    <linearGradient
       inkscape:collect="always"
       xlink:href="#linearGradient3265-7-8"
       id="linearGradient9421"
       gradientUnits="userSpaceOnUse"
       gradientTransform="matrix(-1.9601035,0,0,1.9601035,3084.4205,1291.2843)"
       x1="1128.5424"
       y1="-358.21252"
       x2="1128.5"
       y2="-350.88782" />
    <linearGradient
       inkscape:collect="always"
       xlink:href="#linearGradient3265-7-8"
       id="linearGradient9423"
       gradientUnits="userSpaceOnUse"
       gradientTransform="matrix(1.9601035,0,0,1.9601035,-1268.7026,1291.2843)"
       x1="1128.5424"
       y1="-358.21252"
       x2="1128.5"
       y2="-350.88782" />
    <linearGradient
       inkscape:collect="always"
       xlink:href="#linearGradient4094-1"
       id="linearGradient9425"
       gradientUnits="userSpaceOnUse"
       gradientTransform="matrix(0.64156397,0,0,0.64156397,-240.46334,1048.4872)"
       x1="987.61987"
       y1="-434.2847"
       x2="919.21014"
       y2="-435.80673" />
    <linearGradient
       inkscape:collect="always"
       xlink:href="#linearGradient4122-9"
       id="linearGradient9427"
       gradientUnits="userSpaceOnUse"
       gradientTransform="matrix(0.76362355,0,0,0.76362355,-529.2141,788.2198)"
       x1="1627.4237"
       y1="-275.98389"
       x2="1568.8258"
       y2="-208.25383" />
    <linearGradient
       inkscape:collect="always"
       xlink:href="#linearGradient3310"
       id="linearGradient9429"
       gradientUnits="userSpaceOnUse"
       x1="1748.3407"
       y1="-227.81718"
       x2="1759.3722"
       y2="-149.25218" />
    <radialGradient
       inkscape:collect="always"
       xlink:href="#linearGradient4871"
       id="radialGradient9431"
       gradientUnits="userSpaceOnUse"
       gradientTransform="matrix(1.6682146,1.6471163,-0.88417937,0.89550496,-1046.6412,-1706.4218)"
       cx="1014.4006"
       cy="-408.6366"
       fx="1014.4006"
       fy="-408.6366"
       r="120.84957" />
    <linearGradient
       inkscape:collect="always"
       xlink:href="#linearGradient3209"
       id="linearGradient9433"
       gradientUnits="userSpaceOnUse"
       x1="1033.9359"
       y1="-312.79977"
       x2="1033.103"
       y2="-341.95212" />
    <linearGradient
       inkscape:collect="always"
       xlink:href="#linearGradient3219"
       id="linearGradient9435"
       gradientUnits="userSpaceOnUse"
       x1="1033.9359"
       y1="-312.79977"
       x2="1033.103"
       y2="-341.95212" />
    <linearGradient
       inkscape:collect="always"
       xlink:href="#linearGradient4136"
       id="linearGradient9437"
       gradientUnits="userSpaceOnUse"
       gradientTransform="matrix(1.3519879,0,0,1.3519879,-2458.2999,1401.0995)"
       x1="1621.358"
       y1="-347.02103"
       x2="1731.0365"
       y2="-299.90375" />
    <linearGradient
       inkscape:collect="always"
       xlink:href="#linearGradient4283"
       id="linearGradient9439"
       gradientUnits="userSpaceOnUse"
       gradientTransform="translate(-2538.9898,1459.867)"
       x1="503.56857"
       y1="-348.85837"
       x2="512.40308"
       y2="-335.29108" />
    <linearGradient
       inkscape:collect="always"
       xlink:href="#linearGradient3449"
       id="linearGradient9441"
       gradientUnits="userSpaceOnUse"
       gradientTransform="translate(-2538.9898,1459.867)"
       x1="535.43597"
       y1="-304.05469"
       x2="522.1842"
       y2="-302.79257" />
    <linearGradient
       inkscape:collect="always"
       xlink:href="#linearGradient4233"
       id="linearGradient9443"
       gradientUnits="userSpaceOnUse"
       gradientTransform="translate(-2538.9898,1459.867)"
       x1="492.84091"
       y1="-285.43903"
       x2="581.34399"
       y2="-291.27615" />
    <linearGradient
       inkscape:collect="always"
       xlink:href="#linearGradient4817"
       id="linearGradient9445"
       gradientUnits="userSpaceOnUse"
       gradientTransform="matrix(0.89679722,0,0,0.89679722,-2045.7805,1424)"
       x1="660.06604"
       y1="-501.25412"
       x2="616.52441"
       y2="-327.7186" />
    <linearGradient
       inkscape:collect="always"
       xlink:href="#linearGradient5181"
       id="linearGradient9447"
       gradientUnits="userSpaceOnUse"
       gradientTransform="translate(-1159.9752,1449.158)"
       x1="-276.65112"
       y1="-462.97198"
       x2="-282.89807"
       y2="-279.57907" />
    <linearGradient
       inkscape:collect="always"
       xlink:href="#linearGradient5172"
       id="linearGradient9449"
       gradientUnits="userSpaceOnUse"
       gradientTransform="matrix(0.89679722,0,0,0.89679722,-2045.7805,1424)"
       x1="533.96741"
       y1="-432.47049"
       x2="555.86011"
       y2="-240.41187" />
    <linearGradient
       inkscape:collect="always"
       xlink:href="#linearGradient4817"
       id="linearGradient9451"
       gradientUnits="userSpaceOnUse"
       gradientTransform="matrix(0.82173933,0,0,0.82173933,-2014.5348,1366.3891)"
       x1="626.62103"
       y1="-258.30438"
       x2="602.01056"
       y2="-402.81216" />
    <linearGradient
       inkscape:collect="always"
       xlink:href="#linearGradient5193"
       id="linearGradient9453"
       gradientUnits="userSpaceOnUse"
       gradientTransform="matrix(0.89679722,0,0,0.89679722,-2020.1702,1428.0016)"
       x1="564.45752"
       y1="-396.48645"
       x2="567.13477"
       y2="-318.39944" />
    <linearGradient
       inkscape:collect="always"
       xlink:href="#linearGradient3360"
       id="linearGradient9455"
       gradientUnits="userSpaceOnUse"
       gradientTransform="translate(-1124.2237,1458.7504)"
       x1="452.13895"
       y1="-403.7587"
       x2="425.63535"
       y2="-424.26743" />
    <linearGradient
       inkscape:collect="always"
       xlink:href="#linearGradient3360"
       id="linearGradient9457"
       gradientUnits="userSpaceOnUse"
       gradientTransform="translate(-1124.2237,1458.7504)"
       x1="452.13895"
       y1="-403.7587"
       x2="425.63535"
       y2="-424.26743" />
    <radialGradient
       inkscape:collect="always"
       xlink:href="#linearGradient3338"
       id="radialGradient9459"
       gradientUnits="userSpaceOnUse"
       gradientTransform="matrix(0.51554821,-0.84568081,1.1288979,0.68820444,-643.46887,1694.073)"
       cx="423.07739"
       cy="-187.4471"
       fx="423.07739"
       fy="-187.4471"
       r="166.84651" />
    <linearGradient
       inkscape:collect="always"
       xlink:href="#linearGradient3380"
       id="linearGradient9461"
       gradientUnits="userSpaceOnUse"
       gradientTransform="translate(-1104.5149,1460.497)"
       x1="549.00745"
       y1="-310.31183"
       x2="511.80453"
       y2="-309.47519" />
    <linearGradient
       inkscape:collect="always"
       xlink:href="#linearGradient3394"
       id="linearGradient9463"
       gradientUnits="userSpaceOnUse"
       gradientTransform="translate(-1035.7984,1460.497)"
       x1="548.9787"
       y1="-310.0397"
       x2="511.74536"
       y2="-309.25769" />
    <linearGradient
       inkscape:collect="always"
       xlink:href="#linearGradient4338"
       id="linearGradient9465"
       gradientUnits="userSpaceOnUse"
       gradientTransform="matrix(1.1870923,0,0,1.1870923,557.10763,972.51967)"
       x1="506.36237"
       y1="-254.24303"
       x2="505.8338"
       y2="-219.35794" />
    <linearGradient
       inkscape:collect="always"
       xlink:href="#linearGradient4300"
       id="linearGradient9467"
       gradientUnits="userSpaceOnUse"
       gradientTransform="matrix(0.83444929,0,0,0.83444929,695.02334,866.91126)"
       x1="521.0072"
       y1="-422.45435"
       x2="521.0072"
       y2="-338.73444" />
    <linearGradient
       inkscape:collect="always"
       xlink:href="#linearGradient4274"
       id="linearGradient9469"
       gradientUnits="userSpaceOnUse"
       gradientTransform="matrix(0.83444929,0,0,0.83444929,741.18088,866.91126)"
       x1="536.79242"
       y1="-366.81332"
       x2="556.42566"
       y2="-324.86945" />
    <linearGradient
       inkscape:collect="always"
       xlink:href="#linearGradient3146"
       id="linearGradient9471"
       gradientUnits="userSpaceOnUse"
       gradientTransform="translate(-25.414983,34.384977)"
       x1="538.38654"
       y1="-301.92004"
       x2="535.34979"
       y2="-301.63974" />
    <linearGradient
       inkscape:collect="always"
       xlink:href="#linearGradient3117"
       id="linearGradient9473"
       gradientUnits="userSpaceOnUse"
       gradientTransform="matrix(1.6191115,1.2420631,-1.2420631,1.6191115,-653.89128,220.57021)"
       x1="192.85487"
       y1="-417.59561"
       x2="159.96489"
       y2="-408.62561" />
    <linearGradient
       inkscape:collect="always"
       xlink:href="#linearGradient3117"
       id="linearGradient9475"
       gradientUnits="userSpaceOnUse"
       gradientTransform="translate(-63.427437,6.3427437)"
       x1="192.85487"
       y1="-417.59561"
       x2="159.96489"
       y2="-408.62561" />
    <linearGradient
       inkscape:collect="always"
       xlink:href="#linearGradient3139"
       id="linearGradient9477"
       gradientUnits="userSpaceOnUse"
       gradientTransform="translate(-47.042016,6.3427437)"
       x1="159.62572"
       y1="-254.24301"
       x2="132.40479"
       y2="-254.24301" />
    <linearGradient
       inkscape:collect="always"
       xlink:href="#linearGradient3971"
       id="linearGradient9479"
       gradientUnits="userSpaceOnUse"
       gradientTransform="matrix(0.9140942,0,0,0.9140942,290.747,786.33643)"
       x1="441.53964"
       y1="-273.2981"
       x2="511.65836"
       y2="-286.14163" />
    <linearGradient
       inkscape:collect="always"
       xlink:href="#linearGradient3911"
       id="linearGradient9481"
       gradientUnits="userSpaceOnUse"
       gradientTransform="translate(0,-16.661873)"
       x1="519.29504"
       y1="-260.8017"
       x2="508.18713"
       y2="-300.37363" />
    <linearGradient
       inkscape:collect="always"
       xlink:href="#linearGradient3604"
       id="linearGradient9483"
       gradientUnits="userSpaceOnUse"
       gradientTransform="matrix(1.1100531,0,0,1.1100531,2931.5428,903.46763)"
       x1="-1801.6218"
       y1="-327.32669"
       x2="-1798.4309"
       y2="-249.51823" />
    <linearGradient
       inkscape:collect="always"
       xlink:href="#linearGradient3578"
       id="linearGradient9485"
       gradientUnits="userSpaceOnUse"
       gradientTransform="matrix(1.1100531,0,0,1.1100531,2863.0486,903.46763)"
       x1="-1887.6512"
       y1="-315.29987"
       x2="-1887.4778"
       y2="-254.37988" />
  </defs>
  <sodipodi:namedview
     id="base"
     pagecolor="#ffffff"
     bordercolor="#666666"
     borderopacity="1.0"
     inkscape:pageopacity="0.0"
     inkscape:pageshadow="2"
     inkscape:zoom="0.15874582"
     inkscape:cx="3048.3677"
     inkscape:cy="1286.3766"
     inkscape:document-units="px"
     inkscape:current-layer="layer1"
     showgrid="false"
     fit-margin-top="0"
     fit-margin-left="0"
     fit-margin-right="0"
     fit-margin-bottom="0"
     inkscape:window-width="1920"
     inkscape:window-height="1017"
     inkscape:window-x="0"
     inkscape:window-y="28"
     inkscape:window-maximized="1"
     showguides="true"
     inkscape:guide-bbox="true"
     inkscape:snap-grids="false"
     inkscape:snap-to-guides="false">
    <sodipodi:guide
       orientation="0,1"
       position="371.87981,1115.6394"
       id="guide6622" />
    <sodipodi:guide
       orientation="0,1"
       position="73.848474,189.89608"
       id="guide6624" />
    <sodipodi:guide
       orientation="1,0"
       position="363.96748,1521.806"
       id="guide6626" />
    <sodipodi:guide
       orientation="1,0"
       position="862.44468,1442.6827"
       id="guide6628" />
  </sodipodi:namedview>
  <metadata
     id="metadata7">
    <rdf:RDF>
      <cc:Work
         rdf:about="">
        <dc:format>image/svg+xml</dc:format>
        <dc:type
           rdf:resource="http://purl.org/dc/dcmitype/StillImage" />
        <dc:title></dc:title>
      </cc:Work>
    </rdf:RDF>
  </metadata>
  <g
     inkscape:label="Capa 1"
     inkscape:groupmode="layer"
     id="layer1"
     transform="translate(15278.44,186.36436)">
    <rect
       style="opacity:0.8;fill:#000000;fill-opacity:1;stroke:none"
       id="rect6564"
       width="23217.738"
       height="1351.7388"
       x="-15278.44"
       y="-186.36436" />
    <g
       id="g7832">
      <g
         transform="translate(-26376.636,24.180152)"
         id="g7342">
        <g
           style="font-size:204.73330688px;font-style:normal;font-variant:normal;font-weight:normal;font-stretch:normal;line-height:125%;letter-spacing:0px;word-spacing:0px;fill:#ffffff;fill-opacity:1;stroke:none;font-family:Short Stack;-inkscape-font-specification:Short Stack"
           id="text3044-63">
          <path
             inkscape:connector-curvature="0"
             d="m 11640.353,561.40581 c -5.998,0 -11.263,-1.09964 -15.794,-3.29892 -4.532,-2.26593 -8.431,-5.26495 -11.697,-8.99707 -3.265,-3.79875 -5.964,-8.19731 -8.097,-13.1957 -2.133,-4.99835 -3.832,-10.26329 -5.098,-15.79486 -1.267,-5.53148 -2.166,-11.16298 -2.699,-16.89449 -0.467,-5.73141 -0.7,-11.22961 -0.7,-16.49463 0,-3.86533 0.133,-8.1306 0.4,-12.79583 0.266,-4.7317 0.633,-9.49681 1.099,-14.29534 0.467,-4.79834 1,-9.4968 1.6,-14.09541 0.666,-4.59839 1.399,-8.73037 2.199,-12.39596 0.4,-1.86594 1.499,-3.56538 3.299,-5.09834 1.799,-1.53271 4.032,-2.29912 6.698,-2.29926 1.599,1.4e-4 2.899,0.23339 3.898,0.69978 1,0.46664 1.8,1.09977 2.4,1.89938 0.599,0.79987 0.999,1.7329 1.199,2.79909 0.267,0.9998 0.4,2.09944 0.4,3.29892 0,0.73322 -0.03,1.53296 -0.1,2.39922 -0.07,0.86651 -0.166,1.69957 -0.3,2.49919 -0.533,2.99914 -1.066,6.33138 -1.599,9.99674 -0.467,3.59893 -0.9,7.29772 -1.3,11.09638 -0.4,3.73222 -0.733,7.43101 -0.999,11.09639 -0.2,3.59891 -0.3,6.89783 -0.3,9.89678 0,4.33199 0.1,8.89717 0.3,13.69553 0.266,4.7985 0.733,9.56361 1.399,14.29535 0.733,4.66519 1.733,9.1304 2.999,13.39563 1.266,4.26531 2.966,8.03075 5.098,11.29632 2.133,3.26563 4.732,5.86478 7.798,7.79746 3.132,1.93272 6.831,2.89907 11.096,2.89906 5.065,10e-6 9.697,-0.66644 13.896,-1.99935 4.265,-1.33288 7.93,-3.26558 10.996,-5.79811 3.066,-2.59913 5.465,-5.73144 7.198,-9.39694 1.799,-3.66544 2.799,-7.83074 2.999,-12.49593 l 2.399,-55.18202 c 0.333,-6.99762 0.9,-12.89569 1.7,-17.69424 0.799,-4.86496 1.832,-8.76369 3.099,-11.69619 1.266,-2.93225 2.765,-5.03156 4.498,-6.29795 1.733,-1.33276 3.665,-1.99921 5.798,-1.99935 2.199,1.4e-4 3.965,1.19975 5.298,3.59883 1.333,2.33271 2,5.19844 2,8.5972 0,0.79986 -0.3,2.86586 -0.9,6.19798 -0.6,3.33236 -1.3,7.59764 -2.099,12.79583 -0.733,5.13177 -1.4,10.99652 -2,17.59427 -0.599,6.53129 -0.899,13.39571 -0.899,20.59329 0,3.66554 0.03,7.49762 0.1,11.49626 0.07,3.99875 0.133,8.06409 0.2,12.19603 0.133,4.06538 0.233,8.16404 0.3,12.29599 0.133,4.13202 0.199,8.13071 0.199,11.99609 0,1.99937 -0.366,3.73214 -1.099,5.19831 -0.733,1.4662 -1.666,2.69913 -2.799,3.6988 -1.133,0.99968 -2.433,1.76609 -3.899,2.29925 -1.4,0.46652 -2.832,0.69977 -4.299,0.69977 -0.733,0 -1.399,-0.26657 -1.999,-0.79974 -0.6,-0.5998 -1.166,-1.26625 -1.699,-1.99935 -0.467,-0.79973 -0.9,-1.59947 -1.3,-2.39922 -0.333,-0.79973 -0.633,-1.46617 -0.9,-1.99935 -2.399,2.46588 -4.965,4.7318 -7.697,6.79779 -2.733,2.066 -5.732,3.86541 -8.997,5.39824 -3.266,1.53283 -6.831,2.73244 -10.697,3.59883 -3.799,0.86638 -7.997,1.29957 -12.596,1.29957"
             id="path7190" />
          <path
             inkscape:connector-curvature="0"
             d="m 11733.623,500.62561 c 0,-2.06593 0.07,-4.3985 0.2,-6.99772 0.133,-2.59908 0.333,-5.2982 0.6,-8.09736 0.266,-2.79901 0.566,-5.63142 0.899,-8.49723 0.4,-2.93229 0.833,-5.73138 1.3,-8.39727 0.467,-2.73235 0.966,-5.23153 1.5,-7.49755 0.599,-2.33248 1.199,-4.33182 1.799,-5.99805 0.733,-1.79931 1.899,-3.2655 3.499,-4.39857 1.599,-1.1995 3.732,-1.7993 6.398,-1.79941 2.399,1.1e-4 4.298,0.86649 5.698,2.59915 1.466,1.73288 2.199,3.79887 2.199,6.19798 0,0.39997 -0.333,1.66623 -1,3.79877 -0.599,2.06609 -1.299,4.86517 -2.099,8.39726 -0.733,3.46562 -1.433,7.59761 -2.099,12.39596 -0.6,4.73187 -0.9,9.93017 -0.9,15.59492 0,2.19934 0.1,4.89846 0.3,8.09737 0.267,3.199 0.733,6.56457 1.4,10.09671 0.666,3.46557 1.599,6.96443 2.799,10.49658 1.199,3.46556 2.799,6.59787 4.798,9.39694 2.066,2.7991 4.565,5.06503 7.498,6.79778 2.932,1.73278 6.431,2.59917 10.496,2.59915 3.466,2e-5 6.665,-0.53314 9.597,-1.59947 2.932,-1.06631 5.598,-2.43253 7.998,-4.09867 2.465,-1.73275 4.665,-3.66545 6.597,-5.79811 2,-2.13261 3.766,-4.26525 5.299,-6.39792 1.599,-2.1326 2.965,-4.13195 4.098,-5.99804 1.2,-1.86602 2.233,-3.43218 3.099,-4.69847 0.4,-3.86536 0.7,-7.26425 0.9,-10.19668 0.2,-2.99897 0.333,-5.73141 0.4,-8.19733 0.133,-2.4658 0.2,-4.76505 0.2,-6.89775 0.07,-2.19922 0.1,-4.43182 0.1,-6.69782 0,-2.3325 -0.03,-4.79836 -0.1,-7.39759 0,-2.66572 0,-5.69806 0,-9.09704 l 0,-11.89612 c 0,-1.39944 0.3,-2.56573 0.9,-3.49886 0.666,-0.93293 1.466,-1.69934 2.399,-2.29925 0.933,-0.5997 1.966,-0.99957 3.099,-1.19961 1.133,-0.26647 2.166,-0.39976 3.099,-0.39987 0.799,1.1e-4 1.666,0.1334 2.599,0.39987 0.933,0.26669 1.799,0.66655 2.599,1.19961 0.8,0.53326 1.466,1.26636 1.999,2.19928 0.533,0.86649 0.8,1.89948 0.8,3.09899 l -0.2,94.8691 c 0,3.39889 -0.666,5.69814 -1.999,6.89775 -1.333,1.13296 -3.366,1.69944 -6.098,1.69945 -2.466,-10e-6 -4.399,-0.19994 -5.798,-0.59981 -1.333,-0.33322 -2.333,-0.99967 -2.999,-1.99935 -0.6,-0.99967 -0.967,-2.36589 -1.1,-4.09866 -0.133,-1.73276 -0.2,-3.96537 -0.2,-6.69782 l 0,-6.79779 c -1.733,3.13233 -3.699,6.13135 -5.898,8.99707 -2.133,2.7991 -4.632,5.26496 -7.498,7.39759 -2.865,2.13264 -6.164,3.83209 -9.896,5.09834 -3.733,1.26625 -7.998,1.89938 -12.796,1.89938 -6.931,0 -12.896,-1.06632 -17.894,-3.19895 -4.932,-2.066 -9.131,-4.79844 -12.596,-8.19733 -3.399,-3.46553 -6.165,-7.39758 -8.298,-11.79616 -2.066,-4.39855 -3.698,-8.89708 -4.898,-13.49561 -1.133,-4.59846 -1.899,-9.09699 -2.299,-13.4956 -0.333,-4.39852 -0.5,-8.33056 -0.5,-11.79616"
             id="path7192" />
        </g>
        <g
           style="font-size:120.21715546px;font-style:normal;font-weight:normal;line-height:125%;letter-spacing:0px;word-spacing:0px;fill:#ffffff;fill-opacity:1;stroke:none;font-family:Sans"
           id="text3048-19">
          <path
             inkscape:connector-curvature="0"
             d="m 11511.095,680.74218 c -3.522,0 -6.614,-0.6457 -9.275,-1.93709 -2.661,-1.33053 -4.95,-3.09152 -6.868,-5.28298 -1.917,-2.23059 -3.502,-4.81338 -4.755,-7.74838 -1.252,-2.93497 -2.25,-6.02649 -2.993,-9.27456 -0.744,-3.24803 -1.272,-6.55478 -1.585,-9.92027 -0.274,-3.36541 -0.411,-6.5939 -0.411,-9.68546 0,-2.26968 0.08,-4.7742 0.235,-7.51357 0.156,-2.77841 0.372,-5.57643 0.646,-8.39407 0.273,-2.81753 0.586,-5.57642 0.939,-8.27667 0.391,-2.70012 0.821,-5.12638 1.291,-7.27877 0.235,-1.09566 0.881,-2.09355 1.937,-2.99369 1.057,-0.89999 2.368,-1.35002 3.933,-1.3501 0.939,8e-5 1.702,0.13705 2.289,0.4109 0.587,0.27401 1.057,0.64578 1.409,1.1153 0.352,0.46967 0.587,1.01754 0.705,1.64359 0.156,0.58707 0.234,1.23277 0.234,1.93709 0,0.43054 -0.02,0.90014 -0.06,1.4088 -0.04,0.5088 -0.1,0.99797 -0.176,1.46749 -0.314,1.76107 -0.627,3.71772 -0.94,5.86998 -0.274,2.11326 -0.528,4.28515 -0.763,6.51568 -0.235,2.19151 -0.43,4.3634 -0.587,6.51567 -0.117,2.11324 -0.176,4.05034 -0.176,5.81128 0,2.5437 0.06,5.22432 0.176,8.04187 0.157,2.81763 0.431,5.61565 0.822,8.39407 0.431,2.73935 1.018,5.36127 1.761,7.86577 0.744,2.50454 1.741,4.71557 2.994,6.63308 1.252,1.91754 2.778,3.44373 4.578,4.57858 1.84,1.13487 4.011,1.7023 6.516,1.70229 2.974,10e-6 5.694,-0.39132 8.159,-1.17399 2.505,-0.78265 4.657,-1.91752 6.457,-3.40459 1.8,-1.52618 3.209,-3.36544 4.227,-5.51778 1.056,-2.1523 1.643,-4.59813 1.761,-7.33747 l 1.408,-32.40228 c 0.196,-4.10892 0.529,-7.57221 0.998,-10.38986 0.47,-2.85665 1.076,-5.14594 1.82,-6.86788 0.743,-1.72178 1.624,-2.95448 2.642,-3.69808 1.017,-0.78259 2.152,-1.17392 3.404,-1.174 1.291,8e-5 2.328,0.70448 3.111,2.11319 0.783,1.36974 1.174,3.05247 1.174,5.04818 0,0.46967 -0.176,1.6828 -0.528,3.63939 -0.352,1.95673 -0.763,4.46125 -1.233,7.51357 -0.43,3.01332 -0.822,6.45703 -1.174,10.33116 -0.352,3.8351 -0.528,7.86582 -0.528,12.09216 0,2.15236 0.02,4.40252 0.06,6.75048 0.04,2.34802 0.08,4.73514 0.117,7.16137 0.08,2.38715 0.137,4.79383 0.176,7.22007 0.08,2.42628 0.117,4.77426 0.117,7.04398 0,1.174 -0.215,2.19146 -0.645,3.05238 -0.431,0.86094 -0.979,1.58491 -1.644,2.1719 -0.665,0.587 -1.428,1.03703 -2.289,1.35009 -0.822,0.27394 -1.663,0.4109 -2.524,0.4109 -0.431,0 -0.822,-0.15653 -1.174,-0.4696 -0.352,-0.35219 -0.685,-0.74352 -0.998,-1.17399 -0.274,-0.4696 -0.528,-0.93919 -0.763,-1.4088 -0.196,-0.46959 -0.372,-0.86092 -0.528,-1.17399 -1.409,1.44793 -2.916,2.77846 -4.52,3.99158 -1.605,1.21313 -3.366,2.26973 -5.283,3.16979 -1.918,0.90006 -4.012,1.60446 -6.281,2.11319 -2.231,0.50873 -4.696,0.7631 -7.396,0.7631"
             style="font-variant:normal;font-stretch:normal;font-family:Short Stack;-inkscape-font-specification:Short Stack"
             id="path7177" />
          <path
             inkscape:connector-curvature="0"
             d="m 11567.916,671.35021 c 0,-1.01745 0.06,-2.07405 0.176,-3.16978 0.117,-1.09572 0.176,-2.15232 0.176,-3.16979 0,-2.38711 -0.117,-4.87207 -0.352,-7.45488 -0.196,-2.07403 -0.313,-4.24592 -0.352,-6.51567 0,-2.2697 0.08,-4.26549 0.235,-5.98738 l 1.937,-23.18641 c 0.156,-1.87834 0.626,-3.3654 1.408,-4.46119 0.822,-1.1348 2.27,-1.70223 4.344,-1.70229 0.861,6e-5 1.605,0.15659 2.231,0.4696 0.665,0.27399 1.213,0.64576 1.643,1.11529 0.47,0.46966 0.842,0.99796 1.116,1.5849 0.274,0.54792 0.469,1.09579 0.587,1.64359 1.604,-1.21307 3.365,-2.2501 5.283,-3.11109 1.917,-0.86086 3.893,-1.56526 5.928,-2.11319 2.035,-0.5478 4.09,-0.93913 6.164,-1.174 2.074,-0.27386 4.089,-0.41083 6.046,-0.41089 1.644,6e-5 3.522,0.11746 5.635,0.3522 2.113,0.19573 4.109,0.64576 5.988,1.35009 1.878,0.70446 3.463,1.72192 4.754,3.05239 1.292,1.33059 1.937,3.13071 1.937,5.40038 0,1.60451 -0.508,2.91547 -1.526,3.93288 -0.978,0.97838 -2.289,1.46755 -3.933,1.4675 -1.252,5e-5 -2.23,-0.27388 -2.935,-0.8218 -0.704,-0.58694 -1.33,-1.23264 -1.878,-1.93709 -0.235,-0.27388 -0.509,-0.56738 -0.822,-0.8805 -0.313,-0.31301 -0.763,-0.60651 -1.35,-0.88049 -0.548,-0.27388 -1.272,-0.48911 -2.172,-0.6457 -0.9,-0.15648 -2.054,-0.23475 -3.463,-0.2348 -4.422,5e-5 -8.257,0.46965 -11.505,1.40879 -3.248,0.90012 -5.929,2.32848 -8.042,4.28509 -2.113,1.9567 -3.679,4.48079 -4.696,7.57227 -1.018,3.05243 -1.526,6.73094 -1.526,11.03556 0,1.60449 0.02,3.13068 0.06,4.57858 0.04,1.40882 0.1,2.81762 0.176,4.22639 0.118,1.40881 0.235,2.83717 0.353,4.28508 0.117,1.44794 0.234,2.9937 0.352,4.63728 0.08,1.25228 0.195,2.54367 0.352,3.87419 0.156,1.33054 0.235,2.62193 0.235,3.87418 0,0.35221 -0.1,0.84137 -0.294,1.4675 -0.195,0.62613 -0.528,1.25226 -0.998,1.87839 -0.43,0.587 -1.017,1.1153 -1.761,1.5849 -0.704,0.43046 -1.585,0.64569 -2.641,0.64569 -1.37,0 -2.505,-0.15653 -3.405,-0.46959 -0.861,-0.31307 -1.565,-0.78267 -2.113,-1.4088 -0.509,-0.66526 -0.861,-1.48706 -1.056,-2.46539 -0.196,-1.01746 -0.294,-2.19145 -0.294,-3.52199"
             style="font-variant:normal;font-stretch:normal;font-family:Short Stack;-inkscape-font-specification:Short Stack"
             id="path7179" />
          <path
             inkscape:connector-curvature="0"
             d="m 11636.008,671.35021 c 0,-1.01745 0.06,-2.07405 0.176,-3.16978 0.117,-1.09572 0.176,-2.15232 0.176,-3.16979 0,-2.38711 -0.117,-4.87207 -0.352,-7.45488 -0.196,-2.07403 -0.313,-4.24592 -0.352,-6.51567 0,-2.2697 0.08,-4.26549 0.234,-5.98738 l 1.937,-23.18641 c 0.157,-1.87834 0.627,-3.3654 1.409,-4.46119 0.822,-1.1348 2.27,-1.70223 4.344,-1.70229 0.861,6e-5 1.604,0.15659 2.231,0.4696 0.665,0.27399 1.213,0.64576 1.643,1.11529 0.47,0.46966 0.842,0.99796 1.116,1.5849 0.273,0.54792 0.469,1.09579 0.587,1.64359 1.604,-1.21307 3.365,-2.2501 5.282,-3.11109 1.918,-0.86086 3.894,-1.56526 5.929,-2.11319 2.035,-0.5478 4.09,-0.93913 6.164,-1.174 2.074,-0.27386 4.089,-0.41083 6.046,-0.41089 1.643,6e-5 3.522,0.11746 5.635,0.3522 2.113,0.19573 4.109,0.64576 5.987,1.35009 1.879,0.70446 3.464,1.72192 4.755,3.05239 1.291,1.33059 1.937,3.13071 1.937,5.40038 0,1.60451 -0.509,2.91547 -1.526,3.93288 -0.979,0.97838 -2.289,1.46755 -3.933,1.4675 -1.252,5e-5 -2.231,-0.27388 -2.935,-0.8218 -0.704,-0.58694 -1.331,-1.23264 -1.878,-1.93709 -0.235,-0.27388 -0.509,-0.56738 -0.822,-0.8805 -0.313,-0.31301 -0.763,-0.60651 -1.35,-0.88049 -0.548,-0.27388 -1.272,-0.48911 -2.172,-0.6457 -0.9,-0.15648 -2.055,-0.23475 -3.463,-0.2348 -4.423,5e-5 -8.258,0.46965 -11.506,1.40879 -3.248,0.90012 -5.928,2.32848 -8.042,4.28509 -2.113,1.9567 -3.678,4.48079 -4.695,7.57227 -1.018,3.05243 -1.527,6.73094 -1.527,11.03556 0,1.60449 0.02,3.13068 0.06,4.57858 0.04,1.40882 0.1,2.81762 0.176,4.22639 0.117,1.40881 0.235,2.83717 0.352,4.28508 0.118,1.44794 0.235,2.9937 0.353,4.63728 0.08,1.25228 0.195,2.54367 0.352,3.87419 0.156,1.33054 0.234,2.62193 0.235,3.87418 0,0.35221 -0.1,0.84137 -0.294,1.4675 -0.196,0.62613 -0.528,1.25226 -0.998,1.87839 -0.43,0.587 -1.017,1.1153 -1.761,1.5849 -0.704,0.43046 -1.585,0.64569 -2.641,0.64569 -1.37,0 -2.505,-0.15653 -3.405,-0.46959 -0.861,-0.31307 -1.565,-0.78267 -2.113,-1.4088 -0.509,-0.66526 -0.861,-1.48706 -1.057,-2.46539 -0.195,-1.01746 -0.293,-2.19145 -0.293,-3.52199"
             style="font-variant:normal;font-stretch:normal;font-family:Short Stack;-inkscape-font-specification:Short Stack"
             id="path7181" />
          <path
             inkscape:connector-curvature="0"
             d="m 11700.871,653.91638 c 0,-3.05236 0.43,-6.22215 1.291,-9.50937 0.9,-3.32628 2.172,-6.4178 3.816,-9.27456 1.565,-2.85668 3.483,-5.5373 5.752,-8.04187 2.309,-2.50447 4.873,-4.67636 7.69,-6.51568 2.818,-1.87833 5.851,-3.34582 9.099,-4.40248 3.287,-1.09567 6.711,-1.64353 10.272,-1.6436 2.7,7e-5 5.303,0.37183 7.807,1.1153 2.505,0.70446 4.853,1.68279 7.044,2.93499 2.192,1.25232 4.187,2.73938 5.988,4.46118 1.839,1.72192 3.404,3.58074 4.695,5.57648 1.292,1.95671 2.29,4.0112 2.994,6.16348 0.704,2.15237 1.057,4.30469 1.057,6.45697 0,1.91757 -0.118,3.61986 -0.352,5.10689 -0.196,1.44795 -0.451,2.89588 -0.764,4.34378 -0.234,1.48709 -0.469,3.03285 -0.704,4.63728 -0.235,1.56535 -0.352,3.40461 -0.352,5.51778 0,1.83928 0.137,3.36547 0.411,4.57859 0.274,1.174 0.665,2.13277 1.174,2.87628 0.508,0.74355 1.115,1.27184 1.819,1.5849 0.744,0.27394 1.566,0.41091 2.466,0.4109 0.235,10e-6 0.528,-0.0587 0.88,-0.1761 0.352,-0.15653 0.685,-0.31306 0.998,-0.4696 0.313,-0.19566 0.587,-0.37176 0.822,-0.5283 0.235,-0.19565 0.391,-0.35219 0.47,-0.4696 0.43,-0.43045 0.841,-0.80222 1.232,-1.11529 0.431,-0.35219 0.998,-0.52829 1.703,-0.5283 1.408,10e-6 2.465,0.33264 3.169,0.9979 0.744,0.66527 1.116,1.761 1.116,3.28718 0,0.93921 -0.294,1.91754 -0.881,2.93499 -0.548,1.01747 -1.33,1.95666 -2.348,2.81759 -1.017,0.8218 -2.23,1.50663 -3.639,2.05449 -1.409,0.54787 -2.974,0.8218 -4.696,0.8218 -3.444,0 -6.398,-0.95876 -8.864,-2.87629 -2.426,-1.95665 -4.168,-4.61771 -5.224,-7.98317 -1.448,1.5262 -3.033,2.9937 -4.755,4.40249 -1.722,1.36966 -3.62,2.58279 -5.694,3.63938 -2.074,1.01747 -4.383,1.8197 -6.926,2.40669 -2.505,0.62613 -5.283,0.9392 -8.336,0.9392 -2.308,0 -4.676,-0.31307 -7.102,-0.9392 -2.387,-0.62613 -4.716,-1.50662 -6.986,-2.64149 -2.23,-1.13486 -4.324,-2.50452 -6.28,-4.10898 -1.957,-1.64359 -3.679,-3.44371 -5.166,-5.40038 -1.448,-1.95665 -2.602,-4.06984 -3.463,-6.33958 -0.822,-2.2697 -1.233,-4.63726 -1.233,-7.10267 m 10.977,-0.1174 c 0,2.42628 0.646,4.65687 1.937,6.69177 1.33,2.03495 3.033,3.77637 5.107,5.22428 2.074,1.44794 4.383,2.58281 6.926,3.40459 2.583,0.78267 5.107,1.17401 7.573,1.174 3.287,10e-6 6.3,-0.62612 9.039,-1.8784 2.779,-1.25225 5.146,-2.87627 7.103,-4.87208 1.996,-1.99577 3.542,-4.22636 4.637,-6.69177 1.096,-2.5045 1.644,-4.96989 1.644,-7.39618 0,-1.36963 0.293,-2.56319 0.881,-3.58068 0.626,-1.05656 1.213,-2.05446 1.761,-2.99369 0.156,-0.19563 0.234,-0.48913 0.234,-0.8805 0.04,-0.43043 0.04,-0.86089 0,-1.29139 0,-0.46956 -0.02,-0.90003 -0.06,-1.2914 -0.04,-0.39129 -0.06,-0.66522 -0.06,-0.8218 0,-0.86088 -0.294,-1.80008 -0.881,-2.81759 -0.587,-1.01741 -1.389,-2.03488 -2.406,-3.05238 -0.979,-1.01742 -2.114,-1.99575 -3.405,-2.93499 -1.252,-0.97828 -2.544,-1.83921 -3.874,-2.58279 -1.331,-0.74348 -2.661,-1.33048 -3.992,-1.761 -1.33,-0.46954 -2.524,-0.70434 -3.58,-0.70439 -2.974,5e-5 -5.753,0.41095 -8.336,1.23269 -2.543,0.82185 -4.872,1.93714 -6.985,3.34589 -2.113,1.40884 -4.011,3.072 -5.694,4.98948 -1.643,1.87844 -3.033,3.89379 -4.168,6.04608 -1.095,2.15236 -1.937,4.38295 -2.524,6.69177 -0.587,2.30889 -0.88,4.55905 -0.88,6.75048"
             style="font-variant:normal;font-stretch:normal;font-family:Short Stack;-inkscape-font-specification:Short Stack"
             id="path7183" />
          <path
             inkscape:connector-curvature="0"
             d="m 11790.564,654.26858 c 0,-5.40035 0.783,-10.4681 2.348,-15.20325 1.566,-4.7742 3.874,-8.94188 6.927,-12.50305 3.052,-3.6002 6.829,-6.43735 11.329,-8.51147 4.5,-2.074 9.666,-3.11102 15.497,-3.11109 1.095,7e-5 2.348,0.19573 3.756,0.587 1.409,0.39139 2.838,0.95883 4.286,1.70229 1.447,0.7436 2.876,1.64366 4.285,2.70019 1.408,1.01752 2.661,2.17195 3.756,3.46329 1.096,1.25232 1.977,2.62198 2.642,4.10899 0.665,1.48711 0.998,3.03287 0.998,4.63728 0,0.46964 -0.1,1.05664 -0.294,1.76099 -0.195,0.70444 -0.469,1.36971 -0.822,1.99579 -0.313,0.62618 -0.704,1.13491 -1.174,1.5262 -0.469,0.39137 -0.997,0.5479 -1.584,0.4696 -0.548,-0.11736 -1.155,-0.54783 -1.82,-1.2914 -0.665,-0.74349 -1.35,-1.97618 -2.055,-3.69808 -0.548,-1.25222 -1.33,-2.32838 -2.348,-3.22849 -0.978,-0.90002 -2.113,-1.62398 -3.404,-2.17189 -1.292,-0.58695 -2.681,-1.01741 -4.168,-1.2914 -1.448,-0.27388 -2.896,-0.41085 -4.344,-0.4109 -3.561,5e-5 -6.77,0.72402 -9.626,2.17189 -2.818,1.44798 -5.225,3.36551 -7.22,5.75258 -1.996,2.34804 -3.522,5.02866 -4.579,8.04187 -1.057,3.01329 -1.585,6.06568 -1.585,9.15717 0,3.79594 0.567,6.90703 1.702,9.33326 1.135,2.38715 2.74,4.2851 4.814,5.69388 2.113,1.36968 4.617,2.30887 7.513,2.81759 2.935,0.50874 6.183,0.76311 9.744,0.7631 1.057,10e-6 2.074,0.0391 3.053,0.1174 1.017,0.0391 1.996,0.0587 2.935,0.0587 0.978,-0.0391 1.956,-0.13696 2.935,-0.2935 0.978,-0.15652 1.996,-0.45002 3.052,-0.8805 0.861,-0.39132 1.663,-0.76308 2.407,-1.11529 0.665,-0.27392 1.311,-0.52829 1.937,-0.7631 0.626,-0.23479 1.096,-0.35219 1.409,-0.3522 0.391,1e-5 0.939,0.11741 1.643,0.3522 0.705,0.23481 1.39,0.62614 2.055,1.174 0.704,0.54787 1.311,1.27183 1.82,2.17189 0.508,0.86094 0.763,1.9371 0.763,3.22849 0,0.66527 -0.235,1.3501 -0.705,2.05449 -0.43,0.66527 -0.998,1.2914 -1.702,1.87839 -0.665,0.54787 -1.37,0.9979 -2.113,1.3501 -0.744,0.3522 -1.409,0.52829 -1.996,0.52829 l -4.637,0 c -2.74,0 -5.42,0.1174 -8.042,0.3522 -2.583,0.2348 -5.283,0.3522 -8.101,0.3522 -4.187,0 -8.179,-0.39133 -11.974,-1.17399 -3.796,-0.8218 -7.123,-2.21103 -9.979,-4.16769 -2.857,-1.95665 -5.127,-4.55901 -6.81,-7.80707 -1.682,-3.28717 -2.524,-7.39615 -2.524,-12.32695"
             style="font-variant:normal;font-stretch:normal;font-family:Short Stack;-inkscape-font-specification:Short Stack"
             id="path7185" />
          <path
             inkscape:connector-curvature="0"
             d="m 11864.056,653.91638 c 0,-3.05236 0.431,-6.22215 1.292,-9.50937 0.9,-3.32628 2.172,-6.4178 3.815,-9.27456 1.566,-2.85668 3.483,-5.5373 5.753,-8.04187 2.309,-2.50447 4.872,-4.67636 7.69,-6.51568 2.817,-1.87833 5.85,-3.34582 9.098,-4.40248 3.287,-1.09567 6.711,-1.64353 10.272,-1.6436 2.701,7e-5 5.303,0.37183 7.808,1.1153 2.504,0.70446 4.852,1.68279 7.044,2.93499 2.191,1.25232 4.187,2.73938 5.987,4.46118 1.839,1.72192 3.404,3.58074 4.696,5.57648 1.291,1.95671 2.289,4.0112 2.994,6.16348 0.704,2.15237 1.056,4.30469 1.056,6.45697 0,1.91757 -0.117,3.61986 -0.352,5.10689 -0.196,1.44795 -0.45,2.89588 -0.763,4.34378 -0.235,1.48709 -0.47,3.03285 -0.705,4.63728 -0.234,1.56535 -0.352,3.40461 -0.352,5.51778 0,1.83928 0.137,3.36547 0.411,4.57859 0.274,1.174 0.665,2.13277 1.174,2.87628 0.509,0.74355 1.115,1.27184 1.82,1.5849 0.743,0.27394 1.565,0.41091 2.465,0.4109 0.235,10e-6 0.528,-0.0587 0.881,-0.1761 0.352,-0.15653 0.684,-0.31306 0.998,-0.4696 0.313,-0.19566 0.587,-0.37176 0.821,-0.5283 0.235,-0.19565 0.392,-0.35219 0.47,-0.4696 0.43,-0.43045 0.841,-0.80222 1.233,-1.11529 0.43,-0.35219 0.998,-0.52829 1.702,-0.5283 1.409,10e-6 2.465,0.33264 3.17,0.9979 0.743,0.66527 1.115,1.761 1.115,3.28718 0,0.93921 -0.293,1.91754 -0.88,2.93499 -0.548,1.01747 -1.331,1.95666 -2.348,2.81759 -1.018,0.8218 -2.231,1.50663 -3.64,2.05449 -1.409,0.54787 -2.974,0.8218 -4.696,0.8218 -3.444,0 -6.398,-0.95876 -8.863,-2.87629 -2.427,-1.95665 -4.168,-4.61771 -5.225,-7.98317 -1.448,1.5262 -3.033,2.9937 -4.754,4.40249 -1.722,1.36966 -3.62,2.58279 -5.694,3.63938 -2.074,1.01747 -4.383,1.8197 -6.927,2.40669 -2.504,0.62613 -5.283,0.9392 -8.335,0.9392 -2.309,0 -4.677,-0.31307 -7.103,-0.9392 -2.387,-0.62613 -4.715,-1.50662 -6.985,-2.64149 -2.231,-1.13486 -4.324,-2.50452 -6.281,-4.10898 -1.957,-1.64359 -3.679,-3.44371 -5.166,-5.40038 -1.448,-1.95665 -2.602,-4.06984 -3.463,-6.33958 -0.822,-2.2697 -1.233,-4.63726 -1.233,-7.10267 m 10.977,-0.1174 c 0,2.42628 0.646,4.65687 1.937,6.69177 1.331,2.03495 3.033,3.77637 5.107,5.22428 2.074,1.44794 4.383,2.58281 6.927,3.40459 2.583,0.78267 5.107,1.17401 7.572,1.174 3.287,10e-6 6.3,-0.62612 9.04,-1.8784 2.778,-1.25225 5.146,-2.87627 7.103,-4.87208 1.995,-1.99577 3.541,-4.22636 4.637,-6.69177 1.095,-2.5045 1.643,-4.96989 1.643,-7.39618 0,-1.36963 0.294,-2.56319 0.881,-3.58068 0.626,-1.05656 1.213,-2.05446 1.761,-2.99369 0.156,-0.19563 0.235,-0.48913 0.235,-0.8805 0.04,-0.43043 0.04,-0.86089 0,-1.29139 0,-0.46956 -0.02,-0.90003 -0.06,-1.2914 -0.04,-0.39129 -0.06,-0.66522 -0.06,-0.8218 0,-0.86088 -0.293,-1.80008 -0.88,-2.81759 -0.587,-1.01741 -1.39,-2.03488 -2.407,-3.05238 -0.978,-1.01742 -2.113,-1.99575 -3.404,-2.93499 -1.253,-0.97828 -2.544,-1.83921 -3.875,-2.58279 -1.33,-0.74348 -2.661,-1.33048 -3.991,-1.761 -1.331,-0.46954 -2.524,-0.70434 -3.581,-0.70439 -2.974,5e-5 -5.753,0.41095 -8.335,1.23269 -2.544,0.82185 -4.872,1.93714 -6.986,3.34589 -2.113,1.40884 -4.011,3.072 -5.693,4.98948 -1.644,1.87844 -3.033,3.89379 -4.168,6.04608 -1.096,2.15236 -1.937,4.38295 -2.524,6.69177 -0.587,2.30889 -0.881,4.55905 -0.881,6.75048"
             style="font-variant:normal;font-stretch:normal;font-family:Short Stack;-inkscape-font-specification:Short Stack"
             id="path7187" />
        </g>
        <g
           transform="matrix(0.88607287,0,0,0.7052314,11407.899,36.124687)"
           id="layer1-3-4"
           inkscape:label="Capa 1"
           style="fill:#ffffff">
          <path
             inkscape:connector-curvature="0"
             id="path3886-4"
             d="m 416.69054,25.919421 c -3.3271,0.043 -6.5775,0.7573 -9.5,2.0313 -7.6912,3.3531 -13.7665,9.6485 -18.2188,16.875 -6.3806,-9.4138 -16.0448,-15.0436 -26.1562,-15.3437 -8.4826,-0.2519 -17.1326,3.3324 -23.1876,10.5312 -6.0551,7.1987 -9.4521,17.6429 -9.2187,30.8125 0.5383,30.386999 1.0291,101.963699 1.3125,148.999999 -1.2978,-1.8198 -2.6517,-3.4897 -4.0938,-4.9687 -4.8847,-5.0101 -11.0199,-8.2324 -17.5624,-7.7813 -6.5426,0.4512 -12.2502,4.6735 -16.0938,10.5937 -1.6423,2.5297 -3.0454,5.4282 -4.2188,8.6563 -3.8279,-2.5025 -9.0261,-4.6624 -14.9687,-4.5937 -2.2116,0.026 -4.5361,0.357 -6.9063,1.0937 -10.5151,3.2684 -17.6326,12.8777 -24,23.625 -6.3674,10.7474 -11.4027,23.0818 -14,33.5 -5.28,21.1767 -0.8351,43.7092 4.5626,60.1563 0.032,0.097 0.0617,0.216 0.0937,0.3124 2.9612,16.6577 14.2331,29.9955 27.1875,35.875 -0.1374,3.2547 -0.2763,7.6933 -0.25,12.5938 0.053,9.9357 0.4837,21.5281 3.5938,30.5625 3.1253,9.0791 9.3045,15.4356 14.5624,21.1563 4.9599,5.3962 9.0269,10.2245 11,15.4687 -2.1136,23.6257 1.0001,48.0937 1,48.0937 a 7.120407,7.120407 0 1 0 14.125,-1.8124 c 0,0 -3.1179,-24.9766 -0.875,-46.8126 a 7.1202884,7.1202884 0 0 0 -0.2812,-2.9062 c -3.0046,-9.3334 -9.1945,-15.8839 -14.5,-21.6562 -5.3055,-5.7724 -9.7171,-10.7954 -11.5625,-16.1563 -1.8608,-5.4055 -2.7937,-16.6982 -2.8437,-26.0313 -0.0195,-3.622 0.0621,-6.779 0.1562,-9.5312 5.2762,-0.3236 10.4556,-2.3703 14.1875,-6.6562 0.9807,-1.1264 1.8113,-2.3692 2.5625,-3.6876 6.3333,8.709 16.4903,13.4543 26.5938,12.9376 13.5603,-0.6937 26.6099,-11.6469 29.4687,-30.25 0.035,-0.2265 0.093,-0.4275 0.125,-0.6563 0.012,-0.048 0.0202,-0.1081 0.0313,-0.1563 1.8782,-7.9378 2.3903,-19.6951 2.7187,-30.5312 0.3387,-11.1776 0.2812,-20.7813 0.2813,-20.7812 a 7.1202884,7.1202884 0 0 0 -0.1876,-1.625 c 0.5127,-14.7412 -1.3078,-28.0695 -5.5,-42.9688 -0.1155,-22.9871 -0.7218,-142.1488 -1.4687,-184.312499 -0.1881,-10.616 2.5062,-17.4012 5.875,-21.4063 3.3688,-4.005 7.4669,-5.5995 11.875,-5.4687 8.2905,0.2462 17.9096,7.1606 19.5313,22.625 -0.044,0.9402 -0.1903,1.8719 -0.1563,2.8125 l 5.0937,140.749999 c -5.2785,-0.078 -10.1534,2.1257 -13.625,5.25 -3.6154,3.2537 -6.0524,7.3163 -8.0312,11.5625 -3.9576,8.4926 -6.075,18.1142 -7.8125,24.875 a 7.1202884,7.1202884 0 0 0 -0.0937,0.4063 c -7.336,37.0439 5.9615,75.1718 28.375,98.1874 -15.8102,6.6029 -25.8533,19.4139 -31.5938,31.1876 -7.2271,14.8225 -8.625,28.75 -8.625,28.75 a 7.1202884,7.1202884 0 1 0 14.1562,1.5 c 0,0 1.2662,-11.6631 7.2813,-24 6.0151,-12.3369 15.894,-24.4409 34.2813,-27.1876 a 7.1202884,7.1202884 0 0 0 3.1874,-12.75 c -22.8742,-16.9108 -40.2687,-56.4463 -33.125,-92.8124 0.0101,-0.042 0.0233,-0.083 0.0313,-0.125 1.8031,-7.0381 3.9169,-15.7197 6.8437,-22 1.4896,-3.1965 3.1841,-5.6751 4.6563,-7 1.7147,4.945 3.4538,9.7472 5.1875,14.4687 l 0.125,3.875 0,0.031 a 7.1293846,7.1293846 0 0 0 3.5,5.9062 c 14.2716,37.4502 29.3109,69.0917 45.7812,105.9062 6.9432,21.894 16.3391,42.733 14.8126,62.4688 -3.6239,46.8565 -49.2813,57.3125 -49.2813,57.3125 a 7.1202884,7.1202884 0 0 0 -5.4375,7.3437 l 1.7812,30.5 a 7.1209948,7.1209948 0 0 0 14.2188,-0.8124 l -1.4688,-25.1876 c 12.8775,-4.4823 50.786,-21.252 54.4063,-68.0624 1.1568,-14.9562 -2.3528,-29.0937 -6.75,-42.5 a 7.1202884,7.1202884 0 0 0 0.4687,-2.8126 c 0,0 0.7676,-62.6331 -0.0937,-132.25 -0.4305,-34.8085 -1.2774,-71.3714 -2.8125,-102.8124 -1.5351,-31.4411 -3.6348,-57.453299 -7.125,-72.593799 -3.9501,-17.1352 -9.5637,-28.2552 -17.2812,-34.8125 -3.8587,-3.2786 -8.3151,-5.0452 -12.7813,-5.5937 -1.1165,-0.1372 -2.2347,-0.202 -3.3437,-0.1876 z m 0.9062,13.875 c 1.8926,0.038 3.744,0.8645 6,2.7813 4.0107,3.4078 9.0589,11.6871 12.625,27.1563 2.9398,12.7529 5.2602,38.939899 6.7812,70.093699 1.521,31.1539 2.352,67.5767 2.7813,102.2813 0.4779,38.6415 0.4514,73.8053 0.3437,98.5624 -15.9182,-35.2905 -30.3152,-65.9692 -43.9687,-102.75 l -5.6875,-169.124999 c -0.031,-0.9148 -0.2369,-1.7354 -0.3125,-2.625 0.4121,-4.153 2.0619,-9.1839 4.7813,-13.6562 3.2716,-5.3803 7.9282,-9.7833 11.9374,-11.5312 1.754,-0.7648 3.2468,-1.2167 4.7188,-1.1876 z M 311.06554,221.26322 c 1.2827,-0.089 3.4232,0.5036 6.375,3.5312 2.9519,3.0278 6.2768,8.3432 9.0624,15.875 2.133,5.7675 3.9385,11.0445 5.4376,16.0313 0.008,1.5595 0.0312,7.125 0.0312,7.125 a 7.1202884,7.1202884 0 0 0 3.375,6.4063 c 2.0338,10.0419 2.6916,19.459 2.0625,30.1562 a 7.1202884,7.1202884 0 0 0 0.125,1.9375 c 0.01,2.0732 0.066,8.1001 -0.2187,17.5 -0.3297,10.8771 -1.2951,23.7857 -2.4376,28.25 a 7.1202884,7.1202884 0 0 0 -0.1562,0.8125 c -1.8948,14.0078 -9.0302,18.3807 -16.25,18.75 -7.2198,0.3692 -14.8616,-3.9964 -17.375,-13.3438 a 7.1202884,7.1202884 0 0 0 -0.7188,-1.75 c 0.058,0.1 -1.8256,-6.2752 -2.5624,-14.2812 -0.7367,-8.0061 -1.1264,-18.33 -1.1563,-29.4688 -0.06,-22.2777 1.3077,-47.943 3.7187,-65.6562 1.145,-8.413 3.3333,-14.3333 5.5313,-17.7188 2.198,-3.3855 3.8735,-4.0678 5.1563,-4.1562 z m -35.9063,14.625 c 2.8821,-0.074 5.2484,1.1305 7.5,2.7812 1.501,1.1004 2.6878,2.2986 3.5,3.2188 -2.504,18.7538 -3.7794,44.3198 -3.7187,66.9375 0.0298,10.9953 0.3596,21.2455 1.0937,29.7187 a 7.1202884,7.1202884 0 0 0 -1.75,5.9063 c 1.3739,11.1013 -0.7129,16.7288 -2.5,18.7813 -1.6196,1.86 -3.5392,2.4453 -7.0625,1.6562 a 7.1202884,7.1202884 0 0 0 -2.2188,-0.6562 c -8.464,-3.0167 -19.7539,-14.4245 -21.6874,-27.125 a 7.1202884,7.1202884 0 0 0 -0.2813,-1.1563 c -4.9125,-14.872 -8.5516,-35.5605 -4.3125,-52.5625 2.1772,-8.7334 6.833,-20.2805 12.4062,-29.6875 5.5732,-9.4069 12.6285,-16.2431 15.9688,-17.2813 1.0934,-0.3398 2.1018,-0.5065 3.0625,-0.5312 z"
             style="font-size:medium;font-style:normal;font-variant:normal;font-weight:normal;font-stretch:normal;text-indent:0;text-align:start;text-decoration:none;line-height:normal;letter-spacing:normal;word-spacing:normal;text-transform:none;direction:ltr;block-progression:tb;writing-mode:lr-tb;text-anchor:start;baseline-shift:baseline;color:#000000;fill:#ffffff;fill-opacity:1;stroke:none;stroke-width:14.23915291;marker:none;visibility:visible;display:inline;overflow:visible;enable-background:accumulate;font-family:Sans;-inkscape-font-specification:Sans" />
        </g>
        <g
           transform="matrix(0.90506612,0,0,0.90506612,10992.766,323.29286)"
           id="layer1-2-9"
           inkscape:label="Capa 1">
          <text
             sodipodi:linespacing="125%"
             id="text3197-3"
             y="535.85278"
             x="3592.4868"
             style="font-size:430.46691895px;font-style:normal;font-variant:normal;font-weight:bold;font-stretch:normal;text-align:start;line-height:125%;letter-spacing:0px;word-spacing:0px;writing-mode:lr-tb;text-anchor:start;fill:#ffffff;fill-opacity:1;stroke:none;font-family:Rudiment;-inkscape-font-specification:Rudiment Bold"
             xml:space="preserve"
             inkscape:export-filename="/home/david/work/pipo/textures/abeja.png"
             inkscape:export-xdpi="90"
             inkscape:export-ydpi="90"><tspan
               style="font-style:normal;font-weight:500;fill:#ffffff;-inkscape-font-specification:Rudiment Medium"
               y="535.85278"
               x="3592.4868"
               id="tspan3199-59"
               sodipodi:role="line" /></text>
          <text
             sodipodi:linespacing="125%"
             id="text3197-5-7-3"
             y="626.41736"
             x="1691.156"
             style="font-size:430.46691895px;font-style:normal;font-variant:normal;font-weight:bold;font-stretch:normal;text-align:start;line-height:125%;letter-spacing:0px;word-spacing:0px;writing-mode:lr-tb;text-anchor:start;fill:#ffffff;fill-opacity:1;stroke:none;font-family:Rudiment;-inkscape-font-specification:Rudiment Bold"
             xml:space="preserve"
             inkscape:export-filename="/home/david/work/pipo/textures/abeja.png"
             inkscape:export-xdpi="90"
             inkscape:export-ydpi="90"><tspan
               style="font-style:normal;font-weight:500;fill:#ffffff;-inkscape-font-specification:Rudiment Medium"
               y="626.41736"
               x="1691.156"
               id="tspan3199-9-9-6"
               sodipodi:role="line" /></text>
          <text
             sodipodi:linespacing="125%"
             id="text3197-6-7-3"
             y="274.43268"
             x="3083.7539"
             style="font-size:430.46691895px;font-style:normal;font-variant:normal;font-weight:bold;font-stretch:normal;text-align:start;line-height:125%;letter-spacing:0px;word-spacing:0px;writing-mode:lr-tb;text-anchor:start;fill:#ffffff;fill-opacity:1;stroke:none;font-family:Rudiment;-inkscape-font-specification:Rudiment Bold"
             xml:space="preserve"
             inkscape:export-filename="/home/david/work/pipo/textures/abeja.png"
             inkscape:export-xdpi="90"
             inkscape:export-ydpi="90"><tspan
               style="font-style:normal;font-weight:500;fill:#ffffff;-inkscape-font-specification:Rudiment Medium"
               y="274.43268"
               x="3083.7539"
               id="tspan3199-97-7-1"
               sodipodi:role="line" /></text>
          <text
             sodipodi:linespacing="125%"
             id="text3197-52-7"
             y="906.88678"
             x="1852.3396"
             style="font-size:430.46691895px;font-style:normal;font-variant:normal;font-weight:bold;font-stretch:normal;text-align:start;line-height:125%;letter-spacing:0px;word-spacing:0px;writing-mode:lr-tb;text-anchor:start;fill:#ffffff;fill-opacity:1;stroke:none;font-family:Rudiment;-inkscape-font-specification:Rudiment Bold"
             xml:space="preserve"
             inkscape:export-filename="/home/david/work/pipo/textures/abeja.png"
             inkscape:export-xdpi="90"
             inkscape:export-ydpi="90"><tspan
               style="font-style:normal;font-weight:500;fill:#ffffff;-inkscape-font-specification:Rudiment Medium"
               y="906.88678"
               x="1852.3396"
               id="tspan3199-5-0"
               sodipodi:role="line" /></text>
          <g
             transform="translate(2307.1092,-690.16087)"
             id="g6441">
            <g
               id="g4325"
               transform="matrix(1.1252911,0,0,1.1252911,-2095.9773,1589.2498)">
              <path
                 id="path4296"
                 d="m 487.625,-394 -63.4375,8.875 -31.9375,34.8125 -20.40625,22.25 -0.4375,0.0937 c 0.10166,0.0199 0.21032,0.0429 0.3125,0.0625 l -0.0312,0.0312 59.125,18.34375 0.1875,0.0625 c 0,0 -0.0304,0.25673 -0.0625,0.6875 -0.0608,0.0377 -0.12665,0.0555 -0.1875,0.0937 -4.81238,6.10612 -4.67858,12.23763 -4.8125,18.34375 l 2.40625,-2.40625 c -0.87088,4.55262 -1.90078,9.04498 -1.21875,14.21875 l 4.59375,-6.53125 c -1.70148,7.11996 0.0492,14.81109 2.40625,20.75 l 1.0625,-8.3125 c 3.72821,11.67058 10.47305,23.57749 22.59375,31.4375 -1.59289,0.84984 -2.6875,2.50143 -2.6875,4.4375 l 0,10.09375 c 0,2.79821 2.26428,5.0625 5.0625,5.0625 1.70794,0 3.21172,-0.83468 4.125,-2.125 0.92492,1.12169 2.33229,1.84375 3.90625,1.84375 1.55302,0 2.91868,-0.68531 3.84375,-1.78125 0.92508,1.09176 2.32539,1.78125 3.875,1.78125 2.79817,0 5.03125,-2.2643 5.03125,-5.0625 l 0,-5.8125 c 2.94656,0.53722 5.82982,0.93792 8.625,1.21875 l 0,5.1875 c 0,2.7982 2.26428,5.0625 5.0625,5.0625 1.70794,0 3.21172,-0.86593 4.125,-2.15625 0.92492,1.12169 2.3323,1.84375 3.90625,1.84375 1.55302,0 2.91868,-0.68531 3.84375,-1.78125 0.92507,1.09176 2.32539,1.78125 3.875,1.78125 2.79817,0 5.03125,-2.23305 5.03125,-5.03125 l 0,-5.90625 c 2.26523,-0.43715 4.46233,-0.9899 6.59375,-1.59375 16.35154,1.91843 32.46875,0.375 32.46875,0.375 12.44482,-0.95437 16.46683,-19.57111 2.53125,-19.25 4.49115,-1.24176 6.14141,-4.68086 5.96875,-8.15625 13.24426,-15.45261 18.6875,-31.0625 18.6875,-31.0625 l 83.375,-14.53125 -30.28125,2.25 37.71875,-8.6875 c 0,0 -33.06227,4.27698 -59.6875,7.8125 l 55.5625,-23.375 c 0,0 -87.04093,27.02099 -88.34375,27.8125 l 0.125,0.46875 c -0.35781,-0.014 -42.65686,-1.70266 -57.78125,-14.46875 C 500.35053,-333.50138 487.625,-394 487.625,-394 z"
                 style="fill:none;stroke:#000000;stroke-width:11;stroke-miterlimit:4;stroke-dasharray:none"
                 inkscape:connector-curvature="0" />
              <path
                 style="fill:#191920;fill-opacity:1;stroke:none"
                 d="m 579.98568,-300.92704 c 1.30282,-0.79151 88.34338,-27.80849 88.34338,-27.80849 l -85.94427,36.16128 z"
                 id="path4278"
                 inkscape:connector-curvature="0"
                 inkscape:transform-center-x="-43.84945"
                 inkscape:transform-center-y="-13.634587" />
              <path
                 inkscape:transform-center-y="-5.717042"
                 inkscape:transform-center-x="-46.252135"
                 inkscape:connector-curvature="0"
                 id="path4276"
                 d="m 580.65959,-300.9245 c 1.41914,-0.55666 91.80093,-12.26597 91.80093,-12.26597 l -90.86795,20.90625 z"
                 style="fill:#dbdee3;fill-opacity:1;stroke:none" />
              <path
                 sodipodi:nodetypes="cccscccacc"
                 inkscape:connector-curvature="0"
                 id="path4255"
                 d="m 424.1898,-385.13501 -52.49387,57.26604 59.31125,18.40694 c 0,0 -6.37062,63.67894 44.09612,75.50874 79.87719,18.72384 106.55757,-58.25518 106.55757,-58.25518 l 83.37483,-14.53617 -84.8429,6.2668 c 0,0 -42.65885,-1.64158 -57.84743,-14.46185 -21.99322,-18.56388 -34.70847,-79.05816 -34.70847,-79.05816 z"
                 style="fill:#191920;fill-opacity:1;stroke:none" />
              <path
                 sodipodi:nodetypes="cccc"
                 inkscape:connector-curvature="0"
                 id="path4257"
                 d="m 409.82923,-369.45582 -38.12968,41.59601 59.10906,18.33932 c 39.2435,-31.89596 -18.43455,-32.3751 -20.97938,-59.93533 z"
                 style="fill:#ffcc00;stroke:none" />
              <path
                 sodipodi:type="arc"
                 style="fill:#ffffff;fill-opacity:1;stroke:none"
                 id="path4233"
                 sodipodi:cx="-510.12704"
                 sodipodi:cy="962.45862"
                 sodipodi:rx="61.619305"
                 sodipodi:ry="61.619305"
                 d="m -448.50774,962.45862 c 0,34.0314 -27.5879,61.61928 -61.6193,61.61928 -34.03141,0 -61.61931,-27.58788 -61.61931,-61.61928 0,-34.0314 27.5879,-61.61931 61.61931,-61.61931 34.0314,0 61.6193,27.58791 61.6193,61.61931 z"
                 transform="matrix(0.21493036,0,0,0.21493036,548.91505,-574.57546)"
                 inkscape:export-filename="/home/david/work/pipo/textures/abeja.png"
                 inkscape:export-xdpi="90"
                 inkscape:export-ydpi="90" />
              <path
                 sodipodi:type="arc"
                 style="fill:#ffffff;fill-opacity:1;stroke:none"
                 id="path4237"
                 sodipodi:cx="-334.3605"
                 sodipodi:cy="972.56012"
                 sodipodi:rx="63.63961"
                 sodipodi:ry="63.63961"
                 d="m -270.72089,972.56012 c 0,35.14718 -28.49243,63.63958 -63.63961,63.63958 -35.14719,0 -63.63961,-28.4924 -63.63961,-63.63958 0,-35.14719 28.49242,-63.63961 63.63961,-63.63961 35.14718,0 63.63961,28.49242 63.63961,63.63961 z"
                 transform="matrix(0.21811066,0,0,0.21811066,542.56859,-579.36891)"
                 inkscape:export-filename="/home/david/work/pipo/textures/abeja.png"
                 inkscape:export-xdpi="90"
                 inkscape:export-ydpi="90" />
              <path
                 d="m -448.50774,962.45862 c 0,34.0314 -27.5879,61.61928 -61.6193,61.61928 -34.03141,0 -61.61931,-27.58788 -61.61931,-61.61928 0,-34.0314 27.5879,-61.61931 61.61931,-61.61931 34.0314,0 61.6193,27.58791 61.6193,61.61931 z"
                 sodipodi:ry="61.619305"
                 sodipodi:rx="61.619305"
                 sodipodi:cy="962.45862"
                 sodipodi:cx="-510.12704"
                 id="path4239"
                 style="fill:#000000;fill-opacity:1;stroke:none"
                 sodipodi:type="arc"
                 transform="matrix(0.12924746,0,0,0.12924746,509.99624,-490.77979)"
                 inkscape:export-filename="/home/david/work/pipo/textures/abeja.png"
                 inkscape:export-xdpi="90"
                 inkscape:export-ydpi="90" />
              <path
                 transform="matrix(0.12924746,0,0,0.12924746,507.58613,-491.99068)"
                 d="m -270.72089,972.56012 c 0,35.14718 -28.49243,63.63958 -63.63961,63.63958 -35.14719,0 -63.63961,-28.4924 -63.63961,-63.63958 0,-35.14719 28.49242,-63.63961 63.63961,-63.63961 35.14718,0 63.63961,28.49242 63.63961,63.63961 z"
                 sodipodi:ry="63.63961"
                 sodipodi:rx="63.63961"
                 sodipodi:cy="972.56012"
                 sodipodi:cx="-334.3605"
                 id="path4241-5"
                 style="fill:#000000;fill-opacity:1;stroke:none"
                 sodipodi:type="arc"
                 inkscape:export-filename="/home/david/work/pipo/textures/abeja.png"
                 inkscape:export-xdpi="90"
                 inkscape:export-ydpi="90" />
              <path
                 sodipodi:nodetypes="cc"
                 inkscape:connector-curvature="0"
                 id="path4268-6"
                 d="m 371.39972,-327.95537 c 20.40729,3.98798 51.23917,1.73517 65.37965,-12.29257"
                 style="fill:none;stroke:#000000;stroke-width:0.64489931px;stroke-linecap:butt;stroke-linejoin:miter;stroke-opacity:1" />
              <path
                 sodipodi:nodetypes="ccccccccccccccccc"
                 inkscape:connector-curvature="0"
                 id="path4270-3"
                 d="m 430.7536,-308.67289 c -4.81238,6.10612 -4.6867,12.21223 -4.82062,18.31835 l 2.41031,-2.41031 c -0.87088,4.55262 -1.88719,9.04706 -1.20516,14.22083 l 4.57959,-6.50784 c -1.70148,7.11996 0.0533,14.78975 2.41031,20.72866 l 1.08465,-8.5566 c 2.51664,3.09702 5.18156,5.98644 9.27968,6.86939 -3.14723,-5.05992 -3.68195,-10.44641 -1.68721,-16.14908 l 7.23092,13.61826 c 0.68038,-5.94544 0.81182,-11.64984 -3.85649,-17.47475 l 11.32845,6.50784 c -2.09881,-6.58528 -3.06589,-13.50342 -10.36433,-18.55939 l 8.79763,-0.48207 c -3.78401,-3.08711 -4.7273,-5.00249 -14.10031,-6.2668 l 3.37444,-6.74886 c -4.78743,-1.45874 -9.6127,-0.15515 -14.46186,2.89237 z"
                 style="fill:#dbdee3;stroke:#dbdee3;stroke-width:0.64489931px;stroke-linecap:butt;stroke-linejoin:miter;stroke-opacity:1" />
              <path
                 sodipodi:nodetypes="csccczc"
                 inkscape:connector-curvature="0"
                 id="path4272-8"
                 d="m 478.08717,-298.49141 c 0,0 -7.24264,37.92896 17.50143,56.00453 17.4595,12.7542 58.86839,8.75071 58.86839,8.75071 12.44482,-0.95437 16.48125,-19.57267 2.54567,-19.25156 9.89606,-2.73616 6.10837,-16.19105 -0.95463,-17.02411 10.43624,-1.00573 10.71871,-15.6705 -2.86387,-17.66052 -13.58258,-1.99002 -29.92573,1.00544 -33.73,-13.04651"
                 style="fill:#dbdee3;fill-opacity:1;stroke:none" />
              <path
                 sodipodi:nodetypes="cscccac"
                 inkscape:connector-curvature="0"
                 id="path4274"
                 d="m 490.81548,-290.85443 c 17.20511,4.63152 40.15453,8.8407 56.64095,7.95519 4.55441,-0.24463 6.94753,11.66761 0,13.68292 7.76362,1.00766 8.11003,13.47079 0.63641,16.86501 7.66584,1.59104 5.59574,13.68293 0.31822,13.36472 0,0 -38.1361,0.30941 -49.95859,-12.0919 -9.31576,-9.77183 -7.63699,-39.77594 -7.63699,-39.77594 z"
                 style="fill:#191920;fill-opacity:1;stroke:none" />
              <path
                 style="fill:#ffcc00;fill-opacity:1;stroke:none"
                 d="m 502.6482,-241.7892 c -1.70685,0 -3.22188,0.84331 -4.13532,2.13227 -0.92492,-1.12169 -2.31899,-1.84151 -3.89299,-1.84151 -2.79822,0 -5.05606,2.25788 -5.05606,5.05608 l 0,10.09601 c 0,2.7982 2.25784,5.05608 5.05606,5.05608 1.70794,0 3.20591,-0.84196 4.11919,-2.13228 0.92492,1.12169 2.33517,1.84151 3.90912,1.84151 1.55302,0 2.93567,-0.69711 3.86074,-1.79305 0.92507,1.09176 2.31113,1.79305 3.86074,1.79305 2.79817,0 5.03993,-2.25788 5.03993,-5.05608 l 0,-10.096 c 0,-2.79821 -2.24176,-5.05608 -5.03993,-5.05608 -1.55023,0 -2.93567,0.70056 -3.86074,1.79305 -0.92507,-1.0965 -2.30725,-1.79305 -3.86074,-1.79305 z"
                 id="path4280"
                 inkscape:connector-curvature="0" />
              <path
                 id="path4282"
                 d="m 468.18323,-242.08632 c -1.70686,0 -3.22189,0.84332 -4.13533,2.13228 -0.92492,-1.12169 -2.31899,-1.84151 -3.89299,-1.84151 -2.79822,0 -5.05606,2.25788 -5.05606,5.05608 l 0,10.096 c 0,2.79821 2.25784,5.05608 5.05606,5.05608 1.70794,0 3.20591,-0.84195 4.11919,-2.13227 0.92492,1.12169 2.33517,1.84151 3.90913,1.84151 1.55302,0 2.93566,-0.69711 3.86073,-1.79305 0.92508,1.09176 2.31113,1.79305 3.86074,1.79305 2.79817,0 5.03993,-2.25788 5.03993,-5.05608 l 0,-10.09601 c 0,-2.7982 -2.24176,-5.05608 -5.03993,-5.05608 -1.55023,0 -2.93566,0.70057 -3.86074,1.79305 -0.92507,-1.09649 -2.30725,-1.79305 -3.86073,-1.79305 z"
                 style="fill:#ffcc00;fill-opacity:1;stroke:none"
                 inkscape:connector-curvature="0" />
            </g>
          </g>
        </g>
      </g>
      <rect
         y="16.503397"
         x="-15171.796"
         height="1027.4425"
         width="1023.3555"
         id="rect5661"
         style="fill:none;stroke:none" />
    </g>
  </g>
</svg>
