<?xml version="1.0" encoding="UTF-8" standalone="no"?>
<!-- Created with Inkscape (http://www.inkscape.org/) -->

<svg
   xmlns:dc="http://purl.org/dc/elements/1.1/"
   xmlns:cc="http://creativecommons.org/ns#"
   xmlns:rdf="http://www.w3.org/1999/02/22-rdf-syntax-ns#"
   xmlns:svg="http://www.w3.org/2000/svg"
   xmlns="http://www.w3.org/2000/svg"
   xmlns:xlink="http://www.w3.org/1999/xlink"
   xmlns:sodipodi="http://sodipodi.sourceforge.net/DTD/sodipodi-0.dtd"
   xmlns:inkscape="http://www.inkscape.org/namespaces/inkscape"
   width="1351.74"
   height="1351.7388"
   id="svg2"
   version="1.1"
   inkscape:version="0.48.3.1 r9886"
   sodipodi:docname="v.svg">
  <defs
     id="defs4">
    <linearGradient
       id="linearGradient3265-7"
       inkscape:collect="always">
      <stop
         id="stop3267-6"
         offset="0"
         style="stop-color:#a0692f;stop-opacity:1;" />
      <stop
         id="stop3269-0"
         offset="1"
         style="stop-color:#a0692f;stop-opacity:0;" />
    </linearGradient>
    <linearGradient
       inkscape:collect="always"
       xlink:href="#linearGradient3265-7"
       id="linearGradient4849"
       gradientUnits="userSpaceOnUse"
       gradientTransform="matrix(1.9601035,0,0,1.9601035,-1268.7026,1291.2843)"
       x1="1128.5424"
       y1="-358.21252"
       x2="1128.5"
       y2="-350.88782" />
    <linearGradient
       inkscape:collect="always"
       xlink:href="#linearGradient3265-7"
       id="linearGradient4855"
       gradientUnits="userSpaceOnUse"
       gradientTransform="matrix(-1.9601035,0,0,1.9601035,3084.4205,1291.2843)"
       x1="1128.5424"
       y1="-358.21252"
       x2="1128.5"
       y2="-350.88782" />
    <linearGradient
       id="linearGradient3265-7-8"
       inkscape:collect="always">
      <stop
         id="stop3267-6-3"
         offset="0"
         style="stop-color:#a0692f;stop-opacity:1;" />
      <stop
         id="stop3269-0-6"
         offset="1"
         style="stop-color:#a0692f;stop-opacity:0;" />
    </linearGradient>
    <linearGradient
       y2="-435.80673"
       x2="919.21014"
       y1="-434.2847"
       x1="987.61987"
       gradientTransform="matrix(0.64156397,0,0,0.64156397,-240.46334,1048.4872)"
       gradientUnits="userSpaceOnUse"
       id="linearGradient3738"
       xlink:href="#linearGradient4094-1"
       inkscape:collect="always" />
    <linearGradient
       id="linearGradient4094-1">
      <stop
         id="stop4096-9"
         offset="0"
         style="stop-color:#52676c;stop-opacity:1;" />
      <stop
         id="stop4098-2"
         offset="1"
         style="stop-color:#52676c;stop-opacity:0;" />
    </linearGradient>
    <linearGradient
       id="linearGradient3310"
       inkscape:collect="always">
      <stop
         id="stop3312"
         offset="0"
         style="stop-color:#0b2228;stop-opacity:1;" />
      <stop
         id="stop3314"
         offset="1"
         style="stop-color:#0b2228;stop-opacity:0;" />
    </linearGradient>
    <linearGradient
       id="linearGradient4122-9"
       inkscape:collect="always">
      <stop
         id="stop4124-7"
         offset="0"
         style="stop-color:#1c2224;stop-opacity:1;" />
      <stop
         id="stop4126-6"
         offset="1"
         style="stop-color:#1c2224;stop-opacity:0" />
    </linearGradient>
    <linearGradient
       inkscape:collect="always"
       xlink:href="#linearGradient3310"
       id="linearGradient6795"
       gradientUnits="userSpaceOnUse"
       x1="1748.3407"
       y1="-227.81718"
       x2="1759.3722"
       y2="-149.25218" />
    <linearGradient
       inkscape:collect="always"
       xlink:href="#linearGradient4122-9"
       id="linearGradient6814"
       gradientUnits="userSpaceOnUse"
       gradientTransform="matrix(0.76362355,0,0,0.76362355,-529.2141,788.2198)"
       x1="1627.4237"
       y1="-275.98389"
       x2="1568.8258"
       y2="-208.25383" />
    <linearGradient
       inkscape:collect="always"
       id="linearGradient4871">
      <stop
         style="stop-color:#241c1f;stop-opacity:0.37777778"
         offset="0"
         id="stop4873" />
      <stop
         style="stop-color:#241c1f;stop-opacity:0;"
         offset="1"
         id="stop4875" />
    </linearGradient>
    <radialGradient
       inkscape:collect="always"
       xlink:href="#linearGradient4871"
       id="radialGradient4631"
       gradientUnits="userSpaceOnUse"
       gradientTransform="matrix(1.6682146,1.6471163,-0.88417937,0.89550496,-1046.6412,-1706.4218)"
       cx="1014.4006"
       cy="-408.6366"
       fx="1014.4006"
       fy="-408.6366"
       r="120.84957" />
    <linearGradient
       y2="-341.95212"
       x2="1033.103"
       y1="-312.79977"
       x1="1033.9359"
       gradientUnits="userSpaceOnUse"
       id="linearGradient4392"
       xlink:href="#linearGradient3219"
       inkscape:collect="always" />
    <linearGradient
       y2="-341.95212"
       x2="1033.103"
       y1="-312.79977"
       x1="1033.9359"
       gradientUnits="userSpaceOnUse"
       id="linearGradient4390"
       xlink:href="#linearGradient3209"
       inkscape:collect="always" />
    <linearGradient
       inkscape:collect="always"
       id="linearGradient3219">
      <stop
         style="stop-color:#3e4837;stop-opacity:1"
         offset="0"
         id="stop3221" />
      <stop
         style="stop-color:#e5ffd5;stop-opacity:0;"
         offset="1"
         id="stop3223" />
    </linearGradient>
    <linearGradient
       id="linearGradient3209"
       inkscape:collect="always">
      <stop
         id="stop3211"
         offset="0"
         style="stop-color:#3e4837;stop-opacity:1" />
      <stop
         id="stop3213"
         offset="1"
         style="stop-color:#e5ffd5;stop-opacity:0;" />
    </linearGradient>
    <linearGradient
       y2="-299.90375"
       x2="1731.0365"
       y1="-347.02103"
       x1="1621.358"
       gradientTransform="matrix(1.3519879,0,0,1.3519879,-2458.2999,1401.0995)"
       gradientUnits="userSpaceOnUse"
       id="linearGradient4525"
       xlink:href="#linearGradient4136"
       inkscape:collect="always" />
    <linearGradient
       id="linearGradient4136"
       inkscape:collect="always">
      <stop
         id="stop4138"
         offset="0"
         style="stop-color:#000000;stop-opacity:1" />
      <stop
         id="stop4140"
         offset="1"
         style="stop-color:#2b1100;stop-opacity:0;" />
    </linearGradient>
    <linearGradient
       id="linearGradient3449"
       inkscape:collect="always">
      <stop
         id="stop3451"
         offset="0"
         style="stop-color:#000000;stop-opacity:1;" />
      <stop
         id="stop3453"
         offset="1"
         style="stop-color:#000000;stop-opacity:0;" />
    </linearGradient>
    <linearGradient
       id="linearGradient4233"
       inkscape:collect="always">
      <stop
         id="stop4235"
         offset="0"
         style="stop-color:#000000;stop-opacity:1;" />
      <stop
         id="stop4237"
         offset="1"
         style="stop-color:#000000;stop-opacity:0;" />
    </linearGradient>
    <linearGradient
       id="linearGradient4283"
       inkscape:collect="always">
      <stop
         id="stop4285"
         offset="0"
         style="stop-color:#2b1100;stop-opacity:1;" />
      <stop
         id="stop4287"
         offset="1"
         style="stop-color:#2b1100;stop-opacity:0;" />
    </linearGradient>
    <linearGradient
       inkscape:collect="always"
       xlink:href="#linearGradient4283"
       id="linearGradient6031"
       gradientUnits="userSpaceOnUse"
       gradientTransform="translate(-2538.9898,1459.867)"
       x1="503.56857"
       y1="-348.85837"
       x2="512.40308"
       y2="-335.29108" />
    <linearGradient
       inkscape:collect="always"
       xlink:href="#linearGradient3449"
       id="linearGradient6033"
       gradientUnits="userSpaceOnUse"
       gradientTransform="translate(-2538.9898,1459.867)"
       x1="535.43597"
       y1="-304.05469"
       x2="522.1842"
       y2="-302.79257" />
    <linearGradient
       inkscape:collect="always"
       xlink:href="#linearGradient4233"
       id="linearGradient6035"
       gradientUnits="userSpaceOnUse"
       gradientTransform="translate(-2538.9898,1459.867)"
       x1="492.84091"
       y1="-285.43903"
       x2="581.34399"
       y2="-291.27615" />
    <linearGradient
       id="linearGradient4817"
       inkscape:collect="always">
      <stop
         id="stop4819"
         offset="0"
         style="stop-color:#917c6f;stop-opacity:1;" />
      <stop
         id="stop4821"
         offset="1"
         style="stop-color:#2b1100;stop-opacity:1" />
    </linearGradient>
    <linearGradient
       inkscape:collect="always"
       id="linearGradient5172">
      <stop
         style="stop-color:#502d16;stop-opacity:1;"
         offset="0"
         id="stop5174" />
      <stop
         style="stop-color:#917c6f;stop-opacity:1"
         offset="1"
         id="stop5176" />
    </linearGradient>
    <linearGradient
       id="linearGradient5181">
      <stop
         id="stop5183"
         offset="0"
         style="stop-color:#907b6e;stop-opacity:1" />
      <stop
         style="stop-color:#7a6356;stop-opacity:1;"
         offset="0.75249761"
         id="stop5191" />
      <stop
         style="stop-color:#644c3e;stop-opacity:1;"
         offset="0.812451"
         id="stop5189" />
      <stop
         id="stop5185"
         offset="1"
         style="stop-color:#381e0e;stop-opacity:1" />
    </linearGradient>
    <linearGradient
       inkscape:collect="always"
       id="linearGradient5193">
      <stop
         style="stop-color:#826c5f;stop-opacity:1"
         offset="0"
         id="stop5195" />
      <stop
         style="stop-color:#502d16;stop-opacity:1"
         offset="1"
         id="stop5197" />
    </linearGradient>
    <linearGradient
       inkscape:collect="always"
       xlink:href="#linearGradient4817"
       id="linearGradient5870"
       gradientUnits="userSpaceOnUse"
       gradientTransform="matrix(0.89679722,0,0,0.89679722,-2045.7805,1424)"
       x1="660.06604"
       y1="-501.25412"
       x2="616.52441"
       y2="-327.7186" />
    <linearGradient
       inkscape:collect="always"
       xlink:href="#linearGradient5181"
       id="linearGradient5872"
       gradientUnits="userSpaceOnUse"
       gradientTransform="translate(-1159.9752,1449.158)"
       x1="-276.65112"
       y1="-462.97198"
       x2="-282.89807"
       y2="-279.57907" />
    <linearGradient
       inkscape:collect="always"
       xlink:href="#linearGradient5172"
       id="linearGradient5874"
       gradientUnits="userSpaceOnUse"
       gradientTransform="matrix(0.89679722,0,0,0.89679722,-2045.7805,1424)"
       x1="533.96741"
       y1="-432.47049"
       x2="555.86011"
       y2="-240.41187" />
    <linearGradient
       inkscape:collect="always"
       xlink:href="#linearGradient4817"
       id="linearGradient5876"
       gradientUnits="userSpaceOnUse"
       gradientTransform="matrix(0.82173933,0,0,0.82173933,-2014.5348,1366.3891)"
       x1="626.62103"
       y1="-258.30438"
       x2="602.01056"
       y2="-402.81216" />
    <linearGradient
       inkscape:collect="always"
       xlink:href="#linearGradient5193"
       id="linearGradient5878"
       gradientUnits="userSpaceOnUse"
       gradientTransform="matrix(0.89679722,0,0,0.89679722,-2020.1702,1428.0016)"
       x1="564.45752"
       y1="-396.48645"
       x2="567.13477"
       y2="-318.39944" />
    <linearGradient
       id="linearGradient3338"
       inkscape:collect="always">
      <stop
         id="stop3340"
         offset="0"
         style="stop-color:#beb7c8;stop-opacity:1;" />
      <stop
         id="stop3342"
         offset="1"
         style="stop-color:#5d536c;stop-opacity:1" />
    </linearGradient>
    <linearGradient
       inkscape:collect="always"
       id="linearGradient3360">
      <stop
         style="stop-color:#474052;stop-opacity:1"
         offset="0"
         id="stop3362" />
      <stop
         style="stop-color:#5d536c;stop-opacity:1"
         offset="1"
         id="stop3364" />
    </linearGradient>
    <linearGradient
       inkscape:collect="always"
       id="linearGradient3380">
      <stop
         style="stop-color:#857c92;stop-opacity:1"
         offset="0"
         id="stop3382" />
      <stop
         style="stop-color:#5d536c;stop-opacity:1"
         offset="1"
         id="stop3384" />
    </linearGradient>
    <linearGradient
       id="linearGradient3394"
       inkscape:collect="always">
      <stop
         id="stop3396"
         offset="0"
         style="stop-color:#675d76;stop-opacity:1" />
      <stop
         id="stop3398"
         offset="1"
         style="stop-color:#5d536c;stop-opacity:1" />
    </linearGradient>
    <linearGradient
       inkscape:collect="always"
       xlink:href="#linearGradient3394"
       id="linearGradient5534"
       gradientUnits="userSpaceOnUse"
       gradientTransform="translate(-1035.7984,1460.497)"
       x1="548.9787"
       y1="-310.0397"
       x2="511.74536"
       y2="-309.25769" />
    <linearGradient
       inkscape:collect="always"
       xlink:href="#linearGradient3380"
       id="linearGradient5539"
       gradientUnits="userSpaceOnUse"
       gradientTransform="translate(-1104.5149,1460.497)"
       x1="549.00745"
       y1="-310.31183"
       x2="511.80453"
       y2="-309.47519" />
    <radialGradient
       inkscape:collect="always"
       xlink:href="#linearGradient3338"
       id="radialGradient5551"
       gradientUnits="userSpaceOnUse"
       gradientTransform="matrix(0.51554821,-0.84568081,1.1288979,0.68820444,-643.46887,1694.073)"
       cx="423.07739"
       cy="-187.4471"
       fx="423.07739"
       fy="-187.4471"
       r="166.84651" />
    <linearGradient
       inkscape:collect="always"
       xlink:href="#linearGradient3360"
       id="linearGradient5555"
       gradientUnits="userSpaceOnUse"
       gradientTransform="translate(-1124.2237,1458.7504)"
       x1="452.13895"
       y1="-403.7587"
       x2="425.63535"
       y2="-424.26743" />
    <linearGradient
       inkscape:collect="always"
       xlink:href="#linearGradient3360"
       id="linearGradient5558"
       gradientUnits="userSpaceOnUse"
       gradientTransform="translate(-1124.2237,1458.7504)"
       x1="452.13895"
       y1="-403.7587"
       x2="425.63535"
       y2="-424.26743" />
    <linearGradient
       id="linearGradient4274">
      <stop
         id="stop4276"
         offset="0"
         style="stop-color:#241c1c;stop-opacity:1" />
      <stop
         style="stop-color:#483737;stop-opacity:1;"
         offset="0.15879123"
         id="stop4286" />
      <stop
         style="stop-color:#544141;stop-opacity:1"
         offset="0.50204235"
         id="stop4282" />
      <stop
         id="stop4284"
         offset="0.75"
         style="stop-color:#483737;stop-opacity:1;" />
      <stop
         id="stop4278"
         offset="1"
         style="stop-color:#241c1c;stop-opacity:1" />
    </linearGradient>
    <linearGradient
       id="linearGradient4300"
       inkscape:collect="always">
      <stop
         id="stop4302"
         offset="0"
         style="stop-color:#513f3f;stop-opacity:1" />
      <stop
         id="stop4304"
         offset="1"
         style="stop-color:#916f6f;stop-opacity:1" />
    </linearGradient>
    <linearGradient
       id="linearGradient4338"
       inkscape:collect="always">
      <stop
         id="stop4340"
         offset="0"
         style="stop-color:#5a4545;stop-opacity:1" />
      <stop
         id="stop4342"
         offset="1"
         style="stop-color:#6c5353;stop-opacity:1" />
    </linearGradient>
    <linearGradient
       inkscape:collect="always"
       xlink:href="#linearGradient4338"
       id="linearGradient5824"
       gradientUnits="userSpaceOnUse"
       gradientTransform="matrix(1.1870923,0,0,1.1870923,557.10763,972.51967)"
       x1="506.36237"
       y1="-254.24303"
       x2="505.8338"
       y2="-219.35794" />
    <linearGradient
       inkscape:collect="always"
       xlink:href="#linearGradient4300"
       id="linearGradient5826"
       gradientUnits="userSpaceOnUse"
       gradientTransform="matrix(0.83444929,0,0,0.83444929,695.02334,866.91126)"
       x1="521.0072"
       y1="-422.45435"
       x2="521.0072"
       y2="-338.73444" />
    <linearGradient
       inkscape:collect="always"
       xlink:href="#linearGradient4274"
       id="linearGradient5828"
       gradientUnits="userSpaceOnUse"
       gradientTransform="matrix(0.83444929,0,0,0.83444929,741.18088,866.91126)"
       x1="536.79242"
       y1="-366.81332"
       x2="556.42566"
       y2="-324.86945" />
    <linearGradient
       y2="-301.63974"
       x2="535.34979"
       y1="-301.92004"
       x1="538.38654"
       gradientTransform="translate(-25.414983,34.384977)"
       gradientUnits="userSpaceOnUse"
       id="linearGradient5544"
       xlink:href="#linearGradient3146"
       inkscape:collect="always" />
    <linearGradient
       id="linearGradient3146"
       inkscape:collect="always">
      <stop
         id="stop3148"
         offset="0"
         style="stop-color:#1c1c24;stop-opacity:1;" />
      <stop
         id="stop3150"
         offset="1"
         style="stop-color:#1c1c24;stop-opacity:0;" />
    </linearGradient>
    <linearGradient
       y2="-254.24301"
       x2="132.40479"
       y1="-254.24301"
       x1="159.62572"
       gradientTransform="translate(-47.042016,6.3427437)"
       gradientUnits="userSpaceOnUse"
       id="linearGradient4078"
       xlink:href="#linearGradient3139"
       inkscape:collect="always" />
    <linearGradient
       y2="-408.62561"
       x2="159.96489"
       y1="-417.59561"
       x1="192.85487"
       gradientTransform="translate(-63.427437,6.3427437)"
       gradientUnits="userSpaceOnUse"
       id="linearGradient4076"
       xlink:href="#linearGradient3117"
       inkscape:collect="always" />
    <linearGradient
       y2="-408.62561"
       x2="159.96489"
       y1="-417.59561"
       x1="192.85487"
       gradientTransform="matrix(1.6191115,1.2420631,-1.2420631,1.6191115,-653.89128,220.57021)"
       gradientUnits="userSpaceOnUse"
       id="linearGradient4074"
       xlink:href="#linearGradient3117"
       inkscape:collect="always" />
    <linearGradient
       id="linearGradient3117"
       inkscape:collect="always">
      <stop
         id="stop3119"
         offset="0"
         style="stop-color:#aa4400;stop-opacity:1;" />
      <stop
         id="stop3121"
         offset="1"
         style="stop-color:#783000;stop-opacity:1" />
    </linearGradient>
    <linearGradient
       id="linearGradient3139"
       inkscape:collect="always">
      <stop
         id="stop3141"
         offset="0"
         style="stop-color:#2b1100;stop-opacity:1;" />
      <stop
         id="stop3143"
         offset="1"
         style="stop-color:#2b1100;stop-opacity:0;" />
    </linearGradient>
    <filter
       height="1.4686061"
       y="-0.23430306"
       width="1.4207194"
       x="-0.21035969"
       id="filter3967"
       inkscape:collect="always"
       color-interpolation-filters="sRGB">
      <feGaussianBlur
         id="feGaussianBlur3969"
         stdDeviation="5.8948044"
         inkscape:collect="always" />
    </filter>
    <linearGradient
       id="linearGradient3911"
       inkscape:collect="always">
      <stop
         id="stop3913"
         offset="0"
         style="stop-color:#241c1c;stop-opacity:1" />
      <stop
         id="stop3915"
         offset="1"
         style="stop-color:#784421;stop-opacity:0;" />
    </linearGradient>
    <linearGradient
       id="linearGradient3971"
       inkscape:collect="always">
      <stop
         id="stop3973"
         offset="0"
         style="stop-color:#917c6f;stop-opacity:1;" />
      <stop
         id="stop3975"
         offset="1"
         style="stop-color:#28170b;stop-opacity:1" />
    </linearGradient>
    <linearGradient
       inkscape:collect="always"
       xlink:href="#linearGradient3911"
       id="linearGradient3762"
       gradientUnits="userSpaceOnUse"
       gradientTransform="translate(0,-16.661873)"
       x1="519.29504"
       y1="-260.8017"
       x2="508.18713"
       y2="-300.37363" />
    <linearGradient
       inkscape:collect="always"
       xlink:href="#linearGradient3971"
       id="linearGradient3786"
       gradientUnits="userSpaceOnUse"
       gradientTransform="matrix(0.9140942,0,0,0.9140942,290.747,786.33643)"
       x1="441.53964"
       y1="-273.2981"
       x2="511.65836"
       y2="-286.14163" />
    <linearGradient
       id="linearGradient3578"
       inkscape:collect="always">
      <stop
         id="stop3580"
         offset="0"
         style="stop-color:#1f1c24;stop-opacity:1;" />
      <stop
         id="stop3582"
         offset="1"
         style="stop-color:#1f1c24;stop-opacity:0;" />
    </linearGradient>
    <linearGradient
       id="linearGradient3604"
       inkscape:collect="always">
      <stop
         id="stop3606"
         offset="0"
         style="stop-color:#211e26;stop-opacity:1;" />
      <stop
         id="stop3608"
         offset="1"
         style="stop-color:#211e26;stop-opacity:0;" />
    </linearGradient>
    <linearGradient
       inkscape:collect="always"
       xlink:href="#linearGradient3578"
       id="linearGradient3958"
       gradientUnits="userSpaceOnUse"
       gradientTransform="matrix(1.1100531,0,0,1.1100531,2863.0486,903.46763)"
       x1="-1887.6512"
       y1="-315.29987"
       x2="-1887.4778"
       y2="-254.37988" />
    <linearGradient
       inkscape:collect="always"
       xlink:href="#linearGradient3604"
       id="linearGradient3967"
       gradientUnits="userSpaceOnUse"
       gradientTransform="matrix(1.1100531,0,0,1.1100531,2931.5428,903.46763)"
       x1="-1801.6218"
       y1="-327.32669"
       x2="-1798.4309"
       y2="-249.51823" />
    <linearGradient
       inkscape:collect="always"
       xlink:href="#linearGradient3265-7-8"
       id="linearGradient6694"
       gradientUnits="userSpaceOnUse"
       gradientTransform="matrix(-1.9601035,0,0,1.9601035,3084.4205,1291.2843)"
       x1="1128.5424"
       y1="-358.21252"
       x2="1128.5"
       y2="-350.88782" />
    <linearGradient
       inkscape:collect="always"
       xlink:href="#linearGradient3265-7-8"
       id="linearGradient6696"
       gradientUnits="userSpaceOnUse"
       gradientTransform="matrix(1.9601035,0,0,1.9601035,-1268.7026,1291.2843)"
       x1="1128.5424"
       y1="-358.21252"
       x2="1128.5"
       y2="-350.88782" />
    <linearGradient
       inkscape:collect="always"
       xlink:href="#linearGradient3265-7-8"
       id="linearGradient9421"
       gradientUnits="userSpaceOnUse"
       gradientTransform="matrix(-1.9601035,0,0,1.9601035,3084.4205,1291.2843)"
       x1="1128.5424"
       y1="-358.21252"
       x2="1128.5"
       y2="-350.88782" />
    <linearGradient
       inkscape:collect="always"
       xlink:href="#linearGradient3265-7-8"
       id="linearGradient9423"
       gradientUnits="userSpaceOnUse"
       gradientTransform="matrix(1.9601035,0,0,1.9601035,-1268.7026,1291.2843)"
       x1="1128.5424"
       y1="-358.21252"
       x2="1128.5"
       y2="-350.88782" />
    <linearGradient
       inkscape:collect="always"
       xlink:href="#linearGradient4094-1"
       id="linearGradient9425"
       gradientUnits="userSpaceOnUse"
       gradientTransform="matrix(0.64156397,0,0,0.64156397,-240.46334,1048.4872)"
       x1="987.61987"
       y1="-434.2847"
       x2="919.21014"
       y2="-435.80673" />
    <linearGradient
       inkscape:collect="always"
       xlink:href="#linearGradient4122-9"
       id="linearGradient9427"
       gradientUnits="userSpaceOnUse"
       gradientTransform="matrix(0.76362355,0,0,0.76362355,-529.2141,788.2198)"
       x1="1627.4237"
       y1="-275.98389"
       x2="1568.8258"
       y2="-208.25383" />
    <linearGradient
       inkscape:collect="always"
       xlink:href="#linearGradient3310"
       id="linearGradient9429"
       gradientUnits="userSpaceOnUse"
       x1="1748.3407"
       y1="-227.81718"
       x2="1759.3722"
       y2="-149.25218" />
    <radialGradient
       inkscape:collect="always"
       xlink:href="#linearGradient4871"
       id="radialGradient9431"
       gradientUnits="userSpaceOnUse"
       gradientTransform="matrix(1.6682146,1.6471163,-0.88417937,0.89550496,-1046.6412,-1706.4218)"
       cx="1014.4006"
       cy="-408.6366"
       fx="1014.4006"
       fy="-408.6366"
       r="120.84957" />
    <linearGradient
       inkscape:collect="always"
       xlink:href="#linearGradient3209"
       id="linearGradient9433"
       gradientUnits="userSpaceOnUse"
       x1="1033.9359"
       y1="-312.79977"
       x2="1033.103"
       y2="-341.95212" />
    <linearGradient
       inkscape:collect="always"
       xlink:href="#linearGradient3219"
       id="linearGradient9435"
       gradientUnits="userSpaceOnUse"
       x1="1033.9359"
       y1="-312.79977"
       x2="1033.103"
       y2="-341.95212" />
    <linearGradient
       inkscape:collect="always"
       xlink:href="#linearGradient4136"
       id="linearGradient9437"
       gradientUnits="userSpaceOnUse"
       gradientTransform="matrix(1.3519879,0,0,1.3519879,-2458.2999,1401.0995)"
       x1="1621.358"
       y1="-347.02103"
       x2="1731.0365"
       y2="-299.90375" />
    <linearGradient
       inkscape:collect="always"
       xlink:href="#linearGradient4283"
       id="linearGradient9439"
       gradientUnits="userSpaceOnUse"
       gradientTransform="translate(-2538.9898,1459.867)"
       x1="503.56857"
       y1="-348.85837"
       x2="512.40308"
       y2="-335.29108" />
    <linearGradient
       inkscape:collect="always"
       xlink:href="#linearGradient3449"
       id="linearGradient9441"
       gradientUnits="userSpaceOnUse"
       gradientTransform="translate(-2538.9898,1459.867)"
       x1="535.43597"
       y1="-304.05469"
       x2="522.1842"
       y2="-302.79257" />
    <linearGradient
       inkscape:collect="always"
       xlink:href="#linearGradient4233"
       id="linearGradient9443"
       gradientUnits="userSpaceOnUse"
       gradientTransform="translate(-2538.9898,1459.867)"
       x1="492.84091"
       y1="-285.43903"
       x2="581.34399"
       y2="-291.27615" />
    <linearGradient
       inkscape:collect="always"
       xlink:href="#linearGradient4817"
       id="linearGradient9445"
       gradientUnits="userSpaceOnUse"
       gradientTransform="matrix(0.89679722,0,0,0.89679722,-2045.7805,1424)"
       x1="660.06604"
       y1="-501.25412"
       x2="616.52441"
       y2="-327.7186" />
    <linearGradient
       inkscape:collect="always"
       xlink:href="#linearGradient5181"
       id="linearGradient9447"
       gradientUnits="userSpaceOnUse"
       gradientTransform="translate(-1159.9752,1449.158)"
       x1="-276.65112"
       y1="-462.97198"
       x2="-282.89807"
       y2="-279.57907" />
    <linearGradient
       inkscape:collect="always"
       xlink:href="#linearGradient5172"
       id="linearGradient9449"
       gradientUnits="userSpaceOnUse"
       gradientTransform="matrix(0.89679722,0,0,0.89679722,-2045.7805,1424)"
       x1="533.96741"
       y1="-432.47049"
       x2="555.86011"
       y2="-240.41187" />
    <linearGradient
       inkscape:collect="always"
       xlink:href="#linearGradient4817"
       id="linearGradient9451"
       gradientUnits="userSpaceOnUse"
       gradientTransform="matrix(0.82173933,0,0,0.82173933,-2014.5348,1366.3891)"
       x1="626.62103"
       y1="-258.30438"
       x2="602.01056"
       y2="-402.81216" />
    <linearGradient
       inkscape:collect="always"
       xlink:href="#linearGradient5193"
       id="linearGradient9453"
       gradientUnits="userSpaceOnUse"
       gradientTransform="matrix(0.89679722,0,0,0.89679722,-2020.1702,1428.0016)"
       x1="564.45752"
       y1="-396.48645"
       x2="567.13477"
       y2="-318.39944" />
    <linearGradient
       inkscape:collect="always"
       xlink:href="#linearGradient3360"
       id="linearGradient9455"
       gradientUnits="userSpaceOnUse"
       gradientTransform="translate(-1124.2237,1458.7504)"
       x1="452.13895"
       y1="-403.7587"
       x2="425.63535"
       y2="-424.26743" />
    <linearGradient
       inkscape:collect="always"
       xlink:href="#linearGradient3360"
       id="linearGradient9457"
       gradientUnits="userSpaceOnUse"
       gradientTransform="translate(-1124.2237,1458.7504)"
       x1="452.13895"
       y1="-403.7587"
       x2="425.63535"
       y2="-424.26743" />
    <radialGradient
       inkscape:collect="always"
       xlink:href="#linearGradient3338"
       id="radialGradient9459"
       gradientUnits="userSpaceOnUse"
       gradientTransform="matrix(0.51554821,-0.84568081,1.1288979,0.68820444,-643.46887,1694.073)"
       cx="423.07739"
       cy="-187.4471"
       fx="423.07739"
       fy="-187.4471"
       r="166.84651" />
    <linearGradient
       inkscape:collect="always"
       xlink:href="#linearGradient3380"
       id="linearGradient9461"
       gradientUnits="userSpaceOnUse"
       gradientTransform="translate(-1104.5149,1460.497)"
       x1="549.00745"
       y1="-310.31183"
       x2="511.80453"
       y2="-309.47519" />
    <linearGradient
       inkscape:collect="always"
       xlink:href="#linearGradient3394"
       id="linearGradient9463"
       gradientUnits="userSpaceOnUse"
       gradientTransform="translate(-1035.7984,1460.497)"
       x1="548.9787"
       y1="-310.0397"
       x2="511.74536"
       y2="-309.25769" />
    <linearGradient
       inkscape:collect="always"
       xlink:href="#linearGradient4338"
       id="linearGradient9465"
       gradientUnits="userSpaceOnUse"
       gradientTransform="matrix(1.1870923,0,0,1.1870923,557.10763,972.51967)"
       x1="506.36237"
       y1="-254.24303"
       x2="505.8338"
       y2="-219.35794" />
    <linearGradient
       inkscape:collect="always"
       xlink:href="#linearGradient4300"
       id="linearGradient9467"
       gradientUnits="userSpaceOnUse"
       gradientTransform="matrix(0.83444929,0,0,0.83444929,695.02334,866.91126)"
       x1="521.0072"
       y1="-422.45435"
       x2="521.0072"
       y2="-338.73444" />
    <linearGradient
       inkscape:collect="always"
       xlink:href="#linearGradient4274"
       id="linearGradient9469"
       gradientUnits="userSpaceOnUse"
       gradientTransform="matrix(0.83444929,0,0,0.83444929,741.18088,866.91126)"
       x1="536.79242"
       y1="-366.81332"
       x2="556.42566"
       y2="-324.86945" />
    <linearGradient
       inkscape:collect="always"
       xlink:href="#linearGradient3146"
       id="linearGradient9471"
       gradientUnits="userSpaceOnUse"
       gradientTransform="translate(-25.414983,34.384977)"
       x1="538.38654"
       y1="-301.92004"
       x2="535.34979"
       y2="-301.63974" />
    <linearGradient
       inkscape:collect="always"
       xlink:href="#linearGradient3117"
       id="linearGradient9473"
       gradientUnits="userSpaceOnUse"
       gradientTransform="matrix(1.6191115,1.2420631,-1.2420631,1.6191115,-653.89128,220.57021)"
       x1="192.85487"
       y1="-417.59561"
       x2="159.96489"
       y2="-408.62561" />
    <linearGradient
       inkscape:collect="always"
       xlink:href="#linearGradient3117"
       id="linearGradient9475"
       gradientUnits="userSpaceOnUse"
       gradientTransform="translate(-63.427437,6.3427437)"
       x1="192.85487"
       y1="-417.59561"
       x2="159.96489"
       y2="-408.62561" />
    <linearGradient
       inkscape:collect="always"
       xlink:href="#linearGradient3139"
       id="linearGradient9477"
       gradientUnits="userSpaceOnUse"
       gradientTransform="translate(-47.042016,6.3427437)"
       x1="159.62572"
       y1="-254.24301"
       x2="132.40479"
       y2="-254.24301" />
    <linearGradient
       inkscape:collect="always"
       xlink:href="#linearGradient3971"
       id="linearGradient9479"
       gradientUnits="userSpaceOnUse"
       gradientTransform="matrix(0.9140942,0,0,0.9140942,290.747,786.33643)"
       x1="441.53964"
       y1="-273.2981"
       x2="511.65836"
       y2="-286.14163" />
    <linearGradient
       inkscape:collect="always"
       xlink:href="#linearGradient3911"
       id="linearGradient9481"
       gradientUnits="userSpaceOnUse"
       gradientTransform="translate(0,-16.661873)"
       x1="519.29504"
       y1="-260.8017"
       x2="508.18713"
       y2="-300.37363" />
    <linearGradient
       inkscape:collect="always"
       xlink:href="#linearGradient3604"
       id="linearGradient9483"
       gradientUnits="userSpaceOnUse"
       gradientTransform="matrix(1.1100531,0,0,1.1100531,2931.5428,903.46763)"
       x1="-1801.6218"
       y1="-327.32669"
       x2="-1798.4309"
       y2="-249.51823" />
    <linearGradient
       inkscape:collect="always"
       xlink:href="#linearGradient3578"
       id="linearGradient9485"
       gradientUnits="userSpaceOnUse"
       gradientTransform="matrix(1.1100531,0,0,1.1100531,2863.0486,903.46763)"
       x1="-1887.6512"
       y1="-315.29987"
       x2="-1887.4778"
       y2="-254.37988" />
    <linearGradient
       inkscape:collect="always"
       xlink:href="#linearGradient3604"
       id="linearGradient10598"
       gradientUnits="userSpaceOnUse"
       gradientTransform="matrix(1.1100531,0,0,1.1100531,2931.5428,903.46763)"
       x1="-1801.6218"
       y1="-327.32669"
       x2="-1798.4309"
       y2="-249.51823" />
    <linearGradient
       inkscape:collect="always"
       xlink:href="#linearGradient3578"
       id="linearGradient10600"
       gradientUnits="userSpaceOnUse"
       gradientTransform="matrix(1.1100531,0,0,1.1100531,2863.0486,903.46763)"
       x1="-1887.6512"
       y1="-315.29987"
       x2="-1887.4778"
       y2="-254.37988" />
    <linearGradient
       inkscape:collect="always"
       xlink:href="#linearGradient3971"
       id="linearGradient10602"
       gradientUnits="userSpaceOnUse"
       gradientTransform="matrix(0.9140942,0,0,0.9140942,290.747,786.33643)"
       x1="441.53964"
       y1="-273.2981"
       x2="511.65836"
       y2="-286.14163" />
    <linearGradient
       inkscape:collect="always"
       xlink:href="#linearGradient3911"
       id="linearGradient10604"
       gradientUnits="userSpaceOnUse"
       gradientTransform="translate(0,-16.661873)"
       x1="519.29504"
       y1="-260.8017"
       x2="508.18713"
       y2="-300.37363" />
    <linearGradient
       inkscape:collect="always"
       xlink:href="#linearGradient3117"
       id="linearGradient10606"
       gradientUnits="userSpaceOnUse"
       gradientTransform="matrix(1.6191115,1.2420631,-1.2420631,1.6191115,-653.89128,220.57021)"
       x1="192.85487"
       y1="-417.59561"
       x2="159.96489"
       y2="-408.62561" />
    <linearGradient
       inkscape:collect="always"
       xlink:href="#linearGradient3117"
       id="linearGradient10608"
       gradientUnits="userSpaceOnUse"
       gradientTransform="translate(-63.427437,6.3427437)"
       x1="192.85487"
       y1="-417.59561"
       x2="159.96489"
       y2="-408.62561" />
    <linearGradient
       inkscape:collect="always"
       xlink:href="#linearGradient3139"
       id="linearGradient10610"
       gradientUnits="userSpaceOnUse"
       gradientTransform="translate(-47.042016,6.3427437)"
       x1="159.62572"
       y1="-254.24301"
       x2="132.40479"
       y2="-254.24301" />
  </defs>
  <sodipodi:namedview
     id="base"
     pagecolor="#ffffff"
     bordercolor="#666666"
     borderopacity="1.0"
     inkscape:pageopacity="0.0"
     inkscape:pageshadow="2"
     inkscape:zoom="0.15874582"
     inkscape:cx="3048.3677"
     inkscape:cy="1286.3766"
     inkscape:document-units="px"
     inkscape:current-layer="layer1"
     showgrid="false"
     fit-margin-top="0"
     fit-margin-left="0"
     fit-margin-right="0"
     fit-margin-bottom="0"
     inkscape:window-width="1920"
     inkscape:window-height="1017"
     inkscape:window-x="0"
     inkscape:window-y="28"
     inkscape:window-maximized="1"
     showguides="true"
     inkscape:guide-bbox="true"
     inkscape:snap-grids="false"
     inkscape:snap-to-guides="false">
    <sodipodi:guide
       orientation="0,1"
       position="371.87981,1115.6394"
       id="guide6622" />
    <sodipodi:guide
       orientation="0,1"
       position="73.848474,189.89608"
       id="guide6624" />
    <sodipodi:guide
       orientation="1,0"
       position="363.96748,1521.806"
       id="guide6626" />
    <sodipodi:guide
       orientation="1,0"
       position="862.44468,1442.6827"
       id="guide6628" />
  </sodipodi:namedview>
  <metadata
     id="metadata7">
    <rdf:RDF>
      <cc:Work
         rdf:about="">
        <dc:format>image/svg+xml</dc:format>
        <dc:type
           rdf:resource="http://purl.org/dc/dcmitype/StillImage" />
        <dc:title></dc:title>
      </cc:Work>
    </rdf:RDF>
  </metadata>
  <g
     inkscape:label="Capa 1"
     inkscape:groupmode="layer"
     id="layer1"
     transform="translate(15278.44,186.36436)">
    <rect
       style="opacity:0.8;fill:#000000;fill-opacity:1;stroke:none"
       id="rect6564"
       width="23217.738"
       height="1351.7388"
       x="-15278.44"
       y="-186.36436" />
    <g
       id="g7947">
      <g
         transform="translate(-24335.835,32.087707)"
         id="g7415">
        <g
           style="font-size:204.73330688px;font-style:normal;font-variant:normal;font-weight:normal;font-stretch:normal;line-height:125%;letter-spacing:0px;word-spacing:0px;fill:#ffffff;fill-opacity:1;stroke:none;font-family:Short Stack;-inkscape-font-specification:Short Stack"
           id="text3044-65">
          <path
             inkscape:connector-curvature="0"
             d="m 9520.6269,551.0092 c -1.5329,-8.99705 -3.1657,-17.76085 -4.8985,-26.29143 -1.7328,-8.53052 -3.5988,-16.99442 -5.5981,-25.39173 -1.9328,-8.46384 -4.0321,-16.96107 -6.298,-25.4917 -2.1993,-8.59711 -4.5652,-17.46088 -7.0977,-26.59134 -0.3999,-1.53272 -0.8664,-3.19884 -1.3995,-4.99837 -0.4665,-1.79929 -0.9331,-3.59871 -1.3996,-5.39824 -0.3998,-1.79929 -0.7664,-3.53206 -1.0996,-5.19831 -0.2666,-1.73264 -0.3999,-3.23215 -0.3999,-4.49853 0,-0.86625 0.2333,-1.86593 0.6998,-2.99902 0.4665,-1.19948 1.0996,-2.33244 1.8994,-3.3989 0.7997,-1.13282 1.7661,-2.06585 2.899,-2.79909 1.133,-0.79959 2.3659,-1.19946 3.6988,-1.1996 2.1993,1.4e-4 3.9321,0.59994 5.1983,1.79941 1.2663,1.19975 2.2659,2.7659 2.9991,4.69847 0.7997,1.93284 1.3995,4.09879 1.7994,6.49788 0.3998,2.3327 0.833,4.66527 1.2996,6.99772 0.733,3.59895 1.4661,6.93119 2.1992,9.99675 0.7331,2.99913 1.4995,6.03147 2.2993,9.09703 0.7997,2.99913 1.6661,6.19808 2.5991,9.59688 0.9997,3.33233 2.066,7.16442 3.199,11.49625 1.1996,4.332 2.4991,9.33037 3.8987,14.99512 1.4662,5.66488 3.0657,12.26272 4.7985,19.79355 0.5331,2.33262 0.9329,4.69851 1.1996,7.09769 0.2665,2.33261 0.7663,3.96541 1.4995,4.8984 l 2.7991,-8.5972 c 0.6664,-1.9993 1.4661,-4.46516 2.3992,-7.39759 0.933,-2.93232 1.966,-6.13128 3.099,-9.59687 1.1329,-3.53212 2.3325,-7.23091 3.5988,-11.09639 1.3328,-3.86533 2.6991,-7.73073 4.0987,-11.59622 1.4661,-3.86532 2.9323,-7.63076 4.3985,-11.29632 1.4662,-3.66537 2.9324,-7.03094 4.3986,-10.09671 1.4661,-3.06556 2.7657,-5.73136 3.8987,-7.9974 1.1996,-2.33245 2.3325,-4.26516 3.3989,-5.79811 1.0663,-1.53271 2.0993,-2.66567 3.099,-3.39889 1.0663,-0.73297 2.2325,-1.09952 3.4989,-1.09964 2.3325,1.2e-4 4.5651,1.8995 6.6978,5.69814 2.1325,3.79888 3.7653,9.53034 4.8984,17.1944 0.9329,6.19808 1.8326,12.0295 2.6991,17.4943 0.933,5.39832 1.8993,10.66327 2.8991,15.79486 1.0662,5.06507 2.2658,10.13009 3.5988,15.19505 1.3328,5.06506 2.899,10.36333 4.6985,15.89482 1.5327,-3.73208 2.8989,-7.96403 4.0986,-12.69587 1.2662,-4.79838 2.5658,-9.96336 3.8988,-15.49495 1.3328,-5.5981 2.7989,-11.5295 4.3985,-17.7942 1.666,-6.26454 3.6321,-12.79574 5.8981,-19.59362 1.1329,-3.39879 2.2991,-6.73103 3.4989,-9.99674 1.2661,-3.26549 2.4657,-6.26451 3.5988,-8.99707 1.1328,-2.79897 2.1658,-5.26483 3.099,-7.39759 0.9329,-2.13251 1.6993,-3.73199 2.2993,-4.79844 0.3997,-1.59934 0.9328,-3.53205 1.5994,-5.79811 0.733,-2.33243 1.666,-4.53171 2.7991,-6.59785 1.1995,-2.13249 2.6657,-3.9319 4.3986,-5.39824 1.7326,-1.46604 3.8319,-2.19913 6.2979,-2.19928 1.4661,1.5e-4 2.799,0.36669 3.9987,1.09964 1.2661,0.6666 2.3324,1.53298 3.199,2.59915 0.8662,1.06647 1.5327,2.23275 1.9993,3.49886 0.533,1.2664 0.7996,2.49933 0.7998,3.6988 -2e-4,0.79988 -0.2001,1.63294 -0.5998,2.49918 -0.3334,0.86652 -0.8333,1.79955 -1.4995,2.79909 -0.6,0.99981 -1.3664,2.13277 -2.2993,3.39889 -0.9332,1.26639 -1.9662,2.73258 -3.099,4.39857 -1.333,1.93283 -2.5993,3.93218 -3.7987,5.99805 -1.1332,2.06611 -2.3328,4.56529 -3.5989,7.49755 -1.1997,2.86585 -2.4993,6.3647 -3.8987,10.49658 -1.333,4.13209 -2.8659,9.23043 -4.5985,15.29502 -1.6663,6.06478 -3.5656,13.32907 -5.6981,21.7929 -2.0662,8.39733 -4.4321,18.32741 -7.0977,29.7903 -0.4,1.86609 -0.9332,4.0987 -1.5995,6.69782 -0.5999,2.59918 -1.333,5.2983 -2.1993,8.09736 -0.7999,2.73246 -1.7662,5.49822 -2.899,8.2973 -1.1331,2.73245 -2.4327,5.19831 -3.8988,7.39759 -1.4663,2.13264 -3.1324,3.86541 -4.9984,5.1983 -1.7995,1.3329 -3.8322,1.99935 -6.098,1.99935 -0.9998,0 -2.0327,-0.16661 -3.099,-0.49984 -1.0664,-0.26658 -2.0994,-0.69977 -3.0989,-1.29957 -0.9332,-0.59981 -1.7662,-1.36622 -2.4992,-2.29925 -0.7332,-0.99967 -1.2331,-2.16596 -1.4995,-3.49886 -1.1331,-5.59817 -2.466,-11.4296 -3.9987,-17.49431 -1.533,-6.1313 -3.1325,-12.3626 -4.7985,-18.69391 -1.5995,-6.39786 -3.199,-12.89574 -4.7984,-19.49365 -1.5329,-6.59778 -2.8325,-13.22894 -3.8987,-19.89352 -0.9332,2.66588 -2.0328,5.83152 -3.299,9.49691 -1.2663,3.5989 -2.5992,7.4643 -3.9987,11.59622 -1.3329,4.0654 -2.7325,8.23071 -4.1986,12.49593 -1.3996,4.19868 -2.7325,8.2307 -3.9987,12.09606 -1.1997,3.7988 -2.2993,7.29766 -3.2989,10.49658 -0.9998,3.13234 -1.7662,5.63152 -2.2993,7.49756 l 0,-0.19993 c -0.2,0.59982 -0.5998,1.56617 -1.1996,2.89905 -0.5999,1.33292 -1.3329,2.83243 -2.1993,4.49854 -0.7998,1.59949 -1.6995,3.26561 -2.6991,4.99837 -0.9997,1.66613 -2.0327,3.19896 -3.099,4.5985 -0.9997,1.39955 -1.9994,2.53251 -2.999,3.39889 -0.9997,0.93303 -1.8994,1.39954 -2.6991,1.39955 -3.9321,-10e-6 -6.8645,-0.86639 -8.7972,-2.59916 -1.9327,-1.66612 -3.1656,-4.09866 -3.6987,-7.29762"
             id="path7158" />
          <path
             inkscape:connector-curvature="0"
             d="m 9715.2634,566.80406 c -4.5985,-1e-5 -8.6638,-1.03301 -12.196,-3.09899 -3.5322,-2.066 -6.6645,-4.79844 -9.3969,-8.19733 -2.6659,-3.46554 -4.9651,-7.43091 -6.8978,-11.89613 -1.8661,-4.46519 -3.4655,-9.09701 -4.7984,-13.89547 -1.2663,-4.79841 -2.2993,-9.63016 -3.099,-14.49528 -0.7331,-4.86503 -1.2996,-9.36356 -1.6994,-13.4956 -0.3999,-4.19858 -0.6665,-7.86404 -0.7998,-10.99642 -0.1333,-3.19889 -0.1999,-5.56478 -0.1999,-7.09769 0,-6.53112 0.3998,-11.72943 1.1996,-15.59492 0.7997,-3.93196 1.7994,-6.89766 2.999,-8.8971 1.1996,-2.06589 2.4992,-3.39879 3.8987,-3.9987 1.3996,-0.66634 2.6991,-0.99957 3.8988,-0.99967 3.0656,10e-5 5.0983,0.83316 6.098,2.49918 1.0663,1.59958 1.5994,3.86551 1.5995,6.79779 -1e-4,2.39931 -0.2333,4.93181 -0.6998,7.59752 -0.3999,2.59924 -0.5998,5.13175 -0.5998,7.59753 0,1.46627 0.033,3.53226 0.1,6.19798 0.067,2.66587 0.1999,5.69821 0.3998,9.09704 0.2666,3.3323 0.5998,6.96445 0.9997,10.89645 0.4665,3.86545 1.033,7.73086 1.6994,11.59622 0.7331,3.86544 1.5995,7.59756 2.5992,11.19635 1.0663,3.59886 2.2992,6.83113 3.6988,9.69684 1.4661,2.79911 3.0989,5.13168 4.8984,6.99772 1.866,1.79943 3.9986,2.86575 6.3979,3.19896 2.799,0.39988 5.5315,0.0667 8.1973,-0.99967 2.6658,-1.13295 5.1316,-2.79908 7.3976,-4.99838 2.3325,-2.19926 4.4318,-4.83173 6.298,-7.89742 1.9326,-3.13229 3.5654,-6.49785 4.8984,-10.09671 1.3994,-3.66544 2.4658,-7.4642 3.1989,-11.39629 0.7997,-3.99865 1.1996,-7.99734 1.1997,-11.99609 -10e-5,-1.73271 -0.1001,-3.93199 -0.3,-6.59785 -0.2,-2.73238 -0.4332,-5.56479 -0.6997,-8.49724 -0.2,-2.9323 -0.4,-5.76471 -0.5998,-8.49723 -0.2,-2.799 -0.3,-5.1649 -0.2999,-7.09769 -10e-5,-0.79965 0.1998,-1.83264 0.5998,-3.09899 0.4664,-1.3328 1.1662,-2.59906 2.0993,-3.79876 0.9329,-1.26616 2.0992,-2.33247 3.4989,-3.19896 1.466,-0.86628 3.1988,-1.29947 5.1983,-1.29957 1.1995,10e-5 2.3324,0.33332 3.3989,0.99967 1.1328,0.66655 2.1325,1.49961 2.999,2.49919 0.9329,0.93312 1.666,1.9328 2.1993,2.99902 0.533,1.06641 0.8329,2.03276 0.8997,2.89906 0.1331,2.13272 0.1998,4.66523 0.1999,7.59752 0.067,2.86581 0.1,5.76487 0.1,8.69717 0.067,3.99877 0.1331,8.23072 0.1999,12.69586 0.1332,4.39863 0.3664,8.76387 0.6998,13.09574 0.3331,4.33196 0.8329,8.46395 1.4995,12.39596 0.6663,3.93208 1.5994,7.39762 2.7991,10.39661 1.1995,2.9324 2.6657,5.2983 4.3985,7.09769 1.7993,1.73278 3.9986,2.59917 6.5979,2.59915 3.2655,2e-5 6.5977,-0.49982 9.9967,-1.49951 3.3988,-1.0663 6.6644,-2.56581 9.7968,-4.49853 3.1989,-1.99933 6.1979,-4.43187 8.9971,-7.29763 2.8656,-2.93234 5.3315,-6.29791 7.3976,-10.09671 2.1325,-3.79872 3.7986,-7.99735 4.9984,-12.59589 1.1994,-4.66509 1.7992,-9.73011 1.7994,-15.19505 -2e-4,-1.39948 -0.067,-3.16557 -0.1999,-5.29828 -0.067,-2.19921 -0.2335,-4.59842 -0.4999,-7.19765 -0.2667,-2.59908 -0.6333,-5.26487 -1.0996,-7.9974 -0.4667,-2.799 -1.0665,-5.46479 -1.7994,-7.99739 -0.3334,-1.13287 -0.7999,-2.26583 -1.3996,-3.3989 -0.5333,-1.13286 -1.0665,-2.26582 -1.5995,-3.39889 -0.5333,-1.13286 -0.9998,-2.26582 -1.3995,-3.39889 -0.4,-1.1995 -0.6,-2.39911 -0.5998,-3.59883 -2e-4,-2.99891 0.7996,-5.53142 2.3992,-7.59752 1.666,-2.13252 4.2984,-3.19884 7.8974,-3.19896 0.9329,1.2e-4 1.9326,0.16673 2.9991,0.49983 1.1328,0.2667 2.1657,0.79986 3.0989,1.59948 0.9995,0.79986 1.8659,1.86618 2.5992,3.19896 0.7329,1.33301 1.2328,3.03246 1.4995,5.09834 0.1998,0.86649 0.5996,2.63258 1.1996,5.29827 0.5996,2.59926 1.1995,5.73157 1.7994,9.39694 0.6663,3.66557 1.2328,7.63094 1.6995,11.89613 0.533,4.19871 0.7995,8.33069 0.7997,12.39596 -2e-4,6.79785 -0.7999,13.36237 -2.3992,19.69358 -1.533,6.33132 -3.699,12.26272 -6.4979,17.79421 -2.7992,5.53156 -6.1315,10.59657 -9.9967,15.19505 -3.7989,4.53187 -7.9643,8.4306 -12.496,11.69619 -4.532,3.2656 -9.3304,5.79811 -14.3953,7.59752 -5.0651,1.79941 -10.1968,2.69912 -15.3949,2.69912 -3.7323,0 -7.0312,-0.76642 -9.8968,-2.29925 -2.7992,-1.53283 -5.2984,-3.63214 -7.4976,-6.29795 -2.1994,-2.66579 -4.1321,-5.73145 -5.7981,-9.197 -1.6662,-3.53216 -3.199,-7.2976 -4.5985,-11.29632 -1.5996,4.13201 -3.7322,8.23067 -6.3979,12.29599 -2.5992,4.06536 -5.5983,7.73083 -8.9971,10.99642 -3.3323,3.19896 -6.9645,5.79811 -10.8964,7.79746 -3.8655,1.99934 -7.8309,2.99902 -11.8962,2.99903"
             id="path7160" />
        </g>
        <g
           style="font-size:120.21715546px;font-style:normal;font-weight:normal;line-height:125%;letter-spacing:0px;word-spacing:0px;fill:#ffffff;fill-opacity:1;stroke:none;font-family:Sans"
           id="text3048-30">
          <path
             inkscape:connector-curvature="0"
             d="m 9472.0762,674.6374 c -0.9001,-5.28297 -1.8589,-10.42898 -2.8763,-15.43804 -1.0175,-5.00903 -2.1132,-9.97894 -3.2872,-14.90975 -1.1349,-4.96987 -2.3676,-9.95935 -3.6981,-14.96844 -1.2914,-5.04813 -2.6806,-10.25284 -4.1677,-15.61414 -0.2348,-0.9 -0.5087,-1.87833 -0.8218,-2.93499 -0.2739,-1.05653 -0.5478,-2.11312 -0.8218,-3.16979 -0.2348,-1.05652 -0.45,-2.07399 -0.6456,-3.05239 -0.1566,-1.01739 -0.2349,-1.89788 -0.2348,-2.64149 -10e-5,-0.50865 0.1369,-1.09565 0.4109,-1.76099 0.2739,-0.70432 0.6456,-1.36958 1.1152,-1.9958 0.4696,-0.66518 1.0371,-1.21304 1.7023,-1.64359 0.6653,-0.46952 1.3893,-0.70431 2.1719,-0.7044 1.2914,9e-5 2.3089,0.35228 3.0524,1.0566 0.7435,0.70448 1.3305,1.62411 1.761,2.75889 0.4696,1.13494 0.8218,2.40677 1.0566,3.81548 0.2348,1.36974 0.4892,2.7394 0.7631,4.10899 0.4305,2.11326 0.8609,4.06992 1.2914,5.86998 0.4304,1.76105 0.8805,3.54161 1.3501,5.34168 0.4696,1.76105 0.9783,3.63944 1.5262,5.63518 0.587,1.95671 1.2131,4.20687 1.8784,6.75047 0.7044,2.5437 1.4675,5.47869 2.2893,8.80497 0.8609,3.32636 1.8001,7.20054 2.8176,11.62256 0.313,1.36968 0.5478,2.75891 0.7044,4.16768 0.1565,1.36968 0.45,2.32845 0.8805,2.87629 l 1.6436,-5.04818 c 0.3913,-1.17397 0.8609,-2.6219 1.4087,-4.34378 0.5479,-1.72183 1.1544,-3.60022 1.8197,-5.63518 0.6653,-2.07403 1.3697,-4.24592 2.1132,-6.51568 0.7827,-2.26968 1.5849,-4.5394 2.4067,-6.80917 0.8609,-2.26968 1.7218,-4.4807 2.5828,-6.63308 0.8609,-2.15227 1.7218,-4.12849 2.5828,-5.92868 0.8609,-1.80006 1.624,-3.36539 2.2893,-4.69598 0.7043,-1.3696 1.3696,-2.50446 1.9958,-3.40459 0.6261,-0.89999 1.2326,-1.56525 1.8197,-1.99579 0.6261,-0.43039 1.3109,-0.64563 2.0545,-0.6457 1.3696,7e-5 2.6805,1.11537 3.9329,3.34589 1.2522,2.23066 2.2109,5.59611 2.8763,10.09636 0.5478,3.63944 1.0761,7.06359 1.5848,10.27246 0.5478,3.16984 1.1153,6.26136 1.7023,9.27457 0.6261,2.97416 1.3305,5.94828 2.1132,8.92237 0.7826,2.97415 1.7023,6.08523 2.7589,9.33326 0.9,-2.19143 1.7022,-4.67639 2.4067,-7.45487 0.7435,-2.81756 1.5066,-5.85038 2.2893,-9.09847 0.7826,-3.28714 1.6435,-6.76999 2.5828,-10.44856 0.9782,-3.67847 2.1327,-7.51352 3.4633,-11.50516 0.6652,-1.99573 1.35,-3.95238 2.0545,-5.86997 0.7434,-1.91746 1.4478,-3.67845 2.1132,-5.28298 0.6651,-1.64353 1.2717,-3.09145 1.8197,-4.34379 0.5477,-1.25218 0.9978,-2.19138 1.3501,-2.81759 0.2347,-0.93912 0.5477,-2.07398 0.9392,-3.40459 0.4303,-1.36957 0.9782,-2.66097 1.6435,-3.87418 0.7044,-1.25218 1.5653,-2.30877 2.5828,-3.16979 1.0174,-0.86084 2.2501,-1.29131 3.6981,-1.29139 0.8609,8e-5 1.6435,0.21532 2.348,0.64569 0.7434,0.39142 1.3696,0.90015 1.8784,1.5262 0.5086,0.62621 0.9,1.31105 1.174,2.05449 0.313,0.74361 0.4695,1.46758 0.4696,2.17189 -1e-4,0.46968 -0.1175,0.95885 -0.3522,1.4675 -0.1958,0.50881 -0.4893,1.05667 -0.8805,1.64359 -0.3523,0.58708 -0.8023,1.25234 -1.3501,1.99579 -0.548,0.74361 -1.1545,1.60454 -1.8197,2.58279 -0.7827,1.13494 -1.5263,2.30893 -2.2306,3.52199 -0.6653,1.2132 -1.3697,2.68069 -2.1132,4.40248 -0.7045,1.6828 -1.4676,3.73729 -2.2893,6.16348 -0.7827,2.42632 -1.6828,5.42 -2.7001,8.98107 -0.9785,3.56117 -2.0938,7.82668 -3.3459,12.79655 -1.2132,4.93082 -2.6025,10.76166 -4.1677,17.49254 -0.2349,1.09575 -0.548,2.40671 -0.9392,3.93288 -0.3523,1.52621 -0.7828,3.1111 -1.2914,4.75468 -0.4697,1.60448 -1.0371,3.2285 -1.7023,4.87209 -0.6653,1.60446 -1.4284,3.05239 -2.2893,4.34378 -0.861,1.25226 -1.8393,2.26973 -2.935,3.05239 -1.0567,0.78266 -2.2502,1.17399 -3.5807,1.17399 -0.587,0 -1.1936,-0.0978 -1.8197,-0.29349 -0.6262,-0.15654 -1.2327,-0.4109 -1.8197,-0.7631 -0.5479,-0.3522 -1.0371,-0.80223 -1.4675,-1.3501 -0.4305,-0.58699 -0.724,-1.27182 -0.8805,-2.05449 -0.6653,-3.28718 -1.4479,-6.71133 -2.3479,-10.27246 -0.9002,-3.60024 -1.8394,-7.25919 -2.8176,-10.97686 -0.9393,-3.75676 -1.8785,-7.57224 -2.8176,-11.44646 -0.9001,-3.87414 -1.6632,-7.76789 -2.2893,-11.68126 -0.5479,1.56538 -1.1936,3.4242 -1.9371,5.57648 -0.7436,2.11324 -1.5262,4.38296 -2.348,6.80918 -0.7827,2.38716 -1.6045,4.83298 -2.4654,7.33747 -0.8218,2.46542 -1.6045,4.83297 -2.348,7.10268 -0.7044,2.23061 -1.3501,4.2851 -1.9371,6.16347 -0.587,1.83928 -1.037,3.30677 -1.3501,4.40249 l 0,-0.1174 c -0.1174,0.35221 -0.3522,0.91964 -0.7044,1.70229 -0.3522,0.78267 -0.7827,1.66317 -1.2914,2.64149 -0.4696,0.9392 -0.9979,1.91753 -1.5849,2.93499 -0.587,0.97833 -1.1936,1.8784 -1.8196,2.70019 -0.5871,0.8218 -1.1741,1.48706 -1.761,1.99579 -0.5871,0.54787 -1.1154,0.8218 -1.5849,0.8218 -2.3089,0 -4.0308,-0.50873 -5.1656,-1.52619 -1.1349,-0.97833 -1.8589,-2.40669 -2.1719,-4.28509"
             style="font-variant:normal;font-stretch:normal;font-family:Short Stack;-inkscape-font-specification:Short Stack"
             id="path7145" />
          <path
             inkscape:connector-curvature="0"
             d="m 9561.6521,653.91638 c -10e-5,-3.05236 0.4304,-6.22215 1.2914,-9.50937 0.9,-3.32628 2.1718,-6.4178 3.8154,-9.27456 1.5654,-2.85668 3.4829,-5.5373 5.7526,-8.04187 2.3089,-2.50447 4.8721,-4.67636 7.6897,-6.51568 2.8175,-1.87833 5.8504,-3.34582 9.0985,-4.40248 3.2871,-1.09567 6.7113,-1.64353 10.2724,-1.6436 2.7002,7e-5 5.3025,0.37183 7.8071,1.1153 2.5045,0.70446 4.8524,1.68279 7.044,2.93499 2.1914,1.25232 4.1871,2.73938 5.9873,4.46118 1.8392,1.72192 3.4046,3.58074 4.696,5.57648 1.2913,1.95671 2.2892,4.0112 2.9937,6.16348 0.7043,2.15237 1.0565,4.30469 1.0566,6.45697 -1e-4,1.91757 -0.1175,3.61986 -0.3522,5.10689 -0.1957,1.44795 -0.4501,2.89588 -0.7631,4.34378 -0.2349,1.48709 -0.4697,3.03285 -0.7044,4.63728 -0.2349,1.56535 -0.3523,3.40461 -0.3522,5.51778 -10e-5,1.83928 0.1369,3.36547 0.4109,4.57859 0.2739,1.174 0.6652,2.13277 1.174,2.87628 0.5087,0.74355 1.1152,1.27184 1.8197,1.5849 0.7435,0.27394 1.5653,0.41091 2.4654,0.4109 0.2347,10e-6 0.5282,-0.0587 0.8805,-0.1761 0.3521,-0.15653 0.6847,-0.31306 0.9979,-0.4696 0.313,-0.19566 0.5869,-0.37176 0.8218,-0.5283 0.2347,-0.19565 0.3912,-0.35219 0.4696,-0.4696 0.4304,-0.43045 0.8413,-0.80222 1.2327,-1.11529 0.4304,-0.35219 0.9978,-0.52829 1.7023,-0.5283 1.4087,10e-6 2.4653,0.33264 3.1698,0.9979 0.7434,0.66527 1.1152,1.761 1.1153,3.28718 -1e-4,0.93921 -0.2936,1.91754 -0.8805,2.93499 -0.548,1.01747 -1.3307,1.95666 -2.348,2.81759 -1.0176,0.8218 -2.2307,1.50663 -3.6394,2.05449 -1.4089,0.54787 -2.9742,0.8218 -4.696,0.8218 -3.4438,0 -6.3983,-0.95876 -8.8637,-2.87629 -2.4263,-1.95665 -4.1677,-4.61771 -5.2242,-7.98317 -1.448,1.5262 -3.0329,2.9937 -4.7547,4.40249 -1.7219,1.36966 -3.6199,2.58279 -5.6939,3.63938 -2.0741,1.01747 -4.383,1.8197 -6.9266,2.40669 -2.5046,0.62613 -5.283,0.9392 -8.3354,0.9392 -2.3088,0 -4.6764,-0.31307 -7.1026,-0.9392 -2.3872,-0.62613 -4.7156,-1.50662 -6.9853,-2.64149 -2.2306,-1.13486 -4.3242,-2.50452 -6.2809,-4.10898 -1.9567,-1.64359 -3.6785,-3.44371 -5.1656,-5.40038 -1.4479,-1.95665 -2.6023,-4.06984 -3.4632,-6.33958 -0.8219,-2.2697 -1.2328,-4.63726 -1.2327,-7.10267 m 10.9768,-0.1174 c 0,2.42628 0.6457,4.65687 1.9371,6.69177 1.3305,2.03495 3.0328,3.77637 5.1069,5.22428 2.074,1.44794 4.3829,2.58281 6.9266,3.40459 2.5827,0.78267 5.1068,1.17401 7.5722,1.174 3.2872,10e-6 6.3004,-0.62612 9.0398,-1.8784 2.7784,-1.25225 5.146,-2.87627 7.1027,-4.87208 1.9957,-1.99577 3.5415,-4.22636 4.6373,-6.69177 1.0956,-2.5045 1.6435,-4.96989 1.6436,-7.39618 -1e-4,-1.36963 0.2934,-2.56319 0.8805,-3.58068 0.626,-1.05656 1.213,-2.05446 1.7609,-2.99369 0.1565,-0.19563 0.2348,-0.48913 0.2348,-0.8805 0.039,-0.43043 0.039,-0.86089 0,-1.29139 0,-0.46956 -0.02,-0.90003 -0.059,-1.2914 -0.039,-0.39129 -0.059,-0.66522 -0.059,-0.8218 0,-0.86088 -0.2935,-1.80008 -0.8805,-2.81759 -0.587,-1.01741 -1.3892,-2.03488 -2.4066,-3.05238 -0.9784,-1.01742 -2.1133,-1.99575 -3.4046,-2.93499 -1.2524,-0.97828 -2.5437,-1.83921 -3.8742,-2.58279 -1.3306,-0.74348 -2.6611,-1.33048 -3.9916,-1.761 -1.3306,-0.46954 -2.5241,-0.70434 -3.5807,-0.70439 -2.9742,5e-5 -5.7526,0.41095 -8.3354,1.23269 -2.5437,0.82185 -4.8721,1.93714 -6.9852,3.34589 -2.1133,1.40884 -4.0112,3.072 -5.6939,4.98948 -1.6436,1.87844 -3.0329,3.89379 -4.1677,6.04608 -1.0957,2.15236 -1.9371,4.38295 -2.5241,6.69177 -0.587,2.30889 -0.8805,4.55905 -0.8805,6.75048"
             style="font-variant:normal;font-stretch:normal;font-family:Short Stack;-inkscape-font-specification:Short Stack"
             id="path7147" />
          <path
             inkscape:connector-curvature="0"
             d="m 9656.1,668.53262 c -0.1957,-0.90005 -0.2935,-1.87838 -0.2935,-2.93499 0,-1.05658 0,-2.09361 0,-3.11108 0,-2.62191 -0.059,-5.2047 -0.1761,-7.74838 -0.1174,-2.58276 -0.2544,-5.14598 -0.4109,-7.68967 -0.1174,-2.54362 -0.2348,-5.10684 -0.3522,-7.68967 -0.078,-2.58275 -0.078,-5.20467 0,-7.86577 l 0.4696,-30.64129 c 0,-2.58271 0.3913,-4.67633 1.174,-6.28087 0.7827,-1.60438 2.1914,-2.40661 4.2264,-2.40669 0.7435,8e-5 1.4088,0.15662 1.9958,0.46959 0.6261,0.31316 1.1544,0.72405 1.5849,1.2327 0.4304,0.46968 0.7631,0.99798 0.9979,1.58489 0.2348,0.58708 0.3521,1.15452 0.3522,1.7023 l 0,43.08564 c -1e-4,4.26555 0.078,8.55063 0.2348,12.85525 0.1956,4.26554 0.6848,8.58975 1.4675,12.97265 0.1173,0.70441 0.2934,1.29141 0.5283,1.761 0.2739,0.43047 0.5674,0.78267 0.8805,1.05659 0.3521,0.23481 0.7239,0.39134 1.1153,0.4696 0.3913,0.0783 0.763,0.11741 1.1153,0.1174 0.5869,10e-6 1.0761,-0.11739 1.4674,-0.3522 0.3913,-0.27392 0.6848,-0.52829 0.8805,-0.7631 0.2348,-0.27392 0.4696,-0.52828 0.7044,-0.76309 0.2739,-0.27392 0.5674,-0.50872 0.8805,-0.7044 0.3131,-0.23479 0.6848,-0.41089 1.1153,-0.5283 0.4696,-0.11739 1.0175,-0.17608 1.6436,-0.1761 0.7044,2e-5 1.311,0.15655 1.8197,0.4696 0.5087,0.27395 0.9392,0.64571 1.2914,1.1153 0.3522,0.46961 0.6065,0.9979 0.7631,1.58489 0.1956,0.58701 0.2935,1.174 0.2935,1.76099 0,1.21314 -0.3718,2.32843 -1.1153,3.34589 -0.7044,0.97834 -1.6045,1.8197 -2.7002,2.52409 -1.0957,0.7044 -2.2893,1.25227 -3.5807,1.6436 -1.2914,0.39133 -2.5045,0.58699 -3.6393,0.58699 -4.0699,0.0783 -7.3571,-0.78266 -9.8616,-2.58279 -2.4654,-1.83925 -4.0894,-4.53944 -4.8721,-8.10057"
             style="font-variant:normal;font-stretch:normal;font-family:Short Stack;-inkscape-font-specification:Short Stack"
             id="path7149" />
          <path
             inkscape:connector-curvature="0"
             d="m 9692.2004,653.91638 c 0,-3.05236 0.4304,-6.22215 1.2914,-9.50937 0.9,-3.32628 2.1719,-6.4178 3.8155,-9.27456 1.5653,-2.85668 3.4828,-5.5373 5.7525,-8.04187 2.3089,-2.50447 4.8721,-4.67636 7.6897,-6.51568 2.8176,-1.87833 5.8504,-3.34582 9.0985,-4.40248 3.2871,-1.09567 6.7113,-1.64353 10.2724,-1.6436 2.7002,7e-5 5.3025,0.37183 7.8071,1.1153 2.5045,0.70446 4.8525,1.68279 7.044,2.93499 2.1914,1.25232 4.1872,2.73938 5.9874,4.46118 1.8392,1.72192 3.4045,3.58074 4.6959,5.57648 1.2914,1.95671 2.2893,4.0112 2.9937,6.16348 0.7044,2.15237 1.0566,4.30469 1.0566,6.45697 0,1.91757 -0.1174,3.61986 -0.3522,5.10689 -0.1957,1.44795 -0.4501,2.89588 -0.7631,4.34378 -0.2348,1.48709 -0.4696,3.03285 -0.7044,4.63728 -0.2348,1.56535 -0.3522,3.40461 -0.3522,5.51778 0,1.83928 0.1369,3.36547 0.4109,4.57859 0.2739,1.174 0.6652,2.13277 1.174,2.87628 0.5087,0.74355 1.1153,1.27184 1.8197,1.5849 0.7435,0.27394 1.5653,0.41091 2.4654,0.4109 0.2347,10e-6 0.5282,-0.0587 0.8805,-0.1761 0.3521,-0.15653 0.6848,-0.31306 0.9979,-0.4696 0.313,-0.19566 0.5869,-0.37176 0.8218,-0.5283 0.2347,-0.19565 0.3913,-0.35219 0.4696,-0.4696 0.4304,-0.43045 0.8413,-0.80222 1.2327,-1.11529 0.4304,-0.35219 0.9978,-0.52829 1.7023,-0.5283 1.4087,10e-6 2.4653,0.33264 3.1698,0.9979 0.7434,0.66527 1.1152,1.761 1.1153,3.28718 -1e-4,0.93921 -0.2936,1.91754 -0.8805,2.93499 -0.548,1.01747 -1.3306,1.95666 -2.348,2.81759 -1.0176,0.8218 -2.2307,1.50663 -3.6394,2.05449 -1.4089,0.54787 -2.9742,0.8218 -4.696,0.8218 -3.4438,0 -6.3983,-0.95876 -8.8636,-2.87629 -2.4264,-1.95665 -4.1678,-4.61771 -5.2243,-7.98317 -1.448,1.5262 -3.0329,2.9937 -4.7547,4.40249 -1.7219,1.36966 -3.6199,2.58279 -5.6939,3.63938 -2.0741,1.01747 -4.383,1.8197 -6.9266,2.40669 -2.5045,0.62613 -5.283,0.9392 -8.3353,0.9392 -2.3089,0 -4.6765,-0.31307 -7.1027,-0.9392 -2.3872,-0.62613 -4.7156,-1.50662 -6.9853,-2.64149 -2.2306,-1.13486 -4.3242,-2.50452 -6.2809,-4.10898 -1.9566,-1.64359 -3.6785,-3.44371 -5.1655,-5.40038 -1.448,-1.95665 -2.6024,-4.06984 -3.4633,-6.33958 -0.8218,-2.2697 -1.2327,-4.63726 -1.2327,-7.10267 m 10.9768,-0.1174 c 0,2.42628 0.6457,4.65687 1.9371,6.69177 1.3305,2.03495 3.0328,3.77637 5.1069,5.22428 2.074,1.44794 4.3829,2.58281 6.9266,3.40459 2.5827,0.78267 5.1068,1.17401 7.5723,1.174 3.2871,10e-6 6.3004,-0.62612 9.0397,-1.8784 2.7784,-1.25225 5.146,-2.87627 7.1027,-4.87208 1.9957,-1.99577 3.5415,-4.22636 4.6373,-6.69177 1.0957,-2.5045 1.6435,-4.96989 1.6436,-7.39618 -1e-4,-1.36963 0.2934,-2.56319 0.8805,-3.58068 0.626,-1.05656 1.213,-2.05446 1.761,-2.99369 0.1564,-0.19563 0.2347,-0.48913 0.2348,-0.8805 0.039,-0.43043 0.039,-0.86089 0,-1.29139 -1e-4,-0.46956 -0.02,-0.90003 -0.059,-1.2914 -0.039,-0.39129 -0.059,-0.66522 -0.059,-0.8218 -1e-4,-0.86088 -0.2936,-1.80008 -0.8805,-2.81759 -0.5871,-1.01741 -1.3893,-2.03488 -2.4067,-3.05238 -0.9784,-1.01742 -2.1133,-1.99575 -3.4046,-2.93499 -1.2523,-0.97828 -2.5437,-1.83921 -3.8742,-2.58279 -1.3306,-0.74348 -2.6611,-1.33048 -3.9916,-1.761 -1.3306,-0.46954 -2.5241,-0.70434 -3.5807,-0.70439 -2.9741,5e-5 -5.7526,0.41095 -8.3353,1.23269 -2.5437,0.82185 -4.8721,1.93714 -6.9853,3.34589 -2.1132,1.40884 -4.0112,3.072 -5.6939,4.98948 -1.6436,1.87844 -3.0328,3.89379 -4.1677,6.04608 -1.0957,2.15236 -1.9371,4.38295 -2.5241,6.69177 -0.587,2.30889 -0.8805,4.55905 -0.8805,6.75048"
             style="font-variant:normal;font-stretch:normal;font-family:Short Stack;-inkscape-font-specification:Short Stack"
             id="path7151" />
          <path
             inkscape:connector-curvature="0"
             d="m 9785.1221,672.34811 c -0.078,-1.36965 -0.1369,-3.42414 -0.1761,-6.16348 -0.039,-2.77844 -0.059,-5.92866 -0.059,-9.45066 0,-3.5611 0.02,-7.35701 0.059,-11.38776 0.039,-4.06981 0.059,-8.08096 0.059,-12.03346 0,-3.9524 0,-7.68961 0,-11.21165 0,-3.56106 -0.02,-6.61345 -0.059,-9.15717 l -0.1761,-9.68546 c 0,-0.35213 0,-0.82173 0,-1.4088 0.039,-0.62605 0.059,-1.25218 0.059,-1.87839 0,-0.62605 0,-1.19348 0,-1.7023 0.039,-0.50865 0.059,-0.84128 0.059,-0.99789 0,-1.60438 0.3718,-2.85664 1.1153,-3.75679 0.7827,-0.89998 2.2502,-1.35001 4.4025,-1.35009 0.5087,8e-5 1.0762,0.0979 1.7023,0.2935 0.6261,0.15661 1.2131,0.39141 1.761,0.70439 0.5478,0.31315 0.9979,0.70448 1.3501,1.174 0.3913,0.43055 0.587,0.91971 0.587,1.46749 l 0.1174,5.57648 c 0.039,1.95674 0.039,3.81556 0,5.57648 -0.039,1.72193 -0.098,3.44379 -0.1761,5.16558 -0.039,1.68279 -0.098,3.40465 -0.1761,5.16558 -0.039,1.72192 -0.059,3.54161 -0.059,5.45908 2.348,-1.99573 5.0873,-3.61976 8.218,-4.87208 3.1306,-1.29133 6.7113,-1.93703 10.742,-1.93709 10.0181,6e-5 17.6099,2.52415 22.7755,7.57227 5.2047,5.04823 7.807,12.87486 7.8071,23.47991 -10e-5,4.14815 -0.6066,7.84623 -1.8197,11.09426 -1.174,3.20894 -2.7589,6.02653 -4.7547,8.45277 -1.9567,2.42627 -4.2068,4.50033 -6.7504,6.22218 -2.5437,1.68273 -5.1852,3.05239 -7.9245,4.10898 -2.7002,1.01747 -5.4004,1.761 -8.1006,2.23059 -2.6611,0.4696 -5.1069,0.7044 -7.3374,0.7044 -2.035,0 -4.1091,-0.19566 -6.2222,-0.587 -2.1132,-0.39133 -4.109,-0.91963 -5.9874,-1.58489 -0.5088,0.7044 -1.2132,1.27183 -2.1132,1.70229 -0.8609,0.43047 -1.8784,0.6457 -3.0524,0.6457 -1.0566,0 -1.9371,-0.2348 -2.6415,-0.7044 -0.7044,-0.43046 -1.2914,-0.99789 -1.761,-1.70229 -0.4696,-0.74353 -0.8218,-1.56532 -1.0566,-2.46539 -0.2348,-0.90006 -0.3717,-1.81969 -0.4109,-2.75889 m 11.8574,-4.05029 c 0.587,0.31308 1.3305,0.56745 2.2306,0.7631 0.9,0.19568 1.8588,0.35221 2.8763,0.4696 1.0174,0.11741 2.0544,0.19568 3.1111,0.2348 1.0957,0.0391 2.1131,0.0391 3.0524,0 2.0348,-0.0783 4.148,-0.37176 6.3395,-0.8805 2.1914,-0.50872 4.2851,-1.23268 6.2809,-2.17189 2.0349,-0.93918 3.9133,-2.09361 5.6352,-3.46329 1.7218,-1.40877 3.1306,-3.0328 4.2264,-4.87208 0.7434,-1.09571 1.3109,-2.3284 1.7023,-3.69809 0.4304,-1.36963 0.7434,-2.79799 0.9392,-4.28508 0.1956,-1.48703 0.313,-2.97409 0.3522,-4.46118 0.039,-1.52616 0.059,-2.97409 0.059,-4.34379 -0.1175,-2.85668 -0.8806,-5.26337 -2.2893,-7.22007 -1.3698,-1.95661 -3.0916,-3.54151 -5.1656,-4.75468 -2.035,-1.21308 -4.2851,-2.07401 -6.7505,-2.58279 -2.4263,-0.54781 -4.7351,-0.82175 -6.9266,-0.8218 -1.4088,5e-5 -2.935,0.19572 -4.5785,0.587 -1.6045,0.39138 -3.1699,0.93925 -4.696,1.64359 -1.5263,0.66532 -2.935,1.46755 -4.2264,2.40669 -1.2523,0.93925 -2.2306,1.95671 -2.935,3.05239 -0.1566,0.0783 -0.274,0.70444 -0.3522,1.87839 -0.039,1.17404 -0.059,2.64154 -0.059,4.40249 0,1.7219 0,3.61985 0,5.69388 0.039,2.07409 0.078,4.08944 0.1174,6.04608 0.039,1.95668 0.059,3.71767 0.059,5.28298 0.039,1.56534 0.059,2.68064 0.059,3.34588 0,1.21315 0.059,2.54368 0.1761,3.99159 0.1565,1.40881 0.4109,2.66107 0.7631,3.75678"
             style="font-variant:normal;font-stretch:normal;font-family:Short Stack;-inkscape-font-specification:Short Stack"
             id="path7153" />
          <path
             inkscape:connector-curvature="0"
             d="m 9874.8154,601.90837 c -0.6653,8e-5 -1.6241,-0.15646 -2.8763,-0.4696 -1.2132,-0.35212 -2.4263,-0.86085 -3.6394,-1.52619 -1.174,-0.66519 -2.211,-1.50655 -3.1111,-2.52409 -0.8609,-1.01738 -1.2914,-2.21094 -1.2914,-3.58069 0,-0.66518 0.137,-1.35001 0.4109,-2.05449 0.2739,-0.70431 0.6457,-1.35001 1.1153,-1.9371 0.5087,-0.5869 1.1153,-1.0565 1.8197,-1.40879 0.7044,-0.39124 1.4871,-0.58691 2.348,-0.587 0.7435,9e-5 1.6631,0.29359 2.7589,0.8805 1.1348,0.58709 2.211,1.35018 3.2285,2.28929 1.0174,0.90015 1.8979,1.91761 2.6415,3.05239 0.7435,1.09581 1.1152,2.17197 1.1153,3.22849 -1e-4,0.27401 -0.098,0.66534 -0.2935,1.17399 -0.1566,0.50881 -0.4305,1.01755 -0.8218,1.5262 -0.3523,0.50881 -0.8218,0.95884 -1.4088,1.35009 -0.5479,0.39141 -1.2132,0.58708 -1.9958,0.587 m -8.1593,72.84643 c -0.078,-0.31306 -0.1761,-0.91962 -0.2935,-1.81969 -0.078,-0.90006 -0.1761,-2.38712 -0.2935,-4.46119 -0.078,-2.07404 -0.1565,-4.87206 -0.2348,-8.39406 -0.039,-3.5611 -0.059,-8.13968 -0.059,-13.73575 0,-4.38288 0.2544,-8.86363 0.7631,-13.44225 0.5479,-4.61767 1.2131,-8.98102 1.9958,-13.09006 0.039,-0.35214 0.1761,-0.82173 0.4109,-1.40879 0.2739,-0.62607 0.6261,-1.23263 1.0566,-1.81969 0.4696,-0.62607 1.0174,-1.15437 1.6436,-1.5849 0.6261,-0.46953 1.3501,-0.70433 2.1719,-0.7044 0.8609,7e-5 1.5653,0.1566 2.1132,0.4696 0.5478,0.274 0.9587,0.6849 1.2327,1.2327 0.313,0.50879 0.5282,1.11536 0.6457,1.81969 0.1173,0.66533 0.176,1.36972 0.1761,2.11319 -10e-5,2.07412 -0.078,4.36341 -0.2348,6.86788 -0.1566,2.46544 -0.3327,4.98953 -0.5283,7.57227 -0.1566,2.5437 -0.3131,5.04822 -0.4696,7.51357 -0.1174,2.46543 -0.1761,4.69602 -0.1761,6.69178 0,1.76102 0.1174,3.75681 0.3522,5.98738 0.2739,2.23061 0.5674,4.5199 0.8805,6.86787 0.3521,2.34801 0.6456,4.65686 0.8805,6.92657 0.2739,2.2306 0.4108,4.26553 0.4109,6.10478 -1e-4,1.91753 -0.4892,3.40459 -1.4675,4.46119 -0.9784,1.01746 -2.0741,1.52619 -3.2872,1.52619 -2.348,0 -4.109,-0.43047 -5.283,-1.2914 -1.174,-0.82179 -1.9762,-2.28928 -2.4067,-4.40248"
             style="font-variant:normal;font-stretch:normal;font-family:Short Stack;-inkscape-font-specification:Short Stack"
             id="path7155" />
        </g>
        <g
           transform="matrix(0.70872904,0,0,0.70872904,9421.4497,33.929373)"
           id="layer1-2-3"
           inkscape:label="Capa 1"
           style="fill:#ffffff">
          <path
             inkscape:connector-curvature="0"
             id="path3886-3"
             d="m 369.31017,21.474893 c -0.5657,0 -1.1223,0 -1.6876,0.031 -18.0868,1.0603 -34.2121,18.6639 -35.625,46.1562 -2.0127,39.175797 -13.9135,128.063997 -19.3124,167.718797 L 257.40387,58.662093 a 7.1202884,7.1202884 0 0 0 -0.4375,-1.0937 c -10.116,-19.8686 -31.2438,-26.3587 -47.5312,-20.3125 -8.1437,3.023 -15.2195,9.2583 -18.7813,18 -3.5454,8.7012 -3.4925,19.5355 1.0313,31.3438 0.0209,0.055 0.0404,0.1013 0.0624,0.1562 l 59.9688,168.499997 c -1.3417,-1.1782 -2.7351,-2.378 -4.1562,-3.5625 -5.5138,-4.5956 -11.5095,-9.1157 -17.4688,-12.4063 -4.4695,-2.468 -8.9897,-4.6894 -13.9688,-4.7187 -1.6597,-0.01 -3.3834,0.2301 -5.1562,0.7813 -10.5151,3.2683 -17.6325,12.8776 -24,23.625 -6.3675,10.7473 -11.3716,23.0817 -13.9688,33.5 -5.311,21.3013 -0.8158,43.9976 4.625,60.4687 3.6428,19.7922 21.8056,33.227 39.4688,35.8437 2.467,0.3655 4.9767,0.5059 7.4688,0.375 -0.1082,3.0969 -0.2093,6.7474 -0.1876,10.9063 0.053,10.1541 0.4689,21.9225 3.5938,31 1.9449,5.6498 6.1031,9.5373 10.375,12.375 4.2719,2.8378 8.9051,4.8775 13.2188,6.8437 4.3136,1.9662 8.3166,3.8547 11.125,5.7813 2.4161,1.6576 3.6231,3.1421 4.3124,4.625 -2.0744,23.5578 1.0626,47.9062 1.0626,47.9063 a 7.1204133,7.1204133 0 1 0 14.125,-1.8126 c 0,0 -3.1178,-24.9767 -0.875,-46.8124 a 7.1202884,7.1202884 0 0 0 -0.3126,-2.9063 c -1.8509,-5.7495 -5.9734,-9.8159 -10.25,-12.75 -4.2767,-2.934 -8.9374,-5.02 -13.2812,-7 -4.3438,-1.9799 -8.3976,-3.8552 -11.25,-5.75 -2.8524,-1.8947 -4.2407,-3.5547 -4.7812,-5.125 -1.846,-5.3624 -2.7937,-16.9039 -2.8438,-26.4687 -0.0353,-6.7518 0.2168,-12.4706 0.375,-15.3438 1.2718,-0.8433 2.4912,-1.7987 3.625,-2.9062 6.8457,-6.687 9.8055,-17.4219 8.125,-31 a 7.1202884,7.1202884 0 0 0 -0.2188,-1 l -14.625,-54.0313 a 7.1220077,7.1220077 0 1 0 -13.75,3.7187 l 14.4376,53.25 c 1.2812,10.6688 -1.0079,16.0751 -3.9063,18.9063 -2.9175,2.85 -7.5336,4.0043 -13.4687,3.125 -11.87,-1.7584 -25.8649,-12.6799 -27.75,-25.0625 a 7.1202884,7.1202884 0 0 0 -0.2813,-1.1562 c -4.9125,-14.8722 -8.5829,-35.5605 -4.3437,-52.5626 2.1772,-8.7334 6.8329,-20.2806 12.4062,-29.6874 5.5733,-9.4069 12.6597,-16.243 16,-17.2813 -0.1639,0.051 3.3918,0.2679 8,2.8125 4.6082,2.5445 10.1062,6.6137 15.2188,10.875 10.2251,8.5225 18.9062,17.6876 18.9062,17.6875 a 7.1202884,7.1202884 0 0 0 12.1562,-2.9375 7.1202884,7.1202884 0 0 0 2.2188,-8.3125 L 205.12257,81.818393 a 7.1202884,7.1202884 0 0 0 -0.0624,-0.1875 c -3.5817,-9.2715 -3.2185,-16.0923 -1.2188,-21 1.9997,-4.9078 5.7687,-8.2518 10.5625,-10.0312 9.491,-3.5233 22.4354,-0.6042 29.625,13.0624 l 64.6563,206.687597 a 7.1202884,7.1202884 0 0 0 13.8437,-1.1563 c 0,0 21.0568,-149.5764 23.6875,-200.781297 1.1538,-22.4519 13.0454,-32.1478 22.25,-32.6874 4.6023,-0.2699 8.8586,1.3624 12.5625,5.9687 3.6653,4.5583 6.6153,12.4031 6.5937,24.2187 l -23.5,148.406297 a 7.1202884,7.1202884 0 0 0 -0.1562,0 c -5.5306,-0.2793 -10.6971,1.9963 -14.3125,5.25 -3.6154,3.2538 -6.0526,7.3162 -8.0313,11.5625 -3.9575,8.4925 -6.0748,18.1141 -7.8124,24.875 a 7.1202884,7.1202884 0 0 0 -0.0626,0.4062 c -7.3395,37.061 5.9744,75.1752 28.4063,98.1876 -15.8257,6.5994 -25.9126,19.4072 -31.6563,31.1874 -7.2271,14.8226 -8.625,28.75 -8.625,28.75 a 7.1202884,7.1202884 0 1 0 14.1563,1.5 c 0,0 1.2661,-11.663 7.2813,-24 6.0151,-12.3368 15.8939,-24.4408 34.2812,-27.1874 a 7.1202884,7.1202884 0 0 0 3.1875,-12.7813 c -22.8942,-16.9256 -40.2555,-56.4826 -33.0625,-92.875 l 0,-0.031 c 1.8046,-7.0425 3.8822,-15.7117 6.8125,-22 1.4895,-3.1964 3.184,-5.675 4.6563,-7 0.5571,1.6068 1.1284,3.1684 1.6874,4.75 l -0.4062,2.5313 a 7.1202884,7.1202884 0 0 0 0.5312,3.9687 l 16.8438,38.375 a 7.1202884,7.1202884 0 0 0 0.875,1.5 c 11.0767,26.6005 22.6869,51.4113 35.125,79.2188 6.9386,21.8382 16.3041,42.6224 14.7812,62.3125 -3.6238,46.8566 -49.3125,57.3125 -49.3124,57.3125 a 7.1202884,7.1202884 0 0 0 -5.4376,7.3438 l 1.7813,30.5 a 7.1219046,7.1219046 0 1 0 14.2187,-0.8438 l -1.4687,-25.1562 c 12.8775,-4.4824 50.7859,-21.2522 54.4063,-68.0626 1.1586,-14.9805 -2.374,-29.1366 -6.7813,-42.5624 a 7.1202884,7.1202884 0 0 0 0.4687,-2.0313 c 0,0 3.5953,-30.7207 7.5938,-73.0313 7.179,-75.9589 58.4155,-157.4356 75.8438,-210.812397 4.5222,-13.8508 4.8863,-24.6604 0.4062,-32.8126 -4.4801,-8.1521 -13.825,-11.4242 -22.4062,-10.625 -17.1622,1.5988 -35.8141,15.2498 -44.5,35.875 -13.7504,32.649697 -58.7941,144.469797 -69,169.812597 -3.028,-7.6889 -6.0105,-15.6267 -8.9688,-23.875 l 26.3438,-166.437597 a 7.1202884,7.1202884 0 0 0 0.0937,-1.0624 c 0.1029,-14.4238 -3.4509,-25.7288 -9.75,-33.5626 -5.9054,-7.3441 -14.3597,-11.2836 -22.8437,-11.3124 z m 131.6562,44.6562 c 3.7204,-0.089 5.5278,0.9236 6.875,3.375 1.5396,2.8015 2.4292,9.6882 -1.4375,21.5312 -16.1292,49.398597 -68.792,132.681697 -76.4687,213.906297 -1.7353,18.3614 -3.3371,33.855 -4.6563,46.25 -11.7906,-26.2676 -22.7566,-49.7212 -33.1563,-74.5313 3.4468,-8.5605 59.7796,-148.4139 74.4376,-183.218697 6.5486,-15.5502 22.869,-26.3042 32.6874,-27.2187 0.6137,-0.057 1.1873,-0.081 1.7188,-0.094 z"
             style="font-size:medium;font-style:normal;font-variant:normal;font-weight:normal;font-stretch:normal;text-indent:0;text-align:start;text-decoration:none;line-height:normal;letter-spacing:normal;word-spacing:normal;text-transform:none;direction:ltr;block-progression:tb;writing-mode:lr-tb;text-anchor:start;baseline-shift:baseline;color:#000000;fill:#ffffff;fill-opacity:1;stroke:none;stroke-width:14.23915291;marker:none;visibility:visible;display:inline;overflow:visible;enable-background:accumulate;font-family:Sans;-inkscape-font-specification:Sans" />
        </g>
        <g
           transform="matrix(0.71820204,0,0,0.71820204,9103.941,428.19202)"
           id="layer1-1-4"
           inkscape:label="Capa 1">
          <text
             sodipodi:linespacing="125%"
             id="text3197-8"
             y="535.85278"
             x="3592.4868"
             style="font-size:430.46691895px;font-style:normal;font-variant:normal;font-weight:bold;font-stretch:normal;text-align:start;line-height:125%;letter-spacing:0px;word-spacing:0px;writing-mode:lr-tb;text-anchor:start;fill:#ffffff;fill-opacity:1;stroke:none;font-family:Rudiment;-inkscape-font-specification:Rudiment Bold"
             xml:space="preserve"
             inkscape:export-filename="/home/david/work/pipo/textures/abeja.png"
             inkscape:export-xdpi="90"
             inkscape:export-ydpi="90"><tspan
               style="font-style:normal;font-weight:500;fill:#ffffff;-inkscape-font-specification:Rudiment Medium"
               y="535.85278"
               x="3592.4868"
               id="tspan3199-2"
               sodipodi:role="line" /></text>
          <g
             id="g3791">
            <path
               inkscape:connector-curvature="0"
               style="fill:none;stroke:#000000;stroke-width:9;stroke-miterlimit:4;stroke-dasharray:none"
               d="m 732.0186,393.22743 -15.9687,24.53125 -14.5938,15.09375 c -3.2424,1.50433 -5.8289,4.16429 -7.2187,7.46875 l -51.2188,52.9375 12.25,11.0625 63.8438,-17.8125 -6.0313,42.34375 -24.4375,3.375 4.4688,26.9375 16.0937,-3.15625 -3.7187,26 c 0,0 -13.826,2.59271 -21.0625,26.90625 -5.1919,17.4439 8.8437,42.53125 8.8437,42.53125 l -17.9687,0 c -7.2598,0 -5.0625,10.3125 -5.0625,10.3125 l 53.0937,0 0.031,0 18.2813,0 184.5,0 -103.8125,-19.15625 -46.75,-212.5625 0,-28.84375 -20.875,18.40625 -17.7813,-1.84375 -4.9062,-24.53125 z m -20.6875,147.84375 -0.2812,2 -0.4375,-1.875 0.7187,-0.125 z"
               id="path4010" />
            <path
               inkscape:connector-curvature="0"
               id="path3890"
               d="m 719.5939,504.8539 8.0772,21.98794 -39.0399,5.38481 4.4874,26.92401 20.6417,-4.0386 -3.1411,-13.91074 39.4885,-6.28227 -12.1158,-30.96261"
               style="fill:url(#linearGradient10602);fill-opacity:1;stroke:none" />
            <path
               style="fill:#917c6f;stroke:none"
               d="m 643.0048,493.26421 73.042,-75.4972 15.9587,-24.55193 4.9104,24.55193 17.8002,1.8414 20.8691,-18.41395 0,28.84852 46.7358,212.56328 103.8283,19.14559 -255.9033,0 c 0,0 -2.2038,-10.30713 5.056,-10.30713 l 17.9614,0 c 0,0 -14.0451,-25.07203 -8.8532,-42.51593 7.2365,-24.31354 21.0772,-26.92391 21.0772,-26.92391 l 13.6284,-95.49246 -63.8351,17.80017 z"
               id="path3096"
               inkscape:connector-curvature="0"
               sodipodi:nodetypes="ccccccccccscscccc" />
            <path
               inkscape:export-ydpi="90"
               inkscape:export-xdpi="90"
               inkscape:export-filename="/home/david/work/pipo/textures/abeja.png"
               transform="matrix(0.23350162,0,0,0.23350162,826.6113,221.16615)"
               d="m -448.50774,962.45862 c 0,34.0314 -27.5879,61.61928 -61.6193,61.61928 -34.03141,0 -61.61931,-27.58788 -61.61931,-61.61928 0,-34.0314 27.5879,-61.61931 61.61931,-61.61931 34.0314,0 61.6193,27.58791 61.6193,61.61931 z"
               sodipodi:ry="61.619305"
               sodipodi:rx="61.619305"
               sodipodi:cy="962.45862"
               sodipodi:cx="-510.12704"
               id="path3074-2"
               style="fill:#ffffff;fill-opacity:1;stroke:none"
               sodipodi:type="arc" />
            <path
               inkscape:export-ydpi="90"
               inkscape:export-xdpi="90"
               inkscape:export-filename="/home/david/work/pipo/textures/abeja.png"
               transform="matrix(0.23695671,0,0,0.23695671,819.7164,215.95851)"
               d="m -270.72089,972.56012 c 0,35.14718 -28.49243,63.63958 -63.63961,63.63958 -35.14719,0 -63.63961,-28.4924 -63.63961,-63.63958 0,-35.14719 28.49242,-63.63961 63.63961,-63.63961 35.14718,0 63.63961,28.49242 63.63961,63.63961 z"
               sodipodi:ry="63.63961"
               sodipodi:rx="63.63961"
               sodipodi:cy="972.56012"
               sodipodi:cx="-334.3605"
               id="path3078-9"
               style="fill:#ffffff;fill-opacity:1;stroke:none"
               sodipodi:type="arc" />
            <path
               inkscape:export-ydpi="90"
               inkscape:export-xdpi="90"
               inkscape:export-filename="/home/david/work/pipo/textures/abeja.png"
               transform="matrix(0.1404152,0,0,0.1404152,784.3296,312.20225)"
               sodipodi:type="arc"
               style="fill:#000000;fill-opacity:1;stroke:none"
               id="path3080"
               sodipodi:cx="-510.12704"
               sodipodi:cy="962.45862"
               sodipodi:rx="61.619305"
               sodipodi:ry="61.619305"
               d="m -448.50774,962.45862 c 0,34.0314 -27.5879,61.61928 -61.6193,61.61928 -34.03141,0 -61.61931,-27.58788 -61.61931,-61.61928 0,-34.0314 27.5879,-61.61931 61.61931,-61.61931 34.0314,0 61.6193,27.58791 61.6193,61.61931 z" />
            <path
               inkscape:export-ydpi="90"
               inkscape:export-xdpi="90"
               inkscape:export-filename="/home/david/work/pipo/textures/abeja.png"
               sodipodi:type="arc"
               style="fill:#000000;fill-opacity:1;stroke:none"
               id="path3082"
               sodipodi:cx="-334.3605"
               sodipodi:cy="972.56012"
               sodipodi:rx="63.63961"
               sodipodi:ry="63.63961"
               d="m -270.72089,972.56012 c 0,35.14718 -28.49243,63.63958 -63.63961,63.63958 -35.14719,0 -63.63961,-28.4924 -63.63961,-63.63958 0,-35.14719 28.49242,-63.63961 63.63961,-63.63961 35.14718,0 63.63961,28.49242 63.63961,63.63961 z"
               transform="matrix(0.1404152,0,0,0.1404152,781.7113,310.88675)" />
            <path
               style="fill:#e3dedb;stroke:none"
               d="m 721.7321,486.09778 -13.6394,96.7142 c -7.8681,33.86411 25.9185,50.06934 34.018,56.92807 L 758.0783,582.11774 735.084,481.23446 z"
               id="path3991-8"
               inkscape:connector-curvature="0"
               sodipodi:nodetypes="cccccc" />
            <path
               style="fill:#000000;stroke:none"
               d="m 711.1014,580.56778 36.7962,-1.79493 c 0,0 -8.0243,3.30153 -20.3053,3.70205 -10.9207,0.35617 -16.4909,-1.90712 -16.4909,-1.90712 z"
               id="path3100-3"
               inkscape:connector-curvature="0"
               sodipodi:nodetypes="ccsc" />
            <path
               inkscape:connector-curvature="0"
               id="path3901"
               d="m 509.06863,-324.59784 8.8363,24.05435 -42.70875,5.89087 4.90905,29.4543 22.58164,-4.41814 -3.43634,-15.21806 43.19965,-6.87267 -13.25444,-33.87246"
               style="fill:url(#linearGradient10604);fill-opacity:1;stroke:none;filter:url(#filter3967)"
               transform="matrix(0.9140942,0,0,0.9140942,288.8431,807.27833)" />
            <path
               style="fill:#917c6f;fill-opacity:1;stroke:none"
               d="m 752.5933,508.97884 8.0772,21.98794 -39.0398,5.38481 4.4873,26.92401 20.6418,-4.0386 -3.1412,-13.91074 39.4886,-6.28227 -12.1158,-30.96262"
               id="path3102-0"
               inkscape:connector-curvature="0" />
            <path
               sodipodi:type="arc"
               style="fill:#000000;fill-opacity:1;stroke:none"
               id="path3104-1"
               sodipodi:cx="397.28152"
               sodipodi:cy="-325.88712"
               sodipodi:rx="1.909173"
               sodipodi:ry="1.909173"
               d="m 399.1907,-325.88712 c 0,1.05441 -0.85477,1.90918 -1.90918,1.90918 -1.0544,0 -1.90917,-0.85477 -1.90917,-1.90918 0,-1.0544 0.85477,-1.90917 1.90917,-1.90917 1.05441,0 1.90918,0.85477 1.90918,1.90917 z"
               transform="matrix(0.9140942,0,0,0.9140942,285.9081,791.01663)" />
            <path
               d="m 399.1907,-325.88712 c 0,1.05441 -0.85477,1.90918 -1.90918,1.90918 -1.0544,0 -1.90917,-0.85477 -1.90917,-1.90918 0,-1.0544 0.85477,-1.90917 1.90917,-1.90917 1.05441,0 1.90918,0.85477 1.90918,1.90917 z"
               sodipodi:ry="1.909173"
               sodipodi:rx="1.909173"
               sodipodi:cy="-325.88712"
               sodipodi:cx="397.28152"
               id="path3874"
               style="fill:#000000;fill-opacity:1;stroke:none"
               sodipodi:type="arc"
               transform="matrix(0.9140942,0,0,0.9140942,294.3166,791.01663)" />
            <path
               sodipodi:nodetypes="cc"
               inkscape:connector-curvature="0"
               id="path3892"
               d="m 696.9328,541.65005 3.1411,16.60314"
               style="fill:#917c6f;fill-opacity:1;stroke:#000000;stroke-width:1.71399999;stroke-linecap:butt;stroke-linejoin:miter;stroke-miterlimit:4;stroke-opacity:1;stroke-dasharray:none" />
            <path
               sodipodi:nodetypes="cc"
               inkscape:connector-curvature="0"
               id="path3894"
               d="m 702.7663,540.52822 3.3655,15.93004"
               style="fill:#917c6f;fill-opacity:1;stroke:#000000;stroke-width:1.71399999;stroke-linecap:butt;stroke-linejoin:miter;stroke-miterlimit:4;stroke-opacity:1;stroke-dasharray:none" />
            <path
               style="fill:#917c6f;fill-opacity:1;stroke:#000000;stroke-width:1.71399999;stroke-linecap:butt;stroke-linejoin:miter;stroke-miterlimit:4;stroke-opacity:1;stroke-dasharray:none"
               d="m 723.3294,661.78855 c 0,0 -1.9563,-10.28133 4.4873,-10.32086 l 18.2859,-0.11219 c 0,0 -12.9196,-28.4284 -9.4234,-42.5175 10.3513,-41.71353 56.0917,-27.82148 56.0917,-27.82148"
               id="path3098-4"
               inkscape:connector-curvature="0"
               sodipodi:nodetypes="cscsc" />
            <path
               style="fill:none;stroke:#000000;stroke-width:1.71399999;stroke-linecap:butt;stroke-linejoin:miter;stroke-miterlimit:4;stroke-opacity:1;stroke-dasharray:none"
               d="m 660.3945,501.14194 c 58.1194,-13.48248 104.4736,-31.72109 106.7986,-67.75876"
               id="path3876-2"
               inkscape:connector-curvature="0"
               sodipodi:nodetypes="cc" />
            <path
               style="fill:none;stroke:#000000;stroke-width:1.71399999;stroke-linecap:butt;stroke-linejoin:miter;stroke-miterlimit:4;stroke-opacity:1;stroke-dasharray:none"
               d="m 729.9323,545.77499 3.1411,16.60314"
               id="path3878"
               inkscape:connector-curvature="0"
               sodipodi:nodetypes="cc" />
            <path
               style="fill:none;stroke:#000000;stroke-width:1.71399999;stroke-linecap:butt;stroke-linejoin:miter;stroke-miterlimit:4;stroke-opacity:1;stroke-dasharray:none"
               d="m 735.7658,544.65315 3.3655,15.93004"
               id="path3880"
               inkscape:connector-curvature="0"
               sodipodi:nodetypes="cc" />
            <path
               style="fill:none;stroke:#000000;stroke-width:1.71399999;stroke-linecap:butt;stroke-linejoin:miter;stroke-miterlimit:4;stroke-opacity:1;stroke-dasharray:none"
               d="m 679.9185,655.34597 0,6.50471"
               id="path3882"
               inkscape:connector-curvature="0" />
            <path
               inkscape:connector-curvature="0"
               id="path3884"
               d="m 687.0578,655.34597 0,6.50471"
               style="fill:none;stroke:#000000;stroke-width:1.71399999;stroke-linecap:butt;stroke-linejoin:miter;stroke-miterlimit:4;stroke-opacity:1;stroke-dasharray:none" />
            <path
               inkscape:connector-curvature="0"
               id="path3886-8"
               d="m 734.4945,655.34597 0,6.50471"
               style="fill:none;stroke:#000000;stroke-width:1.71399999;stroke-linecap:butt;stroke-linejoin:miter;stroke-miterlimit:4;stroke-opacity:1;stroke-dasharray:none" />
            <path
               style="fill:none;stroke:#000000;stroke-width:1.71399999;stroke-linecap:butt;stroke-linejoin:miter;stroke-miterlimit:4;stroke-opacity:1;stroke-dasharray:none"
               d="m 741.6338,655.34597 0,6.50471"
               id="path3888"
               inkscape:connector-curvature="0" />
          </g>
        </g>
      </g>
      <rect
         y="16.503397"
         x="-15171.796"
         height="1027.4425"
         width="1023.3555"
         id="rect5661"
         style="fill:none;stroke:none" />
    </g>
  </g>
</svg>
