<?xml version="1.0" encoding="UTF-8" standalone="no"?>
<!-- Created with Inkscape (http://www.inkscape.org/) -->

<svg
   xmlns:dc="http://purl.org/dc/elements/1.1/"
   xmlns:cc="http://creativecommons.org/ns#"
   xmlns:rdf="http://www.w3.org/1999/02/22-rdf-syntax-ns#"
   xmlns:svg="http://www.w3.org/2000/svg"
   xmlns="http://www.w3.org/2000/svg"
   xmlns:xlink="http://www.w3.org/1999/xlink"
   xmlns:sodipodi="http://sodipodi.sourceforge.net/DTD/sodipodi-0.dtd"
   xmlns:inkscape="http://www.inkscape.org/namespaces/inkscape"
   width="1351.74"
   height="1351.7388"
   id="svg2"
   version="1.1"
   inkscape:version="0.48.3.1 r9886"
   sodipodi:docname="x.svg">
  <defs
     id="defs4">
    <linearGradient
       id="linearGradient3265-7"
       inkscape:collect="always">
      <stop
         id="stop3267-6"
         offset="0"
         style="stop-color:#a0692f;stop-opacity:1;" />
      <stop
         id="stop3269-0"
         offset="1"
         style="stop-color:#a0692f;stop-opacity:0;" />
    </linearGradient>
    <linearGradient
       inkscape:collect="always"
       xlink:href="#linearGradient3265-7"
       id="linearGradient4849"
       gradientUnits="userSpaceOnUse"
       gradientTransform="matrix(1.9601035,0,0,1.9601035,-1268.7026,1291.2843)"
       x1="1128.5424"
       y1="-358.21252"
       x2="1128.5"
       y2="-350.88782" />
    <linearGradient
       inkscape:collect="always"
       xlink:href="#linearGradient3265-7"
       id="linearGradient4855"
       gradientUnits="userSpaceOnUse"
       gradientTransform="matrix(-1.9601035,0,0,1.9601035,3084.4205,1291.2843)"
       x1="1128.5424"
       y1="-358.21252"
       x2="1128.5"
       y2="-350.88782" />
    <linearGradient
       id="linearGradient3265-7-8"
       inkscape:collect="always">
      <stop
         id="stop3267-6-3"
         offset="0"
         style="stop-color:#a0692f;stop-opacity:1;" />
      <stop
         id="stop3269-0-6"
         offset="1"
         style="stop-color:#a0692f;stop-opacity:0;" />
    </linearGradient>
    <linearGradient
       y2="-435.80673"
       x2="919.21014"
       y1="-434.2847"
       x1="987.61987"
       gradientTransform="matrix(0.64156397,0,0,0.64156397,-240.46334,1048.4872)"
       gradientUnits="userSpaceOnUse"
       id="linearGradient3738"
       xlink:href="#linearGradient4094-1"
       inkscape:collect="always" />
    <linearGradient
       id="linearGradient4094-1">
      <stop
         id="stop4096-9"
         offset="0"
         style="stop-color:#52676c;stop-opacity:1;" />
      <stop
         id="stop4098-2"
         offset="1"
         style="stop-color:#52676c;stop-opacity:0;" />
    </linearGradient>
    <linearGradient
       id="linearGradient3310"
       inkscape:collect="always">
      <stop
         id="stop3312"
         offset="0"
         style="stop-color:#0b2228;stop-opacity:1;" />
      <stop
         id="stop3314"
         offset="1"
         style="stop-color:#0b2228;stop-opacity:0;" />
    </linearGradient>
    <linearGradient
       id="linearGradient4122-9"
       inkscape:collect="always">
      <stop
         id="stop4124-7"
         offset="0"
         style="stop-color:#1c2224;stop-opacity:1;" />
      <stop
         id="stop4126-6"
         offset="1"
         style="stop-color:#1c2224;stop-opacity:0" />
    </linearGradient>
    <linearGradient
       inkscape:collect="always"
       xlink:href="#linearGradient3310"
       id="linearGradient6795"
       gradientUnits="userSpaceOnUse"
       x1="1748.3407"
       y1="-227.81718"
       x2="1759.3722"
       y2="-149.25218" />
    <linearGradient
       inkscape:collect="always"
       xlink:href="#linearGradient4122-9"
       id="linearGradient6814"
       gradientUnits="userSpaceOnUse"
       gradientTransform="matrix(0.76362355,0,0,0.76362355,-529.2141,788.2198)"
       x1="1627.4237"
       y1="-275.98389"
       x2="1568.8258"
       y2="-208.25383" />
    <linearGradient
       inkscape:collect="always"
       id="linearGradient4871">
      <stop
         style="stop-color:#241c1f;stop-opacity:0.37777778"
         offset="0"
         id="stop4873" />
      <stop
         style="stop-color:#241c1f;stop-opacity:0;"
         offset="1"
         id="stop4875" />
    </linearGradient>
    <radialGradient
       inkscape:collect="always"
       xlink:href="#linearGradient4871"
       id="radialGradient4631"
       gradientUnits="userSpaceOnUse"
       gradientTransform="matrix(1.6682146,1.6471163,-0.88417937,0.89550496,-1046.6412,-1706.4218)"
       cx="1014.4006"
       cy="-408.6366"
       fx="1014.4006"
       fy="-408.6366"
       r="120.84957" />
    <linearGradient
       y2="-341.95212"
       x2="1033.103"
       y1="-312.79977"
       x1="1033.9359"
       gradientUnits="userSpaceOnUse"
       id="linearGradient4392"
       xlink:href="#linearGradient3219"
       inkscape:collect="always" />
    <linearGradient
       y2="-341.95212"
       x2="1033.103"
       y1="-312.79977"
       x1="1033.9359"
       gradientUnits="userSpaceOnUse"
       id="linearGradient4390"
       xlink:href="#linearGradient3209"
       inkscape:collect="always" />
    <linearGradient
       inkscape:collect="always"
       id="linearGradient3219">
      <stop
         style="stop-color:#3e4837;stop-opacity:1"
         offset="0"
         id="stop3221" />
      <stop
         style="stop-color:#e5ffd5;stop-opacity:0;"
         offset="1"
         id="stop3223" />
    </linearGradient>
    <linearGradient
       id="linearGradient3209"
       inkscape:collect="always">
      <stop
         id="stop3211"
         offset="0"
         style="stop-color:#3e4837;stop-opacity:1" />
      <stop
         id="stop3213"
         offset="1"
         style="stop-color:#e5ffd5;stop-opacity:0;" />
    </linearGradient>
    <linearGradient
       y2="-299.90375"
       x2="1731.0365"
       y1="-347.02103"
       x1="1621.358"
       gradientTransform="matrix(1.3519879,0,0,1.3519879,-2458.2999,1401.0995)"
       gradientUnits="userSpaceOnUse"
       id="linearGradient4525"
       xlink:href="#linearGradient4136"
       inkscape:collect="always" />
    <linearGradient
       id="linearGradient4136"
       inkscape:collect="always">
      <stop
         id="stop4138"
         offset="0"
         style="stop-color:#000000;stop-opacity:1" />
      <stop
         id="stop4140"
         offset="1"
         style="stop-color:#2b1100;stop-opacity:0;" />
    </linearGradient>
    <linearGradient
       id="linearGradient3449"
       inkscape:collect="always">
      <stop
         id="stop3451"
         offset="0"
         style="stop-color:#000000;stop-opacity:1;" />
      <stop
         id="stop3453"
         offset="1"
         style="stop-color:#000000;stop-opacity:0;" />
    </linearGradient>
    <linearGradient
       id="linearGradient4233"
       inkscape:collect="always">
      <stop
         id="stop4235"
         offset="0"
         style="stop-color:#000000;stop-opacity:1;" />
      <stop
         id="stop4237"
         offset="1"
         style="stop-color:#000000;stop-opacity:0;" />
    </linearGradient>
    <linearGradient
       id="linearGradient4283"
       inkscape:collect="always">
      <stop
         id="stop4285"
         offset="0"
         style="stop-color:#2b1100;stop-opacity:1;" />
      <stop
         id="stop4287"
         offset="1"
         style="stop-color:#2b1100;stop-opacity:0;" />
    </linearGradient>
    <linearGradient
       inkscape:collect="always"
       xlink:href="#linearGradient4283"
       id="linearGradient6031"
       gradientUnits="userSpaceOnUse"
       gradientTransform="translate(-2538.9898,1459.867)"
       x1="503.56857"
       y1="-348.85837"
       x2="512.40308"
       y2="-335.29108" />
    <linearGradient
       inkscape:collect="always"
       xlink:href="#linearGradient3449"
       id="linearGradient6033"
       gradientUnits="userSpaceOnUse"
       gradientTransform="translate(-2538.9898,1459.867)"
       x1="535.43597"
       y1="-304.05469"
       x2="522.1842"
       y2="-302.79257" />
    <linearGradient
       inkscape:collect="always"
       xlink:href="#linearGradient4233"
       id="linearGradient6035"
       gradientUnits="userSpaceOnUse"
       gradientTransform="translate(-2538.9898,1459.867)"
       x1="492.84091"
       y1="-285.43903"
       x2="581.34399"
       y2="-291.27615" />
    <linearGradient
       id="linearGradient4817"
       inkscape:collect="always">
      <stop
         id="stop4819"
         offset="0"
         style="stop-color:#917c6f;stop-opacity:1;" />
      <stop
         id="stop4821"
         offset="1"
         style="stop-color:#2b1100;stop-opacity:1" />
    </linearGradient>
    <linearGradient
       inkscape:collect="always"
       id="linearGradient5172">
      <stop
         style="stop-color:#502d16;stop-opacity:1;"
         offset="0"
         id="stop5174" />
      <stop
         style="stop-color:#917c6f;stop-opacity:1"
         offset="1"
         id="stop5176" />
    </linearGradient>
    <linearGradient
       id="linearGradient5181">
      <stop
         id="stop5183"
         offset="0"
         style="stop-color:#907b6e;stop-opacity:1" />
      <stop
         style="stop-color:#7a6356;stop-opacity:1;"
         offset="0.75249761"
         id="stop5191" />
      <stop
         style="stop-color:#644c3e;stop-opacity:1;"
         offset="0.812451"
         id="stop5189" />
      <stop
         id="stop5185"
         offset="1"
         style="stop-color:#381e0e;stop-opacity:1" />
    </linearGradient>
    <linearGradient
       inkscape:collect="always"
       id="linearGradient5193">
      <stop
         style="stop-color:#826c5f;stop-opacity:1"
         offset="0"
         id="stop5195" />
      <stop
         style="stop-color:#502d16;stop-opacity:1"
         offset="1"
         id="stop5197" />
    </linearGradient>
    <linearGradient
       inkscape:collect="always"
       xlink:href="#linearGradient4817"
       id="linearGradient5870"
       gradientUnits="userSpaceOnUse"
       gradientTransform="matrix(0.89679722,0,0,0.89679722,-2045.7805,1424)"
       x1="660.06604"
       y1="-501.25412"
       x2="616.52441"
       y2="-327.7186" />
    <linearGradient
       inkscape:collect="always"
       xlink:href="#linearGradient5181"
       id="linearGradient5872"
       gradientUnits="userSpaceOnUse"
       gradientTransform="translate(-1159.9752,1449.158)"
       x1="-276.65112"
       y1="-462.97198"
       x2="-282.89807"
       y2="-279.57907" />
    <linearGradient
       inkscape:collect="always"
       xlink:href="#linearGradient5172"
       id="linearGradient5874"
       gradientUnits="userSpaceOnUse"
       gradientTransform="matrix(0.89679722,0,0,0.89679722,-2045.7805,1424)"
       x1="533.96741"
       y1="-432.47049"
       x2="555.86011"
       y2="-240.41187" />
    <linearGradient
       inkscape:collect="always"
       xlink:href="#linearGradient4817"
       id="linearGradient5876"
       gradientUnits="userSpaceOnUse"
       gradientTransform="matrix(0.82173933,0,0,0.82173933,-2014.5348,1366.3891)"
       x1="626.62103"
       y1="-258.30438"
       x2="602.01056"
       y2="-402.81216" />
    <linearGradient
       inkscape:collect="always"
       xlink:href="#linearGradient5193"
       id="linearGradient5878"
       gradientUnits="userSpaceOnUse"
       gradientTransform="matrix(0.89679722,0,0,0.89679722,-2020.1702,1428.0016)"
       x1="564.45752"
       y1="-396.48645"
       x2="567.13477"
       y2="-318.39944" />
    <linearGradient
       id="linearGradient3338"
       inkscape:collect="always">
      <stop
         id="stop3340"
         offset="0"
         style="stop-color:#beb7c8;stop-opacity:1;" />
      <stop
         id="stop3342"
         offset="1"
         style="stop-color:#5d536c;stop-opacity:1" />
    </linearGradient>
    <linearGradient
       inkscape:collect="always"
       id="linearGradient3360">
      <stop
         style="stop-color:#474052;stop-opacity:1"
         offset="0"
         id="stop3362" />
      <stop
         style="stop-color:#5d536c;stop-opacity:1"
         offset="1"
         id="stop3364" />
    </linearGradient>
    <linearGradient
       inkscape:collect="always"
       id="linearGradient3380">
      <stop
         style="stop-color:#857c92;stop-opacity:1"
         offset="0"
         id="stop3382" />
      <stop
         style="stop-color:#5d536c;stop-opacity:1"
         offset="1"
         id="stop3384" />
    </linearGradient>
    <linearGradient
       id="linearGradient3394"
       inkscape:collect="always">
      <stop
         id="stop3396"
         offset="0"
         style="stop-color:#675d76;stop-opacity:1" />
      <stop
         id="stop3398"
         offset="1"
         style="stop-color:#5d536c;stop-opacity:1" />
    </linearGradient>
    <linearGradient
       inkscape:collect="always"
       xlink:href="#linearGradient3394"
       id="linearGradient5534"
       gradientUnits="userSpaceOnUse"
       gradientTransform="translate(-1035.7984,1460.497)"
       x1="548.9787"
       y1="-310.0397"
       x2="511.74536"
       y2="-309.25769" />
    <linearGradient
       inkscape:collect="always"
       xlink:href="#linearGradient3380"
       id="linearGradient5539"
       gradientUnits="userSpaceOnUse"
       gradientTransform="translate(-1104.5149,1460.497)"
       x1="549.00745"
       y1="-310.31183"
       x2="511.80453"
       y2="-309.47519" />
    <radialGradient
       inkscape:collect="always"
       xlink:href="#linearGradient3338"
       id="radialGradient5551"
       gradientUnits="userSpaceOnUse"
       gradientTransform="matrix(0.51554821,-0.84568081,1.1288979,0.68820444,-643.46887,1694.073)"
       cx="423.07739"
       cy="-187.4471"
       fx="423.07739"
       fy="-187.4471"
       r="166.84651" />
    <linearGradient
       inkscape:collect="always"
       xlink:href="#linearGradient3360"
       id="linearGradient5555"
       gradientUnits="userSpaceOnUse"
       gradientTransform="translate(-1124.2237,1458.7504)"
       x1="452.13895"
       y1="-403.7587"
       x2="425.63535"
       y2="-424.26743" />
    <linearGradient
       inkscape:collect="always"
       xlink:href="#linearGradient3360"
       id="linearGradient5558"
       gradientUnits="userSpaceOnUse"
       gradientTransform="translate(-1124.2237,1458.7504)"
       x1="452.13895"
       y1="-403.7587"
       x2="425.63535"
       y2="-424.26743" />
    <linearGradient
       id="linearGradient4274">
      <stop
         id="stop4276"
         offset="0"
         style="stop-color:#241c1c;stop-opacity:1" />
      <stop
         style="stop-color:#483737;stop-opacity:1;"
         offset="0.15879123"
         id="stop4286" />
      <stop
         style="stop-color:#544141;stop-opacity:1"
         offset="0.50204235"
         id="stop4282" />
      <stop
         id="stop4284"
         offset="0.75"
         style="stop-color:#483737;stop-opacity:1;" />
      <stop
         id="stop4278"
         offset="1"
         style="stop-color:#241c1c;stop-opacity:1" />
    </linearGradient>
    <linearGradient
       id="linearGradient4300"
       inkscape:collect="always">
      <stop
         id="stop4302"
         offset="0"
         style="stop-color:#513f3f;stop-opacity:1" />
      <stop
         id="stop4304"
         offset="1"
         style="stop-color:#916f6f;stop-opacity:1" />
    </linearGradient>
    <linearGradient
       id="linearGradient4338"
       inkscape:collect="always">
      <stop
         id="stop4340"
         offset="0"
         style="stop-color:#5a4545;stop-opacity:1" />
      <stop
         id="stop4342"
         offset="1"
         style="stop-color:#6c5353;stop-opacity:1" />
    </linearGradient>
    <linearGradient
       inkscape:collect="always"
       xlink:href="#linearGradient4338"
       id="linearGradient5824"
       gradientUnits="userSpaceOnUse"
       gradientTransform="matrix(1.1870923,0,0,1.1870923,557.10763,972.51967)"
       x1="506.36237"
       y1="-254.24303"
       x2="505.8338"
       y2="-219.35794" />
    <linearGradient
       inkscape:collect="always"
       xlink:href="#linearGradient4300"
       id="linearGradient5826"
       gradientUnits="userSpaceOnUse"
       gradientTransform="matrix(0.83444929,0,0,0.83444929,695.02334,866.91126)"
       x1="521.0072"
       y1="-422.45435"
       x2="521.0072"
       y2="-338.73444" />
    <linearGradient
       inkscape:collect="always"
       xlink:href="#linearGradient4274"
       id="linearGradient5828"
       gradientUnits="userSpaceOnUse"
       gradientTransform="matrix(0.83444929,0,0,0.83444929,741.18088,866.91126)"
       x1="536.79242"
       y1="-366.81332"
       x2="556.42566"
       y2="-324.86945" />
    <linearGradient
       y2="-301.63974"
       x2="535.34979"
       y1="-301.92004"
       x1="538.38654"
       gradientTransform="translate(-25.414983,34.384977)"
       gradientUnits="userSpaceOnUse"
       id="linearGradient5544"
       xlink:href="#linearGradient3146"
       inkscape:collect="always" />
    <linearGradient
       id="linearGradient3146"
       inkscape:collect="always">
      <stop
         id="stop3148"
         offset="0"
         style="stop-color:#1c1c24;stop-opacity:1;" />
      <stop
         id="stop3150"
         offset="1"
         style="stop-color:#1c1c24;stop-opacity:0;" />
    </linearGradient>
    <linearGradient
       y2="-254.24301"
       x2="132.40479"
       y1="-254.24301"
       x1="159.62572"
       gradientTransform="translate(-47.042016,6.3427437)"
       gradientUnits="userSpaceOnUse"
       id="linearGradient4078"
       xlink:href="#linearGradient3139"
       inkscape:collect="always" />
    <linearGradient
       y2="-408.62561"
       x2="159.96489"
       y1="-417.59561"
       x1="192.85487"
       gradientTransform="translate(-63.427437,6.3427437)"
       gradientUnits="userSpaceOnUse"
       id="linearGradient4076"
       xlink:href="#linearGradient3117"
       inkscape:collect="always" />
    <linearGradient
       y2="-408.62561"
       x2="159.96489"
       y1="-417.59561"
       x1="192.85487"
       gradientTransform="matrix(1.6191115,1.2420631,-1.2420631,1.6191115,-653.89128,220.57021)"
       gradientUnits="userSpaceOnUse"
       id="linearGradient4074"
       xlink:href="#linearGradient3117"
       inkscape:collect="always" />
    <linearGradient
       id="linearGradient3117"
       inkscape:collect="always">
      <stop
         id="stop3119"
         offset="0"
         style="stop-color:#aa4400;stop-opacity:1;" />
      <stop
         id="stop3121"
         offset="1"
         style="stop-color:#783000;stop-opacity:1" />
    </linearGradient>
    <linearGradient
       id="linearGradient3139"
       inkscape:collect="always">
      <stop
         id="stop3141"
         offset="0"
         style="stop-color:#2b1100;stop-opacity:1;" />
      <stop
         id="stop3143"
         offset="1"
         style="stop-color:#2b1100;stop-opacity:0;" />
    </linearGradient>
    <linearGradient
       id="linearGradient3911"
       inkscape:collect="always">
      <stop
         id="stop3913"
         offset="0"
         style="stop-color:#241c1c;stop-opacity:1" />
      <stop
         id="stop3915"
         offset="1"
         style="stop-color:#784421;stop-opacity:0;" />
    </linearGradient>
    <linearGradient
       id="linearGradient3971"
       inkscape:collect="always">
      <stop
         id="stop3973"
         offset="0"
         style="stop-color:#917c6f;stop-opacity:1;" />
      <stop
         id="stop3975"
         offset="1"
         style="stop-color:#28170b;stop-opacity:1" />
    </linearGradient>
    <linearGradient
       inkscape:collect="always"
       xlink:href="#linearGradient3911"
       id="linearGradient3762"
       gradientUnits="userSpaceOnUse"
       gradientTransform="translate(0,-16.661873)"
       x1="519.29504"
       y1="-260.8017"
       x2="508.18713"
       y2="-300.37363" />
    <linearGradient
       inkscape:collect="always"
       xlink:href="#linearGradient3971"
       id="linearGradient3786"
       gradientUnits="userSpaceOnUse"
       gradientTransform="matrix(0.9140942,0,0,0.9140942,290.747,786.33643)"
       x1="441.53964"
       y1="-273.2981"
       x2="511.65836"
       y2="-286.14163" />
    <linearGradient
       id="linearGradient3578"
       inkscape:collect="always">
      <stop
         id="stop3580"
         offset="0"
         style="stop-color:#1f1c24;stop-opacity:1;" />
      <stop
         id="stop3582"
         offset="1"
         style="stop-color:#1f1c24;stop-opacity:0;" />
    </linearGradient>
    <linearGradient
       id="linearGradient3604"
       inkscape:collect="always">
      <stop
         id="stop3606"
         offset="0"
         style="stop-color:#211e26;stop-opacity:1;" />
      <stop
         id="stop3608"
         offset="1"
         style="stop-color:#211e26;stop-opacity:0;" />
    </linearGradient>
    <linearGradient
       inkscape:collect="always"
       xlink:href="#linearGradient3578"
       id="linearGradient3958"
       gradientUnits="userSpaceOnUse"
       gradientTransform="matrix(1.1100531,0,0,1.1100531,2863.0486,903.46763)"
       x1="-1887.6512"
       y1="-315.29987"
       x2="-1887.4778"
       y2="-254.37988" />
    <linearGradient
       inkscape:collect="always"
       xlink:href="#linearGradient3604"
       id="linearGradient3967"
       gradientUnits="userSpaceOnUse"
       gradientTransform="matrix(1.1100531,0,0,1.1100531,2931.5428,903.46763)"
       x1="-1801.6218"
       y1="-327.32669"
       x2="-1798.4309"
       y2="-249.51823" />
    <linearGradient
       inkscape:collect="always"
       xlink:href="#linearGradient3265-7-8"
       id="linearGradient6694"
       gradientUnits="userSpaceOnUse"
       gradientTransform="matrix(-1.9601035,0,0,1.9601035,3084.4205,1291.2843)"
       x1="1128.5424"
       y1="-358.21252"
       x2="1128.5"
       y2="-350.88782" />
    <linearGradient
       inkscape:collect="always"
       xlink:href="#linearGradient3265-7-8"
       id="linearGradient6696"
       gradientUnits="userSpaceOnUse"
       gradientTransform="matrix(1.9601035,0,0,1.9601035,-1268.7026,1291.2843)"
       x1="1128.5424"
       y1="-358.21252"
       x2="1128.5"
       y2="-350.88782" />
    <linearGradient
       inkscape:collect="always"
       xlink:href="#linearGradient3265-7-8"
       id="linearGradient9421"
       gradientUnits="userSpaceOnUse"
       gradientTransform="matrix(-1.9601035,0,0,1.9601035,3084.4205,1291.2843)"
       x1="1128.5424"
       y1="-358.21252"
       x2="1128.5"
       y2="-350.88782" />
    <linearGradient
       inkscape:collect="always"
       xlink:href="#linearGradient3265-7-8"
       id="linearGradient9423"
       gradientUnits="userSpaceOnUse"
       gradientTransform="matrix(1.9601035,0,0,1.9601035,-1268.7026,1291.2843)"
       x1="1128.5424"
       y1="-358.21252"
       x2="1128.5"
       y2="-350.88782" />
    <linearGradient
       inkscape:collect="always"
       xlink:href="#linearGradient4094-1"
       id="linearGradient9425"
       gradientUnits="userSpaceOnUse"
       gradientTransform="matrix(0.64156397,0,0,0.64156397,-240.46334,1048.4872)"
       x1="987.61987"
       y1="-434.2847"
       x2="919.21014"
       y2="-435.80673" />
    <linearGradient
       inkscape:collect="always"
       xlink:href="#linearGradient4122-9"
       id="linearGradient9427"
       gradientUnits="userSpaceOnUse"
       gradientTransform="matrix(0.76362355,0,0,0.76362355,-529.2141,788.2198)"
       x1="1627.4237"
       y1="-275.98389"
       x2="1568.8258"
       y2="-208.25383" />
    <linearGradient
       inkscape:collect="always"
       xlink:href="#linearGradient3310"
       id="linearGradient9429"
       gradientUnits="userSpaceOnUse"
       x1="1748.3407"
       y1="-227.81718"
       x2="1759.3722"
       y2="-149.25218" />
    <radialGradient
       inkscape:collect="always"
       xlink:href="#linearGradient4871"
       id="radialGradient9431"
       gradientUnits="userSpaceOnUse"
       gradientTransform="matrix(1.6682146,1.6471163,-0.88417937,0.89550496,-1046.6412,-1706.4218)"
       cx="1014.4006"
       cy="-408.6366"
       fx="1014.4006"
       fy="-408.6366"
       r="120.84957" />
    <linearGradient
       inkscape:collect="always"
       xlink:href="#linearGradient3209"
       id="linearGradient9433"
       gradientUnits="userSpaceOnUse"
       x1="1033.9359"
       y1="-312.79977"
       x2="1033.103"
       y2="-341.95212" />
    <linearGradient
       inkscape:collect="always"
       xlink:href="#linearGradient3219"
       id="linearGradient9435"
       gradientUnits="userSpaceOnUse"
       x1="1033.9359"
       y1="-312.79977"
       x2="1033.103"
       y2="-341.95212" />
    <linearGradient
       inkscape:collect="always"
       xlink:href="#linearGradient4136"
       id="linearGradient9437"
       gradientUnits="userSpaceOnUse"
       gradientTransform="matrix(1.3519879,0,0,1.3519879,-2458.2999,1401.0995)"
       x1="1621.358"
       y1="-347.02103"
       x2="1731.0365"
       y2="-299.90375" />
    <linearGradient
       inkscape:collect="always"
       xlink:href="#linearGradient4283"
       id="linearGradient9439"
       gradientUnits="userSpaceOnUse"
       gradientTransform="translate(-2538.9898,1459.867)"
       x1="503.56857"
       y1="-348.85837"
       x2="512.40308"
       y2="-335.29108" />
    <linearGradient
       inkscape:collect="always"
       xlink:href="#linearGradient3449"
       id="linearGradient9441"
       gradientUnits="userSpaceOnUse"
       gradientTransform="translate(-2538.9898,1459.867)"
       x1="535.43597"
       y1="-304.05469"
       x2="522.1842"
       y2="-302.79257" />
    <linearGradient
       inkscape:collect="always"
       xlink:href="#linearGradient4233"
       id="linearGradient9443"
       gradientUnits="userSpaceOnUse"
       gradientTransform="translate(-2538.9898,1459.867)"
       x1="492.84091"
       y1="-285.43903"
       x2="581.34399"
       y2="-291.27615" />
    <linearGradient
       inkscape:collect="always"
       xlink:href="#linearGradient4817"
       id="linearGradient9445"
       gradientUnits="userSpaceOnUse"
       gradientTransform="matrix(0.89679722,0,0,0.89679722,-2045.7805,1424)"
       x1="660.06604"
       y1="-501.25412"
       x2="616.52441"
       y2="-327.7186" />
    <linearGradient
       inkscape:collect="always"
       xlink:href="#linearGradient5181"
       id="linearGradient9447"
       gradientUnits="userSpaceOnUse"
       gradientTransform="translate(-1159.9752,1449.158)"
       x1="-276.65112"
       y1="-462.97198"
       x2="-282.89807"
       y2="-279.57907" />
    <linearGradient
       inkscape:collect="always"
       xlink:href="#linearGradient5172"
       id="linearGradient9449"
       gradientUnits="userSpaceOnUse"
       gradientTransform="matrix(0.89679722,0,0,0.89679722,-2045.7805,1424)"
       x1="533.96741"
       y1="-432.47049"
       x2="555.86011"
       y2="-240.41187" />
    <linearGradient
       inkscape:collect="always"
       xlink:href="#linearGradient4817"
       id="linearGradient9451"
       gradientUnits="userSpaceOnUse"
       gradientTransform="matrix(0.82173933,0,0,0.82173933,-2014.5348,1366.3891)"
       x1="626.62103"
       y1="-258.30438"
       x2="602.01056"
       y2="-402.81216" />
    <linearGradient
       inkscape:collect="always"
       xlink:href="#linearGradient5193"
       id="linearGradient9453"
       gradientUnits="userSpaceOnUse"
       gradientTransform="matrix(0.89679722,0,0,0.89679722,-2020.1702,1428.0016)"
       x1="564.45752"
       y1="-396.48645"
       x2="567.13477"
       y2="-318.39944" />
    <linearGradient
       inkscape:collect="always"
       xlink:href="#linearGradient3360"
       id="linearGradient9455"
       gradientUnits="userSpaceOnUse"
       gradientTransform="translate(-1124.2237,1458.7504)"
       x1="452.13895"
       y1="-403.7587"
       x2="425.63535"
       y2="-424.26743" />
    <linearGradient
       inkscape:collect="always"
       xlink:href="#linearGradient3360"
       id="linearGradient9457"
       gradientUnits="userSpaceOnUse"
       gradientTransform="translate(-1124.2237,1458.7504)"
       x1="452.13895"
       y1="-403.7587"
       x2="425.63535"
       y2="-424.26743" />
    <radialGradient
       inkscape:collect="always"
       xlink:href="#linearGradient3338"
       id="radialGradient9459"
       gradientUnits="userSpaceOnUse"
       gradientTransform="matrix(0.51554821,-0.84568081,1.1288979,0.68820444,-643.46887,1694.073)"
       cx="423.07739"
       cy="-187.4471"
       fx="423.07739"
       fy="-187.4471"
       r="166.84651" />
    <linearGradient
       inkscape:collect="always"
       xlink:href="#linearGradient3380"
       id="linearGradient9461"
       gradientUnits="userSpaceOnUse"
       gradientTransform="translate(-1104.5149,1460.497)"
       x1="549.00745"
       y1="-310.31183"
       x2="511.80453"
       y2="-309.47519" />
    <linearGradient
       inkscape:collect="always"
       xlink:href="#linearGradient3394"
       id="linearGradient9463"
       gradientUnits="userSpaceOnUse"
       gradientTransform="translate(-1035.7984,1460.497)"
       x1="548.9787"
       y1="-310.0397"
       x2="511.74536"
       y2="-309.25769" />
    <linearGradient
       inkscape:collect="always"
       xlink:href="#linearGradient4338"
       id="linearGradient9465"
       gradientUnits="userSpaceOnUse"
       gradientTransform="matrix(1.1870923,0,0,1.1870923,557.10763,972.51967)"
       x1="506.36237"
       y1="-254.24303"
       x2="505.8338"
       y2="-219.35794" />
    <linearGradient
       inkscape:collect="always"
       xlink:href="#linearGradient4300"
       id="linearGradient9467"
       gradientUnits="userSpaceOnUse"
       gradientTransform="matrix(0.83444929,0,0,0.83444929,695.02334,866.91126)"
       x1="521.0072"
       y1="-422.45435"
       x2="521.0072"
       y2="-338.73444" />
    <linearGradient
       inkscape:collect="always"
       xlink:href="#linearGradient4274"
       id="linearGradient9469"
       gradientUnits="userSpaceOnUse"
       gradientTransform="matrix(0.83444929,0,0,0.83444929,741.18088,866.91126)"
       x1="536.79242"
       y1="-366.81332"
       x2="556.42566"
       y2="-324.86945" />
    <linearGradient
       inkscape:collect="always"
       xlink:href="#linearGradient3146"
       id="linearGradient9471"
       gradientUnits="userSpaceOnUse"
       gradientTransform="translate(-25.414983,34.384977)"
       x1="538.38654"
       y1="-301.92004"
       x2="535.34979"
       y2="-301.63974" />
    <linearGradient
       inkscape:collect="always"
       xlink:href="#linearGradient3117"
       id="linearGradient9473"
       gradientUnits="userSpaceOnUse"
       gradientTransform="matrix(1.6191115,1.2420631,-1.2420631,1.6191115,-653.89128,220.57021)"
       x1="192.85487"
       y1="-417.59561"
       x2="159.96489"
       y2="-408.62561" />
    <linearGradient
       inkscape:collect="always"
       xlink:href="#linearGradient3117"
       id="linearGradient9475"
       gradientUnits="userSpaceOnUse"
       gradientTransform="translate(-63.427437,6.3427437)"
       x1="192.85487"
       y1="-417.59561"
       x2="159.96489"
       y2="-408.62561" />
    <linearGradient
       inkscape:collect="always"
       xlink:href="#linearGradient3139"
       id="linearGradient9477"
       gradientUnits="userSpaceOnUse"
       gradientTransform="translate(-47.042016,6.3427437)"
       x1="159.62572"
       y1="-254.24301"
       x2="132.40479"
       y2="-254.24301" />
    <linearGradient
       inkscape:collect="always"
       xlink:href="#linearGradient3971"
       id="linearGradient9479"
       gradientUnits="userSpaceOnUse"
       gradientTransform="matrix(0.9140942,0,0,0.9140942,290.747,786.33643)"
       x1="441.53964"
       y1="-273.2981"
       x2="511.65836"
       y2="-286.14163" />
    <linearGradient
       inkscape:collect="always"
       xlink:href="#linearGradient3911"
       id="linearGradient9481"
       gradientUnits="userSpaceOnUse"
       gradientTransform="translate(0,-16.661873)"
       x1="519.29504"
       y1="-260.8017"
       x2="508.18713"
       y2="-300.37363" />
    <linearGradient
       inkscape:collect="always"
       xlink:href="#linearGradient3604"
       id="linearGradient9483"
       gradientUnits="userSpaceOnUse"
       gradientTransform="matrix(1.1100531,0,0,1.1100531,2931.5428,903.46763)"
       x1="-1801.6218"
       y1="-327.32669"
       x2="-1798.4309"
       y2="-249.51823" />
    <linearGradient
       inkscape:collect="always"
       xlink:href="#linearGradient3578"
       id="linearGradient9485"
       gradientUnits="userSpaceOnUse"
       gradientTransform="matrix(1.1100531,0,0,1.1100531,2863.0486,903.46763)"
       x1="-1887.6512"
       y1="-315.29987"
       x2="-1887.4778"
       y2="-254.37988" />
    <linearGradient
       inkscape:collect="always"
       xlink:href="#linearGradient3604"
       id="linearGradient10598"
       gradientUnits="userSpaceOnUse"
       gradientTransform="matrix(1.1100531,0,0,1.1100531,2931.5428,903.46763)"
       x1="-1801.6218"
       y1="-327.32669"
       x2="-1798.4309"
       y2="-249.51823" />
    <linearGradient
       inkscape:collect="always"
       xlink:href="#linearGradient3578"
       id="linearGradient10600"
       gradientUnits="userSpaceOnUse"
       gradientTransform="matrix(1.1100531,0,0,1.1100531,2863.0486,903.46763)"
       x1="-1887.6512"
       y1="-315.29987"
       x2="-1887.4778"
       y2="-254.37988" />
    <linearGradient
       inkscape:collect="always"
       xlink:href="#linearGradient3117"
       id="linearGradient10606"
       gradientUnits="userSpaceOnUse"
       gradientTransform="matrix(1.6191115,1.2420631,-1.2420631,1.6191115,-653.89128,220.57021)"
       x1="192.85487"
       y1="-417.59561"
       x2="159.96489"
       y2="-408.62561" />
    <linearGradient
       inkscape:collect="always"
       xlink:href="#linearGradient3117"
       id="linearGradient10608"
       gradientUnits="userSpaceOnUse"
       gradientTransform="translate(-63.427437,6.3427437)"
       x1="192.85487"
       y1="-417.59561"
       x2="159.96489"
       y2="-408.62561" />
    <linearGradient
       inkscape:collect="always"
       xlink:href="#linearGradient3139"
       id="linearGradient10610"
       gradientUnits="userSpaceOnUse"
       gradientTransform="translate(-47.042016,6.3427437)"
       x1="159.62572"
       y1="-254.24301"
       x2="132.40479"
       y2="-254.24301" />
  </defs>
  <sodipodi:namedview
     id="base"
     pagecolor="#ffffff"
     bordercolor="#666666"
     borderopacity="1.0"
     inkscape:pageopacity="0.0"
     inkscape:pageshadow="2"
     inkscape:zoom="0.15874582"
     inkscape:cx="3048.3677"
     inkscape:cy="1286.3766"
     inkscape:document-units="px"
     inkscape:current-layer="layer1"
     showgrid="false"
     fit-margin-top="0"
     fit-margin-left="0"
     fit-margin-right="0"
     fit-margin-bottom="0"
     inkscape:window-width="1920"
     inkscape:window-height="1017"
     inkscape:window-x="0"
     inkscape:window-y="28"
     inkscape:window-maximized="1"
     showguides="true"
     inkscape:guide-bbox="true"
     inkscape:snap-grids="false"
     inkscape:snap-to-guides="false">
    <sodipodi:guide
       orientation="0,1"
       position="371.87981,1115.6394"
       id="guide6622" />
    <sodipodi:guide
       orientation="0,1"
       position="73.848474,189.89608"
       id="guide6624" />
    <sodipodi:guide
       orientation="1,0"
       position="363.96748,1521.806"
       id="guide6626" />
    <sodipodi:guide
       orientation="1,0"
       position="862.44468,1442.6827"
       id="guide6628" />
  </sodipodi:namedview>
  <metadata
     id="metadata7">
    <rdf:RDF>
      <cc:Work
         rdf:about="">
        <dc:format>image/svg+xml</dc:format>
        <dc:type
           rdf:resource="http://purl.org/dc/dcmitype/StillImage" />
        <dc:title></dc:title>
      </cc:Work>
    </rdf:RDF>
  </metadata>
  <g
     inkscape:label="Capa 1"
     inkscape:groupmode="layer"
     id="layer1"
     transform="translate(15278.44,186.36436)">
    <rect
       style="opacity:0.8;fill:#000000;fill-opacity:1;stroke:none"
       id="rect6564"
       width="23217.738"
       height="1351.7388"
       x="-15278.44"
       y="-186.36436" />
    <g
       id="g8079">
      <g
         transform="translate(-2828.077,-14.34887)"
         id="g8292">
        <g
           style="font-size:204.73330688px;font-style:normal;font-variant:normal;font-weight:normal;font-stretch:normal;line-height:125%;letter-spacing:0px;word-spacing:0px;fill:#ffffff;fill-opacity:1;stroke:none;font-family:Short Stack;-inkscape-font-specification:Short Stack"
           id="text3044-25">
          <path
             inkscape:connector-curvature="0"
             d="m -11929.041,560.00627 c 0,-1.9327 0.5,-4.56518 1.499,-7.89743 1.067,-3.39888 2.4,-6.9977 3.999,-10.79648 1.6,-3.86539 3.332,-7.73079 5.198,-11.59622 1.866,-3.86538 3.633,-7.23094 5.299,-10.09671 1.133,-1.86602 2.132,-3.59879 2.999,-5.19831 0.866,-1.59943 1.299,-2.86569 1.299,-3.79876 0,-1.13292 -0.3,-2.39917 -0.899,-3.79877 -0.534,-1.39949 -1.067,-2.53245 -1.6,-3.39889 -1,-1.66607 -2.732,-4.16525 -5.198,-7.49756 -2.399,-3.33218 -5.165,-7.13094 -8.298,-11.39628 -3.065,-4.2652 -6.264,-8.76373 -9.596,-13.49561 -3.333,-4.79834 -6.398,-9.43016 -9.197,-13.89547 -2.733,-4.46511 -4.999,-8.56377 -6.798,-12.29599 -1.733,-3.79865 -2.599,-6.83099 -2.599,-9.09704 0,-0.99955 0.2,-1.93258 0.599,-2.79909 0.467,-0.9329 1.033,-1.73264 1.7,-2.39922 0.733,-0.73296 1.566,-1.29945 2.499,-1.69944 0.933,-0.39974 1.866,-0.59968 2.799,-0.59981 1.866,1.3e-4 3.332,0.30003 4.399,0.89971 1.066,0.53329 2.166,1.73289 3.299,3.59883 0.733,1.26637 2.066,3.39901 3.998,6.39791 1.933,2.9325 4.166,6.33138 6.698,10.19668 2.533,3.79887 5.232,7.86421 8.098,12.19603 2.932,4.33201 5.764,8.49732 8.497,12.49593 2.799,3.93213 5.331,7.49763 7.597,10.69651 2.333,3.13238 4.199,5.46496 5.598,6.99772 0.334,-0.46645 0.734,-1.03293 1.2,-1.69944 0.533,-0.73303 1.033,-1.46612 1.5,-2.19929 0.466,-0.73302 0.899,-1.39947 1.299,-1.99935 0.4,-0.59973 0.7,-1.06624 0.9,-1.39954 2.466,-4.2652 5.131,-8.99699 7.997,-14.19538 2.866,-5.19821 5.765,-10.32987 8.697,-15.39498 2.933,-5.13155 5.798,-9.92999 8.598,-14.39531 2.799,-4.46509 5.364,-8.13056 7.697,-10.99642 1.133,-1.39941 2.166,-2.66567 3.099,-3.79876 1,-1.13283 1.966,-2.09918 2.899,-2.89906 1,-0.7996 2.033,-1.39941 3.099,-1.79941 1.066,-0.46638 2.266,-0.69964 3.599,-0.69977 1.933,1.3e-4 3.532,0.69991 4.798,2.09931 1.267,1.33304 1.9,2.93251 1.9,4.79844 0,0.33335 -0.1,0.73322 -0.3,1.19961 -0.133,0.4 -0.533,1.23306 -1.2,2.49918 -0.666,1.26638 -1.666,3.0658 -2.999,5.39825 -1.266,2.26604 -3.032,5.39835 -5.298,9.39693 -3.066,5.19842 -6.365,10.86323 -9.897,16.99447 -3.465,6.06478 -7.031,12.39604 -10.696,18.99381 -3.666,6.59792 -7.331,13.36238 -10.997,20.29339 -3.665,6.86448 -7.197,13.69558 -10.596,20.49332 -3.399,6.79782 -6.598,13.49563 -9.597,20.09346 -2.999,6.53121 -5.632,12.72919 -7.898,18.59394 -0.2,0.53316 -0.533,1.26625 -0.999,2.19929 -0.467,0.93302 -1.033,1.83272 -1.7,2.69912 -0.666,0.93302 -1.433,1.73276 -2.299,2.39921 -0.866,0.66644 -1.766,0.99967 -2.699,0.99968 -0.733,-10e-6 -1.766,-0.26659 -3.099,-0.79974 -1.333,-0.53317 -2.666,-1.26626 -3.999,-2.19928 -1.333,-0.8664 -2.499,-1.86607 -3.499,-2.99903 -0.933,-1.13297 -1.399,-2.26593 -1.399,-3.39889"
             id="path6758" />
          <path
             inkscape:connector-curvature="0"
             d="m -11794.485,546.31073 c -1.733,-3.06565 -3.699,-6.6978 -5.898,-10.89645 -2.199,-4.26525 -4.499,-8.73046 -6.898,-13.39564 -2.332,-4.73175 -4.698,-9.49686 -7.097,-14.29534 -2.333,-4.86502 -4.566,-9.46352 -6.698,-13.7955 -2.066,-4.3985 -3.966,-8.36387 -5.698,-11.89613 -1.667,-3.5321 -2.999,-6.36451 -3.999,-8.49723 -1.133,-2.33249 -1.933,-4.29851 -2.399,-5.89808 -0.467,-1.59939 -0.7,-2.86564 -0.7,-3.79876 0,-1.59939 0.3,-3.06557 0.9,-4.39857 0.599,-1.3328 1.399,-2.46576 2.399,-3.39889 1.066,-0.99957 2.266,-1.76599 3.599,-2.29925 1.333,-0.53306 2.732,-0.79964 4.198,-0.79974 1.4,1e-4 2.499,0.23336 3.299,0.69977 0.8,0.46662 1.466,1.09974 2,1.89938 0.599,0.79984 1.066,1.73287 1.399,2.79909 0.4,0.99977 0.866,2.09941 1.4,3.29892 1.532,3.59892 3.199,7.46433 4.998,11.59623 1.866,4.13206 3.765,8.33069 5.698,12.59589 1.999,4.1987 3.965,8.39733 5.898,12.5959 2,4.13204 3.866,8.03077 5.598,11.69619 1.8,3.66552 3.433,7.03108 4.899,10.09671 1.533,2.99906 2.799,5.46492 3.799,7.39759 l 39.887,-69.0775 c 2.065,-3.39879 4.698,-6.06458 7.897,-7.99739 3.199,-1.9326 6.498,-2.89895 9.897,-2.89906 0.866,1.1e-4 1.666,0.23337 2.399,0.69978 0.733,0.39997 1.366,0.96646 1.899,1.69944 0.533,0.66656 0.933,1.39965 1.2,2.19929 0.266,0.79984 0.4,1.53293 0.4,2.19928 0,1.06642 -0.167,1.99945 -0.5,2.79909 -0.267,0.79984 -0.833,1.83283 -1.699,3.09899 -0.867,1.26635 -2.067,2.93247 -3.599,4.99837 -1.533,1.99944 -3.533,4.79852 -5.998,8.39726 -2.4,3.53227 -5.365,8.0308 -8.897,13.49561 -3.466,5.3983 -7.565,12.09612 -12.296,20.09345 l -24.992,45.68512 c -2.2,3.79876 -4.432,7.96407 -6.698,12.49593 -2.266,4.59849 -4.332,9.0637 -6.198,13.39564 -1.8,4.39854 -3.299,8.46388 -4.499,12.19602 -1.133,3.73208 -1.699,6.63114 -1.699,8.69717 0,1.26621 -0.233,2.56579 -0.7,3.89873 -0.4,1.3995 -1,2.66575 -1.799,3.79876 -0.8,1.13292 -1.766,2.06594 -2.899,2.79909 -1.067,0.73304 -2.266,1.09959 -3.599,1.09964 -1.133,-5e-5 -2.466,-0.33328 -3.999,-0.99967 -1.533,-0.6665 -2.999,-1.53289 -4.398,-2.59916 -1.4,-0.99972 -2.6,-2.13268 -3.599,-3.39889 -1,-1.2663 -1.5,-2.49923 -1.5,-3.69879 0,-1.66617 0.333,-3.7988 1,-6.39792 0.733,-2.59919 1.699,-5.43159 2.899,-8.49723 1.2,-3.06569 2.599,-6.23133 4.199,-9.49691 1.666,-3.26562 3.432,-6.39793 5.298,-9.39694 l 11.896,-20.59329"
             id="path6760" />
        </g>
        <g
           style="font-size:120.21715546px;font-style:normal;font-weight:normal;line-height:125%;letter-spacing:0px;word-spacing:0px;fill:#ffffff;fill-opacity:1;stroke:none;font-family:Sans"
           id="text3048-87">
          <path
             inkscape:connector-curvature="0"
             d="m -12017.925,679.92038 c 0,-1.13486 0.294,-2.68062 0.881,-4.63728 0.626,-1.99579 1.409,-4.10898 2.348,-6.33958 0.939,-2.26971 1.957,-4.53943 3.052,-6.80917 1.096,-2.26971 2.133,-4.24593 3.111,-5.92868 0.666,-1.09571 1.253,-2.11317 1.761,-3.05239 0.509,-0.93917 0.763,-1.6827 0.763,-2.23059 0,-0.66524 -0.176,-1.40877 -0.528,-2.23059 -0.313,-0.82177 -0.626,-1.48703 -0.939,-1.9958 -0.587,-0.97829 -1.604,-2.44579 -3.052,-4.40248 -1.409,-1.95662 -3.033,-4.18721 -4.872,-6.69177 -1.801,-2.50448 -3.679,-5.14597 -5.636,-7.92448 -1.956,-2.81753 -3.756,-5.53728 -5.4,-8.15926 -1.604,-2.62187 -2.935,-5.02856 -3.992,-7.22008 -1.017,-2.23052 -1.526,-4.01108 -1.526,-5.34168 0,-0.58692 0.118,-1.13479 0.352,-1.64359 0.274,-0.54779 0.607,-1.01739 0.998,-1.4088 0.431,-0.43039 0.92,-0.76302 1.468,-0.99789 0.548,-0.23473 1.096,-0.35213 1.643,-0.3522 1.096,7e-5 1.957,0.17617 2.583,0.5283 0.626,0.31314 1.272,1.01753 1.937,2.11319 0.431,0.7436 1.213,1.99586 2.348,3.75678 1.135,1.72193 2.446,3.71772 3.933,5.98738 1.487,2.23066 3.072,4.61778 4.755,7.16138 1.722,2.54371 3.385,4.98953 4.989,7.33747 1.644,2.3089 3.131,4.40253 4.461,6.28088 1.37,1.8393 2.466,3.20896 3.288,4.10898 0.195,-0.27389 0.43,-0.60652 0.704,-0.9979 0.313,-0.43042 0.607,-0.86089 0.881,-1.29139 0.273,-0.43042 0.528,-0.82176 0.763,-1.174 0.234,-0.35215 0.411,-0.62609 0.528,-0.82179 1.448,-2.50448 3.013,-5.28294 4.696,-8.33537 1.683,-3.05234 3.385,-6.06559 5.107,-9.03977 1.722,-3.01319 3.404,-5.83078 5.048,-8.45277 1.644,-2.62185 3.15,-4.77417 4.52,-6.45697 0.665,-0.82173 1.272,-1.56526 1.82,-2.2306 0.587,-0.66518 1.154,-1.23261 1.702,-1.70229 0.587,-0.46952 1.193,-0.82172 1.82,-1.0566 0.626,-0.27385 1.33,-0.41081 2.113,-0.41089 1.135,8e-5 2.074,0.41097 2.817,1.23269 0.744,0.78274 1.116,1.72194 1.116,2.81759 0,0.19574 -0.06,0.43054 -0.176,0.7044 -0.08,0.23487 -0.314,0.72404 -0.705,1.46749 -0.391,0.74361 -0.978,1.8002 -1.761,3.16979 -0.743,1.3306 -1.78,3.16986 -3.111,5.51778 -1.8,3.05245 -3.737,6.37877 -5.811,9.97896 -2.035,3.56118 -4.129,7.27883 -6.281,11.15296 -2.152,3.87423 -4.305,7.84624 -6.457,11.91606 -2.152,4.03075 -4.226,8.04189 -6.222,12.03345 -1.996,3.99161 -3.874,7.92449 -5.635,11.79866 -1.761,3.83506 -3.307,7.47444 -4.638,10.91816 -0.117,0.31306 -0.313,0.74353 -0.587,1.29139 -0.274,0.54787 -0.606,1.07616 -0.998,1.5849 -0.391,0.54786 -0.841,1.01746 -1.35,1.40879 -0.508,0.39133 -1.037,0.58699 -1.585,0.587 -0.43,-1e-5 -1.037,-0.15654 -1.819,-0.4696 -0.783,-0.31307 -1.566,-0.74353 -2.348,-1.29139 -0.783,-0.50874 -1.468,-1.09574 -2.055,-1.761 -0.548,-0.66526 -0.822,-1.33053 -0.822,-1.99579"
             style="font-variant:normal;font-stretch:normal;font-family:Short Stack;-inkscape-font-specification:Short Stack"
             id="path6747" />
          <path
             inkscape:connector-curvature="0"
             d="m -11960.751,651.04009 c 0,-5.55688 0.802,-10.58549 2.407,-15.08585 1.604,-4.50026 3.972,-8.33531 7.102,-11.50515 3.131,-3.16973 6.966,-5.61556 11.506,-7.33748 4.578,-1.72179 9.842,-2.58272 15.79,-2.58279 2.035,7e-5 4.109,0.2153 6.222,0.6457 2.152,0.43053 4.226,1.05666 6.222,1.87839 1.996,0.82186 3.874,1.83932 5.635,3.05239 1.8,1.21319 3.366,2.62198 4.696,4.22639 1.331,1.56538 2.368,3.32637 3.111,5.28298 0.783,1.91757 1.174,4.01119 1.174,6.28087 0,1.76104 -0.391,3.03287 -1.174,3.81549 -0.782,0.7827 -1.819,1.33057 -3.111,1.64359 -1.135,0.31311 -2.465,0.60661 -3.991,0.8805 -1.487,0.23484 -3.17,0.64573 -5.048,1.2327 l -39.271,12.20955 c 0.509,2.38715 1.331,4.42207 2.466,6.10478 1.174,1.68274 2.524,3.09153 4.05,4.22638 1.565,1.13488 3.248,2.03494 5.048,2.70019 1.839,0.66528 3.679,1.17401 5.518,1.5262 1.839,0.31307 3.62,0.5283 5.342,0.6457 1.761,0.0783 3.346,0.1174 4.754,0.11739 2.231,10e-6 4.442,-0.25435 6.633,-0.76309 2.192,-0.50872 4.207,-1.07616 6.047,-1.7023 1.839,-0.62612 3.443,-1.19355 4.813,-1.70229 1.409,-0.50872 2.426,-0.76308 3.052,-0.7631 2.074,2e-5 3.581,0.46961 4.52,1.4088 0.978,0.9392 1.468,2.4067 1.468,4.40248 0,1.2914 -0.666,2.4067 -1.996,3.34589 -1.292,0.9392 -2.974,1.72186 -5.048,2.34799 -2.074,0.62613 -4.383,1.1153 -6.927,1.46749 -2.504,0.39134 -4.97,0.66527 -7.396,0.8218 -2.387,0.19567 -4.579,0.31307 -6.574,0.3522 -1.996,0.0783 -3.503,0.1174 -4.52,0.1174 -2.701,0 -5.401,-0.3522 -8.101,-1.0566 -2.661,-0.66526 -5.205,-1.62402 -7.631,-2.87629 -2.387,-1.25225 -4.618,-2.75888 -6.692,-4.51988 -2.035,-1.80012 -3.815,-3.77634 -5.341,-5.92868 -1.487,-2.19144 -2.661,-4.53943 -3.522,-7.04397 -0.822,-2.5045 -1.233,-5.12642 -1.233,-7.86577 m 10.977,-4.57858 c 1.839,-0.54784 3.952,-1.17397 6.339,-1.8784 2.388,-0.70436 4.892,-1.44789 7.514,-2.23059 2.661,-0.82176 5.342,-1.66312 8.042,-2.52409 2.739,-0.86089 5.361,-1.70225 7.866,-2.52409 2.543,-0.86089 4.872,-1.66312 6.985,-2.40669 2.152,-0.78262 3.952,-1.50658 5.4,-2.17189 -0.43,-1.48702 -1.154,-2.75884 -2.172,-3.81549 -1.017,-1.09568 -2.308,-1.97617 -3.874,-2.64149 -1.526,-0.70434 -3.307,-1.21307 -5.341,-1.52619 -2.035,-0.35215 -4.266,-0.52825 -6.692,-0.5283 -1.096,5e-5 -2.407,0.15658 -3.933,0.4696 -1.487,0.31312 -3.072,0.82185 -4.755,1.52619 -1.643,0.66532 -3.326,1.56538 -5.048,2.70019 -1.683,1.13491 -3.228,2.52414 -4.637,4.16768 -1.409,1.64364 -2.622,3.58073 -3.64,5.81128 -1.017,2.1915 -1.702,4.71559 -2.054,7.57228"
             style="font-variant:normal;font-stretch:normal;font-family:Short Stack;-inkscape-font-specification:Short Stack"
             id="path6749" />
          <path
             inkscape:connector-curvature="0"
             d="m -11880.802,650.21829 c 0,-2.93496 0.254,-5.85038 0.763,-8.74627 0.548,-2.89581 1.35,-5.6547 2.407,-8.27667 1.096,-2.62187 2.465,-5.04813 4.109,-7.27877 1.643,-2.23054 3.561,-4.14806 5.752,-5.75258 2.231,-1.64353 4.736,-2.91536 7.514,-3.81548 2.818,-0.93914 5.929,-1.40873 9.333,-1.4088 3.757,7e-5 7.123,0.48923 10.097,1.4675 3.013,0.93925 5.635,2.21108 7.865,3.81548 2.27,1.56539 4.168,3.36551 5.694,5.40038 1.526,2.03498 2.7,4.14817 3.522,6.33958 0.431,1.17404 0.744,2.09367 0.94,2.75889 0.234,0.62617 0.469,1.0175 0.704,1.17399 1.291,0.86098 2.289,1.85887 2.994,2.99369 0.743,1.1349 1.115,2.21107 1.115,3.22849 l -0.06,21.07322 c -0.156,2.23061 -0.333,4.9308 -0.528,8.10057 -0.157,3.13066 -0.45,6.94615 -0.881,11.44646 -0.234,2.42625 -0.489,4.85251 -0.763,7.27877 -0.274,2.42625 -0.685,4.75467 -1.232,6.98528 -0.509,2.2697 -1.214,4.36333 -2.114,6.28088 -0.9,1.9175 -2.093,3.58065 -3.58,4.98948 -1.448,1.44789 -3.248,2.58276 -5.401,3.40458 -2.152,0.82177 -4.754,1.23267 -7.807,1.2327 -0.704,-3e-5 -1.741,-0.0587 -3.111,-0.1761 -1.33,-0.0783 -2.798,-0.2544 -4.402,-0.5283 -1.605,-0.27396 -3.248,-0.62616 -4.931,-1.05659 -1.644,-0.4305 -3.15,-0.97836 -4.52,-1.6436 -1.37,-0.62616 -2.485,-1.38926 -3.346,-2.28929 -0.861,-0.90009 -1.291,-1.95669 -1.291,-3.16979 0,-0.74355 0.06,-1.44795 0.176,-2.11319 0.117,-0.66529 0.352,-1.25228 0.704,-1.76099 0.352,-0.46962 0.861,-0.86095 1.526,-1.174 0.666,-0.27395 1.546,-0.41092 2.642,-0.4109 0.822,-2e-5 1.624,0.25435 2.407,0.7631 0.821,0.54784 1.721,1.01744 2.7,1.40879 0.978,0.39131 2.093,0.68481 3.346,0.8805 1.291,0.19564 2.524,0.33261 3.698,0.4109 1.174,0.11738 2.211,0.17608 3.111,0.1761 0.9,-2e-5 1.506,-2e-5 1.82,0 1.8,-2e-5 3.267,-0.56745 4.402,-1.70229 1.174,-1.13489 2.113,-2.56325 2.818,-4.28509 0.704,-1.68274 1.193,-3.54157 1.467,-5.57648 0.313,-2.03493 0.528,-3.97202 0.646,-5.81128 0.04,-0.86093 0.117,-1.85883 0.235,-2.99369 0.117,-1.13486 0.234,-2.32842 0.352,-3.58068 0.117,-1.2914 0.235,-2.58279 0.352,-3.87419 0.117,-1.29139 0.196,-2.50451 0.235,-3.63938 -2.348,2.89586 -5.244,5.24385 -8.688,7.04397 -3.444,1.76099 -7.552,2.64149 -12.327,2.64149 -4.891,0 -9.235,-0.62613 -13.031,-1.87839 -3.757,-1.25226 -6.927,-3.13065 -9.509,-5.63518 -2.583,-2.50452 -4.559,-5.63517 -5.929,-9.39197 -1.331,-3.7959 -1.996,-8.23751 -1.996,-13.32485 m 11.27,0.1174 c 0,4.06988 0.529,7.41576 1.585,10.03766 1.096,2.62194 2.564,4.696 4.403,6.22218 1.878,1.52621 4.07,2.60237 6.574,3.22849 2.505,0.58701 5.185,0.8805 8.042,0.8805 3.248,0 6.066,-0.70439 8.453,-2.1132 2.387,-1.44791 4.402,-3.24804 6.046,-5.40038 1.643,-2.1523 2.915,-4.50029 3.815,-7.04397 0.9,-2.54363 1.468,-4.93075 1.703,-7.16137 0.117,-1.0957 0.06,-2.05446 -0.176,-2.87629 -0.235,-0.8609 -0.509,-1.66313 -0.822,-2.40669 -0.392,-0.8609 -0.744,-1.70226 -1.057,-2.5241 -0.313,-0.86089 -0.469,-1.74138 -0.469,-2.64149 0,-1.21308 -0.45,-2.58274 -1.35,-4.10898 -0.861,-1.56528 -2.075,-3.03277 -3.64,-4.40248 -1.526,-1.36962 -3.346,-2.52404 -5.459,-3.46329 -2.113,-0.97828 -4.383,-1.46744 -6.809,-1.4675 -4.031,6e-5 -7.396,0.72402 -10.096,2.1719 -2.662,1.40884 -4.794,3.28723 -6.399,5.63518 -1.565,2.34803 -2.68,5.04822 -3.346,8.10057 -0.665,3.01329 -0.998,6.12437 -0.998,9.33326"
             style="font-variant:normal;font-stretch:normal;font-family:Short Stack;-inkscape-font-specification:Short Stack"
             id="path6751" />
          <path
             inkscape:connector-curvature="0"
             d="m -11800.031,645.05271 c 0,-1.21309 0.04,-2.58275 0.117,-4.10898 0.08,-1.52616 0.196,-3.11105 0.353,-4.75469 0.156,-1.64355 0.332,-3.30671 0.528,-4.98948 0.235,-1.72181 0.489,-3.3654 0.763,-4.93078 0.274,-1.60441 0.567,-3.0719 0.881,-4.40248 0.352,-1.36961 0.704,-2.5436 1.056,-3.52199 0.431,-1.05654 1.115,-1.91746 2.055,-2.58279 0.939,-0.70433 2.191,-1.05653 3.756,-1.0566 1.409,7e-5 2.524,0.5088 3.346,1.5262 0.861,1.01752 1.292,2.23065 1.292,3.63938 0,0.23486 -0.196,0.97839 -0.587,2.2306 -0.353,1.21318 -0.763,2.85677 -1.233,4.93078 -0.43,2.03497 -0.841,4.46123 -1.233,7.27877 -0.352,2.7785 -0.528,5.83088 -0.528,9.15717 0,1.29143 0.06,2.87632 0.176,4.75468 0.157,1.87842 0.431,3.85464 0.822,5.92868 0.391,2.03495 0.939,4.08944 1.643,6.16347 0.705,2.03495 1.644,3.8742 2.818,5.51778 1.213,1.64361 2.681,2.97414 4.403,3.99159 1.721,1.01747 3.776,1.5262 6.163,1.52619 2.035,1e-5 3.913,-0.31305 5.635,-0.93919 1.722,-0.62613 3.287,-1.42835 4.696,-2.40669 1.448,-1.01746 2.739,-2.15232 3.874,-3.40459 1.174,-1.25225 2.211,-2.50451 3.111,-3.75679 0.94,-1.25224 1.742,-2.42623 2.407,-3.52198 0.705,-1.09571 1.311,-2.01534 1.82,-2.75889 0.235,-2.2697 0.411,-4.26549 0.528,-5.98738 0.118,-1.76096 0.196,-3.36542 0.235,-4.81338 0.08,-1.4479 0.117,-2.79799 0.117,-4.05029 0.04,-1.29135 0.06,-2.60231 0.06,-3.93289 0,-1.36961 -0.02,-2.81754 -0.06,-4.34378 0,-1.56528 0,-3.34584 0,-5.34168 l 0,-6.98527 c 0,-0.82174 0.176,-1.50657 0.529,-2.0545 0.391,-0.5478 0.861,-0.99783 1.408,-1.35009 0.548,-0.35214 1.155,-0.58693 1.82,-0.7044 0.665,-0.15647 1.272,-0.23473 1.82,-0.2348 0.469,7e-5 0.978,0.0783 1.526,0.2348 0.548,0.1566 1.057,0.3914 1.526,0.7044 0.47,0.31313 0.861,0.74359 1.174,1.29139 0.313,0.5088 0.47,1.11536 0.47,1.8197 l -0.118,55.70609 c 0,1.9958 -0.391,3.34589 -1.174,4.05029 -0.782,0.66526 -1.976,0.99789 -3.58,0.99789 -1.448,0 -2.583,-0.1174 -3.405,-0.3522 -0.783,-0.19566 -1.37,-0.58699 -1.761,-1.17399 -0.352,-0.587 -0.567,-1.38923 -0.646,-2.40669 -0.08,-1.01746 -0.117,-2.32842 -0.117,-3.93289 l 0,-3.99158 c -1.017,1.83927 -2.172,3.60026 -3.463,5.28298 -1.253,1.6436 -2.72,3.09152 -4.403,4.34378 -1.682,1.25226 -3.62,2.25016 -5.811,2.99369 -2.191,0.74353 -4.696,1.11529 -7.514,1.1153 -4.069,-1e-5 -7.572,-0.62614 -10.507,-1.8784 -2.896,-1.21313 -5.361,-2.81758 -7.396,-4.81338 -1.996,-2.03492 -3.62,-4.34377 -4.872,-6.92657 -1.213,-2.58278 -2.172,-5.22427 -2.876,-7.92447 -0.666,-2.70017 -1.116,-5.34166 -1.35,-7.92448 -0.196,-2.58276 -0.294,-4.89161 -0.294,-6.92657"
             style="font-variant:normal;font-stretch:normal;font-family:Short Stack;-inkscape-font-specification:Short Stack"
             id="path6753" />
          <path
             inkscape:connector-curvature="0"
             d="m -11722.782,653.91638 c 0,-3.05236 0.43,-6.22215 1.291,-9.50937 0.9,-3.32628 2.172,-6.4178 3.816,-9.27456 1.565,-2.85668 3.483,-5.5373 5.752,-8.04187 2.309,-2.50447 4.872,-4.67636 7.69,-6.51568 2.818,-1.87833 5.85,-3.34582 9.099,-4.40248 3.287,-1.09567 6.711,-1.64353 10.272,-1.6436 2.7,7e-5 5.303,0.37183 7.807,1.1153 2.505,0.70446 4.853,1.68279 7.044,2.93499 2.191,1.25232 4.187,2.73938 5.987,4.46118 1.84,1.72192 3.405,3.58074 4.696,5.57648 1.292,1.95671 2.29,4.0112 2.994,6.16348 0.704,2.15237 1.057,4.30469 1.057,6.45697 0,1.91757 -0.118,3.61986 -0.352,5.10689 -0.196,1.44795 -0.451,2.89588 -0.764,4.34378 -0.234,1.48709 -0.469,3.03285 -0.704,4.63728 -0.235,1.56535 -0.352,3.40461 -0.352,5.51778 0,1.83928 0.137,3.36547 0.411,4.57859 0.274,1.174 0.665,2.13277 1.174,2.87628 0.508,0.74355 1.115,1.27184 1.819,1.5849 0.744,0.27394 1.566,0.41091 2.466,0.4109 0.235,10e-6 0.528,-0.0587 0.88,-0.1761 0.352,-0.15653 0.685,-0.31306 0.998,-0.4696 0.313,-0.19566 0.587,-0.37176 0.822,-0.5283 0.235,-0.19565 0.391,-0.35219 0.47,-0.4696 0.43,-0.43045 0.841,-0.80222 1.232,-1.11529 0.431,-0.35219 0.998,-0.52829 1.703,-0.5283 1.408,10e-6 2.465,0.33264 3.169,0.9979 0.744,0.66527 1.116,1.761 1.116,3.28718 0,0.93921 -0.294,1.91754 -0.881,2.93499 -0.548,1.01747 -1.33,1.95666 -2.348,2.81759 -1.017,0.8218 -2.231,1.50663 -3.639,2.05449 -1.409,0.54787 -2.974,0.8218 -4.696,0.8218 -3.444,0 -6.399,-0.95876 -8.864,-2.87629 -2.426,-1.95665 -4.168,-4.61771 -5.224,-7.98317 -1.448,1.5262 -3.033,2.9937 -4.755,4.40249 -1.722,1.36966 -3.62,2.58279 -5.694,3.63938 -2.074,1.01747 -4.383,1.8197 -6.926,2.40669 -2.505,0.62613 -5.283,0.9392 -8.336,0.9392 -2.309,0 -4.676,-0.31307 -7.102,-0.9392 -2.387,-0.62613 -4.716,-1.50662 -6.986,-2.64149 -2.23,-1.13486 -4.324,-2.50452 -6.28,-4.10898 -1.957,-1.64359 -3.679,-3.44371 -5.166,-5.40038 -1.448,-1.95665 -2.602,-4.06984 -3.463,-6.33958 -0.822,-2.2697 -1.233,-4.63726 -1.233,-7.10267 m 10.977,-0.1174 c 0,2.42628 0.645,4.65687 1.937,6.69177 1.33,2.03495 3.033,3.77637 5.107,5.22428 2.074,1.44794 4.383,2.58281 6.926,3.40459 2.583,0.78267 5.107,1.17401 7.573,1.174 3.287,10e-6 6.3,-0.62612 9.039,-1.8784 2.779,-1.25225 5.146,-2.87627 7.103,-4.87208 1.996,-1.99577 3.542,-4.22636 4.637,-6.69177 1.096,-2.5045 1.644,-4.96989 1.644,-7.39618 0,-1.36963 0.293,-2.56319 0.88,-3.58068 0.627,-1.05656 1.214,-2.05446 1.761,-2.99369 0.157,-0.19563 0.235,-0.48913 0.235,-0.8805 0.04,-0.43043 0.04,-0.86089 0,-1.29139 0,-0.46956 -0.02,-0.90003 -0.06,-1.2914 -0.04,-0.39129 -0.06,-0.66522 -0.06,-0.8218 0,-0.86088 -0.294,-1.80008 -0.881,-2.81759 -0.587,-1.01741 -1.389,-2.03488 -2.406,-3.05238 -0.979,-1.01742 -2.114,-1.99575 -3.405,-2.93499 -1.252,-0.97828 -2.544,-1.83921 -3.874,-2.58279 -1.331,-0.74348 -2.661,-1.33048 -3.992,-1.761 -1.33,-0.46954 -2.524,-0.70434 -3.58,-0.70439 -2.975,5e-5 -5.753,0.41095 -8.336,1.23269 -2.543,0.82185 -4.872,1.93714 -6.985,3.34589 -2.113,1.40884 -4.011,3.072 -5.694,4.98948 -1.644,1.87844 -3.033,3.89379 -4.168,6.04608 -1.095,2.15236 -1.937,4.38295 -2.524,6.69177 -0.587,2.30889 -0.88,4.55905 -0.88,6.75048"
             style="font-variant:normal;font-stretch:normal;font-family:Short Stack;-inkscape-font-specification:Short Stack"
             id="path6755" />
        </g>
        <g
           transform="matrix(0.83105593,0,0,0.83105593,-12125.006,22.806799)"
           id="layer1-2-8-4"
           inkscape:label="Capa 1"
           style="fill:#ffffff">
          <path
             inkscape:connector-curvature="0"
             id="path3904"
             d="m 115.64577,138.65703 c -1.2118,-0.021 -2.3786,0.044 -3.5313,0.1875 -2.0492,0.2553 -4,0.7863 -5.8437,1.5625 -7.375203,3.1052 -11.689603,9.8513 -13.593803,16.6875 -1.9042,6.8361 -1.7894,14.1608 -0.2188,20.875 1.5672,6.6997 4.49,13.0238 10.187603,17.125 l 0,0.031 0.0312,0 c 7.5439,5.4014 21.2876,12.2247 38.625,20.25 17.3516,8.0321 37.9868,16.9771 57.8125,25.3438 35.3184,14.9046 64.2608,26.4441 71,29.125 -0.7037,5.6609 -1.7918,15.7045 -1.875,29.7188 -0.1137,19.1419 1.1365,41.398 12.5625,55.5624 7.2068,8.9345 19.0843,11.7617 29.2812,13.9063 4.5512,0.9573 8.584,1.5186 11.9376,1.9375 l -2.0313,27.5312 a 7.1202884,7.1202884 0 1 0 14.1875,1.0626 l 2.5625,-34.375 a 7.1202884,7.1202884 0 0 0 -6.6563,-7.6563 c 0,0 -7.9971,-0.5309 -17.0624,-2.4375 -9.0653,-1.9067 -18.8109,-6.0373 -21.125,-8.9062 -6.5331,-8.0991 -9.5444,-28.5458 -9.4376,-46.5313 0.1068,-17.9854 2.4063,-33.3438 2.4063,-33.3437 a 7.1202884,7.1202884 0 0 0 -4.4375,-7.6876 c 0,0 -36.3061,-14.3724 -75.7812,-31.0312 -19.7376,-8.3295 -40.2732,-17.2398 -57.375,-25.1562 -17.1019,-7.9165 -31.1031,-15.1416 -36.3126,-18.875 -1.3807,-0.9894 -3.6118,-4.3791 -4.6562,-8.8438 -1.0444,-4.4648 -1.0274,-9.7884 0.0938,-13.8125 1.1208,-4.024 2.9638,-6.3466 5.4062,-7.375 2.4424,-1.0283 6.821,-1.2978 14.5625,2.625 57.2286,29.0005 171.9687,62.5625 171.9687,62.5625 a 7.1270018,7.1270018 0 1 0 4.1876,-13.625 l -0.1563,-0.031 -19.7187,-6.2813 c 1.7978,-3.2629 3.9637,-7.1192 6.75,-11.2813 6.3337,-9.4609 15.423,-18.4831 20.25,-19.625 20.182,-4.7738 47.3935,9.3463 61.5624,26.8438 5.5624,6.869 10.5894,16.4906 12.875,25.875 2.2855,9.3843 1.8043,18.1973 -2,24.5625 -3.2075,5.3667 -10.137,10.7657 -17.9062,13.9063 a 7.1202884,7.1202884 0 0 0 -2.0312,-0.2188 7.1202884,7.1202884 0 0 0 -4.8126,2.3125 c -7.3355,1.5859 -14.3401,0.9574 -18.8437,-1.8437 -1.7297,-1.0759 -3.7311,-4.0487 -5.0625,-8.8438 -1.3314,-4.7952 -1.9584,-10.9914 -2.0625,-17 -0.2083,-12.0173 1.5,-23.0312 1.5,-23.0312 a 7.1312754,7.1312754 0 1 0 -14.0937,-2.1876 c 0,0 -1.8589,11.9748 -1.625,25.4688 0.117,6.7469 0.7177,13.9186 2.5624,20.5625 1.8447,6.644 4.9524,13.2079 11.25,17.125 9.6905,6.0273 21.5726,6.0064 32.4688,2.9375 13.4483,7.1402 18.1176,15.4056 20.0625,25.5312 2.1187,11.0305 -0.0449,24.7058 -1.8437,39.0313 a 7.1202884,7.1202884 0 1 0 14.125,1.7813 c 1.7427,-13.8808 4.5387,-28.8181 1.7187,-43.5 -2.0819,-10.839 -7.8298,-21.2723 -18.5625,-29.625 0.798,-0.4945 1.576,-1.0302 2.3438,-1.5626 1.3324,1.3542 3.4595,3.3814 6.0937,5.5 4.3261,3.4795 9.4952,8.1832 17.7187,6.9376 10.9907,-1.6654 20.1534,-8.3486 27.1563,-16.6563 2.679,2.4313 6.5808,5.7586 11.2187,9.0625 4.1806,2.978 8.8758,5.871 13.9063,7.8438 5.0305,1.9726 10.7197,3.2471 16.5313,1.2187 12.2944,-4.2906 19.2115,-15.398 23.125,-26.875 3.9134,-11.4769 5.2583,-24.0345 5.9374,-34.2813 0.3175,-4.7917 0.4781,-9.9933 0.3438,-15.3437 5.5215,-2.2779 16.7712,-6.6497 29.6562,-10.1875 18.1851,-4.9931 39.3341,-7.0627 48.5938,-2 0.098,0.054 3.3964,4.6811 4.9375,9.625 0.9939,3.1884 1.5115,5.6896 1.8437,7.4375 -0.4841,0.7667 -1.1654,1.5734 -2.5937,2.5625 -2.1275,1.4731 -5.4792,3.0484 -9.625,4.5625 -8.2915,3.0283 -19.6401,5.9153 -31.2813,10.4687 -11.6413,4.5534 -23.7534,10.8604 -33.4374,21.2813 -9.6841,10.421 -16.6252,24.9429 -18.1563,44.375 a 7.1202884,7.1202884 0 0 0 0.125,2.0313 c 4.2629,20.2471 0.2355,31.5825 -9.75,39.8437 -9.9855,8.2613 -27.7577,13.1555 -51.2187,14.5937 a 7.1202884,7.1202884 0 0 0 -6.6876,7.375 l 1.8126,45.0313 a 7.1202884,7.1202884 0 1 0 14.2187,-0.5625 l -1.5313,-38.3438 c 21.6833,-1.9735 39.8747,-6.6797 52.5,-17.125 13.7067,-11.34 19.2451,-29.5529 14.8126,-52.375 1.4153,-16.3195 6.8301,-27.1045 14.3124,-35.1562 7.5905,-8.1681 17.6065,-13.5801 28.1876,-17.7188 10.5811,-4.1386 21.5682,-6.9104 30.9687,-10.3437 4.7003,-1.7166 9.035,-3.5814 12.8437,-6.2187 3.8087,-2.6373 7.216,-6.3339 8.7188,-11.1876 a 7.1202884,7.1202884 0 0 0 0.25,-3.1562 c 0,0 -0.8032,-5.4794 -2.7188,-11.625 -1.9156,-6.1457 -4.0374,-13.6755 -11.7187,-17.875 -6.316,-3.4533 -13.4744,-4.9392 -21,-5.1875 -12.5426,-0.4138 -26.0631,2.6398 -38.1875,5.9687 -10.9331,3.0019 -20.6535,6.5732 -27.1562,9.125 -0.2452,-1.5406 -0.5163,-3.0692 -0.8438,-4.5937 -2.5311,-11.7839 -7.8406,-23.4076 -18.5938,-30.2813 -7.2268,-4.6194 -16.1774,-6.8905 -25.2812,-7.1562 -3.0346,-0.089 -6.0815,0.057 -9.0938,0.4062 -11.1748,1.2954 -22.4771,5.7568 -28.5312,15.3438 -7.5531,-4.1159 -16.6262,-5.234 -25.5,-5.3438 -3.4916,-0.043 -6.965,0.068 -10.2812,0.2188 -13.2648,0.6016 -24.4063,2.75 -24.4063,2.75 a 7.1248754,7.1248754 0 0 0 -4.4375,2.8125 c -14.915,-8.4261 -32.1659,-12.658 -48.6875,-8.75 -13.0454,3.0859 -21.7914,15.0747 -28.8125,25.5625 -3.9651,5.9228 -6.8395,11.046 -8.875,14.9062 -38.1457,-12.1187 -99.5823,-32.64 -135.875,-51.0312 -6.1067,-3.0945 -11.9053,-4.7229 -17.1562,-4.8125 z m 339.375,22.1875 c 7.5825,0.042 15.2409,1.944 19.875,4.9062 6.368,4.0706 10.2672,11.5825 12.3437,21.25 2.0765,9.6676 2.1476,21.039 1.5,30.8126 -0.6446,9.7264 -2.0038,21.2881 -5.1875,30.625 -3.1837,9.3368 -7.7704,15.7262 -14.375,18.0312 -0.9046,0.3157 -3.3072,0.2699 -6.625,-1.0312 -3.3178,-1.3012 -7.2199,-3.6284 -10.8125,-6.1876 -5.0294,-3.5826 -9.2531,-7.36 -11.4063,-9.375 3.1983,-5.9696 5.4847,-12.3158 6.6876,-18.5624 3.9083,-20.2965 -1.8105,-44.1405 -16.1563,-59.8126 a 7.1202884,7.1202884 0 0 0 0.2187,-0.4374 c 2.4937,-4.9873 9.6539,-8.8832 18.75,-9.9376 1.7056,-0.1976 3.4377,-0.2909 5.1876,-0.2812 z m -65.875,10.5 c 10.7955,0.033 21.8111,1.8267 25.875,4.9062 13.8221,10.474 21.4509,34.6158 18.0312,52.375 -1.477,7.6704 -5.537,16.4812 -11.0625,23.2813 -5.4989,6.7675 -12.2743,11.3622 -18.9375,12.4063 0.2549,-0.2483 -3.693,-1.4225 -6.7812,-3.9063 -2.0215,-1.6258 -3.5098,-3.0841 -4.5626,-4.1563 0.9363,-1.2161 1.8081,-2.4978 2.5938,-3.8124 6.4001,-10.7083 6.4588,-23.4553 3.5938,-35.2188 -2.8649,-11.7636 -8.6699,-22.8797 -15.625,-31.4688 -3.6963,-4.5645 -8.0116,-8.943 -12.7813,-12.9374 4.0238,-0.5409 9.325,-1.1148 15.0625,-1.375 1.5122,-0.069 3.0515,-0.098 4.5938,-0.094 z"
             style="font-size:medium;font-style:normal;font-variant:normal;font-weight:normal;font-stretch:normal;text-indent:0;text-align:start;text-decoration:none;line-height:normal;letter-spacing:normal;word-spacing:normal;text-transform:none;direction:ltr;block-progression:tb;writing-mode:lr-tb;text-anchor:start;baseline-shift:baseline;color:#000000;fill:#ffffff;fill-opacity:1;stroke:none;stroke-width:14.23915291;marker:none;visibility:visible;display:inline;overflow:visible;enable-background:accumulate;font-family:Sans;-inkscape-font-specification:Sans" />
        </g>
        <g
           transform="matrix(0.67408747,0,0,0.67408747,-12358.123,478.56763)"
           id="layer1-1-1"
           inkscape:label="Capa 1">
          <text
             sodipodi:linespacing="125%"
             id="text3197-3-9"
             y="535.85278"
             x="3592.4868"
             style="font-size:430.46691895px;font-style:normal;font-variant:normal;font-weight:bold;font-stretch:normal;text-align:start;line-height:125%;letter-spacing:0px;word-spacing:0px;writing-mode:lr-tb;text-anchor:start;fill:#ffffff;fill-opacity:1;stroke:none;font-family:Rudiment;-inkscape-font-specification:Rudiment Bold"
             xml:space="preserve"
             inkscape:export-filename="/home/david/work/pipo/textures/abeja.png"
             inkscape:export-xdpi="90"
             inkscape:export-ydpi="90"><tspan
               style="font-style:normal;font-weight:500;fill:#ffffff;-inkscape-font-specification:Rudiment Medium"
               y="535.85278"
               x="3592.4868"
               id="tspan3199-6"
               sodipodi:role="line" /></text>
          <text
             sodipodi:linespacing="125%"
             id="text3197-1-0"
             y="553.76141"
             x="2249.1658"
             style="font-size:218.20521545px;font-style:normal;font-variant:normal;font-weight:bold;font-stretch:normal;text-align:start;line-height:125%;letter-spacing:0px;word-spacing:0px;writing-mode:lr-tb;text-anchor:start;fill:#ffffff;fill-opacity:1;stroke:none;font-family:Rudiment;-inkscape-font-specification:Rudiment Bold"
             xml:space="preserve"
             inkscape:export-filename="/home/david/work/pipo/textures/abeja.png"
             inkscape:export-xdpi="90"
             inkscape:export-ydpi="90"><tspan
               style="font-style:normal;font-weight:500;fill:#ffffff;-inkscape-font-specification:Rudiment Medium"
               y="553.76141"
               x="2249.1658"
               id="tspan3199-7-3"
               sodipodi:role="line" /></text>
          <text
             sodipodi:linespacing="125%"
             id="text3197-5-90"
             y="599.66895"
             x="1285.3745"
             style="font-size:218.20521545px;font-style:normal;font-variant:normal;font-weight:bold;font-stretch:normal;text-align:start;line-height:125%;letter-spacing:0px;word-spacing:0px;writing-mode:lr-tb;text-anchor:start;fill:#ffffff;fill-opacity:1;stroke:none;font-family:Rudiment;-inkscape-font-specification:Rudiment Bold"
             xml:space="preserve"
             inkscape:export-filename="/home/david/work/pipo/textures/abeja.png"
             inkscape:export-xdpi="90"
             inkscape:export-ydpi="90"><tspan
               style="font-style:normal;font-weight:500;fill:#ffffff;-inkscape-font-specification:Rudiment Medium"
               y="599.66895"
               x="1285.3745"
               id="tspan3199-9-5"
               sodipodi:role="line" /></text>
          <path
             inkscape:connector-curvature="0"
             id="path3193"
             d="m 663.55046,326.53156 -12.86504,3.59295 c 0,0 10.8616,27.17061 12.51734,30.48207 1.65573,3.31147 -19.12374,-9.61983 -19.12374,-9.61983 l -2.31802,10.66293 22.48486,9.73572 -3.01343,1.62262 -5.67915,2.89754 c -1.78852,0.14379 -3.36122,0.98292 -4.40427,2.31802 l -54.12594,28.51173 -9.5039,4.98375 c 8.21928,13.97349 43.49164,52.12005 60.84822,20.39865 l 7.18589,-21.20995 c 16.04026,5.22402 28.80594,5.63399 33.61137,-6.37458 3.16292,8.85505 5.76551,19.04559 8.34491,29.67075 0.44825,1.79101 0.82703,3.52407 1.27491,5.33148 3.54829,14.80239 7.1344,29.9552 11.93785,42.99939 0.63294,1.71882 1.29072,3.34578 1.97033,4.98375 0.0965,0.23304 0.25034,0.46417 0.3477,0.69543 0.82238,1.94567 1.65131,3.87119 2.54981,5.67915 0.33491,0.67638 0.69683,1.3153 1.04313,1.97033 0.16168,0.30456 0.2994,0.62742 0.4636,0.92721 0.69511,1.27327 1.45873,2.52717 2.20213,3.70884 0.4392,0.69503 0.81794,1.4252 1.27491,2.08623 0.25335,0.36762 0.55224,0.6864 0.8113,1.04311 0.4882,0.67101 0.99788,1.33945 1.50673,1.97032 0.64147,0.79448 1.29409,1.59099 1.97032,2.31803 0.0726,0.0782 0.15881,0.15448 0.23181,0.23181 0.77993,0.82477 1.60551,1.58798 2.43392,2.31802 0.39432,0.34734 0.75341,0.71826 1.15902,1.04311 0.14934,0.11972 0.31265,0.23103 0.4636,0.3477 0.74584,0.57563 1.5333,1.12531 2.31802,1.62262 l 5.33146,24.91879 17.50111,80.55145 -1.39081,-92.37339 -0.11601,-4.75194 c 0.88481,0.18349 1.85895,0.30897 2.78164,0.4636 l 20.63044,95.61862 c 5.9e-4,0.0658 0.0232,0.14358 0,0.23181 l 0.2318,0.92719 -1.50672,-95.96632 c 0.84791,-0.0757 1.71702,-0.12281 2.54983,-0.23179 10.97795,-1.43522 26.31729,-6.04546 39.87007,-10.66293 8.42605,19.99594 21.24047,26.86212 35.92942,28.04813 l 0,75.79948 25.26651,-83.33307 c -2.30316,-1.52742 -4.26385,-3.2446 -6.14278,-4.98375 3.84403,0.75629 7.78776,1.24745 11.70604,1.85441 l 1.62262,86.81011 c -3.2524,5.85527 -13.44457,19.70325 -13.44457,19.70325 l 16.458,0 -1.97032,-22.25306 c 0.0708,0.28328 -0.28169,1.09188 -0.81132,2.08622 l 23.29618,-90.98258 c -15.45097,-4.67114 -20.25052,-20.61579 -21.32586,-40.56547 0.0103,-0.0348 -0.0103,-0.081 0,-0.11581 -0.022,-0.41295 0.0185,-0.8583 0,-1.27491 -0.0617,-1.37144 -0.0854,-2.76789 -0.11581,-4.17246 -0.03,-1.22997 -0.10635,-2.45671 -0.11581,-3.70883 -0.0508,-10.982 0.58922,-22.79063 1.04311,-34.30682 l -122.85544,1.97032 23.52798,-1.97032 c -0.34921,-4.40355 -0.825,-8.64806 -1.39084,-12.63324 l -25.49829,0 24.9188,-3.47705 c -1.53301,-9.44709 -3.63274,-17.69803 -6.25869,-25.0347 l -29.20713,0.34771 28.16403,-3.12933 c -3.36429,-8.68874 -7.50302,-15.97124 -12.05375,-22.36897 -4.78788,1.67869 -11.54544,4.09764 -18.54422,6.72229 -4.67692,2.04557 -8.43075,3.68485 -7.88129,3.24524 0.49361,-0.3949 3.83703,-1.72858 7.88129,-3.24524 6.75812,-2.95584 12.85252,-5.66826 17.73292,-7.88129 -6.05409,-8.26325 -12.88211,-14.98337 -20.05094,-21.09406 l -21.44174,20.28274 19.70322,-21.78944 c -2.73186,-2.27995 -5.44873,-4.53577 -8.22899,-6.72229 l -25.96191,21.20995 19.58733,-26.1937 c -4.95747,-3.89864 -9.98384,-7.84266 -14.71948,-12.16966 l -9.73571,12.51736 c -1.44611,-2.29373 -3.45735,-4.19868 -6.25867,-5.33148 l -13.21275,24.687 -5.91097,-24.10749 c -2.99637,2.06985 -5.20484,4.12817 -6.72228,6.37459 -0.0165,0.0247 0.0165,0.0911 0,0.11581 -0.37811,0.5669 -0.75619,1.16087 -1.04311,1.73851 -0.0613,0.12322 -0.17464,0.22406 -0.23181,0.34771 -0.1189,0.25781 -0.13083,0.55141 -0.23181,0.81132 l -9.2721,-17.50112 z M 776.20658,618.1394 c -0.77752,2.94318 -14.48766,17.96471 -14.48766,17.96471 l 16.34209,0 -1.85443,-17.96471 z M 896.1645,440.69441 c -2.22388,-0.0214 -4.59504,0.0374 -7.06999,0.11581 12.68019,45.36709 26.98943,103.26813 70.81573,105.58615 -43.22713,-56.96981 5.19367,-105.03704 -63.74574,-105.70204 z m -140.24066,1.62262 0.57951,0.57951 -0.57951,0 c 0.0123,-0.19336 -0.0103,-0.38627 0,-0.57951 z m 97.70484,173.15662 c 0.46833,1.87327 -14.48766,20.63046 -14.48766,20.63046 l 16.45799,0 -1.97033,-20.63046 z m -98.97975,3.94067 c 0.4683,1.87325 -14.48767,16.68979 -14.48767,16.68979 l 16.45799,0 -1.97032,-16.68979 z"
             style="fill:none;stroke:#000000;stroke-width:9.87999916;stroke-miterlimit:4;stroke-dasharray:none" />
          <path
             inkscape:connector-curvature="0"
             id="path3134-8"
             d="m 716.16967,326.87927 -28.74353,37.08844 69.54081,79.50834 32.45239,-2.66575 c -0.3492,-4.40354 -0.825,-8.64805 -1.39083,-12.63323 l -25.49829,0 24.9188,-3.47705 c -1.53301,-9.44709 -3.63274,-17.69803 -6.25869,-25.0347 l -29.20713,0.3477 28.16402,-3.12932 c -3.36428,-8.68874 -7.50302,-15.97125 -12.05374,-22.36897 -4.78788,1.67869 -11.54545,4.09764 -18.54422,6.72228 -4.67692,2.04557 -8.43075,3.68486 -7.88129,3.24524 0.49361,-0.39489 3.83703,-1.72857 7.88129,-3.24524 6.75812,-2.95583 12.85251,-5.66825 17.73292,-7.88129 -6.0541,-8.26324 -12.88212,-14.98336 -20.05095,-21.09405 l -21.44173,20.28273 19.70322,-21.78944 c -2.73186,-2.27994 -5.44873,-4.53576 -8.22899,-6.72228 l -25.96192,21.20995 19.58733,-26.19371 c -4.95746,-3.89864 -9.98384,-7.84265 -14.71947,-12.16965 z"
             style="fill:#502d16;fill-opacity:1;stroke:none" />
          <path
             inkscape:connector-curvature="0"
             id="path3013"
             d="m 856.98984,448.4598 -40.9132,60.73232 c 8.37416,22.352 21.79426,29.81731 37.20434,31.06156 l 0,75.79948 25.26651,-83.33307 C 851.3041,514.65265 855.13574,481.07596 856.98984,448.4598 z m -82.52178,47.40366 -24.45518,0.6954 26.42551,122.50773 -1.97033,-123.20313 z"
             style="fill:#502d16;stroke:none" />
          <path
             sodipodi:nodetypes="cccccccccccacccccccccc"
             inkscape:connector-curvature="0"
             id="path3009"
             d="m 700.19186,334.01549 -13.26242,24.70354 -5.86129,-24.12403 c -11.98555,8.27933 -11.86108,18.01468 -1.85443,28.85944 l -91.67797,48.21497 c 8.21928,13.97348 43.52475,52.15317 60.88134,20.43177 l 7.15274,-21.24307 c 16.04029,5.22401 28.80597,5.63398 33.6114,-6.37459 12.65154,35.42012 16.96764,92.95092 42.28761,108.99694 l 22.83257,105.47024 -1.50673,-97.12533 c 7.50901,1.55741 16.52017,2.1108 24.687,1.04311 24.19623,-3.16331 69.88852,-21.78946 69.88852,-21.78946 l 0.23181,-9.85161 c 0.83979,36.22553 19.42488,35.71696 36.50893,38.36334 l 1.5895,87.32339 23.56109,-91.95945 c -25.87045,-7.82114 -21.96704,-47.29257 -20.51454,-84.14439 l -132.82296,2.08624 c 1.96814,-33.43663 -22.83138,-64.04654 -62.91786,-78.51489 17.24455,2.41687 21.93748,-24.40088 7.18588,-30.36616 z"
             style="fill:#a05a2c;stroke:none" />
          <path
             sodipodi:nodetypes="ccccsccc"
             inkscape:connector-curvature="0"
             id="path3139"
             d="m 682.77351,363.12543 -18.54418,8.27865 -22.51799,-9.76882 2.31803,-10.59669 c 0,0 20.86224,12.91472 19.2065,9.60324 -1.65573,-3.31145 -12.58357,-30.46549 -12.58357,-30.46549 l 12.9147,-3.64264 z"
             style="fill:#502d16;fill-opacity:1;stroke:none" />
          <g
             transform="matrix(0.19234912,0,0,0.19234912,474.90106,456.8953)"
             id="g3115">
            <path
               inkscape:export-ydpi="90"
               inkscape:export-xdpi="90"
               inkscape:export-filename="/home/david/work/pipo/textures/abeja.png"
               transform="matrix(0.52570076,0,0,0.52570076,1210.0487,-894.80758)"
               d="m -448.50774,962.45862 c 0,34.0314 -27.5879,61.61928 -61.6193,61.61928 -34.03141,0 -61.61931,-27.58788 -61.61931,-61.61928 0,-34.0314 27.5879,-61.61931 61.61931,-61.61931 34.0314,0 61.6193,27.58791 61.6193,61.61931 z"
               sodipodi:ry="61.619305"
               sodipodi:rx="61.619305"
               sodipodi:cy="962.45862"
               sodipodi:cx="-510.12704"
               id="path3117"
               style="fill:#ffffff;fill-opacity:1;stroke:none"
               sodipodi:type="arc" />
            <path
               inkscape:export-ydpi="90"
               inkscape:export-xdpi="90"
               inkscape:export-filename="/home/david/work/pipo/textures/abeja.png"
               transform="matrix(0.5334795,0,0,0.5334795,1194.5258,-906.53194)"
               d="m -270.72089,972.56012 c 0,35.14718 -28.49243,63.63958 -63.63961,63.63958 -35.14719,0 -63.63961,-28.4924 -63.63961,-63.63958 0,-35.14719 28.49242,-63.63961 63.63961,-63.63961 35.14718,0 63.63961,28.49242 63.63961,63.63961 z"
               sodipodi:ry="63.63961"
               sodipodi:rx="63.63961"
               sodipodi:cy="972.56012"
               sodipodi:cx="-334.3605"
               id="path3119"
               style="fill:#ffffff;fill-opacity:1;stroke:none"
               sodipodi:type="arc" />
            <path
               inkscape:export-ydpi="90"
               inkscape:export-xdpi="90"
               inkscape:export-filename="/home/david/work/pipo/textures/abeja.png"
               transform="matrix(0.31612792,0,0,0.31612792,1114.8567,-689.85072)"
               sodipodi:type="arc"
               style="fill:#000000;fill-opacity:1;stroke:none"
               id="path3121"
               sodipodi:cx="-510.12704"
               sodipodi:cy="962.45862"
               sodipodi:rx="61.619305"
               sodipodi:ry="61.619305"
               d="m -448.50774,962.45862 c 0,34.0314 -27.5879,61.61928 -61.6193,61.61928 -34.03141,0 -61.61931,-27.58788 -61.61931,-61.61928 0,-34.0314 27.5879,-61.61931 61.61931,-61.61931 34.0314,0 61.6193,27.58791 61.6193,61.61931 z" />
            <path
               inkscape:export-ydpi="90"
               inkscape:export-xdpi="90"
               inkscape:export-filename="/home/david/work/pipo/textures/abeja.png"
               sodipodi:type="arc"
               style="fill:#000000;fill-opacity:1;stroke:none"
               id="path3123"
               sodipodi:cx="-334.3605"
               sodipodi:cy="972.56012"
               sodipodi:rx="63.63961"
               sodipodi:ry="63.63961"
               d="m -270.72089,972.56012 c 0,35.14718 -28.49243,63.63958 -63.63961,63.63958 -35.14719,0 -63.63961,-28.4924 -63.63961,-63.63958 0,-35.14719 28.49242,-63.63961 63.63961,-63.63961 35.14718,0 63.63961,28.49242 63.63961,63.63961 z"
               transform="matrix(0.31612792,0,0,0.31612792,1108.9618,-692.81246)" />
          </g>
          <path
             id="path3814"
             transform="translate(542.38977,-131.9005)"
             d="m 88.71875,520.625 -43.5625,22.9375 c 8.21928,13.97348 43.51841,52.1589 60.875,20.4375 l 7.0625,-21 c -4.44514,-10.58367 -13.3481,-18.84464 -24.375,-22.375 z"
             style="fill:#ffccaa;fill-opacity:1;stroke:none"
             inkscape:connector-curvature="0" />
          <path
             transform="matrix(8.591183,0,0,8.591183,-1134.9924,-6412.1532)"
             d="m 202.53559,794.4892 c 0,0.29638 -0.24026,0.53664 -0.53664,0.53664 -0.29638,0 -0.53665,-0.24026 -0.53665,-0.53664 0,-0.29638 0.24027,-0.53665 0.53665,-0.53665 0.29638,0 0.53664,0.24027 0.53664,0.53665 z"
             sodipodi:ry="0.53664356"
             sodipodi:rx="0.53664356"
             sodipodi:cy="794.4892"
             sodipodi:cx="201.99895"
             id="path3128-2"
             style="fill:#000000;fill-opacity:0.99921324;stroke:none"
             sodipodi:type="arc" />
          <path
             transform="matrix(8.591183,0,0,8.591183,-1122.0196,-6412.7463)"
             sodipodi:type="arc"
             style="fill:#000000;fill-opacity:0.99921324;stroke:none"
             id="path3130"
             sodipodi:cx="201.99895"
             sodipodi:cy="794.4892"
             sodipodi:rx="0.53664356"
             sodipodi:ry="0.53664356"
             d="m 202.53559,794.4892 c 0,0.29638 -0.24026,0.53664 -0.53664,0.53664 -0.29638,0 -0.53665,-0.24026 -0.53665,-0.53664 0,-0.29638 0.24027,-0.53665 0.53665,-0.53665 0.29638,0 0.53664,0.24027 0.53664,0.53665 z" />
          <path
             sodipodi:nodetypes="cc"
             inkscape:connector-curvature="0"
             id="path3141"
             d="m 606.38398,436.43085 c 28.90588,0.61864 43.22902,-20.13897 40.95686,-33.7334"
             style="fill:none;stroke:#000000;stroke-width:3.70884371px;stroke-linecap:butt;stroke-linejoin:miter;stroke-opacity:1" />
          <path
             sodipodi:nodetypes="ccc"
             inkscape:connector-curvature="0"
             id="path3143"
             d="m 889.07797,440.77934 c 79.19849,-2.51307 26.24385,46.82826 70.86539,105.63581 -43.82628,-2.31804 -58.1852,-60.26871 -70.86539,-105.63581 z"
             style="fill:#502d16;fill-opacity:1;stroke:none" />
          <path
             sodipodi:nodetypes="cccccccccccccccc"
             inkscape:connector-curvature="0"
             id="path3145"
             d="m 886.77648,613.85105 c 0.46831,1.87325 -14.48768,22.22821 -14.48768,22.22821 l 16.458,0 z m -33.1478,1.6226 c 0.46833,1.87327 -14.48766,20.60561 -14.48766,20.60561 l 16.45799,0 z m -77.4221,2.31805 c 0.46833,1.87325 -14.48766,18.28756 -14.48766,18.28756 l 16.34209,0 z m -21.55765,1.62262 c 0.4683,1.87325 -14.48767,16.66494 -14.48767,16.66494 l 16.45799,0 z"
             style="fill:#000000;stroke:none" />
          <path
             sodipodi:nodetypes="ccc"
             inkscape:connector-curvature="0"
             id="path3156-2"
             d="m 691.54893,362.62872 c 13.7209,0.90884 20.00265,-10.51929 11.09341,-25.82949 z"
             style="fill:#ffd5d5;stroke:none" />
        </g>
      </g>
      <rect
         y="16.503397"
         x="-15171.796"
         height="1027.4425"
         width="1023.3555"
         id="rect5661"
         style="fill:none;stroke:none" />
    </g>
  </g>
</svg>
