<?xml version="1.0" encoding="UTF-8" standalone="no"?>
<!-- Created with Inkscape (http://www.inkscape.org/) -->

<svg
   xmlns:dc="http://purl.org/dc/elements/1.1/"
   xmlns:cc="http://creativecommons.org/ns#"
   xmlns:rdf="http://www.w3.org/1999/02/22-rdf-syntax-ns#"
   xmlns:svg="http://www.w3.org/2000/svg"
   xmlns="http://www.w3.org/2000/svg"
   xmlns:xlink="http://www.w3.org/1999/xlink"
   xmlns:sodipodi="http://sodipodi.sourceforge.net/DTD/sodipodi-0.dtd"
   xmlns:inkscape="http://www.inkscape.org/namespaces/inkscape"
   width="1351.74"
   height="1351.7388"
   id="svg2"
   version="1.1"
   inkscape:version="0.48.3.1 r9886"
   sodipodi:docname="y.svg">
  <defs
     id="defs4">
    <linearGradient
       id="linearGradient3265-7"
       inkscape:collect="always">
      <stop
         id="stop3267-6"
         offset="0"
         style="stop-color:#a0692f;stop-opacity:1;" />
      <stop
         id="stop3269-0"
         offset="1"
         style="stop-color:#a0692f;stop-opacity:0;" />
    </linearGradient>
    <linearGradient
       inkscape:collect="always"
       xlink:href="#linearGradient3265-7"
       id="linearGradient4849"
       gradientUnits="userSpaceOnUse"
       gradientTransform="matrix(1.9601035,0,0,1.9601035,-1268.7026,1291.2843)"
       x1="1128.5424"
       y1="-358.21252"
       x2="1128.5"
       y2="-350.88782" />
    <linearGradient
       inkscape:collect="always"
       xlink:href="#linearGradient3265-7"
       id="linearGradient4855"
       gradientUnits="userSpaceOnUse"
       gradientTransform="matrix(-1.9601035,0,0,1.9601035,3084.4205,1291.2843)"
       x1="1128.5424"
       y1="-358.21252"
       x2="1128.5"
       y2="-350.88782" />
    <linearGradient
       id="linearGradient3265-7-8"
       inkscape:collect="always">
      <stop
         id="stop3267-6-3"
         offset="0"
         style="stop-color:#a0692f;stop-opacity:1;" />
      <stop
         id="stop3269-0-6"
         offset="1"
         style="stop-color:#a0692f;stop-opacity:0;" />
    </linearGradient>
    <linearGradient
       y2="-435.80673"
       x2="919.21014"
       y1="-434.2847"
       x1="987.61987"
       gradientTransform="matrix(0.64156397,0,0,0.64156397,-240.46334,1048.4872)"
       gradientUnits="userSpaceOnUse"
       id="linearGradient3738"
       xlink:href="#linearGradient4094-1"
       inkscape:collect="always" />
    <linearGradient
       id="linearGradient4094-1">
      <stop
         id="stop4096-9"
         offset="0"
         style="stop-color:#52676c;stop-opacity:1;" />
      <stop
         id="stop4098-2"
         offset="1"
         style="stop-color:#52676c;stop-opacity:0;" />
    </linearGradient>
    <linearGradient
       id="linearGradient3310"
       inkscape:collect="always">
      <stop
         id="stop3312"
         offset="0"
         style="stop-color:#0b2228;stop-opacity:1;" />
      <stop
         id="stop3314"
         offset="1"
         style="stop-color:#0b2228;stop-opacity:0;" />
    </linearGradient>
    <linearGradient
       id="linearGradient4122-9"
       inkscape:collect="always">
      <stop
         id="stop4124-7"
         offset="0"
         style="stop-color:#1c2224;stop-opacity:1;" />
      <stop
         id="stop4126-6"
         offset="1"
         style="stop-color:#1c2224;stop-opacity:0" />
    </linearGradient>
    <linearGradient
       inkscape:collect="always"
       xlink:href="#linearGradient3310"
       id="linearGradient6795"
       gradientUnits="userSpaceOnUse"
       x1="1748.3407"
       y1="-227.81718"
       x2="1759.3722"
       y2="-149.25218" />
    <linearGradient
       inkscape:collect="always"
       xlink:href="#linearGradient4122-9"
       id="linearGradient6814"
       gradientUnits="userSpaceOnUse"
       gradientTransform="matrix(0.76362355,0,0,0.76362355,-529.2141,788.2198)"
       x1="1627.4237"
       y1="-275.98389"
       x2="1568.8258"
       y2="-208.25383" />
    <linearGradient
       inkscape:collect="always"
       id="linearGradient4871">
      <stop
         style="stop-color:#241c1f;stop-opacity:0.37777778"
         offset="0"
         id="stop4873" />
      <stop
         style="stop-color:#241c1f;stop-opacity:0;"
         offset="1"
         id="stop4875" />
    </linearGradient>
    <radialGradient
       inkscape:collect="always"
       xlink:href="#linearGradient4871"
       id="radialGradient4631"
       gradientUnits="userSpaceOnUse"
       gradientTransform="matrix(1.6682146,1.6471163,-0.88417937,0.89550496,-1046.6412,-1706.4218)"
       cx="1014.4006"
       cy="-408.6366"
       fx="1014.4006"
       fy="-408.6366"
       r="120.84957" />
    <linearGradient
       y2="-341.95212"
       x2="1033.103"
       y1="-312.79977"
       x1="1033.9359"
       gradientUnits="userSpaceOnUse"
       id="linearGradient4392"
       xlink:href="#linearGradient3219"
       inkscape:collect="always" />
    <linearGradient
       y2="-341.95212"
       x2="1033.103"
       y1="-312.79977"
       x1="1033.9359"
       gradientUnits="userSpaceOnUse"
       id="linearGradient4390"
       xlink:href="#linearGradient3209"
       inkscape:collect="always" />
    <linearGradient
       inkscape:collect="always"
       id="linearGradient3219">
      <stop
         style="stop-color:#3e4837;stop-opacity:1"
         offset="0"
         id="stop3221" />
      <stop
         style="stop-color:#e5ffd5;stop-opacity:0;"
         offset="1"
         id="stop3223" />
    </linearGradient>
    <linearGradient
       id="linearGradient3209"
       inkscape:collect="always">
      <stop
         id="stop3211"
         offset="0"
         style="stop-color:#3e4837;stop-opacity:1" />
      <stop
         id="stop3213"
         offset="1"
         style="stop-color:#e5ffd5;stop-opacity:0;" />
    </linearGradient>
    <linearGradient
       y2="-299.90375"
       x2="1731.0365"
       y1="-347.02103"
       x1="1621.358"
       gradientTransform="matrix(1.3519879,0,0,1.3519879,-2458.2999,1401.0995)"
       gradientUnits="userSpaceOnUse"
       id="linearGradient4525"
       xlink:href="#linearGradient4136"
       inkscape:collect="always" />
    <linearGradient
       id="linearGradient4136"
       inkscape:collect="always">
      <stop
         id="stop4138"
         offset="0"
         style="stop-color:#000000;stop-opacity:1" />
      <stop
         id="stop4140"
         offset="1"
         style="stop-color:#2b1100;stop-opacity:0;" />
    </linearGradient>
    <linearGradient
       id="linearGradient3449"
       inkscape:collect="always">
      <stop
         id="stop3451"
         offset="0"
         style="stop-color:#000000;stop-opacity:1;" />
      <stop
         id="stop3453"
         offset="1"
         style="stop-color:#000000;stop-opacity:0;" />
    </linearGradient>
    <linearGradient
       id="linearGradient4233"
       inkscape:collect="always">
      <stop
         id="stop4235"
         offset="0"
         style="stop-color:#000000;stop-opacity:1;" />
      <stop
         id="stop4237"
         offset="1"
         style="stop-color:#000000;stop-opacity:0;" />
    </linearGradient>
    <linearGradient
       id="linearGradient4283"
       inkscape:collect="always">
      <stop
         id="stop4285"
         offset="0"
         style="stop-color:#2b1100;stop-opacity:1;" />
      <stop
         id="stop4287"
         offset="1"
         style="stop-color:#2b1100;stop-opacity:0;" />
    </linearGradient>
    <linearGradient
       inkscape:collect="always"
       xlink:href="#linearGradient4283"
       id="linearGradient6031"
       gradientUnits="userSpaceOnUse"
       gradientTransform="translate(-2538.9898,1459.867)"
       x1="503.56857"
       y1="-348.85837"
       x2="512.40308"
       y2="-335.29108" />
    <linearGradient
       inkscape:collect="always"
       xlink:href="#linearGradient3449"
       id="linearGradient6033"
       gradientUnits="userSpaceOnUse"
       gradientTransform="translate(-2538.9898,1459.867)"
       x1="535.43597"
       y1="-304.05469"
       x2="522.1842"
       y2="-302.79257" />
    <linearGradient
       inkscape:collect="always"
       xlink:href="#linearGradient4233"
       id="linearGradient6035"
       gradientUnits="userSpaceOnUse"
       gradientTransform="translate(-2538.9898,1459.867)"
       x1="492.84091"
       y1="-285.43903"
       x2="581.34399"
       y2="-291.27615" />
    <linearGradient
       id="linearGradient4817"
       inkscape:collect="always">
      <stop
         id="stop4819"
         offset="0"
         style="stop-color:#917c6f;stop-opacity:1;" />
      <stop
         id="stop4821"
         offset="1"
         style="stop-color:#2b1100;stop-opacity:1" />
    </linearGradient>
    <linearGradient
       inkscape:collect="always"
       id="linearGradient5172">
      <stop
         style="stop-color:#502d16;stop-opacity:1;"
         offset="0"
         id="stop5174" />
      <stop
         style="stop-color:#917c6f;stop-opacity:1"
         offset="1"
         id="stop5176" />
    </linearGradient>
    <linearGradient
       id="linearGradient5181">
      <stop
         id="stop5183"
         offset="0"
         style="stop-color:#907b6e;stop-opacity:1" />
      <stop
         style="stop-color:#7a6356;stop-opacity:1;"
         offset="0.75249761"
         id="stop5191" />
      <stop
         style="stop-color:#644c3e;stop-opacity:1;"
         offset="0.812451"
         id="stop5189" />
      <stop
         id="stop5185"
         offset="1"
         style="stop-color:#381e0e;stop-opacity:1" />
    </linearGradient>
    <linearGradient
       inkscape:collect="always"
       id="linearGradient5193">
      <stop
         style="stop-color:#826c5f;stop-opacity:1"
         offset="0"
         id="stop5195" />
      <stop
         style="stop-color:#502d16;stop-opacity:1"
         offset="1"
         id="stop5197" />
    </linearGradient>
    <linearGradient
       inkscape:collect="always"
       xlink:href="#linearGradient4817"
       id="linearGradient5870"
       gradientUnits="userSpaceOnUse"
       gradientTransform="matrix(0.89679722,0,0,0.89679722,-2045.7805,1424)"
       x1="660.06604"
       y1="-501.25412"
       x2="616.52441"
       y2="-327.7186" />
    <linearGradient
       inkscape:collect="always"
       xlink:href="#linearGradient5181"
       id="linearGradient5872"
       gradientUnits="userSpaceOnUse"
       gradientTransform="translate(-1159.9752,1449.158)"
       x1="-276.65112"
       y1="-462.97198"
       x2="-282.89807"
       y2="-279.57907" />
    <linearGradient
       inkscape:collect="always"
       xlink:href="#linearGradient5172"
       id="linearGradient5874"
       gradientUnits="userSpaceOnUse"
       gradientTransform="matrix(0.89679722,0,0,0.89679722,-2045.7805,1424)"
       x1="533.96741"
       y1="-432.47049"
       x2="555.86011"
       y2="-240.41187" />
    <linearGradient
       inkscape:collect="always"
       xlink:href="#linearGradient4817"
       id="linearGradient5876"
       gradientUnits="userSpaceOnUse"
       gradientTransform="matrix(0.82173933,0,0,0.82173933,-2014.5348,1366.3891)"
       x1="626.62103"
       y1="-258.30438"
       x2="602.01056"
       y2="-402.81216" />
    <linearGradient
       inkscape:collect="always"
       xlink:href="#linearGradient5193"
       id="linearGradient5878"
       gradientUnits="userSpaceOnUse"
       gradientTransform="matrix(0.89679722,0,0,0.89679722,-2020.1702,1428.0016)"
       x1="564.45752"
       y1="-396.48645"
       x2="567.13477"
       y2="-318.39944" />
    <linearGradient
       id="linearGradient3338"
       inkscape:collect="always">
      <stop
         id="stop3340"
         offset="0"
         style="stop-color:#beb7c8;stop-opacity:1;" />
      <stop
         id="stop3342"
         offset="1"
         style="stop-color:#5d536c;stop-opacity:1" />
    </linearGradient>
    <linearGradient
       inkscape:collect="always"
       id="linearGradient3360">
      <stop
         style="stop-color:#474052;stop-opacity:1"
         offset="0"
         id="stop3362" />
      <stop
         style="stop-color:#5d536c;stop-opacity:1"
         offset="1"
         id="stop3364" />
    </linearGradient>
    <linearGradient
       inkscape:collect="always"
       id="linearGradient3380">
      <stop
         style="stop-color:#857c92;stop-opacity:1"
         offset="0"
         id="stop3382" />
      <stop
         style="stop-color:#5d536c;stop-opacity:1"
         offset="1"
         id="stop3384" />
    </linearGradient>
    <linearGradient
       id="linearGradient3394"
       inkscape:collect="always">
      <stop
         id="stop3396"
         offset="0"
         style="stop-color:#675d76;stop-opacity:1" />
      <stop
         id="stop3398"
         offset="1"
         style="stop-color:#5d536c;stop-opacity:1" />
    </linearGradient>
    <linearGradient
       inkscape:collect="always"
       xlink:href="#linearGradient3394"
       id="linearGradient5534"
       gradientUnits="userSpaceOnUse"
       gradientTransform="translate(-1035.7984,1460.497)"
       x1="548.9787"
       y1="-310.0397"
       x2="511.74536"
       y2="-309.25769" />
    <linearGradient
       inkscape:collect="always"
       xlink:href="#linearGradient3380"
       id="linearGradient5539"
       gradientUnits="userSpaceOnUse"
       gradientTransform="translate(-1104.5149,1460.497)"
       x1="549.00745"
       y1="-310.31183"
       x2="511.80453"
       y2="-309.47519" />
    <radialGradient
       inkscape:collect="always"
       xlink:href="#linearGradient3338"
       id="radialGradient5551"
       gradientUnits="userSpaceOnUse"
       gradientTransform="matrix(0.51554821,-0.84568081,1.1288979,0.68820444,-643.46887,1694.073)"
       cx="423.07739"
       cy="-187.4471"
       fx="423.07739"
       fy="-187.4471"
       r="166.84651" />
    <linearGradient
       inkscape:collect="always"
       xlink:href="#linearGradient3360"
       id="linearGradient5555"
       gradientUnits="userSpaceOnUse"
       gradientTransform="translate(-1124.2237,1458.7504)"
       x1="452.13895"
       y1="-403.7587"
       x2="425.63535"
       y2="-424.26743" />
    <linearGradient
       inkscape:collect="always"
       xlink:href="#linearGradient3360"
       id="linearGradient5558"
       gradientUnits="userSpaceOnUse"
       gradientTransform="translate(-1124.2237,1458.7504)"
       x1="452.13895"
       y1="-403.7587"
       x2="425.63535"
       y2="-424.26743" />
    <linearGradient
       id="linearGradient4274">
      <stop
         id="stop4276"
         offset="0"
         style="stop-color:#241c1c;stop-opacity:1" />
      <stop
         style="stop-color:#483737;stop-opacity:1;"
         offset="0.15879123"
         id="stop4286" />
      <stop
         style="stop-color:#544141;stop-opacity:1"
         offset="0.50204235"
         id="stop4282" />
      <stop
         id="stop4284"
         offset="0.75"
         style="stop-color:#483737;stop-opacity:1;" />
      <stop
         id="stop4278"
         offset="1"
         style="stop-color:#241c1c;stop-opacity:1" />
    </linearGradient>
    <linearGradient
       id="linearGradient4300"
       inkscape:collect="always">
      <stop
         id="stop4302"
         offset="0"
         style="stop-color:#513f3f;stop-opacity:1" />
      <stop
         id="stop4304"
         offset="1"
         style="stop-color:#916f6f;stop-opacity:1" />
    </linearGradient>
    <linearGradient
       id="linearGradient4338"
       inkscape:collect="always">
      <stop
         id="stop4340"
         offset="0"
         style="stop-color:#5a4545;stop-opacity:1" />
      <stop
         id="stop4342"
         offset="1"
         style="stop-color:#6c5353;stop-opacity:1" />
    </linearGradient>
    <linearGradient
       inkscape:collect="always"
       xlink:href="#linearGradient4338"
       id="linearGradient5824"
       gradientUnits="userSpaceOnUse"
       gradientTransform="matrix(1.1870923,0,0,1.1870923,557.10763,972.51967)"
       x1="506.36237"
       y1="-254.24303"
       x2="505.8338"
       y2="-219.35794" />
    <linearGradient
       inkscape:collect="always"
       xlink:href="#linearGradient4300"
       id="linearGradient5826"
       gradientUnits="userSpaceOnUse"
       gradientTransform="matrix(0.83444929,0,0,0.83444929,695.02334,866.91126)"
       x1="521.0072"
       y1="-422.45435"
       x2="521.0072"
       y2="-338.73444" />
    <linearGradient
       inkscape:collect="always"
       xlink:href="#linearGradient4274"
       id="linearGradient5828"
       gradientUnits="userSpaceOnUse"
       gradientTransform="matrix(0.83444929,0,0,0.83444929,741.18088,866.91126)"
       x1="536.79242"
       y1="-366.81332"
       x2="556.42566"
       y2="-324.86945" />
    <linearGradient
       y2="-301.63974"
       x2="535.34979"
       y1="-301.92004"
       x1="538.38654"
       gradientTransform="translate(-25.414983,34.384977)"
       gradientUnits="userSpaceOnUse"
       id="linearGradient5544"
       xlink:href="#linearGradient3146"
       inkscape:collect="always" />
    <linearGradient
       id="linearGradient3146"
       inkscape:collect="always">
      <stop
         id="stop3148"
         offset="0"
         style="stop-color:#1c1c24;stop-opacity:1;" />
      <stop
         id="stop3150"
         offset="1"
         style="stop-color:#1c1c24;stop-opacity:0;" />
    </linearGradient>
    <linearGradient
       y2="-254.24301"
       x2="132.40479"
       y1="-254.24301"
       x1="159.62572"
       gradientTransform="translate(-47.042016,6.3427437)"
       gradientUnits="userSpaceOnUse"
       id="linearGradient4078"
       xlink:href="#linearGradient3139"
       inkscape:collect="always" />
    <linearGradient
       y2="-408.62561"
       x2="159.96489"
       y1="-417.59561"
       x1="192.85487"
       gradientTransform="translate(-63.427437,6.3427437)"
       gradientUnits="userSpaceOnUse"
       id="linearGradient4076"
       xlink:href="#linearGradient3117"
       inkscape:collect="always" />
    <linearGradient
       y2="-408.62561"
       x2="159.96489"
       y1="-417.59561"
       x1="192.85487"
       gradientTransform="matrix(1.6191115,1.2420631,-1.2420631,1.6191115,-653.89128,220.57021)"
       gradientUnits="userSpaceOnUse"
       id="linearGradient4074"
       xlink:href="#linearGradient3117"
       inkscape:collect="always" />
    <linearGradient
       id="linearGradient3117"
       inkscape:collect="always">
      <stop
         id="stop3119"
         offset="0"
         style="stop-color:#aa4400;stop-opacity:1;" />
      <stop
         id="stop3121"
         offset="1"
         style="stop-color:#783000;stop-opacity:1" />
    </linearGradient>
    <linearGradient
       id="linearGradient3139"
       inkscape:collect="always">
      <stop
         id="stop3141"
         offset="0"
         style="stop-color:#2b1100;stop-opacity:1;" />
      <stop
         id="stop3143"
         offset="1"
         style="stop-color:#2b1100;stop-opacity:0;" />
    </linearGradient>
    <linearGradient
       id="linearGradient3911"
       inkscape:collect="always">
      <stop
         id="stop3913"
         offset="0"
         style="stop-color:#241c1c;stop-opacity:1" />
      <stop
         id="stop3915"
         offset="1"
         style="stop-color:#784421;stop-opacity:0;" />
    </linearGradient>
    <linearGradient
       id="linearGradient3971"
       inkscape:collect="always">
      <stop
         id="stop3973"
         offset="0"
         style="stop-color:#917c6f;stop-opacity:1;" />
      <stop
         id="stop3975"
         offset="1"
         style="stop-color:#28170b;stop-opacity:1" />
    </linearGradient>
    <linearGradient
       inkscape:collect="always"
       xlink:href="#linearGradient3911"
       id="linearGradient3762"
       gradientUnits="userSpaceOnUse"
       gradientTransform="translate(0,-16.661873)"
       x1="519.29504"
       y1="-260.8017"
       x2="508.18713"
       y2="-300.37363" />
    <linearGradient
       inkscape:collect="always"
       xlink:href="#linearGradient3971"
       id="linearGradient3786"
       gradientUnits="userSpaceOnUse"
       gradientTransform="matrix(0.9140942,0,0,0.9140942,290.747,786.33643)"
       x1="441.53964"
       y1="-273.2981"
       x2="511.65836"
       y2="-286.14163" />
    <linearGradient
       id="linearGradient3578"
       inkscape:collect="always">
      <stop
         id="stop3580"
         offset="0"
         style="stop-color:#1f1c24;stop-opacity:1;" />
      <stop
         id="stop3582"
         offset="1"
         style="stop-color:#1f1c24;stop-opacity:0;" />
    </linearGradient>
    <linearGradient
       id="linearGradient3604"
       inkscape:collect="always">
      <stop
         id="stop3606"
         offset="0"
         style="stop-color:#211e26;stop-opacity:1;" />
      <stop
         id="stop3608"
         offset="1"
         style="stop-color:#211e26;stop-opacity:0;" />
    </linearGradient>
    <linearGradient
       inkscape:collect="always"
       xlink:href="#linearGradient3578"
       id="linearGradient3958"
       gradientUnits="userSpaceOnUse"
       gradientTransform="matrix(1.1100531,0,0,1.1100531,2863.0486,903.46763)"
       x1="-1887.6512"
       y1="-315.29987"
       x2="-1887.4778"
       y2="-254.37988" />
    <linearGradient
       inkscape:collect="always"
       xlink:href="#linearGradient3604"
       id="linearGradient3967"
       gradientUnits="userSpaceOnUse"
       gradientTransform="matrix(1.1100531,0,0,1.1100531,2931.5428,903.46763)"
       x1="-1801.6218"
       y1="-327.32669"
       x2="-1798.4309"
       y2="-249.51823" />
    <linearGradient
       inkscape:collect="always"
       xlink:href="#linearGradient3265-7-8"
       id="linearGradient6694"
       gradientUnits="userSpaceOnUse"
       gradientTransform="matrix(-1.9601035,0,0,1.9601035,3084.4205,1291.2843)"
       x1="1128.5424"
       y1="-358.21252"
       x2="1128.5"
       y2="-350.88782" />
    <linearGradient
       inkscape:collect="always"
       xlink:href="#linearGradient3265-7-8"
       id="linearGradient6696"
       gradientUnits="userSpaceOnUse"
       gradientTransform="matrix(1.9601035,0,0,1.9601035,-1268.7026,1291.2843)"
       x1="1128.5424"
       y1="-358.21252"
       x2="1128.5"
       y2="-350.88782" />
    <linearGradient
       inkscape:collect="always"
       xlink:href="#linearGradient3265-7-8"
       id="linearGradient9421"
       gradientUnits="userSpaceOnUse"
       gradientTransform="matrix(-1.9601035,0,0,1.9601035,3084.4205,1291.2843)"
       x1="1128.5424"
       y1="-358.21252"
       x2="1128.5"
       y2="-350.88782" />
    <linearGradient
       inkscape:collect="always"
       xlink:href="#linearGradient3265-7-8"
       id="linearGradient9423"
       gradientUnits="userSpaceOnUse"
       gradientTransform="matrix(1.9601035,0,0,1.9601035,-1268.7026,1291.2843)"
       x1="1128.5424"
       y1="-358.21252"
       x2="1128.5"
       y2="-350.88782" />
    <linearGradient
       inkscape:collect="always"
       xlink:href="#linearGradient4094-1"
       id="linearGradient9425"
       gradientUnits="userSpaceOnUse"
       gradientTransform="matrix(0.64156397,0,0,0.64156397,-240.46334,1048.4872)"
       x1="987.61987"
       y1="-434.2847"
       x2="919.21014"
       y2="-435.80673" />
    <linearGradient
       inkscape:collect="always"
       xlink:href="#linearGradient4122-9"
       id="linearGradient9427"
       gradientUnits="userSpaceOnUse"
       gradientTransform="matrix(0.76362355,0,0,0.76362355,-529.2141,788.2198)"
       x1="1627.4237"
       y1="-275.98389"
       x2="1568.8258"
       y2="-208.25383" />
    <linearGradient
       inkscape:collect="always"
       xlink:href="#linearGradient3310"
       id="linearGradient9429"
       gradientUnits="userSpaceOnUse"
       x1="1748.3407"
       y1="-227.81718"
       x2="1759.3722"
       y2="-149.25218" />
    <radialGradient
       inkscape:collect="always"
       xlink:href="#linearGradient4871"
       id="radialGradient9431"
       gradientUnits="userSpaceOnUse"
       gradientTransform="matrix(1.6682146,1.6471163,-0.88417937,0.89550496,-1046.6412,-1706.4218)"
       cx="1014.4006"
       cy="-408.6366"
       fx="1014.4006"
       fy="-408.6366"
       r="120.84957" />
    <linearGradient
       inkscape:collect="always"
       xlink:href="#linearGradient3209"
       id="linearGradient9433"
       gradientUnits="userSpaceOnUse"
       x1="1033.9359"
       y1="-312.79977"
       x2="1033.103"
       y2="-341.95212" />
    <linearGradient
       inkscape:collect="always"
       xlink:href="#linearGradient3219"
       id="linearGradient9435"
       gradientUnits="userSpaceOnUse"
       x1="1033.9359"
       y1="-312.79977"
       x2="1033.103"
       y2="-341.95212" />
    <linearGradient
       inkscape:collect="always"
       xlink:href="#linearGradient4136"
       id="linearGradient9437"
       gradientUnits="userSpaceOnUse"
       gradientTransform="matrix(1.3519879,0,0,1.3519879,-2458.2999,1401.0995)"
       x1="1621.358"
       y1="-347.02103"
       x2="1731.0365"
       y2="-299.90375" />
    <linearGradient
       inkscape:collect="always"
       xlink:href="#linearGradient4283"
       id="linearGradient9439"
       gradientUnits="userSpaceOnUse"
       gradientTransform="translate(-2538.9898,1459.867)"
       x1="503.56857"
       y1="-348.85837"
       x2="512.40308"
       y2="-335.29108" />
    <linearGradient
       inkscape:collect="always"
       xlink:href="#linearGradient3449"
       id="linearGradient9441"
       gradientUnits="userSpaceOnUse"
       gradientTransform="translate(-2538.9898,1459.867)"
       x1="535.43597"
       y1="-304.05469"
       x2="522.1842"
       y2="-302.79257" />
    <linearGradient
       inkscape:collect="always"
       xlink:href="#linearGradient4233"
       id="linearGradient9443"
       gradientUnits="userSpaceOnUse"
       gradientTransform="translate(-2538.9898,1459.867)"
       x1="492.84091"
       y1="-285.43903"
       x2="581.34399"
       y2="-291.27615" />
    <linearGradient
       inkscape:collect="always"
       xlink:href="#linearGradient4817"
       id="linearGradient9445"
       gradientUnits="userSpaceOnUse"
       gradientTransform="matrix(0.89679722,0,0,0.89679722,-2045.7805,1424)"
       x1="660.06604"
       y1="-501.25412"
       x2="616.52441"
       y2="-327.7186" />
    <linearGradient
       inkscape:collect="always"
       xlink:href="#linearGradient5181"
       id="linearGradient9447"
       gradientUnits="userSpaceOnUse"
       gradientTransform="translate(-1159.9752,1449.158)"
       x1="-276.65112"
       y1="-462.97198"
       x2="-282.89807"
       y2="-279.57907" />
    <linearGradient
       inkscape:collect="always"
       xlink:href="#linearGradient5172"
       id="linearGradient9449"
       gradientUnits="userSpaceOnUse"
       gradientTransform="matrix(0.89679722,0,0,0.89679722,-2045.7805,1424)"
       x1="533.96741"
       y1="-432.47049"
       x2="555.86011"
       y2="-240.41187" />
    <linearGradient
       inkscape:collect="always"
       xlink:href="#linearGradient4817"
       id="linearGradient9451"
       gradientUnits="userSpaceOnUse"
       gradientTransform="matrix(0.82173933,0,0,0.82173933,-2014.5348,1366.3891)"
       x1="626.62103"
       y1="-258.30438"
       x2="602.01056"
       y2="-402.81216" />
    <linearGradient
       inkscape:collect="always"
       xlink:href="#linearGradient5193"
       id="linearGradient9453"
       gradientUnits="userSpaceOnUse"
       gradientTransform="matrix(0.89679722,0,0,0.89679722,-2020.1702,1428.0016)"
       x1="564.45752"
       y1="-396.48645"
       x2="567.13477"
       y2="-318.39944" />
    <linearGradient
       inkscape:collect="always"
       xlink:href="#linearGradient3360"
       id="linearGradient9455"
       gradientUnits="userSpaceOnUse"
       gradientTransform="translate(-1124.2237,1458.7504)"
       x1="452.13895"
       y1="-403.7587"
       x2="425.63535"
       y2="-424.26743" />
    <linearGradient
       inkscape:collect="always"
       xlink:href="#linearGradient3360"
       id="linearGradient9457"
       gradientUnits="userSpaceOnUse"
       gradientTransform="translate(-1124.2237,1458.7504)"
       x1="452.13895"
       y1="-403.7587"
       x2="425.63535"
       y2="-424.26743" />
    <radialGradient
       inkscape:collect="always"
       xlink:href="#linearGradient3338"
       id="radialGradient9459"
       gradientUnits="userSpaceOnUse"
       gradientTransform="matrix(0.51554821,-0.84568081,1.1288979,0.68820444,-643.46887,1694.073)"
       cx="423.07739"
       cy="-187.4471"
       fx="423.07739"
       fy="-187.4471"
       r="166.84651" />
    <linearGradient
       inkscape:collect="always"
       xlink:href="#linearGradient3380"
       id="linearGradient9461"
       gradientUnits="userSpaceOnUse"
       gradientTransform="translate(-1104.5149,1460.497)"
       x1="549.00745"
       y1="-310.31183"
       x2="511.80453"
       y2="-309.47519" />
    <linearGradient
       inkscape:collect="always"
       xlink:href="#linearGradient3394"
       id="linearGradient9463"
       gradientUnits="userSpaceOnUse"
       gradientTransform="translate(-1035.7984,1460.497)"
       x1="548.9787"
       y1="-310.0397"
       x2="511.74536"
       y2="-309.25769" />
    <linearGradient
       inkscape:collect="always"
       xlink:href="#linearGradient4338"
       id="linearGradient9465"
       gradientUnits="userSpaceOnUse"
       gradientTransform="matrix(1.1870923,0,0,1.1870923,557.10763,972.51967)"
       x1="506.36237"
       y1="-254.24303"
       x2="505.8338"
       y2="-219.35794" />
    <linearGradient
       inkscape:collect="always"
       xlink:href="#linearGradient4300"
       id="linearGradient9467"
       gradientUnits="userSpaceOnUse"
       gradientTransform="matrix(0.83444929,0,0,0.83444929,695.02334,866.91126)"
       x1="521.0072"
       y1="-422.45435"
       x2="521.0072"
       y2="-338.73444" />
    <linearGradient
       inkscape:collect="always"
       xlink:href="#linearGradient4274"
       id="linearGradient9469"
       gradientUnits="userSpaceOnUse"
       gradientTransform="matrix(0.83444929,0,0,0.83444929,741.18088,866.91126)"
       x1="536.79242"
       y1="-366.81332"
       x2="556.42566"
       y2="-324.86945" />
    <linearGradient
       inkscape:collect="always"
       xlink:href="#linearGradient3146"
       id="linearGradient9471"
       gradientUnits="userSpaceOnUse"
       gradientTransform="translate(-25.414983,34.384977)"
       x1="538.38654"
       y1="-301.92004"
       x2="535.34979"
       y2="-301.63974" />
    <linearGradient
       inkscape:collect="always"
       xlink:href="#linearGradient3117"
       id="linearGradient9473"
       gradientUnits="userSpaceOnUse"
       gradientTransform="matrix(1.6191115,1.2420631,-1.2420631,1.6191115,-653.89128,220.57021)"
       x1="192.85487"
       y1="-417.59561"
       x2="159.96489"
       y2="-408.62561" />
    <linearGradient
       inkscape:collect="always"
       xlink:href="#linearGradient3117"
       id="linearGradient9475"
       gradientUnits="userSpaceOnUse"
       gradientTransform="translate(-63.427437,6.3427437)"
       x1="192.85487"
       y1="-417.59561"
       x2="159.96489"
       y2="-408.62561" />
    <linearGradient
       inkscape:collect="always"
       xlink:href="#linearGradient3139"
       id="linearGradient9477"
       gradientUnits="userSpaceOnUse"
       gradientTransform="translate(-47.042016,6.3427437)"
       x1="159.62572"
       y1="-254.24301"
       x2="132.40479"
       y2="-254.24301" />
    <linearGradient
       inkscape:collect="always"
       xlink:href="#linearGradient3971"
       id="linearGradient9479"
       gradientUnits="userSpaceOnUse"
       gradientTransform="matrix(0.9140942,0,0,0.9140942,290.747,786.33643)"
       x1="441.53964"
       y1="-273.2981"
       x2="511.65836"
       y2="-286.14163" />
    <linearGradient
       inkscape:collect="always"
       xlink:href="#linearGradient3911"
       id="linearGradient9481"
       gradientUnits="userSpaceOnUse"
       gradientTransform="translate(0,-16.661873)"
       x1="519.29504"
       y1="-260.8017"
       x2="508.18713"
       y2="-300.37363" />
    <linearGradient
       inkscape:collect="always"
       xlink:href="#linearGradient3604"
       id="linearGradient9483"
       gradientUnits="userSpaceOnUse"
       gradientTransform="matrix(1.1100531,0,0,1.1100531,2931.5428,903.46763)"
       x1="-1801.6218"
       y1="-327.32669"
       x2="-1798.4309"
       y2="-249.51823" />
    <linearGradient
       inkscape:collect="always"
       xlink:href="#linearGradient3578"
       id="linearGradient9485"
       gradientUnits="userSpaceOnUse"
       gradientTransform="matrix(1.1100531,0,0,1.1100531,2863.0486,903.46763)"
       x1="-1887.6512"
       y1="-315.29987"
       x2="-1887.4778"
       y2="-254.37988" />
    <linearGradient
       inkscape:collect="always"
       xlink:href="#linearGradient3117"
       id="linearGradient10606"
       gradientUnits="userSpaceOnUse"
       gradientTransform="matrix(1.6191115,1.2420631,-1.2420631,1.6191115,-653.89128,220.57021)"
       x1="192.85487"
       y1="-417.59561"
       x2="159.96489"
       y2="-408.62561" />
    <linearGradient
       inkscape:collect="always"
       xlink:href="#linearGradient3117"
       id="linearGradient10608"
       gradientUnits="userSpaceOnUse"
       gradientTransform="translate(-63.427437,6.3427437)"
       x1="192.85487"
       y1="-417.59561"
       x2="159.96489"
       y2="-408.62561" />
    <linearGradient
       inkscape:collect="always"
       xlink:href="#linearGradient3139"
       id="linearGradient10610"
       gradientUnits="userSpaceOnUse"
       gradientTransform="translate(-47.042016,6.3427437)"
       x1="159.62572"
       y1="-254.24301"
       x2="132.40479"
       y2="-254.24301" />
  </defs>
  <sodipodi:namedview
     id="base"
     pagecolor="#ffffff"
     bordercolor="#666666"
     borderopacity="1.0"
     inkscape:pageopacity="0.0"
     inkscape:pageshadow="2"
     inkscape:zoom="0.15874582"
     inkscape:cx="979.04775"
     inkscape:cy="376.90037"
     inkscape:document-units="px"
     inkscape:current-layer="layer1"
     showgrid="false"
     fit-margin-top="0"
     fit-margin-left="0"
     fit-margin-right="0"
     fit-margin-bottom="0"
     inkscape:window-width="1920"
     inkscape:window-height="1017"
     inkscape:window-x="0"
     inkscape:window-y="28"
     inkscape:window-maximized="1"
     showguides="true"
     inkscape:guide-bbox="true"
     inkscape:snap-grids="false"
     inkscape:snap-to-guides="false">
    <sodipodi:guide
       orientation="0,1"
       position="371.87981,1115.6394"
       id="guide6622" />
    <sodipodi:guide
       orientation="0,1"
       position="73.848474,189.89608"
       id="guide6624" />
    <sodipodi:guide
       orientation="1,0"
       position="363.96748,1521.806"
       id="guide6626" />
    <sodipodi:guide
       orientation="1,0"
       position="862.44468,1442.6827"
       id="guide6628" />
  </sodipodi:namedview>
  <metadata
     id="metadata7">
    <rdf:RDF>
      <cc:Work
         rdf:about="">
        <dc:format>image/svg+xml</dc:format>
        <dc:type
           rdf:resource="http://purl.org/dc/dcmitype/StillImage" />
        <dc:title></dc:title>
      </cc:Work>
    </rdf:RDF>
  </metadata>
  <g
     inkscape:label="Capa 1"
     inkscape:groupmode="layer"
     id="layer1"
     transform="translate(15278.44,186.36436)">
    <rect
       style="opacity:0.8;fill:#000000;fill-opacity:1;stroke:none"
       id="rect6564"
       width="23217.738"
       height="1351.7388"
       x="-15278.44"
       y="-186.36436" />
    <g
       id="g8137">
      <g
         transform="translate(-18187.058,30.525019)"
         id="g7678">
        <g
           style="font-size:204.73330688px;font-style:normal;font-variant:normal;font-weight:normal;font-stretch:normal;line-height:125%;letter-spacing:0px;word-spacing:0px;fill:#ffffff;fill-opacity:1;stroke:none;font-family:Short Stack;-inkscape-font-specification:Short Stack"
           id="text3044-09">
          <path
             inkscape:connector-curvature="0"
             d="m 3419.9625,548.41005 c -1e-4,-4.93171 0.9663,-9.6635 2.899,-14.19538 1.9993,-4.53183 4.5652,-9.19697 7.6975,-13.99544 4.1986,-6.46452 8.5639,-12.79578 13.0957,-18.99381 4.5319,-6.19792 9.0637,-12.46254 13.5956,-18.79388 4.5318,-6.33119 8.997,-12.86239 13.3957,-19.59362 4.4651,-6.73104 8.697,-13.86204 12.6958,-21.39303 l -15.9948,-0.8997 c -4.0654,-0.19982 -8.3306,-0.23314 -12.7958,-0.1 -4.4653,0.13341 -8.6972,0.33334 -12.6959,0.5998 -3.9987,0.20005 -7.5975,0.43331 -10.7964,0.69977 -3.1324,0.2667 -5.4316,0.39999 -6.8978,0.39987 -3.6655,1.2e-4 -6.6978,-1.0662 -9.097,-3.19895 -2.3993,-2.19917 -3.5989,-5.09822 -3.5989,-8.69717 0,-1.46606 0.2999,-2.69899 0.8997,-3.6988 0.5998,-1.06618 1.3996,-1.93257 2.3993,-2.59915 0.9996,-0.66631 2.1326,-1.16615 3.3989,-1.49951 1.3328,-0.33309 2.6657,-0.4997 3.9986,-0.49984 1.9994,1.4e-4 3.9321,0.0668 5.7982,0.19994 1.866,0.13342 3.732,0.30004 5.5981,0.49983 1.8661,0.20007 3.7321,0.36669 5.5982,0.49984 1.9327,0.13343 3.932,0.20007 5.9981,0.19994 4.5318,1.3e-4 9.1969,-0.0665 13.9954,-0.19994 4.7984,-0.13315 9.7967,-0.1998 14.9951,-0.19993 4.5318,1.3e-4 9.1969,0.1001 13.9955,0.2999 4.8649,0.13342 9.8966,0.43333 15.095,0.89971 0.9996,0.13342 1.7993,0.46664 2.3993,0.99967 0.6663,0.53329 1.1661,1.19974 1.4995,1.99935 0.3997,0.79987 0.6663,1.69957 0.7997,2.69912 0.1332,0.93316 0.1998,1.83286 0.1999,2.69912 -10e-5,1.26638 -0.5999,3.19908 -1.7994,5.79811 -1.133,2.53263 -2.6659,5.49833 -4.5985,8.8971 -1.9328,3.399 -4.1654,7.13112 -6.6978,11.19636 -2.5326,3.99879 -5.1984,8.09745 -7.9974,12.29599 -2.7992,4.13207 -5.6316,8.29738 -8.4972,12.49593 -2.8658,4.13206 -5.5983,7.99746 -8.1973,11.59622 -2.5326,3.59889 -4.8319,6.86449 -6.8978,9.79681 -2.0661,2.86579 -3.7322,5.16503 -4.9984,6.89775 -0.9331,1.33295 -2.1993,3.19901 -3.7987,5.59818 -1.5329,2.39926 -3.0991,4.93176 -4.6985,7.59753 -1.5995,2.66582 -3.0657,5.2983 -4.3986,7.89742 -1.3329,2.53253 -2.2659,4.59853 -2.7991,6.19798 l 60.7802,1.19961 c 1.6661,0.0667 3.4655,-0.0666 5.3983,-0.39987 1.9326,-0.3332 3.5987,-0.86636 4.9984,-1.59948 0.9329,-0.53313 2.1325,-1.16626 3.5988,-1.89938 1.5327,-0.79971 3.1655,-1.19958 4.8984,-1.19961 1.9326,3e-5 3.532,0.26661 4.7984,0.79974 1.2661,0.53319 2.2658,1.23296 2.999,2.09932 0.7997,0.8664 1.3661,1.8994 1.6995,3.09899 0.3331,1.13298 0.4997,2.33259 0.4998,3.59883 -1e-4,1.26626 -0.2,2.66581 -0.5998,4.19863 -0.4,1.4662 -0.9998,2.83242 -1.7994,4.09866 -0.7999,1.26626 -1.8329,2.33258 -3.099,3.19896 -1.1997,0.86639 -2.5993,1.29958 -4.1986,1.29958 -1.5996,0 -3.1324,-0.1 -4.5985,-0.2999 -1.3997,-0.26658 -2.7992,-0.53316 -4.1986,-0.79974 -1.3997,-0.33322 -2.7659,-0.63313 -4.0987,-0.89971 -1.333,-0.26658 -2.6992,-0.39987 -4.0987,-0.39987 -2.3993,0 -5.6982,0.16662 -9.8968,0.49984 -4.1987,0.26658 -8.8638,0.56648 -13.9954,0.89971 -5.1317,0.33322 -10.4966,0.66645 -16.0947,0.99967 -5.5316,0.26658 -10.8299,0.39987 -15.8949,0.39987 -1.133,0 -2.3326,0 -3.5988,0 -1.1997,-0.0667 -2.6325,-0.13329 -4.2986,-0.19994 -1.6662,-0.13328 -3.6988,-0.26657 -6.098,-0.39987 -2.3326,-0.19993 -5.2317,-0.43319 -8.6972,-0.69977 -2.9324,-0.26658 -4.8651,-1.13296 -5.7981,-2.59915 -0.933,-1.53283 -1.3996,-3.33224 -1.3995,-5.39824"
             id="path7044" />
          <path
             inkscape:connector-curvature="0"
             d="m 3556.618,548.31008 c -10e-5,-0.99966 0.8996,-2.93236 2.6991,-5.79811 1.7994,-2.93236 4.032,-6.43122 6.6978,-10.49658 2.7324,-4.06531 5.6648,-8.53052 8.7971,-13.39564 3.1323,-4.93168 5.998,-9.93005 8.5972,-14.99511 0.3332,-0.6664 1.2329,-1.96597 2.6991,-3.89873 1.4662,-1.93265 3.1656,-4.29854 5.0984,-7.09769 1.9993,-2.86567 4.0986,-6.06462 6.2979,-9.59687 2.1993,-3.59875 4.1986,-7.39751 5.9981,-11.39629 0.1332,-0.39979 0.1999,-0.69969 0.1999,-0.89971 0,-0.73301 -0.4666,-1.39945 -1.3995,-1.99935 -0.8665,-0.59971 -2.1994,-0.89961 -3.9987,-0.8997 -3.6656,9e-5 -7.331,0.13338 -10.9964,0.39986 -3.6656,0.26667 -7.3644,0.5999 -11.0964,0.99968 -3.6655,0.33331 -7.3976,0.63321 -11.1964,0.89971 -3.7988,0.26666 -7.6308,0.39995 -11.4962,0.39987 -1.3329,8e-5 -2.6325,-0.0666 -3.8988,-0.19994 -1.2662,-0.19985 -2.4325,-0.56639 -3.4988,-1.09964 -0.9997,-0.59972 -1.8328,-1.43278 -2.4992,-2.49919 -0.5998,-1.13287 -0.8997,-2.59906 -0.8997,-4.39856 0,-0.86629 0.1,-1.93261 0.2999,-3.19896 0.2666,-1.26616 0.6664,-2.46576 1.1996,-3.59883 0.5331,-1.1995 1.2329,-2.19918 2.0993,-2.99902 0.8664,-0.86628 1.8994,-1.29947 3.099,-1.29958 l 41.8864,0 c 2.0659,1.1e-4 4.0652,-0.0999 5.998,-0.2999 1.9993,-0.19983 3.9986,-0.39976 5.998,-0.59981 1.9993,-0.26647 4.032,-0.49972 6.0981,-0.69977 2.0659,-0.19982 4.1985,-0.29979 6.3979,-0.2999 1.7993,1.1e-4 3.2655,0.49995 4.3985,1.49951 1.1329,0.93314 2.0326,2.09942 2.6992,3.49886 0.733,1.333 1.2328,2.76587 1.4995,4.2986 0.2665,1.53293 0.3998,2.89915 0.3998,4.09867 0,4.39865 -0.8331,8.66393 -2.4991,12.79583 -1.6662,4.13206 -3.7322,8.1974 -6.198,12.19602 -2.466,3.93212 -5.1318,7.79753 -7.9974,11.59623 -2.7992,3.79881 -5.3317,7.56425 -7.5975,11.29632 l -18.494,27.79094 c -0.2666,0.33325 -0.3999,0.73312 -0.3999,1.19961 0,0.79976 0.4332,1.43289 1.2996,1.89938 0.933,0.39989 2.1326,0.66647 3.5988,0.79974 1.5328,0.13331 3.2322,0.19995 5.0984,0.19994 1.866,10e-6 3.7653,10e-6 5.6981,0 2.5324,10e-6 5.1649,-0.1 7.8974,-0.2999 2.799,-0.19992 5.5648,-0.53315 8.2973,-0.99968 2.799,-0.53314 5.5648,-1.23291 8.2973,-2.09931 2.7324,-0.93301 5.3315,-2.0993 7.7975,-3.49886 0.9329,-0.53314 1.8659,-0.79972 2.7991,-0.79974 1.3994,2e-5 2.6323,0.53318 3.6988,1.59948 1.1328,1.06634 2.0659,2.36591 2.7991,3.89873 0.7329,1.53285 1.2994,3.13232 1.6994,4.79843 0.3998,1.66614 0.5997,3.06568 0.5998,4.19863 -10e-5,1.26627 -0.2667,2.53252 -0.7997,3.79877 -0.5333,1.26626 -1.333,2.43254 -2.3993,3.49886 -0.9997,0.99967 -2.2327,1.79941 -3.6987,2.39922 -1.4663,0.66644 -3.1325,0.99967 -4.9984,0.99967 -1.333,0 -2.5659,-0.1 -3.6988,-0.2999 -1.0664,-0.13329 -2.0994,-0.29991 -3.099,-0.49984 -0.9998,-0.13329 -1.9994,-0.2999 -2.999,-0.49984 -0.9331,-0.13329 -1.9328,-0.19993 -2.9991,-0.19993 -3.4656,0 -6.6978,0.0333 -9.6968,0.1 -2.9991,0.0666 -5.9648,0.13329 -8.8971,0.19993 -2.8658,0.13329 -5.7982,0.23326 -8.7971,0.2999 -2.9991,0.0667 -6.2314,0.1 -9.6969,0.1 -2.5325,0 -5.165,-0.0667 -7.8974,-0.19993 -2.6658,-0.0667 -5.0984,-0.4332 -7.2976,-1.09965 -2.1993,-0.73309 -4.0321,-1.83273 -5.4982,-3.29892 -1.3996,-1.46619 -2.0994,-3.5655 -2.0993,-6.29795"
             id="path7046" />
        </g>
        <g
           style="font-size:120.21715546px;font-style:normal;font-weight:normal;line-height:125%;letter-spacing:0px;word-spacing:0px;fill:#ffffff;fill-opacity:1;stroke:none;font-family:Sans"
           id="text3048-309">
          <path
             inkscape:connector-curvature="0"
             d="m 3296.554,673.05251 c 0,-0.58699 0.5283,-1.72186 1.5849,-3.40459 1.0566,-1.72185 2.3676,-3.77634 3.9329,-6.16348 1.6044,-2.3871 3.3263,-5.00903 5.1656,-7.86577 1.8392,-2.89583 3.5219,-5.83081 5.0482,-8.80497 0.1956,-0.3913 0.7239,-1.15439 1.5849,-2.28929 0.8609,-1.13482 1.8587,-2.52405 2.9936,-4.16768 1.174,-1.68269 2.4067,-3.56108 3.6981,-5.63518 1.2914,-2.11315 2.4654,-4.34374 3.522,-6.69178 0.078,-0.23474 0.1174,-0.41084 0.1174,-0.52829 0,-0.43042 -0.274,-0.82175 -0.8218,-1.174 -0.5088,-0.35215 -1.2914,-0.52825 -2.348,-0.5283 -2.1523,5e-5 -4.3047,0.0783 -6.4569,0.2348 -2.1524,0.15659 -4.3243,0.35225 -6.5157,0.587 -2.1524,0.19572 -4.3438,0.37182 -6.5744,0.5283 -2.2306,0.15658 -4.4808,0.23485 -6.7505,0.2348 -0.7826,5e-5 -1.5457,-0.0391 -2.2893,-0.1174 -0.7435,-0.11735 -1.4283,-0.33258 -2.0545,-0.6457 -0.587,-0.35215 -1.0761,-0.84131 -1.4675,-1.4675 -0.3522,-0.66521 -0.5283,-1.52613 -0.5283,-2.58279 0,-0.50867 0.059,-1.1348 0.1761,-1.87839 0.1566,-0.74347 0.3914,-1.44787 0.7044,-2.11319 0.3131,-0.70434 0.724,-1.29134 1.2327,-1.76099 0.5088,-0.50867 1.1153,-0.76304 1.8197,-0.7631 l 24.5952,0 c 1.2131,6e-5 2.3871,-0.0586 3.522,-0.1761 1.174,-0.11734 2.348,-0.23474 3.522,-0.3522 1.174,-0.15647 2.3675,-0.29344 3.5807,-0.4109 1.2131,-0.11733 2.4653,-0.17603 3.7568,-0.1761 1.0565,7e-5 1.9175,0.29356 2.5828,0.8805 0.6652,0.54793 1.1935,1.23276 1.5849,2.05449 0.4304,0.78273 0.7239,1.62409 0.8805,2.52409 0.1565,0.90012 0.2347,1.70235 0.2348,2.40669 -1e-4,2.58285 -0.4892,5.08737 -1.4675,7.51358 -0.9784,2.4263 -2.1915,4.81342 -3.6394,7.16137 -1.448,2.3089 -3.0133,4.57862 -4.696,6.80917 -1.6436,2.23063 -3.1307,4.44165 -4.4612,6.63308 l -10.8594,16.31854 c -0.1566,0.19568 -0.2349,0.43047 -0.2348,0.7044 -10e-5,0.4696 0.2543,0.84137 0.7631,1.11529 0.5478,0.23481 1.2522,0.39134 2.1132,0.4696 0.9,0.0783 1.8979,0.11741 2.9936,0.1174 1.0957,10e-6 2.211,10e-6 3.3459,0 1.4871,10e-6 3.0328,-0.0587 4.6373,-0.1761 1.6436,-0.11739 3.2676,-0.31306 4.8721,-0.587 1.6435,-0.31305 3.2676,-0.72395 4.8721,-1.23269 1.6044,-0.54786 3.1306,-1.23269 4.5786,-2.0545 0.5478,-0.31305 1.0956,-0.46958 1.6436,-0.46959 0.8217,10e-6 1.5457,0.31308 2.1718,0.93919 0.6653,0.62615 1.2131,1.38924 1.6436,2.28929 0.4304,0.90008 0.7631,1.83927 0.9979,2.81759 0.2348,0.97834 0.3522,1.80014 0.3522,2.46539 0,0.74354 -0.1566,1.48707 -0.4696,2.2306 -0.3131,0.74353 -0.7827,1.42836 -1.4088,2.05449 -0.587,0.587 -1.311,1.0566 -2.1719,1.40879 -0.8609,0.39133 -1.8393,0.587 -2.9349,0.587 -0.7828,0 -1.5067,-0.0587 -2.1719,-0.1761 -0.6262,-0.0783 -1.2328,-0.1761 -1.8197,-0.2935 -0.5871,-0.0783 -1.1741,-0.1761 -1.761,-0.2935 -0.5479,-0.0783 -1.1349,-0.1174 -1.761,-0.1174 -2.035,0 -3.9329,0.0196 -5.6939,0.0587 -1.761,0.0391 -3.5024,0.0783 -5.2243,0.1174 -1.6827,0.0783 -3.4046,0.13697 -5.1656,0.1761 -1.761,0.0391 -3.6589,0.0587 -5.6938,0.0587 -1.4871,0 -3.0329,-0.0391 -4.6373,-0.1174 -1.5654,-0.0391 -2.9937,-0.25436 -4.2851,-0.64569 -1.2914,-0.43047 -2.3676,-1.07617 -3.2285,-1.9371 -0.8218,-0.86092 -1.2327,-2.09362 -1.2327,-3.69808"
             style="font-variant:normal;font-stretch:normal;font-family:Short Stack;-inkscape-font-specification:Short Stack"
             id="path7027" />
          <path
             inkscape:connector-curvature="0"
             d="m 3357.3083,647.6942 c 0,-6.06561 0.9783,-11.21162 2.935,-15.43804 1.9566,-4.22634 4.5198,-7.65049 7.6897,-10.27246 3.2089,-2.661 6.8287,-4.57853 10.8594,-5.75258 4.0698,-1.21307 8.2179,-1.81963 12.4444,-1.8197 4.8916,7e-5 9.2745,0.8023 13.1487,2.4067 3.9133,1.60452 7.22,3.91337 9.9203,6.92657 2.7001,3.01331 4.7742,6.67226 6.2222,10.97686 1.4478,4.26556 2.1718,9.05937 2.1719,14.38145 -1e-4,3.09154 -0.411,6.00696 -1.2327,8.74626 -0.8219,2.73934 -1.9568,5.283 -3.4046,7.63098 -1.448,2.30886 -3.1895,4.38292 -5.2243,6.22217 -1.9959,1.83927 -4.1873,3.42416 -6.5744,4.75468 -2.3872,1.2914 -4.9113,2.26973 -7.5723,2.93499 -2.6611,0.7044 -5.3613,1.0566 -8.1005,1.0566 -2.9742,0 -5.87,-0.4696 -8.6876,-1.4088 -2.7785,-0.90006 -5.4004,-2.15232 -7.8658,-3.75678 -2.4654,-1.60446 -4.7351,-3.46328 -6.8091,-5.57648 -2.035,-2.15231 -3.796,-4.4416 -5.283,-6.86788 -1.448,-2.42623 -2.5828,-4.93076 -3.4046,-7.51357 -0.8218,-2.58276 -1.2327,-5.12642 -1.2327,-7.63097 m 10.1551,-1.46749 c -1e-4,2.89588 0.6261,5.8113 1.8783,8.74626 1.2523,2.89588 2.8959,5.5178 4.9308,7.86577 2.0741,2.34801 4.4221,4.26553 7.044,5.75258 2.661,1.44794 5.3612,2.1719 8.1006,2.1719 2.9741,0 5.8503,-0.50873 8.6288,-1.5262 2.8176,-1.01745 5.283,-2.50451 7.3962,-4.46118 2.1523,-1.95665 3.8741,-4.34377 5.1656,-7.16138 1.2913,-2.81756 1.937,-6.02648 1.9371,-9.62676 -1e-4,-3.52195 -0.4892,-6.73087 -1.4675,-9.62676 -0.9393,-2.93495 -2.2502,-5.45904 -3.9329,-7.57228 -1.6828,-2.11314 -3.6981,-3.73716 -6.0461,-4.87208 -2.348,-1.17394 -4.8917,-1.76094 -7.6309,-1.76099 -3.0525,5e-5 -6.1244,0.48922 -9.2159,1.46749 -3.0916,0.93925 -5.8896,2.34804 -8.3941,4.22639 -2.4654,1.8393 -4.4807,4.12859 -6.0461,6.86787 -1.5653,2.73936 -2.348,5.90915 -2.3479,9.50937"
             style="font-variant:normal;font-stretch:normal;font-family:Short Stack;-inkscape-font-specification:Short Stack"
             id="path7029" />
          <path
             inkscape:connector-curvature="0"
             d="m 3441.5425,671.35021 c 0,-1.01745 0.059,-2.07405 0.1761,-3.16978 0.1174,-1.09572 0.1761,-2.15232 0.1761,-3.16979 0,-2.38711 -0.1174,-4.87207 -0.3522,-7.45488 -0.1957,-2.07403 -0.3131,-4.24592 -0.3522,-6.51567 0,-2.2697 0.078,-4.26549 0.2348,-5.98738 l 1.9371,-23.18641 c 0.1565,-1.87834 0.6261,-3.3654 1.4088,-4.46119 0.8218,-1.1348 2.2697,-1.70223 4.3438,-1.70229 0.8609,6e-5 1.6044,0.15659 2.2306,0.4696 0.6652,0.27399 1.2131,0.64576 1.6435,1.11529 0.4696,0.46966 0.8414,0.99796 1.1153,1.5849 0.2739,0.54792 0.4696,1.09579 0.587,1.64359 1.6045,-1.21307 3.3655,-2.2501 5.283,-3.11109 1.9175,-0.86086 3.8937,-1.56526 5.9287,-2.11319 2.0349,-0.5478 4.0894,-0.93913 6.1635,-1.174 2.074,-0.27386 4.0893,-0.41083 6.0461,-0.41089 1.6435,6e-5 3.5219,0.11746 5.6351,0.3522 2.1132,0.19573 4.109,0.64576 5.9874,1.35009 1.8783,0.70446 3.4632,1.72192 4.7547,3.05239 1.2913,1.33059 1.937,3.13071 1.9371,5.40038 -1e-4,1.60451 -0.5088,2.91547 -1.5262,3.93288 -0.9784,0.97838 -2.2894,1.46755 -3.9329,1.4675 -1.2523,5e-5 -2.2306,-0.27388 -2.935,-0.8218 -0.7044,-0.58694 -1.3306,-1.23264 -1.8784,-1.93709 -0.2348,-0.27388 -0.5088,-0.56738 -0.8218,-0.8805 -0.3131,-0.31301 -0.7631,-0.60651 -1.3501,-0.88049 -0.5479,-0.27388 -1.2719,-0.48911 -2.1719,-0.6457 -0.9001,-0.15648 -2.0545,-0.23475 -3.4632,-0.2348 -4.4221,5e-5 -8.2572,0.46965 -11.5052,1.40879 -3.2481,0.90012 -5.9287,2.32848 -8.0419,4.28509 -2.1132,1.9567 -3.6785,4.48079 -4.696,7.57227 -1.0174,3.05243 -1.5262,6.73094 -1.5262,11.03556 0,1.60449 0.02,3.13068 0.059,4.57858 0.039,1.40882 0.098,2.81762 0.1761,4.22639 0.1174,1.40881 0.2348,2.83717 0.3522,4.28508 0.1174,1.44794 0.2348,2.9937 0.3522,4.63728 0.078,1.25228 0.1957,2.54367 0.3522,3.87419 0.1566,1.33054 0.2348,2.62193 0.2348,3.87418 0,0.35221 -0.098,0.84137 -0.2935,1.4675 -0.1956,0.62613 -0.5283,1.25226 -0.9979,1.87839 -0.4304,0.587 -1.0174,1.1153 -1.7609,1.5849 -0.7045,0.43046 -1.585,0.64569 -2.6415,0.64569 -1.3697,0 -2.5046,-0.15653 -3.4046,-0.46959 -0.861,-0.31307 -1.5654,-0.78267 -2.1132,-1.4088 -0.5088,-0.66526 -0.861,-1.48706 -1.0566,-2.46539 -0.1957,-1.01746 -0.2935,-2.19145 -0.2935,-3.52199"
             style="font-variant:normal;font-stretch:normal;font-family:Short Stack;-inkscape-font-specification:Short Stack"
             id="path7031" />
          <path
             inkscape:connector-curvature="0"
             d="m 3509.6342,671.35021 c 0,-1.01745 0.059,-2.07405 0.1761,-3.16978 0.1174,-1.09572 0.1761,-2.15232 0.1761,-3.16979 0,-2.38711 -0.1174,-4.87207 -0.3522,-7.45488 -0.1957,-2.07403 -0.3131,-4.24592 -0.3522,-6.51567 0,-2.2697 0.078,-4.26549 0.2348,-5.98738 l 1.9371,-23.18641 c 0.1565,-1.87834 0.6261,-3.3654 1.4088,-4.46119 0.8218,-1.1348 2.2697,-1.70223 4.3438,-1.70229 0.8609,6e-5 1.6044,0.15659 2.2306,0.4696 0.6652,0.27399 1.2131,0.64576 1.6436,1.11529 0.4696,0.46966 0.8413,0.99796 1.1153,1.5849 0.2739,0.54792 0.4696,1.09579 0.587,1.64359 1.6044,-1.21307 3.3654,-2.2501 5.283,-3.11109 1.9174,-0.86086 3.8937,-1.56526 5.9286,-2.11319 2.0349,-0.5478 4.0894,-0.93913 6.1635,-1.174 2.074,-0.27386 4.0894,-0.41083 6.0461,-0.41089 1.6435,6e-5 3.5219,0.11746 5.6352,0.3522 2.1131,0.19573 4.1089,0.64576 5.9873,1.35009 1.8784,0.70446 3.4633,1.72192 4.7547,3.05239 1.2914,1.33059 1.9371,3.13071 1.9371,5.40038 0,1.60451 -0.5088,2.91547 -1.5262,3.93288 -0.9784,0.97838 -2.2893,1.46755 -3.9329,1.4675 -1.2523,5e-5 -2.2306,-0.27388 -2.9349,-0.8218 -0.7045,-0.58694 -1.3306,-1.23264 -1.8784,-1.93709 -0.2349,-0.27388 -0.5088,-0.56738 -0.8218,-0.8805 -0.3132,-0.31301 -0.7632,-0.60651 -1.3501,-0.88049 -0.548,-0.27388 -1.2719,-0.48911 -2.1719,-0.6457 -0.9001,-0.15648 -2.0546,-0.23475 -3.4633,-0.2348 -4.4221,5e-5 -8.2572,0.46965 -11.5052,1.40879 -3.2481,0.90012 -5.9287,2.32848 -8.0418,4.28509 -2.1133,1.9567 -3.6786,4.48079 -4.696,7.57227 -1.0175,3.05243 -1.5262,6.73094 -1.5262,11.03556 0,1.60449 0.019,3.13068 0.059,4.57858 0.039,1.40882 0.098,2.81762 0.1761,4.22639 0.1174,1.40881 0.2348,2.83717 0.3522,4.28508 0.1174,1.44794 0.2348,2.9937 0.3522,4.63728 0.078,1.25228 0.1956,2.54367 0.3522,3.87419 0.1565,1.33054 0.2348,2.62193 0.2348,3.87418 0,0.35221 -0.098,0.84137 -0.2935,1.4675 -0.1957,0.62613 -0.5283,1.25226 -0.9979,1.87839 -0.4305,0.587 -1.0175,1.1153 -1.761,1.5849 -0.7044,0.43046 -1.5849,0.64569 -2.6415,0.64569 -1.3697,0 -2.5045,-0.15653 -3.4046,-0.46959 -0.8609,-0.31307 -1.5653,-0.78267 -2.1132,-1.4088 -0.5087,-0.66526 -0.8609,-1.48706 -1.0566,-2.46539 -0.1957,-1.01746 -0.2935,-2.19145 -0.2935,-3.52199"
             style="font-variant:normal;font-stretch:normal;font-family:Short Stack;-inkscape-font-specification:Short Stack"
             id="path7033" />
          <path
             inkscape:connector-curvature="0"
             d="m 3588.5267,601.90837 c -0.6652,8e-5 -1.624,-0.15646 -2.8762,-0.4696 -1.2132,-0.35212 -2.4263,-0.86085 -3.6394,-1.52619 -1.174,-0.66519 -2.2111,-1.50655 -3.1111,-2.52409 -0.861,-1.01738 -1.2914,-2.21094 -1.2914,-3.58069 0,-0.66518 0.1369,-1.35001 0.4109,-2.05449 0.2739,-0.70431 0.6457,-1.35001 1.1153,-1.9371 0.5087,-0.5869 1.1153,-1.0565 1.8197,-1.40879 0.7044,-0.39124 1.487,-0.58691 2.348,-0.587 0.7435,9e-5 1.6631,0.29359 2.7589,0.8805 1.1348,0.58709 2.211,1.35018 3.2284,2.28929 1.0175,0.90015 1.898,1.91761 2.6415,3.05239 0.7435,1.09581 1.1153,2.17197 1.1153,3.22849 0,0.27401 -0.098,0.66534 -0.2935,1.17399 -0.1565,0.50881 -0.4305,1.01755 -0.8218,1.5262 -0.3522,0.50881 -0.8218,0.95884 -1.4088,1.35009 -0.5478,0.39141 -1.2131,0.58708 -1.9958,0.587 m -8.1592,72.84643 c -0.078,-0.31306 -0.1761,-0.91962 -0.2935,-1.81969 -0.078,-0.90006 -0.1761,-2.38712 -0.2935,-4.46119 -0.078,-2.07404 -0.1566,-4.87206 -0.2348,-8.39406 -0.039,-3.5611 -0.059,-8.13968 -0.059,-13.73575 0,-4.38288 0.2543,-8.86363 0.7631,-13.44225 0.5478,-4.61767 1.2131,-8.98102 1.9958,-13.09006 0.039,-0.35214 0.1761,-0.82173 0.4109,-1.40879 0.2739,-0.62607 0.6261,-1.23263 1.0566,-1.81969 0.4695,-0.62607 1.0174,-1.15437 1.6436,-1.5849 0.6261,-0.46953 1.35,-0.70433 2.1719,-0.7044 0.8609,7e-5 1.5653,0.1566 2.1131,0.4696 0.5479,0.274 0.9588,0.6849 1.2327,1.2327 0.3131,0.50879 0.5283,1.11536 0.6457,1.81969 0.1174,0.66533 0.1761,1.36972 0.1761,2.11319 0,2.07412 -0.078,4.36341 -0.2348,6.86788 -0.1565,2.46544 -0.3326,4.98953 -0.5283,7.57227 -0.1565,2.5437 -0.313,5.04822 -0.4696,7.51357 -0.1174,2.46543 -0.1761,4.69602 -0.1761,6.69178 0,1.76102 0.1174,3.75681 0.3522,5.98738 0.2739,2.23061 0.5674,4.5199 0.8805,6.86787 0.3522,2.34801 0.6457,4.65686 0.8805,6.92657 0.2739,2.2306 0.4109,4.26553 0.4109,6.10478 0,1.91753 -0.4892,3.40459 -1.4675,4.46119 -0.9783,1.01746 -2.074,1.52619 -3.2871,1.52619 -2.3481,0 -4.1091,-0.43047 -5.283,-1.2914 -1.174,-0.82179 -1.9763,-2.28928 -2.4067,-4.40248"
             style="font-variant:normal;font-stretch:normal;font-family:Short Stack;-inkscape-font-specification:Short Stack"
             id="path7035" />
          <path
             inkscape:connector-curvature="0"
             d="m 3616.1156,668.53262 c -0.1956,-0.90005 -0.2935,-1.87838 -0.2935,-2.93499 0,-1.05658 0,-2.09361 0,-3.11108 0,-2.62191 -0.059,-5.2047 -0.1761,-7.74838 -0.1174,-2.58276 -0.2543,-5.14598 -0.4108,-7.68967 -0.1175,-2.54362 -0.2349,-5.10684 -0.3522,-7.68967 -0.078,-2.58275 -0.078,-5.20467 0,-7.86577 l 0.4696,-30.64129 c -1e-4,-2.58271 0.3913,-4.67633 1.1739,-6.28087 0.7827,-1.60438 2.1915,-2.40661 4.2264,-2.40669 0.7435,8e-5 1.4088,0.15662 1.9958,0.46959 0.6261,0.31316 1.1544,0.72405 1.5849,1.2327 0.4305,0.46968 0.7631,0.99798 0.9979,1.58489 0.2348,0.58708 0.3522,1.15452 0.3522,1.7023 l 0,43.08564 c 0,4.26555 0.078,8.55063 0.2348,12.85525 0.1957,4.26554 0.6848,8.58975 1.4675,12.97265 0.1174,0.70441 0.2935,1.29141 0.5283,1.761 0.2739,0.43047 0.5674,0.78267 0.8805,1.05659 0.3522,0.23481 0.7239,0.39134 1.1153,0.4696 0.3913,0.0783 0.7631,0.11741 1.1153,0.1174 0.587,10e-6 1.0761,-0.11739 1.4675,-0.3522 0.3913,-0.27392 0.6848,-0.52829 0.8805,-0.7631 0.2348,-0.27392 0.4696,-0.52828 0.7044,-0.76309 0.2739,-0.27392 0.5674,-0.50872 0.8805,-0.7044 0.313,-0.23479 0.6848,-0.41089 1.1153,-0.5283 0.4695,-0.11739 1.0174,-0.17608 1.6436,-0.1761 0.7043,2e-5 1.3109,0.15655 1.8197,0.4696 0.5087,0.27395 0.9391,0.64571 1.2914,1.1153 0.3521,0.46961 0.6065,0.9979 0.7631,1.58489 0.1956,0.58701 0.2934,1.174 0.2935,1.76099 -1e-4,1.21314 -0.3719,2.32843 -1.1153,3.34589 -0.7045,0.97834 -1.6045,1.8197 -2.7002,2.52409 -1.0958,0.7044 -2.2894,1.25227 -3.5807,1.6436 -1.2914,0.39133 -2.5046,0.58699 -3.6394,0.58699 -4.0699,0.0783 -7.3571,-0.78266 -9.8616,-2.58279 -2.4654,-1.83925 -4.0894,-4.53944 -4.8721,-8.10057"
             style="font-variant:normal;font-stretch:normal;font-family:Short Stack;-inkscape-font-specification:Short Stack"
             id="path7037" />
          <path
             inkscape:connector-curvature="0"
             d="m 3656.9707,668.53262 c -0.1957,-0.90005 -0.2935,-1.87838 -0.2935,-2.93499 0,-1.05658 0,-2.09361 0,-3.11108 0,-2.62191 -0.059,-5.2047 -0.1761,-7.74838 -0.1174,-2.58276 -0.2544,-5.14598 -0.4109,-7.68967 -0.1174,-2.54362 -0.2348,-5.10684 -0.3522,-7.68967 -0.078,-2.58275 -0.078,-5.20467 0,-7.86577 l 0.4696,-30.64129 c 0,-2.58271 0.3913,-4.67633 1.174,-6.28087 0.7826,-1.60438 2.1914,-2.40661 4.2264,-2.40669 0.7435,8e-5 1.4087,0.15662 1.9958,0.46959 0.6261,0.31316 1.1544,0.72405 1.5849,1.2327 0.4304,0.46968 0.763,0.99798 0.9979,1.58489 0.2347,0.58708 0.3521,1.15452 0.3522,1.7023 l 0,43.08564 c -10e-5,4.26555 0.078,8.55063 0.2348,12.85525 0.1956,4.26554 0.6848,8.58975 1.4674,12.97265 0.1174,0.70441 0.2935,1.29141 0.5283,1.761 0.274,0.43047 0.5675,0.78267 0.8805,1.05659 0.3522,0.23481 0.724,0.39134 1.1153,0.4696 0.3913,0.0783 0.7631,0.11741 1.1153,0.1174 0.587,10e-6 1.0762,-0.11739 1.4675,-0.3522 0.3913,-0.27392 0.6848,-0.52829 0.8805,-0.7631 0.2348,-0.27392 0.4696,-0.52828 0.7044,-0.76309 0.2739,-0.27392 0.5674,-0.50872 0.8805,-0.7044 0.3131,-0.23479 0.6848,-0.41089 1.1153,-0.5283 0.4696,-0.11739 1.0174,-0.17608 1.6436,-0.1761 0.7044,2e-5 1.3109,0.15655 1.8197,0.4696 0.5087,0.27395 0.9392,0.64571 1.2914,1.1153 0.3522,0.46961 0.6065,0.9979 0.7631,1.58489 0.1956,0.58701 0.2935,1.174 0.2935,1.76099 0,1.21314 -0.3718,2.32843 -1.1153,3.34589 -0.7044,0.97834 -1.6045,1.8197 -2.7002,2.52409 -1.0958,0.7044 -2.2893,1.25227 -3.5807,1.6436 -1.2914,0.39133 -2.5045,0.58699 -3.6394,0.58699 -4.0698,0.0783 -7.357,-0.78266 -9.8615,-2.58279 -2.4654,-1.83925 -4.0895,-4.53944 -4.8721,-8.10057"
             style="font-variant:normal;font-stretch:normal;font-family:Short Stack;-inkscape-font-specification:Short Stack"
             id="path7039" />
          <path
             inkscape:connector-curvature="0"
             d="m 3693.071,647.6942 c 0,-6.06561 0.9784,-11.21162 2.935,-15.43804 1.9567,-4.22634 4.5199,-7.65049 7.6897,-10.27246 3.2089,-2.661 6.8287,-4.57853 10.8595,-5.75258 4.0698,-1.21307 8.2179,-1.81963 12.4443,-1.8197 4.8916,7e-5 9.2745,0.8023 13.1488,2.4067 3.9132,1.60452 7.22,3.91337 9.9202,6.92657 2.7002,3.01331 4.7742,6.67226 6.2222,10.97686 1.4479,4.26556 2.1718,9.05937 2.1719,14.38145 -10e-5,3.09154 -0.411,6.00696 -1.2327,8.74626 -0.8219,2.73934 -1.9567,5.283 -3.4046,7.63098 -1.448,2.30886 -3.1894,4.38292 -5.2243,6.22217 -1.9958,1.83927 -4.1873,3.42416 -6.5743,4.75468 -2.3872,1.2914 -4.9113,2.26973 -7.5723,2.93499 -2.6611,0.7044 -5.3613,1.0566 -8.1006,1.0566 -2.9741,0 -5.87,-0.4696 -8.6875,-1.4088 -2.7785,-0.90006 -5.4004,-2.15232 -7.8658,-3.75678 -2.4654,-1.60446 -4.7351,-3.46328 -6.8092,-5.57648 -2.0349,-2.15231 -3.7959,-4.4416 -5.283,-6.86788 -1.4479,-2.42623 -2.5828,-4.93076 -3.4046,-7.51357 -0.8218,-2.58276 -1.2327,-5.12642 -1.2327,-7.63097 m 10.1551,-1.46749 c 0,2.89588 0.6261,5.8113 1.8784,8.74626 1.2522,2.89588 2.8958,5.5178 4.9308,7.86577 2.074,2.34801 4.422,4.26553 7.044,5.75258 2.661,1.44794 5.3612,2.1719 8.1005,2.1719 2.9741,0 5.8504,-0.50873 8.6289,-1.5262 2.8175,-1.01745 5.2829,-2.50451 7.3962,-4.46118 2.1522,-1.95665 3.8741,-4.34377 5.1656,-7.16138 1.2913,-2.81756 1.937,-6.02648 1.937,-9.62676 0,-3.52195 -0.4892,-6.73087 -1.4675,-9.62676 -0.9392,-2.93495 -2.2502,-5.45904 -3.9328,-7.57228 -1.6828,-2.11314 -3.6982,-3.73716 -6.0461,-4.87208 -2.3481,-1.17394 -4.8917,-1.76094 -7.631,-1.76099 -3.0524,5e-5 -6.1244,0.48922 -9.2159,1.46749 -3.0915,0.93925 -5.8895,2.34804 -8.394,4.22639 -2.4654,1.8393 -4.4808,4.12859 -6.0461,6.86787 -1.5653,2.73936 -2.348,5.90915 -2.348,9.50937"
             style="font-variant:normal;font-stretch:normal;font-family:Short Stack;-inkscape-font-specification:Short Stack"
             id="path7041" />
        </g>
        <g
           transform="matrix(0.70133027,0,0,0.70133027,2972.5114,445.31816)"
           id="layer1-2-34"
           inkscape:label="Capa 1">
          <text
             sodipodi:linespacing="125%"
             id="text3197-72"
             y="535.85278"
             x="3592.4868"
             style="font-size:430.46691895px;font-style:normal;font-variant:normal;font-weight:bold;font-stretch:normal;text-align:start;line-height:125%;letter-spacing:0px;word-spacing:0px;writing-mode:lr-tb;text-anchor:start;fill:#ffffff;fill-opacity:1;stroke:none;font-family:Rudiment;-inkscape-font-specification:Rudiment Bold"
             xml:space="preserve"
             inkscape:export-filename="/home/david/work/pipo/textures/abeja.png"
             inkscape:export-xdpi="90"
             inkscape:export-ydpi="90"><tspan
               style="font-style:normal;font-weight:500;fill:#ffffff;-inkscape-font-specification:Rudiment Medium"
               y="535.85278"
               x="3592.4868"
               id="tspan3199-46"
               sodipodi:role="line" /></text>
          <text
             sodipodi:linespacing="125%"
             id="text3197-1-9"
             y="553.76141"
             x="2249.1658"
             style="font-size:218.20521545px;font-style:normal;font-variant:normal;font-weight:bold;font-stretch:normal;text-align:start;line-height:125%;letter-spacing:0px;word-spacing:0px;writing-mode:lr-tb;text-anchor:start;fill:#ffffff;fill-opacity:1;stroke:none;font-family:Rudiment;-inkscape-font-specification:Rudiment Bold"
             xml:space="preserve"
             inkscape:export-filename="/home/david/work/pipo/textures/abeja.png"
             inkscape:export-xdpi="90"
             inkscape:export-ydpi="90"><tspan
               style="font-style:normal;font-weight:500;fill:#ffffff;-inkscape-font-specification:Rudiment Medium"
               y="553.76141"
               x="2249.1658"
               id="tspan3199-7-0"
               sodipodi:role="line" /></text>
          <text
             sodipodi:linespacing="125%"
             id="text3197-5-7-9"
             y="599.66895"
             x="1285.3745"
             style="font-size:218.20521545px;font-style:normal;font-variant:normal;font-weight:bold;font-stretch:normal;text-align:start;line-height:125%;letter-spacing:0px;word-spacing:0px;writing-mode:lr-tb;text-anchor:start;fill:#ffffff;fill-opacity:1;stroke:none;font-family:Rudiment;-inkscape-font-specification:Rudiment Bold"
             xml:space="preserve"
             inkscape:export-filename="/home/david/work/pipo/textures/abeja.png"
             inkscape:export-xdpi="90"
             inkscape:export-ydpi="90"><tspan
               style="font-style:normal;font-weight:500;fill:#ffffff;-inkscape-font-specification:Rudiment Medium"
               y="599.66895"
               x="1285.3745"
               id="tspan3199-9-8-9"
               sodipodi:role="line" /></text>
          <g
             transform="matrix(0.83940963,0,0,0.83940963,114.31844,77.992321)"
             id="g4156">
            <path
               inkscape:connector-curvature="0"
               style="fill:#000000;stroke:#000000;stroke-width:10.30000019;stroke-linejoin:round;stroke-miterlimit:4;stroke-dasharray:none"
               d="m 284,454.5 c 1.53908,77.37946 16.8639,125.26456 64.25,196.21875 -13.23725,-0.46749 -25.42256,-1.02225 -36.84375,-1.0625 -51.39117,-0.18111 -88.57204,10.72737 -149.15625,93.4375 l -17.3125,-15.9375 8.84375,23.21875 -10.15625,8.71875 c -0.18662,-0.0155 -0.37188,-0.0312 -0.5625,-0.0312 -3.57763,0 -6.4913,2.79234 -6.71875,6.3125 l -24.625,21.125 12.71875,1.71875 -0.0312,-0.125 57.8125,7.21875 10.125,5.5625 -16.65625,0 0.5,9 44.96875,0 0,-9 -16.1875,0 7.09375,-6.4375 56.96875,-1.71875 7.9375,8.15625 -16.6875,0 0.5,9 44.96875,0 0,-9 -16.15625,0 8,-9.5 c 53.89366,-10.74507 52.125,-140.59375 52.125,-140.59375 -0.0869,-0.003 -0.1632,0.003 -0.25,0 4.17111,-3.0739 53.71855,-40.6454 53.2812,-91.5313 C 402.29362,506.15169 284,454.5 284,454.5 z"
               transform="translate(542.38977,-131.9005)"
               id="path4098" />
            <path
               style="fill:#1a1a1a;stroke:#ffffff"
               d="m 853.80768,517.76517 c -51.39117,-0.18111 -88.57204,10.72737 -149.15625,93.4375 l -17.3125,-15.9375 8.84375,23.21875 -42.0625,36.125 70.5,8.8125 10.125,5.5625 -16.65625,0 0.5,8.98909 44.96875,0 0,-8.98909 -16.1875,0 7.09375,-6.4375 56.96875,-1.71875 7.9375,8.15625 -16.6875,0 0.5,8.98909 44.96875,0 0,-8.98909 -16.15625,0 8,-9.5 c 53.89366,-10.74507 52.125,-140.59375 52.125,-140.59375 -13.83451,-0.4768 -26.453,-1.08321 -38.3125,-1.125 z"
               id="path3868"
               inkscape:connector-curvature="0"
               sodipodi:nodetypes="scccccccccccccccccccccs" />
            <path
               style="fill:none;stroke:#ffffff;stroke-width:1px;stroke-linecap:butt;stroke-linejoin:miter;stroke-opacity:1"
               d="m 826.19858,656.33225 c -0.35714,1.42857 -0.35714,21.42857 -0.35714,21.42857"
               id="path3870"
               inkscape:connector-curvature="0" />
            <path
               style="fill:none;stroke:#ffffff;stroke-width:1px;stroke-linecap:butt;stroke-linejoin:miter;stroke-opacity:1"
               d="m 807.10913,673.06668 0,4.29314"
               id="path3872"
               inkscape:connector-curvature="0" />
            <path
               inkscape:connector-curvature="0"
               id="path3874-5"
               d="m 811.78109,673.06668 0,4.29314"
               style="fill:none;stroke:#ffffff;stroke-width:1px;stroke-linecap:butt;stroke-linejoin:miter;stroke-opacity:1" />
            <path
               inkscape:connector-curvature="0"
               id="path3876-9"
               d="m 836.90863,673.82429 0,4.29314"
               style="fill:none;stroke:#ffffff;stroke-width:1px;stroke-linecap:butt;stroke-linejoin:miter;stroke-opacity:1" />
            <path
               style="fill:none;stroke:#ffffff;stroke-width:1px;stroke-linecap:butt;stroke-linejoin:miter;stroke-opacity:1"
               d="m 841.58059,673.82429 0,4.29314"
               id="path3878-9"
               inkscape:connector-curvature="0" />
            <g
               style="stroke:#ffffff"
               id="g3904"
               transform="translate(47.66283,-1.7288381)">
              <path
                 style="fill:none;stroke:#ffffff;stroke-width:1px;stroke-linecap:butt;stroke-linejoin:miter;stroke-opacity:1"
                 d="m 693.72785,658.52425 c -0.35714,1.42857 -0.35714,21.42857 -0.35714,21.42857"
                 id="path3882-4"
                 inkscape:connector-curvature="0" />
              <path
                 style="fill:none;stroke:#ffffff;stroke-width:1px;stroke-linecap:butt;stroke-linejoin:miter;stroke-opacity:1"
                 d="m 674.84602,674.63582 0,4.29314"
                 id="path3884-9"
                 inkscape:connector-curvature="0" />
              <path
                 inkscape:connector-curvature="0"
                 id="path3886-35"
                 d="m 679.51798,674.63582 0,4.29314"
                 style="fill:none;stroke:#ffffff;stroke-width:1px;stroke-linecap:butt;stroke-linejoin:miter;stroke-opacity:1" />
              <path
                 inkscape:connector-curvature="0"
                 id="path3888-1"
                 d="m 704.64552,675.39343 0,4.29314"
                 style="fill:none;stroke:#ffffff;stroke-width:1px;stroke-linecap:butt;stroke-linejoin:miter;stroke-opacity:1" />
              <path
                 style="fill:none;stroke:#ffffff;stroke-width:1px;stroke-linecap:butt;stroke-linejoin:miter;stroke-opacity:1"
                 d="m 709.31748,675.39343 0,4.29314"
                 id="path3890-3"
                 inkscape:connector-curvature="0" />
            </g>
            <g
               transform="matrix(0.20826873,0,0,0.20826873,489.28832,714.88664)"
               id="g3840">
              <path
                 inkscape:export-ydpi="90"
                 inkscape:export-xdpi="90"
                 inkscape:export-filename="/home/david/work/pipo/textures/abeja.png"
                 transform="matrix(0.52570076,0,0,0.52570076,1210.0487,-894.80758)"
                 d="m -448.50774,962.45862 c 0,34.0314 -27.5879,61.61928 -61.6193,61.61928 -34.03141,0 -61.61931,-27.58788 -61.61931,-61.61928 0,-34.0314 27.5879,-61.61931 61.61931,-61.61931 34.0314,0 61.6193,27.58791 61.6193,61.61931 z"
                 sodipodi:ry="61.619305"
                 sodipodi:rx="61.619305"
                 sodipodi:cy="962.45862"
                 sodipodi:cx="-510.12704"
                 id="path3842"
                 style="fill:#ffffff;fill-opacity:1;stroke:none"
                 sodipodi:type="arc" />
              <path
                 inkscape:export-ydpi="90"
                 inkscape:export-xdpi="90"
                 inkscape:export-filename="/home/david/work/pipo/textures/abeja.png"
                 transform="matrix(0.5334795,0,0,0.5334795,1194.5258,-906.53194)"
                 d="m -270.72089,972.56012 c 0,35.14718 -28.49243,63.63958 -63.63961,63.63958 -35.14719,0 -63.63961,-28.4924 -63.63961,-63.63958 0,-35.14719 28.49242,-63.63961 63.63961,-63.63961 35.14718,0 63.63961,28.49242 63.63961,63.63961 z"
                 sodipodi:ry="63.63961"
                 sodipodi:rx="63.63961"
                 sodipodi:cy="972.56012"
                 sodipodi:cx="-334.3605"
                 id="path3844"
                 style="fill:#ffffff;fill-opacity:1;stroke:none"
                 sodipodi:type="arc" />
              <path
                 inkscape:export-ydpi="90"
                 inkscape:export-xdpi="90"
                 inkscape:export-filename="/home/david/work/pipo/textures/abeja.png"
                 transform="matrix(0.31612792,0,0,0.31612792,1114.8567,-689.85072)"
                 sodipodi:type="arc"
                 style="fill:#000000;fill-opacity:1;stroke:none"
                 id="path3846"
                 sodipodi:cx="-510.12704"
                 sodipodi:cy="962.45862"
                 sodipodi:rx="61.619305"
                 sodipodi:ry="61.619305"
                 d="m -448.50774,962.45862 c 0,34.0314 -27.5879,61.61928 -61.6193,61.61928 -34.03141,0 -61.61931,-27.58788 -61.61931,-61.61928 0,-34.0314 27.5879,-61.61931 61.61931,-61.61931 34.0314,0 61.6193,27.58791 61.6193,61.61931 z" />
              <path
                 inkscape:export-ydpi="90"
                 inkscape:export-xdpi="90"
                 inkscape:export-filename="/home/david/work/pipo/textures/abeja.png"
                 sodipodi:type="arc"
                 style="fill:#000000;fill-opacity:1;stroke:none"
                 id="path3848"
                 sodipodi:cx="-334.3605"
                 sodipodi:cy="972.56012"
                 sodipodi:rx="63.63961"
                 sodipodi:ry="63.63961"
                 d="m -270.72089,972.56012 c 0,35.14718 -28.49243,63.63958 -63.63961,63.63958 -35.14719,0 -63.63961,-28.4924 -63.63961,-63.63958 0,-35.14719 28.49242,-63.63961 63.63961,-63.63961 35.14718,0 63.63961,28.49242 63.63961,63.63961 z"
                 transform="matrix(0.31612792,0,0,0.31612792,1108.9618,-692.81246)" />
            </g>
            <path
               style="fill:#ffffff;stroke:none"
               d="m 709.75568,618.99008 c 71.12318,-16.02351 127.91981,-51.4902 180.31223,-92.93403 -39.44455,52.24517 -95.16258,87.73822 -180.31223,92.93403 z"
               id="path3850"
               inkscape:connector-curvature="0"
               sodipodi:nodetypes="ccc" />
            <path
               sodipodi:nodetypes="ccc"
               inkscape:connector-curvature="0"
               id="path3852-9"
               d="m 885.52223,522.52051 c -71.12318,16.02351 -127.91981,51.4902 -180.31223,92.93403 39.44455,-52.24517 95.16258,-87.73822 180.31223,-92.93403 z"
               style="fill:#ffffff;stroke:none" />
            <path
               style="fill:#000000;stroke:#ffffff;stroke-width:1.11715531px;stroke-linecap:butt;stroke-linejoin:miter;stroke-opacity:1"
               d="m 891.07892,519.46624 c 0,0 54.51094,-39.00907 54.05457,-92.1074 -0.45638,-53.09831 -118.7353,-104.75545 -118.7353,-104.75545 1.54387,77.62043 16.9465,125.54294 64.68073,196.86285 z"
               id="path3854"
               inkscape:connector-curvature="0"
               sodipodi:nodetypes="czcc"
               inkscape:transform-center-x="6.4944336"
               inkscape:transform-center-y="-98.990005" />
            <path
               style="fill:#ffffff;stroke:none"
               d="m 891.13557,518.93898 c -3.65583,-44.21097 -65.67209,-125.87881 -59.8484,-194.10154 89.27169,53.64854 101.56124,134.57435 59.8484,194.10154 z"
               id="path3856"
               inkscape:connector-curvature="0"
               sodipodi:nodetypes="ccc"
               inkscape:transform-center-x="19.75219"
               inkscape:transform-center-y="-98.13661" />
            <path
               style="fill:#ff0000;fill-opacity:1;stroke:none"
               d="m 663.80768,646.29642 -9.6875,8.3125 12.71796,1.72383 z"
               id="rect3863"
               inkscape:connector-curvature="0"
               sodipodi:nodetypes="cccc" />
            <path
               style="fill:#1a1a1a;stroke:#ffffff;stroke-width:1px;stroke-linecap:butt;stroke-linejoin:miter;stroke-opacity:1"
               d="m 709.31648,620.05214 19.51631,-28.02874 -4.77527,31.35066"
               id="path4031"
               inkscape:connector-curvature="0" />
            <path
               inkscape:connector-curvature="0"
               id="path3894-0"
               d="m 713.13573,618.71409 14.48909,-21.81485 -5.40431,24.4695 z"
               style="fill:#ffd5d5;stroke:none"
               sodipodi:nodetypes="cccc" />
          </g>
        </g>
        <g
           transform="matrix(0.82769862,0,0,0.82769862,3226.4355,1.0503467)"
           id="layer1-24-4"
           inkscape:label="Capa 1"
           style="fill:#ffffff">
          <path
             inkscape:connector-curvature="0"
             id="path3925-0"
             d="m 530.37866,67.357525 c -7.4693,-0.074 -15.0858,2.3586 -21.125,8.0313 -8.0523,7.5637 -12.9188,19.9036 -13.8437,37.312505 a 7.1202884,7.1202884 0 0 0 -0.0313,0.375 l 0,95.0625 c -0.7721,-0.4716 -1.5686,-0.9 -2.375,-1.2813 -5.2917,-2.5023 -11.2315,-3.5414 -17.25,-3.4687 -2.0061,0.024 -4.0255,0.1776 -6.0312,0.4375 -8.0229,1.0395 -15.9728,3.9064 -22.2812,9.0625 -3.2239,2.6351 -6.0106,6.0372 -7.875,9.9687 -2.7042,-2.4631 -5.8603,-4.3787 -9.125,-5.8124 -4.9168,-2.1594 -10.1905,-3.3446 -15.4063,-3.375 -1.7386,-0.01 -3.4837,0.089 -5.1875,0.3437 -7.5431,1.1275 -15.0973,4.7039 -21.3125,9.9375 -1.8261,1.5377 -3.5524,3.2705 -5.0937,5.1562 -3.1407,-5.7021 -8.4687,-9.5922 -14.0938,-12.0624 -4.9169,-2.1594 -10.2217,-3.3446 -15.4375,-3.375 -1.7386,-0.01 -3.4526,0.089 -5.1563,0.3437 -7.5432,1.1275 -15.0972,4.7039 -21.3124,9.9375 -6.2152,5.2335 -11.4082,12.5483 -11.3126,21.5 0.2062,18.86 -3.4476,44.7889 1.5313,65.9062 1.251,5.3064 4.0013,9.9259 7.5937,13.8126 -9.1211,37.2773 -6.4786,64.2345 4.4688,83.2812 l -25.3125,-39.6875 -3.25,-2.75 -4.2187,-0.4063 -3.6876,2.0626 -1.875,3.8124 0.5938,4.1876 0.4375,0.75 30.625,48 3.25,2.75 4.2187,0.4062 3.6876,-2.0625 1.875,-3.8125 -0.5938,-4.1875 -0.4375,-0.75 -2.125,-3.3125 c 2.4709,3.5094 5.2725,6.7056 8.3437,9.625 12.2358,11.6311 28.1015,18.5346 45.4376,23.3438 l 0,24 a 7.1202884,7.1202884 0 1 0 14.2187,0 l 0,-20.5313 c 6.9348,1.4893 14.0156,2.7851 21.0937,4 a 7.1202884,7.1202884 0 1 0 2.4063,-14.0313 c -8.4894,-1.4571 -16.7709,-3.0374 -24.6563,-4.9062 a 7.1202884,7.1202884 0 0 0 -6.0624,-3.25 7.1202884,7.1202884 0 0 0 -3.2188,0.8438 c -15.9372,-4.4997 -29.7217,-10.5754 -39.4062,-19.7813 -15.1316,-14.3838 -22.4956,-36.7868 -13.375,-78.3437 5.5654,2.7912 11.6975,4.3662 17.9062,4.0312 8.0037,-0.4316 15.2991,-4.1759 21.1562,-9.375 2.5233,-2.2398 4.7846,-4.7554 6.6876,-7.5312 2.6611,3.7908 6.1046,7.027 9.9062,9.6562 6.8553,4.741 15.0346,7.6983 23.3438,7.25 8.0038,-0.4316 15.2991,-4.176 21.1562,-9.375 0.943,-0.8371 1.8181,-1.7401 2.6875,-2.6562 0.3449,4.7718 2.6191,9.0414 5.25,12.6562 3.4324,4.7159 7.8634,8.7677 12.2813,12.2812 2.2452,1.7857 4.4747,3.4441 6.5937,4.9063 -6.5378,4.7709 -10.7663,10.7048 -12.9063,17 -3.2673,9.6115 -2.7057,19.2553 -2.9687,27.625 a 7.1283587,7.1283587 0 1 0 14.25,0.4375 c 0.2852,-9.0744 0.1075,-17.3502 2.1875,-23.4688 1.9357,-5.6941 5.3441,-10.0697 14.5625,-13.75 l 72.6563,-2.6874 0.0624,0 a 7.1293846,7.1293846 0 1 0 -0.5,-14.25 l -0.0312,0 -0.1562,0 -71.375,2.2187 c -2.5142,-1.4474 -7.6274,-4.4611 -13.5313,-9.1563 -3.8169,-3.0354 -7.4187,-6.4999 -9.625,-9.5312 -2.2063,-3.0314 -2.6506,-5.1651 -2.4687,-6.125 0.6518,-3.4395 2.4511,-6.5036 5.2187,-9.2188 4.2381,-3.35 8.7167,-5.9954 13.3437,-8 7.5372,-2.9113 16.5362,-4.5505 24.75,-5.125 1.9671,-0.019 3.9289,0.045 5.875,0.1876 a 7.1202884,7.1202884 0 0 0 2.9688,-0.4063 c 0.01,3e-4 0.0212,-3e-4 0.0312,0 16.9616,0.5381 39.9848,4.5905 57.8126,12.5 8.9139,3.9548 16.4918,8.8896 21.5,14.3437 5.0082,5.4541 7.5554,11.1213 7.4062,18.0938 -0.6648,31.0526 -13.0862,46.5168 -28.4062,55.5312 -15.32,9.0146 -34.2852,10.774 -46.1563,10.4063 a 7.1202884,7.1202884 0 0 0 -7.3437,7.25 l 0.9062,51.3125 a 7.1202884,7.1202884 0 1 0 14.2188,-0.25 l -0.7813,-44.1875 c 13.2699,-0.3766 30.527,-2.9247 46.375,-12.25 18.9146,-11.1296 34.6883,-32.5078 35.4375,-67.5 0.2331,-10.8892 -4.2624,-20.555 -11.1562,-28.0625 -6.5706,-7.1557 -15.2497,-12.6423 -24.8126,-17.0312 l 0,-189.0938 -0.0312,0 c 1.5064,-21.966005 -15.2332,-40.425605 -34.2188,-44.843805 -2.395,-0.5573 -4.8853,-0.8504 -7.375,-0.875 z m -1.2187,14.1563 c 1.7006,-0.04 3.481,0.1602 5.3437,0.5937 11.9216,2.7744 24.4419,16.5203 23.2813,30.375005 a 7.1202884,7.1202884 0 0 0 0,0.5938 l 0,183.5312 c -15.6913,-5.1717 -32.4585,-7.9104 -46.6563,-8.6874 l -1.5,-21 0,-153.4376 c 0.8024,-15.101405 4.9347,-23.547905 9.375,-27.718705 3.0527,-2.8674 6.4149,-4.163 10.1563,-4.25 z m -411.7813,0.2813 -4.0624,1.25 -2.5938,3.3437 -0.25,4.2187 0.9062,2.125 27.8126,43.625005 3.25,2.7188 4.2187,0.4062 3.6875,-2.0624 1.9062,-3.7813 -0.625,-4.1875 -0.4062,-0.75 -22.9688,-36.000005 1,-1.2812 0.25,-4.2188 -2.1874,-3.625 -3.875,-1.75 -0.8438,-0.031 -5.2188,0 z m 33.6876,0 -4.0626,1.25 -2.5937,3.3437 -0.25,4.2187 2.1875,3.625 3.8438,1.75 0.875,0.031 56.9374,0 4.0626,-1.25 2.5937,-3.3437 0.2813,-4.2188 -2.2188,-3.625 -3.8438,-1.75 -0.875,-0.031 -56.9374,0 z m 85.4374,0 -4.0624,1.25 -2.5938,3.3437 -0.2812,4.2187 2.2187,3.625 3.8437,1.75 0.875,0.031 56.9376,0 4.0624,-1.25 2.5938,-3.3437 0.25,-4.2188 -2.1875,-3.625 -3.8437,-1.75 -0.875,-0.031 -56.9376,0 z m 85.4376,0 -4.0626,1.25 -2.5937,3.3437 -0.2813,4.2187 2.1876,3.625 3.875,1.75 0.875,0.031 56.9374,0 4.0626,-1.25 2.5937,-3.3437 0.25,-4.2188 -2.1875,-3.625 -3.8438,-1.75 -0.875,-0.031 -56.9374,0 z m 85.4062,0 -4.0312,1.25 -2.625,3.3437 -0.25,4.2187 2.1874,3.625 3.875,1.75 0.8438,0.031 56.9688,0 4.0312,-1.25 2.625,-3.3437 0.25,-4.2188 -2.1875,-3.625 -3.8437,-1.75 -0.875,-0.031 -56.9688,0 z m -248.2812,67.750005 -3.6876,2.0624 -1.875,3.8126 0.5938,4.1874 0.4375,0.75 30.625,48 3.25,2.75 4.2187,0.4063 3.6876,-2.0625 1.875,-3.8125 -0.5938,-4.1875 -0.4375,-0.75 -30.625,-48 -3.25,-2.75 -4.2187,-0.4062 z m 316.8124,68.125 c 4.2555,-0.015 8.2295,0.7376 11.0313,2.0624 3.7357,1.7665 5.2991,3.5862 5.5625,7.25 l 2.9062,40.5938 0,20.5312 c -0.3938,0.033 -0.7914,0.057 -1.1874,0.094 -7.1073,0.422 -14.3248,1.8102 -21.3438,4.2812 -1.5496,0.496 -3.0837,1.0105 -4.5938,1.5938 -4.6644,1.8017 -9.2197,4.1414 -13.25,7.0312 l -3.6874,-66.4687 c -0.2566,-4.6189 1.5112,-7.7396 5.1562,-10.7187 3.645,-2.9792 9.3082,-5.2192 15.0938,-5.9688 1.4465,-0.1875 2.894,-0.2762 4.3124,-0.2812 z m -270.8437,3.9062 -3.7187,2.0625 -1.875,3.7813 0.625,4.2187 0.4062,0.75 30.6562,48 3.2188,2.7187 4.2188,0.4376 3.7187,-2.0626 1.875,-3.8124 -0.625,-4.1876 -0.4063,-0.75 -30.6562,-48 -3.2188,-2.75 -4.2187,-0.4062 z m 148.7187,6.375 c 3.1275,0.056 6.7873,0.769 9.875,2.125 4.1169,1.8079 6.9302,4.5576 7.8438,7 2.711,7.2464 4.4076,16.0982 5.2812,25.4062 -0.4598,10.4649 -0.9733,21.7595 -0.25,32.6563 -0.4371,3.9888 -0.9999,7.821 -1.7187,11.375 -0.7723,3.818 -3.6095,8.4528 -7.5,11.9063 -3.8905,3.4533 -8.6902,5.6087 -12.4687,5.8124 -4.1607,0.2245 -9.8549,-1.5591 -14.4688,-4.75 -4.6139,-3.1909 -7.9266,-7.6172 -8.8125,-11.375 -3.9563,-16.7804 -0.9623,-42.2141 -1.1875,-62.8124 -0.033,-3.0476 2.1222,-6.993 6.25,-10.4688 4.1278,-3.4759 9.9248,-6.0723 14.25,-6.7188 0.8847,-0.1322 1.8638,-0.1747 2.9062,-0.1562 z m 61.125,0 c 3.1187,0.056 6.7561,0.769 9.8438,2.125 4.117,1.8079 6.9614,4.5576 7.875,7 7.085,18.938 7.4687,48.733 3.2812,69.4375 -0.7723,3.818 -3.5782,8.4528 -7.4687,11.9063 -3.8905,3.4533 -8.7215,5.6087 -12.5,5.8124 -4.1607,0.2245 -9.8547,-1.5591 -14.4687,-4.75 -4.614,-3.1909 -7.9266,-7.6172 -8.8126,-11.375 -0.919,-3.8981 -1.4561,-8.2745 -1.75,-12.9374 1.1469,-10.6789 1.3425,-22.1663 0.3126,-33.3438 0.1962,-5.6717 0.3388,-11.2661 0.2812,-16.5312 -0.033,-3.0476 2.1223,-6.993 6.25,-10.4688 4.1277,-3.4759 9.9248,-6.0723 14.25,-6.7188 0.8847,-0.1322 1.8667,-0.1747 2.9062,-0.1562 z m -163.875,65.6562 -3.7187,2.0626 -1.875,3.7812 0.625,4.1875 0.4063,0.75 30.625,48.0313 3.25,2.7187 4.2187,0.4063 3.6875,-2.0626 1.9062,-3.7812 -0.625,-4.1875 -0.4062,-0.75 -30.6562,-48.0313 -3.2188,-2.7187 -4.2188,-0.4063 z m -79.2812,130.8126 -42.7812,9.0312 -42.781299,9.0312 41.843699,15.2188 41.8438,15.2188 0.8438,-21.5 2.2187,0 4.0625,-1.2813 2.5938,-3.3125 0.25,-4.25 -2.1876,-3.625 -3.8437,-1.7188 -0.875,-0.062 -1.6875,0 0.5,-12.75 z m 29.6875,12.75 -4.0625,1.25 -2.5938,3.3437 -0.2812,4.2187 2.1875,3.625 3.875,1.75 0.875,0.063 56.9375,0 4.0625,-1.2813 2.5937,-3.3125 0.25,-4.25 -2.1874,-3.625 -3.8438,-1.7188 -0.875,-0.062 -56.9375,0 z m 85.4063,0 -4.0313,1.25 -2.625,3.3437 -0.25,4.2187 2.1875,3.625 3.875,1.75 0.8438,0.063 56.9687,0 4.0313,-1.2813 2.625,-3.3125 0.25,-4.25 -2.1876,-3.625 -3.8437,-1.7188 -0.875,-0.062 -56.9687,0 z"
             style="font-size:medium;font-style:normal;font-variant:normal;font-weight:normal;font-stretch:normal;text-indent:0;text-align:start;text-decoration:none;line-height:normal;letter-spacing:normal;word-spacing:normal;text-transform:none;direction:ltr;block-progression:tb;writing-mode:lr-tb;text-anchor:start;baseline-shift:baseline;color:#000000;fill:#ffffff;fill-opacity:1;stroke:none;stroke-width:14.23915291;marker:none;visibility:visible;display:inline;overflow:visible;enable-background:accumulate;font-family:Sans;-inkscape-font-specification:Sans" />
        </g>
      </g>
      <rect
         y="16.503397"
         x="-15171.796"
         height="1027.4425"
         width="1023.3555"
         id="rect5661"
         style="fill:none;stroke:none" />
    </g>
  </g>
</svg>
